<svg xmlns="http://www.w3.org/2000/svg" width="1024" height="1024" viewBox="0 0 1024 1024"><path fill="#302d2d" d="M93.638 475.116c.64-11.34 2.267-16.485 4.028-27.266a428.6 428.6 0 0 1 80.324-186.316c16.845-21.909 39.505-42.411 59.176-61.857 3.92-3.875 9.202-6.941 13.383-10.582 17.255-15.031 36.779-26.974 56.14-39.003 8.316-4.96 17.485-7.976 26.147-12.015 10.178-4.894 20.317-10.571 30.763-14.839 5.159-2.108 11.632-4.143 17.009-5.861 6.176-1.974 14.089-5.719 20.181-7.135 36.056-8.378 71.941-16.43 109.208-14.89 6.186.256 12.565-.427 18.769-.025 30.262 2.498 60.799 6.201 90.353 13.286 12.765 3.06 24.433 8.271 36.588 13.039 8.376 3.272 17.309 6.083 25.59 9.595a417.9 417.9 0 0 1 105.94 64.178c16.305 13.363 25.243 23.058 39.633 37.94 62.52 64.659 94.163 149.435 108.434 236.88 5.339 32.713 1.837 69.603-.296 102.625-.459 7.108-2.456 14.113-3.324 20.997a187 187 0 0 0-2.157 12.68c-1.856 12.951-4.247 23.944-8.737 36.279-1.226 3.367-1.542 7.933-2.794 11.374-3.715 9.929-6.878 19.998-11.041 29.77-5.177 11.938-11.188 23.396-16.199 35.437-2.005 4.819-6.12 9.844-8.334 14.492-4.027 8.554-9.407 15.811-14.42 23.678-7.973 12.512-16.284 25.334-26.239 36.384-3.42 3.795-11.629 15.225-15.911 16.343-.038 2.465.289 4.142-.967 6.117-1.218.466-1.402.623-2.681.715-4.075 2.334-5.371 5.455-9.4 8.076-2.282 4.026-2.956 4.774-7.066 7.291-7.8 9.034-10.425 10.249-19.111 17.457-6.681 6.957-7.959 5.613-14.799 10.793-11.946 9.049-24.151 17.678-36.859 25.65-7.698 4.829-17.202 9.471-25.293 14.312-5.913 2.43-11.242 5.43-17.199 7.868-14.626 5.987-29.136 12.631-43.867 18.332-7.876 3.047-17.615 4.267-25.763 6.575-14.581 4.058-28.708 7.806-43.837 9.231-2.384.224-6.414.947-8.635.381-1.934 1.189-13.453 2.748-16.036 2.936-83.207 6.073-169.144-7.273-242.535-48.424-11.64-6.527-24.307-10.994-35.096-19.433-3.334-2.608-4.596-2.761-4.66-7.291.052.184-14.713-9.951-16.393-11.438-4.914-4.353-12.16-9.05-17.033-13.354-5.978-5.28-11.779-11.073-17.751-16.426-4.77-4.276-10.114-8.503-14.586-12.959-6.43-6.406-12.152-13.733-18.658-20.201-1.944-1.933-3.937-6.573-6.001-9.143a419.9 419.9 0 0 1-88.532-222.096c-1.587-16.485-2.67-37.123-1.445-53.623-.616-5.683.373-13.466.778-19.386.005-5.615.691-11.534 1.21-17.148m294.747-346.877c-1.444.838-2.698 1.51-4.022 2.543 2.527 1.62 8.42 1.396 9.005-1.619l-.888-1.014c-1.571.359-2.59.836-4.095.09"/><path fill="#f1c37d" d="M93.638 475.116c.64-11.34 2.267-16.485 4.028-27.266a428.6 428.6 0 0 1 80.324-186.316c16.845-21.909 39.505-42.411 59.176-61.857 3.92-3.875 9.202-6.941 13.383-10.582 17.255-15.031 36.779-26.974 56.14-39.003 8.316-4.96 17.485-7.976 26.147-12.015 10.178-4.894 20.317-10.571 30.763-14.839 5.159-2.108 11.632-4.143 17.009-5.861 6.176-1.974 14.089-5.719 20.181-7.135 36.056-8.378 71.941-16.43 109.208-14.89 6.186.256 12.565-.427 18.769-.025 30.262 2.498 60.799 6.201 90.353 13.286 12.765 3.06 24.433 8.271 36.588 13.039 8.376 3.272 17.309 6.083 25.59 9.595a417.9 417.9 0 0 1 105.94 64.178c16.305 13.363 25.243 23.058 39.633 37.94 62.52 64.659 94.163 149.435 108.434 236.88 5.339 32.713 1.837 69.603-.296 102.625-.459 7.108-2.456 14.113-3.324 20.997a187 187 0 0 0-2.157 12.68c-1.856 12.951-4.247 23.944-8.737 36.279-1.226 3.367-1.542 7.933-2.794 11.374-3.715 9.929-6.878 19.998-11.041 29.77-5.177 11.938-11.188 23.396-16.199 35.437-2.005 4.819-6.12 9.844-8.334 14.492-4.027 8.554-9.407 15.811-14.42 23.678-7.973 12.512-16.284 25.334-26.239 36.384-3.42 3.795-11.629 15.225-15.911 16.343-1.644-9.136-4.392-13.754-9.006-21.799-4.436-4.03-6.568-7.962-10.284-12.475-2.883-3.502-6.929-6.913-10.295-10.119 3.256.648 8.167 1.664 11.125.292 1.146-1.526.885-.696.869-2.557-2.242-3.686-10.215-2.929-15.638-5.272-7.147-3.088-12.016-5.965-18.676-9.845 4.868-.126 17.482 1.459 20.49-2.033.094-.695.321-1.214-.024-1.868-.722-1.372-12.451-7.13-14.674-8.501-13.122-8.098-23.246-16.452-32.934-28.517-1.766-2.198-4.264-4.62-5.483-7.132l.201-.541c3.764-.263 9.287 4.452 13.499 2.104.388-.944.298-3.587-.366-4.151-23.305-19.783-24.056-43.761-30.859-72.633 1.828 2.168 3.604 5.086 6.621 5.146 6.125-4.711-2.227-35.503-5.575-42.262-1.531-3.091-5.385-8.774-7.265-12.406 11.979-.81 18.148-5.763 27.458-12.605 3.544-2.696 7.573-2.941 11.019-4.993 32.668-19.457 48.713-49.919 45.197-87.743-2.809-30.206-12.098-47.211-34.705-66.609 3.853.865 8.523 2.839 11.732.506 3.99-7.323-20.023-30.274-25.272-35.338 2.626 1.222 4.718 2.529 7.544 2.374 9.315-6.226-24.103-17.923-27.644-19.116-1.133-3.499-1.882-8.035-3.29-11.269-9.877-22.67-21.314-43.968-40.21-60.506-3.503-3.067-6.556-7.922-10.247-11.006-26.12-21.827-56.853-38.389-89.946-46.65-7.173-1.847-14.724-2.159-21.927-3.419-42.415-7.424-84.819 7.847-120.238 30.86-5.617-5.929-40.038-24.223-45.685-17.076-.381 3.325 4.521 7.921 7.134 11.508-2.554-.345-7.267-1.078-9.662-.972-7.318.323-33.588 2.955-37.575 8.285-1.043 6.017 10.754 9.987 15.266 11.366-3.831 1.931-8.545 4.532-12.01 7.012-5.601 4.009-31.855 24.729-29.072 30.953 1.507 1.075 3.334 1.082 5.212 1.311-3.376 5.601-9.997 12.516-13.616 18.166-5.704 8.904-10.569 17.678-17.166 26.049-3.428 4.349-9.233 7.752-11.192 12.749.446 6.304 6.64 2.995 9.441 3.481-.965 2.829-12.656 8.886-15.526 10.933-3.202 2.283-18.413 7.434-19.297 10.277 1.36 9.433 22.912 17.735 31.085 18.43l-.342.601c-2.344.785-18.645 6.228-19.312 7.303-2.072 3.344.739 19.762 1.215 24.328.216 2.073 4.433 4.27 6.144 5.092.055 9.652 2.102 18.519 4.84 27.707 3.891 13.054 14.458 22.142 25.194 29.947-5.808 2.745-35.298 12.736-20.396 19.827-10.919 5.181-39.643 20.254-43.396 31.79-.915 2.812-.428 5.863-.111 8.739-4.595 4.593-9.767 19.308-7.265 25.252 1.479 1.229 3.012.925 4.885 1.053-1.184 6.069-9.244 32.099-.376 34.174 2.394-.872 3.153-3.261 4.216-5.55l.367-.796c-.084 17.093 5.053 38.053 14.837 52.421.337.494 1.309.996 1.853 1.262 3.882-.669 2.418-5.251 2.477-7.976 2.822 7.184 4.781 9.072 9.298 15.056 5.588 7.403 8.194 15.962 17.056 20.425l.852-.108 1.096-1.522c2.527 1.299 19.676 27.349 21.315 9.174 3.057 5.798 12.239 18.663 19.366 18.245 3.495-2.275 1.05-6.798-.047-10.079 3.645 3.162 17.924 15.635 22.124 9.403.502-3.39-.763-6.509.043-8.309 2.405 1.286 5.504 5.682 7.492 7.073 2.767 1.937 13.377 5.797 16.373 5.224l1.501-1.216c2.708 1.348 6.012 9.745 7.037 12.796a43.43 43.43 0 0 1-2.332 33.051c-7.823 15.58-21.119 22.712-37.048 29.193-2.866 1.166-6.393 1.363-8.333 4.01-.104 4.383 14.436 6.272 17.807 6.451a220 220 0 0 1-13.717 5.848c-3.985 1.543-11.861 2.367-13.818 6.011-.711 7.221 8.645 10.139 14.115 11.06-6.61 4.998-15.715 11.08-21.442 16.768-14.194 14.097-29.868 38.139-53.965 28.423-4.666-2.31-6.906-2.933-11.941-3.954.052.184-14.713-9.951-16.393-11.438-4.914-4.353-12.16-9.05-17.033-13.354-5.978-5.28-11.779-11.073-17.751-16.426-4.77-4.276-10.114-8.503-14.586-12.959-6.43-6.406-12.152-13.733-18.658-20.201-1.944-1.933-3.937-6.573-6.001-9.143a419.9 419.9 0 0 1-88.532-222.096c-1.587-16.485-2.67-37.123-1.445-53.623-.616-5.683.373-13.466.778-19.386.005-5.615.691-11.534 1.21-17.148m294.747-346.877c-1.444.838-2.698 1.51-4.022 2.543 2.527 1.62 8.42 1.396 9.005-1.619l-.888-1.014c-1.571.359-2.59.836-4.095.09"/><path fill="#f1c37d" fill-opacity=".498" d="M384.363 130.782c1.324-1.033 2.578-1.705 4.022-2.543 1.505.746 2.524.269 4.095-.09l.888 1.014c-.585 3.015-6.478 3.239-9.005 1.619"/><path fill="#336a8d" d="M93.638 475.116c.64-11.34 2.267-16.485 4.028-27.266a428.6 428.6 0 0 1 80.324-186.316c16.845-21.909 39.505-42.411 59.176-61.857 3.92-3.875 9.202-6.941 13.383-10.582 17.255-15.031 36.779-26.974 56.14-39.003 8.316-4.96 17.485-7.976 26.147-12.015 10.178-4.894 20.317-10.571 30.763-14.839 5.159-2.108 11.632-4.143 17.009-5.861 6.176-1.974 14.089-5.719 20.181-7.135 36.056-8.378 71.941-16.43 109.208-14.89 6.186.256 12.565-.427 18.769-.025 30.262 2.498 60.799 6.201 90.353 13.286 12.765 3.06 24.433 8.271 36.588 13.039 8.376 3.272 17.309 6.083 25.59 9.595a417.9 417.9 0 0 1 105.94 64.178c16.305 13.363 25.243 23.058 39.633 37.94 62.52 64.659 94.163 149.435 108.434 236.88 5.339 32.713 1.837 69.603-.296 102.625-.459 7.108-2.456 14.113-3.324 20.997-1.502-3.981-1.008-14.834-1.293-19.744-.901-15.484-2.556-38.444-8.594-52.541 2.071.731 3.637 1.481 5.815 1.452 1.11-.746 2.01-2.216 2.094-3.505 1.211-18.601-3.132-54.959-12.726-70.56 2.122.589 3.503 1.205 5.643.775.658-.44 1.989-1.506 1.992-2.33.025-8.073-8.925-40.874-17.048-43.801 4.967-4.109-19.975-53.769-22.751-60.526-3.413-8.307-18.519-26.144-20.566-33.566-3.16-2.006-3.315-5.641-7.784-9.963 4.34 1.945 10.436 6.406 14.534 9.199-4.009-8.051-16.125-20.462-22.408-27.68-1.773-1.882-1.396-2.538-2.389-4.001-10.741-15.826-26.193-29.581-40.03-42.726-2.37-2.252-5.544-3.487-8.07-5.518-3.271-2.854-4.297-7.897-8.998-9.018-2.51-.598-4.773-3.252-6.734-5.239-10.679-10.818-23.052-19.624-34.697-29.107-5.28-5.951-24.854-17.547-32.206-22.626-2.183-1.508-8.757-4.475-11.668-6.197-4.685-2.773-9.782-6.528-14.774-8.334 3.241 2.268 13.283 8.336 12.144 12.589l-.832.443c-4.129-1.4-7.773-4.524-11.686-6.255-20.89-9.241-41.134-20.01-63.068-26.659-4.252-1.288-8.723-2.962-12.965-4.401-6.977-4.955-43.915-11.64-54.314-12.703-1.917-.196-6.346-.985-8.324-.825-1.496.121-3.022 2.618-3.742 3.942-11.183-.839-22.324-2.672-33.637-2.478-12.022.206-24.128-1.469-36.108.393-16.603 2.366-33.238 4.682-49.43 9.148l-1.159 1.529-.735-.014c-6.962-.082-17.539 3.332-22.717 8.048-.974 2.968-.939 4.317-4.396 5.021-2.906.592-5.413.714-8.323 1.534 3.954-2.115 7.423-4.577 5.393-9.71-2.538-2.444-4.136-1.514-6.742.326-1.444.838-2.698 1.51-4.022 2.543-6.652 4.579-8.914 6.85-13.598 13.534-2.865.831-4.928 1.324-7.844 1.916 3.191-4.029 12.536-11.048 7.284-15.179-6.695-1.381-24.623 20.567-29.889 24.826-6.577 5.319-18.891 6.265-23.972 12.232-21.101 7.169-32.989 17.963-50.546 31.219-3.26 2.462-7.302 4.842-10.344 7.303-6.12 4.953-12.508 10.479-18.374 15.738-5.487 4.92-8.873 10.779-14.938 15.566-8.637 5.206-29.221 20.103-32.261 29.839.5 1.363.946 1.277 2.417 2.296l.16.501.684 1.168c-6.425 4.1-12.706 9.181-18.453 14.183-3.434 2.989-6.539 7.746-1.726 11.139 3.729-.224 4.62-3.062 6.202-2.55-2.566 5.066-10.168 7.214-12.719 10.359-4.936 6.083-14.404 15.929-14.345 23.91l.667.502 1.541-.26c-.41 1.886-5.996 6.235-7.239 8.27-2.949 4.823-16.503 22.85-13.509 27.565 2.559-.163 5.067-2.917 7.085-4.723.075.318-8.695 19.276-9.705 21.317-4.162 8.419-6.135 16.456-8.367 25.467-8.294 8.46-13.235 17.226-17.996 28.014-2.419 5.482-8.718 17.27-4.217 22.804l2.384.544c.234 3.416-6.948 12.901-8.15 19.56-.298-1.438-.36-1.364-.957-2.726"/><path fill="#302d2d" d="M617.256 122.027c17.839 2.147 31.685 11.6 48.486 15.818l.914.237c-4.166-2.38-11.206-5.966-13.917-9.586l-.031-.919c2.207-.901 6.954.695 9.165 1.613 28.135 11.685 55.118 25.383 79.377 44.001 2.808 2.155 7.86 5.523 10.097 8.335.769.965.209 1.87-.152 2.728-1.246 1.112-1.858 1.018-3.521 1.214-5.28-5.951-24.854-17.547-32.206-22.626-2.183-1.508-8.757-4.475-11.668-6.197-4.685-2.773-9.782-6.528-14.774-8.334 3.241 2.268 13.283 8.336 12.144 12.589l-.832.443c-4.129-1.4-7.773-4.524-11.686-6.255-20.89-9.241-41.134-20.01-63.068-26.659-4.252-1.288-8.723-2.962-12.965-4.401 1.788-.686 2.946-1.124 4.637-2.001"/><path fill="#302d2d" d="M848.592 281.077c3.252-1.291 5.109.082 7.747 2.347 9.742 8.361 19.906 18.328 25.441 30.058 2.175 4.609-2.4 7.464-6.103 4.701-4.014-3.022-6.726-6.533-11.427-8.662-3.16-2.006-3.315-5.641-7.784-9.963 4.34 1.945 10.436 6.406 14.534 9.199-4.009-8.051-16.125-20.462-22.408-27.68"/><path fill="#302d2d" d="M192.298 270.072c-2.8 1.797-4.981 3.106-8.283 2.014-6.474-7.128 27.186-36.48 35.7-37.642 1.403.868 1.513 1.788 2.427 3.493-8.637 5.206-29.221 20.103-32.261 29.839.5 1.363.946 1.277 2.417 2.296"/><path fill="#336a8d" d="m102.855 497.63.662-.528c.493 1.633.089 4.102.311 5.914 1.019 8.295.337 21.139 6.028 27.309.26 4.837-.491 14.067.684 17.66-2.57 3.741-10.302 18.405-7.032 22.452 2.748.705 4.193-1.027 5.595-3.12 3.84 17.165 5.774 34.038 10.399 51.416 2.345 8.812 7.319 25.201 10.213 33.562.971 2.806-7.001 20.908-2.735 27.477 2.743 1.434 4.133-.315 6.058-2.218q.661-3.115 1.359-6.223c1.286 12.543 8.377 31.343 18.967 38.851.763 10.576 4.66 27.691 10.022 37.072 2.658 1.775 3.558-.085 6.395 1.571.49-1.384.903-3.365 1.888-4.077 3.467 3.827 5.857 9.499 8.691 13.779 3.965 5.988 8.057 12.363 12.187 18.198 6.163 8.707 15.423 16.252 22.977 23.798 2.019 2.016 5.199 9.128 7.636 11.437 5.271 4.994 10.363 9.667 16.179 14.235 3.873 3.026 8.298 5.405 11.99 8.647.026.023.597 3.304.692 3.465 2.537 4.301 7.695 7.614 11.178 11.232-3.391-1.238-6.469-2.752-9.988-1.843-2.858 2.51-.144 6.911 2.245 8.717 6.012 4.546 13.971 7.439 21.36 8.73 2.328.394 6.073.548 7.876 1.34-2.067 3.805-1.909 3.724-.703 8.361-4.666-2.31-6.906-2.933-11.941-3.954.052.184-14.713-9.951-16.393-11.438-4.914-4.353-12.16-9.05-17.033-13.354-5.978-5.28-11.779-11.073-17.751-16.426-4.77-4.276-10.114-8.503-14.586-12.959-6.43-6.406-12.152-13.733-18.658-20.201-1.944-1.933-3.937-6.573-6.001-9.143a419.9 419.9 0 0 1-88.532-222.096c-1.587-16.485-2.67-37.123-1.445-53.623 6.88 3.298 8.24-1.631 9.848-7.379.658-2.353 1.195-4.145 1.358-6.641"/><path fill="#336a8d" d="M922.024 600.751c2.594 3.079 3.585 4.541 7.503 5.796-1.856 12.951-4.247 23.944-8.737 36.279-1.226 3.367-1.542 7.933-2.794 11.374-3.715 9.929-6.878 19.998-11.041 29.77-5.177 11.938-11.188 23.396-16.199 35.437-2.005 4.819-6.12 9.844-8.334 14.492-4.027 8.554-9.407 15.811-14.42 23.678-7.973 12.512-16.284 25.334-26.239 36.384-3.42 3.795-11.629 15.225-15.911 16.343-1.644-9.136-4.392-13.754-9.006-21.799 1.769-1.759 3.906-3.294 5.631-5.116 4.027-4.252 6.72-8.758 8.933-14.163.329-.805 1.549-1.053 2.342-1.275 1.339 1.501.112 4.312.706 6.278.325 1.08.799 1.895 1.882 2.345a3.33 3.33 0 0 0 3.019-.213c5.607-3.325 19.619-40.991 21.627-48.555 9.741-5.037 6.52-7.3 12.386-17.291l1.016.335c-.352 2.508-.728 2.75 1.367 4.167 5.817.235 14.477-29.447 14.554-33.833.272-15.614 8.951-17.604 11.776-31.609 8.162 4.199 11.07-29.054 11.378-33.94 1.808 3.046 4.442 10.918 7.551 11.94 6.071-2.417 1.754-21.67 1.01-26.824"/><path fill="#302d2d" d="M916.188 442.083c-1.177-8.693-5.446-17.699-8.047-26.07-.975-3.138-4.416-8.665-3.236-11.607 1.508-1.165.662-.872 2.662-.793 8.123 2.927 17.073 35.728 17.048 43.801-.003.824-1.334 1.89-1.992 2.33-2.14.43-3.521-.186-5.643-.775 9.594 15.601 13.937 51.959 12.726 70.56-.084 1.289-.984 2.759-2.094 3.505-2.178.029-3.744-.721-5.815-1.452 6.038 14.097 7.693 37.057 8.594 52.541.285 4.91-.209 15.763 1.293 19.744a187 187 0 0 0-2.157 12.68c-3.918-1.255-4.909-2.717-7.503-5.796.744 5.154 5.061 24.407-1.01 26.824-3.109-1.022-5.743-8.894-7.551-11.94-.308 4.886-3.216 38.139-11.378 33.94.35-1.789 1.378-4.15 2.033-5.887 4.008-10.629 5.056-20.923 4.427-32.173-.084-1.51.079-4.295 1.238-5.397l1.491.043c3.46 1.999 5.316 6.687 7.249 10.367-.257-5.305-.991-10.431-1.665-15.675-.386-3.01-3.769-12.384.393-12.918 3.817 1.72 5.802 5.409 8.239 8.885-2.736-22.329-1.416-45.132-6.492-67.263-.979-4.265-6.507-13.294-2.225-16.234 3.208-.196 4.745.946 7.159 2.915a172.8 172.8 0 0 0-13.07-65.982c-1.311-3.215-5.278-10.671.412-11.39 2.407.791 2.994 1.537 4.914 3.217"/><path fill="#302d2d" d="M122.574 406.92c-.537 2.195-3.173 13.391-3.821 14.643-3.864 7.473-6.977 10.785-9.538 19.322-1.902 4.373-2.854 7.105-4.279 11.643q3.371-2.783 6.667-5.654l1.625-1.322.296.376c-1.424 4.54-3.858 12.134-5.893 16.233-1.735 3.495-5.789 8.819-7.943 12.26 3.257-.784 6.065-2.806 7.917-3.15 1.163.638 1.537 1.483 2.265 2.608-7.984 10.005-13.435 21.379-15.146 34.071 2.55-3.372 5.244-7.364 8.131-10.32-.163 2.496-.7 4.288-1.358 6.641-1.609 5.748-2.967 10.677-9.848 7.379-.616-5.683.373-13.466.778-19.386.005-5.615.691-11.534 1.21-17.148.598 1.362.66 1.288.957 2.726 1.203-6.659 8.385-16.144 8.151-19.56l-2.384-.544c-4.501-5.534 1.798-17.322 4.217-22.804 4.761-10.788 9.702-19.554 17.996-28.014"/><path fill="#336a8d" d="M93.638 475.116c.597 1.362.659 1.288.956 2.726 1.924 1.34 2.478 1.594 4.654 2.494-1.189 2.187-5.473 10.796-6.821 11.928.005-5.615.691-11.534 1.21-17.148"/><path fill="#336a8d" d="M873.372 710.515c.092-3.35 2.876-8.188 4.405-11.481.178 2.813-2.32 9.15-3.389 11.816z"/><path fill="#336a8d" d="M192.458 270.573c2.264-1.753 4.472-3.82 7.146-4.576l.394.394c-1.803 2.775-3.969 3.648-6.856 5.35z"/><path fill="#ede3ce" d="M831.959 349.734c15.395 4.56 28.792 34.261 19.591 48.382-1.839.556-1.76.553-3.674.455-.843-.502-1.905-1.038-1.946-2.148-.433-11.86 1.12-22.015-6.79-32.235-1.707-2.206-8.529-8.946-9.101-10.929.016-1.604.859-2.258 1.92-3.525"/><path fill="#ede3ce" d="M242.156 774.266c.735.101 1.447.294 2.175.463 2.75 2.225 6.804 19.397 9.174 24.962 2.649 6.223 15.13 18.349 16.361 21.669-.359 1.369-1.111 2.153-1.965 3.292-11.556-1.409-26.727-32.942-27.429-43.765-.228-3.52-.458-3.855 1.684-6.621"/><path fill="#ede3ce" d="M877.606 491.296c.555.208 1.817.752 2.233 1.186 7.599 7.922 19.706 32.228 11.863 42.358-1.539.232-1.784.407-3.262-.102-1.244-1.755-1.028-9.314-1.765-13.032-2.021-10.192-8.451-17.472-11.384-26.866-.344-1.102 1.565-2.751 2.315-3.544"/><path fill="#ede3ce" d="M196.155 665.713c1.615.149 1.571.273 2.986 1.146 1.822 2.469.965 13.706 1.89 18.977 1.441 8.215 8.864 17.888 9.429 21.156-.323 1.537-1.223 1.981-2.481 2.988-.9-.073-2.543-.239-3.19-.921-8.037-8.47-16.537-33.145-8.634-43.346"/><path fill="#ede3ce" d="M568.57 141.014c10.149-1.229 33.968 8.716 36.487 19.989.287 1.287-1.714 2.758-2.554 3.539-3.256-1.074-10.051-9.659-14.233-11.607-6.9-3.214-13.344-3.617-20.169-6.156-1.204-.449-1.488-1.416-1.807-2.421.247-1.68 1.034-2.147 2.276-3.344"/><path fill="#ede3ce" d="M172.949 634.214c.92.437 1.752.957 2.632 1.472.721 1.323-.887 10.886-1.335 13.072-2.661 12.979 1.019 22.128 3.673 34.486.241 1.12-1.46 2.494-2.242 3.314-7.656-1.069-8.388-31.584-7.319-37.685 1.079-6.163.602-9.423 4.591-14.659"/><path fill="#ede3ce" d="M764.934 229.214c7.886 2.396 32.963 13.258 34.423 21.481-.312 1.449-1.011 1.822-2.144 2.81-4.068.246-12.752-8.272-16.856-10.567-4.473-2.501-15.36-4.975-17.108-9.495-.031-1.992.586-2.557 1.685-4.229"/><path fill="#ede3ce" d="M873.599 532.311c8.893 1.246 15.415 21.108 14.929 28.902-.208 3.326-.328 3.967-2.701 6.235-1.728.029-2.433.217-3.873-.724-1.166-2.492-.348-9.983-1.742-14.553-1.641-5.379-8.485-12.797-9.093-16.649.319-1.537 1.284-2.122 2.48-3.211"/><path fill="#ede3ce" d="M177.039 516.065c2.655-.342 5.716-.333 7.312 2.216-.415 4.193-3.376 3.706-6.359 4.606-8.171 2.467-15.607 11.559-19.725 18.34-.63.702-.722.643-1.557 1.157-2.04-.301-1.102.053-2.851-1.272-3.262-8.107 16.294-22.126 23.18-25.047"/><path fill="#ede3ce" d="M400.779 177.617c5.052-.309 9.49.251 12.851 4.377.349 4.275-10.305 3.346-13.211 3.495-4.008.206-6.506 1.147-10.27 2.308-2.442 2.033-7.205 6.476-9.759 2.148-.084-7.689 14.426-11.185 20.389-12.328"/><path fill="#ede3ce" d="M223.137 298.431c2.309.758 3.716.791 4.085 3.346-1.513 3.711-4.504 5.566-6.677 10.22-3.203 6.857-.186 14.339-4.835 18.618-5.571-1.869-5.243-6.874-4.432-11.898 1.305-8.092 5.027-15.483 11.859-20.286"/><path fill="#ede3ce" d="M252.64 263.074c1.922.199 3.225.687 4.176 2.487-.52 2.234-3.555 3.319-5.709 4.158-11.949 4.653-13.58 8.262-21.98 16.846-1.269.382-2.38.141-3.666-.123l-.514-.895c.284-10.192 18.791-20.359 27.693-22.473"/><path fill="#ede3ce" d="M257.148 290.398c2.4.249 4.184.556 5.248 2.898-.618 3.654-6.119 4.67-9.122 8.194-4.289 5.034-6.072 9.633-8.653 15.593-12.168-.66 1.548-17.547 5.136-21.033 2.654-2.577 4.139-3.802 7.391-5.652"/><path fill="#ede3ce" d="M781.962 252.818c7.578 0 21.052 9.951 22.712 17.804.439 2.079-.352 2.728-1.508 4.205-2.035.1-2.125.049-3.644-.868-5.901-11.827-16.028-11.082-18.759-16.545-.321-1.874.387-2.845 1.199-4.596"/><path fill="#ede3ce" d="M364.581 170.993c2.199.281 3.03.958 3.403 3.011-1.36 3.147-7.187 4.443-10.186 6.838-4.82 3.851-8.565 8.123-12.926 12.446-2.169-.923-2.363-1.009-3.415-2.793-.684-8.071 16.42-17.233 23.124-19.502"/><path fill="#ede3ce" d="M270.407 787.864c.596.013 1.281.003 1.864.13 1.73.379 9.987 14.247 11.688 16.884 2.59 1.437 4.539 2.084 5.684 4.704.101 1.905-.38 2.308-1.429 3.908-8.492.128-18.141-14.489-19.156-22.039-.248-1.847.395-2.288 1.349-3.587"/><path fill="#ede3ce" d="M166.484 542.89c1.332.143 2.42.65 3.069 1.842.311.571.554 2.127.245 2.617-3.042 4.827-6.784 9.493-8.948 14.787-.794 1.958-.806 2.161-2.129 3.793-8.171-1.516-3.246-10.912-.447-15.079 2.496-3.715 4.619-5.497 8.21-7.96"/><path fill="#ede3ce" d="M848.51 339.168c6.9 2.612 15.871 19.101 10.032 25.711-4.273-.807-4.011-6.254-5.561-9.768-1.84-4.172-5.797-7.679-6.828-12.07.211-1.866 1.071-2.469 2.357-3.873"/><path fill="#ede3ce" d="M220.7 688.772c7.196.705 4.487 3.539 6.934 8.812 1.655 3.569 5.322 7.009 7.047 10.716.724 1.555.011 2.268-.598 3.735-6.529.308-9.548-7.277-12.237-12.34-1.851-3.484-2.611-7.138-1.146-10.923"/><path fill="#ede3ce" d="M614.026 151.35c5.083.252 19.203 6.054 19.675 12.417.063.848-.856 1.56-1.455 2.251-4.307.726-6.825-2.264-10.366-4.464-2.019-1.254-8.443-4.581-9.401-6.232-.044-1.789.593-2.441 1.547-3.972"/><path fill="#ede3ce" d="M865.471 561.417c1.008-.042 1.794.026 2.795.083 4.99 2.671 5.973 15.342 3.311 20.177-7.675-.119-8.5-16.604-6.106-20.26"/><path fill="#ede3ce" d="M398.355 163.699c2.323-.328 2.348-.204 3.947 1.133 1.234 4.78-11.603 7.45-15.347 8.626-1.896-.351-2.634-1.102-3.675-2.517-.774-5.288 11.154-6.786 15.075-7.242"/><path fill="#ede3ce" d="M305.168 784.931c2.323.956 11.762 8.039 12.328 10.253-.187 1.926-1.001 2.753-2.106 4.354-4.873-1.063-11.507-5.564-12.5-10.733.293-1.889 1.019-2.425 2.278-3.874"/><path fill="#858479" d="M449.796 122.626c1.348-.218.877-.403 1.843.051-1.478.807-5.239 1.516-7.048 1.93l-1.643.374-.141-.607c2.422-1.154 4.348-1.304 6.989-1.748"/><path fill="#ede3ce" d="M341.807 397.486c2.853 0 10.078-.212 12.528.532l.566.141c3.952.948 7.982 1.019 11.968 2.03 20.603 5.227 31.467 10.855 39.466 30.833 10.042-5.6 19.956-1.863 29.136 3.007 5.347-14.811 18.011-26.692 33.537-29.131 38.629-6.067 81.136 1.495 117.744 14.337 2.702.948 8.479 3.83 10.702 4.323-2.605 9.461-2.882 17.129-4.934 26.171 6.185 1.039 12.229.986 18.47 1.476 6.496.51 12.001 1.499 18.532 1.103-7.618 37.983-.539 78.255 31.015 103.729-3.714 2.606-7.027 5.408-10.685 8.057-17.08 12.371-34.451 24.432-52.049 36.042-7.606 5.018-17.244 9.305-25.241 13.75-2.666 1.289-5.41 4.492-7.837 5.021-1.499-.628-1.906-1.44-2.895-2.738-14.583-5.085-22.396-6.539-37.633-.208-19.335 8.033-26.525 32.05-17.091 50.403a31.95 31.95 0 0 0 18.631 15.956c10.472 3.323 23.276 2.62 33.051-2.54a35.32 35.32 0 0 0 17.289-21.286c1.581-5.266 1.933-10.445 1.335-15.884 12.425-3.247 28.392-16.792 39.937-22.936 5.292-2.816 11.548-8.504 16.725-11.888 13.242-8.656 26.058-18.316 37.837-28.872 1.759-1.577 3.845-2.989 5.811-4.343 1.869 5.013 10.484 29.488 3.199 32.403-5.445-.968-9.671-9.11-13.899-8.664-3.276 3.228.905 6.738.939 10.231.145 14.784-.287 42.055-15.042 50.088-3.123-5.106-9.563-15.037-15.525-17.214l-1.196.12c-1.57 2.052-1.261 4.877-.641 7.349 2.244 8.944-.22 23.843-8.347 29.493-.921.007-2.288-.167-2.711-1.101-2.297-5.078-11.63-20.134-18.766-15.895-.041.106.169 7.454.308 8.677 1.133 9.962-20.084 34.311-28.934 31.133-1.912-1.762-2.737-4.554-3.951-7.028-10.209 3.939-19.616 14.402-27.911 21.449-1.123.954-1.422.699-2.769.701-4.254-2.997 1.813-14.495 3.883-17.845.486-.787-.735-2.62-1.128-3.233-.92-.54-1.065-.596-2.152-.267-8.783 2.66-22.858 21.213-26.253 21.666-4.542-2.627-1.23-13.594-.018-17.324l-.682-.663c-7.369-.061-13.121 5.969-18.288 10.153-5.812 4.705-8.21 14.342-12.753 16.708-7.299-.159-1.062-21.988-6.498-22.979-8.954 4.528-10.479 20.704-15.954 20.134-3.47-2.765-5.983-6.802-9.109-9.525-6.661-5.801-25.375-15.201-33.658-10.226-2.776 4.5 7.03 15.813 9.979 19.406-6.839-2.62-37.007-15.811-41.626-14.444-.507 1.974 3.409 8.827 4.572 11.129-9.422-5.684-18.387-8.857-25.462-17.777-.77-.97-1.168-.862-2.162-.808-2.112 3.36 1.912 10.328.903 14.128-3.117.931-11.277-5.695-13.438-8.166-2.287-2.617-5.122-8.561-8.092-9.281l-.814.562c-1.511 4.613.445 11.659 1.591 16.306-6.566-5.99-13.368-17.276-17.878-21.097-2.123 1.31-2.638 5.88-3.135 8.262-7.261-4.813-12.074-10.147-14.312-18.745-.851-3.271-.299-6.124-3.362-7.977l-.936.276c-2.001 2.775-1.737 6.576-1.742 9.923-6.848-8.649-10.301-14.187-13.843-24.921 9.325-4.379 11.136-7.292 17.046-15.287 2.587 1.574 5.696 4.159 8.544 5.99 24.658 15.857 54.117 18.251 82.196 11.873 25.187-5.721 43.731-16.939 63.411-33.212 3.3-2.729 9.219-7.352 11.346-10.755 1.019 3.691 1.205 5.358 4.022 7.846.155-1.498.235-2.121.572-3.636 1.488-1.379 1.228-.967 3.53-1.471-2.134-6.15-8.471-17.299-16.157-16.634-1.584.99-1.048.311-1.605 2.153.651 3.526 2.332 4.42 5.044 6.726-3.21 2.466-6.79 6.662-10.528 9.495-18.902 13.975-40.987 30.339-65.061 33.146-37.708 4.396-83.23-5.187-90.29-48.781 10-.789 19.052-6.414 26.181-13.152 8.987-8.794 21.025-19.744 22.037-32.983 1.571-20.552-31.067-24.168-45.681-25.234-7.165-.523-17.528 1.515-25.51 1.222l-.233-.46c3.152-4.579 19.87-11.429 24.997-14.292 2.845-1.589 12.407-3.154 12.039-7.394l-1.294-1.169c-4.144-.089-8.991.479-13.174.362 4.652-3.36 23.088-11.305 28.987-13.327-1.825-1.001-6.387-3.164-8.403-3.043-10.736-7.805-21.303-16.893-25.194-29.947-2.738-9.188-4.785-18.055-4.84-27.707-1.711-.822-5.928-3.019-6.144-5.092-.476-4.566-3.287-20.984-1.215-24.328.667-1.075 16.968-6.518 19.312-7.303l.342-.601c3.194.899 13.861-2.896 18.65-3.454 1.611.439 15.957-1.449 18.771-1.753"/><path fill="#336a8d" d="M341.807 397.486c2.853 0 10.078-.212 12.528.532l.566.141c3.952.948 7.982 1.019 11.968 2.03 20.603 5.227 31.467 10.855 39.466 30.833 10.042-5.6 19.956-1.863 29.136 3.007 5.347-14.811 18.011-26.692 33.537-29.131 38.629-6.067 81.136 1.495 117.744 14.337 2.702.948 8.479 3.83 10.702 4.323-2.605 9.461-2.882 17.129-4.934 26.171-6.469 6.415-12.128-2.49-14.422 15.608-1.247 9.841-6.42 23.827-11.96 32.113-18.624 33.879-63.046 38.402-95.438 23.272-3.235-1.535-6.873-4.803-9.963-6.85-21.899-14.506-28.455-36.75-28.107-62.512a71 71 0 0 1 .082-2.886c-11.198-7.264-14.886-8.229-27.001-1.642-2.398 17.651-8.374 32.784-22.847 43.877a59.7 59.7 0 0 1-44.186 11.943c-2.916-.407-5.327-1.119-8.15-1.938-1.825-1.001-6.387-3.164-8.403-3.043-10.736-7.805-21.303-16.893-25.194-29.947-2.738-9.188-4.785-18.055-4.84-27.707-1.711-.822-5.928-3.019-6.144-5.092-.476-4.566-3.287-20.984-1.215-24.328.667-1.075 16.968-6.518 19.312-7.303l.342-.601c3.194.899 13.861-2.896 18.65-3.454 1.611.439 15.957-1.449 18.771-1.753"/><path fill="#ede3ce" d="M485.864 413.696c14.676-3.022 50.092 4.954 63.107 11.569 20.641 10.492 18.927 39.405 12.275 58.227-6.676 18.889-19.49 27.405-38.14 33.537-7.329 2.322-19.845 1.722-27.402.414-31.634-5.476-53.865-30.401-51.697-63.141 1.134-17.124 9.158-27.544 23.711-35.903 5.886-3.38 11.593-3.922 18.146-4.703"/><path fill="#302d2d" d="M502.179 431.981c17.354.344 19.088 34.629 2.072 39.13-17.271-1.113-18.9-32.438-2.072-39.13"/><path fill="#f1c37d" d="M517.334 486.409c3.2-.193 15.961 1.04 16.471 4.754l-.822 1.078c-4.21.441-13.758.769-16.516-2.781-.268-1.789-.266-1.132.867-3.051"/><path fill="#f1c37d" d="M457.07 488.453c3.766-.066 11.89-.393 14.155 3.218-.748 1.897-.175 1.045-2.132 2.372-3.472.067-12.149.954-13.96-1.968.053-1.598.915-2.331 1.937-3.622"/><path fill="#f1c37d" d="M525.555 475.861c4.183.689 10.336 1.067 12.904 4.326.248 1.868.098 1.38-.968 3.418-3.582-.06-10.692-1.209-12.6-4.603-.195-2.066-.303-1.039.664-3.141"/><path fill="#f1c37d" d="M451.371 477.076c3.734-.249 12.173-.593 15.148 1.678.616 1.707.466 1.09-.203 3.192-3.624.062-11.957.598-14.678-1.333-.849-1.869-.613-1.205-.267-3.537"/><path fill="#ede3ce" d="M322.865 411.97c4.45-2.69 18.695-4.966 23.136-2.454 2.125-.112 4.014-.458 5.905.364.214.583.387.893.457 1.493l.421-1.43c3.846-1.37 19.093 2.252 22.627 4.296 33.203 19.196 17.414 69.451-17.073 76.23-6.659 1.309-18.136 2.742-24.391.002-1.528.318-4.32-.896-5.779-1.602-8.27-6.174-12.392-7.744-18.194-17.448-6.783-11.344-9.745-46.241 3.951-53.63q.552-.73 1.149-1.423c2.325-2.663 4.321-4.098 7.791-4.398"/><path fill="#f1c37d" d="M322.865 411.97c4.45-2.69 18.695-4.966 23.136-2.454 2.125-.112 4.014-.458 5.905.364.214.583.387.893.457 1.493-5.312 19.077-3.915 34.931-4.472 54.344-.032 1.123-8.645 6.483-10.246 7.889 2.94-.775 7.748-2.853 9.371.568-.578 4.346-9.875 12.311-13.069 16.297-1.528.318-4.32-.896-5.779-1.602-8.27-6.174-12.392-7.744-18.194-17.448-6.783-11.344-9.745-46.241 3.951-53.63q.552-.73 1.149-1.423c2.325-2.663 4.321-4.098 7.791-4.398"/><path fill="#302d2d" d="M322.865 411.97c4.45-2.69 18.695-4.966 23.136-2.454 2.125-.112 4.014-.458 5.905.364.214.583.387.893.457 1.493-5.312 19.077-3.915 34.931-4.472 54.344-.032 1.123-8.645 6.483-10.246 7.889 2.94-.775 7.748-2.853 9.371.568-.578 4.346-9.875 12.311-13.069 16.297-1.528.318-4.32-.896-5.779-1.602 3.861-4.851 5.315-6.873 10.267-10.593-19.97-.965-1.753-12.348 5.577-16.068-1.469-11.566-.834-34.453 1.03-45.7-12.473 2.728-18.143 2.751-31.117 1.283q.552-.73 1.149-1.423c2.325-2.663 4.321-4.098 7.791-4.398"/><path fill="#f1c37d" d="M322.865 411.97c4.45-2.69 18.695-4.966 23.136-2.454-8.481 1.888-14.494 2.003-23.136 2.454"/><path fill="#302d2d" d="M371.539 431.073c4.713-.327 7.521 1.071 9.816 5.522 2.772 5.379 2.746 13.422.938 19.151-1.651 5.233-3.895 6.852-8.499 9.091-14.535 1.539-15.755-28.502-2.255-33.764"/><path fill="#f1c37d" d="M374.106 471.581c2.535-.123 4.893-.513 6.642 1.588-.305 1.683-.009.865-1.33 2.376-2.053-.255-5.201-.24-6.632-1.337.003-1.8-.215-.895 1.32-2.627"/><path fill="#302d2d" d="M476.674 626.143c.155-1.498.235-2.121.572-3.636 1.488-1.379 1.228-.967 3.53-1.471.391 2.256.667 2.724-.22 4.695-1.476 1.152-2.038 1.138-3.882.412"/><path fill="#f1c37d" d="M584.752 490.98c3.747.32 13.968 1.396 15.314 5.185-.893 1.901-.274 1.059-2.187 2.41-4.243-.549-13.965-.134-15.666-4.264.344-1.691 1.22-2.172 2.539-3.331"/><path fill="#f1c37d" d="M599.286 467.325c2.805-.269 9.958 1.032 10.838 4.347l-.55.93c-1.572.854-1.73.787-3.449 1.07a64 64 0 0 1-1.075-.018c-3.719-.105-9.731-.765-12.412-3.629l.139-1.568c2.507-1.318 3.689-1.159 6.509-1.132"/><path fill="#f1c37d" d="M590.79 480.282c3.766.147 10.024.374 12.661 3.047.529 1.903.494 1.134-.536 3.319-3.84.531-9.061.249-12.043-2.476-.838-2.036-.594-1.358-.082-3.89"/><path fill="#302d2d" d="M354.475 598.258c6.458 1.103 5.245 5.011 1.283 8.511-2.509-.978-3.546-1.498-3.929-4.184.611-2.137 1.176-2.557 2.646-4.327"/><path fill="#302d2d" d="M379.67 621.991c1.454 1.556 1.817 2.494 1.527 4.577-.934 1.756-1.103 1.675-2.809 2.618-1.661-1.686-2.269-2.393-2.087-4.834.951-1.598 1.632-1.664 3.369-2.361"/><path fill="#302d2d" d="M379.379 567.92c2.201 1.217 2.933 1.445 3.248 4.04-.507 1.822-1.178 2.121-2.651 3.32-1.516-1.132-1.687-1.101-2.568-2.828-.093-1.944.854-2.874 1.971-4.532"/><path fill="#302d2d" d="M390.157 597.148a2.501 2.501 0 1 1 1.095 4.881 2.501 2.501 0 0 1-1.095-4.881"/><path fill="#302d2d" d="M424.834 575.345a2.207 2.207 0 0 1 2.649 2.872 2.207 2.207 0 0 1-4.238-.301 2.206 2.206 0 0 1 1.589-2.571"/><path fill="#336a8d" d="M708.321 621.801c13.653 15.213 14.321 37.827 22.79 55.647 2.919 6.144 6.003 10.518 9.996 15.889-7.292-3.411-9.668-7.52-16.166-11.458-.538-.325-1.139.244-1.686.569-.215.525-.737 1.828-.496 2.364 8.269 18.357 24.565 33.641 39.472 46.682 5.11 4.47 11.268 6.151 15.639 9.631l.042.845c-2.961 1.645-12.697-.452-16.143-1.195-1.477.981-2.558 1.942-3.912 3.09 9.872 10.656 16.793 13.242 28.934 19.24 8.416 4.158 23.871 25.542 27.205 33.985-2.524-2.309-6.345-7.641-9.752-7.424-2.057 2.553-.218 5.88 1.266 8.433 6.313 10.863 1.588 22.723.228 34.404-7.8 9.034-10.425 10.249-19.111 17.457-6.681 6.957-7.959 5.613-14.799 10.793-11.946 9.049-24.151 17.678-36.859 25.65-7.698 4.829-17.202 9.471-25.293 14.312-5.913 2.43-11.242 5.43-17.199 7.868-14.626 5.987-29.136 12.631-43.867 18.332-7.876 3.047-17.615 4.267-25.763 6.575-14.581 4.058-28.708 7.806-43.837 9.231-2.384.224-6.414.947-8.635.381 3.552-2.44 42.097-13.018 35.09-21.724-1.103-.391-2.419-.754-3.583-.457-19.299 4.917-38.068 10.656-57.81 13.766-20.998 3.307-40.971 2.794-62.111 2.224 3.897-2.089 15.542-7.331 13.565-12.616-.255-.215-1.658-1.444-1.999-1.373-8.199 1.716-16.688 4.862-24.964 6.118-16.773 2.547-33.606 2.917-50.523 2.257 15.859-4.425 16.954-.944 29.722-14.42-1.197-1.793-2.114-2.774-3.559-4.398-10.858 8.344-19.509 7.403-32.856 7.386-8.347-.01-42.414-3.432-47.562-9.016 1.176-2.278 16.675-3.01 18.055-9.306-.363-.735-1.189-2.693-2.087-2.549-15.323 2.466-32.125 4.005-47.402-2.127 4.809-5.112 18.739-13.137 13.7-21.269-2.52-.225-6.551 5.117-9.452 7.228a29.7 29.7 0 0 1-8.388 4.323c-9.556 3.072-21.697 1.026-30.59-3.351 8.395-1.817 11.868-2.904 19.164-7.521 9.617-6.085 15.768-16.4 23.378-23.017a335 335 0 0 1 23.551-18.558c1.901-1.345 9.903-6.333 10.76-7.652l-.121-1.267c-5.055-2.38-13.455-.18-18.964-2.702-2.382-1.09-3.214-2.029-4.115-2.811l-.516-.455c14.459-1.765 27.684-6.685 37.167-18.301.011-1.773.2-.911-.873-2.589-2.38-1.087-17.665 2.029-21.352 2.661 11.063-4.965 19.341-7.701 28.819-16.07 14.471-12.779 16.89-21.968 18.07-40.433 2.801 4.726 6.469 12.808 5.162 18.372-.849 3.612-2.222 4.66-1.773 8.697 4.303 6.516 11.745-6.239 13.56-9.45 2.276-4.028 3.764-8.646 5.289-13.014 12.072 11.235-.531 24.453 4.308 28.518 6.075.496 13.871-14.078 16.066-18.956 5.341 13.605 4.85 32.41 1.468 46.405-.577 2.388-1.859 6.374-.754 8.402 7.408 4.784 35.298-25.475 40.346-31.812-.91 4.97-4.953 15.236-4.58 18.882 1.195 1.338.451.929 2.395 1.092 12.167-5.475 19.357-14.228 27.584-24.125-.1 3.945-2.984 13.556-.75 15.986 4.65 1.099 13.259-7.199 16.927-10.072 14.769-11.564 24.948-22.842 30.815-40.938 1.427 4.882 2.786 10.729 3.976 15.677 2.347-.737 4.623-1.586 6.948-2.484 14.734-5.694 31.784-9.784 41.548-23.273 1.985-2.742 4.057-5.294 6.132-7.898-.347 4.625-3.5 13.172 1.342 15.259 12.843-.557 31.646-31.462 36.37-43.131 2.752 6.858 3.2 16.815 4.739 19.922.357.012.907.062 1.209-.116 16.784-9.862 24.456-33.525 24.988-52.027.136-4.752-2.748-23.266-2.26-24.349l.907-.13c4.081 3.074 2.18 17.634 8.556 18.004 10.251-4.921 7.483-27.718 5.214-36.723"/><path fill="#302d2d" d="M752.767 869.129c11.022-8.986 23.748-19.394 28.549-33.205.972-2.798 1.736-5.621 4.312-6.822l1.208.512c3.59 4.865.328 15.108-.138 19.597l-.071.749c-6.681 6.957-7.959 5.613-14.799 10.793-11.946 9.049-24.151 17.678-36.859 25.65-7.698 4.829-17.202 9.471-25.293 14.312-4.779-.445-9.589-2.887-3.938-6.906 8.593-6.112 14.452-14.098 20.593-22.474 1.784-2.435 1.792-6.075 3.974-7.377 5.077 1.238 2.412 12.775 2.066 17.074 8.859-6.438 15.798-14.44 20.557-24.328 1.718-3.568 3.776-12.102 7.891-12.785l.508.439c1.708 6.458-5.373 18.787-8.56 24.771"/><path fill="#302d2d" d="M655.518 800.146c6.551 2.35.261 10.712-2.141 14.284-9.04 13.445-19.397 17.4-34.385 20.102-1.473-1.045-2.416-1.466-3.08-3.126.965-2.816 8.585-2.705 12.733-4.131 8.568-2.836 17.039-9.36 21.808-17.028 1.981-3.186 2.591-6.871 5.065-10.101"/><path fill="#302d2d" d="M682.551 806.734c2.051.475 1.251-.031 2.587 1.39.455 1.754.298 3.182-.209 4.949-3.341 11.656-7.587 20.333-18.028 26.847-1.6-.598-1.503-.523-2.49-1.917.099-2.916 5.32-6.429 7.971-9.107 6.574-6.642 5.434-14.695 10.169-22.162"/><path fill="#302d2d" d="m701.481 801.187 1.515.599c4.428 6.047-4.966 22.457-10.247 27.055-1.414-.648-1.69-.641-2.714-1.83-.374-4.436 3.837-4.721 5.072-7.204 2.804-5.64 3.76-12.483 6.374-18.62"/><path fill="#ede3ce" d="m400.841 295.331.649-.38c8.053-4.792 13.54-10.793 22.404-15.349 11.185-5.748 33.088-13.588 45.5-16.215 27.594-5.84 65.208-6.429 92.736.39 20.128 4.985 38.041 12.731 54.688 25.22-10.787-1.517-20.415-.539-30.843 2.667-3.984 1.224-7.663 1.585-9.33 5.819.176 1.621-.168.968 1.049 2.031 3.715.883 8.306-2.831 12.989-3.71 9.099-1.708 14.295-2.07 23.328-1.76-16.623 12.062-21.699 34.348-11.623 53.364.662 1.249 1.948 1.88 3.307 2.037 1.333-1.073 1.574-2.572 2.138-4.264l.381-.046c5.385 21.583 12.045 46.801 32.561 58.841 16.571 9.724 10.488-4.512 9.454-13.024 3.528 4.117 6.207 6.127 10.48 9.438-9.813 8.091-20.304 21.086-24.414 33.221-12.871-3.623-26.355-6.186-38.841-10.053-2.223-.493-8-3.375-10.702-4.323-36.608-12.842-79.115-20.404-117.744-14.337-15.526 2.439-28.19 14.32-33.537 29.131-9.18-4.87-19.094-8.607-29.136-3.007-7.999-19.978-18.863-25.606-39.466-30.833-3.986-1.011-8.016-1.082-11.968-2.03l-.566-.141c9.362.046 19.386-.957 28.666-1.218 7.044-.198 23.486.388 23.086-9.899-.214-5.488-9.108-19.81-14.643-21.446-3.381.573-3.354 2.449-2.972 5.383-1.919-.874-3.938-4.185-5.504-5.159-5.25-3.265-14.203-4.013-20.087-4.301 4.25-8.183 9.393-15.927 14.359-23.61 3.39-5.244 5.684-8.66 10.878-12.192 2.25-1.53 6.209-4.105 5.474-7.037-2.676-2.198-5.971-.747-7.749-2.796 1.692-4.058 21.029-14.553 24.829-18.015l-.28-1.537c-2.435-2.736-6.182-1.388-9.551-.86"/><path fill="#302d2d" d="M518.188 363.152c1.648.175 2.103.777 2.988 1.702.086 2.461-1.191 2.423-.402 4.557 2.393.726 10.461-2.552 14.761-.663 8.489 3.729 2.575 4.931.542 7.771 1.739 1.156 13.153 1.733 16.088 4.535 2.02 1.93 4.849 3.547 5.368 6.743-1.643 3.367-.812-.42-2.641 1.879 3.351 2.358 15.064 10.244 11.986 15.087-4.779 1.979-20.819-2.177-26.855-3.123-9.625-1.668-20.124-2.54-29.892-3.386-10.885-.943-16.325 1.156-26.464-4.153-1.003-1.599-1.907-3.298-2.821-4.954.191-3.948.931-6.884 2.995-10.233 2.1-3.407 5.546-11.677 10.281-10.472 1.377 1.862.942 1.952 1.205 4.684 8.361-5.739 12.587-8.493 22.861-9.974"/><path fill="#f1c37d" d="m513.793 369.036.658.212c-1.328 2.765-2.685 4.985-1.136 7.871 4.095 1.165 14.578-5.858 20.206-4.545-.475 2.286-5.174 3.449-5.86 7.268 2.553 2.638 12.545 1.706 16.641 2.932 2.596.777 3.938 1.334 6.421 2.396-2.342.509-5.031.614-6.007 2.993 2.348 4.091 15.508 8.413 16.206 12.035-2.044.651-8.057-.674-10.467-1.078-15.119-2.895-32.032-3.985-47.433-5.256-7.757-.64-9.679-.121-17.002-3.45l-.728-5.802c1.762-2.803 4.141-6.891 6.273-9.23l.358.23c.097 1.864-.07 3.224.984 4.706.759.191 1.448.419 2.159-.159 6.794-5.522 10.39-8.266 18.727-11.123"/><path fill="#302d2d" d="M449.063 324.591c2.252-.104 1.941-.433 3.602.502.173 2.18-.796 3.012-2.253 4.732l-.393.459c-5.167 9.199-3.121 18.501-5.341 22.164-4.287 3.257-8.618-1.995-12.817 1.218-2.148 4.804 4.009 13.07.37 17.381-4.733-2.97-6.936-19.153-1.002-22.223 3.416-1.768 6.477-.056 9.685 1.177.571-6.656 1.831-21.58 8.149-25.41"/><path fill="#423a38" d="M449.063 324.591c2.252-.104 1.941-.433 3.602.502.173 2.18-.796 3.012-2.253 4.732l-.393.459c-1.58-3.381.259-3.338-.956-5.693"/><path fill="#302d2d" d="M500.911 288.145c4.96-.742 11.361 3.672 12.455 8.357l-.477.668c-3.465-.116-6.921-3.692-9.624-5.971-5.902 3.598-7.339 5.038-10.501 11.282-1.252 2.87-2.727 11.175-5.313 11.988-3.751-2.376-.079-10.034 1.318-13.498 2.187-5.423 6.546-10.739 12.142-12.826"/><path fill="#302d2d" d="M475.847 301.874c1.285.797 1.313.715 2.181 1.918-.677 1.903-6.085 7.047-7.9 10.288-3.376 6.025-3.195 12.329-5.145 17.338-2.681-1.048-3.136-2.521-2.823-5.448 1.065-9.982 6.252-17.644 13.687-24.096"/><path fill="#336a8d" d="M699.839 360.559c9.695-.516 18.454-.478 28.128-1.806 1.628 6.59 3.083 12.343 4.242 19.074.811 4.707 1.522 12.978 2.799 17.204 3.41 3.324 7.109.289 12.634 1.89 6.634 1.922 12.531 4.343 18.905 6.864 22.607 19.398 31.896 36.403 34.705 66.609 3.516 37.824-12.529 68.286-45.197 87.743-3.446 2.052-7.475 2.297-11.019 4.993-3.367-.304-9.288.91-13.127 1.318-11.779 1.251-21.317-2.895-32.243-6.914 5.55-4.94 9.665-9.036 7.101-17.21-1.931-6.156-6.313-9.68-11.728-12.689-12.417 1.208-8.552 2.988-17.192 11.955-2.153-2.017-4.037-3.749-5.562-6.326-12.218-20.645-19.221-45.456-13.602-69.239 4.977-21.061 14.175-42.723 32.053-55.733 5.623-4.092 10.776-6.378 16.578-9.939-.895-5.132-1.603-11.844-2.725-16.747-1.641-7.173-3.292-13.786-4.75-21.047"/><path fill="#302d2d" d="M735.781 414.198c12.511-.161 18.382 2.217 28.557 9.684 36.824 27.021 31.047 95.887-8.644 117.466-5.407 2.94-11.982 3.306-18.074 3.842-8.174 1.26-20.165-3.484-26.612-8.602a67.4 67.4 0 0 1-25.135-45.029c-.826-7.282-1.377-14.757-.111-22.017 4.592-26.337 21.297-52.235 50.019-55.344"/><path fill="#336a8d" d="M734.598 420.671c8.767-.419 21.619 5.059 28.167 10.929 25.784 23.11 24.819 68.779 2.105 93.599-5.865 6.409-14.906 12.971-23.987 13.408-26.879 3.697-45.763-26.415-47.854-49.614-1.475-16.365 2.164-36.646 13.121-49.497 8.545-10.023 15.101-17.038 28.448-18.825"/><path fill="#f1c37d" d="M677.722 574.571c1.219-.998 3.281-3.06 4.554-3.215 2.562 1.598 3.464 2.406 6.427 2.806 8.089 1.094 15.329 2.215 23.54 1.858 2.671 9.422 5.708 15.365 9.436 24.206 2.252 5.339 4.063 13.495 5.331 19.287-3.293-3.812-5.781-7.129-8.217-11.558-1.409-2.561-3.328-6.38-6.565-6.35-1.878 2.337-.265 6.006.739 8.527 2.021 5.077 3.702 10.164 5.384 15.362-3.167-4.291-11.831-18.092-14.871-20.679-1.941.298-1.094-.077-2.621 1.193-.721 5.338 3.062 15.172 3.308 20.781.249 5.689-.804 12.116-1.149 18.025-1.843-4.28-9.454-20.179-15.502-17.552-1.074 1.579-1.509 2.396-1.033 4.386 1.557 6.518 1.386 13.727 1.988 20.303 2.21 24.106-2.759 34.28-14.809 54.121-1.965-9.395-3.792-18.766-5.593-28.182-.365-1.912-1.699-4.751-4.015-4.217-2.593 2.519-.703 12.756-3.34 18.767-6.069 13.837-16.72 30.399-28.263 39.912.135-5.075 1.436-18.642-5.355-19.101-2.004 1.144-8.657 15.793-12.85 19.351-8.522 7.231-16.905 10.868-27.543 14.246-3.272 1.039-7.234 1.682-10.21 2.821-.558-4.132-4.537-20.298-8.672-21.467l-1.176.429c-1.871 4.43-2.282 9.954-4.06 14.114-6.92 16.195-19.883 32-35.559 40.171.668-4.048 2.483-19.942.853-22.895l-.678-.349c-2.469 1.2-6.089 8.953-8.208 12.126-5.752 8.616-11.625 13.25-19.804 19.439 1.439-5.612 4.007-17.667 1.224-23.046-1.54-1.021-.689-.781-2.688-.536-1.112 1.939-4.95 8.803-6.146 10.291-7.606 9.457-18.919 18.861-28.471 26.406 5.334-25.443 3.243-59.314-20.127-75.792-3.57-2.516-9.015-4.556-13.136-6.242-2.949-3.593-12.755-14.906-9.979-19.406 8.283-4.975 26.997 4.425 33.658 10.226 3.126 2.723 5.639 6.76 9.109 9.525 5.475.57 7-15.606 15.954-20.134 5.436.991-.801 22.82 6.498 22.979 4.543-2.366 6.941-12.003 12.753-16.708 5.167-4.184 10.919-10.214 18.288-10.153l.682.663c-1.212 3.73-4.524 14.697.018 17.324 3.395-.453 17.47-19.006 26.253-21.666 1.087-.329 1.232-.273 2.152.267.393.613 1.614 2.446 1.128 3.233-2.07 3.35-8.137 14.848-3.883 17.845 1.347-.002 1.646.253 2.769-.701 8.295-7.047 17.702-17.51 27.911-21.449 1.214 2.474 2.039 5.266 3.951 7.028 8.85 3.178 30.067-21.171 28.934-31.133-.139-1.223-.349-8.571-.308-8.677 7.136-4.239 16.469 10.817 18.766 15.895.423.934 1.79 1.108 2.711 1.101 8.127-5.65 10.591-20.549 8.347-29.493-.62-2.472-.929-5.297.641-7.349l1.196-.12c5.962 2.177 12.402 12.108 15.525 17.214 14.755-8.033 15.187-35.304 15.042-50.088-.034-3.493-4.215-7.003-.939-10.231 4.228-.446 8.454 7.696 13.899 8.664 7.285-2.915-1.33-27.39-3.199-32.403"/><path fill="#f1c37d" d="M411.536 238.981c21.273 6.773 26.64 10.787 44.33 23.894-17.697 6.101-37.109 8.749-51.379 22.592-4.182 4.057-10.563 5.797-11.951 12.253.573 2.264.608 1.732 2.474 3.674-4.589 3.611-17.17 11.314-19.095 15.408.151 4.129 4.503 3.959 7.855 4.464-9.842 11.618-32.7 38.178-32.55 53.842-2.707 2.014-5.314 3.683-4.888 7.306.177.237 2.019 2.693 1.875 2.898-3.125 4.432-5.28 6.701-6.4 12.174-2.814.304-17.16 2.192-18.771 1.753-1.611-.764-6.597-1.171-8.599-1.326-13.668-1.057-22.754-3.157-33.169-12.401 4.82-2.237 11.874-4.706 16.048-7.616 4.941-3.446 18.655-12.58 19.944-18.491-1.287-3.93-6.65-2.032-9.914-1.462 14.908-14.712 20.893-30.196 33.452-46.314 4.92-6.314 11.505-11.216 16.003-17.269.421-.567.003-.928-.398-1.686-3.188-1.285-6.251.719-9.625 2.154 3.837-5.896 17.703-17.809 24.131-21.886 4.544-2.881 18.298-5.128 20.293-7.831-.752-4.667-16.061-6.351-20.981-10.263l.377-.845c5.126-3.155 25.257-4.631 31.905-4.68 3.523-.026 11.925 1.676 13.938-1.138.312-3.343-2.778-6.407-4.905-9.204"/><path fill="#ede3ce" d="M351.569 333.541c2.452.079 3.358.463 5.112 2.313.352 1.579.432.83-.291 2.315-2.078 1.638-4.549 1.146-5.858 1.789-6.137 3.016-10.64 9.326-13.573 14.916-1.02 1.036-.565.732-1.995 1.166-1.63-.666-.993-.135-1.918-1.712-.253-5.088 3.859-11.056 7.246-14.686 3.413-3.66 6.701-4.773 11.277-6.101"/><path fill="#ede3ce" d="M346.77 350.258c1.71.659 2.382 1.092 3.092 2.778l-.041 1.634c-2.406 2.71-8.179 15.127-10.095 17.023-9.728-4.24 1.72-18.341 7.044-21.435"/><path fill="#336a8d" d="M812.804 825.212c.804-9.983 2.341-13.229.672-23.177 2.538 3.763 7.896 11.043 8.728 15.101-4.075 2.334-5.371 5.455-9.4 8.076"/><path fill="#336a8d" d="M533.33 225.72c16.274-.658 31.724-.886 47.786 2.83 12.852 2.973 24.106 5.822 36.354 10.9 37.531 15.561 67.122 41.825 90.702 74.474 7.67 10.685 13.354 25.548 18.413 37.589-10.66.028-19.147.743-29.793 1.602-8.088-15.702-9.54-25.773-21.426-41.372-18.973-23.401-38.942-39.711-66.408-51.923-33.889-15.069-64.145-19.988-100.921-13.912-8.431 1.393-16.562 2.614-24.859 5.07-7.421 2.197-12.941 6.436-19.777 9.027l-.639.238c-3.146-2.287-4.731-3.972-7.487-6.763 24.355-14.562 49.42-25.714 78.055-27.76"/><path fill="#f1c37d" d="M626.74 295.655c4.919 4.26 18.498 19.481 22.255 20.112 2.26-.934 4.816-3.454 6.977-5.122 4.324 4.056 7.906 10.097 10.95 15.147 11.241 18.646 19.952 38.079 24.791 59.358-12.238 3.952-15.994 4.961-27.047 12.038-6.854-3.534-8.715-4.945-13.585-10.911-1.236-1.849-1.349-2.621-3.611-2.773l-.855.984c-.943 4.34 1.471 13.731 2.135 18.888-3.973-2.483-12.493-8.364-15.652-11.678-12.267-12.872-17.027-31.437-20.635-48.348-.399-1.868-.905-4.298-1.16-6.153-.274-1.996.819-2.229.151-4.71-1.458-1.641-.604-1.145-2.516-1.758-3.072 1.649-3.124 5.18-4.853 8.712l-.502-.194c-2.941-10.196-.81-22.845 4.374-32.019 3.974-7.032 13.359-7.208 18.783-11.573"/><path fill="#336a8d" d="M540.088 619.101c4.957-.337 7.433-.189 12.178 1.537a28.47 28.47 0 0 1 16.089 15.028c7.576 16.612-2.081 33.366-17.687 40.584-14.61 3.611-27.299-9.306-30.42-22.879a32.4 32.4 0 0 1 4.542-24.773c4.03-6.218 8.415-8.008 15.298-9.497"/><path fill="#336a8d" d="M689.527 534.406c8.142.325 8.938 5.777 11.492 12.454-29.94 24.849-60.933 50.35-94.157 70.66-10.481 6.407-19.461 11.081-29.02 18.996l-1.369 1.09-.588-.302-.164-.68-.233-.895c-.965-3.808-4.878-8.852-7.279-12.198 12.031-4.517 17.082-7.261 27.805-14.277 4.572-2.672 9.595-4.875 14.026-7.768 11.517-7.522 22.416-16.084 33.591-24.106 16.712-11.997 34.465-25.689 45.896-42.974"/><path fill="#ede3ce" d="M264.044 575.853c8.167 12.844 18.692 24.889 33.295 30.29.759 9.258 2.778 22.265.635 30.911-2.714 10.955-5.744 13.446-14.651 18.95l-1.599-5.123c-.797-2.356-1.056-4.678-3.53-5.539-2.066 2.213-1.721 8.251-2.118 11.985-5.139-11.328-13.196-35.329-11.423-47.616q.272-1.801.425-3.617c.171-2.228-.057-2.666-1.338-4.101l-1.2-.045c-2.241 1.169-3.539 3.077-5.202 5.045.344-8.012 3.247-24.14 6.706-31.14"/><path fill="#f1c37d" d="M368.931 366.52c9.44-.314 19.1 13.336 23.77 11.324.716-1.204.869-1.647 1.92-2.579 18.795 22.353-14.043 15.721-25.103 17.825-8.167 1.322-14.269.991-22.932 2.77 1.121-1.994 4.468-7.941 5.885-9.375 2.16-2.186 7.786-4.732 9.643-7.73-.759-1.129-2.676-1.111-4.578-1.625l-.207-.631c4.121-5.528 10.888-1.266 14.677-3.989.648-2.606-1.43-4.201-3.075-5.99"/><path fill="#f1c37d" d="M734.16 358.601c4.833 1.389 11.123 4.317 14.767 7.811-.827.748-1.449 1.246-2.316 1.946l-.314 1.206c2.268 2.974 7.767 7.836 10.347 10.394 6.15 6.096 9.53 10.095 13.719 17.329l.601 1.232-.444.354c-7.929-1.517-21.404-4.979-29.244-7.389-1.193-4.183-1.8-10.259-2.759-14.668-1.336-6.14-2.837-12.123-4.357-18.215"/><path fill="#336a8d" d="M602.147 430.589c9.291 3.132 22.14 6.515 31.799 8.176l-1.853 7.355c-7.315-.274-25.657-1.745-32.276-2.818q1.065-6.375 2.33-12.713"/><path fill="#ede3ce" d="M304.303 544.554c.756-.071 3.515-.362 4.081-.162 6.969 2.459 6.212 8.762.572 11.819-9.023 1.03-10.412-5.954-4.653-11.657"/><path fill="#ede3ce" d="M323.233 545.549c6.821 1.923 5.957 9.649-.259 12.038l-.211-.074c-7.59-2.583-7.345-9.716.47-11.964"/><path fill="#ede3ce" d="M259.759 567.295c1.15 1.066 2.815 3.556 2.818 5.138-.868 1.171-.727.798-2.674 1.114l-2.262.606-.72-.448c-.092-1.852 1.833-4.635 2.838-6.41"/></svg>