<svg xmlns="http://www.w3.org/2000/svg" xmlns:xlink="http://www.w3.org/1999/xlink" width="2000" zoomAndPan="magnify" viewBox="0 0 1500 1499.999933" height="2000" preserveAspectRatio="xMidYMid meet" version="1.0"><defs><clipPath id="23251ac2a4"><path d="M 85.675781 56.3125 L 1442.273438 56.3125 L 1442.273438 1412.90625 L 85.675781 1412.90625 Z M 85.675781 56.3125 " clip-rule="nonzero"/></clipPath><clipPath id="f2d94fce0f"><path d="M 763.976562 56.3125 C 389.363281 56.3125 85.675781 359.996094 85.675781 734.609375 C 85.675781 1109.222656 389.363281 1412.90625 763.976562 1412.90625 C 1138.589844 1412.90625 1442.273438 1109.222656 1442.273438 734.609375 C 1442.273438 359.996094 1138.589844 56.3125 763.976562 56.3125 Z M 763.976562 56.3125 " clip-rule="nonzero"/></clipPath><clipPath id="431c27eb55"><path d="M 0.675781 0.3125 L 1357.273438 0.3125 L 1357.273438 1356.90625 L 0.675781 1356.90625 Z M 0.675781 0.3125 " clip-rule="nonzero"/></clipPath><clipPath id="ba736e1b80"><path d="M 678.976562 0.3125 C 304.363281 0.3125 0.675781 303.996094 0.675781 678.609375 C 0.675781 1053.222656 304.363281 1356.90625 678.976562 1356.90625 C 1053.589844 1356.90625 1357.273438 1053.222656 1357.273438 678.609375 C 1357.273438 303.996094 1053.589844 0.3125 678.976562 0.3125 Z M 678.976562 0.3125 " clip-rule="nonzero"/></clipPath><clipPath id="25f4cacc33"><rect x="0" width="1358" y="0" height="1357"/></clipPath><clipPath id="1b5b33823e"><path d="M 57.726562 66.03125 L 1435.382812 66.03125 L 1435.382812 1443.683594 L 57.726562 1443.683594 Z M 57.726562 66.03125 " clip-rule="nonzero"/></clipPath><clipPath id="41f2950cf4"><path d="M 746.554688 66.03125 C 366.125 66.03125 57.726562 374.429688 57.726562 754.859375 C 57.726562 1135.285156 366.125 1443.683594 746.554688 1443.683594 C 1126.984375 1443.683594 1435.382812 1135.285156 1435.382812 754.859375 C 1435.382812 374.429688 1126.984375 66.03125 746.554688 66.03125 Z M 746.554688 66.03125 " clip-rule="nonzero"/></clipPath></defs><rect x="-150" width="1800" fill="#ffffff" y="-149.999993" height="1799.99992" fill-opacity="1"/><rect x="-150" width="1800" fill="#ffffff" y="-149.999993" height="1799.99992" fill-opacity="1"/><g clip-path="url(#23251ac2a4)"><g clip-path="url(#f2d94fce0f)"><g transform="matrix(1, 0, 0, 1, 85, 56)"><g clip-path="url(#25f4cacc33)"><g clip-path="url(#431c27eb55)"><g clip-path="url(#ba736e1b80)"><path fill="#fcbc5a" d="M 0.675781 0.3125 L 1357.273438 0.3125 L 1357.273438 1356.90625 L 0.675781 1356.90625 Z M 0.675781 0.3125 " fill-opacity="1" fill-rule="nonzero"/></g></g></g></g></g></g><g clip-path="url(#1b5b33823e)"><g clip-path="url(#41f2950cf4)"><path stroke-linecap="butt" transform="matrix(0.75, 0, 0, 0.75, 57.726276, 66.029374)" fill="none" stroke-linejoin="miter" d="M 918.437962 0.00250092 C 411.198335 0.00250092 0.000382563 411.200453 0.000382563 918.44008 C 0.000382563 1425.674499 411.198335 1836.872451 918.437962 1836.872451 C 1425.677589 1836.872451 1836.875541 1425.674499 1836.875541 918.44008 C 1836.875541 411.200453 1425.677589 0.00250092 918.437962 0.00250092 Z M 918.437962 0.00250092 " stroke="#363737" stroke-width="38" stroke-opacity="1" stroke-miterlimit="4"/></g></g></svg>