<?xml version="1.0" encoding="UTF-8"?>
<svg xmlns="http://www.w3.org/2000/svg" width="82" height="31" viewBox="0 0 82 31" fill="none">
  <g clip-path="url(#clip0_95_1366)">
    <path d="M63.0002 29.6125C66.4204 29.7607 69.9024 29.8994 73.206 29.0019C76.5096 28.1024 79.6623 25.9821 80.9356 22.7959C82.3349 19.2972 81.0048 14.9078 77.8975 12.782C74.7922 10.6562 70.2293 11.0153 67.4915 13.5989C66.7898 8.10842 62.8028 3.17195 57.5925 1.34431C52.3823 -0.483322 46.1956 0.877945 42.2326 4.72892C40.834 6.08639 39.4348 7.84689 37.4892 7.8589C35.8652 7.86897 34.5494 6.63107 33.271 5.62808C29.8961 2.9762 25.3671 1.5325 21.2288 2.65246C17.0905 3.77242 13.699 7.87093 14.1654 12.1445C9.31913 8.85906 1.56534 12.1514 0.547151 17.9266C-1.7107 30.7358 16.2408 27.5997 23.1782 27.8984C36.4529 28.4697 49.7276 29.0411 63.0002 29.6125Z" fill="#FFFAF4"></path>
  </g>
  <defs>
    <clipPath id="clip0_95_1366">
      <rect width="81.133" height="29.4524" fill="white" transform="translate(0 1.535) rotate(-1.08408)"></rect>
    </clipPath>
  </defs>
</svg>
