<?xml version="1.0" encoding="UTF-8"?>
<svg xmlns="http://www.w3.org/2000/svg" width="150" height="63" viewBox="0 0 150 63" fill="none">
  <g clip-path="url(#clip0_95_1364)">
    <path d="M116.048 54.9814C122.208 54.9543 128.479 54.9049 134.34 53.0083C140.201 51.1079 145.686 47.0264 147.701 41.1899C149.916 34.7812 147.149 27.0054 141.381 23.451C135.617 19.8963 127.446 20.9334 122.747 25.8122C121.015 16.0033 113.425 7.47228 103.902 4.63419C94.3804 1.7961 83.3768 4.77373 76.5839 12.0358C74.1864 14.5957 71.8224 17.8802 68.3264 18.0688C65.4081 18.2262 62.9368 16.114 60.5529 14.4208C54.2591 9.94373 45.9945 7.73728 38.6521 10.1054C31.3097 12.4736 25.5653 20.1315 26.7701 27.773C17.7773 22.2834 4.12263 28.8665 2.78795 39.3347C-0.171474 62.5524 31.8266 55.3753 44.3221 55.3169C68.2319 55.205 92.1417 55.0931 116.048 54.9814Z" fill="#FFFAF4"></path>
  </g>
  <defs>
    <clipPath id="clip0_95_1364">
      <rect width="146" height="53" fill="white" transform="translate(0.397949 9.91821) rotate(-3.81686)"></rect>
    </clipPath>
  </defs>
</svg>
