<?xml version="1.0" encoding="UTF-8"?>
<svg xmlns="http://www.w3.org/2000/svg" width="287" height="702" viewBox="0 0 287 702" fill="none">
  <g clip-path="url(#clip0_107_71)">
    <path d="M-46.4229 548.058C-64.8721 568.481 -89.5152 584.546 -116.874 587.538C-144.237 590.532 -174.053 578.324 -187.137 554.132C-196.057 537.644 -196.358 516.79 -187.919 500.041C-175.535 475.464 -146.491 460.56 -139.847 433.857C-136.266 419.47 -140.489 403.387 -150.674 392.617C-160.859 381.846 -176.689 376.728 -191.264 379.495C-198.838 380.933 -205.967 384.321 -213.589 385.46C-238.07 389.128 -259.536 369.44 -274.446 349.701C-286.624 333.577 -297.635 315.366 -298.864 295.194C-300.091 275.027 -288.595 252.87 -268.973 247.999C-256.82 244.984 -244.138 248.841 -232.217 252.669C-222.352 255.832 -212.486 259 -202.626 262.166C-199.901 263.041 -197.038 263.924 -194.228 263.382C-187.956 262.178 -185.159 254.853 -184.113 248.556C-176.673 203.828 -200.487 155.841 -183.485 113.795C-181.091 107.877 -177.732 102.05 -172.392 98.5474C-165.674 94.1386 -157.011 94.1461 -149.046 95.1828C-97.3502 101.911 -54.3941 150.172 -53.7267 202.273C-53.5731 214.185 -54.3625 228.404 -44.696 235.37C-37.6655 240.432 -27.5322 239.034 -20.2605 234.322C-12.9887 229.61 -7.93755 222.23 -3.14124 215.016C8.73326 197.143 20.5062 178.789 36.7389 164.747C52.9716 150.705 74.7053 141.354 95.8351 145.096C117.569 148.94 134.819 165.703 147.151 183.991C161.056 204.615 170.652 230.863 162.167 254.26C155.887 271.576 140.677 284.285 124.297 292.731C107.916 301.177 89.9959 306.14 72.992 313.246C69.3772 314.759 65.5935 316.543 63.5291 319.871C61.4429 323.229 61.5492 327.472 61.9925 331.401C64.7663 356.01 78.6165 379.158 99.0012 393.236C111.739 402.033 126.552 407.269 140.173 414.63C172.974 432.356 198.551 462.998 210.115 498.43C215.293 514.29 217.625 532.075 210.918 547.361C202.616 566.291 182.1 577.289 161.762 581.073C109.355 590.825 56.7643 561.287 20.0759 522.673C10.3465 512.43 2.47089 480.456 -11.2487 495.216C-25.1067 510.123 -32.2589 532.379 -46.4229 548.058Z" stroke="#00577C" stroke-opacity="0.44" stroke-width="2" stroke-miterlimit="10"></path>
  </g>
  <path d="M-23.9312 552.449C-35.628 506.763 -24.9201 456.184 31.3451 448.435C87.6104 440.686 109.208 441.83 145.775 476.365C182.343 510.901 115.502 549.802 68.6392 570.812C21.776 591.822 -12.2344 598.135 -23.9312 552.449Z" fill="#FFFAF4"></path>
  <path d="M146.888 312.076C160.726 333.425 163.949 361.129 136.512 374.768C109.074 388.407 97.8343 391.536 73.1968 380.166C48.5593 368.796 76.0466 337.41 96.3958 318.607C116.745 299.805 133.05 290.727 146.888 312.076Z" fill="#FFFAF4"></path>
  <path d="M-33.9568 464.525C-28.986 466.041 -25.4641 468.119 -21.7921 471.569C-18.9522 472.987 -13.8602 471.725 -8.59332 472.602C-4.4939 473.284 -1.14069 475.942 3.14568 475.942C6.30975 475.942 10.8859 475.143 13.8507 476.488C20.7034 479.598 29.6591 476.731 36.8421 478.371C44.1699 480.043 52.2779 477.964 59.7118 476.974C64.3947 476.351 68.7129 475.942 73.458 475.942C75.9774 475.942 77.7791 474.791 80.0269 473.755C86.4963 470.774 93.8058 468.682 100.525 466.286C105.476 464.52 110.639 463.307 115.791 462.278C121.335 461.171 126.952 458.825 132.579 458.513C143.438 457.911 153.594 454.527 164.329 454.08C170.384 453.828 182.022 446.552 185.13 441.51C189.083 435.096 196.869 429.866 202.769 425.296C210.077 419.635 230.652 415.068 231.113 403.556C231.235 400.529 234.887 398.043 235.432 394.507C236.394 388.266 236.9 384.123 230.383 384.123C222.549 384.123 214.755 385.373 208.122 381.694C206.136 380.593 202.003 379.959 201.492 378.172C201.092 376.775 195.264 374.243 193.889 373.435C191.328 371.932 189.012 369.074 186.651 367.241C182.89 364.321 177.406 364.344 173.696 361.169C169.448 357.534 163.021 357.535 158.125 359.165C145.726 363.291 133.342 367.472 120.901 371.249C109.496 374.711 97.0275 378.531 87.265 385.763C80.9987 390.405 75.3693 394.19 70.1127 400.094C66.6264 404.01 61.5435 407.657 58.7386 412.057C56.8062 415.089 55.7051 418.497 53.5078 421.531C49.8445 426.589 41.5813 440.963 34.5916 440.963C30.5737 440.963 31.3175 435.697 32.9493 432.947C36.7359 426.568 44.6878 422.396 44.9924 413.879C45.2667 406.211 42.8028 398.92 42.8028 391.168C42.8028 383.491 44.0852 374.891 40.8564 367.727C37.3719 359.996 36.123 350.706 31.8545 343.437C30.3712 340.91 30.0643 337.515 29.4215 334.692C28.5971 331.07 25.9132 328.153 25.4072 324.49C24.1769 315.585 24.7569 308.696 22.0011 299.956C20.3364 294.677 20.1451 288.948 18.7166 283.56C17.7393 279.874 16.9609 278.277 15.9795 282.589C13.2866 294.418 8.95219 306.148 4.97038 317.506C0.679367 329.747 -12.4321 339.301 -14.0675 352.363C-14.8035 358.242 -17.5167 364.896 -20.089 370.399C-22.9445 376.508 -23.0116 382.384 -22.8869 388.981C-22.7611 395.637 -20.7313 402.484 -21.8529 409.203C-22.9199 415.595 -23.9817 421.73 -23.9817 428.454C-23.9817 434.894 -24.4605 440.859 -21.7921 446.854C-18.8747 453.407 -28.2057 434.003 -31.8888 427.846C-35.599 421.644 -38.3163 415.457 -42.1072 409.264C-45.3968 403.89 -51.6258 401.003 -55.4885 396.147C-59.9207 390.575 -64.6083 386.336 -69.9645 381.694C-74.5833 377.692 -80.0034 373.208 -84.0757 368.699C-87.2305 365.205 -90.2942 360.261 -94.5374 357.95C-98.9969 355.522 -102.211 348.932 -105.364 344.773C-107.533 341.911 -109.77 339.997 -112.663 337.728C-115.377 335.599 -136.257 320.388 -137.783 329.53C-138.908 336.266 -135.469 343.498 -131.883 348.902C-127.283 355.834 -122.73 362.716 -118.624 369.549C-114.832 375.859 -109.735 381.106 -106.641 387.828C-105.116 391.142 -102.098 392.661 -101.654 396.208C-101.009 401.355 -98.529 408.532 -95.1456 412.543C-91.5165 416.846 -90.6963 423.734 -86.9344 427.907C-85.1878 429.845 -84.2776 432.628 -83.0417 434.891C-82.2031 436.425 -79.8654 436.726 -78.4799 437.684C-70.2118 443.399 -62.2814 449.627 -53.7854 455.173C-47.2827 459.418 -41.5806 462.199 -33.9568 464.525Z" fill="#007C6D"></path>
  <path d="M-21.7921 481.569C-25.4641 478.119 -28.986 476.041 -33.9569 474.525C-41.5806 472.199 -47.2827 469.418 -53.7854 465.173C-62.2814 459.627 -70.2118 453.399 -78.4799 447.684C-79.8654 446.726 -82.2031 446.425 -83.0417 444.891C-84.2776 442.628 -85.1878 439.845 -86.9344 437.907C-90.6963 433.734 -91.5165 426.846 -95.1456 422.543C-98.529 418.532 -101.009 411.355 -101.654 406.208C-102.098 402.661 -105.116 401.142 -106.641 397.828C-109.735 391.106 -114.832 385.859 -118.624 379.549C-122.73 372.716 -127.283 365.834 -131.883 358.902C-135.469 353.498 -138.908 346.266 -137.783 339.53C-136.257 330.388 -115.377 345.599 -112.663 347.728C-109.77 349.997 -107.533 351.911 -105.364 354.773C-102.211 358.932 -98.9969 365.522 -94.5374 367.95C-90.2942 370.261 -87.2305 375.205 -84.0757 378.699C-80.0034 383.208 -74.5833 387.692 -69.9645 391.694C-64.6083 396.336 -59.9207 400.575 -55.4885 406.147C-51.6258 411.003 -45.3968 413.89 -42.1072 419.264C-38.3163 425.457 -35.599 431.644 -31.8888 437.846C-28.2057 444.003 -18.8747 463.407 -21.7921 456.854C-24.4605 450.859 -23.9817 444.894 -23.9817 438.454C-23.9817 431.73 -22.9199 425.595 -21.8529 419.203C-20.7313 412.484 -22.7611 405.637 -22.8869 398.981C-23.0116 392.384 -22.9445 386.508 -20.089 380.399C-17.5167 374.896 -14.8035 368.242 -14.0675 362.363C-12.4321 349.301 0.679367 339.747 4.97038 327.506C8.95219 316.148 13.2866 304.418 15.9795 292.589C16.9609 288.277 17.7393 289.874 18.7166 293.56C20.1451 298.948 20.3364 304.677 22.001 309.956C24.7569 318.696 24.1769 325.585 25.4072 334.49C25.9132 338.153 28.5971 341.07 29.4215 344.692C30.0643 347.515 30.3712 350.91 31.8545 353.437C36.123 360.706 37.3719 369.996 40.8564 377.727C44.0852 384.891 42.8028 393.491 42.8028 401.168C42.8028 408.92 45.2667 416.211 44.9924 423.879C44.6878 432.396 36.7359 436.568 32.9493 442.947C31.3175 445.697 30.5737 450.963 34.5916 450.963C41.5813 450.963 49.8445 436.589 53.5078 431.531C55.7051 428.497 56.8062 425.089 58.7386 422.057C61.5435 417.657 66.6265 414.01 70.1127 410.094C75.3693 404.19 80.9987 400.405 87.265 395.763C97.0275 388.531 109.496 384.711 120.901 381.249C133.342 377.472 145.726 373.291 158.125 369.165C163.021 367.535 169.448 367.534 173.696 371.169C177.406 374.344 182.89 374.321 186.651 377.241C189.012 379.074 191.328 381.932 193.889 383.435C195.264 384.243 201.092 386.775 201.492 388.172C202.003 389.959 206.136 390.593 208.122 391.694C214.755 395.373 222.549 394.123 230.383 394.123C236.9 394.123 236.394 398.266 235.432 404.507C234.887 408.043 231.235 410.529 231.113 413.556C230.652 425.068 210.077 429.635 202.769 435.296C196.869 439.866 189.083 445.096 185.13 451.51C182.022 456.552 170.384 463.828 164.329 464.08C153.594 464.527 143.438 467.911 132.579 468.513C126.952 468.825 121.335 471.171 115.791 472.278C110.639 473.307 105.476 474.52 100.525 476.286C93.8058 478.682 86.4963 480.774 80.0269 483.755C77.7791 484.791 75.9774 485.942 73.458 485.942C68.7129 485.942 64.3947 486.351 59.7118 486.974C52.2779 487.964 44.1699 490.043 36.8421 488.371C29.6591 486.731 20.7034 489.598 13.8507 486.488C10.8859 485.143 6.30976 485.942 3.14567 485.942C-1.14068 485.942 -4.49389 483.284 -8.59332 482.602C-13.8602 481.725 -17.8574 481.894 -20.6973 480.476" stroke="#363737" stroke-width="3" stroke-linecap="round"></path>
  <g clip-path="url(#clip1_107_71)">
    <path d="M151.802 448.78C152.779 441.778 151.851 432.732 149.238 426.137C148.751 424.903 147.699 423.05 146.831 422.074C145.876 420.99 145.45 419.255 144.035 418.631C142.939 418.142 140.731 418.398 139.555 418.421C136.972 418.464 134.053 418.879 131.937 420.483C128.083 423.409 125.318 427.217 121.957 430.604C120.848 431.728 119.551 432.638 118.382 433.7C116.419 435.478 114.807 437.662 112.598 439.125C109.761 441.009 106.219 441.661 103.896 444.291C101.111 447.443 99.8097 451.671 99.622 455.82C99.3793 461.316 94.827 465.341 94.6767 470.978C94.552 475.655 93.941 480.299 93.7188 484.964C93.4785 489.919 93.11 494.862 92.6113 499.799C84.3455 487.771 75.7366 475.416 63.3911 467.637C58.274 464.41 52.4299 462.02 46.3844 462.065C38.2147 462.117 30.7855 466.491 23.8104 470.735C23.1505 471.133 22.4774 471.55 22.0256 472.176C20.8331 473.826 21.6675 476.185 22.9208 477.785C25.0325 480.482 28.0986 482.22 30.8719 484.233C36.4607 488.301 41.0317 493.698 46.8534 497.428C52.6236 501.122 59.3531 502.999 65.5614 505.893C68.8482 507.421 72.1358 509.283 75.7592 509.426C78.9991 509.557 82.1162 508.284 85.0906 506.995C86.9485 506.186 88.8711 505.256 90.3299 503.818C91.5365 502.62 91.7569 500.228 93.3006 500.191C95.8518 500.123 98.4443 501.978 101.024 501.779C103.074 501.619 104.578 499.907 106.249 498.907C108.465 497.586 110.738 496.312 113.019 495.094C115.755 493.63 118.303 492.595 119.966 489.805C121.876 486.597 126.583 484.085 129.782 482.347C133.257 480.454 136.941 478.781 139.776 475.952C142.674 473.063 144.42 469.245 146.095 465.515C148.53 460.1 150.982 454.627 151.802 448.78Z" fill="#FCBC5A"></path>
    <path d="M79.3049 469.433C79.897 470.092 80.4556 470.788 81.2141 471.237C83.8109 472.768 85.5512 469.613 85.8054 467.463C86.0442 465.425 85.8751 463.181 87.526 461.665C88.4933 460.772 89.8244 460.328 90.7421 459.39C91.9718 458.137 92.2507 456.233 92.1402 454.477C91.8921 450.672 91.3782 446.847 90.9979 443.043C90.4253 437.275 88.5739 433.498 84.804 429.097C82.7731 426.725 80.7421 424.352 78.4793 422.202C77.1169 420.912 75.6587 419.689 74.4946 418.214C73.6747 417.175 73.0044 416.014 72.0512 415.093C70.0559 413.179 66.9814 413.319 66.1061 416.202C65.2706 418.942 65.8024 421.89 65.2143 424.66C63.9814 430.431 61.3022 436.111 62.1011 441.957C63.0141 448.677 68.2456 453.87 71.4202 459.862C72.3353 461.593 73.0144 463.421 74.3323 464.9C75.763 466.503 77.647 467.643 79.1164 469.218C79.1673 469.286 79.2397 469.36 79.3049 469.433Z" fill="#FCBC5A"></path>
  </g>
  <path fill-rule="evenodd" clip-rule="evenodd" d="M38.4764 524.046C37.645 523.423 36.959 522.646 36.4662 521.682C35.5212 519.834 33.0387 518.415 30.432 516.926C26.7101 514.8 22.7348 512.528 22.6199 508.653C22.595 507.813 29.3958 508.283 31.818 508.45H31.8181L31.8183 508.45C32.1867 508.476 32.4538 508.494 32.5802 508.5C37.08 508.706 40.2683 509.465 43.6174 511.002C43.556 510.003 43.6929 509.012 44.0796 508.042C44.8484 506.114 44.281 503.312 43.6852 500.369C42.8344 496.168 41.9258 491.68 44.7664 489.042C45.3821 488.47 49.507 493.897 50.9762 495.83L50.9763 495.831L50.9763 495.831L50.9766 495.831C51.2 496.125 51.362 496.338 51.4408 496.437C54.6466 500.457 56.1848 503.665 57.2454 507.931C57.8297 507.072 58.5739 506.352 59.5143 505.815C61.3178 504.787 62.6213 502.242 63.99 499.57C65.9443 495.755 68.0316 491.68 71.8975 491.388C72.7355 491.325 72.5767 498.14 72.5202 500.568C72.5115 500.937 72.5053 501.205 72.5053 501.331C72.5053 505.737 71.9196 508.913 70.6005 512.246C71.6715 512.212 72.7216 512.399 73.7328 512.869C75.6156 513.744 78.445 513.333 81.4161 512.902C85.6583 512.286 90.1892 511.629 92.6654 514.612C93.2022 515.259 87.5535 519.075 85.5417 520.434C85.2356 520.641 85.0137 520.791 84.9105 520.864C80.7182 523.842 77.429 525.199 73.1107 526.02C73.9358 526.652 74.614 527.435 75.0971 528.403C76.0236 530.261 78.4918 531.705 81.0834 533.22C84.7839 535.384 88.7363 537.694 88.8124 541.571C88.8289 542.411 82.0333 541.873 79.6127 541.681L79.6126 541.681C79.2443 541.652 78.9774 541.631 78.8511 541.624C74.3536 541.373 71.173 540.583 67.8394 539.012C67.8909 540.011 67.744 541 67.3476 541.967C66.5595 543.888 67.0989 546.695 67.6653 549.643C68.4739 553.853 69.3376 558.349 66.4708 560.959C65.8494 561.525 61.779 556.057 60.3291 554.109C60.1085 553.812 59.9486 553.598 59.8707 553.498C56.7053 549.446 55.1992 546.222 54.1814 541.946C53.5885 542.799 52.8372 543.512 51.8915 544.039C50.0778 545.05 48.7489 547.581 47.3535 550.239C45.3612 554.035 43.2332 558.088 39.3645 558.341C38.526 558.396 38.7529 551.583 38.8338 549.156L38.8338 549.156L38.8338 549.155L38.8338 549.155C38.8461 548.786 38.855 548.519 38.8563 548.393C38.899 544.122 39.4808 541.011 40.7487 537.8C39.8076 537.794 38.8827 537.609 37.9859 537.203C36.0945 536.347 33.2693 536.785 30.3027 537.246C26.0669 537.904 21.5428 538.607 19.0368 535.649C18.4937 535.008 24.1038 531.135 26.1019 529.755L26.1028 529.755C26.4064 529.545 26.6265 529.393 26.7288 529.319C30.8911 526.3 34.1666 524.91 38.4764 524.046Z" fill="#CA3636"></path>
  <defs>
    <clipPath id="clip0_107_71">
      <rect width="573" height="463" fill="white" transform="translate(-145.635 701.643) rotate(-111.108)"></rect>
    </clipPath>
    <clipPath id="clip1_107_71">
      <rect width="119.323" height="106.065" fill="white" transform="translate(44.2847 391) rotate(15.4664)"></rect>
    </clipPath>
  </defs>
</svg>
