<?xml version="1.0" encoding="UTF-8"?>
<svg xmlns="http://www.w3.org/2000/svg" width="393" height="507" viewBox="0 0 393 507" fill="none">
  <path d="M417.629 263.382C450.468 317.53 456.424 386.7 387.142 418.59C317.86 450.479 289.661 457.428 229.208 427.303C168.756 397.178 239.485 321.135 291.516 275.869C343.547 230.604 384.79 209.234 417.629 263.382Z" fill="#FFFAF4"></path>
  <path d="M493.59 215.154C488.966 209.907 486.399 205.038 484.63 198.487C482.378 194.857 475.653 192.712 470.237 187.99C466.023 184.315 464.059 178.899 459.148 175.874C455.523 173.642 449.715 171.33 447.269 167.694C441.615 159.29 429.328 156.261 422.257 149.312C415.043 142.222 404.284 138.888 395.067 134.778C389.261 132.19 384.025 129.612 378.588 126.264C375.701 124.486 372.824 124.535 369.517 124.138C359.998 122.994 350.144 120.238 340.753 118.247C333.831 116.78 327.059 114.53 320.429 112.075C313.295 109.434 305.201 108.163 298.534 104.551C285.667 97.5804 271.639 94.298 259.023 87.2362C251.908 83.2532 233.431 83.3908 226.306 86.9846C217.245 91.5554 204.628 92.0641 194.638 93.146C182.266 94.4859 155.463 85.2105 146.8 98.0959C144.522 101.484 138.58 101.759 135.457 105.433C129.945 111.916 126.436 116.313 133.903 120.911C142.879 126.439 152.693 130.504 157.692 139.406C159.189 142.071 163.476 145.714 162.799 148.126C162.27 150.011 167.158 157.029 168.163 158.926C170.034 162.458 170.669 167.372 172.079 171.141C174.323 177.146 180.623 180.989 182.631 187.251C184.928 194.419 192.293 198.952 199.055 200.537C216.177 204.55 233.32 208.489 250.244 212.933C265.758 217.007 282.743 221.421 299.039 220.01C309.499 219.104 318.624 218.732 328.819 215.666C335.581 213.632 343.982 213.033 350.305 209.962C354.662 207.846 358.332 204.713 362.993 202.781C370.765 199.562 390.391 188.896 398.4 193.828C403.003 196.663 398.429 202.182 394.616 204.185C385.769 208.835 373.711 208.011 367.342 217.57C361.609 226.177 359.28 236.282 353.801 245.179C348.376 253.989 340.829 262.953 339.465 273.452C337.994 284.782 332.86 296.324 332.613 307.679C332.527 311.625 330.48 315.737 329.221 319.431C327.606 324.169 328.619 329.41 326.611 333.971C321.727 345.058 316.194 352.554 313.175 364.528C311.352 371.761 307.522 378.47 305.351 385.662C303.866 390.581 303.629 392.963 307.801 388.708C319.246 377.032 332.501 366.63 345.091 356.405C358.657 345.385 380.432 343.672 391.537 329.836C396.534 323.609 404.345 317.888 411.182 313.387C418.771 308.391 423 301.696 427.52 294.036C432.079 286.31 434.592 277.02 440.626 270.101C446.365 263.519 451.917 257.228 456.669 249.511C461.221 242.12 465.985 235.613 467.164 226.851C468.453 217.272 465.431 246.123 465.299 255.787C465.167 265.523 463.908 274.539 463.875 284.322C463.846 292.81 468.943 300.517 469.937 308.816C471.077 318.338 473.452 326.51 476.309 335.616C478.772 343.468 481.814 352.437 483.293 360.485C484.438 366.72 484.454 374.556 487.683 380.202C491.076 386.135 490.102 395.965 490.775 402.963C491.238 407.777 492.449 411.552 494.159 416.197C495.764 420.555 508.938 452.743 517.147 443.329C523.196 436.392 524.367 425.667 524.077 416.936C523.706 405.735 523.353 394.624 523.477 383.886C523.591 373.969 521.459 364.351 522.665 354.455C523.26 349.575 520.876 345.703 522.873 341.319C525.772 334.958 528.003 324.972 526.961 317.981C525.844 310.483 529.772 302 528.411 294.556C527.779 291.1 528.703 287.264 528.886 283.795C529.01 281.442 526.544 279.448 525.633 277.371C520.199 264.979 515.514 252.236 509.699 239.877C505.249 230.417 500.681 223.203 493.59 215.154Z" fill="#007C6D"></path>
  <path d="M430.747 190.418C432.516 196.969 435.083 201.838 439.706 207.085C446.798 215.133 451.365 222.348 455.816 231.808C461.631 244.167 466.315 256.91 471.75 269.302C472.66 271.378 475.126 273.373 475.002 275.726C474.82 279.194 473.895 283.031 474.527 286.487C475.888 293.93 471.96 302.413 473.077 309.912C474.119 316.902 471.889 326.889 468.99 333.25C466.992 337.633 469.377 341.505 468.782 346.386C467.576 356.282 469.708 365.9 469.593 375.816C469.469 386.555 469.823 397.666 470.194 408.866C470.483 417.598 469.312 428.323 463.264 435.26C455.054 444.674 441.881 412.485 440.276 408.128C438.565 403.482 437.354 399.708 436.891 394.894C436.219 387.896 437.193 378.066 433.799 372.132C430.571 366.487 430.555 358.651 429.409 352.416C427.93 344.368 424.889 335.398 422.425 327.546C419.568 318.441 417.193 310.269 416.053 300.747C415.06 292.448 409.962 284.741 409.991 276.252C410.025 266.47 411.284 257.453 411.416 247.718C411.547 238.053 414.569 209.202 413.28 218.781C412.101 227.543 407.337 234.051 402.786 241.442C398.034 249.158 392.482 255.449 386.742 262.031C380.709 268.95 378.196 278.24 373.636 285.967C369.116 293.626 364.887 300.322 357.298 305.318C350.462 309.818 342.651 315.54 337.653 321.767C326.548 335.602 304.774 337.316 291.207 348.335C278.618 358.561 265.362 368.963 253.917 380.639C249.746 384.894 249.982 382.512 251.468 377.592C253.639 370.401 257.468 363.692 259.292 356.459C262.311 344.485 267.843 336.989 272.727 325.901C274.736 321.341 273.722 316.099 275.337 311.361C276.596 307.668 278.644 303.555 278.73 299.61C278.977 288.255 284.111 276.713 285.582 265.383C286.945 254.884 294.492 245.919 299.917 237.109C305.396 228.213 307.726 218.107 313.459 209.501C319.827 199.942 331.886 200.765 340.733 196.116C344.545 194.112 349.12 188.593 344.516 185.758C336.508 180.827 316.882 191.492 309.11 194.712C304.448 196.643 300.778 199.777 296.422 201.893C290.098 204.964 281.697 205.562 274.936 207.596C264.74 210.663 255.615 211.035 245.155 211.941C228.859 213.351 211.875 208.938 196.361 204.864C179.437 200.42 162.294 196.481 145.171 192.468C138.409 190.883 131.045 186.35 128.747 179.181C126.74 172.92 120.44 169.076 118.195 163.072C116.786 159.303 116.15 154.389 114.279 150.856C113.275 148.959 108.386 141.942 108.916 140.056C109.593 137.645 105.306 134.002 103.809 131.336C98.8093 122.435 88.9955 118.37 80.0193 112.842C72.5528 108.244 76.061 103.847 81.5737 97.3631C84.6968 93.6899 90.6382 93.4142 92.916 90.0265C101.58 77.1411 128.382 86.4165 140.755 85.0766C150.744 83.9947 163.361 83.486 172.423 78.9153C179.548 75.3214 198.025 75.1838 205.14 79.1668C217.755 86.2286 231.783 89.511 244.65 96.4815C251.318 100.094 259.412 101.365 266.545 104.005C273.175 106.46 279.948 108.71 286.869 110.178C296.26 112.169 306.114 114.925 315.633 116.069C318.94 116.466 321.818 116.417 324.704 118.195C330.141 121.543 335.377 124.12 341.183 126.709C350.4 130.818 361.159 134.153 368.373 141.242C375.445 148.192 387.732 151.221 393.385 159.625C395.831 163.261 401.639 165.573 405.264 167.805C410.175 170.829 412.139 176.245 416.354 179.921C421.769 184.643 426.468 187.269 428.72 190.9" stroke="#363737" stroke-width="3" stroke-linecap="round"></path>
  <path d="M301.302 288.338C297.296 289.412 298.485 284.845 297.774 281.982C296.833 278.196 296.245 274.337 295.332 270.601C293.811 264.374 293.048 257.994 291.498 251.749C289.677 244.411 294.12 237.587 292.47 230.394C290.783 223.038 291.725 214.15 297.812 208.948C301.205 206.049 303.069 201.688 306.462 198.585C308.161 197.031 310.512 195.701 312.004 194.159C313.577 192.531 314.678 192.321 314.314 189.787C314.085 188.187 312.585 185.133 314.358 183.893C316.013 182.735 318.688 181.209 318.822 178.978C319.048 175.206 322.103 173.353 324.209 170.57C325.395 169.004 329.449 168.22 331.354 167.709L335.896 166.492C337.792 165.984 339.933 168.959 341.371 169.893C342.837 170.846 344.859 172.867 345.928 174.284C347.628 176.537 347.958 178.398 349.302 180.818C351.799 185.316 354.425 190.097 355.785 195.173C357.443 201.363 358.015 208.256 357.6 214.565C357.399 217.635 356.688 219.607 356.087 222.543C355.445 225.678 356.746 228.883 355.17 231.612C353.895 233.82 354.348 237.1 353.166 239.147C351.68 241.721 349.976 244.242 348.167 246.606C346.621 248.625 343.413 251.909 341.189 253.242C338.432 254.895 337.954 258.166 335.663 259.997C333.871 261.429 331.481 264.84 330.886 267.024C329.746 271.202 326.381 274.21 323.294 277.172C320.131 280.206 315.82 282.649 313.759 286.759C312.865 288.542 312.234 290.271 309.247 289.726C305.971 289.128 304.02 289.436 300.623 290.346C299.856 290.551 299.114 290.37 298.394 289.953C298.077 290.868 297.847 292.457 297.835 293.189C297.818 294.224 297.566 296.381 296.972 297.41C296.049 299.009 293.723 300.409 292.461 301.898C291.17 303.419 289.47 303.679 287.596 304.182C286.398 304.503 286.57 305.484 285.745 306.233C284.803 307.087 283.216 307.789 281.991 308.118C279.844 308.693 277.536 309.139 275.338 308.649C272.222 307.956 269.247 307.819 266.08 307.783C261.414 307.731 256.741 305.604 252.145 304.857C245.918 303.846 240.608 304.643 235.665 302.275C232.225 300.627 229.485 298.056 225.831 296.864C222.842 295.888 219.487 294.108 216.76 292.533C214.242 291.079 209.869 290.509 206.959 290.021C204.361 289.585 205.695 289.432 204.892 287.734C204.637 287.194 202.529 286.2 201.931 285.891C200.724 285.269 200.485 284.472 199.236 283.909C197.706 283.218 195.586 281.703 197.392 279.805C198.843 278.28 200.643 276.937 202.168 275.043C204.306 272.387 207.002 270.579 208.909 267.524C209.724 266.217 211.553 265.791 212.81 264.923C215.435 263.111 217.428 259.697 220.581 258.852L226.701 257.212C229.692 256.41 231.924 257.157 234.75 256.847C236.357 256.671 240.226 255.905 241.637 256.557C245.635 258.405 251.081 258.314 255.204 260.257C263.578 264.204 273.72 268.531 280.529 274.905C282.721 276.957 284.801 278.64 287.166 280.497C288.118 281.244 289.399 282.162 290.164 283.108C290.838 283.941 291.432 283.305 292.164 283.755C294.039 284.911 296.1 288.625 298.394 289.953C298.67 289.16 299.011 288.872 299.336 290.083L301.302 288.338Z" fill="#FCBC5A"></path>
  <path d="M273.258 256.603C273.371 256.742 273.465 256.891 273.55 257.043C274.667 258.309 275.118 258.843 276.845 258.38C277.612 258.175 279.441 259.049 279.796 258.164C280.571 256.233 281.57 253.916 281.527 251.379C281.498 249.629 280.152 248.034 281.08 246.427C281.431 245.819 282.131 243.702 282.622 243.479C286.345 241.785 287.371 238.131 286.675 233.873C285.802 228.536 282.583 224.364 281.981 219.005C281.497 214.704 278.849 209.215 275.558 206.392C271.403 202.828 266.343 199.732 262.79 195.581C260.215 192.572 254.324 193.045 252.691 188.55C251.86 186.265 247.944 186.274 245.605 185.952C241.651 185.408 243.068 188.813 243.031 191.105C243.001 192.873 243.251 194.324 243.716 196.06C244.147 197.67 243.396 199.163 243.764 200.78C244.48 203.935 242.128 207.418 242.707 210.462C243.069 212.367 242.858 215.207 242.677 217.163C242.351 220.687 243.359 223.051 244.541 226.265C246.666 232.042 253.096 238.556 257.749 242.503C261.538 245.717 263.551 252.58 268.96 253.935C270.134 254.229 272.538 255.712 273.258 256.603Z" fill="#FCBC5A"></path>
  <path fill-rule="evenodd" clip-rule="evenodd" d="M283.476 300.046C282.645 299.423 281.959 298.646 281.466 297.682C280.521 295.834 278.039 294.415 275.432 292.926C271.71 290.8 267.735 288.528 267.62 284.653C267.595 283.813 274.396 284.283 276.818 284.45H276.818L276.818 284.45C277.187 284.476 277.454 284.494 277.58 284.5C282.08 284.706 285.268 285.465 288.617 287.002C288.556 286.003 288.693 285.012 289.08 284.042C289.848 282.114 289.281 279.312 288.685 276.369C287.834 272.168 286.926 267.68 289.766 265.042C290.382 264.47 294.507 269.897 295.976 271.83L295.976 271.831L295.976 271.831L295.977 271.831C296.2 272.125 296.362 272.338 296.441 272.437C299.647 276.457 301.185 279.665 302.245 283.931C302.83 283.072 303.574 282.352 304.514 281.815C306.318 280.787 307.621 278.242 308.99 275.57C310.944 271.755 313.032 267.68 316.898 267.388C317.736 267.325 317.577 274.14 317.52 276.568C317.512 276.937 317.505 277.205 317.505 277.331C317.505 281.737 316.92 284.913 315.601 288.246C316.672 288.212 317.722 288.399 318.733 288.869C320.616 289.744 323.445 289.333 326.416 288.902C330.658 288.286 335.189 287.629 337.665 290.612C338.202 291.259 332.554 295.075 330.542 296.434C330.236 296.641 330.014 296.791 329.911 296.864C325.718 299.842 322.429 301.199 318.111 302.02C318.936 302.652 319.614 303.435 320.097 304.403C321.024 306.261 323.492 307.705 326.083 309.22C329.784 311.384 333.736 313.694 333.812 317.571C333.829 318.411 327.033 317.873 324.613 317.681L324.613 317.681C324.244 317.652 323.977 317.631 323.851 317.624C319.354 317.373 316.173 316.583 312.839 315.012C312.891 316.011 312.744 317 312.348 317.967C311.56 319.888 312.099 322.695 312.665 325.643C313.474 329.853 314.338 334.349 311.471 336.959C310.849 337.525 306.779 332.057 305.329 330.109C305.109 329.812 304.949 329.598 304.871 329.498C301.705 325.446 300.199 322.222 299.181 317.946C298.589 318.799 297.837 319.512 296.892 320.039C295.078 321.05 293.749 323.581 292.354 326.239C290.361 330.035 288.233 334.088 284.365 334.341C283.526 334.396 283.753 327.583 283.834 325.156L283.834 325.156L283.834 325.155L283.834 325.155C283.846 324.786 283.855 324.519 283.856 324.393C283.899 320.122 284.481 317.011 285.749 313.8C284.808 313.794 283.883 313.609 282.986 313.203C281.094 312.347 278.269 312.785 275.303 313.246C271.067 313.904 266.543 314.607 264.037 311.649C263.494 311.008 269.104 307.135 271.102 305.755L271.103 305.755C271.406 305.545 271.626 305.393 271.729 305.319C275.891 302.3 279.167 300.91 283.476 300.046Z" fill="#CA3636"></path>
</svg>
