<svg xmlns="http://www.w3.org/2000/svg" xmlns:xlink="http://www.w3.org/1999/xlink" width="378" zoomAndPan="magnify" viewBox="0 0 282.96 120.96" height="151" preserveAspectRatio="xMidYMid meet" version="1.0"><defs><clipPath id="f1406c3f7d"><path d="M 0.0273438 28.1875 L 282.894531 28.1875 L 282.894531 77.671875 L 0.0273438 77.671875 Z M 0.0273438 28.1875 " clip-rule="nonzero"/></clipPath><clipPath id="cf57e30567"><path d="M 0.0273438 0.1875 L 282.894531 0.1875 L 282.894531 49.671875 L 0.0273438 49.671875 Z M 0.0273438 0.1875 " clip-rule="nonzero"/></clipPath><clipPath id="5c9a3be438"><rect x="0" width="283" y="0" height="50"/></clipPath></defs><g clip-path="url(#f1406c3f7d)"><g transform="matrix(1, 0, 0, 1, 0, 28)"><g clip-path="url(#5c9a3be438)"><g clip-path="url(#cf57e30567)"><path fill="#363737" d="M 1.96875 28.421875 L 62.300781 49.390625 C 67.023438 48.878906 63.363281 44.46875 61.34375 42.425781 C 54.539062 35.546875 43.675781 34.296875 34.992188 31.332031 C 33.957031 30.976562 32.011719 31.117188 32.242188 29.671875 L 109.609375 29.621094 C 111.941406 29.660156 114.09375 30.640625 116.429688 30.6875 C 165.839844 31.65625 214.917969 35.203125 264.203125 36.597656 C 269.734375 36.753906 275.328125 36.539062 280.851562 36.421875 C 282.808594 35.886719 283.238281 31.511719 281.875 30.539062 C 279.871094 30.082031 278.027344 29.074219 275.980469 28.753906 C 236.277344 22.527344 190.296875 27.355469 150 22.726562 L 32.238281 21.773438 L 56.777344 11.359375 C 60.074219 8.667969 64.449219 6.800781 63.671875 1.734375 L 61.378906 0.160156 L 2.277344 22.867188 L 0.726562 25.195312 L 1.957031 28.425781 Z M 1.96875 28.421875 " fill-opacity="1" fill-rule="nonzero"/></g></g></g></g></svg>