<svg xmlns="http://www.w3.org/2000/svg" xmlns:xlink="http://www.w3.org/1999/xlink" width="378" zoomAndPan="magnify" viewBox="0 0 282.96 120.96" height="151" preserveAspectRatio="xMidYMid meet" version="1.0"><defs><clipPath id="727db25adb"><path d="M 0.0273438 28.1875 L 282.894531 28.1875 L 282.894531 77.671875 L 0.0273438 77.671875 Z M 0.0273438 28.1875 " clip-rule="nonzero"/></clipPath></defs><g clip-path="url(#727db25adb)"><path fill="#363737" d="M 281.445312 56.421875 L 221.109375 77.390625 C 216.390625 76.878906 220.050781 72.46875 222.070312 70.425781 C 228.875 63.546875 239.734375 62.296875 248.417969 59.328125 C 249.457031 58.976562 251.402344 59.117188 251.171875 57.671875 L 173.800781 57.621094 C 171.472656 57.660156 169.320312 58.640625 166.984375 58.6875 C 117.574219 59.65625 68.492188 63.203125 19.210938 64.597656 C 13.679688 64.753906 8.085938 64.539062 2.558594 64.421875 C 0.605469 63.886719 0.175781 59.511719 1.539062 58.539062 C 3.542969 58.082031 5.386719 57.074219 7.433594 56.753906 C 47.132812 50.527344 93.117188 55.355469 133.410156 50.726562 L 251.175781 49.773438 L 226.636719 39.359375 C 223.339844 36.667969 218.960938 34.800781 219.742188 29.734375 L 222.035156 28.160156 L 281.136719 50.867188 L 282.683594 53.195312 L 281.457031 56.425781 Z M 281.445312 56.421875 " fill-opacity="1" fill-rule="nonzero"/></g></svg>