<svg xmlns="http://www.w3.org/2000/svg" xmlns:xlink="http://www.w3.org/1999/xlink" width="378" zoomAndPan="magnify" viewBox="0 0 283.5 113.249998" height="151" preserveAspectRatio="xMidYMid meet" version="1.0"><defs><g/><clipPath id="1656dec352"><path d="M 0.683594 27 L 282.320312 27 L 282.320312 93 L 0.683594 93 Z M 0.683594 27 " clip-rule="nonzero"/></clipPath><clipPath id="17afc7437f"><path d="M 27 1 L 282.320312 1 L 282.320312 57 L 27 57 Z M 27 1 " clip-rule="nonzero"/></clipPath><clipPath id="054f1126cf"><rect x="0" width="256" y="0" height="56"/></clipPath><clipPath id="4fa4b2d250"><path d="M 1 0.179688 L 29 0.179688 L 29 56 L 1 56 Z M 1 0.179688 " clip-rule="nonzero"/></clipPath><clipPath id="5c6bb9d899"><path d="M 3 12 L 27.578125 12 L 27.578125 44 L 3 44 Z M 3 12 " clip-rule="nonzero"/></clipPath><clipPath id="273e306e6b"><rect x="0" width="28" y="0" height="56"/></clipPath><clipPath id="591d9f2f0c"><path d="M 95 22.492188 L 100 22.492188 L 100 28 L 95 28 Z M 95 22.492188 " clip-rule="nonzero"/></clipPath><clipPath id="18dc8a3955"><path d="M 100 22.492188 L 105 22.492188 L 105 28 L 100 28 Z M 100 22.492188 " clip-rule="nonzero"/></clipPath><clipPath id="b62b732b74"><path d="M 94.902344 27.445312 L 104.925781 27.445312 L 104.925781 35.558594 L 94.902344 35.558594 Z M 94.902344 27.445312 " clip-rule="nonzero"/></clipPath><clipPath id="3ef25bc563"><path d="M 103 26 L 107.128906 26 L 107.128906 31 L 103 31 Z M 103 26 " clip-rule="nonzero"/></clipPath><clipPath id="3f73007f69"><path d="M 3.667969 17 L 47.574219 17 L 47.574219 43.960938 L 3.667969 43.960938 Z M 3.667969 17 " clip-rule="nonzero"/></clipPath><clipPath id="93ab582d46"><rect x="0" width="283" y="0" height="66"/></clipPath></defs><g clip-path="url(#1656dec352)"><g transform="matrix(1, 0, 0, 1, 0, 27)"><g clip-path="url(#93ab582d46)"><g clip-path="url(#17afc7437f)"><g transform="matrix(1, 0, 0, 1, 27, 1)"><g clip-path="url(#054f1126cf)"><g fill="#387dbd" fill-opacity="1"><g transform="translate(0.296978, 43.121504)"><g><path d="M 9.25 0 C 8.09375 0 7.269531 -0.03125 6.78125 -0.09375 C 6.300781 -0.15625 5.847656 -0.257812 5.421875 -0.40625 C 3.804688 -1.070312 2.847656 -2.285156 2.546875 -4.046875 C 2.515625 -4.203125 2.484375 -4.347656 2.453125 -4.484375 C 2.421875 -4.617188 2.398438 -4.789062 2.390625 -5 C 2.378906 -5.21875 2.375 -5.484375 2.375 -5.796875 C 2.375 -6.117188 2.375 -6.539062 2.375 -7.0625 L 2.375 -23.546875 C 2.375 -24.179688 2.378906 -24.691406 2.390625 -25.078125 C 2.398438 -25.472656 2.421875 -25.800781 2.453125 -26.0625 C 2.484375 -26.320312 2.53125 -26.539062 2.59375 -26.71875 C 2.65625 -26.90625 2.734375 -27.117188 2.828125 -27.359375 C 3.035156 -27.941406 3.359375 -28.441406 3.796875 -28.859375 C 4.242188 -29.285156 4.722656 -29.625 5.234375 -29.875 C 5.503906 -29.988281 5.742188 -30.078125 5.953125 -30.140625 C 6.171875 -30.203125 6.421875 -30.25 6.703125 -30.28125 C 6.992188 -30.3125 7.359375 -30.332031 7.796875 -30.34375 C 8.242188 -30.363281 8.832031 -30.375 9.5625 -30.375 L 15.578125 -30.375 C 16.304688 -30.375 16.878906 -30.375 17.296875 -30.375 C 17.722656 -30.375 18.054688 -30.359375 18.296875 -30.328125 C 18.546875 -30.296875 18.742188 -30.265625 18.890625 -30.234375 C 19.046875 -30.203125 19.210938 -30.171875 19.390625 -30.140625 C 20.453125 -29.867188 21.296875 -29.335938 21.921875 -28.546875 C 22.546875 -27.753906 22.859375 -26.828125 22.859375 -25.765625 C 22.859375 -25.035156 22.710938 -24.34375 22.421875 -23.6875 C 22.128906 -23.039062 21.726562 -22.503906 21.21875 -22.078125 C 20.757812 -21.679688 20.238281 -21.398438 19.65625 -21.234375 C 19.082031 -21.066406 18.328125 -20.984375 17.390625 -20.984375 L 12.390625 -20.984375 L 12.390625 -18.890625 L 16.34375 -18.890625 C 17.59375 -18.890625 18.578125 -18.554688 19.296875 -17.890625 C 20.023438 -17.222656 20.390625 -16.359375 20.390625 -15.296875 C 20.390625 -14.109375 19.953125 -13.15625 19.078125 -12.4375 C 18.679688 -12.125 18.265625 -11.914062 17.828125 -11.8125 C 17.390625 -11.707031 16.773438 -11.65625 15.984375 -11.65625 L 12.390625 -11.65625 L 12.390625 -9.375 L 16.984375 -9.375 C 18.078125 -9.375 18.914062 -9.289062 19.5 -9.125 C 20.09375 -8.957031 20.648438 -8.660156 21.171875 -8.234375 C 22.265625 -7.296875 22.8125 -6.113281 22.8125 -4.6875 C 22.8125 -3.988281 22.664062 -3.3125 22.375 -2.65625 C 22.09375 -2.007812 21.691406 -1.472656 21.171875 -1.046875 C 20.929688 -0.835938 20.679688 -0.660156 20.421875 -0.515625 C 20.160156 -0.378906 19.878906 -0.273438 19.578125 -0.203125 C 19.273438 -0.128906 18.914062 -0.078125 18.5 -0.046875 C 18.09375 -0.015625 17.601562 0 17.03125 0 Z M 9.25 0 "/></g></g></g><g fill="#387dbd" fill-opacity="1"><g transform="translate(21.965609, 43.121504)"><g/></g></g><g fill="#387dbd" fill-opacity="1"><g transform="translate(33.20953, 43.121504)"><g><path d="M 2.375 -24.59375 C 2.375 -25.675781 2.46875 -26.519531 2.65625 -27.125 C 2.851562 -27.738281 3.210938 -28.316406 3.734375 -28.859375 C 4.242188 -29.378906 4.816406 -29.757812 5.453125 -30 C 6.097656 -30.25 6.890625 -30.375 7.828125 -30.375 L 12.015625 -30.375 C 13.234375 -30.375 14.296875 -30.332031 15.203125 -30.25 C 16.117188 -30.175781 16.925781 -30.046875 17.625 -29.859375 C 18.320312 -29.679688 18.960938 -29.445312 19.546875 -29.15625 C 20.140625 -28.875 20.726562 -28.503906 21.3125 -28.046875 C 22.675781 -27.015625 23.726562 -25.738281 24.46875 -24.21875 C 25.21875 -22.707031 25.59375 -21.097656 25.59375 -19.390625 C 25.59375 -17.691406 25.203125 -16.082031 24.421875 -14.5625 C 23.648438 -13.050781 22.566406 -11.765625 21.171875 -10.703125 C 20.140625 -9.910156 19.078125 -9.347656 17.984375 -9.015625 C 16.890625 -8.679688 15.597656 -8.515625 14.109375 -8.515625 L 12.4375 -8.515625 L 12.4375 -5.5625 C 12.4375 -3.820312 11.976562 -2.421875 11.0625 -1.359375 C 10.15625 -0.296875 8.941406 0.234375 7.421875 0.234375 C 6.566406 0.234375 5.769531 0.03125 5.03125 -0.375 C 4.289062 -0.789062 3.691406 -1.347656 3.234375 -2.046875 C 3.046875 -2.347656 2.890625 -2.628906 2.765625 -2.890625 C 2.648438 -3.148438 2.5625 -3.4375 2.5 -3.75 C 2.4375 -4.070312 2.398438 -4.472656 2.390625 -4.953125 C 2.378906 -5.441406 2.375 -6.066406 2.375 -6.828125 Z M 12.4375 -17.796875 C 13.644531 -17.742188 14.5 -17.835938 15 -18.078125 C 15.5 -18.316406 15.75 -18.785156 15.75 -19.484375 C 15.75 -20.003906 15.535156 -20.398438 15.109375 -20.671875 C 14.691406 -20.941406 14.101562 -21.078125 13.34375 -21.078125 L 12.4375 -21.078125 Z M 12.4375 -17.796875 "/></g></g></g><g fill="#387dbd" fill-opacity="1"><g transform="translate(57.655055, 43.121504)"><g><path d="M 10.96875 -3.96875 C 10.332031 -2.476562 9.613281 -1.40625 8.8125 -0.75 C 8.007812 -0.09375 7 0.234375 5.78125 0.234375 C 5.082031 0.234375 4.425781 0.101562 3.8125 -0.15625 C 3.207031 -0.414062 2.6875 -0.769531 2.25 -1.21875 C 1.8125 -1.675781 1.460938 -2.207031 1.203125 -2.8125 C 0.941406 -3.425781 0.8125 -4.082031 0.8125 -4.78125 C 0.8125 -5.632812 1.023438 -6.515625 1.453125 -7.421875 L 10.96875 -27.59375 C 11.394531 -28.53125 12.015625 -29.265625 12.828125 -29.796875 C 13.648438 -30.328125 14.566406 -30.59375 15.578125 -30.59375 C 16.609375 -30.59375 17.53125 -30.328125 18.34375 -29.796875 C 19.164062 -29.265625 19.804688 -28.515625 20.265625 -27.546875 L 29.828125 -7.140625 C 30.222656 -6.390625 30.421875 -5.585938 30.421875 -4.734375 C 30.421875 -4.035156 30.28125 -3.390625 30 -2.796875 C 29.726562 -2.203125 29.363281 -1.675781 28.90625 -1.21875 C 28.457031 -0.769531 27.925781 -0.414062 27.3125 -0.15625 C 26.707031 0.101562 26.054688 0.234375 25.359375 0.234375 C 24.203125 0.234375 23.238281 -0.078125 22.46875 -0.703125 C 21.695312 -1.328125 20.960938 -2.414062 20.265625 -3.96875 Z M 17.125 -11.203125 L 15.578125 -14.84375 L 14.03125 -11.203125 Z M 17.125 -11.203125 "/></g></g></g><g fill="#387dbd" fill-opacity="1"><g transform="translate(86.60733, 43.121504)"><g><path d="M 1.359375 -23.5 C 1.179688 -23.914062 1.039062 -24.34375 0.9375 -24.78125 C 0.832031 -25.226562 0.78125 -25.570312 0.78125 -25.8125 C 0.78125 -26.476562 0.914062 -27.097656 1.1875 -27.671875 C 1.457031 -28.253906 1.816406 -28.757812 2.265625 -29.1875 C 2.722656 -29.613281 3.253906 -29.953125 3.859375 -30.203125 C 4.472656 -30.460938 5.128906 -30.59375 5.828125 -30.59375 C 8.160156 -30.59375 9.875 -29.242188 10.96875 -26.546875 L 14.203125 -18.84375 L 16.890625 -26.8125 C 17.742188 -29.332031 19.367188 -30.59375 21.765625 -30.59375 C 24.160156 -30.59375 25.816406 -29.289062 26.734375 -26.6875 L 29.546875 -18.625 L 32.875 -27.140625 C 33.300781 -28.203125 33.953125 -29.039062 34.828125 -29.65625 C 35.710938 -30.28125 36.703125 -30.59375 37.796875 -30.59375 C 38.492188 -30.59375 39.144531 -30.460938 39.75 -30.203125 C 40.351562 -29.953125 40.882812 -29.601562 41.34375 -29.15625 C 41.800781 -28.71875 42.15625 -28.195312 42.40625 -27.59375 C 42.664062 -26.988281 42.796875 -26.335938 42.796875 -25.640625 C 42.796875 -25.328125 42.757812 -25.003906 42.6875 -24.671875 C 42.613281 -24.335938 42.453125 -23.867188 42.203125 -23.265625 L 35.015625 -3.6875 C 34.078125 -1.070312 32.46875 0.234375 30.1875 0.234375 C 27.820312 0.234375 26.195312 -1.039062 25.3125 -3.59375 L 21.953125 -13.5625 L 18.625 -3.640625 C 17.769531 -1.054688 16.175781 0.234375 13.84375 0.234375 C 11.53125 0.234375 9.953125 -0.921875 9.109375 -3.234375 Z M 1.359375 -23.5 "/></g></g></g><g fill="#387dbd" fill-opacity="1"><g transform="translate(127.850753, 43.121504)"><g><path d="M 12.9375 0.78125 C 11.320312 0.78125 9.816406 0.582031 8.421875 0.1875 C 7.023438 -0.207031 5.8125 -0.753906 4.78125 -1.453125 C 3.75 -2.148438 2.941406 -2.960938 2.359375 -3.890625 C 1.785156 -4.816406 1.5 -5.828125 1.5 -6.921875 C 1.5 -7.554688 1.613281 -8.144531 1.84375 -8.6875 C 2.070312 -9.238281 2.390625 -9.71875 2.796875 -10.125 C 3.210938 -10.539062 3.695312 -10.867188 4.25 -11.109375 C 4.8125 -11.347656 5.414062 -11.46875 6.0625 -11.46875 C 6.664062 -11.46875 7.25 -11.351562 7.8125 -11.125 C 8.375 -10.90625 8.972656 -10.535156 9.609375 -10.015625 C 10.148438 -9.585938 10.585938 -9.253906 10.921875 -9.015625 C 11.253906 -8.773438 11.523438 -8.582031 11.734375 -8.4375 C 11.953125 -8.300781 12.132812 -8.21875 12.28125 -8.1875 C 12.4375 -8.164062 12.609375 -8.15625 12.796875 -8.15625 C 13.191406 -8.15625 13.5 -8.273438 13.71875 -8.515625 C 13.945312 -8.753906 14.0625 -9.070312 14.0625 -9.46875 C 14.0625 -9.988281 13.804688 -10.414062 13.296875 -10.75 C 13.234375 -10.78125 13.160156 -10.816406 13.078125 -10.859375 C 13.003906 -10.898438 12.898438 -10.953125 12.765625 -11.015625 C 12.628906 -11.078125 12.445312 -11.15625 12.21875 -11.25 C 12 -11.34375 11.691406 -11.460938 11.296875 -11.609375 C 10.867188 -11.765625 10.457031 -11.910156 10.0625 -12.046875 C 9.664062 -12.179688 9.253906 -12.320312 8.828125 -12.46875 C 4.429688 -14.019531 2.234375 -16.90625 2.234375 -21.125 C 2.234375 -22.613281 2.503906 -23.960938 3.046875 -25.171875 C 3.597656 -26.390625 4.359375 -27.4375 5.328125 -28.3125 C 6.296875 -29.195312 7.46875 -29.878906 8.84375 -30.359375 C 10.226562 -30.847656 11.742188 -31.09375 13.390625 -31.09375 C 14.753906 -31.09375 16.023438 -30.914062 17.203125 -30.5625 C 18.390625 -30.21875 19.421875 -29.75 20.296875 -29.15625 C 21.179688 -28.570312 21.875 -27.875 22.375 -27.0625 C 22.875 -26.257812 23.125 -25.390625 23.125 -24.453125 C 23.125 -23.234375 22.757812 -22.238281 22.03125 -21.46875 C 21.300781 -20.695312 20.363281 -20.3125 19.21875 -20.3125 C 18.519531 -20.3125 17.863281 -20.4375 17.25 -20.6875 C 16.644531 -20.945312 15.921875 -21.394531 15.078125 -22.03125 C 14.554688 -22.457031 14.144531 -22.742188 13.84375 -22.890625 C 13.539062 -23.046875 13.25 -23.125 12.96875 -23.125 C 12.632812 -23.125 12.351562 -23.007812 12.125 -22.78125 C 11.90625 -22.5625 11.796875 -22.285156 11.796875 -21.953125 C 11.796875 -21.492188 12 -21.125 12.40625 -20.84375 C 12.8125 -20.570312 13.609375 -20.242188 14.796875 -19.859375 C 16.097656 -19.460938 17.328125 -18.984375 18.484375 -18.421875 C 19.640625 -17.859375 20.566406 -17.273438 21.265625 -16.671875 C 22.203125 -15.878906 22.941406 -14.851562 23.484375 -13.59375 C 24.035156 -12.332031 24.3125 -10.972656 24.3125 -9.515625 C 24.3125 -8.148438 24.0625 -6.835938 23.5625 -5.578125 C 23.0625 -4.316406 22.351562 -3.21875 21.4375 -2.28125 C 20.40625 -1.25 19.195312 -0.484375 17.8125 0.015625 C 16.4375 0.523438 14.8125 0.78125 12.9375 0.78125 Z M 12.9375 0.78125 "/></g></g></g><g fill="#387dbd" fill-opacity="1"><g transform="translate(151.249249, 43.121504)"><g><path d="M 2.375 -24.359375 C 2.375 -24.992188 2.382812 -25.539062 2.40625 -26 C 2.4375 -26.457031 2.5 -26.851562 2.59375 -27.1875 C 2.6875 -27.519531 2.816406 -27.828125 2.984375 -28.109375 C 3.148438 -28.398438 3.367188 -28.679688 3.640625 -28.953125 C 4.578125 -30.046875 5.804688 -30.59375 7.328125 -30.59375 C 8.847656 -30.59375 10.09375 -30.0625 11.0625 -29 C 11.582031 -28.425781 11.929688 -27.816406 12.109375 -27.171875 C 12.296875 -26.535156 12.390625 -25.597656 12.390625 -24.359375 L 12.390625 -5.5625 C 12.390625 -4.582031 12.289062 -3.78125 12.09375 -3.15625 C 11.894531 -2.539062 11.566406 -1.972656 11.109375 -1.453125 C 10.617188 -0.941406 10.039062 -0.53125 9.375 -0.21875 C 8.707031 0.0820312 8.039062 0.234375 7.375 0.234375 C 6.675781 0.234375 5.984375 0.0859375 5.296875 -0.203125 C 4.617188 -0.492188 4.066406 -0.878906 3.640625 -1.359375 C 3.148438 -1.878906 2.816406 -2.441406 2.640625 -3.046875 C 2.460938 -3.660156 2.375 -4.5 2.375 -5.5625 Z M 2.375 -24.359375 "/></g></g></g><g fill="#387dbd" fill-opacity="1"><g transform="translate(163.676762, 43.121504)"><g><path d="M 8.703125 -21.03125 L 6.015625 -21.03125 C 5.128906 -21.03125 4.390625 -21.132812 3.796875 -21.34375 C 3.203125 -21.5625 2.679688 -21.898438 2.234375 -22.359375 C 1.285156 -23.359375 0.8125 -24.460938 0.8125 -25.671875 C 0.8125 -26.554688 1.0625 -27.394531 1.5625 -28.1875 C 2.070312 -28.976562 2.691406 -29.539062 3.421875 -29.875 C 3.691406 -29.988281 3.929688 -30.078125 4.140625 -30.140625 C 4.359375 -30.203125 4.648438 -30.25 5.015625 -30.28125 C 5.378906 -30.3125 5.851562 -30.332031 6.4375 -30.34375 C 7.03125 -30.363281 7.828125 -30.375 8.828125 -30.375 L 18.9375 -30.375 C 19.632812 -30.375 20.179688 -30.375 20.578125 -30.375 C 20.972656 -30.375 21.273438 -30.375 21.484375 -30.375 C 21.703125 -30.375 21.863281 -30.363281 21.96875 -30.34375 C 22.070312 -30.332031 22.203125 -30.3125 22.359375 -30.28125 C 23.566406 -30.125 24.550781 -29.617188 25.3125 -28.765625 C 26.070312 -27.921875 26.453125 -26.90625 26.453125 -25.71875 C 26.453125 -25.050781 26.304688 -24.398438 26.015625 -23.765625 C 25.734375 -23.128906 25.332031 -22.582031 24.8125 -22.125 C 24.019531 -21.394531 22.726562 -21.03125 20.9375 -21.03125 L 18.71875 -21.03125 L 18.71875 -5.921875 C 18.71875 -5.003906 18.65625 -4.257812 18.53125 -3.6875 C 18.40625 -3.113281 18.175781 -2.566406 17.84375 -2.046875 C 17.394531 -1.316406 16.8125 -0.753906 16.09375 -0.359375 C 15.382812 0.0351562 14.585938 0.234375 13.703125 0.234375 C 12.859375 0.234375 12.078125 0.0507812 11.359375 -0.3125 C 10.648438 -0.675781 10.050781 -1.191406 9.5625 -1.859375 C 9.226562 -2.378906 9 -2.910156 8.875 -3.453125 C 8.757812 -4.003906 8.703125 -4.796875 8.703125 -5.828125 Z M 8.703125 -21.03125 "/></g></g></g><g fill="#387dbd" fill-opacity="1"><g transform="translate(188.668551, 43.121504)"><g><path d="M 2.375 -24.359375 C 2.375 -24.992188 2.382812 -25.539062 2.40625 -26 C 2.4375 -26.457031 2.5 -26.851562 2.59375 -27.1875 C 2.6875 -27.519531 2.816406 -27.828125 2.984375 -28.109375 C 3.148438 -28.398438 3.367188 -28.679688 3.640625 -28.953125 C 4.578125 -30.046875 5.804688 -30.59375 7.328125 -30.59375 C 8.847656 -30.59375 10.09375 -30.0625 11.0625 -29 C 11.582031 -28.425781 11.929688 -27.816406 12.109375 -27.171875 C 12.296875 -26.535156 12.390625 -25.597656 12.390625 -24.359375 L 12.390625 -5.5625 C 12.390625 -4.582031 12.289062 -3.78125 12.09375 -3.15625 C 11.894531 -2.539062 11.566406 -1.972656 11.109375 -1.453125 C 10.617188 -0.941406 10.039062 -0.53125 9.375 -0.21875 C 8.707031 0.0820312 8.039062 0.234375 7.375 0.234375 C 6.675781 0.234375 5.984375 0.0859375 5.296875 -0.203125 C 4.617188 -0.492188 4.066406 -0.878906 3.640625 -1.359375 C 3.148438 -1.878906 2.816406 -2.441406 2.640625 -3.046875 C 2.460938 -3.660156 2.375 -4.5 2.375 -5.5625 Z M 2.375 -24.359375 "/></g></g></g><g fill="#387dbd" fill-opacity="1"><g transform="translate(201.096085, 43.121504)"><g><path d="M 1.5 -23 C 1.019531 -24 0.78125 -24.90625 0.78125 -25.71875 C 0.78125 -26.394531 0.914062 -27.023438 1.1875 -27.609375 C 1.457031 -28.203125 1.816406 -28.71875 2.265625 -29.15625 C 2.722656 -29.601562 3.265625 -29.953125 3.890625 -30.203125 C 4.515625 -30.460938 5.175781 -30.59375 5.875 -30.59375 C 6.96875 -30.59375 7.929688 -30.28125 8.765625 -29.65625 C 9.597656 -29.039062 10.257812 -28.15625 10.75 -27 L 15.578125 -15.625 L 20.765625 -27.5 C 21.160156 -28.4375 21.78125 -29.1875 22.625 -29.75 C 23.476562 -30.3125 24.40625 -30.59375 25.40625 -30.59375 C 26.101562 -30.59375 26.753906 -30.460938 27.359375 -30.203125 C 27.972656 -29.953125 28.503906 -29.601562 28.953125 -29.15625 C 29.410156 -28.71875 29.769531 -28.195312 30.03125 -27.59375 C 30.289062 -26.988281 30.421875 -26.347656 30.421875 -25.671875 C 30.421875 -24.828125 30.238281 -24.039062 29.875 -23.3125 L 20.4375 -3.140625 C 19.375 -0.890625 17.753906 0.234375 15.578125 0.234375 C 14.515625 0.234375 13.570312 -0.0351562 12.75 -0.578125 C 11.925781 -1.128906 11.289062 -1.894531 10.84375 -2.875 Z M 1.5 -23 "/></g></g></g><g fill="#387dbd" fill-opacity="1"><g transform="translate(229.957304, 43.121504)"><g><path d="M 9.25 0 C 8.09375 0 7.269531 -0.03125 6.78125 -0.09375 C 6.300781 -0.15625 5.847656 -0.257812 5.421875 -0.40625 C 3.804688 -1.070312 2.847656 -2.285156 2.546875 -4.046875 C 2.515625 -4.203125 2.484375 -4.347656 2.453125 -4.484375 C 2.421875 -4.617188 2.398438 -4.789062 2.390625 -5 C 2.378906 -5.21875 2.375 -5.484375 2.375 -5.796875 C 2.375 -6.117188 2.375 -6.539062 2.375 -7.0625 L 2.375 -23.546875 C 2.375 -24.179688 2.378906 -24.691406 2.390625 -25.078125 C 2.398438 -25.472656 2.421875 -25.800781 2.453125 -26.0625 C 2.484375 -26.320312 2.53125 -26.539062 2.59375 -26.71875 C 2.65625 -26.90625 2.734375 -27.117188 2.828125 -27.359375 C 3.035156 -27.941406 3.359375 -28.441406 3.796875 -28.859375 C 4.242188 -29.285156 4.722656 -29.625 5.234375 -29.875 C 5.503906 -29.988281 5.742188 -30.078125 5.953125 -30.140625 C 6.171875 -30.203125 6.421875 -30.25 6.703125 -30.28125 C 6.992188 -30.3125 7.359375 -30.332031 7.796875 -30.34375 C 8.242188 -30.363281 8.832031 -30.375 9.5625 -30.375 L 15.578125 -30.375 C 16.304688 -30.375 16.878906 -30.375 17.296875 -30.375 C 17.722656 -30.375 18.054688 -30.359375 18.296875 -30.328125 C 18.546875 -30.296875 18.742188 -30.265625 18.890625 -30.234375 C 19.046875 -30.203125 19.210938 -30.171875 19.390625 -30.140625 C 20.453125 -29.867188 21.296875 -29.335938 21.921875 -28.546875 C 22.546875 -27.753906 22.859375 -26.828125 22.859375 -25.765625 C 22.859375 -25.035156 22.710938 -24.34375 22.421875 -23.6875 C 22.128906 -23.039062 21.726562 -22.503906 21.21875 -22.078125 C 20.757812 -21.679688 20.238281 -21.398438 19.65625 -21.234375 C 19.082031 -21.066406 18.328125 -20.984375 17.390625 -20.984375 L 12.390625 -20.984375 L 12.390625 -18.890625 L 16.34375 -18.890625 C 17.59375 -18.890625 18.578125 -18.554688 19.296875 -17.890625 C 20.023438 -17.222656 20.390625 -16.359375 20.390625 -15.296875 C 20.390625 -14.109375 19.953125 -13.15625 19.078125 -12.4375 C 18.679688 -12.125 18.265625 -11.914062 17.828125 -11.8125 C 17.390625 -11.707031 16.773438 -11.65625 15.984375 -11.65625 L 12.390625 -11.65625 L 12.390625 -9.375 L 16.984375 -9.375 C 18.078125 -9.375 18.914062 -9.289062 19.5 -9.125 C 20.09375 -8.957031 20.648438 -8.660156 21.171875 -8.234375 C 22.265625 -7.296875 22.8125 -6.113281 22.8125 -4.6875 C 22.8125 -3.988281 22.664062 -3.3125 22.375 -2.65625 C 22.09375 -2.007812 21.691406 -1.472656 21.171875 -1.046875 C 20.929688 -0.835938 20.679688 -0.660156 20.421875 -0.515625 C 20.160156 -0.378906 19.878906 -0.273438 19.578125 -0.203125 C 19.273438 -0.128906 18.914062 -0.078125 18.5 -0.046875 C 18.09375 -0.015625 17.601562 0 17.03125 0 Z M 9.25 0 "/></g></g></g><g fill="#387dbd" fill-opacity="1"><g transform="translate(251.626393, 43.121504)"><g/></g></g></g></g></g><g clip-path="url(#4fa4b2d250)"><g transform="matrix(1, 0, 0, 1, 1, 0)"><g clip-path="url(#273e306e6b)"><g clip-path="url(#5c6bb9d899)"><g fill="#387dbd" fill-opacity="1"><g transform="translate(0.925339, 43.343558)"><g><path d="M 7.96875 0 C 6.875 0 6.023438 -0.0976562 5.421875 -0.296875 C 4.816406 -0.492188 4.238281 -0.894531 3.6875 -1.5 C 3.382812 -1.832031 3.125 -2.203125 2.90625 -2.609375 C 2.695312 -3.023438 2.546875 -3.445312 2.453125 -3.875 C 2.429688 -4.050781 2.410156 -4.300781 2.390625 -4.625 C 2.378906 -4.945312 2.375 -5.59375 2.375 -6.5625 L 2.375 -25.234375 C 2.40625 -26.753906 2.894531 -27.992188 3.84375 -28.953125 C 4.800781 -29.910156 6.023438 -30.390625 7.515625 -30.390625 L 11.796875 -30.390625 C 12.617188 -30.390625 13.3125 -30.378906 13.875 -30.359375 C 14.4375 -30.347656 14.921875 -30.328125 15.328125 -30.296875 C 15.742188 -30.265625 16.109375 -30.222656 16.421875 -30.171875 C 16.742188 -30.128906 17.054688 -30.082031 17.359375 -30.03125 C 19.453125 -29.507812 21.144531 -28.421875 22.4375 -26.765625 C 23.726562 -25.109375 24.375 -23.15625 24.375 -20.90625 C 24.375 -20.03125 24.273438 -19.269531 24.078125 -18.625 C 23.878906 -17.988281 23.507812 -17.203125 22.96875 -16.265625 C 24.175781 -15.109375 25.03125 -13.972656 25.53125 -12.859375 C 26.039062 -11.753906 26.296875 -10.472656 26.296875 -9.015625 C 26.296875 -6.347656 25.273438 -4.085938 23.234375 -2.234375 C 22.753906 -1.773438 22.285156 -1.398438 21.828125 -1.109375 C 21.367188 -0.828125 20.863281 -0.601562 20.3125 -0.4375 C 19.769531 -0.269531 19.148438 -0.15625 18.453125 -0.09375 C 17.753906 -0.03125 16.921875 0 15.953125 0 Z M 13.53125 -18.640625 C 14.226562 -18.640625 14.710938 -18.722656 14.984375 -18.890625 C 15.265625 -19.054688 15.40625 -19.351562 15.40625 -19.78125 C 15.40625 -20.195312 15.25 -20.492188 14.9375 -20.671875 C 14.632812 -20.859375 14.132812 -20.953125 13.4375 -20.953125 L 12.34375 -20.953125 L 12.34375 -18.640625 Z M 12.34375 -9.34375 L 14.03125 -9.34375 C 14.914062 -9.34375 15.5 -9.425781 15.78125 -9.59375 C 16.070312 -9.757812 16.21875 -10.070312 16.21875 -10.53125 C 16.21875 -10.976562 16.039062 -11.300781 15.6875 -11.5 C 15.34375 -11.695312 14.773438 -11.796875 13.984375 -11.796875 L 12.34375 -11.796875 Z M 12.34375 -9.34375 "/></g></g></g></g></g></g></g><path fill="#ffffff" d="M 95.449219 30.285156 C 95.476562 30.28125 95.507812 30.277344 95.539062 30.277344 C 95.878906 30.230469 96.179688 30.066406 96.410156 29.8125 C 96.59375 29.609375 96.714844 29.363281 96.785156 29.078125 C 96.847656 28.851562 96.855469 28.601562 96.820312 28.351562 C 96.761719 27.855469 96.570312 27.390625 96.238281 26.976562 C 96.132812 26.847656 96.011719 26.714844 95.875 26.601562 C 95.574219 26.34375 95.261719 26.199219 94.929688 26.117188 C 94.707031 26.074219 94.5 26.058594 94.285156 26.09375 C 93.945312 26.152344 93.660156 26.300781 93.429688 26.554688 C 93.246094 26.757812 93.109375 27.035156 93.058594 27.335938 C 93.023438 27.496094 93.007812 27.652344 93.019531 27.808594 L 93.023438 27.855469 C 93.027344 27.902344 93.03125 27.949219 93.035156 27.996094 L 93.039062 28.042969 C 93.082031 28.398438 93.203125 28.730469 93.386719 29.046875 C 93.53125 29.285156 93.707031 29.503906 93.910156 29.691406 C 94.199219 29.949219 94.511719 30.125 94.84375 30.207031 C 95.054688 30.285156 95.261719 30.296875 95.449219 30.285156 " fill-opacity="1" fill-rule="nonzero"/><g clip-path="url(#591d9f2f0c)"><path fill="#ffffff" d="M 95.964844 25.515625 C 96.058594 25.890625 96.214844 26.21875 96.417969 26.496094 C 96.621094 26.777344 96.839844 26.980469 97.101562 27.136719 C 97.320312 27.277344 97.554688 27.355469 97.804688 27.371094 L 97.929688 27.371094 C 98.179688 27.371094 98.414062 27.308594 98.617188 27.167969 C 98.820312 27.058594 99.007812 26.886719 99.160156 26.683594 C 99.378906 26.402344 99.519531 26.0625 99.582031 25.65625 C 99.597656 25.484375 99.613281 25.3125 99.613281 25.125 C 99.613281 24.984375 99.597656 24.84375 99.582031 24.703125 C 99.550781 24.453125 99.488281 24.222656 99.394531 23.988281 C 99.238281 23.597656 99.023438 23.269531 98.742188 23.019531 C 98.539062 22.832031 98.320312 22.691406 98.085938 22.613281 C 97.789062 22.503906 97.492188 22.488281 97.195312 22.566406 C 96.917969 22.628906 96.667969 22.785156 96.449219 23.019531 C 96.261719 23.222656 96.136719 23.441406 96.027344 23.707031 C 95.917969 24.019531 95.855469 24.34375 95.855469 24.71875 C 95.855469 24.78125 95.871094 24.84375 95.871094 24.9375 C 95.886719 25.125 95.917969 25.328125 95.964844 25.515625 " fill-opacity="1" fill-rule="nonzero"/></g><g clip-path="url(#18dc8a3955)"><path fill="#ffffff" d="M 100.394531 26.25 C 100.503906 26.558594 100.660156 26.808594 100.878906 27.011719 C 101.15625 27.277344 101.484375 27.433594 101.859375 27.449219 L 101.953125 27.449219 C 102.140625 27.449219 102.3125 27.402344 102.5 27.402344 C 102.765625 27.292969 103 27.136719 103.230469 26.917969 C 103.464844 26.683594 103.652344 26.417969 103.792969 26.125 C 103.996094 25.703125 104.105469 25.265625 104.121094 24.796875 C 104.121094 24.53125 104.105469 24.265625 104.042969 24.035156 C 103.964844 23.707031 103.855469 23.441406 103.683594 23.207031 C 103.402344 22.816406 103.03125 22.597656 102.59375 22.535156 C 102.578125 22.535156 102.578125 22.535156 102.5625 22.535156 L 102.203125 22.535156 C 102 22.566406 101.78125 22.628906 101.59375 22.738281 C 101.34375 22.878906 101.113281 23.082031 100.910156 23.332031 C 100.691406 23.597656 100.535156 23.910156 100.410156 24.25 C 100.300781 24.5625 100.253906 24.890625 100.238281 25.21875 C 100.238281 25.359375 100.238281 25.5 100.253906 25.640625 C 100.285156 25.859375 100.332031 26.0625 100.394531 26.25 " fill-opacity="1" fill-rule="nonzero"/></g><g clip-path="url(#b62b732b74)"><path fill="#ffffff" d="M 104.320312 31.519531 C 104.121094 31.222656 103.871094 30.941406 103.574219 30.691406 C 103.371094 30.503906 103.167969 30.300781 102.996094 30.085938 C 102.808594 29.851562 102.636719 29.601562 102.496094 29.382812 L 102.386719 29.210938 C 102.28125 29.039062 102.171875 28.882812 102.0625 28.710938 C 101.890625 28.460938 101.734375 28.261719 101.5625 28.105469 C 101.265625 27.824219 100.921875 27.636719 100.53125 27.542969 C 100.285156 27.480469 100.019531 27.464844 99.769531 27.464844 C 99.535156 27.464844 99.300781 27.511719 99.082031 27.605469 C 98.816406 27.714844 98.582031 27.886719 98.332031 28.121094 C 98.195312 28.261719 98.039062 28.429688 97.882812 28.632812 C 97.726562 28.835938 97.585938 29.039062 97.445312 29.242188 L 97.367188 29.367188 C 97.179688 29.617188 96.992188 29.898438 96.773438 30.148438 C 96.585938 30.363281 96.414062 30.535156 96.246094 30.691406 C 96.027344 30.878906 95.808594 31.097656 95.636719 31.332031 C 95.386719 31.660156 95.199219 32.019531 95.074219 32.375 C 94.996094 32.625 94.949219 32.875 94.933594 33.125 C 94.917969 33.34375 94.933594 33.578125 94.980469 33.78125 C 95.105469 34.355469 95.402344 34.824219 95.886719 35.167969 C 96.167969 35.371094 96.476562 35.496094 96.835938 35.527344 C 96.882812 35.542969 96.914062 35.542969 96.960938 35.542969 L 97.195312 35.542969 C 97.335938 35.542969 97.476562 35.527344 97.585938 35.511719 C 97.898438 35.449219 98.210938 35.371094 98.488281 35.292969 L 98.503906 35.292969 C 98.769531 35.230469 99.035156 35.152344 99.300781 35.105469 C 99.410156 35.089844 99.550781 35.058594 99.691406 35.058594 C 99.878906 35.058594 100.050781 35.058594 100.207031 35.074219 C 100.421875 35.105469 100.671875 35.152344 100.9375 35.214844 C 101.0625 35.246094 101.203125 35.292969 101.328125 35.324219 C 101.5 35.371094 101.6875 35.417969 101.875 35.464844 C 102.0625 35.511719 102.265625 35.558594 102.480469 35.558594 L 102.855469 35.558594 C 102.886719 35.558594 102.902344 35.542969 102.933594 35.496094 C 103.027344 35.496094 103.136719 35.480469 103.230469 35.449219 C 103.480469 35.386719 103.730469 35.277344 103.964844 35.105469 C 104.277344 34.886719 104.523438 34.605469 104.679688 34.277344 C 104.851562 33.921875 104.929688 33.546875 104.914062 33.125 C 104.898438 32.890625 104.851562 32.625 104.757812 32.375 C 104.664062 32.082031 104.523438 31.800781 104.320312 31.519531 " fill-opacity="1" fill-rule="nonzero"/></g><g clip-path="url(#3ef25bc563)"><path fill="#ffffff" d="M 107.050781 27.335938 C 106.996094 27.035156 106.863281 26.757812 106.675781 26.554688 C 106.445312 26.300781 106.164062 26.152344 105.824219 26.09375 C 105.605469 26.058594 105.402344 26.074219 105.179688 26.117188 C 104.84375 26.199219 104.535156 26.34375 104.230469 26.601562 C 104.097656 26.714844 103.976562 26.847656 103.871094 26.976562 C 103.539062 27.390625 103.34375 27.855469 103.285156 28.351562 C 103.25 28.601562 103.261719 28.851562 103.320312 29.078125 C 103.390625 29.363281 103.511719 29.609375 103.699219 29.8125 C 103.929688 30.066406 104.226562 30.230469 104.566406 30.277344 C 104.597656 30.277344 104.628906 30.28125 104.660156 30.285156 C 104.847656 30.296875 105.050781 30.285156 105.261719 30.207031 C 105.597656 30.125 105.910156 29.949219 106.195312 29.691406 C 106.398438 29.503906 106.574219 29.285156 106.71875 29.046875 C 106.902344 28.730469 107.023438 28.398438 107.070312 28.042969 L 107.074219 27.996094 C 107.078125 27.949219 107.082031 27.902344 107.085938 27.855469 L 107.089844 27.808594 C 107.101562 27.652344 107.082031 27.496094 107.050781 27.335938 " fill-opacity="1" fill-rule="nonzero"/></g><g clip-path="url(#3f73007f69)"><path fill="#ffffff" d="M 5.710938 56.042969 C 6.949219 53.402344 7.472656 53.011719 9.484375 51.242188 L 9.703125 45.265625 L 11.1875 58.253906 C 9.746094 57.605469 10.226562 57.269531 9.105469 56.011719 Z M 19.394531 21.023438 C 19.519531 21.023438 19.628906 21.070312 19.714844 21.15625 C 19.804688 21.246094 19.847656 21.355469 19.847656 21.480469 C 19.847656 21.605469 19.804688 21.710938 19.714844 21.800781 C 19.628906 21.886719 19.519531 21.933594 19.394531 21.933594 C 19.269531 21.933594 19.164062 21.886719 19.074219 21.800781 C 18.984375 21.710938 18.941406 21.605469 18.941406 21.480469 C 18.941406 21.355469 18.984375 21.246094 19.074219 21.15625 C 19.164062 21.070312 19.269531 21.023438 19.394531 21.023438 Z M -9.351562 55.90625 C -14.1875 54.789062 -15.320312 51.171875 -15.199219 45.738281 C -17.878906 47.605469 -18.289062 55.785156 -11.21875 58.710938 C -23.582031 59.855469 -33.019531 61.65625 -42.273438 65.4375 C -11.21875 58.707031 19.601562 58.117188 49 65.4375 C 42.429688 62.011719 27.738281 58.722656 16.746094 58.644531 C 15.136719 56.351562 14.175781 56.730469 14.34375 52.269531 C 14.832031 39.117188 23.226562 44.550781 18.257812 32.871094 C 17.5 31.085938 16.152344 30.898438 12.839844 29.085938 C 15.382812 29.867188 15.5625 30.316406 18.664062 30.617188 C 19.234375 27.367188 17.90625 30.34375 22.65625 29.238281 C 24.894531 28.714844 25.996094 27.039062 26.414062 24.386719 C 25.070312 23.328125 24.652344 23.390625 23.089844 22.503906 C 20.355469 20.953125 19.679688 15.683594 13.605469 18.4375 C 11.015625 19.613281 10.929688 21.945312 9.886719 24.773438 C 8.683594 28.035156 7.929688 29.054688 5.5 30.976562 C 3.453125 32.597656 2.707031 33.964844 0.332031 35.875 L -4.960938 40.613281 C -9.734375 44.691406 -10.597656 48.046875 -9.351562 55.902344 Z M -9.351562 55.90625 " fill-opacity="1" fill-rule="evenodd"/></g></g></g></g></svg>