<svg xmlns="http://www.w3.org/2000/svg" xmlns:xlink="http://www.w3.org/1999/xlink" width="378" zoomAndPan="magnify" viewBox="0 0 282.96 120.96" height="151" preserveAspectRatio="xMidYMid meet" version="1.0"><defs><clipPath id="df4d2297cf"><path d="M 0.0273438 19 L 282.894531 19 L 282.894531 92 L 0.0273438 92 Z M 0.0273438 19 " clip-rule="nonzero"/></clipPath><clipPath id="720aa32e3b"><path d="M 0.0273438 15.425781 L 282.894531 15.425781 L 282.894531 97.898438 L 0.0273438 97.898438 Z M 0.0273438 15.425781 " clip-rule="nonzero"/></clipPath></defs><g clip-path="url(#df4d2297cf)"><path fill="#fcbc5a" d="M 0.101562 24.460938 C 0.101562 24.460938 -5.113281 19.953125 75.746094 19.953125 C 156.605469 19.953125 282.234375 24.460938 282.234375 24.460938 L 282.234375 87.472656 C 282.234375 87.472656 256.058594 91.980469 214.769531 91.980469 C 173.476562 91.980469 0.101562 87.472656 0.101562 87.472656 Z M 0.101562 24.460938 " fill-opacity="1" fill-rule="nonzero"/></g><g clip-path="url(#720aa32e3b)"><path stroke-linecap="butt" transform="matrix(1.195794, 0, 0, 1.195257, 0.0283051, 15.423982)" fill="none" stroke-linejoin="miter" d="M 1.03146 4.308895 L 1.03146 4.279482 C 1.449592 4.060518 2.720322 3.609517 6.091513 3.119298 C 13.320626 2.070229 29.12145 0.988479 63.25149 0.988479 C 97.348863 0.988479 140.919544 2.070229 175.980582 3.138906 C 193.509467 3.681415 208.898692 4.220656 219.910595 4.619367 C 225.40838 4.818723 229.821635 4.988666 232.859626 5.109586 C 234.169556 5.158608 235.22142 5.201094 235.989085 5.230507 L 235.989085 63.929318 C 235.33902 64.040434 234.421089 64.200573 233.238559 64.380319 C 230.661166 64.779031 226.839176 65.308467 221.93919 65.850976 C 212.139216 66.919653 197.991322 67.991599 180.671502 67.991599 C 163.348416 67.991599 117.990874 66.909849 77.010652 65.831367 C 56.528708 65.288859 37.131295 64.749618 22.859267 64.350906 C 15.72162 64.151551 9.871036 63.981608 5.80078 63.860687 C 3.759119 63.798593 2.171523 63.749571 1.09026 63.720158 L 1.018393 63.720158 L 1.018393 4.308895 Z M 1.03146 4.308895 " stroke="#363737" stroke-width="2" stroke-opacity="1" stroke-miterlimit="4"/></g></svg>