<svg xmlns="http://www.w3.org/2000/svg" xmlns:xlink="http://www.w3.org/1999/xlink" width="378" zoomAndPan="magnify" viewBox="0 0 282.96 120.96" height="151" preserveAspectRatio="xMidYMid meet" version="1.0"><defs><clipPath id="83deaaddae"><path d="M 0.0273438 19 L 282.894531 19 L 282.894531 92 L 0.0273438 92 Z M 0.0273438 19 " clip-rule="nonzero"/></clipPath><clipPath id="75f6cddf9a"><path d="M 0.0273438 15.425781 L 282.894531 15.425781 L 282.894531 97.898438 L 0.0273438 97.898438 Z M 0.0273438 15.425781 " clip-rule="nonzero"/></clipPath></defs><g clip-path="url(#83deaaddae)"><path fill="#007c6d" d="M 0.101562 24.460938 C 0.101562 24.460938 -5.113281 19.957031 75.734375 19.957031 C 156.578125 19.957031 282.1875 24.460938 282.1875 24.460938 L 282.1875 87.496094 C 282.1875 87.496094 256.015625 92 214.734375 92 C 173.449219 92 0.101562 87.496094 0.101562 87.496094 Z M 0.101562 24.460938 " fill-opacity="1" fill-rule="nonzero"/></g><g clip-path="url(#75f6cddf9a)"><path stroke-linecap="butt" transform="matrix(1.195596, 0, 0, 1.195596, 0.0283049, 15.423982)" fill="none" stroke-linejoin="miter" d="M 1.031631 4.310939 L 1.031631 4.281534 C 1.449832 4.059365 2.720772 3.608491 6.089253 3.118412 C 13.319562 2.069641 29.11973 0.991466 63.248879 0.991466 C 97.348622 0.991466 140.919973 2.069641 175.980273 3.141282 C 193.508789 3.68037 208.900558 4.219457 219.911015 4.621323 C 225.409708 4.820622 229.820426 4.990516 232.858919 5.111402 C 234.169066 5.16041 235.221104 5.199617 235.988895 5.229021 L 235.988895 63.930765 C 235.338723 64.038582 234.42064 64.198675 233.241182 64.378371 C 230.660095 64.780236 226.840741 65.309522 221.939944 65.84861 C 212.141618 66.920251 197.991384 67.988625 180.668701 67.988625 C 163.349286 67.988625 117.990778 66.910449 77.010316 65.829007 C 56.53152 65.289919 37.130899 64.750831 22.859779 64.348966 C 15.720952 64.149667 9.869401 63.979773 5.798472 63.858886 C 3.759741 63.800077 2.168615 63.751069 1.09044 63.718397 L 1.018562 63.718397 L 1.018562 4.310939 Z M 1.031631 4.310939 " stroke="#363737" stroke-width="2" stroke-opacity="1" stroke-miterlimit="4"/></g></svg>