<svg xmlns="http://www.w3.org/2000/svg" xmlns:xlink="http://www.w3.org/1999/xlink" width="378" zoomAndPan="magnify" viewBox="0 0 282.96 120.96" height="151" preserveAspectRatio="xMidYMid meet" version="1.0"><defs><clipPath id="6b65f9ca52"><path d="M 0.0273438 19 L 282.894531 19 L 282.894531 92 L 0.0273438 92 Z M 0.0273438 19 " clip-rule="nonzero"/></clipPath><clipPath id="2a9b35e58f"><path d="M 0.0273438 15.425781 L 282.894531 15.425781 L 282.894531 97.898438 L 0.0273438 97.898438 Z M 0.0273438 15.425781 " clip-rule="nonzero"/></clipPath></defs><g clip-path="url(#6b65f9ca52)"><path fill="#f1e6d6" d="M 0.101562 24.460938 C 0.101562 24.460938 -5.113281 19.957031 75.734375 19.957031 C 156.578125 19.957031 282.1875 24.460938 282.1875 24.460938 L 282.1875 87.496094 C 282.1875 87.496094 256.015625 92 214.734375 92 C 173.449219 92 0.101562 87.496094 0.101562 87.496094 Z M 0.101562 24.460938 " fill-opacity="1" fill-rule="nonzero"/></g><g clip-path="url(#2a9b35e58f)"><path stroke-linecap="butt" transform="matrix(1.195596, 0, 0, 1.195596, 0.0283049, 15.423984)" fill="none" stroke-linejoin="miter" d="M 1.031631 4.310937 L 1.031631 4.281533 C 1.449832 4.059363 2.720772 3.60849 6.089253 3.11841 C 13.319562 2.06964 29.11973 0.991465 63.248879 0.991465 C 97.348622 0.991465 140.919973 2.06964 175.980273 3.141281 C 193.508789 3.680368 208.900558 4.219456 219.911015 4.621321 C 225.409708 4.82062 229.820426 4.990515 232.858919 5.111401 C 234.169066 5.160409 235.221104 5.199615 235.988895 5.22902 L 235.988895 63.930763 C 235.338723 64.038581 234.42064 64.198674 233.241182 64.37837 C 230.660095 64.780235 226.840741 65.309521 221.939944 65.848609 C 212.141618 66.920249 197.991384 67.988623 180.668701 67.988623 C 163.349286 67.988623 117.990778 66.910448 77.010316 65.829005 C 56.53152 65.289918 37.130899 64.75083 22.859779 64.348965 C 15.720952 64.149666 9.869401 63.979771 5.798472 63.858885 C 3.759741 63.800075 2.168615 63.751068 1.09044 63.718396 L 1.018562 63.718396 L 1.018562 4.310937 Z M 1.031631 4.310937 " stroke="#363737" stroke-width="2" stroke-opacity="1" stroke-miterlimit="4"/></g></svg>