<svg xmlns="http://www.w3.org/2000/svg" xmlns:xlink="http://www.w3.org/1999/xlink" width="378" zoomAndPan="magnify" viewBox="0 0 282.96 120.96" height="151" preserveAspectRatio="xMidYMid meet" version="1.0"><defs><clipPath id="9612926b1d"><path d="M 2 6 L 278 6 L 278 107 L 2 107 Z M 2 6 " clip-rule="nonzero"/></clipPath><clipPath id="0dfdacfd57"><path d="M 281.941406 18.390625 L 6.703125 0 L 0.0351562 100.066406 L 275.273438 118.457031 Z M 281.941406 18.390625 " clip-rule="nonzero"/></clipPath></defs><g clip-path="url(#9612926b1d)"><g clip-path="url(#0dfdacfd57)"><path fill="#fffaf4" d="M 63.421875 103.660156 C 51.785156 103.609375 39.9375 103.515625 28.863281 99.925781 C 17.789062 96.332031 7.425781 88.605469 3.617188 77.5625 C -0.566406 65.4375 4.660156 50.722656 15.558594 43.996094 C 26.449219 37.269531 41.886719 39.234375 50.765625 48.464844 C 54.039062 29.90625 68.378906 13.761719 86.371094 8.390625 C 104.359375 3.023438 125.152344 8.65625 137.984375 22.398438 C 142.515625 27.242188 146.980469 33.457031 153.585938 33.8125 C 159.101562 34.109375 163.769531 30.113281 168.273438 26.910156 C 180.164062 18.4375 195.78125 14.265625 209.652344 18.746094 C 223.523438 23.226562 234.378906 37.714844 232.101562 52.175781 C 249.09375 41.789062 274.890625 54.246094 277.414062 74.054688 C 283.007812 117.984375 222.546875 104.40625 198.941406 104.292969 C 153.765625 104.082031 108.589844 103.871094 63.421875 103.660156 Z M 63.421875 103.660156 " fill-opacity="1" fill-rule="nonzero"/></g></g></svg>