<svg xmlns="http://www.w3.org/2000/svg" xmlns:xlink="http://www.w3.org/1999/xlink" width="2000" zoomAndPan="magnify" viewBox="0 0 1500 1499.999933" height="2000" preserveAspectRatio="xMidYMid meet" version="1.0"><defs><filter x="0%" y="0%" width="100%" height="100%" id="3648604979"><feColorMatrix values="0 0 0 0 1 0 0 0 0 1 0 0 0 0 1 0 0 0 1 0" color-interpolation-filters="sRGB"/></filter><mask id="a3d03fb8fe"><g filter="url(#3648604979)"><rect x="-150" width="1800" fill="#000000" y="-149.999993" height="1799.99992" fill-opacity="0.79"/></g></mask><clipPath id="f4666e3d2c"><path d="M 10 29 L 1272 29 L 1272 488 L 10 488 Z M 10 29 " clip-rule="nonzero"/></clipPath><clipPath id="61a44e6272"><path d="M 1290.851562 84.851562 L 30.757812 0.734375 L 0.238281 458.417969 L 1260.332031 542.535156 Z M 1290.851562 84.851562 " clip-rule="nonzero"/></clipPath><clipPath id="9cdc97947e"><rect x="0" width="1299" y="0" height="546"/></clipPath></defs><g mask="url(#a3d03fb8fe)"><g transform="matrix(1, 0, 0, 1, 101, 420)"><g clip-path="url(#9cdc97947e)"><g clip-path="url(#f4666e3d2c)"><g clip-path="url(#61a44e6272)"><path fill="#fffaf4" d="M 290.4375 474.859375 C 237.148438 474.621094 182.910156 474.195312 132.210938 457.78125 C 81.511719 441.332031 34.070312 406.007812 16.636719 355.496094 C -2.523438 300.027344 21.414062 232.730469 71.304688 201.96875 C 121.160156 171.203125 191.839844 180.179688 232.488281 222.40625 C 247.472656 137.511719 313.128906 63.675781 395.496094 39.113281 C 477.859375 14.550781 573.039062 40.324219 631.800781 103.171875 C 652.535156 125.328125 672.984375 153.757812 703.226562 155.386719 C 728.46875 156.75 749.847656 138.46875 770.46875 123.816406 C 824.90625 85.066406 896.398438 65.972656 959.90625 86.46875 C 1023.417969 106.960938 1073.109375 173.242188 1062.6875 239.375 C 1140.476562 191.863281 1258.582031 248.839844 1270.128906 339.4375 C 1295.734375 540.382812 1018.945312 478.265625 910.863281 477.761719 C 704.042969 476.792969 497.222656 475.824219 290.4375 474.859375 Z M 290.4375 474.859375 " fill-opacity="1" fill-rule="nonzero"/></g></g></g></g></g></svg>