<svg xmlns="http://www.w3.org/2000/svg" xmlns:xlink="http://www.w3.org/1999/xlink" width="2000" zoomAndPan="magnify" viewBox="0 0 1500 1499.999933" height="2000" preserveAspectRatio="xMidYMid meet" version="1.0"><path fill="#fffaf4" d="M 1606.917969 735.445312 C 1721.480469 924.332031 1742.257812 1165.628906 1500.5625 1276.871094 C 1258.871094 1388.113281 1160.496094 1412.355469 949.601562 1307.265625 C 738.714844 1202.179688 985.457031 936.910156 1166.96875 779.003906 C 1348.480469 621.101562 1492.359375 546.554688 1606.917969 735.445312 Z M 1606.917969 735.445312 " fill-opacity="1" fill-rule="nonzero"/><path fill="#007c6d" d="M 1871.914062 567.203125 C 1855.78125 548.902344 1846.828125 531.917969 1840.65625 509.0625 C 1832.800781 496.402344 1809.339844 488.917969 1790.445312 472.445312 C 1775.746094 459.625 1768.894531 440.734375 1751.761719 430.179688 C 1739.113281 422.394531 1718.851562 414.328125 1710.320312 401.644531 C 1690.59375 372.328125 1647.730469 361.761719 1623.0625 337.519531 C 1597.898438 312.789062 1560.363281 301.15625 1528.210938 286.820312 C 1507.957031 277.792969 1489.691406 268.800781 1470.722656 257.121094 C 1460.652344 250.917969 1450.613281 251.089844 1439.078125 249.703125 C 1405.871094 245.714844 1371.496094 236.097656 1338.734375 229.152344 C 1314.585938 224.035156 1290.960938 216.1875 1267.832031 207.625 C 1242.945312 198.410156 1214.707031 193.976562 1191.449219 181.375 C 1146.5625 157.058594 1097.625 145.609375 1053.613281 120.976562 C 1028.792969 107.082031 964.335938 107.5625 939.480469 120.097656 C 907.871094 136.042969 863.855469 137.816406 829.003906 141.589844 C 785.84375 146.265625 692.339844 113.910156 662.117188 158.859375 C 654.171875 170.675781 633.441406 171.636719 622.546875 184.453125 C 603.320312 207.070312 591.078125 222.40625 617.128906 238.445312 C 648.441406 257.730469 682.675781 271.910156 700.117188 302.964844 C 705.339844 312.261719 720.292969 324.96875 717.933594 333.382812 C 716.085938 339.960938 733.140625 364.441406 736.644531 371.058594 C 743.171875 383.378906 745.386719 400.523438 750.304688 413.667969 C 758.132812 434.617188 780.113281 448.023438 787.117188 469.867188 C 795.128906 494.871094 820.824219 510.6875 844.414062 516.214844 C 904.144531 530.214844 963.949219 543.953125 1022.988281 559.457031 C 1077.109375 573.667969 1136.363281 589.066406 1193.210938 584.144531 C 1229.703125 580.984375 1261.535156 579.6875 1297.101562 568.992188 C 1320.691406 561.894531 1350 559.804688 1372.054688 549.09375 C 1387.253906 541.710938 1400.058594 530.78125 1416.320312 524.042969 C 1443.433594 512.8125 1511.898438 475.605469 1539.839844 492.8125 C 1555.894531 502.699219 1539.9375 521.953125 1526.636719 528.941406 C 1495.773438 545.160156 1453.710938 542.289062 1431.492188 575.632812 C 1411.492188 605.65625 1403.367188 640.90625 1384.253906 671.945312 C 1365.328125 702.675781 1339 733.945312 1334.242188 770.570312 C 1329.109375 810.09375 1311.199219 850.359375 1310.335938 889.96875 C 1310.035156 903.734375 1302.894531 918.078125 1298.503906 930.964844 C 1292.871094 947.492188 1296.402344 965.777344 1289.398438 981.6875 C 1272.359375 1020.363281 1253.058594 1046.511719 1242.527344 1088.28125 C 1236.167969 1113.511719 1222.804688 1136.917969 1215.230469 1162.007812 C 1210.050781 1179.164062 1209.226562 1187.476562 1223.777344 1172.632812 C 1263.707031 1131.902344 1309.945312 1095.613281 1353.867188 1059.945312 C 1401.191406 1021.503906 1477.15625 1015.527344 1515.894531 967.261719 C 1533.328125 945.539062 1560.578125 925.582031 1584.429688 909.882812 C 1610.902344 892.453125 1625.65625 869.097656 1641.425781 842.378906 C 1657.328125 815.425781 1666.09375 783.019531 1687.144531 758.882812 C 1707.167969 735.921875 1726.535156 713.976562 1743.113281 687.054688 C 1758.992188 661.273438 1775.613281 638.574219 1779.722656 608.007812 C 1784.222656 574.59375 1773.679688 675.238281 1773.21875 708.949219 C 1772.757812 742.914062 1768.367188 774.363281 1768.25 808.492188 C 1768.148438 838.101562 1785.929688 864.984375 1789.398438 893.9375 C 1793.375 927.152344 1801.660156 955.660156 1811.628906 987.425781 C 1820.21875 1014.816406 1830.832031 1046.105469 1835.992188 1074.179688 C 1839.984375 1095.929688 1840.042969 1123.265625 1851.304688 1142.960938 C 1863.144531 1163.65625 1859.746094 1197.945312 1862.09375 1222.359375 C 1863.707031 1239.152344 1867.933594 1252.320312 1873.898438 1268.523438 C 1879.496094 1283.726562 1925.457031 1396.011719 1954.09375 1363.171875 C 1975.195312 1338.972656 1979.28125 1301.558594 1978.269531 1271.101562 C 1976.972656 1232.027344 1975.742188 1193.269531 1976.175781 1155.8125 C 1976.574219 1121.214844 1969.136719 1087.664062 1973.34375 1053.144531 C 1975.417969 1036.121094 1967.101562 1022.613281 1974.066406 1007.320312 C 1984.179688 985.128906 1991.964844 950.292969 1988.328125 925.90625 C 1984.433594 899.75 1998.136719 870.160156 1993.386719 844.191406 C 1991.183594 832.136719 1994.40625 818.753906 1995.042969 806.652344 C 1995.476562 798.445312 1986.875 791.488281 1983.695312 784.242188 C 1964.738281 741.015625 1948.394531 696.5625 1928.109375 653.449219 C 1912.585938 620.449219 1896.648438 595.28125 1871.914062 567.203125 Z M 1871.914062 567.203125 " fill-opacity="1" fill-rule="nonzero"/><path stroke-linecap="round" transform="matrix(3.488549, 0, 0, 3.488407, 150.00002, -183.339818)" fill="none" stroke-linejoin="miter" d="M 430.747431 190.417565 C 432.515492 196.969402 435.083044 201.838208 439.70643 207.0855 C 446.79771 215.133363 451.365109 222.348109 455.816055 231.808016 C 461.630838 244.167035 466.314689 256.910138 471.749882 269.30163 C 472.660226 271.377703 475.125882 273.373152 475.001592 275.725812 C 474.820194 279.193772 473.895294 283.03126 474.526824 286.486903 C 475.888422 293.930085 471.960392 302.413543 473.076767 309.911594 C 474.11924 316.902384 471.888729 326.888588 468.989735 333.250061 C 466.992128 337.632883 469.377163 341.505084 468.781464 346.386208 C 467.57551 356.281709 469.707485 365.899504 469.593272 375.816282 C 469.468982 386.554978 469.822818 397.665441 470.19345 408.865486 C 470.483461 417.597536 469.312219 428.322794 463.264531 435.259835 C 455.053515 444.673831 441.880955 412.484617 440.276375 408.127551 C 438.56542 403.481581 437.353867 399.707921 436.891416 394.893984 C 436.218456 387.896475 437.192625 378.065921 433.798709 372.132203 C 430.570513 366.487389 430.554837 358.651165 429.409348 352.416226 C 427.930178 344.368363 424.888978 335.3978 422.424442 327.545899 C 419.567998 318.440963 417.193041 310.268804 416.053151 300.747309 C 415.059946 292.447495 409.961793 284.741165 409.990906 276.252108 C 410.024498 266.469705 411.2842 257.453232 411.416329 247.717859 C 411.547338 238.053032 414.569502 209.201885 413.279568 218.780488 C 412.100487 227.542772 407.337135 234.050937 402.786532 241.441489 C 398.034378 249.157897 392.481613 255.448824 386.741852 262.030895 C 380.708721 268.950019 378.196036 278.239719 373.636475 285.967325 C 369.116106 293.625505 364.886867 300.321793 357.298424 305.318254 C 350.462443 309.817532 342.651173 315.539611 337.652676 321.766711 C 326.548266 335.6016 304.773902 337.315985 291.207195 348.334626 C 278.618016 358.560462 265.361475 368.963224 253.916665 380.639177 C 249.745653 384.894343 249.981917 382.51145 251.467805 377.592254 C 253.638971 370.401022 257.468464 363.692417 259.292512 356.458634 C 262.311318 344.48482 267.842808 336.989009 272.727091 325.900941 C 274.735895 321.341194 273.722535 316.099501 275.337193 311.36059 C 276.595775 307.667553 278.64377 303.554599 278.72999 299.609612 C 278.977451 288.255037 284.111435 276.713458 285.581647 265.383518 C 286.945484 254.884455 294.492497 245.919491 299.916493 237.109057 C 305.396475 228.21352 307.725523 218.1075 313.458566 209.500867 C 319.826498 199.942419 331.886042 200.765458 340.733067 196.116129 C 344.544644 194.111722 349.119881 188.593443 344.515531 185.758158 C 336.508307 180.826644 316.881595 191.492555 309.109516 194.711924 C 304.448059 196.643546 300.777569 199.776692 296.4218 201.893077 C 290.097538 204.963515 281.697287 205.561478 274.936328 207.59612 C 264.740022 210.663199 255.615303 211.034966 245.15474 211.940868 C 228.859239 213.350672 211.875101 208.937617 196.361175 204.863855 C 179.437502 200.419446 162.294362 196.481177 145.171377 192.467884 C 138.409298 190.883394 131.044802 186.350522 128.747106 179.180567 C 126.740541 172.919874 120.439793 169.075667 118.194725 163.072523 C 116.786099 159.303341 116.150089 154.388624 114.279012 150.855716 C 113.27461 148.958808 108.385848 141.942263 108.915482 140.056552 C 109.592922 137.644545 105.305457 134.001899 103.809492 131.335701 C 98.808756 122.434565 88.9954 118.369761 80.019605 112.842524 C 72.553213 108.243585 76.061342 103.847326 81.573797 97.362677 C 84.696738 93.689797 90.638051 93.414331 92.915591 90.026994 C 101.580099 77.140559 128.382073 86.416822 140.755143 85.076444 C 150.744297 83.994736 163.361469 83.486356 172.423483 78.915411 C 179.548356 75.320915 198.025101 75.184302 205.139896 79.166242 C 217.754829 86.228698 231.782867 89.510775 244.64974 96.48141 C 251.317761 100.093822 259.412324 101.364773 266.545035 104.005216 C 273.174985 106.459775 279.948261 108.710534 286.869342 110.177446 C 296.260558 112.169536 306.114225 114.925316 315.633091 116.068612 C 318.939668 116.466134 321.818506 116.416864 324.704063 118.195075 C 330.141495 121.543219 335.377375 124.119835 341.1832 126.708767 C 350.399738 130.818362 361.15927 134.153069 368.372602 141.2424 C 375.444847 148.191758 387.731697 151.220765 393.385239 159.624718 C 395.83074 163.260646 401.638804 165.572993 405.264506 167.804716 C 410.174543 170.829243 412.138558 176.244502 416.354359 179.920742 C 421.769397 184.642857 426.467805 187.268742 428.719591 190.900191 " stroke="#363737" stroke-width="3" stroke-opacity="1" stroke-miterlimit="4"/><path fill="#fcbc5a" d="M 1201.105469 822.5 C 1187.132812 826.246094 1191.28125 810.316406 1188.800781 800.328125 C 1185.515625 787.121094 1183.464844 773.660156 1180.28125 760.625 C 1174.972656 738.902344 1172.3125 716.648438 1166.90625 694.863281 C 1160.550781 669.265625 1176.050781 645.460938 1170.296875 620.367188 C 1164.410156 594.707031 1167.695312 563.703125 1188.933594 545.554688 C 1200.769531 535.441406 1207.269531 520.230469 1219.109375 509.40625 C 1225.035156 503.984375 1233.238281 499.34375 1238.441406 493.964844 C 1243.929688 488.285156 1247.769531 487.554688 1246.5 478.714844 C 1245.699219 473.132812 1240.46875 462.480469 1246.652344 458.152344 C 1252.425781 454.113281 1261.757812 448.789062 1262.226562 441.007812 C 1263.015625 427.851562 1273.671875 421.386719 1281.019531 411.675781 C 1285.15625 406.214844 1299.300781 403.480469 1305.945312 401.699219 L 1321.789062 397.453125 C 1328.402344 395.679688 1335.871094 406.058594 1340.890625 409.316406 C 1346.003906 412.640625 1353.058594 419.691406 1356.785156 424.632812 C 1362.71875 432.492188 1363.867188 438.984375 1368.558594 447.425781 C 1377.269531 463.117188 1386.429688 479.796875 1391.171875 497.503906 C 1396.957031 519.097656 1398.953125 543.140625 1397.503906 565.148438 C 1396.804688 575.859375 1394.324219 582.738281 1392.226562 592.980469 C 1389.988281 603.917969 1394.527344 615.097656 1389.027344 624.617188 C 1384.578125 632.320312 1386.160156 643.761719 1382.035156 650.902344 C 1376.851562 659.882812 1370.910156 668.675781 1364.597656 676.921875 C 1359.203125 683.964844 1348.011719 695.421875 1340.253906 700.070312 C 1330.636719 705.835938 1328.96875 717.25 1320.976562 723.636719 C 1314.726562 728.628906 1306.386719 740.53125 1304.3125 748.148438 C 1300.335938 762.722656 1288.597656 773.214844 1277.828125 783.546875 C 1266.792969 794.132812 1251.753906 802.65625 1244.5625 816.992188 C 1241.445312 823.210938 1239.242188 829.242188 1228.824219 827.34375 C 1217.394531 825.257812 1210.589844 826.332031 1198.738281 829.503906 C 1196.0625 830.21875 1193.472656 829.589844 1190.960938 828.132812 C 1189.855469 831.324219 1189.054688 836.867188 1189.011719 839.421875 C 1188.953125 843.03125 1188.074219 850.558594 1186 854.148438 C 1182.78125 859.726562 1174.667969 864.609375 1170.265625 869.804688 C 1165.761719 875.109375 1159.832031 876.015625 1153.292969 877.769531 C 1149.113281 878.890625 1149.714844 882.3125 1146.835938 884.925781 C 1143.550781 887.90625 1138.011719 890.351562 1133.738281 891.5 C 1126.25 893.507812 1118.199219 895.0625 1110.53125 893.351562 C 1099.660156 890.9375 1089.28125 890.457031 1078.234375 890.332031 C 1061.957031 890.152344 1045.652344 882.730469 1029.621094 880.125 C 1007.898438 876.597656 989.371094 879.378906 972.128906 871.117188 C 960.128906 865.371094 950.570312 856.402344 937.824219 852.242188 C 927.394531 848.835938 915.691406 842.628906 906.179688 837.132812 C 897.394531 832.0625 882.136719 830.074219 871.988281 828.371094 C 862.921875 826.851562 867.578125 826.316406 864.777344 820.394531 C 863.886719 818.507812 856.53125 815.042969 854.445312 813.964844 C 850.234375 811.792969 849.402344 809.015625 845.042969 807.050781 C 839.707031 804.640625 832.3125 799.355469 838.613281 792.734375 C 843.671875 787.414062 849.953125 782.730469 855.273438 776.121094 C 862.730469 766.855469 872.136719 760.550781 878.789062 749.894531 C 881.632812 745.332031 888.011719 743.847656 892.398438 740.820312 C 901.554688 734.5 908.507812 722.589844 919.507812 719.640625 L 940.859375 713.921875 C 951.292969 711.121094 959.078125 713.726562 968.9375 712.648438 C 974.542969 712.03125 988.039062 709.359375 992.960938 711.636719 C 1006.910156 718.082031 1025.910156 717.765625 1040.292969 724.542969 C 1069.503906 738.3125 1104.886719 753.40625 1128.640625 775.640625 C 1136.285156 782.796875 1143.542969 788.667969 1151.792969 795.148438 C 1155.113281 797.753906 1159.582031 800.957031 1162.25 804.257812 C 1164.601562 807.160156 1166.675781 804.941406 1169.226562 806.511719 C 1175.769531 810.546875 1182.960938 823.5 1190.960938 828.132812 C 1191.925781 825.367188 1193.113281 824.363281 1194.25 828.585938 Z M 1201.105469 822.5 " fill-opacity="1" fill-rule="nonzero"/><path fill="#fcbc5a" d="M 1103.273438 711.796875 C 1103.667969 712.28125 1103.996094 712.800781 1104.292969 713.332031 C 1108.1875 717.746094 1109.761719 719.609375 1115.789062 717.996094 C 1118.464844 717.28125 1124.84375 720.328125 1126.082031 717.242188 C 1128.785156 710.503906 1132.269531 702.421875 1132.121094 693.574219 C 1132.019531 687.46875 1127.324219 681.902344 1130.5625 676.296875 C 1131.785156 674.175781 1134.226562 666.792969 1135.941406 666.015625 C 1148.929688 660.105469 1152.507812 647.359375 1150.078125 632.503906 C 1147.035156 613.886719 1135.804688 599.332031 1133.703125 580.636719 C 1132.015625 565.636719 1122.777344 546.488281 1111.296875 536.640625 C 1096.804688 524.207031 1079.152344 513.40625 1066.757812 498.925781 C 1057.773438 488.429688 1037.222656 490.078125 1031.523438 474.398438 C 1028.625 466.429688 1014.964844 466.460938 1006.804688 465.335938 C 993.011719 463.4375 997.953125 475.316406 997.824219 483.3125 C 997.722656 489.480469 998.59375 494.542969 1000.214844 500.597656 C 1001.71875 506.214844 999.097656 511.421875 1000.382812 517.0625 C 1002.878906 528.070312 994.675781 540.21875 996.695312 550.835938 C 997.957031 557.484375 997.222656 567.390625 996.589844 574.214844 C 995.453125 586.507812 998.96875 594.753906 1003.09375 605.964844 C 1010.507812 626.117188 1032.9375 648.839844 1049.171875 662.609375 C 1062.386719 673.820312 1069.410156 697.761719 1088.28125 702.488281 C 1092.375 703.515625 1100.761719 708.6875 1103.273438 711.796875 Z M 1103.273438 711.796875 " fill-opacity="1" fill-rule="nonzero"/><path fill="#ca3636" d="M 1138.921875 863.34375 C 1136.019531 861.167969 1133.628906 858.457031 1131.90625 855.097656 C 1128.609375 848.648438 1119.953125 843.699219 1110.859375 838.503906 C 1097.875 831.089844 1084.007812 823.164062 1083.605469 809.644531 C 1083.519531 806.714844 1107.242188 808.355469 1115.691406 808.9375 C 1116.980469 809.027344 1117.910156 809.089844 1118.351562 809.113281 C 1134.050781 809.832031 1145.171875 812.476562 1156.855469 817.839844 C 1156.640625 814.355469 1157.121094 810.898438 1158.46875 807.515625 C 1161.148438 800.789062 1159.171875 791.015625 1157.09375 780.746094 C 1154.125 766.09375 1150.957031 750.4375 1160.863281 741.234375 C 1163.011719 739.238281 1177.402344 758.171875 1182.527344 764.914062 L 1182.527344 764.917969 L 1182.53125 764.917969 C 1183.308594 765.941406 1183.875 766.6875 1184.148438 767.03125 C 1195.332031 781.054688 1200.699219 792.246094 1204.398438 807.125 C 1206.4375 804.128906 1209.03125 801.617188 1212.3125 799.746094 C 1218.605469 796.160156 1223.152344 787.28125 1227.925781 777.960938 C 1234.742188 764.652344 1242.027344 750.4375 1255.515625 749.417969 C 1258.4375 749.199219 1257.882812 772.972656 1257.683594 781.441406 C 1257.65625 782.730469 1257.632812 783.664062 1257.632812 784.101562 C 1257.632812 799.472656 1255.589844 810.550781 1250.988281 822.179688 C 1254.726562 822.0625 1258.390625 822.714844 1261.914062 824.351562 C 1268.484375 827.40625 1278.355469 825.972656 1288.71875 824.46875 C 1303.515625 822.320312 1319.324219 820.027344 1327.960938 830.433594 C 1329.835938 832.691406 1310.132812 846 1303.113281 850.742188 C 1302.042969 851.464844 1301.269531 851.988281 1300.910156 852.242188 C 1286.285156 862.632812 1274.808594 867.363281 1259.746094 870.230469 C 1262.625 872.433594 1264.988281 875.164062 1266.675781 878.542969 C 1269.90625 885.023438 1278.519531 890.058594 1287.554688 895.34375 C 1300.46875 902.894531 1314.253906 910.953125 1314.519531 924.476562 C 1314.578125 927.40625 1290.871094 925.53125 1282.429688 924.859375 C 1281.140625 924.757812 1280.210938 924.6875 1279.769531 924.660156 C 1264.082031 923.785156 1252.984375 921.03125 1241.355469 915.550781 C 1241.535156 919.035156 1241.023438 922.484375 1239.640625 925.859375 C 1236.890625 932.558594 1238.773438 942.351562 1240.746094 952.636719 C 1243.570312 967.320312 1246.582031 983.003906 1236.582031 992.109375 C 1234.410156 994.085938 1220.214844 975.011719 1215.15625 968.214844 C 1214.386719 967.179688 1213.828125 966.433594 1213.558594 966.082031 C 1202.511719 951.949219 1197.257812 940.703125 1193.707031 925.785156 C 1191.640625 928.761719 1189.019531 931.246094 1185.722656 933.085938 C 1179.394531 936.613281 1174.757812 945.441406 1169.890625 954.714844 C 1162.9375 967.957031 1155.515625 982.09375 1142.019531 982.976562 C 1139.09375 983.167969 1139.886719 959.402344 1140.167969 950.9375 L 1140.167969 950.933594 C 1140.210938 949.644531 1140.242188 948.714844 1140.246094 948.273438 C 1140.394531 933.375 1142.425781 922.523438 1146.847656 911.320312 C 1143.566406 911.300781 1140.339844 910.65625 1137.210938 909.238281 C 1130.609375 906.253906 1120.753906 907.78125 1110.40625 909.390625 C 1095.628906 911.683594 1079.847656 914.136719 1071.105469 903.820312 C 1069.210938 901.582031 1088.78125 888.070312 1095.753906 883.257812 L 1095.757812 883.257812 C 1096.8125 882.527344 1097.582031 881.996094 1097.941406 881.738281 C 1112.460938 871.207031 1123.886719 866.355469 1138.921875 863.34375 Z M 1138.921875 863.34375 " fill-opacity="1" fill-rule="evenodd"/></svg>