<svg xmlns="http://www.w3.org/2000/svg" xmlns:xlink="http://www.w3.org/1999/xlink" width="2000" zoomAndPan="magnify" viewBox="0 0 1500 1499.999933" height="2000" preserveAspectRatio="xMidYMid meet" version="1.0"><defs><clipPath id="c1c5265feb"><path d="M 0 0 L 941.25 0 L 941.25 1500 L 0 1500 Z M 0 0 " clip-rule="nonzero"/></clipPath><clipPath id="d319a2237b"><path d="M 0 40 L 887 40 L 887 1439 L 0 1439 Z M 0 40 " clip-rule="nonzero"/></clipPath><clipPath id="859c78dd2b"><path d="M -507.890625 1498.6875 L 940.894531 1175.390625 L 678.582031 0.769531 L -770.203125 324.066406 Z M -507.890625 1498.6875 " clip-rule="nonzero"/></clipPath><clipPath id="695568a0a7"><path d="M 212 94 L 395 94 L 395 355 L 212 355 Z M 212 94 " clip-rule="nonzero"/></clipPath><clipPath id="a46160fdfd"><path d="M -507.890625 1498.6875 L 940.894531 1175.390625 L 678.582031 0.769531 L -770.203125 324.066406 Z M -507.890625 1498.6875 " clip-rule="nonzero"/></clipPath><clipPath id="783cf915ec"><path d="M 0 254 L 233 254 L 233 735 L 0 735 Z M 0 254 " clip-rule="nonzero"/></clipPath><clipPath id="7387cbfc52"><path d="M 0 27 L 492 27 L 492 1159 L 0 1159 Z M 0 27 " clip-rule="nonzero"/></clipPath><clipPath id="919d44b640"><path d="M 0 638 L 217 638 L 217 936 L 0 936 Z M 0 638 " clip-rule="nonzero"/></clipPath><clipPath id="92a825c568"><path d="M 268.234375 701.449219 L -27.289062 628.859375 L -91.835938 891.449219 L 203.6875 964.039062 Z M 268.234375 701.449219 " clip-rule="nonzero"/></clipPath><clipPath id="e6c122b0e9"><path d="M 79 720 L 189 720 L 189 834 L 79 834 Z M 79 720 " clip-rule="nonzero"/></clipPath><clipPath id="ccff2dd3e5"><path d="M 268.234375 701.449219 L -27.289062 628.859375 L -91.835938 891.449219 L 203.6875 964.039062 Z M 268.234375 701.449219 " clip-rule="nonzero"/></clipPath><clipPath id="4da53c5db8"><path d="M 0 537 L 121 537 L 121 724 L 0 724 Z M 0 537 " clip-rule="nonzero"/></clipPath><clipPath id="94ecc0cd72"><rect x="0" width="942" y="0" height="1500"/></clipPath></defs><g clip-path="url(#c1c5265feb)"><g transform="matrix(1, 0, 0, 1, 0, 0.000000000000112861)"><g clip-path="url(#94ecc0cd72)"><g clip-path="url(#d319a2237b)"><g clip-path="url(#859c78dd2b)"><path stroke-linecap="butt" transform="matrix(-2.905092, 0, 0, 2.904007, 940.8984, 0.766039)" fill="none" stroke-linejoin="miter" d="M 436.575778 360.763484 C 442.509593 384.184785 442.243358 410.008477 431.104512 431.44841 C 419.965667 452.893723 396.527567 468.725834 372.485732 466.502344 C 356.098828 464.987734 340.72039 455.052647 332.596186 440.732456 C 320.67477 419.717583 323.932789 391.245341 307.664211 373.387473 C 298.899967 363.765801 285.096081 359.018858 272.268391 361.212755 C 259.4407 363.406653 247.993936 372.476824 242.916645 384.469951 C 240.278497 390.703256 239.282133 397.559353 236.401953 403.682358 C 227.159024 423.349418 202.325207 429.441485 180.645872 430.719352 C 162.938549 431.761824 144.273856 430.935917 128.941136 422.009674 C 113.612449 413.084776 103.027587 393.897926 109.0246 377.194175 C 112.741134 366.84748 121.735308 359.462749 130.335508 352.620103 C 137.451246 346.95444 144.569673 341.291467 151.684066 335.631185 C 153.649903 334.065461 155.688349 332.405578 156.660511 330.089274 C 158.837453 324.922652 154.847961 319.31214 150.757622 315.481226 C 121.711105 288.263986 75.063491 282.288944 52.631168 249.39528 C 49.473996 244.764018 46.854673 239.473645 46.896356 233.867167 C 46.947452 226.813337 51.172253 220.488563 55.807164 215.175323 C 85.898452 180.691722 142.067332 172.81871 180.449557 197.703506 C 189.224558 203.392036 199.225854 210.893793 209.021422 207.22564 C 216.142539 204.555568 220.056732 196.472718 220.156234 188.867386 C 220.255736 181.260709 217.324461 173.976862 214.391841 166.960695 C 207.118783 149.583037 199.446372 132.046654 197.094628 113.350774 C 194.74423 94.65624 198.498413 74.226495 211.521074 60.615184 C 224.912161 46.612443 245.557482 42.176223 264.921378 42.073994 C 286.756689 41.962349 310.60221 47.735621 323.560328 65.325809 C 333.15017 78.34661 335.025917 95.646251 333.217401 111.723174 C 331.41023 127.801442 326.30739 143.308033 323.21745 159.188568 C 322.562619 162.564829 322.023426 166.19801 323.44738 169.325423 C 324.884781 172.486465 328.036574 174.474558 331.122481 176.064495 C 350.447383 186.022449 374.100622 187.17791 394.31163 179.144829 C 406.938972 174.124826 417.978316 165.855003 429.988476 159.489876 C 458.908599 144.163532 493.746401 140.405255 525.258954 149.213128 C 539.36538 153.154341 553.49063 160.112668 561.390282 172.455527 C 571.17375 187.737482 569.21598 208.079793 562.076039 224.778164 C 543.676237 267.807338 496.489429 291.83529 450.418658 299.828017 C 438.198736 301.946588 411.009142 292.128527 415.107549 309.3367 C 419.247639 326.718393 432.021544 342.781865 436.575778 360.763484 Z M 436.575778 360.763484 " stroke="#00577c" stroke-width="2" stroke-opacity="1" stroke-miterlimit="10"/></g></g><g clip-path="url(#695568a0a7)"><g clip-path="url(#a46160fdfd)"><path fill="#fffaf4" d="M 331.882812 94.253906 C 267.007812 95.09375 203.660156 127.4375 213.535156 204.921875 C 223.410156 282.410156 232.671875 310.679688 291.65625 346.859375 C 350.640625 383.039062 378.351562 280.347656 389.460938 210.589844 C 400.570312 140.835938 396.761719 93.414062 331.882812 94.253906 Z M 331.882812 94.253906 " fill-opacity="1" fill-rule="nonzero"/></g></g><g clip-path="url(#783cf915ec)"><path fill="#fffaf4" d="M 69.851562 724.535156 C 183.339844 684.734375 275.515625 590.492188 212.359375 460.1875 C 149.199219 329.878906 116.21875 285.683594 -8.800781 256.960938 C -133.8125 228.234375 -121.800781 425.03125 -100.082031 554.148438 C -78.363281 683.261719 -43.644531 764.335938 69.851562 724.535156 Z M 69.851562 724.535156 " fill-opacity="1" fill-rule="nonzero"/></g><g clip-path="url(#7387cbfc52)"><path fill="#fcbc5a" d="M -65.015625 851.015625 C -69.929688 836.027344 -76.460938 825.472656 -87.167969 814.546875 C -91.648438 806.019531 -88.140625 790.488281 -91.132812 774.558594 C -93.460938 762.164062 -101.742188 752.15625 -102.015625 739.152344 C -102.210938 729.546875 -100.078125 715.609375 -104.347656 706.699219 C -114.222656 686.101562 -106.085938 658.746094 -111.515625 637.050781 C -117.054688 614.921875 -111.253906 590.1875 -108.71875 567.566406 C -107.121094 553.316406 -106.15625 540.1875 -106.453125 525.789062 C -106.613281 518.144531 -103.234375 512.601562 -100.230469 505.71875 C -91.589844 485.898438 -85.699219 463.585938 -78.851562 443.046875 C -73.804688 427.90625 -70.449219 412.164062 -67.652344 396.464844 C -64.640625 379.578125 -57.871094 362.382812 -57.28125 345.289062 C -56.136719 312.300781 -46.507812 281.265625 -45.828125 248.664062 C -45.449219 230.273438 -24.09375 194.5 -8.984375 184.746094 C 10.234375 172.347656 25.621094 148.390625 39.121094 130.199219 C 55.839844 107.667969 68.410156 44.945312 103.324219 42.820312 C 112.503906 42.261719 119.820312 31.019531 130.519531 29.144531 C 149.40625 25.832031 161.949219 24.03125 162.363281 43.808594 C 162.855469 67.582031 159.554688 91.3125 171.140625 111.207031 C 174.609375 117.160156 176.796875 129.664062 182.25 131.101562 C 186.519531 132.226562 194.570312 149.75 197.109375 153.875 C 201.835938 161.546875 210.65625 168.398438 216.371094 175.445312 C 225.472656 186.671875 225.75 203.316406 235.625 214.375 C 246.925781 227.035156 247.328125 246.539062 242.6875 261.5 C 230.945312 299.386719 219.035156 337.222656 208.355469 375.21875 C 198.566406 410.042969 187.757812 448.121094 166.421875 478.199219 C 152.726562 497.507812 141.589844 514.828125 124 531.152344 C 112.335938 541.976562 101.585938 557.632812 88.402344 566.421875 C 79.320312 572.476562 69.046875 576.03125 59.976562 582.890625 C 44.851562 594.328125 1.738281 620.308594 2.183594 641.519531 C 2.433594 653.710938 18.375 651.121094 26.621094 646 C 45.742188 634.105469 57.90625 609.710938 83.742188 608.25 C 107 606.933594 129.289062 613.949219 152.824219 613.460938 C 176.128906 612.972656 202.152344 608.539062 224.101562 617.886719 C 247.789062 627.972656 276.066406 631.175781 298.40625 643.667969 C 306.167969 648.011719 316.496094 648.726562 325.105469 650.5 C 336.152344 652.773438 345.175781 660.734375 356.328125 662.039062 C 383.4375 665.207031 404.3125 663.011719 431.015625 670.824219 C 447.148438 675.542969 464.550781 675.761719 480.996094 679.757812 C 492.246094 682.492188 497.144531 684.75 484.117188 688.003906 C 448.378906 696.921875 413.046875 710.8125 378.816406 723.609375 C 341.933594 737.40625 313.753906 777.792969 274.207031 783.582031 C 256.410156 786.1875 236.382812 794.839844 219.839844 802.992188 C 201.472656 812.042969 183.640625 812.617188 163.605469 812.65625 C 143.394531 812.695312 122.480469 806.96875 102.15625 810.796875 C 82.820312 814.4375 64.265625 818.042969 43.855469 818.46875 C 24.304688 818.878906 6.226562 820.707031 -12.140625 812.988281 C -32.21875 804.546875 27.273438 831.636719 46.195312 842.425781 C 65.261719 853.292969 84.210938 861.148438 103.25 872.257812 C 119.769531 881.902344 128.929688 900.621094 143.914062 912.039062 C 161.109375 925.136719 174.273438 939.089844 188.699219 955.050781 C 201.144531 968.8125 215.097656 984.976562 229.039062 997.050781 C 239.84375 1006.402344 255.046875 1015.386719 262.328125 1028.121094 C 269.984375 1041.5 290.191406 1050.835938 303.015625 1060.140625 C 311.839844 1066.539062 317.789062 1073.210938 324.859375 1081.84375 C 331.496094 1089.941406 378.988281 1152.34375 351.332031 1157.550781 C 330.957031 1161.390625 308.785156 1151.410156 292.152344 1140.875 C 270.820312 1127.351562 249.644531 1113.96875 228.640625 1101.9375 C 209.246094 1090.832031 192.996094 1075.695312 172.398438 1066.734375 C 162.238281 1062.3125 157.4375 1053.25 146.644531 1052.128906 C 130.980469 1050.496094 109.035156 1043.421875 96.648438 1033.410156 C 83.355469 1022.667969 62.394531 1020.617188 49.488281 1009.464844 C 43.496094 1004.285156 34.988281 1001.699219 28.042969 998.09375 C 23.332031 995.644531 22.269531 988.570312 19.273438 984.425781 C 1.40625 959.695312 -18.003906 936.023438 -35.375 910.59375 C -48.671875 891.128906 -57.472656 874.003906 -65.015625 851.015625 Z M -65.015625 851.015625 " fill-opacity="1" fill-rule="nonzero"/></g><g clip-path="url(#919d44b640)"><g clip-path="url(#92a825c568)"><path fill="#fcbc5a" d="M -43.011719 695.921875 C -36.457031 679.132812 -23.109375 660.171875 -9.074219 648.761719 C -6.453125 646.625 -1.800781 643.816406 1.347656 642.730469 C 4.824219 641.507812 7.9375 638.179688 11.863281 638.554688 C 14.910156 638.835938 19.503906 642.15625 22.089844 643.671875 C 27.785156 646.988281 33.761719 651.550781 36.46875 657.757812 C 41.390625 669.066406 42.792969 680.980469 46.046875 692.699219 C 47.113281 696.585938 48.863281 700.226562 50.140625 704.042969 C 52.292969 710.445312 53.15625 717.3125 56.246094 723.316406 C 60.207031 731.042969 67.269531 736.910156 69.160156 745.65625 C 71.425781 756.136719 69.046875 767.160156 64.292969 776.621094 C 57.980469 789.144531 63.085938 803.769531 56.394531 816.492188 C 50.839844 827.050781 46.40625 838.140625 41.082031 848.792969 C 35.4375 860.109375 30.097656 871.5625 25.046875 883.164062 C 58.4375 866.71875 92.996094 849.972656 130.160156 848.0625 C 145.570312 847.265625 161.550781 849.234375 174.945312 856.871094 C 193.050781 867.171875 204.125 886.15625 214.351562 904.289062 C 215.324219 905.996094 216.300781 907.761719 216.523438 909.71875 C 217.121094 914.875 212.324219 919.078125 207.539062 921.078125 C 199.476562 924.441406 190.488281 924.484375 181.8125 925.503906 C 164.304688 927.585938 147.40625 933.886719 129.800781 934.929688 C 112.359375 935.949219 95.046875 931.734375 77.628906 930.429688 C 68.410156 929.734375 58.777344 929.773438 50.535156 925.578125 C 43.164062 921.828125 37.816406 915.117188 32.808594 908.542969 C 29.679688 904.425781 26.5625 899.960938 25.113281 894.945312 C 23.921875 890.773438 26.414062 885.179688 23.027344 883.175781 C 17.4375 879.84375 9.355469 880.738281 3.863281 877.078125 C -0.496094 874.167969 -1.707031 868.484375 -4.175781 864.179688 C -7.460938 858.480469 -10.929688 852.8125 -14.484375 847.261719 C -18.746094 840.597656 -23.125 835.117188 -23.34375 826.839844 C -23.59375 817.324219 -30.929688 805.871094 -35.878906 798.019531 C -41.253906 789.476562 -47.363281 781.164062 -50.140625 771.339844 C -52.984375 761.300781 -52.109375 750.632812 -51.183594 740.25 C -49.847656 725.171875 -48.480469 709.949219 -43.011719 695.921875 Z M -43.011719 695.921875 " fill-opacity="1" fill-rule="nonzero"/></g></g><g clip-path="url(#e6c122b0e9)"><g clip-path="url(#ccff2dd3e5)"><path fill="#fcbc5a" d="M 92.519531 832.21875 C 90.378906 832.945312 88.269531 833.796875 86.023438 833.851562 C 78.335938 834.019531 78.398438 824.832031 80.511719 819.738281 C 82.523438 814.90625 85.699219 810.125 83.917969 804.695312 C 82.875 801.503906 80.472656 798.855469 79.597656 795.628906 C 78.425781 791.304688 80.175781 786.726562 82.613281 782.960938 C 87.910156 774.804688 93.824219 766.941406 99.414062 758.957031 C 107.878906 746.84375 116.710938 740.75 130.582031 735.664062 C 138.058594 732.917969 145.535156 730.175781 153.253906 728.214844 C 157.890625 727.042969 162.660156 726.140625 167.089844 724.3125 C 170.210938 723.023438 173.144531 721.277344 176.417969 720.417969 C 183.242188 718.648438 189.910156 722.789062 188.257812 730.292969 C 186.703125 737.429688 181.839844 743.320312 179.699219 750.210938 C 175.242188 764.582031 174.121094 780.554688 165.054688 792.5625 C 154.644531 806.371094 136.53125 811.394531 121.992188 820.761719 C 117.800781 823.472656 114.011719 826.691406 109.234375 828.335938 C 104.050781 830.117188 98.4375 830.304688 93.207031 831.972656 C 93.007812 832.0625 92.753906 832.140625 92.519531 832.21875 Z M 92.519531 832.21875 " fill-opacity="1" fill-rule="nonzero"/></g></g><g clip-path="url(#4da53c5db8)"><path fill="#00577c" d="M 54.71875 665.566406 C 57.214844 666.449219 59.832031 666.804688 62.574219 666.488281 C 67.835938 665.878906 74.359375 669.136719 81.207031 672.5625 C 90.984375 677.449219 101.429688 682.667969 109.8125 677.433594 C 111.632812 676.296875 101.011719 662.535156 97.230469 657.636719 L 97.230469 657.632812 L 97.226562 657.632812 C 96.652344 656.886719 96.238281 656.347656 96.046875 656.085938 C 89.246094 646.835938 83.125 641.144531 75.121094 636.214844 C 77.332031 634.929688 79.238281 633.242188 80.75 631.050781 C 83.753906 626.691406 90.503906 623.929688 97.589844 621.03125 C 107.710938 616.898438 118.515625 612.476562 120.097656 602.71875 C 120.4375 600.605469 103.085938 599.53125 96.90625 599.148438 C 95.964844 599.089844 95.285156 599.050781 94.960938 599.019531 C 81.894531 597.90625 72.910156 599.179688 62.359375 602.964844 C 63.355469 600.511719 63.832031 597.910156 63.640625 595.15625 C 63.269531 589.878906 66.824219 583.515625 70.558594 576.832031 C 75.890625 567.292969 81.582031 557.101562 76.730469 548.488281 C 75.679688 546.625 61.445312 556.597656 56.375 560.152344 C 55.601562 560.691406 55.042969 561.082031 54.777344 561.261719 C 45.425781 567.492188 39.515625 573.226562 34.308594 580.738281 C 32.867188 578.417969 30.984375 576.457031 28.558594 574.976562 C 24.035156 572.21875 20.90625 565.636719 17.617188 558.722656 C 12.917969 548.855469 7.90625 538.316406 -1.929688 537.28125 C -4.0625 537.058594 -4.164062 554.433594 -4.203125 560.625 C -4.210938 561.566406 -4.214844 562.25 -4.222656 562.574219 C -4.609375 575.675781 -2.839844 584.574219 1.527344 594.894531 C -0.980469 594.039062 -3.597656 593.707031 -6.339844 594.050781 C -11.589844 594.714844 -18.144531 591.519531 -25.027344 588.164062 C -34.855469 583.375 -45.347656 578.261719 -53.683594 583.578125 C -55.488281 584.734375 -44.734375 598.386719 -40.902344 603.25 C -40.320312 603.992188 -39.894531 604.527344 -39.703125 604.785156 C -32.808594 613.96875 -26.632812 619.597656 -18.582031 624.449219 C -20.773438 625.75 -22.664062 627.460938 -24.15625 629.667969 C -27.117188 634.058594 -33.839844 636.886719 -40.894531 639.855469 C -50.972656 644.089844 -61.734375 648.617188 -63.214844 658.390625 C -63.539062 660.507812 -46.175781 661.40625 -39.992188 661.730469 C -39.050781 661.777344 -38.367188 661.8125 -38.046875 661.835938 C -24.96875 662.820312 -16 661.457031 -5.484375 657.566406 C -6.457031 660.035156 -6.90625 662.636719 -6.6875 665.386719 C -6.261719 670.664062 -9.753906 677.058594 -13.421875 683.78125 C -18.65625 693.375 -24.25 703.621094 -19.3125 712.183594 C -18.242188 714.039062 -4.109375 703.921875 0.929688 700.320312 L 0.929688 700.316406 C 1.695312 699.773438 2.25 699.375 2.515625 699.191406 C 11.519531 693.0625 17.296875 687.429688 22.316406 680.199219 C 23.660156 682.183594 25.363281 683.882812 27.492188 685.214844 C 31.984375 688.015625 35.050781 694.628906 38.273438 701.574219 C 42.867188 711.488281 47.777344 722.078125 57.597656 723.210938 C 59.730469 723.453125 60.007812 706.078125 60.109375 699.886719 C 60.125 698.949219 60.136719 698.265625 60.148438 697.941406 C 60.664062 684.84375 58.980469 675.929688 54.71875 665.566406 Z M 54.71875 665.566406 " fill-opacity="1" fill-rule="evenodd"/></g></g></g></g></svg>