<svg xmlns="http://www.w3.org/2000/svg" xmlns:xlink="http://www.w3.org/1999/xlink" width="2000" zoomAndPan="magnify" viewBox="0 0 1500 1499.999933" height="2000" preserveAspectRatio="xMidYMid meet" version="1.0"><defs><clipPath id="abdad30518"><path d="M 190.363281 150 L 1309.363281 150 L 1309.363281 1350 L 190.363281 1350 Z M 190.363281 150 " clip-rule="nonzero"/></clipPath><clipPath id="9a77b7fed1"><path d="M 271 150 L 1309.363281 150 L 1309.363281 1350 L 271 1350 Z M 271 150 " clip-rule="nonzero"/></clipPath><clipPath id="eed057e0fe"><path d="M 384 150 L 1309.363281 150 L 1309.363281 1284 L 384 1284 Z M 384 150 " clip-rule="nonzero"/></clipPath><clipPath id="ebf06936ce"><path d="M 509 150 L 1309.363281 150 L 1309.363281 1278 L 509 1278 Z M 509 150 " clip-rule="nonzero"/></clipPath><clipPath id="d6721c9cef"><path d="M 611 150 L 1309.363281 150 L 1309.363281 1350 L 611 1350 Z M 611 150 " clip-rule="nonzero"/></clipPath><clipPath id="988013f214"><path d="M 302 509 L 1309.363281 509 L 1309.363281 1350 L 302 1350 Z M 302 509 " clip-rule="nonzero"/></clipPath><clipPath id="b4f09b7779"><path d="M 302 548 L 1309.363281 548 L 1309.363281 1350 L 302 1350 Z M 302 548 " clip-rule="nonzero"/></clipPath><clipPath id="b351c4d2bd"><path d="M 696 556 L 1309.363281 556 L 1309.363281 1350 L 696 1350 Z M 696 556 " clip-rule="nonzero"/></clipPath></defs><path fill="#fcbc5a" d="M 722.109375 780.042969 C 722.558594 759.273438 726.523438 734.933594 743.726562 725.75 C 752.378906 721.117188 762.542969 721.5625 771.820312 718.777344 C 802.265625 709.636719 814.648438 669.839844 815.746094 635.613281 C 816.863281 601.449219 811.625 567.371094 811.371094 533.167969 C 811.09375 498.984375 816.492188 463.054688 835.96875 436.144531 C 858.257812 405.382812 895 391.5625 930.53125 384.632812 C 1007.316406 369.644531 1089.710938 381.167969 1157.453125 422.175781 C 1153.019531 407.144531 1147.445312 392.519531 1140.738281 378.46875 C 1102.71875 298.980469 1027.089844 240.734375 944.792969 232.953125 C 926.214844 231.1875 907.261719 231.910156 889.234375 237.054688 C 834.246094 252.746094 799.421875 304.148438 763.285156 347.664062 C 752.378906 360.800781 723.460938 405.890625 705.492188 402.382812 C 692.328125 399.8125 666.804688 348.960938 653.171875 337.628906 C 606.890625 299.128906 556.160156 264.523438 499.308594 250.300781 C 391.625 223.40625 302.714844 294.859375 274.054688 406.378906 C 249.019531 503.726562 247.429688 632.511719 323.609375 704.109375 C 443.671875 816.949219 563.734375 929.789062 683.816406 1042.632812 C 693.113281 1051.367188 703.117188 1060.46875 715.320312 1062.339844 C 732.621094 1065.015625 748.476562 1052.496094 762.148438 1040.675781 C 766.191406 1037.167969 770.25 1033.679688 774.292969 1030.175781 L 782.21875 1023.328125 C 764.816406 994.140625 749.4375 949.007812 745.414062 936.699219 C 729.054688 886.570312 720.949219 833.234375 722.109375 780.042969 Z M 722.109375 780.042969 " fill-opacity="1" fill-rule="nonzero"/><g clip-path="url(#abdad30518)"><path stroke-linecap="round" transform="matrix(13.321428, 0, 0, 13.324637, 190.363654, 150.391285)" fill="none" stroke-linejoin="miter" d="M 73.991136 15.136679 C 73.750101 14.538632 73.482381 13.952606 73.184166 13.378598 C 70.163597 7.544129 64.153837 3.270443 57.614502 2.699367 C 56.138086 2.569791 54.632933 2.622559 53.200209 3.000736 C 48.831073 4.153148 46.064736 7.925237 43.193129 11.118921 C 42.326046 12.083125 40.029464 15.394366 38.601138 15.135213 C 37.555185 14.945538 35.526322 11.215371 34.444008 10.383969 C 30.765724 7.557614 26.73527 5.01797 22.21688 3.974027 C 13.660705 1.997542 6.59766 7.241295 4.318965 15.427493 C 2.330862 22.572681 2.204186 32.024158 8.256172 37.278757 C 17.796722 45.561112 27.337272 53.842295 36.877822 62.12465 C 37.616763 62.766377 38.412884 63.435368 39.380838 63.572274 C 40.756383 63.768105 42.016101 62.849342 43.102814 61.981588 " stroke="#363737" stroke-width="3" stroke-opacity="1" stroke-miterlimit="10"/><path stroke-linecap="round" transform="matrix(13.321428, 0, 0, 13.324637, 190.363654, 150.391285)" fill="none" stroke-linejoin="miter" d="M 46.29199 39.577425 C 45.503199 39.468955 44.702387 39.360486 43.91389 39.46749 C 43.125099 39.574493 42.335136 39.92863 41.873005 40.577686 C 40.836142 42.034398 41.484768 44.818538 41.784156 46.469615 C 42.255378 49.066719 43.220106 51.562976 44.231458 53.989754 C 44.595651 54.861905 44.961309 55.740213 45.47153 56.535556 C 47.163178 59.174875 50.244151 60.649762 52.03667 63.221362 C 54.297184 66.466349 54.092509 70.462999 53.798986 74.40688 " stroke="#363737" stroke-width="3" stroke-opacity="1" stroke-miterlimit="10"/></g><g clip-path="url(#9a77b7fed1)"><path stroke-linecap="round" transform="matrix(13.321428, 0, 0, 13.324637, 190.363654, 150.391285)" fill="none" stroke-linejoin="miter" d="M 50.20046 49.0547 C 50.20046 41.386808 49.732464 33.720382 48.797938 26.109949 C 48.572151 24.275061 48.26074 22.211215 48.856584 20.412385 C 49.440699 18.651373 51.716169 16.572576 53.751189 17.419222 C 54.535287 17.746095 54.861946 18.663393 55.084508 19.484534 C 57.09519 26.894738 57.562013 34.64706 57.900402 42.284757 " stroke="#363737" stroke-width="3" stroke-opacity="1" stroke-miterlimit="10"/></g><g clip-path="url(#eed057e0fe)"><path stroke-linecap="round" transform="matrix(13.321428, 0, 0, 13.324637, 190.363654, 150.391285)" fill="none" stroke-linejoin="miter" d="M 56.994319 15.826777 C 58.946355 14.989219 61.452304 15.769611 62.587106 17.566682 C 63.347159 18.771862 63.496121 20.249682 63.625729 21.668576 C 64.260866 28.658682 64.896003 35.647322 65.531141 42.637135 " stroke="#363737" stroke-width="3" stroke-opacity="1" stroke-miterlimit="10"/></g><g clip-path="url(#ebf06936ce)"><path stroke-linecap="round" transform="matrix(13.321428, 0, 0, 13.324637, 190.363654, 150.391285)" fill="none" stroke-linejoin="miter" d="M 66.363329 17.774532 C 67.647093 17.072707 69.334341 17.833164 70.153041 19.047433 C 70.971741 20.260235 71.143281 21.783201 71.292242 23.239913 C 71.936469 29.549009 72.579231 35.858104 73.223165 42.168665 " stroke="#363737" stroke-width="3" stroke-opacity="1" stroke-miterlimit="10"/></g><g clip-path="url(#d6721c9cef)"><path stroke-linecap="round" transform="matrix(13.321428, 0, 0, 13.324637, 190.363654, 150.391285)" fill="none" stroke-linejoin="miter" d="M 74.019579 24.063986 C 75.742896 23.203561 77.932741 24.217602 79.007432 25.81591 C 80.081828 27.414218 80.310841 29.420898 80.455111 31.343148 C 80.920175 37.513578 80.837484 43.71098 80.756259 49.899587 C 80.721364 52.466788 80.686763 55.05158 80.20088 57.571876 C 79.598878 60.697841 78.319513 63.64615 77.410498 66.695307 C 76.501483 69.745636 75.967217 72.289972 76.879164 75.339128 " stroke="#363737" stroke-width="3" stroke-opacity="1" stroke-miterlimit="10"/></g><g clip-path="url(#988013f214)"><path stroke-linecap="round" transform="matrix(13.321428, 0, 0, 13.324637, 190.363654, 150.391285)" fill="none" stroke-linejoin="miter" d="M 53.722452 69.387395 C 52.429599 69.11329 51.014761 70.148145 50.885447 71.464726 C 50.756132 72.781308 51.94049 74.07385 53.263546 74.055967 C 60.651784 77.428773 69.320853 77.889913 77.025193 75.31978 C 78.272889 74.904079 79.729658 74.03486 80.680898 73.120494 C 82.818256 71.065443 77.768826 70.276256 76.596197 70.28681 " stroke="#363737" stroke-width="3" stroke-opacity="1" stroke-miterlimit="10"/></g><g clip-path="url(#b4f09b7779)"><path stroke-linecap="round" transform="matrix(13.321428, 0, 0, 13.324637, 190.363654, 150.391285)" fill="none" stroke-linejoin="miter" d="M 50.827973 72.291731 C 51.201256 77.204212 51.159324 81.976856 51.302127 86.901357 " stroke="#363737" stroke-width="3" stroke-opacity="1" stroke-miterlimit="10"/></g><g clip-path="url(#b351c4d2bd)"><path stroke-linecap="round" transform="matrix(13.321428, 0, 0, 13.324637, 190.363654, 150.391285)" fill="none" stroke-linejoin="miter" d="M 81.227187 72.917041 C 81.168541 77.53431 80.509359 82.737606 80.450712 87.36543 " stroke="#363737" stroke-width="3" stroke-opacity="1" stroke-miterlimit="10"/></g></svg>