<svg xmlns="http://www.w3.org/2000/svg" xmlns:xlink="http://www.w3.org/1999/xlink" width="2000" zoomAndPan="magnify" viewBox="0 0 1500 1499.999933" height="2000" preserveAspectRatio="xMidYMid meet" version="1.0"><defs><clipPath id="ef20718de3"><path d="M 154.605469 150 L 1350.105469 150 L 1350.105469 1431 L 154.605469 1431 Z M 154.605469 150 " clip-rule="nonzero"/></clipPath><clipPath id="35955483dd"><path d="M 241 150 L 1350.105469 150 L 1350.105469 1431 L 241 1431 Z M 241 150 " clip-rule="nonzero"/></clipPath><clipPath id="4aba224293"><path d="M 361 150 L 1350.105469 150 L 1350.105469 1361 L 361 1361 Z M 361 150 " clip-rule="nonzero"/></clipPath><clipPath id="afe270404f"><path d="M 495 150 L 1350.105469 150 L 1350.105469 1355 L 495 1355 Z M 495 150 " clip-rule="nonzero"/></clipPath><clipPath id="35b792f9e9"><path d="M 604 150 L 1350.105469 150 L 1350.105469 1431 L 604 1431 Z M 604 150 " clip-rule="nonzero"/></clipPath><clipPath id="f69ba7719e"><path d="M 274 533 L 1350.105469 533 L 1350.105469 1431 L 274 1431 Z M 274 533 " clip-rule="nonzero"/></clipPath><clipPath id="3148b16667"><path d="M 274 575 L 1350.105469 575 L 1350.105469 1431 L 274 1431 Z M 274 575 " clip-rule="nonzero"/></clipPath><clipPath id="e78fe998ae"><path d="M 695 583 L 1350.105469 583 L 1350.105469 1431 L 695 1431 Z M 695 583 " clip-rule="nonzero"/></clipPath></defs><path fill="#fcbc5a" d="M 722.703125 822.59375 C 723.183594 800.40625 727.417969 774.40625 745.800781 764.597656 C 755.042969 759.644531 765.898438 760.125 775.8125 757.148438 C 808.339844 747.382812 821.566406 704.875 822.738281 668.3125 C 823.933594 631.820312 818.339844 595.417969 818.066406 558.882812 C 817.773438 522.367188 823.535156 483.988281 844.347656 455.238281 C 868.15625 422.378906 907.414062 407.617188 945.371094 400.214844 C 1027.40625 384.207031 1115.433594 396.515625 1187.804688 440.320312 C 1183.070312 424.265625 1177.117188 408.640625 1169.949219 393.628906 C 1129.332031 308.722656 1048.53125 246.503906 960.609375 238.191406 C 940.761719 236.308594 920.515625 237.078125 901.253906 242.574219 C 842.503906 259.332031 805.300781 314.242188 766.695312 360.726562 C 755.042969 374.761719 724.148438 422.925781 704.949219 419.179688 C 690.886719 416.429688 663.617188 362.113281 649.050781 350.007812 C 599.609375 308.882812 545.40625 271.914062 484.667969 256.722656 C 369.625 227.996094 274.636719 304.320312 244.015625 423.445312 C 217.273438 527.429688 215.574219 664.996094 296.960938 741.480469 C 425.230469 862.015625 553.5 982.550781 681.789062 1103.089844 C 691.722656 1112.421875 702.414062 1122.140625 715.449219 1124.140625 C 733.933594 1127 750.871094 1113.625 765.480469 1101 C 769.796875 1097.253906 774.136719 1093.527344 778.453125 1089.78125 L 786.917969 1082.46875 C 768.328125 1051.289062 751.898438 1003.082031 747.601562 989.933594 C 730.121094 936.386719 721.464844 879.410156 722.703125 822.59375 Z M 722.703125 822.59375 " fill-opacity="1" fill-rule="nonzero"/><g clip-path="url(#ef20718de3)"><path stroke-linecap="round" transform="matrix(14.232113, 0, 0, 14.233334, 154.60543, 149.999967)" fill="none" stroke-linejoin="miter" d="M 73.990904 15.136674 C 73.750197 14.538661 73.482316 13.952724 73.184245 13.378587 C 70.163732 7.544187 64.153995 3.270274 57.614537 2.699431 C 56.137903 2.569894 54.632998 2.622587 53.200004 3.000771 C 48.831034 4.15316 46.064677 7.92539 43.192926 11.119092 C 42.326158 12.083213 40.029415 15.394377 38.601087 15.135302 C 37.555092 14.945387 35.52623 11.215422 34.444005 10.383857 C 30.765869 7.557635 26.735316 5.017932 22.217035 3.973948 C 13.66079 1.997404 6.597648 7.241476 4.319021 15.427585 C 2.330779 22.572728 2.20425 32.024023 8.256254 37.278798 C 17.796739 45.561237 27.337223 53.842303 36.877707 62.124742 C 37.616848 62.766391 38.413077 63.435211 39.380575 63.572433 C 40.756205 63.768111 42.01601 62.849273 43.102626 61.981482 " stroke="#363737" stroke-width="3" stroke-opacity="1" stroke-miterlimit="10"/><path stroke-linecap="round" transform="matrix(14.232113, 0, 0, 14.233334, 154.60543, 149.999967)" fill="none" stroke-linejoin="miter" d="M 46.291936 39.577539 C 45.503117 39.469134 44.702496 39.360728 43.913951 39.467487 C 43.125132 39.57452 42.335215 39.928553 41.873012 40.577886 C 40.836075 42.034634 41.484641 44.818592 41.784085 46.469645 C 42.255345 49.066707 43.220098 51.562773 44.23151 53.989679 C 44.595728 54.862136 44.961319 55.740356 45.471553 56.535694 C 47.16337 59.17502 50.244266 60.649881 52.036812 63.221419 C 54.297325 66.466168 54.092572 70.462892 53.799167 74.406924 " stroke="#363737" stroke-width="3" stroke-opacity="1" stroke-miterlimit="10"/></g><g clip-path="url(#35955483dd)"><path stroke-linecap="round" transform="matrix(14.232113, 0, 0, 14.233334, 154.60543, 149.999967)" fill="none" stroke-linejoin="miter" d="M 50.200626 49.054631 C 50.200626 41.386947 49.732659 33.720634 48.797823 26.110034 C 48.572211 24.275103 48.26069 22.211286 48.856559 20.412581 C 49.440625 18.651476 51.716234 16.572564 53.751135 17.419223 C 54.535288 17.746086 54.861904 18.663551 55.084497 19.484412 C 57.095245 26.894669 57.561839 34.646882 57.900532 42.284652 " stroke="#363737" stroke-width="3" stroke-opacity="1" stroke-miterlimit="10"/></g><g clip-path="url(#4aba224293)"><path stroke-linecap="round" transform="matrix(14.232113, 0, 0, 14.233334, 154.60543, 149.999967)" fill="none" stroke-linejoin="miter" d="M 56.994515 15.826626 C 58.946527 14.989023 61.452414 15.769542 62.587336 17.566599 C 63.347061 18.771682 63.496097 20.249836 63.625646 21.66871 C 64.260763 28.658793 64.895881 35.64723 65.530998 42.637038 " stroke="#363737" stroke-width="3" stroke-opacity="1" stroke-miterlimit="10"/></g><g clip-path="url(#afe270404f)"><path stroke-linecap="round" transform="matrix(14.232113, 0, 0, 14.233334, 154.60543, 149.999967)" fill="none" stroke-linejoin="miter" d="M 66.363183 17.774628 C 67.647141 17.072601 69.334292 17.833359 70.153028 19.047498 C 70.971764 20.260265 71.143306 21.783428 71.292342 23.239901 C 71.936516 29.549089 72.579319 35.858002 73.223219 42.168563 " stroke="#363737" stroke-width="3" stroke-opacity="1" stroke-miterlimit="10"/></g><g clip-path="url(#35b792f9e9)"><path stroke-linecap="round" transform="matrix(14.232113, 0, 0, 14.233334, 154.60543, 149.999967)" fill="none" stroke-linejoin="miter" d="M 74.019449 24.063781 C 75.742829 23.203675 77.932804 24.21747 79.007344 25.81583 C 80.081883 27.414191 80.310789 29.420924 80.455159 31.343128 C 80.920106 37.513722 80.837492 43.711211 80.75625 49.899644 C 80.721392 52.466791 80.686809 55.051777 80.200728 57.571994 C 79.598821 60.697908 78.319529 63.645983 77.410493 66.695328 C 76.501457 69.745771 75.967069 72.290139 76.879124 75.339209 " stroke="#363737" stroke-width="3" stroke-opacity="1" stroke-miterlimit="10"/></g><g clip-path="url(#f69ba7719e)"><path stroke-linecap="round" transform="matrix(14.232113, 0, 0, 14.233334, 154.60543, 149.999967)" fill="none" stroke-linejoin="miter" d="M 53.72259 69.387347 C 52.429575 69.113178 51.01497 70.148105 50.885422 71.464612 C 50.755873 72.781393 51.940474 74.074024 53.263406 74.05591 C 60.651792 77.428824 69.320843 77.88989 77.025415 75.319724 C 78.272869 74.903942 79.729742 74.034778 80.681045 73.120331 C 82.818323 71.065571 77.768673 70.276271 76.596423 70.286699 " stroke="#363737" stroke-width="3" stroke-opacity="1" stroke-miterlimit="10"/></g><g clip-path="url(#3148b16667)"><path stroke-linecap="round" transform="matrix(14.232113, 0, 0, 14.233334, 154.60543, 149.999967)" fill="none" stroke-linejoin="miter" d="M 50.828058 72.291786 C 51.201333 77.204329 51.159065 81.976906 51.302063 86.901526 " stroke="#363737" stroke-width="3" stroke-opacity="1" stroke-miterlimit="10"/></g><g clip-path="url(#e78fe998ae)"><path stroke-linecap="round" transform="matrix(14.232113, 0, 0, 14.233334, 154.60543, 149.999967)" fill="none" stroke-linejoin="miter" d="M 81.227235 72.916969 C 81.168499 77.534211 80.509503 82.737665 80.450767 87.365336 " stroke="#363737" stroke-width="3" stroke-opacity="1" stroke-miterlimit="10"/></g></svg>