<svg xmlns="http://www.w3.org/2000/svg" xmlns:xlink="http://www.w3.org/1999/xlink" width="2000" zoomAndPan="magnify" viewBox="0 0 1500 1499.999933" height="2000" preserveAspectRatio="xMidYMid meet" version="1.0"><defs><clipPath id="6b68ed0d13"><path d="M 150 150 L 1350 150 L 1350 1350 L 150 1350 Z M 150 150 " clip-rule="nonzero"/></clipPath></defs><rect x="-150" width="1800" fill="#ffffff" y="-149.999993" height="1799.99992" fill-opacity="1"/><rect x="-150" width="1800" fill="#ffffff" y="-149.999993" height="1799.99992" fill-opacity="1"/><path fill="#fcbc5a" d="M 971.242188 277.039062 C 1107.089844 339.238281 1213.269531 460.519531 1255.167969 601.363281 C 1274.253906 665.503906 1280.460938 732.648438 1282.378906 799.4375 C 1285.734375 916.949219 1275.035156 1043.261719 1204.9375 1142.886719 C 1143.683594 1229.949219 1045.386719 1288.96875 942.59375 1317.511719 C 702.515625 1384.152344 406.542969 1359.113281 258.496094 1139.765625 C 131.941406 952.226562 123.007812 676.449219 238.808594 482.527344 C 377.382812 250.410156 727.085938 165.292969 971.242188 277.039062 Z M 971.242188 277.039062 " fill-opacity="1" fill-rule="nonzero"/><g clip-path="url(#6b68ed0d13)"><path stroke-linecap="butt" transform="matrix(18.749998, 0, 0, 18.749998, 150.00002, 149.999967)" fill="none" stroke-linejoin="miter" d="M 63.250004 32.000005 C 63.250004 32.511463 63.237504 33.022505 63.212296 33.533338 C 63.187296 34.044171 63.149588 34.554171 63.099588 35.06313 C 63.049379 35.572088 62.986879 36.07938 62.911671 36.585422 C 62.836671 37.091255 62.749379 37.595005 62.649588 38.096463 C 62.549796 38.59813 62.437713 39.097088 62.313546 39.59313 C 62.189171 40.089172 62.052921 40.582089 61.904379 41.071464 C 61.755838 41.560839 61.595629 42.046255 61.423338 42.527714 C 61.251046 43.00938 61.066879 43.486256 60.871254 43.958756 C 60.675421 44.431256 60.468337 44.898756 60.249587 45.361047 C 60.031046 45.823339 59.801046 46.280006 59.560004 46.731047 C 59.318962 47.182089 59.066879 47.627089 58.803962 48.065631 C 58.541046 48.504381 58.267504 48.936256 57.983337 49.361464 C 57.699379 49.786881 57.404796 50.204798 57.100212 50.615631 C 56.795629 51.026464 56.481045 51.429381 56.15667 51.824798 C 55.832087 52.220215 55.498129 52.607298 55.154795 52.986256 C 54.811254 53.365215 54.458754 53.735423 54.097087 54.09709 C 53.73542 54.458756 53.365212 54.811256 52.986253 55.154798 C 52.607295 55.498132 52.220212 55.83209 51.824795 56.156673 C 51.429378 56.481048 51.026462 56.795632 50.615628 57.100215 C 50.204795 57.404798 49.786878 57.699382 49.36167 57.98334 C 48.936253 58.267507 48.504378 58.541048 48.065628 58.803965 C 47.627086 59.066882 47.182086 59.318965 46.731045 59.560007 C 46.280003 59.801049 45.823336 60.031049 45.361044 60.24959 C 44.898753 60.46834 44.431253 60.675424 43.958753 60.871257 C 43.486253 61.066882 43.009378 61.251049 42.527711 61.42334 C 42.046253 61.595632 41.560836 61.75584 41.071461 61.904382 C 40.582086 62.052924 40.089169 62.189174 39.593127 62.313549 C 39.097086 62.437715 38.598127 62.549799 38.096669 62.64959 C 37.595002 62.749382 37.091252 62.836674 36.585419 62.911674 C 36.079377 62.986882 35.572085 63.049382 35.063127 63.099591 C 34.554169 63.149591 34.044169 63.187299 33.533335 63.212299 C 33.022502 63.237507 32.51146 63.250007 32.000002 63.250007 C 31.488543 63.250007 30.977502 63.237507 30.466668 63.212299 C 29.955835 63.187299 29.445835 63.149591 28.936876 63.099591 C 28.427918 63.049382 27.920626 62.986882 27.414585 62.911674 C 26.908751 62.836674 26.405001 62.749382 25.903334 62.64959 C 25.401876 62.549799 24.902918 62.437715 24.406876 62.313549 C 23.910834 62.189174 23.417918 62.052924 22.928543 61.904382 C 22.439168 61.75584 21.953751 61.595632 21.472292 61.42334 C 20.990626 61.251049 20.513542 61.066882 20.041042 60.871257 C 19.568542 60.675424 19.101251 60.46834 18.638959 60.24959 C 18.176667 60.031049 17.719792 59.801049 17.26875 59.560007 C 16.817709 59.318965 16.372917 59.066882 15.934375 58.803965 C 15.495625 58.541048 15.06375 58.267507 14.638334 57.98334 C 14.213125 57.699382 13.795208 57.404798 13.384375 57.100215 C 12.973542 56.795632 12.570625 56.481048 12.175208 56.156673 C 11.779792 55.83209 11.392708 55.498132 11.01375 55.154798 C 10.634791 54.811256 10.264583 54.458756 9.902916 54.09709 C 9.54125 53.735423 9.18875 53.365215 8.845208 52.986256 C 8.501875 52.607298 8.167916 52.220215 7.843333 51.824798 C 7.518958 51.429381 7.204375 51.026464 6.899791 50.615631 C 6.595208 50.204798 6.300624 49.786881 6.016666 49.361464 C 5.732499 48.936256 5.458958 48.504381 5.196041 48.065631 C 4.933124 47.627089 4.681041 47.182089 4.439999 46.731047 C 4.198958 46.280006 3.968958 45.823339 3.750416 45.361047 C 3.531666 44.898756 3.324583 44.431256 3.128749 43.958756 C 2.933124 43.486256 2.748957 43.00938 2.576666 42.527714 C 2.404374 42.046255 2.244166 41.560839 2.095624 41.071464 C 1.947082 40.582089 1.810832 40.089172 1.686457 39.59313 C 1.562291 39.097088 1.450207 38.59813 1.350416 38.096463 C 1.250624 37.595005 1.163332 37.091255 1.088332 36.585422 C 1.013124 36.07938 0.950624 35.572088 0.900416 35.06313 C 0.850416 34.554171 0.812707 34.044171 0.787707 33.533338 C 0.762499 33.022505 0.749999 32.511463 0.749999 32.000005 C 0.749999 31.488546 0.762499 30.977504 0.787707 30.466671 C 0.812707 29.955838 0.850416 29.445838 0.900416 28.936879 C 0.950624 28.427921 1.013124 27.920629 1.088332 27.414587 C 1.163332 26.908754 1.250624 26.405004 1.350416 25.903337 C 1.450207 25.401879 1.562291 24.902921 1.686457 24.406879 C 1.810832 23.910837 1.947082 23.41792 2.095624 22.928545 C 2.244166 22.43917 2.404374 21.953754 2.576666 21.472087 C 2.748957 20.990629 2.933124 20.513545 3.128749 20.041045 C 3.324583 19.568545 3.531666 19.101253 3.750416 18.638962 C 3.968958 18.17667 4.198958 17.719795 4.439999 17.268753 C 4.681041 16.817712 4.933124 16.37292 5.196041 15.934378 C 5.458958 15.495628 5.732499 15.063753 6.016666 14.638336 C 6.300624 14.213128 6.595208 13.795211 6.899791 13.384378 C 7.204375 12.973545 7.518958 12.570628 7.843333 12.175211 C 8.167916 11.779794 8.501875 11.392711 8.845208 11.013753 C 9.18875 10.634794 9.54125 10.264586 9.902916 9.902919 C 10.264583 9.541253 10.634791 9.188753 11.01375 8.845211 C 11.392708 8.501877 11.779792 8.167919 12.175208 7.843336 C 12.570625 7.518961 12.973542 7.204377 13.384375 6.899794 C 13.795208 6.595002 14.213125 6.300627 14.638334 6.016669 C 15.06375 5.732502 15.495625 5.458961 15.934375 5.196044 C 16.372917 4.933127 16.817709 4.681044 17.26875 4.440002 C 17.719792 4.19896 18.176667 3.96896 18.638959 3.750419 C 19.101251 3.531669 19.568542 3.324377 20.041042 3.128752 C 20.513542 2.933127 20.990626 2.74896 21.472292 2.576669 C 21.953751 2.404377 22.439168 2.244169 22.928543 2.095627 C 23.417918 1.947085 23.910834 1.810835 24.406876 1.68646 C 24.902918 1.562294 25.401876 1.45021 25.903334 1.350419 C 26.405001 1.250627 26.908751 1.163335 27.414585 1.088335 C 27.920626 1.013127 28.427918 0.950627 28.936876 0.900418 C 29.445835 0.850418 29.955835 0.81271 30.466668 0.78771 C 30.977502 0.762502 31.488543 0.750002 32.000002 0.750002 C 32.51146 0.750002 33.022502 0.762502 33.533335 0.78771 C 34.044169 0.81271 34.554169 0.850418 35.063127 0.900418 C 35.572085 0.950627 36.079377 1.013127 36.585419 1.088335 C 37.091252 1.163335 37.595002 1.250627 38.096669 1.350419 C 38.598127 1.45021 39.097086 1.562294 39.593127 1.68646 C 40.089169 1.810835 40.582086 1.947085 41.071461 2.095627 C 41.560836 2.244169 42.046253 2.404377 42.527711 2.576669 C 43.009378 2.74896 43.486253 2.933127 43.958753 3.128752 C 44.431253 3.324377 44.898753 3.531669 45.361044 3.750419 C 45.823336 3.96896 46.280003 4.19896 46.731045 4.440002 C 47.182086 4.681044 47.627086 4.933127 48.065628 5.196044 C 48.504378 5.458961 48.936253 5.732502 49.361461 6.016669 C 49.786878 6.300627 50.204795 6.595002 50.615628 6.899794 C 51.026462 7.204377 51.429378 7.518961 51.824795 7.843336 C 52.220212 8.167919 52.607295 8.501877 52.986253 8.845211 C 53.365212 9.188753 53.73542 9.541253 54.097087 9.902919 C 54.458754 10.264586 54.811254 10.634794 55.154795 11.013753 C 55.498129 11.392711 55.832087 11.779794 56.15667 12.175211 C 56.481045 12.570628 56.795629 12.973545 57.100212 13.384378 C 57.404796 13.795211 57.699379 14.213128 57.983337 14.638336 C 58.267504 15.063753 58.541046 15.495628 58.803962 15.934378 C 59.066879 16.37292 59.318962 16.817712 59.560004 17.268753 C 59.801046 17.719795 60.031046 18.17667 60.249587 18.638962 C 60.468337 19.101253 60.675421 19.568545 60.871254 20.041045 C 61.066879 20.513545 61.251046 20.990629 61.423338 21.472087 C 61.595629 21.953754 61.755838 22.43917 61.904379 22.928545 C 62.052921 23.41792 62.189171 23.910837 62.313546 24.406879 C 62.437713 24.902921 62.549796 25.401879 62.649588 25.903337 C 62.749379 26.405004 62.836671 26.908754 62.911671 27.414587 C 62.986879 27.920629 63.049379 28.427921 63.099588 28.936879 C 63.149588 29.445838 63.187296 29.955838 63.212296 30.466671 C 63.237504 30.977504 63.250004 31.488546 63.250004 32.000005 Z M 63.250004 32.000005 " stroke="#363737" stroke-width="1.5" stroke-opacity="1" stroke-miterlimit="4"/></g><path fill="#f1e6d6" d="M 1293.75 750 C 1293.75 758.898438 1293.53125 767.792969 1293.09375 776.679688 C 1292.660156 785.570312 1292.003906 794.441406 1291.132812 803.296875 C 1290.257812 812.152344 1289.171875 820.980469 1287.863281 829.785156 C 1286.558594 838.585938 1285.039062 847.351562 1283.300781 856.082031 C 1281.566406 864.808594 1279.617188 873.488281 1277.453125 882.121094 C 1275.292969 890.753906 1272.917969 899.328125 1270.335938 907.84375 C 1267.753906 916.359375 1264.960938 924.804688 1261.964844 933.183594 C 1258.964844 941.5625 1255.765625 949.863281 1252.359375 958.082031 C 1248.953125 966.304688 1245.347656 974.4375 1241.542969 982.484375 C 1237.738281 990.527344 1233.738281 998.472656 1229.542969 1006.320312 C 1225.347656 1014.171875 1220.964844 1021.910156 1216.390625 1029.542969 C 1211.816406 1037.175781 1207.054688 1044.691406 1202.113281 1052.089844 C 1197.167969 1059.492188 1192.042969 1066.761719 1186.742188 1073.910156 C 1181.441406 1081.058594 1175.96875 1088.074219 1170.324219 1094.953125 C 1164.679688 1101.828125 1158.867188 1108.566406 1152.890625 1115.160156 C 1146.914062 1121.753906 1140.78125 1128.195312 1134.488281 1134.488281 C 1128.195312 1140.78125 1121.753906 1146.914062 1115.160156 1152.890625 C 1108.566406 1158.867188 1101.832031 1164.679688 1094.953125 1170.324219 C 1088.074219 1175.96875 1081.058594 1181.441406 1073.910156 1186.742188 C 1066.765625 1192.042969 1059.492188 1197.167969 1052.089844 1202.109375 C 1044.691406 1207.054688 1037.175781 1211.816406 1029.542969 1216.390625 C 1021.910156 1220.964844 1014.171875 1225.347656 1006.320312 1229.542969 C 998.472656 1233.738281 990.527344 1237.738281 982.484375 1241.542969 C 974.4375 1245.347656 966.304688 1248.953125 958.082031 1252.359375 C 949.863281 1255.765625 941.5625 1258.964844 933.183594 1261.964844 C 924.804688 1264.960938 916.359375 1267.753906 907.84375 1270.335938 C 899.328125 1272.917969 890.753906 1275.292969 882.121094 1277.453125 C 873.488281 1279.617188 864.808594 1281.566406 856.082031 1283.300781 C 847.351562 1285.039062 838.585938 1286.558594 829.785156 1287.863281 C 820.980469 1289.171875 812.152344 1290.257812 803.296875 1291.132812 C 794.441406 1292.003906 785.570312 1292.660156 776.679688 1293.09375 C 767.792969 1293.53125 758.898438 1293.75 750 1293.75 C 741.101562 1293.75 732.207031 1293.53125 723.320312 1293.09375 C 714.429688 1292.660156 705.558594 1292.003906 696.703125 1291.132812 C 687.847656 1290.257812 679.019531 1289.171875 670.214844 1287.863281 C 661.414062 1286.558594 652.648438 1285.039062 643.917969 1283.300781 C 635.191406 1281.566406 626.511719 1279.617188 617.878906 1277.453125 C 609.246094 1275.292969 600.671875 1272.917969 592.15625 1270.335938 C 583.640625 1267.753906 575.195312 1264.960938 566.816406 1261.964844 C 558.4375 1258.964844 550.136719 1255.765625 541.914062 1252.359375 C 533.695312 1248.953125 525.5625 1245.347656 517.515625 1241.542969 C 509.472656 1237.738281 501.527344 1233.738281 493.679688 1229.542969 C 485.828125 1225.347656 478.089844 1220.964844 470.457031 1216.390625 C 462.824219 1211.816406 455.308594 1207.054688 447.910156 1202.109375 C 440.507812 1197.167969 433.234375 1192.042969 426.089844 1186.742188 C 418.941406 1181.441406 411.925781 1175.96875 405.046875 1170.324219 C 398.167969 1164.679688 391.433594 1158.867188 384.839844 1152.890625 C 378.246094 1146.914062 371.804688 1140.78125 365.511719 1134.488281 C 359.21875 1128.195312 353.082031 1121.753906 347.109375 1115.160156 C 341.132812 1108.566406 335.320312 1101.828125 329.675781 1094.953125 C 324.03125 1088.074219 318.558594 1081.058594 313.257812 1073.910156 C 307.953125 1066.761719 302.832031 1059.492188 297.886719 1052.089844 C 292.945312 1044.691406 288.183594 1037.175781 283.609375 1029.542969 C 279.035156 1021.910156 274.648438 1014.171875 270.457031 1006.320312 C 266.261719 998.472656 262.261719 990.527344 258.457031 982.484375 C 254.652344 974.4375 251.046875 966.304688 247.640625 958.082031 C 244.234375 949.863281 241.035156 941.5625 238.035156 933.183594 C 235.039062 924.804688 232.246094 916.359375 229.664062 907.84375 C 227.082031 899.328125 224.707031 890.753906 222.546875 882.121094 C 220.382812 873.488281 218.433594 864.808594 216.699219 856.082031 C 214.960938 847.351562 213.441406 838.585938 212.136719 829.785156 C 210.828125 820.980469 209.742188 812.152344 208.867188 803.296875 C 207.996094 794.441406 207.339844 785.570312 206.90625 776.679688 C 206.46875 767.792969 206.25 758.898438 206.25 750 C 206.25 741.101562 206.46875 732.207031 206.90625 723.320312 C 207.339844 714.429688 207.996094 705.558594 208.867188 696.703125 C 209.742188 687.847656 210.828125 679.019531 212.136719 670.214844 C 213.441406 661.414062 214.960938 652.648438 216.699219 643.917969 C 218.433594 635.191406 220.382812 626.511719 222.546875 617.878906 C 224.707031 609.246094 227.082031 600.671875 229.664062 592.15625 C 232.246094 583.640625 235.039062 575.195312 238.035156 566.816406 C 241.035156 558.4375 244.234375 550.136719 247.640625 541.914062 C 251.046875 533.695312 254.652344 525.5625 258.457031 517.515625 C 262.261719 509.472656 266.261719 501.527344 270.457031 493.679688 C 274.648438 485.828125 279.035156 478.089844 283.609375 470.457031 C 288.183594 462.824219 292.945312 455.308594 297.886719 447.910156 C 302.832031 440.507812 307.953125 433.234375 313.257812 426.089844 C 318.558594 418.941406 324.03125 411.925781 329.675781 405.046875 C 335.320312 398.167969 341.132812 391.433594 347.109375 384.839844 C 353.082031 378.246094 359.21875 371.804688 365.511719 365.511719 C 371.804688 359.21875 378.246094 353.082031 384.839844 347.109375 C 391.433594 341.132812 398.167969 335.320312 405.046875 329.675781 C 411.925781 324.03125 418.941406 318.558594 426.089844 313.257812 C 433.234375 307.953125 440.507812 302.832031 447.910156 297.886719 C 455.308594 292.945312 462.824219 288.183594 470.457031 283.609375 C 478.089844 279.035156 485.828125 274.648438 493.679688 270.457031 C 501.527344 266.261719 509.472656 262.261719 517.515625 258.457031 C 525.5625 254.652344 533.695312 251.046875 541.914062 247.640625 C 550.136719 244.234375 558.4375 241.035156 566.816406 238.035156 C 575.195312 235.039062 583.640625 232.246094 592.15625 229.664062 C 600.671875 227.082031 609.246094 224.707031 617.878906 222.546875 C 626.511719 220.382812 635.191406 218.433594 643.917969 216.699219 C 652.648438 214.960938 661.414062 213.441406 670.214844 212.136719 C 679.019531 210.828125 687.847656 209.742188 696.703125 208.867188 C 705.558594 207.996094 714.429688 207.339844 723.320312 206.90625 C 732.207031 206.46875 741.101562 206.25 750 206.25 C 758.898438 206.25 767.792969 206.46875 776.679688 206.90625 C 785.570312 207.339844 794.441406 207.996094 803.296875 208.867188 C 812.152344 209.742188 820.980469 210.828125 829.785156 212.136719 C 838.585938 213.441406 847.351562 214.960938 856.082031 216.699219 C 864.808594 218.433594 873.488281 220.382812 882.121094 222.546875 C 890.753906 224.707031 899.328125 227.082031 907.84375 229.664062 C 916.359375 232.246094 924.804688 235.039062 933.183594 238.035156 C 941.5625 241.035156 949.863281 244.234375 958.082031 247.640625 C 966.304688 251.046875 974.4375 254.652344 982.484375 258.457031 C 990.527344 262.261719 998.472656 266.261719 1006.320312 270.457031 C 1014.171875 274.648438 1021.910156 279.035156 1029.542969 283.609375 C 1037.175781 288.183594 1044.691406 292.945312 1052.089844 297.886719 C 1059.492188 302.832031 1066.765625 307.953125 1073.910156 313.253906 C 1081.058594 318.558594 1088.074219 324.03125 1094.953125 329.675781 C 1101.832031 335.320312 1108.566406 341.132812 1115.160156 347.109375 C 1121.753906 353.082031 1128.195312 359.21875 1134.488281 365.511719 C 1140.78125 371.804688 1146.914062 378.246094 1152.890625 384.839844 C 1158.867188 391.433594 1164.679688 398.167969 1170.324219 405.046875 C 1175.96875 411.925781 1181.441406 418.941406 1186.742188 426.089844 C 1192.042969 433.234375 1197.167969 440.507812 1202.113281 447.910156 C 1207.054688 455.308594 1211.816406 462.824219 1216.390625 470.457031 C 1220.964844 478.089844 1225.347656 485.828125 1229.542969 493.679688 C 1233.738281 501.527344 1237.738281 509.472656 1241.542969 517.515625 C 1245.347656 525.5625 1248.953125 533.695312 1252.359375 541.914062 C 1255.765625 550.136719 1258.964844 558.4375 1261.964844 566.816406 C 1264.960938 575.195312 1267.753906 583.640625 1270.335938 592.15625 C 1272.917969 600.671875 1275.292969 609.246094 1277.453125 617.878906 C 1279.617188 626.511719 1281.566406 635.191406 1283.300781 643.917969 C 1285.039062 652.648438 1286.558594 661.414062 1287.863281 670.214844 C 1289.171875 679.019531 1290.257812 687.847656 1291.132812 696.703125 C 1292.003906 705.558594 1292.660156 714.429688 1293.09375 723.320312 C 1293.53125 732.207031 1293.75 741.101562 1293.75 750 Z M 1293.75 750 " fill-opacity="1" fill-rule="nonzero"/><path fill="#fcbc5a" d="M 823.4375 528.121094 L 526.5625 528.121094 C 444.585938 528.121094 378.125 594.578125 378.125 676.558594 L 378.125 973.433594 C 378.125 1055.414062 444.585938 1121.871094 526.5625 1121.871094 L 823.4375 1121.871094 C 905.417969 1121.871094 971.875 1055.414062 971.875 973.433594 L 971.875 676.558594 C 971.875 594.578125 905.417969 528.121094 823.4375 528.121094 Z M 823.4375 528.121094 " fill-opacity="1" fill-rule="nonzero"/><path stroke-linecap="round" transform="matrix(18.749998, 0, 0, 18.749998, 150.00002, 149.999967)" fill="none" stroke-linejoin="round" d="M 38.916669 17.166462 L 23.083334 17.166462 C 18.711251 17.166462 15.166667 20.710837 15.166667 25.083129 L 15.166667 40.916464 C 15.166667 45.288756 18.711251 48.833131 23.083334 48.833131 L 38.916669 48.833131 C 43.288961 48.833131 46.833336 45.288756 46.833336 40.916464 L 46.833336 25.083129 C 46.833336 20.710837 43.288961 17.166462 38.916669 17.166462 Z M 38.916669 17.166462 " stroke="#363737" stroke-width="2" stroke-opacity="1" stroke-miterlimit="4"/><path stroke-linecap="round" transform="matrix(18.749998, 0, 0, 18.749998, 150.00002, 149.999967)" fill="none" stroke-linejoin="round" d="M 37.333335 32.002505 C 37.528752 33.320213 37.303544 34.666046 36.690002 35.848338 C 36.07646 37.030838 35.105835 37.989797 33.915835 38.588547 C 32.725835 39.187505 31.377502 39.396047 30.062293 39.18438 C 28.747085 38.972713 27.532085 38.35188 26.590001 37.409797 C 25.648126 36.467922 25.027293 35.252921 24.815626 33.937713 C 24.603959 32.622296 24.812501 31.273963 25.411251 30.084171 C 26.010209 28.894171 26.969168 27.923337 28.15146 27.310004 C 29.33396 26.696254 30.679793 26.471254 31.997502 26.666671 C 33.341668 26.866046 34.586044 27.492296 35.546877 28.453129 C 36.507502 29.413963 37.13396 30.658338 37.333335 32.002505 Z M 37.333335 32.002505 " stroke="#363737" stroke-width="2" stroke-opacity="1" stroke-miterlimit="4"/><path stroke-linecap="round" transform="matrix(18.749998, 0, 0, 18.749998, 150.00002, 149.999967)" fill="none" stroke-linejoin="round" d="M 39.708336 24.291462 L 39.723336 24.291462 " stroke="#363737" stroke-width="2" stroke-opacity="1" stroke-miterlimit="4"/></svg>