<svg xmlns="http://www.w3.org/2000/svg" xmlns:xlink="http://www.w3.org/1999/xlink" width="378" zoomAndPan="magnify" viewBox="0 0 282.96 120.96" height="151" preserveAspectRatio="xMidYMid meet" version="1.0"><defs><clipPath id="d5bbf9baef"><path d="M 1 3 L 170 3 L 170 65 L 1 65 Z M 1 3 " clip-rule="nonzero"/></clipPath><clipPath id="41b43fbc82"><path d="M 172.296875 11.21875 L 4.113281 0 L 0.0429688 61.046875 L 168.226562 72.265625 Z M 172.296875 11.21875 " clip-rule="nonzero"/></clipPath><clipPath id="b38a3d40df"><path d="M 188.359375 1 L 265 1 L 265 29 L 188.359375 29 Z M 188.359375 1 " clip-rule="nonzero"/></clipPath><clipPath id="991b237c00"><path d="M 265.160156 4.972656 L 190.179688 0 L 188.363281 27.0625 L 263.34375 32.035156 Z M 265.160156 4.972656 " clip-rule="nonzero"/></clipPath><clipPath id="9848ce329d"><path d="M 193.371094 47 L 242 47 L 242 65 L 193.371094 65 Z M 193.371094 47 " clip-rule="nonzero"/></clipPath><clipPath id="eddc1d3995"><path d="M 241.832031 49.542969 L 194.519531 46.417969 L 193.371094 63.410156 L 240.6875 66.535156 Z M 241.832031 49.542969 " clip-rule="nonzero"/></clipPath><clipPath id="c2b355367c"><path d="M 117 79 L 193 79 L 193 108 L 117 108 Z M 117 79 " clip-rule="nonzero"/></clipPath><clipPath id="1e62dffd9f"><path d="M 193.300781 83.230469 L 118.320312 78.257812 L 116.503906 105.320312 L 191.484375 110.292969 Z M 193.300781 83.230469 " clip-rule="nonzero"/></clipPath><clipPath id="548f5debd7"><path d="M 242.210938 79 L 277 79 L 277 92 L 242.210938 92 Z M 242.210938 79 " clip-rule="nonzero"/></clipPath><clipPath id="327e238952"><path d="M 277.238281 80.570312 L 243.039062 78.257812 L 242.210938 90.84375 L 276.410156 93.160156 Z M 277.238281 80.570312 " clip-rule="nonzero"/></clipPath><clipPath id="5bd7f63375"><path d="M 3 79 L 38 79 L 38 92 L 3 92 Z M 3 79 " clip-rule="nonzero"/></clipPath><clipPath id="e4d71f8878"><path d="M 38 80.570312 L 3.800781 78.257812 L 2.972656 90.84375 L 37.171875 93.160156 Z M 38 80.570312 " clip-rule="nonzero"/></clipPath></defs><g clip-path="url(#d5bbf9baef)"><g clip-path="url(#41b43fbc82)"><path fill="#fffaf4" d="M 38.773438 63.238281 C 31.660156 63.207031 24.421875 63.152344 17.65625 60.960938 C 10.890625 58.769531 4.558594 54.054688 2.230469 47.320312 C -0.328125 39.921875 2.867188 30.945312 9.527344 26.839844 C 16.179688 22.738281 25.613281 23.933594 31.039062 29.566406 C 33.039062 18.242188 41.800781 8.394531 52.796875 5.121094 C 63.789062 1.84375 76.492188 5.28125 84.335938 13.664062 C 87.101562 16.617188 89.832031 20.410156 93.867188 20.628906 C 97.238281 20.808594 100.089844 18.371094 102.84375 16.417969 C 110.109375 11.25 119.652344 8.703125 128.128906 11.433594 C 136.605469 14.167969 143.234375 23.007812 141.84375 31.832031 C 152.226562 25.492188 167.992188 33.09375 169.53125 45.175781 C 172.949219 71.980469 136.007812 63.695312 121.582031 63.625 C 93.976562 63.496094 66.375 63.367188 38.773438 63.238281 Z M 38.773438 63.238281 " fill-opacity="1" fill-rule="nonzero"/></g></g><g clip-path="url(#b38a3d40df)"><g clip-path="url(#991b237c00)"><path fill="#fffaf4" d="M 205.628906 28.035156 C 202.460938 28.019531 199.230469 27.996094 196.214844 27.023438 C 193.199219 26.050781 190.375 23.964844 189.339844 20.976562 C 188.199219 17.695312 189.621094 13.71875 192.589844 11.898438 C 195.558594 10.078125 199.761719 10.609375 202.183594 13.105469 C 203.074219 8.085938 206.980469 3.722656 211.882812 2.269531 C 216.78125 0.816406 222.445312 2.339844 225.941406 6.058594 C 227.175781 7.367188 228.394531 9.046875 230.191406 9.144531 C 231.695312 9.226562 232.96875 8.144531 234.195312 7.277344 C 237.433594 4.988281 241.6875 3.859375 245.464844 5.070312 C 249.246094 6.28125 252.203125 10.199219 251.582031 14.109375 C 256.210938 11.300781 263.238281 14.671875 263.925781 20.027344 C 265.449219 31.910156 248.980469 28.234375 242.546875 28.207031 C 230.242188 28.148438 217.933594 28.089844 205.628906 28.035156 Z M 205.628906 28.035156 " fill-opacity="1" fill-rule="nonzero"/></g></g><g clip-path="url(#9848ce329d)"><g clip-path="url(#eddc1d3995)"><path fill="#fffaf4" d="M 204.269531 64.023438 C 202.269531 64.011719 200.230469 63.996094 198.328125 63.386719 C 196.425781 62.777344 194.644531 61.464844 193.988281 59.589844 C 193.269531 57.53125 194.167969 55.03125 196.042969 53.890625 C 197.914062 52.746094 200.566406 53.082031 202.09375 54.648438 C 202.65625 51.496094 205.121094 48.753906 208.214844 47.84375 C 211.308594 46.933594 214.878906 47.886719 217.085938 50.222656 C 217.867188 51.042969 218.632812 52.101562 219.769531 52.160156 C 220.714844 52.210938 221.519531 51.53125 222.292969 50.988281 C 224.335938 49.550781 227.023438 48.839844 229.40625 49.601562 C 231.792969 50.363281 233.65625 52.824219 233.265625 55.277344 C 236.1875 53.515625 240.621094 55.628906 241.054688 58.992188 C 242.015625 66.453125 231.625 64.148438 227.566406 64.128906 C 219.800781 64.09375 212.035156 64.058594 204.269531 64.023438 Z M 204.269531 64.023438 " fill-opacity="1" fill-rule="nonzero"/></g></g><g clip-path="url(#c2b355367c)"><g clip-path="url(#1e62dffd9f)"><path fill="#fffaf4" d="M 133.769531 106.292969 C 130.601562 106.277344 127.371094 106.253906 124.355469 105.28125 C 121.339844 104.308594 118.515625 102.222656 117.480469 99.234375 C 116.339844 95.953125 117.761719 91.976562 120.730469 90.15625 C 123.699219 88.335938 127.902344 88.867188 130.324219 91.363281 C 131.214844 86.34375 135.121094 81.980469 140.023438 80.527344 C 144.921875 79.074219 150.585938 80.597656 154.082031 84.316406 C 155.316406 85.625 156.535156 87.304688 158.332031 87.402344 C 159.835938 87.484375 161.109375 86.402344 162.335938 85.535156 C 165.574219 83.246094 169.828125 82.117188 173.605469 83.328125 C 177.386719 84.539062 180.34375 88.457031 179.722656 92.367188 C 184.351562 89.558594 191.378906 92.929688 192.066406 98.285156 C 193.589844 110.167969 177.121094 106.492188 170.6875 106.464844 C 158.382812 106.40625 146.074219 106.347656 133.769531 106.292969 Z M 133.769531 106.292969 " fill-opacity="1" fill-rule="nonzero"/></g></g><g clip-path="url(#548f5debd7)"><g clip-path="url(#327e238952)"><path fill="#fffaf4" d="M 250.085938 91.296875 C 248.640625 91.289062 247.167969 91.277344 245.792969 90.828125 C 244.417969 90.375 243.128906 89.402344 242.65625 88.015625 C 242.136719 86.488281 242.785156 84.636719 244.140625 83.792969 C 245.492188 82.945312 247.410156 83.191406 248.515625 84.355469 C 248.921875 82.019531 250.703125 79.988281 252.9375 79.3125 C 255.175781 78.636719 257.757812 79.347656 259.351562 81.074219 C 259.914062 81.683594 260.46875 82.464844 261.292969 82.511719 C 261.976562 82.546875 262.554688 82.046875 263.117188 81.644531 C 264.59375 80.578125 266.535156 80.050781 268.257812 80.617188 C 269.980469 81.179688 271.328125 83.003906 271.046875 84.820312 C 273.160156 83.515625 276.363281 85.082031 276.675781 87.574219 C 277.371094 93.097656 269.859375 91.390625 266.925781 91.375 C 261.3125 91.351562 255.699219 91.324219 250.085938 91.296875 Z M 250.085938 91.296875 " fill-opacity="1" fill-rule="nonzero"/></g></g><g clip-path="url(#5bd7f63375)"><g clip-path="url(#e4d71f8878)"><path fill="#fffaf4" d="M 10.847656 91.296875 C 9.402344 91.289062 7.929688 91.277344 6.550781 90.828125 C 5.175781 90.375 3.890625 89.402344 3.414062 88.015625 C 2.894531 86.488281 3.546875 84.636719 4.898438 83.792969 C 6.253906 82.945312 8.171875 83.191406 9.273438 84.355469 C 9.679688 82.019531 11.464844 79.988281 13.699219 79.3125 C 15.933594 78.636719 18.515625 79.347656 20.113281 81.074219 C 20.675781 81.683594 21.230469 82.464844 22.050781 82.511719 C 22.734375 82.546875 23.316406 82.046875 23.875 81.644531 C 25.351562 80.578125 27.292969 80.050781 29.015625 80.617188 C 30.742188 81.179688 32.089844 83.003906 31.804688 84.820312 C 33.917969 83.515625 37.121094 85.082031 37.4375 87.574219 C 38.132812 93.097656 30.617188 91.390625 27.6875 91.375 C 22.074219 91.351562 16.460938 91.324219 10.847656 91.296875 Z M 10.847656 91.296875 " fill-opacity="1" fill-rule="nonzero"/></g></g></svg>