<svg xmlns="http://www.w3.org/2000/svg" xmlns:xlink="http://www.w3.org/1999/xlink" width="2000" zoomAndPan="magnify" viewBox="0 0 1500 1499.999933" height="2000" preserveAspectRatio="xMidYMid meet" version="1.0"><defs><g/><clipPath id="b19d8018b5"><path d="M 0.285156 0.285156 L 1414.441406 0.285156 L 1414.441406 1414.441406 L 0.285156 1414.441406 Z M 0.285156 0.285156 " clip-rule="nonzero"/></clipPath><clipPath id="f77fb2e22d"><path d="M 177.050781 177.050781 L 1237.644531 177.050781 L 1237.644531 1237.644531 L 177.050781 1237.644531 Z M 177.050781 177.050781 " clip-rule="nonzero"/></clipPath><clipPath id="5503a9abb8"><path d="M 707.347656 177.050781 C 414.472656 177.050781 177.050781 414.472656 177.050781 707.347656 C 177.050781 1000.222656 414.472656 1237.644531 707.347656 1237.644531 C 1000.222656 1237.644531 1237.644531 1000.222656 1237.644531 707.347656 C 1237.644531 414.472656 1000.222656 177.050781 707.347656 177.050781 Z M 707.347656 177.050781 " clip-rule="nonzero"/></clipPath><clipPath id="65437420df"><path d="M 0.0507812 0.0507812 L 1060.644531 0.0507812 L 1060.644531 1060.644531 L 0.0507812 1060.644531 Z M 0.0507812 0.0507812 " clip-rule="nonzero"/></clipPath><clipPath id="25d68cd781"><path d="M 530.347656 0.0507812 C 237.472656 0.0507812 0.0507812 237.472656 0.0507812 530.347656 C 0.0507812 823.222656 237.472656 1060.644531 530.347656 1060.644531 C 823.222656 1060.644531 1060.644531 823.222656 1060.644531 530.347656 C 1060.644531 237.472656 823.222656 0.0507812 530.347656 0.0507812 Z M 530.347656 0.0507812 " clip-rule="nonzero"/></clipPath><clipPath id="bcf400b993"><rect x="0" width="1061" y="0" height="1061"/></clipPath><clipPath id="73d50da83d"><rect x="0" width="517" y="0" height="1308"/></clipPath><clipPath id="1eac82d78e"><rect x="0" width="1415" y="0" height="1415"/></clipPath></defs><rect x="-150" width="1800" fill="#ffffff" y="-149.999993" height="1799.99992" fill-opacity="1"/><rect x="-150" width="1800" fill="#ffffff" y="-149.999993" height="1799.99992" fill-opacity="1"/><g transform="matrix(1, 0, 0, 1, 45, 45)"><g clip-path="url(#1eac82d78e)"><g clip-path="url(#b19d8018b5)"><path fill="#fcbc5a" d="M 707.269531 0.285156 C 317.574219 0.285156 0.285156 317.574219 0.285156 707.269531 C 0.285156 1096.96875 317.574219 1414.257812 707.269531 1414.257812 C 1096.96875 1414.257812 1414.257812 1096.96875 1414.257812 707.269531 C 1414.257812 317.574219 1096.96875 0.285156 707.269531 0.285156 Z M 707.269531 128.828125 C 1027.496094 128.828125 1285.714844 387.042969 1285.714844 707.269531 C 1285.714844 1027.496094 1027.496094 1285.714844 707.269531 1285.714844 C 387.042969 1285.714844 128.828125 1027.496094 128.828125 707.269531 C 128.828125 387.042969 387.042969 128.828125 707.269531 128.828125 Z M 643 321.640625 L 643 412.652344 C 571.871094 441.148438 514.457031 497.960938 514.457031 578.726562 C 514.457031 684.453125 601.546875 771.542969 707.269531 771.542969 C 743.585938 771.542969 771.542969 799.5 771.542969 835.8125 C 771.542969 872.128906 743.585938 900.085938 707.269531 900.085938 C 670.957031 900.085938 643 872.128906 643 835.8125 L 514.457031 835.8125 C 514.457031 916.578125 571.871094 973.390625 643 1001.890625 L 643 1092.898438 L 771.542969 1092.898438 L 771.542969 1001.890625 C 842.671875 973.390625 900.085938 916.578125 900.085938 835.8125 C 900.085938 730.089844 812.996094 643 707.269531 643 C 670.957031 643 643 615.042969 643 578.726562 C 643 542.414062 670.957031 514.457031 707.269531 514.457031 C 743.585938 514.457031 771.542969 542.414062 771.542969 578.726562 L 900.085938 578.726562 C 900.085938 497.960938 842.671875 441.148438 771.542969 412.652344 L 771.542969 321.640625 Z M 643 321.640625 " fill-opacity="1" fill-rule="nonzero"/></g><g clip-path="url(#f77fb2e22d)"><g clip-path="url(#5503a9abb8)"><g transform="matrix(1, 0, 0, 1, 177, 177)"><g clip-path="url(#bcf400b993)"><g clip-path="url(#65437420df)"><g clip-path="url(#25d68cd781)"><path fill="#ffffff" d="M 0.0507812 0.0507812 L 1060.644531 0.0507812 L 1060.644531 1060.644531 L 0.0507812 1060.644531 Z M 0.0507812 0.0507812 " fill-opacity="1" fill-rule="nonzero"/></g></g></g></g></g></g><g transform="matrix(1, 0, 0, 1, 485, 51)"><g clip-path="url(#73d50da83d)"><g fill="#fcbc5a" fill-opacity="1"><g transform="translate(4.585401, 983.180091)"><g><path d="M 245.15625 -634.1875 C 304.957031 -634.1875 351.734375 -621.601562 385.484375 -596.4375 C 419.242188 -571.269531 441.453125 -535.894531 452.109375 -490.3125 L 499.1875 -490.3125 L 499.1875 -429.015625 L 460.109375 -429.015625 C 460.703125 -425.460938 461 -422.054688 461 -418.796875 C 461 -415.546875 461 -412.4375 461 -409.46875 C 461 -403.550781 460.847656 -397.78125 460.546875 -392.15625 C 460.253906 -386.53125 459.8125 -381.347656 459.21875 -376.609375 L 499.1875 -376.609375 L 499.1875 -315.328125 L 446.78125 -315.328125 C 433.164062 -273.285156 407.554688 -238.644531 369.953125 -211.40625 C 332.347656 -184.164062 278.609375 -170.546875 208.734375 -170.546875 L 191.859375 -170.546875 L 191.859375 0 L 59.515625 0 L 59.515625 -315.328125 L 8.875 -315.328125 L 8.875 -376.609375 L 59.515625 -376.609375 L 59.515625 -429.015625 L 8.875 -429.015625 L 8.875 -490.3125 L 59.515625 -490.3125 L 59.515625 -634.1875 Z M 238.9375 -527.59375 L 191.859375 -527.59375 L 191.859375 -490.3125 L 313.546875 -490.3125 C 299.929688 -515.164062 275.0625 -527.59375 238.9375 -527.59375 Z M 327.765625 -429.015625 L 191.859375 -429.015625 L 191.859375 -376.609375 L 327.765625 -376.609375 C 328.347656 -381.347656 328.640625 -385.9375 328.640625 -390.375 C 328.640625 -394.820312 328.640625 -399.707031 328.640625 -405.03125 C 328.640625 -409.175781 328.640625 -413.171875 328.640625 -417.015625 C 328.640625 -420.867188 328.347656 -424.867188 327.765625 -429.015625 Z M 308.21875 -315.328125 L 191.859375 -315.328125 L 191.859375 -277.125 L 206.078125 -277.125 C 230.347656 -277.125 250.921875 -280.082031 267.796875 -286 C 284.679688 -291.925781 298.15625 -301.703125 308.21875 -315.328125 Z M 308.21875 -315.328125 "/></g></g></g></g></g></g></g></svg>