<svg xmlns="http://www.w3.org/2000/svg" xmlns:xlink="http://www.w3.org/1999/xlink" width="378" zoomAndPan="magnify" viewBox="0 0 282.96 56.999996" height="76" preserveAspectRatio="xMidYMid meet" version="1.0"><defs><clipPath id="8c7c277c94"><path d="M 0 0.00390625 L 282.921875 0.00390625 L 282.921875 56.996094 L 0 56.996094 Z M 0 0.00390625 " clip-rule="nonzero"/></clipPath><clipPath id="cc82b1597a"><path d="M 0 0.00390625 L 282.921875 0.00390625 L 282.921875 56.882812 L 0 56.882812 Z M 0 0.00390625 " clip-rule="nonzero"/></clipPath><clipPath id="3b8a2e3926"><path d="M 0 3 L 282.921875 3 L 282.921875 51 L 0 51 Z M 0 3 " clip-rule="nonzero"/></clipPath></defs><g clip-path="url(#8c7c277c94)"><path fill="#ffffff" d="M 0 0.00390625 L 283.460938 0.00390625 L 283.460938 56.996094 L 0 56.996094 Z M 0 0.00390625 " fill-opacity="1" fill-rule="nonzero"/><path fill="#ffffff" d="M 0 0.00390625 L 283.460938 0.00390625 L 283.460938 56.996094 L 0 56.996094 Z M 0 0.00390625 " fill-opacity="1" fill-rule="nonzero"/></g><g clip-path="url(#cc82b1597a)"><path fill="#363737" d="M 118.417969 11.742188 C 69.609375 13.726562 13.140625 34.496094 -8.996094 44.628906 L -8.421875 56.859375 C 13.710938 46.722656 70.183594 25.957031 118.992188 23.972656 C 180.003906 21.496094 238.828125 34.9375 291.667969 9.910156 L 291.09375 -2.320312 C 238.257812 22.707031 179.429688 9.265625 118.417969 11.742188 Z M 118.417969 11.742188 " fill-opacity="1" fill-rule="nonzero"/></g><g clip-path="url(#3b8a2e3926)"><path fill="#ffffff" d="M -9.117188 50.285156 C -6.917969 49.277344 -4.511719 48.226562 -1.894531 47.125 L -1.667969 47.671875 C -4.277344 48.769531 -6.679688 49.820312 -8.871094 50.824219 Z M 5.394531 44.160156 C 7.792969 43.214844 10.25 42.273438 12.761719 41.335938 L 12.96875 41.890625 C 10.460938 42.824219 8.007812 43.765625 5.609375 44.710938 Z M 20.175781 38.648438 L 27.621094 36.089844 L 27.8125 36.652344 L 20.367188 39.207031 Z M 35.113281 33.65625 L 42.636719 31.355469 L 42.8125 31.921875 L 35.285156 34.226562 Z M 50.214844 29.179688 C 52.769531 28.46875 55.308594 27.789062 57.832031 27.140625 L 57.980469 27.710938 C 55.460938 28.363281 52.925781 29.039062 50.371094 29.75 Z M 65.492188 25.246094 C 68.082031 24.628906 70.648438 24.050781 73.1875 23.507812 L 73.3125 24.085938 C 70.777344 24.628906 68.214844 25.207031 65.628906 25.820312 Z M 80.914062 21.9375 C 83.539062 21.4375 86.125 20.976562 88.675781 20.554688 L 88.773438 21.140625 C 86.226562 21.5625 83.644531 22.019531 81.027344 22.519531 Z M 96.476562 19.375 C 99.132812 19.011719 101.742188 18.695312 104.308594 18.421875 L 104.371094 19.011719 C 101.8125 19.28125 99.207031 19.597656 96.558594 19.960938 Z M 112.167969 17.722656 C 114.28125 17.570312 116.363281 17.457031 118.40625 17.371094 L 120.023438 17.308594 L 120.046875 17.902344 L 118.429688 17.964844 C 116.390625 18.046875 114.316406 18.164062 112.207031 18.3125 Z M 127.90625 17.105469 L 135.78125 17.050781 L 135.785156 17.640625 L 127.910156 17.699219 Z M 143.660156 17.113281 L 151.53125 17.273438 L 151.519531 17.867188 L 143.648438 17.707031 Z M 159.410156 17.503906 L 167.292969 17.777344 L 167.273438 18.367188 L 159.390625 18.09375 Z M 175.179688 18.0625 L 183.027344 18.339844 L 183.007812 18.929688 L 175.160156 18.65625 Z M 190.886719 18.574219 L 198.753906 18.734375 L 198.742188 19.328125 L 190.875 19.164062 Z M 206.617188 18.796875 C 209.339844 18.796875 211.964844 18.773438 214.492188 18.722656 L 214.503906 19.316406 C 211.972656 19.363281 209.34375 19.390625 206.617188 19.390625 Z M 222.355469 18.484375 C 225.042969 18.367188 227.65625 18.222656 230.199219 18.042969 L 230.242188 18.632812 C 227.695312 18.8125 225.074219 18.960938 222.378906 19.074219 Z M 238.039062 17.363281 C 240.699219 17.085938 243.300781 16.769531 245.84375 16.410156 L 245.925781 16.996094 C 243.375 17.355469 240.765625 17.675781 238.097656 17.949219 Z M 253.601562 15.152344 C 256.214844 14.671875 258.78125 14.140625 261.296875 13.558594 L 261.429688 14.136719 C 258.90625 14.71875 256.332031 15.253906 253.707031 15.734375 Z M 268.90625 11.597656 C 271.449219 10.875 273.949219 10.089844 276.410156 9.25 L 276.597656 9.808594 C 274.132812 10.65625 271.621094 11.441406 269.066406 12.167969 Z M 283.765625 6.5 C 286.203125 5.511719 288.605469 4.457031 290.96875 3.335938 L 291.21875 3.871094 C 288.847656 4.996094 286.4375 6.054688 283.988281 7.046875 Z M 283.765625 6.5 " fill-opacity="1" fill-rule="nonzero"/></g></svg>