<svg xmlns="http://www.w3.org/2000/svg" xmlns:xlink="http://www.w3.org/1999/xlink" width="378" zoomAndPan="magnify" viewBox="0 0 282.96 56.999996" height="76" preserveAspectRatio="xMidYMid meet" version="1.0"><defs><clipPath id="0fbf48960f"><path d="M 0 0.00390625 L 282.921875 0.00390625 L 282.921875 56.996094 L 0 56.996094 Z M 0 0.00390625 " clip-rule="nonzero"/></clipPath><clipPath id="7ed6f9e28f"><path d="M 0 0.00390625 L 282.921875 0.00390625 L 282.921875 56.882812 L 0 56.882812 Z M 0 0.00390625 " clip-rule="nonzero"/></clipPath><clipPath id="061be165fd"><path d="M 0 0.00390625 L 282.921875 0.00390625 L 282.921875 56.882812 L 0 56.882812 Z M 0 0.00390625 " clip-rule="nonzero"/></clipPath><clipPath id="2825d01d84"><path d="M 0 3 L 282.921875 3 L 282.921875 51 L 0 51 Z M 0 3 " clip-rule="nonzero"/></clipPath><clipPath id="3c4bb7d945"><rect x="0" width="283" y="0" height="57"/></clipPath></defs><g clip-path="url(#0fbf48960f)"><path fill="#ffffff" d="M 0 0.00390625 L 283.460938 0.00390625 L 283.460938 56.996094 L 0 56.996094 Z M 0 0.00390625 " fill-opacity="1" fill-rule="nonzero"/><path fill="#ffffff" d="M 0 0.00390625 L 283.460938 0.00390625 L 283.460938 56.996094 L 0 56.996094 Z M 0 0.00390625 " fill-opacity="1" fill-rule="nonzero"/></g><g clip-path="url(#7ed6f9e28f)"><g transform="matrix(1, 0, 0, 1, 0, 0.000000000000005267)"><g clip-path="url(#3c4bb7d945)"><g clip-path="url(#061be165fd)"><path fill="#363737" d="M 164.992188 11.738281 C 213.800781 13.71875 270.273438 34.488281 292.40625 44.621094 L 291.835938 56.851562 C 269.699219 46.714844 213.230469 25.949219 164.421875 23.964844 C 103.410156 21.488281 44.585938 34.929688 -8.253906 9.902344 L -7.679688 -2.328125 C 45.15625 22.699219 103.980469 9.257812 164.992188 11.738281 Z M 164.992188 11.738281 " fill-opacity="1" fill-rule="nonzero"/></g><g clip-path="url(#2825d01d84)"><path fill="#ffffff" d="M 292.53125 50.277344 C 290.332031 49.269531 287.925781 48.21875 285.308594 47.117188 L 285.078125 47.664062 C 287.691406 48.761719 290.09375 49.8125 292.285156 50.816406 Z M 278.019531 44.152344 C 275.621094 43.207031 273.164062 42.265625 270.652344 41.328125 L 270.445312 41.882812 C 272.953125 42.816406 275.40625 43.757812 277.804688 44.703125 Z M 263.238281 38.640625 L 255.792969 36.082031 L 255.601562 36.644531 L 263.046875 39.199219 Z M 248.300781 33.652344 L 240.773438 31.347656 L 240.601562 31.914062 L 248.128906 34.21875 Z M 233.199219 29.171875 C 230.640625 28.460938 228.101562 27.78125 225.582031 27.132812 L 225.433594 27.703125 C 227.953125 28.355469 230.488281 29.035156 233.039062 29.742188 Z M 217.921875 25.238281 C 215.328125 24.625 212.765625 24.042969 210.226562 23.5 L 210.101562 24.078125 C 212.636719 24.621094 215.199219 25.199219 217.785156 25.8125 Z M 202.496094 21.929688 C 199.875 21.429688 197.289062 20.96875 194.734375 20.546875 L 194.640625 21.132812 C 197.1875 21.554688 199.769531 22.011719 202.386719 22.511719 Z M 186.933594 19.367188 C 184.28125 19.003906 181.667969 18.6875 179.101562 18.414062 L 179.039062 19.003906 C 181.601562 19.273438 184.207031 19.589844 186.855469 19.953125 Z M 171.246094 17.714844 C 169.132812 17.566406 167.050781 17.449219 165.003906 17.363281 L 163.390625 17.300781 L 163.367188 17.894531 L 164.980469 17.957031 C 167.019531 18.039062 169.097656 18.15625 171.203125 18.304688 Z M 155.507812 17.097656 L 147.632812 17.042969 L 147.628906 17.636719 L 155.503906 17.691406 Z M 139.753906 17.105469 L 131.882812 17.265625 L 131.894531 17.859375 L 139.765625 17.699219 Z M 124.003906 17.496094 L 116.121094 17.769531 L 116.140625 18.359375 L 124.023438 18.085938 Z M 108.234375 18.054688 L 100.386719 18.332031 L 100.40625 18.921875 L 108.253906 18.648438 Z M 92.527344 18.566406 L 84.660156 18.726562 L 84.671875 19.320312 L 92.539062 19.15625 Z M 76.792969 18.789062 C 74.070312 18.789062 71.449219 18.765625 68.921875 18.714844 L 68.910156 19.308594 C 71.441406 19.359375 74.066406 19.382812 76.792969 19.382812 Z M 61.058594 18.476562 C 58.371094 18.359375 55.753906 18.214844 53.210938 18.035156 L 53.171875 18.625 C 55.71875 18.804688 58.339844 18.953125 61.035156 19.066406 Z M 45.375 17.355469 C 42.714844 17.078125 40.113281 16.761719 37.570312 16.402344 L 37.488281 16.988281 C 40.035156 17.347656 42.644531 17.667969 45.3125 17.941406 Z M 29.8125 15.144531 C 27.195312 14.664062 24.632812 14.132812 22.117188 13.550781 L 21.984375 14.128906 C 24.507812 14.710938 27.082031 15.246094 29.707031 15.726562 Z M 14.507812 11.589844 C 11.960938 10.867188 9.460938 10.082031 7.003906 9.242188 L 6.8125 9.800781 C 9.28125 10.648438 11.792969 11.433594 14.34375 12.160156 Z M -0.355469 6.492188 C -2.792969 5.503906 -5.191406 4.449219 -7.554688 3.328125 L -7.808594 3.863281 C -5.433594 4.988281 -3.023438 6.046875 -0.574219 7.042969 Z M -0.355469 6.492188 " fill-opacity="1" fill-rule="nonzero"/></g></g></g></g></svg>