<svg xmlns="http://www.w3.org/2000/svg" xmlns:xlink="http://www.w3.org/1999/xlink" width="2000" zoomAndPan="magnify" viewBox="0 0 1500 1499.999933" height="2000" preserveAspectRatio="xMidYMid meet" version="1.0"><defs><clipPath id="2c99c12f1c"><path d="M 1.109375 1.109375 L 1412.890625 1.109375 L 1412.890625 1412.890625 L 1.109375 1412.890625 Z M 1.109375 1.109375 " clip-rule="nonzero"/></clipPath><clipPath id="125cd327ea"><path d="M 177.582031 177.582031 L 1236.417969 177.582031 L 1236.417969 1236.417969 L 177.582031 1236.417969 Z M 177.582031 177.582031 " clip-rule="nonzero"/></clipPath><clipPath id="5154884fd7"><path d="M 707 177.582031 C 414.609375 177.582031 177.582031 414.609375 177.582031 707 C 177.582031 999.390625 414.609375 1236.417969 707 1236.417969 C 999.390625 1236.417969 1236.417969 999.390625 1236.417969 707 C 1236.417969 414.609375 999.390625 177.582031 707 177.582031 Z M 707 177.582031 " clip-rule="nonzero"/></clipPath><clipPath id="424395ecc0"><path d="M 0.582031 0.582031 L 1059.417969 0.582031 L 1059.417969 1059.417969 L 0.582031 1059.417969 Z M 0.582031 0.582031 " clip-rule="nonzero"/></clipPath><clipPath id="790ec0c188"><path d="M 530 0.582031 C 237.609375 0.582031 0.582031 237.609375 0.582031 530 C 0.582031 822.390625 237.609375 1059.417969 530 1059.417969 C 822.390625 1059.417969 1059.417969 822.390625 1059.417969 530 C 1059.417969 237.609375 822.390625 0.582031 530 0.582031 Z M 530 0.582031 " clip-rule="nonzero"/></clipPath><clipPath id="018544e459"><rect x="0" width="1060" y="0" height="1060"/></clipPath><clipPath id="f432d274a1"><rect x="0" width="1414" y="0" height="1414"/></clipPath></defs><rect x="-150" width="1800" fill="#ffffff" y="-149.999993" height="1799.99992" fill-opacity="1"/><rect x="-150" width="1800" fill="#ffffff" y="-149.999993" height="1799.99992" fill-opacity="1"/><g transform="matrix(1, 0, 0, 1, 43, 43)"><g clip-path="url(#f432d274a1)"><g clip-path="url(#2c99c12f1c)"><path fill="#fcbc5a" d="M 707 1.109375 C 317.90625 1.109375 1.109375 317.90625 1.109375 707 C 1.109375 1096.09375 317.90625 1412.890625 707 1412.890625 C 1096.09375 1412.890625 1412.890625 1096.09375 1412.890625 707 C 1412.890625 317.90625 1096.09375 1.109375 707 1.109375 Z M 707 129.453125 C 1026.730469 129.453125 1284.546875 387.269531 1284.546875 707 C 1284.546875 1026.730469 1026.730469 1284.546875 707 1284.546875 C 387.269531 1284.546875 129.453125 1026.730469 129.453125 707 C 129.453125 387.269531 387.269531 129.453125 707 129.453125 Z M 642.828125 321.96875 L 642.828125 412.835938 C 571.808594 441.292969 514.484375 498.015625 514.484375 578.65625 C 514.484375 684.21875 601.4375 771.171875 707 771.171875 C 743.257812 771.171875 771.171875 799.085938 771.171875 835.34375 C 771.171875 871.601562 743.257812 899.515625 707 899.515625 C 670.742188 899.515625 642.828125 871.601562 642.828125 835.34375 L 514.484375 835.34375 C 514.484375 915.984375 571.808594 972.707031 642.828125 1001.164062 L 642.828125 1092.03125 L 771.171875 1092.03125 L 771.171875 1001.164062 C 842.191406 972.707031 899.515625 915.984375 899.515625 835.34375 C 899.515625 729.78125 812.5625 642.828125 707 642.828125 C 670.742188 642.828125 642.828125 614.914062 642.828125 578.65625 C 642.828125 542.398438 670.742188 514.484375 707 514.484375 C 743.257812 514.484375 771.171875 542.398438 771.171875 578.65625 L 899.515625 578.65625 C 899.515625 498.015625 842.191406 441.292969 771.171875 412.835938 L 771.171875 321.96875 Z M 642.828125 321.96875 " fill-opacity="1" fill-rule="nonzero"/></g><g clip-path="url(#125cd327ea)"><g clip-path="url(#5154884fd7)"><g transform="matrix(1, 0, 0, 1, 177, 177)"><g clip-path="url(#018544e459)"><g clip-path="url(#424395ecc0)"><g clip-path="url(#790ec0c188)"><path fill="#ffffff" d="M 0.582031 0.582031 L 1059.417969 0.582031 L 1059.417969 1059.417969 L 0.582031 1059.417969 Z M 0.582031 0.582031 " fill-opacity="1" fill-rule="nonzero"/></g></g></g></g></g></g><path fill="#fcbc5a" d="M 594.3125 958.65625 L 365.988281 730.332031 C 352.269531 716.613281 352.269531 694.375 365.988281 680.65625 L 415.664062 630.976562 C 429.382812 617.257812 451.625 617.257812 465.339844 630.976562 L 619.152344 784.785156 L 948.597656 455.34375 C 962.3125 441.625 984.554688 441.625 998.273438 455.34375 L 1047.949219 505.019531 C 1061.667969 518.738281 1061.667969 540.980469 1047.949219 554.695312 L 643.992188 958.65625 C 630.273438 972.375 608.03125 972.375 594.3125 958.65625 Z M 594.3125 958.65625 " fill-opacity="1" fill-rule="nonzero"/></g></g></svg>