<?xml version="1.0" encoding="utf-8" ?><svg xmlns="http://www.w3.org/2000/svg" xmlns:xlink="http://www.w3.org/1999/xlink" width="1792" height="1024" viewBox="0 0 1792 1024"><path fill="#0F3D40" transform="scale(1.33333 1.33333)" d="M172.983 0L177.127 0C225.644 54.0148 255.291 78.0803 324.889 103.352C318.552 96.4348 315.012 92.2784 311.669 83.2242C317.521 85.5267 325.286 91.1682 330.828 94.7031C336.883 98.4846 343.133 101.944 349.552 105.066C372.915 116.331 398.943 122.253 422.532 133.509C438.386 141.075 452.962 152.953 468.567 160.254C487.11 168.929 505.798 178.707 524.278 187.266C557.917 202.846 593.719 216.34 628.992 227.714C635.868 229.859 651.416 230.425 658.452 229.674C662.913 228.787 673.35 228.339 678.736 227.553C698.013 224.739 716.083 221.073 735.661 223.354C776.195 214.258 820.21 194.184 860.037 180.84C886.33 172.031 904.273 157.361 934.401 153.661C942.76 151.952 950.411 150.472 958.605 148.025C971.368 143.661 981.602 139.904 993.214 133.073C994.836 132.119 995.84 131.836 997.468 132.344C997.958 135.493 992.451 143.177 990.615 146.094C1004.33 143.534 1015.18 137.856 1027.63 132.224C1070.24 112.942 1093.91 96.954 1121.54 58.2978L1122.44 58.3846C1125.68 68.7783 1104.97 93.9979 1098.3 100.885C1092.97 105.915 1088.85 109.738 1083.04 114.303C1087.97 112.224 1096.31 106.983 1100.92 103.929C1112.59 96.1893 1122.7 88.0397 1132.87 78.499C1135.41 76.1187 1144.38 67.3648 1146.45 66.4214C1151.49 72.0544 1123.28 99.7079 1118.66 103.689C1113.78 107.84 1108.81 111.869 1103.73 115.772C1099.23 118.779 1092.14 122.85 1088.27 125.848C1092.43 124.272 1097.94 122.354 1101.77 120.385C1113.55 115.758 1126.89 108.632 1138.13 102.665C1143.77 99.6734 1152.14 93.8889 1157.59 91.6821C1143.63 120.021 1103.5 131.948 1078.44 145.239C1101.62 140.897 1123.1 134.161 1145.29 126.272C1146.6 125.805 1148.82 125.162 1150.13 125.732C1149.39 128.582 1140.72 136.292 1137.95 137.877C1125 145.287 1110.68 151.663 1096.57 156.576C1087.79 159.63 1076.58 161.786 1068.53 165.676C1084.38 166.078 1100.55 161.372 1116.11 158.732C1119.86 158.097 1127.49 153.961 1130.14 156.066C1127.56 170.314 1066 181.394 1064.66 182.774C1070.47 186.03 1099.18 182.575 1100.89 186.744C1097.51 191.699 1078.92 199.63 1072.39 200.632C1066.45 201.543 1059.83 201.895 1053.85 202.805C1056.42 204.163 1059.4 205.443 1061.15 207.703C1061.79 209.956 1061.84 209.015 1060.91 211.242C1054.61 217.002 1037.87 217.528 1029.82 217.903C1031.1 219.697 1032.92 221.383 1032.68 223.749C1032.51 225.361 1031.36 226.815 1030.01 227.622C1023.63 231.446 1016.55 228.842 1010.1 230.848C1005.43 232.3 1012.11 241.447 989.924 238.237C987.691 250.961 979.688 252.045 968.184 249.743C966.54 249.41 964.901 249.052 963.267 248.67C959.207 260.818 953.016 264.022 942.443 256.576C936.997 267.468 933.871 277.853 919.985 269.758L919.667 269.572C915.857 277.668 912.38 284.211 902.041 278.941C900.754 278.272 899.484 277.571 898.232 276.838C891.306 286.802 887.846 293.824 875.475 285.441C871.512 290.387 867.057 297.795 860.345 298.96C855.974 298.596 855.167 293.35 850.503 294.903C843.126 306.693 839.382 315.19 826.673 300.275C821.126 308.21 814.668 322.121 803.788 314.482C803.073 313.977 802.364 313.463 801.662 312.941C795.233 320.704 788.688 331.673 779.96 319.5C775.638 324.703 772.838 328.782 766.284 331.057C763.974 330.186 761.317 329.26 759.132 328.184C752.078 335.139 750.227 339.549 741.338 332.617C730.764 348.755 725.643 336.966 722.647 337.486C715.437 338.737 709.072 357.526 699.87 339.747C694.092 346.335 687.947 353.643 682.041 360.034C677.214 385.447 656.639 398.535 639.122 417.138C635.877 427.766 646.973 456.918 626.111 456.944C623.652 457.84 622.706 460.073 619.73 461.487C613.312 459.086 609.451 458.488 606.162 452.42C603.759 448.287 602.543 447.21 598.022 448.32C596.403 449.737 595.102 450.582 593.187 451.561C586.969 454.741 582.655 460.768 576.715 453.813L574.648 451.019C568.314 449.969 568.071 448.993 566.419 442.974C566.377 442.265 567.063 436.168 567.165 435.045L567.278 432.927C566.751 431.523 566.08 430.746 565.204 429.514C561.613 434.527 556.553 443.336 550.094 444.269L546.388 442.986C545.167 444.172 543.923 445.421 542.664 446.558C540.117 448.309 538.618 449.189 535.598 448.105C529.688 442.691 537.441 435.122 541.119 429.999L543.005 426.23C535.298 432.423 524.459 444.656 513.67 442.454C506.7 438.831 509.657 433.899 513.17 428.914C516.201 425.285 518.404 422.839 519.884 418.335L519.314 418.575C512.783 421.354 506.952 425.758 499.913 427.523C497.551 428.115 495.271 427.891 493.305 428.239C483.632 419.357 506.74 414.433 507.169 403.313C502.047 405.603 486.16 413.576 481.746 410.676C478.601 398.318 497.139 395.218 504.198 387.582L503.969 386.274C491.196 391.022 486.277 389.858 474.222 391.981C471.846 390.768 470.641 390.094 469.609 387.82C471.183 384.579 483.414 381.469 487.509 380.102C517.995 369.924 541.913 357.461 569.082 340.722C570.696 339.431 571.856 337.937 573.181 336.362L572.943 335.587C564.45 337.954 557.266 341.726 553.653 330.9C544.964 335.242 541.501 339.021 536.584 328.835C524.821 335.811 520.899 332.477 520.334 319.563C507.937 327.01 498.832 332.713 492.4 315.159C487.272 317.936 479.56 321.223 474.349 317.165C471.799 315.179 472.014 312.526 471.8 309.567C461.141 313.001 457.069 315.582 453.494 302.726C444.989 307.026 436.939 310.87 437.799 296.811C428.277 293.356 417.25 314.722 414.692 283.963C410.361 285.724 405.084 287.945 400.42 288.198C391.33 288.689 392.524 278.389 392.555 272.481C383.334 275.507 369.01 282.565 368.469 267.164C354.457 271.551 349.228 271.008 346.956 255.516C334.924 259.863 312.139 263.421 321.774 242.474C310.584 246.181 307.471 246.121 295.67 245.221C289.24 238.828 290.752 236.72 294.985 229.315C280.112 230.327 275.476 231.036 278.294 214.516C268.122 214.84 237.912 217.842 253.083 199.455C239.167 197.364 233.804 200.164 221.937 188.334C225.12 184.331 226.733 182.967 230.55 179.809C222.802 178.648 190.812 176.58 192.11 166.056C194.389 162.29 198.794 160.977 202.86 159.207C196.191 158.289 174.615 156.262 172.187 148.942C175.733 142.705 190.787 145.416 200.823 140.109C189.532 138.924 142.56 135.547 139.478 122.942C139.716 122.596 139.953 122.25 140.19 121.904C154.122 119.404 191.415 123.399 203.067 119.211C198.346 115.806 191.069 115.103 185.788 113.257C155.941 102.822 131.356 101.851 111.407 75.6924C120.552 76.7635 135.463 82.2422 144.943 85.0084C163.472 90.4157 179.945 95.0647 199.126 97.8695C194.045 95.1157 184.377 91.3057 178.66 88.7152C167.579 83.7819 156.978 77.8362 146.99 70.9537C137.884 64.7657 118.477 49.69 116.352 38.526L116.9 37.8258C126.516 40.4522 147.226 54.1516 157.061 59.4607C173.175 68.1599 189.046 76.2118 206.409 82.4061C181.485 65.9845 144.514 40.593 137.376 9.82246C136.875 7.66009 136.44 5.91708 137.578 4.10379C140.985 4.38362 155.228 19.7226 158.542 22.9094C179.33 42.904 197.452 54.8123 221.853 69.4149C218.739 65.7425 212.123 59.9959 208.351 56.197C192.137 39.8653 178.637 22.6815 172.983 0Z"/><path fill="#E6DCB8" transform="scale(1.33333 1.33333)" d="M474.222 391.981C471.846 390.768 470.641 390.094 469.609 387.82C471.183 384.579 483.414 381.469 487.509 380.102C517.995 369.924 541.913 357.461 569.082 340.722C570.86 345.653 571.046 348.211 569.657 353.524C569.192 355.714 567.06 361.925 568.136 363.43C572.307 367.498 567.967 372.002 566.328 376.868L564.393 381.027C563.734 383.2 562.715 386.195 562.458 388.347C564.405 389.03 565.227 389.291 567.289 389.162C568.876 390.437 569.392 391.156 568.658 393.288C567.682 396.125 567.837 399.158 567.222 401.96C567.676 403.764 568.086 405.357 568.398 407.203C571.768 405.382 572.588 403.5 576.083 401.276L576.855 401.628C576.031 404.305 575.335 408.284 577.828 410.201C579.981 409.363 581.562 407.37 583.236 405.654C584.627 407.995 583.501 413.056 583.033 415.886C580.583 417.484 578.574 418.873 575.918 420.102L575.567 420.42C569.454 424.74 568.629 425.502 567.278 432.927C566.751 431.523 566.08 430.746 565.204 429.514C561.613 434.527 556.553 443.336 550.094 444.269L546.388 442.986C545.167 444.172 543.923 445.421 542.664 446.558C540.117 448.309 538.618 449.189 535.598 448.105C529.688 442.691 537.441 435.122 541.119 429.999L543.005 426.23C535.298 432.423 524.459 444.656 513.67 442.454C506.7 438.831 509.657 433.899 513.17 428.914C516.201 425.285 518.404 422.839 519.884 418.335L519.314 418.575C512.783 421.354 506.952 425.758 499.913 427.523C497.551 428.115 495.271 427.891 493.305 428.239C483.632 419.357 506.74 414.433 507.169 403.313C502.047 405.603 486.16 413.576 481.746 410.676C478.601 398.318 497.139 395.218 504.198 387.582L503.969 386.274C491.196 391.022 486.277 389.858 474.222 391.981Z"/><path fill="#F3EFE1" transform="scale(1.33333 1.33333)" d="M523.514 383.009C530.408 384.206 547.235 372.695 553.433 368.612L553.889 369.489C552.167 373.825 544.624 380.588 540.336 383.072C539.869 385.057 539.79 384.21 540.909 386.302L542.247 386.756C544.135 385.386 546.07 383.806 548.223 382.962L548.965 383.327C549.132 388.798 543.782 389.065 544.102 393.791C547.912 396.038 553.535 387.39 557.006 387.389C557.688 387.79 558.364 388.201 559.035 388.62C558.108 390.813 555.52 394.41 554.105 396.52L553.425 396.563L552.722 394.915L549.625 397.143C548.585 396.452 548.591 396.417 547.766 395.466C546.982 396.059 546.993 395.885 546.543 396.665C547.858 401.206 548.692 397.899 550.144 401.198C548.219 404.248 545.739 408.152 542.394 409.726L540.884 409.457C539.181 406.763 543.012 403.109 544.771 400.592L544.161 400.712C540.398 401.434 538.442 400.461 536.099 401.235L536.397 402.742C532.605 407.496 528.197 411.125 523.432 414.861C521.788 415.99 520.104 416.63 519.748 418.147L519.884 418.335L519.314 418.575C512.783 421.354 506.952 425.758 499.913 427.523C497.551 428.115 495.271 427.891 493.305 428.239C483.632 419.357 506.74 414.433 507.169 403.313C502.047 405.603 486.16 413.576 481.746 410.676C483.394 409.611 490.998 406.774 493.452 405.824C500.149 403.229 504.022 401.312 510.09 397.579L509.218 395.485L507.26 394.952C508.929 391.565 519.856 386.097 523.243 383.242L523.514 383.009Z"/><defs><linearGradient id="gradient_0" gradientUnits="userSpaceOnUse" x1="517.0213" y1="422.69623" x2="513.79871" y2="405.55893"><stop offset="0" stop-color="#2A4347"/><stop offset="1" stop-color="#566D62"/></linearGradient></defs><path fill="url(#gradient_0)" transform="scale(1.33333 1.33333)" d="M493.305 428.239C498.538 423.528 510.632 419.36 517.413 414.942C521.877 412.033 532.471 402.114 536.099 401.235L536.397 402.742C532.605 407.496 528.197 411.125 523.432 414.861C521.788 415.99 520.104 416.63 519.748 418.147L519.884 418.335L519.314 418.575C512.783 421.354 506.952 425.758 499.913 427.523C497.551 428.115 495.271 427.891 493.305 428.239Z"/><path fill="#1E4C4D" transform="scale(1.33333 1.33333)" d="M510.09 397.579C516.137 394.902 520.606 391.186 526.182 388.703C519.141 397.334 509.901 400.223 507.169 403.313C502.047 405.603 486.16 413.576 481.746 410.676C483.394 409.611 490.998 406.774 493.452 405.824C500.149 403.229 504.022 401.312 510.09 397.579Z"/><path fill="#E6DCB8" transform="scale(1.33333 1.33333)" d="M519.162 407.451L519.903 407.81L519.693 408.746C517.194 411.135 510.696 413.826 507.38 414.929L506.683 414.844L506.433 414.181C507.526 412.892 515.013 410.341 519.162 407.451Z"/><path fill="#E7E5DB" transform="scale(1.33333 1.33333)" d="M474.222 391.981C471.846 390.768 470.641 390.094 469.609 387.82C471.183 384.579 483.414 381.469 487.509 380.102C517.995 369.924 541.913 357.461 569.082 340.722C570.86 345.653 571.046 348.211 569.657 353.524L567.259 356.596C566.142 354.975 566.193 351.836 565.976 349.597C564.035 349.611 554.313 356.858 551.324 358.74L551.405 359.64L553.138 360.069C553.09 361.428 553.108 361.341 552.546 362.581C554.436 364.677 555.54 362.989 557.711 365.13C556.899 366.961 557.387 366.32 555.736 367.465C554.696 367.008 554.21 366.769 553.228 366.205C551.088 367.937 548.946 370.534 546.623 370.881L545.509 370.219C545.908 369.373 546.259 368.646 546.702 367.816C544.421 365.555 543.171 363.353 540.313 363.765C536.178 364.361 534.064 366.007 531.105 368.597L530.568 370.738C527.902 371.402 525.708 371.841 523.222 373.039L522.598 374.297C523.723 375.661 523.093 375.283 525 375.571C528.706 374.308 528.949 371.756 532.215 371.362C533.859 372.49 533.329 371.873 534.163 373.783C533.514 378.585 526.726 379.993 523.514 383.009L523.243 383.242C519.856 386.097 508.929 391.565 507.26 394.952L509.218 395.485L510.09 397.579C504.022 401.312 500.149 403.229 493.452 405.824C490.998 406.774 483.394 409.611 481.746 410.676C478.601 398.318 497.139 395.218 504.198 387.582L503.969 386.274C491.196 391.022 486.277 389.858 474.222 391.981Z"/><path fill="#1E4C4D" transform="scale(1.33333 1.33333)" d="M474.222 391.981C474.604 391.644 475.001 391.329 475.383 390.994C476.876 389.687 503.196 383.49 507.226 382.942L507.255 383.615C506.179 384.525 505.083 385.411 503.969 386.274C491.196 391.022 486.277 389.858 474.222 391.981Z"/><path fill="#F3EFE1" transform="scale(1.33333 1.33333)" d="M521.775 422.387C523.8 420.697 525.275 419.525 527.441 418.028C527.202 415.506 525.28 416.041 526.908 414.146C528.226 412.612 531.113 410.181 532.69 408.775C534.539 409.409 536.22 413.744 535.263 415.753C534.044 418.312 532.087 419.368 531.609 422.268L535.092 422.187C534.507 424.924 533.978 425.321 532.098 427.355C531.016 432.447 528.877 430.707 526.852 434.803L522.884 436.892L522.328 437.21C517.839 439.753 514.982 438.671 513.67 442.454C506.7 438.831 509.657 433.899 513.17 428.914C516.201 425.285 518.404 422.839 519.884 418.335L519.748 418.147C520.104 416.63 521.788 415.99 523.432 414.861C522.99 416.36 522.607 417.008 521.658 418.248L522.047 417.962L521.002 421.25L521.775 422.387Z"/><defs><linearGradient id="gradient_1" gradientUnits="userSpaceOnUse" x1="527.72186" y1="432.56281" x2="524.48383" y2="428.37918"><stop offset="0" stop-color="#EFEFE7"/><stop offset="1" stop-color="#E3D9AF"/></linearGradient></defs><path fill="url(#gradient_1)" transform="scale(1.33333 1.33333)" d="M525.409 427.63C528.501 426.663 528.912 426.705 532.098 427.355C531.016 432.447 528.877 430.707 526.852 434.803L522.884 436.892C522.389 433.936 520.914 434.84 521.09 431.86C523.574 430.386 523.96 430.064 525.409 427.63Z"/><path fill="#EAE2C9" transform="scale(1.33333 1.33333)" d="M523.432 414.861C522.99 416.36 522.607 417.008 521.658 418.248L522.047 417.962L521.002 421.25L521.775 422.387L522.356 424.332C518.325 426.371 519.521 433.8 513.17 428.914C516.201 425.285 518.404 422.839 519.884 418.335L519.748 418.147C520.104 416.63 521.788 415.99 523.432 414.861Z"/><path fill="#EAE2C9" transform="scale(1.33333 1.33333)" d="M531.609 422.268L535.092 422.187C534.507 424.924 533.978 425.321 532.098 427.355C528.912 426.705 528.501 426.663 525.409 427.63C526.776 426.32 527.439 425.34 528.638 423.902C530.276 423.45 530.32 423.414 531.609 422.268Z"/><defs><linearGradient id="gradient_2" gradientUnits="userSpaceOnUse" x1="534.58673" y1="433.41226" x2="530.10339" y2="424.36905"><stop offset="0" stop-color="#2D483F"/><stop offset="1" stop-color="#5C6D63"/></linearGradient></defs><path fill="url(#gradient_2)" transform="scale(1.33333 1.33333)" d="M540.362 423.62L540.689 423.328C543.396 420.862 547.514 415.56 549.964 414.035L550.403 414.651C549.56 416.164 542.994 426.175 543.005 426.23C535.298 432.423 524.459 444.656 513.67 442.454C514.982 438.671 517.839 439.753 522.328 437.21L522.884 436.892L526.852 434.803C528.877 430.707 531.016 432.447 532.098 427.355C533.978 425.321 534.507 424.924 535.092 422.187C535.38 418.789 534.814 419.728 536.877 417.485C539.934 416.842 540.059 418.037 541.698 420.529C540.994 421.953 540.962 421.936 539.872 423.12L540.362 423.62Z"/><path fill="#E7E5DB" transform="scale(1.33333 1.33333)" d="M535.092 422.187C535.38 418.789 534.814 419.728 536.877 417.485C539.934 416.842 540.059 418.037 541.698 420.529C540.994 421.953 540.962 421.936 539.872 423.12L540.362 423.62C537.689 426.785 530.563 433.132 526.852 434.803C528.877 430.707 531.016 432.447 532.098 427.355C533.978 425.321 534.507 424.924 535.092 422.187Z"/><path fill="#E7E5DB" transform="scale(1.33333 1.33333)" d="M568.398 407.203C571.768 405.382 572.588 403.5 576.083 401.276L576.855 401.628C576.031 404.305 575.335 408.284 577.828 410.201C579.981 409.363 581.562 407.37 583.236 405.654C584.627 407.995 583.501 413.056 583.033 415.886C580.583 417.484 578.574 418.873 575.918 420.102L575.567 420.42C573.928 419.786 572.792 419.036 572.046 417.492L572.735 416.276C574.503 415.677 575.094 415.283 576.697 414.307L576.916 413.497C575.059 412.692 574.806 412.585 572.791 412.623C571.441 414.426 571.236 415.119 569.02 415.148L568.058 412.717C567.208 413.373 566.824 413.818 565.758 413.91C566.378 410.639 567.899 411.047 568.398 407.203Z"/><path fill="#F3EFE1" transform="scale(1.33333 1.33333)" d="M576.697 414.307L577.313 415.53C578.73 414.592 579.293 413.939 580.498 412.725L581.221 413.364L581.222 415.346C578.134 418.358 576.411 416.243 575.571 419.15L575.918 420.102L575.567 420.42C573.928 419.786 572.792 419.036 572.046 417.492L572.735 416.276C574.503 415.677 575.094 415.283 576.697 414.307Z"/><path fill="#F3EFE1" transform="scale(1.33333 1.33333)" d="M536.391 442.649C542.517 438.34 542.203 434.367 550.369 429.468L550.916 430.043C550.277 434.546 546.58 440.066 542.982 442.942C541.733 443.241 541.108 443.361 539.836 443.528L539.706 444.632C540.749 445.561 541.305 446.254 542.664 446.558C540.117 448.309 538.618 449.189 535.598 448.105C529.688 442.691 537.441 435.122 541.119 429.999C541.25 434.675 538.64 438.545 536.391 442.649Z"/><path fill="#F3EFE1" transform="scale(1.33333 1.33333)" d="M567.222 401.96C563.267 401.958 563.15 399.223 561.503 395.836C560.336 395.856 558.697 397.892 557.628 398.914C556.349 394.564 558.417 391.881 560.82 388.49L562.458 388.347C564.405 389.03 565.227 389.291 567.289 389.162C568.876 390.437 569.392 391.156 568.658 393.288C567.682 396.125 567.837 399.158 567.222 401.96Z"/><path fill="#1E4C4D" transform="scale(1.33333 1.33333)" d="M557.583 434.127C559.344 431.365 565.475 420.311 568.359 420.827C568.79 422.295 565.886 426.83 564.914 428.654L565.204 429.514C561.613 434.527 556.553 443.336 550.094 444.269C551.443 441.039 555.231 436.944 557.583 434.127Z"/><path fill="#F3EFE1" transform="scale(1.33333 1.33333)" d="M563.164 370.204C564.445 367.823 565.801 364.472 568.136 363.43C572.307 367.498 567.967 372.002 566.328 376.868C565.835 376.155 565.306 375.844 564.613 375.292C564.186 373.115 563.893 372.244 563.164 370.204Z"/><path fill="#E7E5DB" transform="scale(1.33333 1.33333)" d="M546.388 442.986C547.743 440.832 549.588 437.566 551.571 436.137C552.544 435.436 553.53 434.753 554.528 434.089C554.247 432.584 553.903 431.996 553.262 430.59L554.04 429.53C555.817 430.229 554.15 430.691 557.583 434.127C555.231 436.944 551.443 441.039 550.094 444.269L546.388 442.986Z"/><path fill="#E7E5DB" transform="scale(1.33333 1.33333)" d="M564.393 381.027C561.719 380.059 559.583 379.591 558.339 377.095C559.015 376.525 559.115 376.488 559.919 376.195L560.611 375.949C561.253 374.111 561.77 372.553 562.298 370.66L563.164 370.204C563.893 372.244 564.186 373.115 564.613 375.292C565.306 375.844 565.835 376.155 566.328 376.868L564.393 381.027Z"/><path fill="#E7E5DB" transform="scale(1.33333 1.33333)" d="M563.333 408.101C565.892 411.158 559.787 422.608 557.161 424.916L556.462 423.046C558.844 417.576 559.861 412.838 563.333 408.101Z"/><path fill="#E7E5DB" transform="scale(1.33333 1.33333)" d="M554.452 399.476L555.694 400.456C555.39 403.282 553.853 408.23 551.475 410.152L549.82 407.122C549.881 404.383 552.584 401.824 554.452 399.476Z"/><path fill="#F3EFE1" transform="scale(1.33333 1.33333)" d="M658.452 229.674C662.913 228.787 673.35 228.339 678.736 227.553C698.013 224.739 716.083 221.073 735.661 223.354C743.257 227.145 751.399 228.172 754.186 237.557C750.144 240.404 747.241 244.793 743.983 246.708C739.499 249.344 727.884 248.06 724.195 252.127C725.689 257.043 737.844 260.574 742.598 262.389C731.109 268.979 725.199 276.732 721.287 289.358C720.197 292.876 718.257 302.139 714.483 303.135C711.778 301.547 710.904 296.469 710.253 293.629C706.776 297.019 703.239 301.253 698.665 302.528C693.519 301.245 694.795 294.201 694.878 289.815C690.999 292.443 682.207 299.657 677.669 297.802C675.667 294.099 679.057 284.204 680.222 279.829C675.145 282.091 667.122 285.789 661.715 284.433C657.461 280.249 666.913 271.996 669.925 268.829C665.749 269.043 653.018 270.751 651.638 266.485C652.986 262.479 661.021 257.055 664.53 254.391C660.189 253.242 655.887 251.95 651.632 250.517C656.667 245.12 661.09 243.291 667.673 240.658C661.894 237.067 660.541 236.052 658.452 229.674Z"/><path fill="#113E41" transform="scale(1.33333 1.33333)" d="M727.656 233.573C730.941 233.435 739.236 235.718 741.354 238.305L740.489 239.582C731.46 245.872 730.186 241.946 727.656 233.573Z"/><path fill="#F3EFE1" transform="scale(1.33333 1.33333)" d="M597.77 406.37C598.818 405.303 601.818 401.03 602.708 399.741C608.113 391.913 611.341 390.742 619.611 386.864L619.416 394.296L619.496 395.041C620.171 401.762 616.847 413.735 619.27 417.452C621.712 418.311 622.786 417.213 624.709 415.589C626.87 412.562 634.033 407.299 637.503 411.075C638.607 412.275 638.906 415.482 639.122 417.138C635.877 427.766 646.973 456.918 626.111 456.944C623.652 457.84 622.706 460.073 619.73 461.487C613.312 459.086 609.451 458.488 606.162 452.42C603.759 448.287 602.543 447.21 598.022 448.32C596.403 449.737 595.102 450.582 593.187 451.561C586.969 454.741 582.655 460.768 576.715 453.813L574.648 451.019C568.314 449.969 568.071 448.993 566.419 442.974C566.377 442.265 567.063 436.168 567.165 435.045L567.278 432.927C568.629 425.502 569.454 424.74 575.567 420.42L575.918 420.102C578.574 418.873 580.583 417.484 583.033 415.886C583.501 413.056 584.627 407.995 583.236 405.654C587.354 398.2 589.131 397.489 597.089 394.747C597.174 398.605 597.145 402.572 597.77 406.37Z"/><path fill="#ECA010" transform="scale(1.33333 1.33333)" d="M583.236 405.654C587.354 398.2 589.131 397.489 597.089 394.747C597.174 398.605 597.145 402.572 597.77 406.37L597.116 407.9C596.25 412.25 597.212 415.902 598.24 420.197L600.756 430.093C601.797 438.311 602.239 440.875 598.022 448.32C596.403 449.737 595.102 450.582 593.187 451.561C586.969 454.741 582.655 460.768 576.715 453.813L574.648 451.019C568.314 449.969 568.071 448.993 566.419 442.974C566.377 442.265 567.063 436.168 567.165 435.045L567.278 432.927C568.629 425.502 569.454 424.74 575.567 420.42L575.918 420.102C578.574 418.873 580.583 417.484 583.033 415.886C583.501 413.056 584.627 407.995 583.236 405.654Z"/><path fill="#F3EFE1" transform="scale(1.33333 1.33333)" d="M567.165 435.045L568.767 434.335C570.012 435.422 570.237 435.703 571.181 437.063C573.04 436.964 572.374 437.109 574.061 435.421C574.744 432.434 574.929 426.602 579.558 427.464C581.261 431.17 577.061 440.853 573.972 443.39C570.475 444.171 569.018 442.778 566.419 442.974C566.377 442.265 567.063 436.168 567.165 435.045Z"/><path fill="#E7E5DB" transform="scale(1.33333 1.33333)" d="M574.648 451.019C585.41 447.99 585.902 436.249 589.846 427.121C588.513 434.507 587.179 445.646 582.429 451.173C580.759 452.123 580.295 452.001 578.346 451.892C577.656 452.58 577.205 452.952 576.715 453.813L574.648 451.019Z"/><path fill="#ECA010" transform="scale(1.33333 1.33333)" d="M624.709 415.589C626.87 412.562 634.033 407.299 637.503 411.075C638.607 412.275 638.906 415.482 639.122 417.138C635.877 427.766 646.973 456.918 626.111 456.944C623.652 457.84 622.706 460.073 619.73 461.487C613.312 459.086 609.451 458.488 606.162 452.42C609.518 450.554 613.429 453.229 616.333 450.838C619.976 447.839 622.598 438.969 623.178 434.394C615.13 430.133 612.168 441.094 609.202 442.288C602.848 439.71 609.553 428.414 616.55 427.323C621.06 426.621 628.714 421.912 624.709 415.589Z"/><path fill="#D88E11" transform="scale(1.33333 1.33333)" d="M619.73 461.487C621.495 455.973 626.123 451.786 629.365 446.186C628.592 450.703 625.46 454.289 626.111 456.944C623.652 457.84 622.706 460.073 619.73 461.487Z"/><path fill="#E7E5DB" transform="scale(1.33333 1.33333)" d="M597.77 406.37C598.818 405.303 601.818 401.03 602.708 399.741C608.113 391.913 611.341 390.742 619.611 386.864L619.416 394.296C617.68 391.611 619.698 391.175 618.226 389.514C617.539 389.844 616.056 390.343 615.978 391.118C615.124 399.564 619.161 398.709 614.4 406.291C612.165 409.852 613.899 424.27 607.568 426.766C606.743 427.181 605.229 427.182 604.303 427.179L602.108 427.702L600.756 430.093L598.24 420.197C597.212 415.902 596.25 412.25 597.116 407.9L597.77 406.37Z"/><path fill="#EAE2C9" transform="scale(1.33333 1.33333)" d="M602.84 412.632L604.624 413.486C605.35 415.783 604.299 416.575 603.835 419.435L604.469 419.649L605.828 418.906C604.649 420.911 603.039 423.077 603.118 425.33C603.443 425.748 603.98 426.501 604.348 426.821L604.303 427.179L602.108 427.702L600.756 430.093L598.24 420.197C598.749 417.955 598.528 417.068 599.962 415.733L601.77 416.652L602.43 416.164L602.84 412.632Z"/><path fill="#E6DCB8" transform="scale(1.33333 1.33333)" d="M597.116 407.9C597.885 409.029 598.56 409.991 599.392 411.074C602.732 409.934 601.561 406.474 604.113 407.337C604.608 410.743 600.936 410.898 602.84 412.632L602.43 416.164L601.77 416.652L599.962 415.733C598.528 417.068 598.749 417.955 598.24 420.197C597.212 415.902 596.25 412.25 597.116 407.9Z"/><path fill="#E6DCB8" transform="scale(1.33333 1.33333)" d="M605.828 418.906L607.495 415.793L608.032 415.91C607.465 418.839 605.735 424.141 604.348 426.821C603.98 426.501 603.443 425.748 603.118 425.33C603.039 423.077 604.649 420.911 605.828 418.906Z"/><path fill="#ECA010" transform="scale(1.33333 1.33333)" d="M754.186 237.557C758.696 244.451 777.4 247.533 774.521 261.441C773.521 266.27 771.487 271.948 767.588 275.115L765.972 275.389C763.989 273.295 764.704 271.192 764.884 268.331C763.025 267.778 759.393 267.021 758.415 265.656C752.976 263.379 748.339 262.937 742.598 262.389C737.844 260.574 725.689 257.043 724.195 252.127C727.884 248.06 739.499 249.344 743.983 246.708C747.241 244.793 750.144 240.404 754.186 237.557Z"/><path fill="#2A2A26" transform="scale(1.33333 1.33333)" d="M758.415 265.656C755.77 260.951 743.916 258.502 740.644 255.113C745.887 252.278 761.799 262.477 764.625 267.829L764.884 268.331C763.025 267.778 759.393 267.021 758.415 265.656Z"/><path fill="#1E4C4D" transform="scale(1.33333 1.33333)" d="M934.401 153.661C942.76 151.952 950.411 150.472 958.605 148.025C957.923 150.045 956.114 152.436 954.559 153.879C954.723 155.068 954.786 155.536 954.797 156.769C952.911 157.046 949.023 157.611 947.297 157.871C946.493 157.993 944.181 161.342 941.849 161.398C941.218 159.797 941.293 159.704 941.686 157.959L944.42 156.189L943.688 156.768L942.672 154.986C940.216 154.61 936.74 154.174 934.401 153.661Z"/><path fill="#1E4C4D" transform="scale(1.33333 1.33333)" d="M321.725 171.208C324.424 172.029 325.869 171.499 328.929 172.876L328.724 173.42C327.226 174.116 326.367 174.311 325.475 175.617L328.232 175.767C329.043 177.641 329.377 178.055 330.641 179.659L330.275 181.76C329.236 181.901 328.724 181.436 327.799 180.895L327.82 180.876C328.522 184.305 329.447 182.55 330.51 185.145L329.374 186.324C328.898 187.671 329.097 188.129 329.459 189.429L328.993 190.164C326.616 190.788 326.903 190.359 324.101 189.2L323.615 189.726C324.361 191.098 324.608 191.275 326.028 191.915C325.18 192.751 320.98 193.152 319.599 193.524C313.811 195.085 316.03 199.51 309.21 197.848C306.618 199.067 309.194 198.917 306.426 201.528C304.098 201.901 302.241 202.151 300.866 200.046C302.295 197.542 305.974 197.48 308.138 195.358C308.439 195.063 307.039 194.048 307.747 192.268L316.31 192.617C317.3 190.643 315.262 188.478 315.526 186.422C315.882 183.649 318.028 183.357 317.938 180.311C314.397 179.386 315.786 182.394 308.863 181.301C306.494 182.257 307.273 181.623 305.845 183.63C304.697 183.97 304.87 183.998 303.875 184.758C300.267 184.968 294.628 187.827 290.826 189.388C285.268 191.669 278.806 193.422 273.015 195.243C271.982 195.568 270.624 194.402 269.747 193.751C268.781 195.541 266.682 195.99 264.848 196.347L264.097 194.956C265.24 192.593 265.751 195.063 268.397 192.86L268.248 191.634L267.493 191.134C265.958 192.249 266.423 192.232 264.622 192.572L264.195 191.003C265.208 188.834 266.839 187.134 268.39 185.282L269.606 185.192L269.949 186.688C273.814 186.199 271.589 182.34 277.609 184.637C284.107 182.123 293.227 179.912 300.631 177.285C301.449 177.79 301.698 178.17 302.205 178.978C302.892 178.354 306.338 175.198 306.85 175.084C310.776 174.207 318.051 171.499 321.725 171.208Z"/><path fill="#113E41" transform="scale(1.33333 1.33333)" d="M257.634 150.751C258.077 149.685 258.501 149.387 259.28 148.497C262.962 147.882 271.948 146.297 273.87 149.876C272.036 151.467 270.895 152.898 271.489 155.354L273.276 155.457L273.487 156.288C271.275 157.11 268.196 155.758 267.775 156.062C266.178 157.212 266.186 158.938 263.503 159.297C262.787 158.16 262.846 158.186 261.801 157.357L260.998 157.822L260.788 159.626C257.668 159.786 242.664 159.443 241.167 157.366C242.381 156.161 244.353 157.522 247.56 156.682L247.92 155.728C244.441 156.37 245.369 153.684 244.58 153.754C242.2 153.967 241.464 155.462 238.851 154.298L238.558 153.187C239.172 153.239 239.45 153.286 240.084 153.402L240.725 153.523C241.422 151.721 239.702 150.57 239.31 147.366C241.599 146.52 246.132 149.798 249.262 148.048C250.773 147.204 253.119 147.267 254.553 148.299C255.861 148.485 256.285 148.491 257.558 148.149C257.804 149.413 257.866 149.423 257.634 150.751Z"/><path fill="#1E4C4D" transform="scale(1.33333 1.33333)" d="M254.553 148.299C255.861 148.485 256.285 148.491 257.558 148.149C257.804 149.413 257.866 149.423 257.634 150.751L257.283 152.142C258.142 155.024 260.518 153.05 262.232 155.467L261.119 156.344L259.564 155.292C258.978 157.023 259.474 156.368 258.233 157.459C254.598 155.594 256.295 152.391 253.712 150.05L253.78 148.596L254.553 148.299Z"/><path fill="#1E4C4D" transform="scale(1.33333 1.33333)" d="M321.369 199.46L322.023 199.11C321.885 200.471 320.506 201.091 320.47 203.5C321.774 203.721 322.053 203.879 323.22 204.389C324.308 206.377 324.604 207.733 326.916 207.836C326.813 206.624 324.502 204.619 323.493 201.904L324.607 200.683C327.48 200.313 327.283 201.728 328.131 203.97C330.903 206.34 330.844 201.556 335.055 201.944C336.234 202.998 336.233 203.072 336.729 204.617L334.489 207.043L334.589 207.911C331.888 210.678 328.288 210.104 325.358 211.703C322.9 213.044 321.461 215.48 317.981 217.594C316.095 216.343 318.412 212.397 316.668 208.204C310.577 202.602 318.454 202.743 321.369 199.46Z"/><path fill="#1E4C4D" transform="scale(1.33333 1.33333)" d="M281.456 170.559C282.39 163.474 287.586 166.554 289.721 164.502C289.791 162.927 289.8 159.004 290.392 157.817L291.608 158.925C292.751 157.644 292.704 156.266 293.629 155.199C294.069 155.915 294.84 157.098 295.07 157.854L294.753 158.018C293.695 158.578 293.81 158.384 293.059 159.279L293.142 160.028L292.626 160.246L292.599 160.303L293.194 160.166L290.994 159.446L290.201 159.946C291.342 162.584 292.788 165.584 293.177 168.394L292.504 169.908C290.841 170.534 290.421 170.592 288.65 170.872C286.527 172.98 287.159 172.192 286.642 175.687C285.217 177.115 282.279 177.718 280.419 176.957L280.203 175.37C281.178 173.412 281.451 172.749 281.456 170.559Z"/><path fill="#113E41" transform="scale(1.33333 1.33333)" d="M281.456 170.559C284.472 171.075 285.462 167.573 288.295 170.719C288.413 170.77 288.532 170.821 288.65 170.872C286.527 172.98 287.159 172.192 286.642 175.687C285.217 177.115 282.279 177.718 280.419 176.957L280.203 175.37C281.178 173.412 281.451 172.749 281.456 170.559Z"/><path fill="#1E4C4D" transform="scale(1.33333 1.33333)" d="M313.35 163.276C315.535 163.841 316.713 164.133 318.836 165.047L319.246 166.095C318.395 167.05 309.598 170.444 307.877 170.904C305.032 170.41 303.601 169.262 302.474 166.613L302.936 165.697C305.135 165.103 309.821 166.079 312.309 166.445L312.966 165.827C312.68 164.943 312.937 164.532 313.231 163.631L313.35 163.276Z"/><path fill="#113E41" transform="scale(1.33333 1.33333)" d="M452.143 227.596C453.775 227.677 454.41 227.517 455.568 228.516C455.464 233.06 452.274 232.76 452.47 236.652C453.695 238.616 453.082 238.286 454.873 238.909C456.134 237.327 457.095 235.66 459.222 236.49C458.024 237.779 457.683 238.709 456.708 240.128C454.696 240.554 453.895 240.198 451.962 239.665C451.855 237.358 451.5 233.859 450.825 231.686C448.223 229.629 442.546 231.941 437.602 230.341C441.596 228.567 447.168 231.055 452.143 227.596Z"/><path fill="#113E41" transform="scale(1.33333 1.33333)" d="M447.697 208.883C448.042 208.841 448.937 208.966 449.328 209.005C447.308 210.934 445.276 212.85 443.234 214.756L443.654 216.327C441.538 217.686 443.218 215.785 440.491 215.846C439.242 217.486 439.175 217.889 438.609 219.89L439.149 220.812C441.206 220.995 440.568 221.202 442.307 220.431C442.333 219.161 442.233 219.032 442.891 217.917C444.834 217.321 445.096 217.439 447.175 217.64L447.269 218.38L445.244 218.836C444.848 219.604 444.166 220.497 443.656 221.227C440.637 222.337 434.222 222.798 434.343 218.233L435.001 217.91C435.541 219.154 435.72 219.953 436.836 220.704C442.333 211.232 438.343 214.775 447.697 208.883Z"/><path fill="#E7E5DB" transform="scale(1.33333 1.33333)" d="M659.124 297.138C661.097 302.217 655.062 310.42 651.853 313.921C650.651 309.742 655.993 300.159 659.124 297.138Z"/><path fill="#113E41" transform="scale(1.33333 1.33333)" d="M1004.13 177.563C1006.85 178.452 1014.54 177.485 1017.37 178.936L1017.63 180.142L1016.54 180.905L1015.07 180.365C1010.96 179.707 1005.83 180.99 1001.08 178.975L1001.14 178.234L1004.13 177.563Z"/><path fill="#E7E5DB" transform="scale(1.33333 1.33333)" d="M678.32 306.994C679.253 311.071 674.374 318.018 671.935 321.18C670.416 317.114 675.578 309.822 678.32 306.994Z"/><path fill="#113E41" transform="scale(1.33333 1.33333)" d="M348.464 142.018C350.575 141.976 351.616 141.873 353.714 142.408C353.723 144.104 353.082 144.164 351.575 145.713C348.941 146.202 345.674 146.608 344.615 143.608C345.986 142.08 346.126 142.466 348.464 142.018Z"/><path fill="#1E4C4D" transform="scale(1.33333 1.33333)" d="M1058.73 191.246C1060.71 191.212 1061.43 191.741 1062.55 193.107C1062.11 195.565 1061.44 195.681 1059.65 197.901C1057.39 197.067 1056.97 196.841 1055.79 195.115C1056.58 193.215 1057.47 192.857 1059.35 192.051L1058.73 191.246Z"/><path fill="#E7E5DB" transform="scale(1.33333 1.33333)" d="M642.132 313.589L643 315.072C642.669 319.215 640.572 321.869 638.15 325.158C637.637 324.676 637.509 324.268 637.143 323.612C637.775 319.309 639.467 316.965 642.132 313.589Z"/><path fill="#E7E5DB" transform="scale(1.33333 1.33333)" d="M691.329 308.203C691.635 308.478 691.986 309.115 692.232 309.499C691.364 313.802 689.304 316.247 686.476 319.544L685.644 318.67C685.537 315.514 689.391 310.836 691.329 308.203Z"/><path fill="#E7E5DB" transform="scale(1.33333 1.33333)" d="M656.642 322.123C657.582 326.493 653.689 331.842 650.856 334.839C649.581 330.742 654.257 325.122 656.642 322.123Z"/><path fill="#113E41" transform="scale(1.33333 1.33333)" d="M385.306 204.813L385.587 204.806C386.383 205.678 386.586 205.69 387.662 206.097L387.979 206.214L388.47 207.618L387.541 208.536C385.212 208.709 384.903 208.729 382.81 207.723L383.447 210.477L382.898 210.814L381.446 209.882C380.81 207.47 380.715 208.376 381.523 206.327C382.955 205.172 383.438 205.212 385.306 204.813Z"/><path fill="#113E41" transform="scale(1.33333 1.33333)" d="M868.048 191.603C870.641 191.668 873.718 192.085 875.816 193.675C876.786 195.696 876.704 194.757 875.818 197.296C872.507 196.012 870.969 195.458 867.999 193.581L868.048 191.603Z"/><path fill="#113E41" transform="scale(1.33333 1.33333)" d="M949.003 169.768C951.32 170.922 953.927 171.77 956.394 172.902L956.362 174.498C952.878 175.189 952.821 175.888 950.121 174.795C949.036 172.913 949.15 171.93 949.003 169.768Z"/><path fill="#1E4C4D" transform="scale(1.33333 1.33333)" d="M231.254 124.441C234.193 124.566 233.611 124.149 235.906 125.561C236.459 127.935 236.42 126.959 235.545 129.628C234.514 129.765 233.459 129.709 232.416 129.695C230.786 128.028 231.34 127.409 231.254 124.441Z"/><path fill="#113E41" transform="scale(1.33333 1.33333)" d="M485.381 204.4C485.883 204.33 487.103 204.493 487.674 204.547L487.817 205.318C485.837 206.597 483.885 207.919 481.962 209.282C480.911 209.356 480.028 209.223 478.986 209.116L478.532 208.393C479.595 206.808 483.499 205.255 485.381 204.4Z"/><path fill="#E7E5DB" transform="scale(1.33333 1.33333)" d="M703.207 308.964C704.415 312.596 701.248 317.434 698.826 319.964C697.657 316.306 701.083 311.735 703.207 308.964Z"/><path fill="#E7E5DB" transform="scale(1.33333 1.33333)" d="M708.851 310.702L710.26 311.819C710.517 315.134 708.927 317.912 707.315 320.703L706.241 320.088C705.656 317.622 707.817 313.342 708.851 310.702Z"/><path fill="#B3BCBB" transform="scale(1.33333 1.33333)" d="M616.393 320.328C616.881 322.853 611.82 329.037 610.127 331.011C609.189 326.74 613.474 322.796 616.393 320.328Z"/><path fill="#B3BCBB" transform="scale(1.33333 1.33333)" d="M631.029 307.033L631.657 307.918C630.696 311.455 628.598 315.178 626.911 318.487L626.164 317.373C626.319 313.355 628.795 310.26 631.029 307.033Z"/><path fill="#1E4C4D" transform="scale(1.33333 1.33333)" d="M333.211 231.385L335.502 231.511L336.164 232.612C335.368 234.627 334.441 234.936 332.582 236.116C332.287 236.121 330.638 235.709 330.234 235.616L329.849 234.494L330.778 233.145C331.953 232.637 332.413 232.469 333.211 231.385Z"/><path fill="#E7E5DB" transform="scale(1.33333 1.33333)" d="M688.854 324.757L689.584 325.654C689.89 329.588 687.853 331.923 685.532 334.965L684.843 333.945C685.395 330.861 687.367 327.587 688.854 324.757Z"/><path fill="#E7E5DB" transform="scale(1.33333 1.33333)" d="M613.403 305.734C613.806 308.287 610.286 314.344 608.997 316.843C607.816 312.942 610.692 308.379 613.403 305.734Z"/><path fill="#E7E5DB" transform="scale(1.33333 1.33333)" d="M699.227 325.422C701.94 327.993 697.859 332.83 696.28 335.191L695.587 334.449C695.903 332.093 698.14 327.76 699.227 325.422Z"/><path fill="#B3BCBB" transform="scale(1.33333 1.33333)" d="M630.659 287.264L631.469 287.747C631.125 289.977 628.467 294.12 627.232 296.286C626.589 296.358 626.903 296.346 626.132 295.754C626.4 292.436 628.544 289.651 630.659 287.264Z"/><path fill="#E7E5DB" transform="scale(1.33333 1.33333)" d="M623.31 341.79L624.093 342.969C623.95 345.513 622.312 348.454 621.191 350.834C620.364 350.115 620.646 350.344 620.168 349.227C620.388 346.374 621.878 344.285 623.31 341.79Z"/><path fill="#1E4C4D" transform="scale(1.33333 1.33333)" d="M274.822 147.828C276.939 147.687 277.751 147.51 279.831 148.073L279.948 149.087L277.939 151.265C276.37 151.856 277.19 151.718 275.363 151.457C274.271 149.744 274.604 150.322 274.822 147.828Z"/><path fill="#B3BCBB" transform="scale(1.33333 1.33333)" d="M637.754 334.091L638.132 334.58C638.152 337.795 636.367 339.912 634.359 342.2C633.475 341.365 633.857 341.855 633.622 340.31C634.492 337.507 635.82 336.297 637.754 334.091Z"/><path fill="#B3BCBB" transform="scale(1.33333 1.33333)" d="M631.028 269.792C631.318 272.015 627.351 277.507 626.007 279.523L625.638 278.184C626.24 274.249 628.29 272.517 631.028 269.792Z"/><path fill="#E7E5DB" transform="scale(1.33333 1.33333)" d="M675.694 332.645C676.043 336.295 673.511 339.229 671.288 341.797C670.18 338.521 673.663 334.857 675.694 332.645Z"/><path fill="#E7E5DB" transform="scale(1.33333 1.33333)" d="M650.651 284.019C651.607 287.328 648.864 290.727 647.09 293.337C645.911 290.017 648.782 286.473 650.651 284.019Z"/><path fill="#B3BCBB" transform="scale(1.33333 1.33333)" d="M595.545 314.309C596.034 316.422 593.109 321.289 591.999 323.237C590.052 319.662 593.191 316.796 595.545 314.309Z"/><path fill="#E7E5DB" transform="scale(1.33333 1.33333)" d="M640.963 280.898L641.475 282.012C640.805 285.145 639.838 286.413 638.147 289.162C637.295 288.43 637.604 288.721 637.163 287.533C637.725 284.72 639.211 283.178 640.963 280.898Z"/><path fill="#1E4C4D" transform="scale(1.33333 1.33333)" d="M877.317 233.256C877.501 233.376 877.681 233.915 877.802 234.181C875.91 235.686 875.743 236.926 873.532 238.937L872.4 237.533L872.771 235.774C874.466 233.864 874.904 233.809 877.317 233.256Z"/><path fill="#B3BCBB" transform="scale(1.33333 1.33333)" d="M596.855 368.475L597.97 369.119C598.197 371.246 596.864 373.822 596.009 375.938C595.152 375.832 595.5 375.853 594.644 375.157C594.609 372.735 595.816 370.743 596.855 368.475Z"/><path fill="#E7E5DB" transform="scale(1.33333 1.33333)" d="M611.913 350.473C612.262 352.588 610.014 356.846 609.008 358.727C607.147 355.516 609.824 352.65 611.913 350.473Z"/><path fill="#113E41" transform="scale(1.33333 1.33333)" d="M423.568 165.264C425.798 165.719 427.281 165.614 429.322 166.362L429.459 168.168C426.49 167.538 425.108 168.444 423.078 167.096L423.568 165.264Z"/><path fill="#B3BCBB" transform="scale(1.33333 1.33333)" d="M670.506 347.665C670.78 347.918 671.103 348.522 671.322 348.875C670.714 350.885 669.195 351.743 667.488 353.116L667.004 352.422C667.458 350.477 669.062 349.182 670.506 347.665Z"/><path fill="#7E9391" transform="scale(1.33333 1.33333)" d="M646.744 295.831C647.603 297.995 645.503 301.976 644.498 303.912C643.36 301.062 645.372 298.301 646.744 295.831Z"/><path fill="#E6DCB8" fill-opacity="0.011764706" transform="scale(1.33333 1.33333)" d="M1083.04 114.303C1088.85 109.738 1092.97 105.915 1098.3 100.885L1100.92 103.929C1096.31 106.983 1087.97 112.224 1083.04 114.303Z"/><path fill="#E6DCB8" fill-opacity="0.019607844" transform="scale(1.33333 1.33333)" d="M1103.73 115.772L1104.11 117.958C1103.13 119.185 1102.96 119.356 1101.77 120.385C1097.94 122.354 1092.43 124.272 1088.27 125.848C1092.14 122.85 1099.23 118.779 1103.73 115.772Z"/></svg>