<?xml version="1.0" encoding="utf-8" ?><svg xmlns="http://www.w3.org/2000/svg" xmlns:xlink="http://www.w3.org/1999/xlink" width="1792" height="1024" viewBox="0 0 1792 1024"><defs><linearGradient id="gradient_0" gradientUnits="userSpaceOnUse" x1="722.84296" y1="456.07504" x2="596.2948" y2="451.34409"><stop offset="0" stop-color="#0D5E68"/><stop offset="1" stop-color="#0B7882"/></linearGradient></defs><path fill="url(#gradient_0)" transform="scale(1.33333 1.33333)" d="M594.651 175.751C595.508 174.272 596.497 172.835 597.444 171.408L597.611 171.459C597.599 173.881 595.878 173.647 596.546 176.8L606.316 176.68C620.12 176.856 627.349 190.044 635.389 195.733C641.196 196.857 644.386 196.746 650.332 196.274C661.477 194.457 662.188 197.435 660.417 207.829C659.204 211.663 658.202 215.161 655.995 218.593L654.159 221.962C647.238 231.302 637.981 229.385 629.951 237.061C627.174 242.424 626.893 245.978 628.355 251.948C629.255 253.59 630.233 255.265 630.962 256.981L628.356 257.695L628.354 258.505C629.779 259.592 633.032 261.666 633.464 263.036C630.986 263.441 629.906 263.037 627.882 261.576C629.087 264.697 630.782 266.847 632.695 269.547C633.756 267.964 639.625 263.218 641.404 261.889C652.582 253.54 662.4 249.968 676.441 251.84C689.508 252.561 692.721 264.76 693.68 275.589C697.264 277.225 698.957 277.948 702.719 279.015C704.444 280.517 705.921 280.467 708.165 280.736C714.723 282.659 717.937 283.848 723.175 288.686C714.007 290.655 711.849 301.702 720.646 305.751C716.399 307.292 707.991 306.285 703.357 305.916C699.295 312.401 691.148 311.223 684.293 311.231L684.805 311.744C690.029 316.888 700.097 318.506 706.424 325.262C725.903 346.063 728.394 390.17 730.384 417.846C730.523 419.779 730.406 427.222 730.192 429.031C748.608 433.213 757.719 447.011 761.751 464.612C758.429 469.557 757.421 470.888 752.423 474.003C756.498 480.9 759.884 490.126 760.586 498.115C763.511 511.722 762.333 526.716 759.145 540.173C755.64 553.389 748.722 568.514 736.42 575.53C724.436 582.366 707.234 582.621 696.446 573.292C688.433 566.473 685.717 558.528 682.968 548.929C667.641 557.078 652.15 565.614 636.421 572.962C620.724 580.295 604.418 590.565 586.481 586.879C581.08 586.507 574.321 585.02 568.881 583.975C566.896 579.663 567.008 575.212 563.884 569.18C558.306 570.943 554.955 571.961 549.751 574.529L549.218 576.885L548.789 577L546.765 574.459C545.662 574.463 529.188 579.018 528.983 579.177C528.021 579.65 526.849 580.281 525.864 580.615C524.259 578.917 520.954 579.181 519.618 580.995C517.664 579.021 512.067 580.08 509.315 580.31L508.452 580.319C495.233 585.138 477.44 589.56 463.302 586.975L459.801 586.993L457.27 587.196C449.013 583.507 435.643 587.591 434.786 577.081C434.614 574.978 430.714 573.549 428.799 572.297C425.811 570.342 424.997 567.699 424.257 564.296C422.132 542.557 428.097 514.792 438.212 495.461C440.587 490.922 447.531 484.131 448.943 480.938C453.836 469.864 455.834 461.641 462.756 451.456C457.246 446.429 457.26 445.185 456.274 438.169C452.051 408.111 468.575 397.344 495.429 394.715C492.586 392.151 482.659 389.346 482.08 386.023C484.261 386.156 483.754 386.463 485.173 385.446L485.606 385.472C486.248 381.637 484.258 378.869 480.838 377.311L478.863 374.664C476.822 372.387 474.266 368.566 473.048 365.74L473.767 364.647C475.452 365.326 476.006 365.784 477.517 366.828C474.613 360.055 474.118 356.242 473.051 349.098C476.289 356.213 478.122 358.344 483.105 364.065C482.963 355.265 478.924 346.931 479.349 341.726C483.831 349.804 479.346 352.481 489.702 357.53C489.425 351.029 487.154 345.468 485.256 339.221L486.871 339.352C487.426 343.484 490.9 349.824 494.857 351.415L495.966 350.789C497.291 346.212 494.484 340.379 493.081 335.355C493.291 332.207 493.45 330.398 494.058 327.317C495.603 342.422 500.911 339.081 504.192 351.057C505.036 351.816 507.661 355.847 508.471 357.036C508.518 351.255 509.327 339.686 512.892 335.049C518.291 328.025 528.222 307.953 529.024 299.509C528.035 299.71 527.88 299.79 526.881 299.73C528.978 297.039 531.131 294.392 533.339 291.791C532.032 291.659 530.696 292.165 529.405 292.532L529.103 291.863C529.921 290.395 537.24 283.388 539.416 280.871C537.288 281.884 534.701 282.53 532.419 283.193C537.379 277.821 540.982 273.553 545.508 267.801C542.351 269.346 538.928 270.218 535.55 271.205C538.641 267.947 547.747 260.749 549.145 257.389L550.583 255.805C550.941 253.496 551.067 254.457 549.78 252.118C550.399 251.278 552.827 249.039 553.704 248.189L554.719 246.853C554.584 246.818 554.45 246.784 554.315 246.75C549.813 245.454 546.021 242.403 543.791 238.283C536.948 225.839 543.217 213.048 554.978 206.67C550.364 202.938 530.65 207.49 524.53 199.812C523.76 194.841 530.531 191.668 534.161 188.94C556.88 171.867 558.404 166.666 584.762 180.514C587.934 179.124 591.495 177.283 594.651 175.751ZM615.929 338.711C614.022 342.388 611.553 345.792 609.208 349.214L609.054 350.709C610.114 359.282 607.094 370.492 602.662 377.886C611.223 378.064 618.907 379.686 624.931 386.209C631.539 393.366 632.661 402.494 627.78 410.738C633.264 433.655 624.637 449.221 620.361 471.746L622.137 476.596C630.309 460.331 635.64 433.721 635.189 415.431C634.889 403.244 631.046 388.331 628.412 376.33C624.793 359.841 615.903 339.443 630.944 325.875C629.421 324.578 626.91 323.889 624.866 322.822L623.082 322.312C621.705 323.654 621.485 328.125 619.931 331.057C619.38 333.389 617.345 336.754 615.929 338.711Z"/><defs><linearGradient id="gradient_1" gradientUnits="userSpaceOnUse" x1="496.86087" y1="257.38904" x2="655.14954" y2="332.80682"><stop offset="0" stop-color="#DF9A2C"/><stop offset="1" stop-color="#F4BC47"/></linearGradient></defs><path fill="url(#gradient_1)" transform="scale(1.33333 1.33333)" d="M594.651 175.751C595.508 174.272 596.497 172.835 597.444 171.408L597.611 171.459C597.599 173.881 595.878 173.647 596.546 176.8L606.316 176.68C620.12 176.856 627.349 190.044 635.389 195.733C641.196 196.857 644.386 196.746 650.332 196.274C661.477 194.457 662.188 197.435 660.417 207.829C659.204 211.663 658.202 215.161 655.995 218.593L654.159 221.962C647.238 231.302 637.981 229.385 629.951 237.061C627.174 242.424 626.893 245.978 628.355 251.948C629.255 253.59 630.233 255.265 630.962 256.981L628.356 257.695L628.354 258.505C629.779 259.592 633.032 261.666 633.464 263.036C630.986 263.441 629.906 263.037 627.882 261.576C629.087 264.697 630.782 266.847 632.695 269.547C633.756 267.964 639.625 263.218 641.404 261.889C652.582 253.54 662.4 249.968 676.441 251.84C689.508 252.561 692.721 264.76 693.68 275.589C697.264 277.225 698.957 277.948 702.719 279.015C704.444 280.517 705.921 280.467 708.165 280.736C714.723 282.659 717.937 283.848 723.175 288.686C714.007 290.655 711.849 301.702 720.646 305.751C716.399 307.292 707.991 306.285 703.357 305.916C699.295 312.401 691.148 311.223 684.293 311.231L682.751 310.883C679.525 309.158 677.471 308.201 675.396 305.209L670.501 308.371C663.588 314.538 654.151 321.549 644.792 323.055L642.555 323.002C641.373 323.564 641.32 323.67 639.973 323.785L639.804 324.611L641.165 325.917C638.614 327.052 636.747 325.484 634.241 325.169C633.436 325.068 634.455 327.396 630.944 325.875C629.421 324.578 626.91 323.889 624.866 322.822L623.082 322.312C621.705 323.654 621.485 328.125 619.931 331.057C619.38 333.389 617.345 336.754 615.929 338.711C614.022 342.388 611.553 345.792 609.208 349.214L609.054 350.709C610.114 359.282 607.094 370.492 602.662 377.886C601.194 379.486 599.858 380.55 599.483 382.613C600.786 383.821 600.92 383.432 603.091 383.477C602.528 388.713 599.274 391.889 599.159 397.194C587.251 398.078 566.16 400.507 555.334 398.824L553.237 398.246C549.884 398.849 542.81 396.867 539.796 397.452C530.589 399.242 522.414 402.314 512.813 401.034C506.656 400.214 504.724 400.799 500.491 395.874L496.121 395.546L495.429 394.715C492.586 392.151 482.659 389.346 482.08 386.023C484.261 386.156 483.754 386.463 485.173 385.446L485.606 385.472C486.248 381.637 484.258 378.869 480.838 377.311L478.863 374.664C476.822 372.387 474.266 368.566 473.048 365.74L473.767 364.647C475.452 365.326 476.006 365.784 477.517 366.828C474.613 360.055 474.118 356.242 473.051 349.098C476.289 356.213 478.122 358.344 483.105 364.065C482.963 355.265 478.924 346.931 479.349 341.726C483.831 349.804 479.346 352.481 489.702 357.53C489.425 351.029 487.154 345.468 485.256 339.221L486.871 339.352C487.426 343.484 490.9 349.824 494.857 351.415L495.966 350.789C497.291 346.212 494.484 340.379 493.081 335.355C493.291 332.207 493.45 330.398 494.058 327.317C495.603 342.422 500.911 339.081 504.192 351.057C505.036 351.816 507.661 355.847 508.471 357.036C508.518 351.255 509.327 339.686 512.892 335.049C518.291 328.025 528.222 307.953 529.024 299.509C528.035 299.71 527.88 299.79 526.881 299.73C528.978 297.039 531.131 294.392 533.339 291.791C532.032 291.659 530.696 292.165 529.405 292.532L529.103 291.863C529.921 290.395 537.24 283.388 539.416 280.871C537.288 281.884 534.701 282.53 532.419 283.193C537.379 277.821 540.982 273.553 545.508 267.801C542.351 269.346 538.928 270.218 535.55 271.205C538.641 267.947 547.747 260.749 549.145 257.389L550.583 255.805C550.941 253.496 551.067 254.457 549.78 252.118C550.399 251.278 552.827 249.039 553.704 248.189L554.719 246.853C554.584 246.818 554.45 246.784 554.315 246.75C549.813 245.454 546.021 242.403 543.791 238.283C536.948 225.839 543.217 213.048 554.978 206.67C550.364 202.938 530.65 207.49 524.53 199.812C523.76 194.841 530.531 191.668 534.161 188.94C556.88 171.867 558.404 166.666 584.762 180.514C587.934 179.124 591.495 177.283 594.651 175.751Z"/><path fill="#0D6A73" transform="scale(1.33333 1.33333)" d="M632.695 269.547C633.756 267.964 639.625 263.218 641.404 261.889C652.582 253.54 662.4 249.968 676.441 251.84C689.508 252.561 692.721 264.76 693.68 275.589C697.264 277.225 698.957 277.948 702.719 279.015C704.444 280.517 705.921 280.467 708.165 280.736C714.723 282.659 717.937 283.848 723.175 288.686C714.007 290.655 711.849 301.702 720.646 305.751C716.399 307.292 707.991 306.285 703.357 305.916C699.295 312.401 691.148 311.223 684.293 311.231L682.751 310.883C679.525 309.158 677.471 308.201 675.396 305.209L670.501 308.371L667.99 308.858C662.8 306.648 665.12 299.052 663.16 294.821L664.142 292.583C657.404 295.219 654.192 296.119 646.986 296.761C638.785 292.985 632.503 286.324 627.787 278.75L628.306 278.038C629.429 278.892 629.714 279.286 631.121 279.274L631.875 278.009C631.115 276.237 630.421 276.027 628.734 274.974L628.957 273.112C631.273 271.944 630.598 274.127 633.972 274.059L634.517 272.783C632.929 271.363 631.519 272.192 628.675 271.016L628.787 270.378L631.847 270.724L632.695 269.547Z"/><path fill="#FBFAFB" transform="scale(1.33333 1.33333)" d="M664.142 292.583C673.77 288.31 689.415 281.16 695.245 294.785C695.597 295.593 695.919 296.414 696.21 297.246C697.58 295.944 697.684 295.957 699.563 295.468C704.934 296.418 704.799 301.853 703.357 305.916C699.295 312.401 691.148 311.223 684.293 311.231L682.751 310.883C679.525 309.158 677.471 308.201 675.396 305.209L670.501 308.371L667.99 308.858C662.8 306.648 665.12 299.052 663.16 294.821L664.142 292.583Z"/><path fill="#163136" transform="scale(1.33333 1.33333)" d="M696.21 297.246C697.58 295.944 697.684 295.957 699.563 295.468C704.934 296.418 704.799 301.853 703.357 305.916C699.295 312.401 691.148 311.223 684.293 311.231L682.751 310.883C679.525 309.158 677.471 308.201 675.396 305.209C676.841 303.58 678.428 302.083 680.138 300.736C686.869 295.493 691.198 302.807 696.21 297.246Z"/><path fill="#E8AC44" transform="scale(1.33333 1.33333)" d="M676.441 251.84C689.508 252.561 692.721 264.76 693.68 275.589C692.857 275.296 691.222 274.906 690.984 274.088C687.619 262.565 687.085 258.482 676.441 251.84Z"/><path fill="#E1E1DA" transform="scale(1.33333 1.33333)" d="M652.863 266.624C659.154 266.27 680.409 267.604 675.103 280.927C673.411 285.175 662.79 286.67 658.241 287.445C651.491 287.612 636.118 288.701 633.488 280.802C633.257 273.377 646.826 268.13 652.863 266.624Z"/><path fill="#FBFAFB" transform="scale(1.33333 1.33333)" d="M658.511 272.44C660.243 272.757 660.484 272.704 661.818 273.756C661.458 273.951 661.112 274.15 660.714 274.171C655.981 274.413 646.667 281.754 643.178 285.07L642.274 285.846L641.68 285.333C644.548 279.447 652.265 274.148 658.511 272.44Z"/><path fill="#E1E1DA" transform="scale(1.33333 1.33333)" d="M554.978 206.67C557.815 208.053 558.574 205.758 560.763 207.879L560.799 208.628L561.283 212.628C562.027 214.872 561.742 223.437 560.215 225.319C558.208 229.49 557.053 231.429 553.305 234.214L552.592 235.688L553.184 236.202C555.418 235.533 556.694 234.885 558.788 233.887C560.052 236.747 554.013 240.859 551.722 241.889L555.171 242.929L556.187 243.959C556.024 245.384 555.592 245.726 554.719 246.853C554.584 246.818 554.45 246.784 554.315 246.75C549.813 245.454 546.021 242.403 543.791 238.283C536.948 225.839 543.217 213.048 554.978 206.67Z"/><defs><linearGradient id="gradient_2" gradientUnits="userSpaceOnUse" x1="542.6604" y1="222.77048" x2="558.06934" y2="226.40797"><stop offset="0" stop-color="#162F33"/><stop offset="1" stop-color="#394C4B"/></linearGradient></defs><path fill="url(#gradient_2)" transform="scale(1.33333 1.33333)" d="M554.978 206.67C557.815 208.053 558.574 205.758 560.763 207.879L560.799 208.628L558.886 209.526C545.98 212.752 541.73 226.312 548.267 237.312C549.558 239.607 549.772 240.03 551.722 241.889L555.171 242.929L556.187 243.959C556.024 245.384 555.592 245.726 554.719 246.853C554.584 246.818 554.45 246.784 554.315 246.75C549.813 245.454 546.021 242.403 543.791 238.283C536.948 225.839 543.217 213.048 554.978 206.67Z"/><path fill="#E8AC44" transform="scale(1.33333 1.33333)" d="M561.283 212.628C562.027 214.872 561.742 223.437 560.215 225.319C556.329 225.922 556.682 227.764 551.158 228.157C556.306 223.326 559.195 219.394 561.283 212.628Z"/><path fill="#E3B557" transform="scale(1.33333 1.33333)" d="M616.552 259.325C616.531 255.647 615.87 250.48 618.036 247.962C621.196 247.372 620.618 247.841 624.221 249.705L626.236 253.1L627.345 253.106L628.355 251.948C629.255 253.59 630.233 255.265 630.962 256.981L628.356 257.695L628.354 258.505C629.779 259.592 633.032 261.666 633.464 263.036C630.986 263.441 629.906 263.037 627.882 261.576C629.087 264.697 630.782 266.847 632.695 269.547L631.847 270.724L628.787 270.378L628.675 271.016C631.519 272.192 632.929 271.363 634.517 272.783L633.972 274.059C630.598 274.127 631.273 271.944 628.957 273.112L628.734 274.974C624.254 275.119 624.172 269.658 621.574 266.196L621.2 265.705C620.08 265.449 617.363 260.607 616.552 259.325Z"/><path fill="#E8AC44" transform="scale(1.33333 1.33333)" d="M616.552 259.325C616.531 255.647 615.87 250.48 618.036 247.962C621.196 247.372 620.618 247.841 624.221 249.705L626.236 253.1L627.345 253.106L628.355 251.948C629.255 253.59 630.233 255.265 630.962 256.981L628.356 257.695L628.354 258.505C629.779 259.592 633.032 261.666 633.464 263.036C630.986 263.441 629.906 263.037 627.882 261.576L627.449 260.016C623.928 258.127 621.986 255.983 620.961 252.094C620.705 251.118 620.465 250.139 620.241 249.155L619.589 248.798C615.51 255.207 620.888 260.259 621.2 265.705C620.08 265.449 617.363 260.607 616.552 259.325Z"/><path fill="#CF8F2B" transform="scale(1.33333 1.33333)" d="M543.164 391.96L544.843 392.444C548.14 401.084 551.765 395.18 553.237 398.246C549.884 398.849 542.81 396.867 539.796 397.452C530.589 399.242 522.414 402.314 512.813 401.034C506.656 400.214 504.724 400.799 500.491 395.874C503.142 395.447 504.038 395.134 506.483 394.142C512.116 396.228 512.625 396.849 518.491 395.248C521.407 392.181 528.462 392.76 532.851 392.657L533.171 393.902L534.157 394.197C539.93 391.064 536.468 395.347 543.164 391.96Z"/><path fill="#E8AC44" transform="scale(1.33333 1.33333)" d="M518.491 395.248C521.407 392.181 528.462 392.76 532.851 392.657L533.171 393.902L534.157 394.197C530.62 400.121 523.192 398.601 518.491 395.248Z"/><path fill="#C47C20" transform="scale(1.33333 1.33333)" d="M563.741 345.505C571.734 330.59 591.74 322.925 605.465 335.331C607.614 340.702 608.83 343.336 609.208 349.214L609.054 350.709C606.899 349.76 607.242 348.265 606.496 345.903C598.474 320.509 578.188 333.979 563.741 345.505Z"/><path fill="#E3B557" transform="scale(1.33333 1.33333)" d="M493.081 335.355C493.291 332.207 493.45 330.398 494.058 327.317C495.603 342.422 500.911 339.081 504.192 351.057C501.088 349.677 502.105 347.366 500.369 347.115L500.49 349.352C499.348 350.268 498.084 350.885 497.955 352.019L499.353 352.988L496.799 352.302L496.111 352.768L496.104 355.058C493.942 353.53 496.3 353.655 492.887 353.093C490.068 354.425 490.499 354.357 490.278 357.692L489.427 358.148L489.702 357.53C489.425 351.029 487.154 345.468 485.256 339.221L486.871 339.352C487.426 343.484 490.9 349.824 494.857 351.415L495.966 350.789C497.291 346.212 494.484 340.379 493.081 335.355Z"/><path fill="#CF8F2B" transform="scale(1.33333 1.33333)" d="M555.171 242.929C556.91 240.844 557.212 239.732 559.274 237.817C561.653 238.958 560.65 244.38 561.646 246.765L563.721 246.965C565.907 243.195 567.485 239.982 569.373 236.071C568.78 245.421 561.469 249.776 553.205 253.043L551.914 252.848C553.306 250.431 553.662 250.64 553.704 248.189L554.719 246.853C555.592 245.726 556.024 245.384 556.187 243.959L555.171 242.929Z"/><path fill="#282620" transform="scale(1.33333 1.33333)" d="M650.332 196.274C661.477 194.457 662.188 197.435 660.417 207.829C659.21 207.138 658.016 206.423 656.837 205.684C652.685 203.061 651.378 200.916 650.332 196.274Z"/><path fill="#C47C20" transform="scale(1.33333 1.33333)" d="M603.91 301.671C607.729 304.767 612.11 309.426 615.964 312.788C618.503 315.004 622.908 318.578 625.038 320.823L624.866 322.822L623.082 322.312C621.705 323.654 621.485 328.125 619.931 331.057C618.89 327.54 621.546 326.306 620.568 322.252L620.087 322.052L619.08 326.454C618.228 314.158 609.944 313.553 603.91 301.671Z"/><path fill="#E8AC44" transform="scale(1.33333 1.33333)" d="M485.173 385.446L485.606 385.472C491.34 389.312 499.949 392.044 506.483 394.142C504.038 395.134 503.142 395.447 500.491 395.874L496.121 395.546L495.429 394.715C492.586 392.151 482.659 389.346 482.08 386.023C484.261 386.156 483.754 386.463 485.173 385.446Z"/><path fill="#CF8F2B" transform="scale(1.33333 1.33333)" d="M605.465 335.331L605.894 335.794C608.249 338.365 608.957 339.593 609.473 343.106C610.169 340.99 613.219 327.929 613.454 327.514L614.55 327.706C616.386 330.545 614.154 334.723 615.929 338.711C614.022 342.388 611.553 345.792 609.208 349.214C608.83 343.336 607.614 340.702 605.465 335.331Z"/><path fill="#CF8F2B" transform="scale(1.33333 1.33333)" d="M624.221 249.705C623.197 246.937 621.365 243.99 621.126 241.152C622.595 238.397 626.843 236.253 629.951 237.061C627.174 242.424 626.893 245.978 628.355 251.948L627.345 253.106L626.236 253.1L624.221 249.705Z"/><path fill="#282620" transform="scale(1.33333 1.33333)" d="M654.159 221.962C648.277 223.642 630.605 227.274 631.156 216.844C633.588 217.019 634.577 219.625 637.461 220.879C643.631 223.561 650.157 220.724 655.995 218.593L654.159 221.962Z"/><path fill="#E8AC44" transform="scale(1.33333 1.33333)" d="M543.164 391.96C544.766 390.617 544.008 390.882 545.982 390.751C548.033 392.03 548.753 392.645 550.546 394.21C550.967 393.595 551.377 392.973 551.774 392.342C553.122 394.867 553.43 396.716 555.334 398.824L553.237 398.246C551.765 395.18 548.14 401.084 544.843 392.444L543.164 391.96Z"/><path fill="#E3B557" transform="scale(1.33333 1.33333)" d="M478.863 374.664C476.822 372.387 474.266 368.566 473.048 365.74L473.767 364.647C475.452 365.326 476.006 365.784 477.517 366.828C479.228 367.547 479.252 367.81 480.282 369.475C480.049 371.401 480.067 371.767 478.79 373.192L478.863 374.664Z"/><path fill="#C47C20" transform="scale(1.33333 1.33333)" d="M585.852 184.532C588.228 184.631 588.961 184.266 590.725 185.41C590.176 185.787 590.2 185.788 589.545 185.883C580.498 187.194 572.412 189.477 565.496 195.698L564.782 196.577L564.954 195.676C573.484 185.742 575.167 186.918 585.852 184.532Z"/><path fill="#282620" transform="scale(1.33333 1.33333)" d="M622.12 194.834C626.713 196.45 627.516 200.985 625.549 204.96C620.444 203.454 619.626 199.049 622.12 194.834Z"/><path fill="#E8AC44" transform="scale(1.33333 1.33333)" d="M627.932 307.007C632.336 307.509 637.459 309.47 639.858 313.25C634.142 313.897 630.45 312.215 627.932 307.007Z"/><path fill="#E3B557" transform="scale(1.33333 1.33333)" d="M584.254 351.747C587.03 354.415 585.862 358.33 585.227 361.635C582.503 356.778 581.85 356.639 584.254 351.747Z"/><path fill="#E3B557" transform="scale(1.33333 1.33333)" d="M595.972 369.292L596.755 370.462C595.789 374.195 595.223 376.776 593.552 380.303L592.87 379.651C592.347 376.377 594.572 372.207 595.972 369.292Z"/><path fill="#E3B557" transform="scale(1.33333 1.33333)" d="M590.091 359.412C592.039 361.005 592.222 368.174 589.928 370.012L589.554 369.753C590.134 365.943 589.097 364.05 590.091 359.412Z"/><path fill="#C47C20" transform="scale(1.33333 1.33333)" d="M603.03 247.19C604.436 249.185 605.766 257.739 606.33 260.693C603.735 256.484 602.39 252.127 603.03 247.19Z"/><path fill="#E3B557" transform="scale(1.33333 1.33333)" d="M582.76 281.11L584.107 281.839C584.774 284.303 584.112 287.5 583.763 290.105L582.748 289.68C582.2 287.505 582.621 283.521 582.76 281.11Z"/><path fill="#E3B557" transform="scale(1.33333 1.33333)" d="M586.921 377.005C588.003 377.413 587.611 377.232 588.488 378.106C589.113 380.502 588.199 382.651 587.495 385.066C587.162 385.05 586.664 384.774 586.312 384.618C586.47 382.077 586.673 379.539 586.921 377.005Z"/><path fill="#E3B557" transform="scale(1.33333 1.33333)" d="M597.312 352.303C599.141 355.312 598.668 358.958 598.224 362.256C596.312 359.106 596.402 355.714 597.312 352.303Z"/><path fill="#E3B557" transform="scale(1.33333 1.33333)" d="M592.7 339.218C595.53 340.548 597.518 344.554 597.919 347.569C595.528 345.185 593.459 342.56 592.7 339.218Z"/><path fill="#CF8F2B" transform="scale(1.33333 1.33333)" d="M590.325 242.087L590.846 242.651C591.062 245.618 590.76 249.924 590.637 252.999L589.503 251.716C588.868 248.392 589.686 245.404 590.325 242.087Z"/><path fill="#E3B557" transform="scale(1.33333 1.33333)" d="M588.299 270.203L589.229 271.186C589.625 273.526 588.684 275.62 587.938 277.908C587.657 277.605 587.185 276.744 586.947 276.345C586.881 273.534 587.294 272.805 588.299 270.203Z"/><path fill="#E3B557" transform="scale(1.33333 1.33333)" d="M589.83 346.226L590.878 346.967C592.296 349.197 592.296 350.926 592.604 353.552L591.131 352.984C589.964 351.019 590.029 348.591 589.83 346.226Z"/><path fill="#CF8F2B" transform="scale(1.33333 1.33333)" d="M608.261 251.115C609.687 253.032 610.587 258.261 611.188 260.852C608.042 258.898 608.263 254.347 608.261 251.115Z"/><path fill="#CF8F2B" transform="scale(1.33333 1.33333)" d="M487.778 368.432C489.507 369.851 491.283 371.013 492.009 373.121L491.225 373.345C488.986 371.909 488.597 371.364 486.885 369.377L487.778 368.432Z"/><path fill="#E8AC44" transform="scale(1.33333 1.33333)" d="M531.356 324.767C531.505 325.825 529.519 332.54 529.101 334.398C527.598 331.666 529.658 327.084 531.356 324.767Z"/><path fill="#E8AC44" transform="scale(1.33333 1.33333)" d="M486.885 369.377C484.621 368.747 484.257 368.674 482.457 367.19L482.612 366.603C484.733 366.345 485.866 367.321 487.778 368.432L486.885 369.377Z"/><path fill="#E3B557" transform="scale(1.33333 1.33333)" d="M591.294 297.735C592.432 300.427 591.932 302.746 591.607 305.617C589.863 303.365 590.806 300.282 591.294 297.735Z"/><path fill="#CF8F2B" transform="scale(1.33333 1.33333)" d="M594.769 245.386C596.298 247.248 595.813 250.459 595.593 252.681L594.848 252.12C594.067 250.04 594.538 247.632 594.769 245.386Z"/><path fill="#CF8F2B" transform="scale(1.33333 1.33333)" d="M500.165 361.563C502.861 362.67 504.043 363.898 505.428 366.309C502.619 365.647 501.479 363.89 500.165 361.563Z"/><path fill="#E8AC44" transform="scale(1.33333 1.33333)" d="M573.475 263.05L573.953 263.525C574.319 265.546 573.21 267.302 572.33 269.291L571.977 268.941C571.59 266.811 572.598 265.377 573.475 263.05Z"/><path fill="#E8AC44" transform="scale(1.33333 1.33333)" d="M578.941 264.975C579.63 267.537 578.154 270.096 577.111 272.578C576.692 269.676 577.599 267.431 578.941 264.975Z"/><path fill="#CF8F2B" transform="scale(1.33333 1.33333)" d="M515.319 382.232C517.162 382.035 519.597 382.04 520.814 383.495C518.906 384.071 516.926 383.229 515.319 382.232Z"/><path fill="#E8AC44" transform="scale(1.33333 1.33333)" d="M557.48 280.767L557.976 281.245C558.324 283.1 557.572 283.724 556.618 285.76L556.076 285.254C555.869 283.35 556.56 282.747 557.48 280.767Z"/><path fill="#0D6A73" transform="scale(1.33333 1.33333)" d="M602.662 377.886C611.223 378.064 618.907 379.686 624.931 386.209C631.539 393.366 632.661 402.494 627.78 410.738C633.264 433.655 624.637 449.221 620.361 471.746C615.829 465.891 608.565 460.439 601.127 460.271C550.54 459.124 516.223 517.783 508.623 561.549C507.701 566.857 505.176 574.078 506.91 578.738L508.452 580.319C495.233 585.138 477.44 589.56 463.302 586.975L459.801 586.993L457.27 587.196C449.013 583.507 435.643 587.591 434.786 577.081C434.614 574.978 430.714 573.549 428.799 572.297C425.811 570.342 424.997 567.699 424.257 564.296C422.132 542.557 428.097 514.792 438.212 495.461C440.587 490.922 447.531 484.131 448.943 480.938C453.836 469.864 455.834 461.641 462.756 451.456C457.246 446.429 457.26 445.185 456.274 438.169C452.051 408.111 468.575 397.344 495.429 394.715L496.121 395.546L500.491 395.874C504.724 400.799 506.656 400.214 512.813 401.034C522.414 402.314 530.589 399.242 539.796 397.452C542.81 396.867 549.884 398.849 553.237 398.246L555.334 398.824C566.16 400.507 587.251 398.078 599.159 397.194C599.274 391.889 602.528 388.713 603.091 383.477C600.92 383.432 600.786 383.821 599.483 382.613C599.858 380.55 601.194 379.486 602.662 377.886Z"/><path fill="#163136" transform="scale(1.33333 1.33333)" d="M602.662 377.886C611.223 378.064 618.907 379.686 624.931 386.209C631.539 393.366 632.661 402.494 627.78 410.738C610.604 426.564 546.657 450.597 522.145 453.305C520.938 455.172 520.58 456.064 518.443 456.837C516.726 456.473 516.427 456.568 515.163 454.707C513.244 454.329 495.613 455.128 494.724 455.528L490.553 455.232C488.54 454.72 478.576 454.512 476.295 454.891C474.575 456.784 475.417 456.307 473.15 456.938C471.074 456.333 469.869 454.679 468.311 453.055C466.476 452.96 464.526 452.097 462.756 451.456C457.246 446.429 457.26 445.185 456.274 438.169C452.051 408.111 468.575 397.344 495.429 394.715L496.121 395.546L500.491 395.874C504.724 400.799 506.656 400.214 512.813 401.034C522.414 402.314 530.589 399.242 539.796 397.452C542.81 396.867 549.884 398.849 553.237 398.246L555.334 398.824C566.16 400.507 587.251 398.078 599.159 397.194C599.274 391.889 602.528 388.713 603.091 383.477C600.92 383.432 600.786 383.821 599.483 382.613C599.858 380.55 601.194 379.486 602.662 377.886Z"/><path fill="#163136" transform="scale(1.33333 1.33333)" d="M476.295 454.891C471.427 449.745 466.172 440.865 466.516 433.436C467.242 417.736 483.412 418.135 494.963 418.011C514.587 417.799 522.755 429.911 518.503 448.636C517.863 451.456 517.154 452.56 515.163 454.707C513.244 454.329 495.613 455.128 494.724 455.528L490.553 455.232C488.54 454.72 478.576 454.512 476.295 454.891Z"/><path fill="#E1E1DA" transform="scale(1.33333 1.33333)" d="M468.311 453.055C456.869 430.459 459.51 415.207 488.18 413.578C514.625 412.076 530.749 424.295 522.145 453.305C520.938 455.172 520.58 456.064 518.443 456.837C516.726 456.473 516.427 456.568 515.163 454.707C517.154 452.56 517.863 451.456 518.503 448.636C522.755 429.911 514.587 417.799 494.963 418.011C483.412 418.135 467.242 417.736 466.516 433.436C466.172 440.865 471.427 449.745 476.295 454.891C474.575 456.784 475.417 456.307 473.15 456.938C471.074 456.333 469.869 454.679 468.311 453.055Z"/><path fill="#FBFAFB" transform="scale(1.33333 1.33333)" d="M603.091 383.477C608.166 383.303 610.435 383.154 615.164 385.305C618.625 388.424 621.347 390.314 617.902 394.806C611.439 396.554 605.843 397.06 599.159 397.194C599.274 391.889 602.528 388.713 603.091 383.477Z"/><path fill="#E1E1DA" transform="scale(1.33333 1.33333)" d="M615.164 385.305C618.625 388.424 621.347 390.314 617.902 394.806L616.965 392.481L617.055 391.803C615.801 389.83 615.109 389.979 612.731 388.808L615.164 385.305Z"/><path fill="#2E4446" transform="scale(1.33333 1.33333)" d="M612.731 388.808C615.109 389.979 615.801 389.83 617.055 391.803L616.965 392.481C614.55 391.723 612.604 391.111 610.255 390.141L610.307 389.454L612.731 388.808Z"/><path fill="#0D6A73" transform="scale(1.33333 1.33333)" d="M582.73 409.705L585.348 409.835L585.107 410.306C566.305 417.137 562.936 416 545.472 419.117C544.351 419.187 544.427 419.183 543.369 418.793C546.828 417.342 553.827 417.168 558.132 416.159C566.325 414.239 574.703 412.216 582.73 409.705Z"/><path fill="#2E4446" transform="scale(1.33333 1.33333)" d="M514.694 407.657C519.213 408.554 518.288 407.716 521.234 411.176C524.156 414.607 526.708 416.92 527.414 421.773L526.956 422.08C523.493 416.803 520.161 410.555 513.4 408.539L514.694 407.657Z"/><path fill="#9DA5A4" transform="scale(1.33333 1.33333)" d="M499.263 404.677C505.288 405.129 509.141 405.111 514.694 407.657L513.4 408.539C509.795 406.953 500.911 406.458 496.876 406.24L497.238 405.382L499.263 404.677Z"/><path fill="#0D6A73" transform="scale(1.33333 1.33333)" d="M483.873 404.685C487.44 404.523 496.203 403.95 499.263 404.677L497.238 405.382L496.876 406.24C492.186 406.375 488.401 405.763 483.873 404.685Z"/><path fill="#0D6A73" transform="scale(1.33333 1.33333)" d="M462.756 451.456C464.526 452.097 466.476 452.96 468.311 453.055C469.869 454.679 471.074 456.333 473.15 456.938C475.417 456.307 474.575 456.784 476.295 454.891C478.576 454.512 488.54 454.72 490.553 455.232C486.304 462.522 480.067 474.519 478.673 482.971C471.669 483.28 461.616 482.923 456.138 487.168C448.245 492.785 448.205 507.774 451.648 515.96C456.157 523.1 461.297 520.886 466.812 523.71C462.91 533.874 455.13 579.747 459.801 586.993L457.27 587.196C449.013 583.507 435.643 587.591 434.786 577.081C434.614 574.978 430.714 573.549 428.799 572.297C425.811 570.342 424.997 567.699 424.257 564.296C422.132 542.557 428.097 514.792 438.212 495.461C440.587 490.922 447.531 484.131 448.943 480.938C453.836 469.864 455.834 461.641 462.756 451.456Z"/><path fill="#0E3B41" transform="scale(1.33333 1.33333)" d="M447.821 486.148C448.007 486.55 448.302 487.371 448.192 487.777C442.132 510.134 438.281 532.618 436.459 555.778C436.12 560.089 436.92 572.099 434.149 574.821L433.948 572.726C432.066 552.114 437.52 519.836 442.998 499.584C444.01 495.844 445.441 489.012 447.821 486.148Z"/><path fill="#A02822" transform="scale(1.33333 1.33333)" d="M456.138 487.168C461.962 486.604 497.161 482.741 497.679 494.704C497.88 499.335 492.475 513.127 488.703 516.426C481.231 523.776 460.336 519.834 451.648 515.96C448.205 507.774 448.245 492.785 456.138 487.168Z"/><path fill="#E3B557" transform="scale(1.33333 1.33333)" d="M490.553 455.232L494.724 455.528C493.135 461.148 482.943 480.661 483.605 483.707C491.822 484.135 504.804 486.128 503.359 497.601C502.37 505.451 497.264 515.685 491.275 520.864C485.74 525.614 474.895 522.532 470.743 524.257C470.507 531.401 466.868 546.609 465.704 555.232C464.134 566.862 464.413 576.037 463.302 586.975L459.801 586.993C455.13 579.747 462.91 533.874 466.812 523.71C461.297 520.886 456.157 523.1 451.648 515.96C460.336 519.834 481.231 523.776 488.703 516.426C492.475 513.127 497.88 499.335 497.679 494.704C497.161 482.741 461.962 486.604 456.138 487.168C461.616 482.923 471.669 483.28 478.673 482.971C480.067 474.519 486.304 462.522 490.553 455.232Z"/><path fill="#0D6A73" transform="scale(1.33333 1.33333)" d="M630.944 325.875C634.455 327.396 633.436 325.068 634.241 325.169C636.747 325.484 638.614 327.052 641.165 325.917L639.804 324.611L639.973 323.785C641.32 323.67 641.373 323.564 642.555 323.002C643.414 326.619 643.975 326.947 647.204 328.95C647.755 329.29 648.309 329.624 648.868 329.952L648.494 333.473C653.779 355.792 658.889 377.136 659.994 400.162C661.297 427.315 659.298 454.354 649.544 479.962C645.008 491.871 639.464 498.597 627.426 503.235C627.037 514.641 625.521 537.5 616.503 545.627L613.932 543.553C610.557 547.291 608.283 547.609 604.456 550.32C605.848 551.438 606.423 551.741 607.302 553.248C611.666 563.487 601.042 577.823 592.977 583.514C591.08 584.853 588.444 585.641 586.481 586.879C581.08 586.507 574.321 585.02 568.881 583.975C566.896 579.663 567.008 575.212 563.884 569.18C558.306 570.943 554.955 571.961 549.751 574.529L549.218 576.885L548.789 577L546.765 574.459C545.662 574.463 529.188 579.018 528.983 579.177C528.021 579.65 526.849 580.281 525.864 580.615C524.259 578.917 520.954 579.181 519.618 580.995C517.664 579.021 512.067 580.08 509.315 580.31L508.452 580.319L506.91 578.738C505.176 574.078 507.701 566.857 508.623 561.549C516.223 517.783 550.54 459.124 601.127 460.271C608.565 460.439 615.829 465.891 620.361 471.746L622.137 476.596C630.309 460.331 635.64 433.721 635.189 415.431C634.889 403.244 631.046 388.331 628.412 376.33C624.793 359.841 615.903 339.443 630.944 325.875Z"/><path fill="#0D6A73" transform="scale(1.33333 1.33333)" d="M630.944 325.875C634.455 327.396 633.436 325.068 634.241 325.169C636.747 325.484 638.614 327.052 641.165 325.917L639.804 324.611L639.973 323.785C641.32 323.67 641.373 323.564 642.555 323.002C643.414 326.619 643.975 326.947 647.204 328.95C647.755 329.29 648.309 329.624 648.868 329.952L648.494 333.473C653.779 355.792 658.889 377.136 659.994 400.162C661.297 427.315 659.298 454.354 649.544 479.962C645.008 491.871 639.464 498.597 627.426 503.235C627.037 514.641 625.521 537.5 616.503 545.627L613.932 543.553C622.934 525.735 625.567 499.743 620.017 480.276C618.402 474.613 613.939 468.715 608.507 466.092C599.896 461.934 589.134 464.497 580.508 467.585C555.604 476.501 535.561 501.413 524.655 524.672C519.113 536.397 515.052 548.766 512.565 561.495C511.807 565.582 510.179 577.296 509.315 580.31L508.452 580.319L506.91 578.738C505.176 574.078 507.701 566.857 508.623 561.549C516.223 517.783 550.54 459.124 601.127 460.271C608.565 460.439 615.829 465.891 620.361 471.746L622.137 476.596C630.309 460.331 635.64 433.721 635.189 415.431C634.889 403.244 631.046 388.331 628.412 376.33C624.793 359.841 615.903 339.443 630.944 325.875Z"/><path fill="#0E3B41" transform="scale(1.33333 1.33333)" d="M626.619 488.417C633.757 478.273 638.485 467.949 640.986 455.888C641.423 453.782 642.504 452.007 644.375 450.933C648.169 456.081 637.4 481.784 633.691 487.597C631.209 491.488 626.831 492.359 626.777 497.44L627.768 498.409C634.157 498.875 642.589 486.667 645.004 481.284C663.596 439.837 658.357 393.545 649.375 350.393C648.709 347.194 644.956 331.899 645.899 329.762C647.406 330.641 647.724 331.846 648.494 333.473C653.779 355.792 658.889 377.136 659.994 400.162C661.297 427.315 659.298 454.354 649.544 479.962C645.008 491.871 639.464 498.597 627.426 503.235C627.037 514.641 625.521 537.5 616.503 545.627L613.932 543.553C622.934 525.735 625.567 499.743 620.017 480.276C618.402 474.613 613.939 468.715 608.507 466.092C599.896 461.934 589.134 464.497 580.508 467.585C555.604 476.501 535.561 501.413 524.655 524.672C519.113 536.397 515.052 548.766 512.565 561.495C511.807 565.582 510.179 577.296 509.315 580.31L508.452 580.319L506.91 578.738C505.176 574.078 507.701 566.857 508.623 561.549C516.223 517.783 550.54 459.124 601.127 460.271C608.565 460.439 615.829 465.891 620.361 471.746L622.137 476.596C624.733 480.909 625.536 483.535 626.619 488.417Z"/><path fill="#0E3B41" transform="scale(1.33333 1.33333)" d="M546.765 574.459C554.238 570.379 569.762 565.844 578.138 562.452C587.591 558.622 595.327 554.776 604.456 550.32C605.848 551.438 606.423 551.741 607.302 553.248C611.666 563.487 601.042 577.823 592.977 583.514C591.08 584.853 588.444 585.641 586.481 586.879C581.08 586.507 574.321 585.02 568.881 583.975C566.896 579.663 567.008 575.212 563.884 569.18C558.306 570.943 554.955 571.961 549.751 574.529L549.218 576.885L548.789 577L546.765 574.459Z"/><path fill="#0E3B41" transform="scale(1.33333 1.33333)" d="M604.372 519.194L605.406 520.232L605.163 521.399C600.957 525.061 571.287 536.175 564.715 538.239L563.267 536.803L563.397 535.788C566.748 533.735 573.913 531.269 577.972 529.654C586.736 526.078 595.536 522.591 604.372 519.194Z"/><path fill="#0E3B41" transform="scale(1.33333 1.33333)" d="M603.206 511.15C603.585 511.214 604.7 511.65 605.128 511.804L604.925 513.024C601.03 516.68 572.588 526.905 565.382 529.686C563.852 529.379 564.498 529.744 563.463 528.422C564.822 525.482 597.792 513.373 603.206 511.15Z"/><path fill="#0E3B41" transform="scale(1.33333 1.33333)" d="M603.079 504.223C603.861 504.418 603.493 504.301 604.166 505.209C601.034 509.582 573.915 518.302 567.16 520.488C566.148 519.911 566.613 520.276 566.003 519.037C567.643 515.916 598.443 505.243 603.079 504.223Z"/><path fill="#0E3B41" transform="scale(1.33333 1.33333)" d="M600.091 529.606L601.499 529.812L602.044 530.654C600.492 533.902 573.288 543.847 569.111 544.944C568.028 545.067 567.987 544.926 566.956 544.494L567.056 543.458C570.155 540.461 594.329 531.806 600.091 529.606Z"/><path fill="#163136" transform="scale(1.33333 1.33333)" d="M735.698 490.793C737.03 486.245 748.21 476.302 752.423 474.003C756.498 480.9 759.884 490.126 760.586 498.115C763.511 511.722 762.333 526.716 759.145 540.173C755.64 553.389 748.722 568.514 736.42 575.53C724.436 582.366 707.234 582.621 696.446 573.292C688.433 566.473 685.717 558.528 682.968 548.929C686.061 546.613 691.257 543.721 694.698 541.3C705.728 533.542 708.964 524.502 714.059 512.743C716.21 507.776 718.44 506.357 720.134 500.413C721.663 500.883 721.771 500.869 722.869 501.974C723.438 497.993 730.688 496.353 735.698 490.793Z"/><path fill="#E1E1DA" transform="scale(1.33333 1.33333)" d="M735.698 490.793C738.208 491.555 741.518 492.363 743.603 493.818C742.685 496.82 739.864 507.188 737.638 508.435C736.197 509.223 735.843 509.373 734.26 509.809C732.045 508.831 731.769 507.422 730.255 505.016L727.285 506.66C728.88 509.101 730.85 511.469 732.154 514.035C731.166 519.53 725.479 519.177 721.057 518.202C719.626 515.278 722.113 505.433 722.869 501.974C723.438 497.993 730.688 496.353 735.698 490.793Z"/><path fill="#2E4446" transform="scale(1.33333 1.33333)" d="M727.285 506.66C726.086 504.661 725.074 503.483 725.176 501.207L726.119 500.692C728.269 501.667 728.964 503.074 730.255 505.016L727.285 506.66Z"/><path fill="#0E3B41" transform="scale(1.33333 1.33333)" d="M760.586 498.115C763.511 511.722 762.333 526.716 759.145 540.173C758.338 539.143 756.914 538.444 755.749 537.755L755.602 536.702C756.996 536.532 757.141 536.442 758.415 535.986L758.521 534.622C757.309 533.251 755.789 531.419 753.879 531.665C750.475 536.572 752.088 532.909 748.706 535.395C748 537.345 747.682 538.093 746.26 539.605C746.758 536.616 747.502 533.468 748.148 530.49C749.36 525.439 749.384 520.519 749.603 515.337L749.501 514.518L750.703 514.953C751.503 516.387 751.608 516.608 752.723 517.792L754.002 517.559C755.097 515.375 753.098 517.066 752.621 513.907C761.378 504.67 759.74 512.525 760.586 498.115Z"/><path fill="#2E4446" transform="scale(1.33333 1.33333)" d="M749.603 515.337L749.757 515.935C751.13 521.152 755.48 523.33 751.588 529.193C750.075 529.939 749.774 530.068 748.148 530.49C749.36 525.439 749.384 520.519 749.603 515.337Z"/><path fill="#E1E1DA" transform="scale(1.33333 1.33333)" d="M743.603 493.818C746.869 496.951 748.6 498.272 747.591 503.025L749.28 509.429C747.119 510.746 745.295 512.306 742.953 512.031L740.893 510.841C739.727 509.248 739.519 509.255 737.638 508.435C739.864 507.188 742.685 496.82 743.603 493.818Z"/><path fill="#2E4446" transform="scale(1.33333 1.33333)" d="M743.603 493.818C746.869 496.951 748.6 498.272 747.591 503.025L746.378 500.128L745.432 499.841C743.87 501.31 741.862 508.192 740.893 510.841C739.727 509.248 739.519 509.255 737.638 508.435C739.864 507.188 742.685 496.82 743.603 493.818Z"/><path fill="#E1E1DA" transform="scale(1.33333 1.33333)" d="M741.736 529.628C743.127 525.31 743.373 518.167 745.776 515.603C747.317 514.79 747.891 514.247 749.501 514.518L749.603 515.337C749.384 520.519 749.36 525.439 748.148 530.49C747.502 533.468 746.758 536.616 746.26 539.605C744.848 537.96 742.881 532.195 741.736 529.628Z"/><path fill="#E1E1DA" transform="scale(1.33333 1.33333)" d="M720.294 521.779C736.674 520.998 727.238 522.653 733.232 529.611L734.487 532.124L735.741 532.5L738.017 531.556C743.338 534.32 748.566 554.041 729.599 549.828L727.893 548.287C721.417 539.036 721.106 532.545 720.294 521.779Z"/><path fill="#E1E1DA" transform="scale(1.33333 1.33333)" d="M735.741 532.5L738.017 531.556C743.338 534.32 748.566 554.041 729.599 549.828C732.632 544.26 734.185 538.607 735.741 532.5Z"/><path fill="#2E4446" transform="scale(1.33333 1.33333)" d="M733.232 529.611L734.487 532.124L735.741 532.5C734.185 538.607 732.632 544.26 729.599 549.828L727.893 548.287C729.047 543.095 733.141 533.392 733.232 529.611Z"/><path fill="#E1E1DA" transform="scale(1.33333 1.33333)" d="M736.92 511.62C743.389 512.738 740.614 524.49 738.46 528.182L736.36 527.474C732.807 523.72 734.509 515.643 736.92 511.62Z"/><path fill="#E3B557" transform="scale(1.33333 1.33333)" d="M682.751 310.883L684.293 311.231L684.805 311.744C690.029 316.888 700.097 318.506 706.424 325.262C725.903 346.063 728.394 390.17 730.384 417.846C730.523 419.779 730.406 427.222 730.192 429.031C748.608 433.213 757.719 447.011 761.751 464.612C758.429 469.557 757.421 470.888 752.423 474.003C748.21 476.302 737.03 486.245 735.698 490.793C730.688 496.353 723.438 497.993 722.869 501.974C721.771 500.869 721.663 500.883 720.134 500.413C716.015 501.908 715.157 510.822 710.299 514.085C708.492 517.105 704.506 523.14 701.62 525.308C682.923 539.357 659.204 547.913 637.746 556.92C633.037 558.897 626.604 560.9 621.774 560.61L621.729 559.835C627.908 555.234 636.731 553.374 643.53 550.269C655.538 544.784 676.336 536.871 686.958 529.98C689.333 525.352 696.234 524.848 695.81 520.789C694.418 520.791 683.989 527.455 680.651 529.1L679.633 528.664C681.482 527.028 688.986 523.564 691.562 521.759C706.806 511.079 712.671 490.312 716.244 473.263C719.254 470.189 717.162 468.184 720.572 464.414C721.87 456.107 723.867 446.888 724.704 438.593C727.109 414.761 723.419 391.981 719.224 368.574C716.309 352.619 711.895 333.169 697.206 323.826C692.284 320.696 685.432 319.806 680.79 316.33C680.568 313.815 681.393 312.987 682.751 310.883Z"/><path fill="#0D6A73" transform="scale(1.33333 1.33333)" d="M730.192 429.031C748.608 433.213 757.719 447.011 761.751 464.612C758.429 469.557 757.421 470.888 752.423 474.003C748.21 476.302 737.03 486.245 735.698 490.793C730.688 496.353 723.438 497.993 722.869 501.974C721.771 500.869 721.663 500.883 720.134 500.413C716.015 501.908 715.157 510.822 710.299 514.085C712.801 507.075 715.791 500.455 718.362 492.927C726.061 470.38 727.621 452.009 730.192 429.031Z"/><path fill="#0D6A73" transform="scale(1.33333 1.33333)" d="M716.244 473.263C719.254 470.189 717.162 468.184 720.572 464.414C718.049 478.77 713.896 493.434 708.46 507.019C704.231 517.589 697.077 524.814 686.958 529.98C689.333 525.352 696.234 524.848 695.81 520.789C694.418 520.791 683.989 527.455 680.651 529.1L679.633 528.664C681.482 527.028 688.986 523.564 691.562 521.759C706.806 511.079 712.671 490.312 716.244 473.263Z"/><path fill="#0E3B41" transform="scale(1.33333 1.33333)" d="M679.633 528.664C672.984 531.832 632.117 551.227 628.155 550.874C626.626 550.737 626.473 550.252 625.565 549.128C626.829 546.172 632.949 545.086 635.933 543.711L666.494 529.619C677.329 524.667 688.428 520.797 696.008 510.905C703.029 501.741 707.035 491.067 709.76 479.948C710.68 476.194 711.882 470.664 713.505 467.344L714.767 467.256C716.378 469.491 715.924 470.091 716.244 473.263C712.671 490.312 706.806 511.079 691.562 521.759C688.986 523.564 681.482 527.028 679.633 528.664Z"/><path fill="#0D6A73" transform="scale(1.33333 1.33333)" d="M670.501 308.371L675.396 305.209C677.471 308.201 679.525 309.158 682.751 310.883C681.393 312.987 680.568 313.815 680.79 316.33L681.168 317.318C680.49 329.217 658.126 333.015 648.868 329.952C648.309 329.624 647.755 329.29 647.204 328.95C643.975 326.947 643.414 326.619 642.555 323.002L644.792 323.055C654.151 321.549 663.588 314.538 670.501 308.371Z"/><path fill="#0E3B41" transform="scale(1.33333 1.33333)" d="M644.792 323.055C649.196 331.905 668.44 327.366 674.444 322.729C676.713 320.977 678.877 319.065 681.168 317.318C680.49 329.217 658.126 333.015 648.868 329.952C648.309 329.624 647.755 329.29 647.204 328.95C643.975 326.947 643.414 326.619 642.555 323.002L644.792 323.055Z"/><path fill="#2E4446" transform="scale(1.33333 1.33333)" d="M613.932 543.553L616.503 545.627C615.096 546.818 607.633 552.597 607.302 553.248C606.423 551.741 605.848 551.438 604.456 550.32C608.283 547.609 610.557 547.291 613.932 543.553Z"/><path fill="#0E3B41" transform="scale(1.33333 1.33333)" d="M701.604 462.952C702.48 463.239 702.966 463.759 703.674 464.356C706.324 472.791 692.659 505.162 684.99 511.533C671.299 522.907 649.772 532.836 632.976 538.979L631.306 537.162C631.379 536.023 631.467 535.028 632.867 534.479C635.943 533.27 638.911 531.984 641.863 530.547C652.543 525.347 665.353 519.976 675.198 513.566C686.904 505.946 693.448 490.538 696.832 477.482C697.782 473.817 699.712 466.826 701.313 463.535L701.604 462.952Z"/><path fill="#0E3B41" transform="scale(1.33333 1.33333)" d="M679.3 335.304C682.871 338.429 690.061 379.696 691.402 386.973C697.251 418.717 694.511 448.134 685.264 478.884C683.452 484.91 680.366 495.325 676.65 500.473C675.923 500.283 674.543 499.613 674.844 498.808C680.962 482.696 685.463 466.213 688.821 449.324C695.516 415.663 688.403 382.318 681.754 349.31C680.885 344.995 679.811 340.345 679.363 335.959L679.3 335.304Z"/><path fill="#163136" transform="scale(1.33333 1.33333)" d="M549.218 576.885L549.751 574.529C554.955 571.961 558.306 570.943 563.884 569.18C567.008 575.212 566.896 579.663 568.881 583.975C570.358 588.781 570.231 600.569 570.224 605.738C569.672 613.544 569.309 618.995 567.334 626.593C555.892 658.983 529.51 685.501 491.025 672.3C490.979 672.28 490.932 672.259 490.886 672.239L486.455 670.49C467.633 661.663 461.108 646.059 457.066 627.086C456.921 625.147 456.494 622.444 456.244 620.449C455.44 609.042 455.263 598.544 457.27 587.196L459.801 586.993L463.302 586.975C477.44 589.56 495.233 585.138 508.452 580.319L509.315 580.31C512.067 580.08 517.664 579.021 519.618 580.995C520.954 579.181 524.259 578.917 525.864 580.615C526.849 580.281 528.021 579.65 528.983 579.177C529.188 579.018 545.662 574.463 546.765 574.459L548.789 577L549.218 576.885Z"/><path fill="#2E4446" transform="scale(1.33333 1.33333)" d="M519.618 580.995C520.954 579.181 524.259 578.917 525.864 580.615C527.07 584.194 528.739 587.599 530.829 590.745L531.737 591.408L531.455 593.485L533.135 594.601C531.229 601.831 529.521 610.067 535.569 615.879C533.428 616.092 532.782 615.754 530.872 614.799C531.307 616.248 534.234 617.609 535.391 619.259L531.738 618.242C530.194 619.676 523.965 632.483 521.034 636.112C519.996 633.813 520.668 634.584 518.437 633.25C517.014 633.289 516.21 633.484 515.055 632.685C513.645 629.892 514.31 624.363 514.397 620.897C512.948 614.336 512.971 609.452 513.313 602.821L513.23 599.13C514.831 590.963 515.691 588.302 519.618 580.995Z"/><path fill="#E1E1DA" transform="scale(1.33333 1.33333)" d="M513.313 602.821C517.612 603.461 521.922 604.022 526.242 604.503C526.37 609.358 526.837 611.526 528.578 616.09C525.518 619.708 521.966 628.869 519.015 630.691C516.171 629.765 515.218 623.779 514.397 620.897C512.948 614.336 512.971 609.452 513.313 602.821Z"/><path fill="#E1E1DA" transform="scale(1.33333 1.33333)" d="M519.618 580.995C520.954 579.181 524.259 578.917 525.864 580.615C527.07 584.194 528.739 587.599 530.829 590.745C527.9 593.145 527.503 596.936 526.753 600.595C522.559 600.098 517.343 599.348 513.23 599.13C514.831 590.963 515.691 588.302 519.618 580.995Z"/><path fill="#E1E1DA" transform="scale(1.33333 1.33333)" d="M528.983 579.177C529.188 579.018 545.662 574.463 546.765 574.459L548.789 577L549.218 576.885C549.815 578.462 550.441 579.667 550.389 581.331C547.869 584.626 545.841 588.807 543.737 592.452C542.324 593.617 542.132 593.767 540.364 594.221C539.192 592.58 539.014 592.185 537.128 591.574C535.177 591.923 534.509 593.071 533.135 594.601L531.455 593.485L531.737 591.408L530.829 590.745C528.739 587.599 527.07 584.194 525.864 580.615C526.849 580.281 528.021 579.65 528.983 579.177Z"/><defs><linearGradient id="gradient_3" gradientUnits="userSpaceOnUse" x1="532.4433" y1="593.15894" x2="540.71075" y2="575.83215"><stop offset="0" stop-color="#243134"/><stop offset="1" stop-color="#354C4C"/></linearGradient></defs><path fill="url(#gradient_3)" transform="scale(1.33333 1.33333)" d="M548.789 577L549.218 576.885C549.815 578.462 550.441 579.667 550.389 581.331C547.869 584.626 545.841 588.807 543.737 592.452C542.324 593.617 542.132 593.767 540.364 594.221C539.192 592.58 539.014 592.185 537.128 591.574C535.177 591.923 534.509 593.071 533.135 594.601L531.455 593.485L531.737 591.408L530.829 590.745C528.739 587.599 527.07 584.194 525.864 580.615C526.849 580.281 528.021 579.65 528.983 579.177C533.708 591.594 533.665 583.919 541.879 589.155C543.699 585.077 546.518 580.943 548.789 577Z"/><path fill="#E1E1DA" transform="scale(1.33333 1.33333)" d="M521.034 636.112C523.965 632.483 530.194 619.676 531.738 618.242L535.391 619.259L538.088 618.646C541.339 620.894 542.171 626.373 543.817 630.107C539.932 636.462 537.934 638.207 530.895 640.641C526.484 639.619 524.678 638.738 521.034 636.112Z"/><path fill="#2E4446" transform="scale(1.33333 1.33333)" d="M461.533 628.1C463.271 627.645 463.265 627.928 464.385 626.853L464.157 625.83C465.087 625.892 464.831 625.688 465.321 626.148L464.713 626.929C465.977 629.235 467.32 628.105 467.144 631.084C466.003 632.323 465.179 633.248 463.889 634.361L462.919 635.097C465.475 639.599 465.421 642.939 469.997 644.653L472.106 643.453C473.626 643.919 472.893 643.944 474.378 643.371C475.699 646.451 474.393 649.086 472.454 651.608L472.225 653.634C476.665 658.559 485.105 663.605 486.455 670.49C467.633 661.663 461.108 646.059 457.066 627.086L461.533 628.1Z"/><path fill="#E1E1DA" transform="scale(1.33333 1.33333)" d="M533.135 594.601C534.509 593.071 535.177 591.923 537.128 591.574C539.014 592.185 539.192 592.58 540.364 594.221C541.819 602.678 541.006 604.331 539.231 612.866L535.569 615.879C529.521 610.067 531.229 601.831 533.135 594.601Z"/><path fill="#E1E1DA" transform="scale(1.33333 1.33333)" d="M543.737 592.452C545.841 588.807 547.869 584.626 550.389 581.331C552.027 588.689 552.816 592.44 552.571 600.168C550.636 599.819 548.837 599.679 546.887 599.502C544.217 597.676 544.463 596.053 543.737 592.452Z"/><path fill="#0E3B41" transform="scale(1.33333 1.33333)" d="M472.339 632.067C472.98 632.811 473.946 633.853 474.436 634.646L474.365 636.288C476.541 638.188 476.312 637.416 476.756 639.835C475.966 642.438 475.579 641.459 474.475 642.937L474.378 643.371C472.893 643.944 473.626 643.919 472.106 643.453L469.997 644.653C465.421 642.939 465.475 639.599 462.919 635.097L463.889 634.361L465.959 635.599C468.347 635.489 470.372 633.556 472.339 632.067Z"/><path fill="#0E3B41" transform="scale(1.33333 1.33333)" d="M472.454 651.608L472.837 651.727C474.349 652.186 474.489 652.234 476.037 652.268L476.602 654.298C481.368 656.08 481.752 650.048 484.179 657.535C482.992 657.765 483.052 657.726 481.855 657.483L481.468 658.191C483.566 659.73 486.743 661.773 488.071 663.857C487.228 664.494 487.044 664.495 486.043 664.868L486.01 666.565L486.88 667.142L488.657 666.285C490.498 667.68 490.423 669.661 490.886 672.239L486.455 670.49C485.105 663.605 476.665 658.559 472.225 653.634L472.454 651.608Z"/><path fill="#2E4446" transform="scale(1.33333 1.33333)" d="M567.334 626.593C565.751 625.69 566.37 626.306 565.502 624.599L564.171 624.545L563.949 623.917L565.409 623.483C566.14 621.757 566.065 622.614 565.719 620.831C564.44 620.213 563.79 620.038 562.921 618.899L563.505 617.613C565.064 617.342 565.675 617.221 567.172 616.723C567.328 612.16 565.06 615.787 566.511 609.727C563.611 608.971 563.862 611.223 560.731 610.831L560.457 609.556C561.467 608.037 567.675 607.083 570.224 605.738C569.672 613.544 569.309 618.995 567.334 626.593Z"/><path fill="#2E4446" transform="scale(1.33333 1.33333)" d="M540.364 594.221C542.132 593.767 542.324 593.617 543.737 592.452C544.463 596.053 544.217 597.676 546.887 599.502C548.837 599.679 550.636 599.819 552.571 600.168C548.758 602.46 545.379 599.426 542.605 600.658C542.334 604.619 542.471 610.194 539.231 612.866C541.006 604.331 541.819 602.678 540.364 594.221Z"/><path fill="#0E3B41" transform="scale(1.33333 1.33333)" d="M518.437 633.25C520.668 634.584 519.996 633.813 521.034 636.112C524.678 638.738 526.484 639.619 530.895 640.641C527.249 641.614 521.613 641.326 518.023 639.476C516.657 637.95 516.564 637.732 516.293 635.701L518.437 633.25Z"/><path fill="#0E3B41" transform="scale(1.33333 1.33333)" d="M456.244 620.449C458.362 621.656 460.87 622.69 461.737 624.879L461.533 628.1L457.066 627.086C456.921 625.147 456.494 622.444 456.244 620.449Z"/><path fill="#0E3B41" transform="scale(1.33333 1.33333)" d="M472.339 632.067C473.868 630.193 473.86 629.481 475.79 629.179C477.619 631.014 477.381 632.21 476.916 634.812C475.61 634.992 475.697 635.014 474.436 634.646C473.946 633.853 472.98 632.811 472.339 632.067Z"/><path fill="#E1E1DA" transform="scale(1.33333 1.33333)" d="M545.017 603.154C546.305 603.205 552.002 603.358 552.1 604.607C552.514 609.868 548.9 619.477 547.177 624.139L546.522 624.987L545.778 625.07C540.208 611.939 543.668 616.363 545.017 603.154Z"/><path fill="#163136" transform="scale(1.33333 1.33333)" d="M733.5 230.835C730.297 215.786 735.069 200.262 751.626 197.093C780.335 191.598 779.693 239.452 754.045 242.93C748.459 243.646 742.816 242.138 738.33 238.733C737.378 237.986 736.451 237.207 735.551 236.398C726.953 245.101 716.405 254.866 709.026 264.517C707.252 266.839 708.043 277.513 708.165 280.736C705.921 280.467 704.444 280.517 702.719 279.015C702.647 274.202 702.535 269.39 702.382 264.579C706.624 256.824 726.494 237.873 733.5 230.835Z"/><path fill="#E1E1DA" transform="scale(1.33333 1.33333)" d="M755.348 199.734C774.244 202.784 770.829 232.358 755.824 238.272C753.881 239.038 751.132 239.235 749.037 239.438C741.343 237.74 736.843 233.218 735.819 225.224C735.06 218.932 736.804 212.593 740.674 207.574C744.893 202.179 748.86 200.594 755.348 199.734Z"/><path fill="#FBFAFB" transform="scale(1.33333 1.33333)" d="M761.156 206.748L761.626 207.471C760.591 210.916 744.465 227.901 741.149 230.537L740.525 229.469C743.575 222.143 755.073 212.309 761.156 206.748Z"/><path fill="#FBFAFB" transform="scale(1.33333 1.33333)" d="M757.898 219.892C758.438 220.674 758.194 220.414 758.205 221.688C755.787 226.188 751.648 229.948 747.904 233.399C747.038 232.465 747.382 233.024 747.174 231.507C750.323 226.607 753.591 223.639 757.898 219.892Z"/><path fill="#163136" transform="scale(1.33333 1.33333)" d="M723.175 288.686C729.894 294.278 765.231 290.202 752.739 307.314C751.844 308.541 750.153 310.037 748.94 310.929C742.147 308.357 728.692 306.317 721.411 305.331L720.646 305.751C711.849 301.702 714.007 290.655 723.175 288.686Z"/><path fill="#E8AC44" fill-opacity="0.98823529" transform="scale(1.33333 1.33333)" d="M485.173 385.446C482.651 384.053 475.877 378.888 475.722 375.979L476.972 375.767C478.452 376.96 478.953 377.103 480.838 377.311C484.258 378.869 486.248 381.637 485.606 385.472L485.173 385.446Z"/><path fill="#E8AC44" fill-opacity="0.98039216" transform="scale(1.33333 1.33333)" d="M549.78 252.118C551.067 254.457 550.941 253.496 550.583 255.805L549.145 257.389C544.322 258.907 541.735 259.257 536.756 259.984C541.809 256.864 545.329 256.53 549.78 252.118Z"/><path fill="#FBFAFB" fill-opacity="0.4509804" transform="scale(1.33333 1.33333)" d="M485.256 339.221C485.486 335.829 485.692 332.563 486.103 329.181C486.959 333.132 489.9 335.556 486.871 339.352L485.256 339.221Z"/><path fill="#E3B557" fill-opacity="0.95686275" transform="scale(1.33333 1.33333)" d="M596.546 176.8C598.782 175.245 602.349 172.527 604.779 171.674L603.656 175.479C604.687 176.328 605.056 176.34 606.316 176.68L596.546 176.8Z"/><path fill="#FBFAFB" fill-opacity="0.21568628" transform="scale(1.33333 1.33333)" d="M493.081 335.355C492.241 332.479 492.648 326.139 493.741 323.108C494.52 324.605 494.226 325.613 494.058 327.317C493.45 330.398 493.291 332.207 493.081 335.355Z"/></svg>