<?xml version="1.0" encoding="utf-8" ?><svg xmlns="http://www.w3.org/2000/svg" xmlns:xlink="http://www.w3.org/1999/xlink" width="1792" height="1024" viewBox="0 0 1792 1024"><path fill="#0F4043" transform="scale(1.33333 1.33333)" d="M857.63 216.071C867.259 210.659 875.788 203.225 884.694 196.861C907.778 180.364 930.936 164.688 950.761 144.185C952.412 142.477 959.016 135.88 960.735 134.623C967.473 129.697 989.893 100.814 996.102 101.431L996.912 102.688C997.385 108.255 994.503 112.175 992.898 116.974C986.473 136.182 973.415 150.562 960.105 165.317C954.479 171.554 948.812 176.44 943.669 183.511C965.886 169.578 987.765 155.111 1009.29 140.123C1014.66 136.372 1034.07 120.071 1039.28 120.515C1039.82 121.053 1040.44 121.354 1040.21 122.108C1032.27 147.818 1009.37 167.21 988.81 182.878C979.688 189.831 972.499 194.531 965.645 201.172C985.804 192.37 1004.95 181.04 1023.22 168.841C1030 164.318 1048.03 146.208 1054.54 146.883C1058.08 152.103 1045.54 167.544 1041.51 171.64C1025.57 187.832 1006.53 201.508 987.85 214.387C1001.28 210.339 1018.55 201.338 1031.81 195.533C1037.95 192.844 1050.77 185.21 1056.68 184.033C1058.72 184.609 1058.14 184.122 1059.12 185.681C1058.36 205.514 988.915 241.169 972.246 248.376C978.294 248.082 984.313 247.35 990.255 246.185C999.748 244.365 1046.02 232.648 1052.43 235.401L1052.16 236.65C1041.4 250.091 1024.06 256.78 1008.97 263.947C999.003 268.682 987.315 271.254 976.631 274.215C983.624 275.222 1021.86 275.075 1021.36 282.837C1020.25 300.333 979.595 302.273 967.198 302.655L965.272 303.75C972.624 309.159 982.067 314.383 987.274 321.542C984.788 325.99 982.601 330.492 976.986 331.407C966.414 333.129 954.279 332.188 943.156 333.025C946.615 334.813 953.903 338.076 954.811 341.75C957.306 351.852 927.225 353.675 921.757 353.616C923.861 359.554 925.246 364.407 926.032 370.734C921.8 373.203 921.438 374.341 918.797 376.177C913.043 380.177 901.332 378.83 893.954 378.588C894.447 385.419 896.303 397.006 886.174 397.168C879.496 397.274 869.612 393.562 863.088 391.528C871.231 421.688 846.99 402.646 840.567 408.791C838.425 413.739 842.743 419.822 838.049 421.58C832.073 423.818 821.429 419.094 815.793 417.509C814.975 437.696 804.866 431.749 790.486 428.245C790.301 431.816 790.607 440.428 785.027 440.161C778.078 439.829 771.865 432.638 764.794 432.355C765.731 435.749 768.058 441.205 765.95 444.365C761.613 450.868 745.062 438.925 739.531 436.699C746.049 449.237 751.896 456.908 764.879 463.939L765.385 464.167C769.713 466.137 773.579 469.137 778.048 471.15C795.478 479.002 812.218 485.918 831.101 489.411C838.11 490.708 855.485 491.692 859.908 496.052C857.357 502.112 845.217 502.188 839.397 501.601L837.57 502.604C838.861 505.692 848.44 507.091 852.593 517.758C849.441 522.64 843.382 522.988 838.021 522.257L835.079 523.189C833.136 527.915 840.093 530.526 838.91 538.171C833.745 544.274 822.221 538.442 816.369 535.972L815.034 536.764C814.481 543.825 827.651 550.9 810.002 553.754C805.075 555.512 793.378 548.23 788.865 545.558C788.199 548.081 786.019 555.314 786.015 557.272C781.816 563.82 768.883 550.679 764.751 548.204C764.311 550.597 763.989 553.881 762.447 555.624C759.966 557.255 755.734 556.206 752.631 555.827C746.821 555.878 745.664 555.366 741.234 551.529C739.103 551.992 734.884 553.549 732.663 554.297C723.916 549.319 721.986 550.782 715.109 542.112L714.814 541.859C711.361 538.948 710.936 537.526 706.436 538.952C705.052 539.618 705.122 539.623 703.603 539.721C701.374 538.618 699.764 535.461 698.368 533.253C697.586 534.412 696.322 535.668 695.348 536.725C692.887 527.532 690.384 523.94 682.877 532.146C681.24 529.1 681.842 526.073 682.168 522.714C683.007 514.064 681.038 507.936 677.585 500.146C673.932 499.448 669.922 498.59 666.271 498.067C665.683 503.765 663.694 527.746 661.21 530.56L659.648 531.085C658.47 530.421 657.503 529.849 656.366 529.116C652.628 531.674 653.927 538.628 648.327 539.381C645.861 538.633 644.685 537.071 642.889 535.207C640.939 538.307 639.296 541.619 635.597 542.535C632.276 541.794 631.999 540.731 630.596 537.768C630.399 535.232 630.434 532.841 629.248 530.613C625.601 528.41 623.891 531.659 619.814 531.693C623.24 513.79 617.141 507.247 612.446 491.15C611.196 486.862 610.954 472.595 610.962 467.808C605.379 460.688 603.445 457.836 595.636 453.607C594.046 457.473 592.696 460.492 587.592 459.269C581.644 457.843 575.532 450.949 571.378 446.808C571.204 450.726 571.603 456.901 567.829 459.089C562.051 459.577 555.932 449.394 550.708 445.483C548.04 445.3 550.212 448.804 545.704 451.813C544.47 452.629 542.959 452.913 541.514 452.6C536.388 451.505 529.56 442.459 526.66 438.195C519.619 460.603 510.982 441.454 506.42 430.858C491.471 449.526 486.142 436.328 480 420.36C476.857 425.324 473.183 433.781 466.591 433.102C461.364 429.588 459.811 417.079 457.375 410.476L457.134 409.832C447.111 415.671 438.32 418.699 430.679 408.366C429.991 401.539 429.85 395.974 429.725 389.153C408.455 400.942 393.265 401.101 408.724 373.162C401.488 374.635 394.806 381.791 387.096 380.532C382.32 379.752 385.294 375.161 383.266 371.604C380.936 370.609 380.672 371.218 377.645 371.88C371.837 372.672 363.156 374.701 359.567 369.209C358.686 362.55 368.288 355.381 372.25 349.299L372.613 348.732C361.923 351.091 346.325 353.482 335.645 351.984C331.918 351.363 328.205 350.631 327.096 346.654C329.078 337.328 352.823 333.261 355.629 328.801L352.519 327.975C343.836 326.711 335.146 326.1 326.575 324.281C319.029 324.048 285.855 313.724 287.16 304.901C292.912 302.147 329.812 305.409 342.713 303.226C335.538 298.382 328.081 296.559 320.024 293.573C296.055 284.688 281.067 276.596 267.373 254.974C277.554 256.115 286.87 258.575 296.68 261.292C299.724 261.882 309.149 264.022 311.606 263.031L311.539 262.041C309.641 259.381 305.907 257.164 303.127 255.262C289.463 245.234 278.797 234.205 269.64 219.968C267.67 216.905 260.869 207.074 264.982 204.407C269.288 205.498 290.149 220.933 295.515 224.356C303.404 229.388 310.08 234.027 318.921 238.343L322.914 236.412C297.424 215.647 281.295 193.112 277.58 159.935C283.189 164.87 288.902 174.304 293.519 180.633C303.197 193.899 322.435 214.168 337.298 221.15C332.603 213.902 327.242 208.453 322.042 201.347C309.617 184.371 299.72 164.441 301.619 142.806C301.659 142.358 301.983 141.553 302.168 141.126L303.087 140.774C307.14 144.554 314.745 162.916 318.231 169.15C323.463 178.509 327.901 183.895 333.789 192.152C354.42 221.082 375.758 233.816 405.982 250.864C403.838 246.887 399.228 239.561 399.529 235.214L400.279 234.437C403.448 235.061 414.446 244.4 417.905 247.293C428.06 255.786 447.296 260.674 456.732 268.188C474.747 282.532 487.004 289.043 508.604 298.284C523.034 304.457 538.722 312.847 553.086 319.731C563.834 317.81 581.281 314.603 591.851 316.67C612.467 320.7 626.728 325.879 648.231 326.175C654.426 326.09 663.644 327.08 669.453 329.119C685.912 319.259 703.837 310.821 720.369 300.806C730.017 295.139 741.425 289.87 750.428 283.288C771.237 268.074 791.666 252.933 810.824 235.667C818.761 228.514 829.875 221.893 838.42 215.018C846.872 208.218 853.012 197.525 860.721 191.414L861.811 192.349C863.798 198.247 859.552 209.819 857.63 216.071Z"/><path fill="#F4EFE2" transform="scale(1.33333 1.33333)" d="M764.879 463.939L765.385 464.167C769.713 466.137 773.579 469.137 778.048 471.15C795.478 479.002 812.218 485.918 831.101 489.411C838.11 490.708 855.485 491.692 859.908 496.052C857.357 502.112 845.217 502.188 839.397 501.601L837.57 502.604C838.861 505.692 848.44 507.091 852.593 517.758C849.441 522.64 843.382 522.988 838.021 522.257L835.079 523.189C833.136 527.915 840.093 530.526 838.91 538.171C833.745 544.274 822.221 538.442 816.369 535.972L815.034 536.764C814.481 543.825 827.651 550.9 810.002 553.754C805.075 555.512 793.378 548.23 788.865 545.558C788.199 548.081 786.019 555.314 786.015 557.272C781.816 563.82 768.883 550.679 764.751 548.204C764.311 550.597 763.989 553.881 762.447 555.624C759.966 557.255 755.734 556.206 752.631 555.827C746.821 555.878 745.664 555.366 741.234 551.529C739.103 551.992 734.884 553.549 732.663 554.297C723.916 549.319 721.986 550.782 715.109 542.112C717.272 536.53 713.122 534.066 712.893 527.748C715.002 530.235 715.938 531.278 719.343 530.656C722.066 527.923 721.735 519.078 722.167 514.411C722.45 511.575 721.972 512.175 723.615 510.33C725.592 509.528 725.86 509.412 727.914 509.917L729.297 508.707L729.996 506.269C728.994 483.765 728.454 495.564 742.871 488.385C745.137 487.257 742.604 480.847 751.546 482.241C753.892 482.607 755.767 480.24 757.072 478.958C756.536 476.262 755.213 474.515 755.582 472.098C758.804 471.444 759.174 471.114 761.753 469.029C762.147 467.841 762.154 467.106 762.261 465.881L764.879 463.939Z"/><path fill="#E7E5DB" transform="scale(1.33333 1.33333)" d="M729.996 506.269C728.994 483.765 728.454 495.564 742.871 488.385C745.137 487.257 742.604 480.847 751.546 482.241C753.892 482.607 755.767 480.24 757.072 478.958C756.926 480.838 756.836 481.674 756.399 483.504L758.22 487.381L757.331 487.882C755.627 486.817 754.519 485.944 752.557 485.502C750.63 486.254 751.25 485.983 749.929 488.161L749.894 489.488C752.317 490.31 752.632 489.487 754.956 489.874C757.532 492.923 764.749 496.062 762.472 499.901C758.31 499.14 756.959 495.165 753.162 495.143L752.005 496.623C757.257 503.023 757.966 502.734 759.92 511.039C759.076 511.793 758.227 512.541 757.373 513.285C757.695 515.008 760.042 516.764 760.977 519.885L760.731 520.775L759.02 520.841L758.845 522.223L759.521 522.632C759.469 524.965 759.494 525.252 760.49 527.355L758.001 525.891C755.267 528.776 760.603 534.436 761.06 537.615C759.694 536.438 757.532 533.586 756.317 532.076L754.201 533.785C755.369 536.046 764.726 548.373 764.751 548.204C764.311 550.597 763.989 553.881 762.447 555.624C759.966 557.255 755.734 556.206 752.631 555.827C746.821 555.878 745.664 555.366 741.234 551.529C739.103 551.992 734.884 553.549 732.663 554.297C723.916 549.319 721.986 550.782 715.109 542.112C717.272 536.53 713.122 534.066 712.893 527.748C715.002 530.235 715.938 531.278 719.343 530.656C722.066 527.923 721.735 519.078 722.167 514.411C722.45 511.575 721.972 512.175 723.615 510.33C725.592 509.528 725.86 509.412 727.914 509.917L729.297 508.707L729.996 506.269Z"/><path fill="#E9DFC8" transform="scale(1.33333 1.33333)" d="M729.996 506.269C733.001 506.107 732.748 506.612 734.576 504.989C734.928 503.65 735.007 503.574 734.959 502.136L739 503.904C739.206 503.047 739.262 502.514 739.365 501.637C743.324 501.425 741.991 505.511 744.683 507.961C742.939 507.911 742.018 507.833 740.278 508.123L740.11 509C743.801 513.352 739.909 516.571 742.1 520.883L743.026 520.855L743.851 519.77C744.404 522.103 744.907 522.488 744.19 524.491L743.177 524.828C742.763 523.84 742.431 522.98 742.063 521.973C741.213 522.617 741.293 522.772 740.91 523.804L740.637 523.259C740.217 522.439 739.964 522.157 739.392 521.442C736.256 520.722 737.971 521.277 735.113 522.213L734.397 521.175C733.222 519.881 730.287 514.039 728.905 514.488C725.433 515.617 725.672 515.381 722.167 514.411C722.45 511.575 721.972 512.175 723.615 510.33C725.592 509.528 725.86 509.412 727.914 509.917L729.297 508.707L729.996 506.269Z"/><path fill="#E5DCBF" transform="scale(1.33333 1.33333)" d="M722.167 514.411C722.45 511.575 721.972 512.175 723.615 510.33C725.592 509.528 725.86 509.412 727.914 509.917L728.608 511.784L729.984 512.375L731.375 511.277C734.637 512.434 736.243 519.868 734.397 521.175C733.222 519.881 730.287 514.039 728.905 514.488C725.433 515.617 725.672 515.381 722.167 514.411Z"/><defs><linearGradient id="gradient_0" gradientUnits="userSpaceOnUse" x1="736.00409" y1="545.13647" x2="742.50067" y2="537.53741"><stop offset="0" stop-color="#2B4440"/><stop offset="1" stop-color="#58756F"/></linearGradient></defs><path fill="url(#gradient_0)" transform="scale(1.33333 1.33333)" d="M741.234 551.529C738.542 544.447 731.044 537.685 729.684 528.088L730.216 527.248L731.216 527.042C735.552 533.036 737.529 539.13 742.077 545.543C745.238 549.999 751.863 553.794 752.631 555.827C746.821 555.878 745.664 555.366 741.234 551.529Z"/><path fill="#E5DCBF" transform="scale(1.33333 1.33333)" d="M743.851 519.77L743.026 520.855L742.1 520.883C739.909 516.571 743.801 513.352 740.11 509L740.278 508.123C742.018 507.833 742.939 507.911 744.683 507.961C746.435 511.361 749.679 512.941 750.763 516.057C749.986 516.641 745.899 516.868 744.744 516.605L743.461 517.76C743.522 519.029 743.367 518.672 743.851 519.77Z"/><path fill="#647468" transform="scale(1.33333 1.33333)" d="M754.201 533.785C752.136 531.672 749.398 524.692 748.439 521.639C749.778 522.349 755.141 530.36 756.317 532.076L754.201 533.785Z"/><path fill="#F4EFE2" transform="scale(1.33333 1.33333)" d="M751.04 499.08C755.849 500.625 752.264 500.969 753.464 504.028L756.01 504.105L756.379 504.734L754.948 507.119C753.811 507.34 753.664 507.162 752.482 506.897C751.48 505.097 749.936 502.306 749.71 500.289L751.04 499.08Z"/><path fill="#E9DFC8" transform="scale(1.33333 1.33333)" d="M747.812 537.825C749.588 538.749 752.391 544.04 752.943 546.059C753.081 546.562 752.433 547.25 752.116 547.736C749.699 542.678 747.739 542.301 746.349 539.618L747.812 537.825Z"/><defs><linearGradient id="gradient_1" gradientUnits="userSpaceOnUse" x1="830.32977" y1="498.95184" x2="830.96869" y2="491.89594"><stop offset="0" stop-color="#2A3939"/><stop offset="1" stop-color="#4B5A58"/></linearGradient></defs><path fill="url(#gradient_1)" transform="scale(1.33333 1.33333)" d="M799.321 488.369C804.277 488.933 810.748 490.778 815.623 492.092C834.067 497.063 841.236 498.825 859.908 496.052C857.357 502.112 845.217 502.188 839.397 501.601C838.903 500.965 832.475 500.09 830.818 499.738C818.998 497.225 810.161 493.27 799.321 488.369Z"/><path fill="#345656" transform="scale(1.33333 1.33333)" d="M765.571 522.76C773.594 526.832 784.214 538.301 792.932 543.438C796.497 545.538 809.022 551.074 810.002 553.754C805.075 555.512 793.378 548.23 788.865 545.558C778.38 537.047 773.902 533.913 765.571 522.76Z"/><defs><linearGradient id="gradient_2" gradientUnits="userSpaceOnUse" x1="813.65308" y1="537.42706" x2="815.16699" y2="521.9411"><stop offset="0" stop-color="#2B4441"/><stop offset="1" stop-color="#666C6A"/></linearGradient></defs><path fill="url(#gradient_2)" transform="scale(1.33333 1.33333)" d="M789.441 517.577C800.627 522.655 811.219 528.287 822.173 533.824C827.904 536.722 832.826 537.036 838.91 538.171C833.745 544.274 822.221 538.442 816.369 535.972C814.064 533.393 795.274 522.383 789.441 517.577Z"/><defs><linearGradient id="gradient_3" gradientUnits="userSpaceOnUse" x1="828.00183" y1="522.05072" x2="826.48535" y2="505.46024"><stop offset="0" stop-color="#384846"/><stop offset="1" stop-color="#565F5D"/></linearGradient></defs><path fill="url(#gradient_3)" transform="scale(1.33333 1.33333)" d="M805.969 506.945C817.038 511.767 829.476 518.095 841.598 518.551C845.922 518.714 849.091 517.75 852.593 517.758C849.441 522.64 843.382 522.988 838.021 522.257C826.441 519.965 815.527 514.895 805.369 508.984L805.969 506.945Z"/><defs><linearGradient id="gradient_4" gradientUnits="userSpaceOnUse" x1="771.4917" y1="539.50677" x2="766.53888" y2="551.31366"><stop offset="0" stop-color="#445B4E"/><stop offset="1" stop-color="#334D54"/></linearGradient></defs><path fill="url(#gradient_4)" transform="scale(1.33333 1.33333)" d="M754.201 533.785L756.317 532.076C757.532 533.586 759.694 536.438 761.06 537.615C765.887 546.279 778.088 552.672 786.015 557.272C781.816 563.82 768.883 550.679 764.751 548.204C764.726 548.373 755.369 536.046 754.201 533.785Z"/><path fill="#647468" transform="scale(1.33333 1.33333)" d="M805.369 508.984C801.072 507.166 796.165 503.994 792.578 501.023C797.004 503.099 801.497 504.791 805.969 506.945L805.369 508.984Z"/><path fill="#E9DFC8" transform="scale(1.33333 1.33333)" d="M759.521 522.632C761.758 524.419 763.244 525.3 764.272 527.962L763.828 528.787C761.598 528.647 762.474 528.933 760.49 527.355C759.494 525.252 759.469 524.965 759.521 522.632Z"/><path fill="#E7E5DB" transform="scale(1.33333 1.33333)" d="M762.707 484.686C765.836 484.594 769.282 486.422 771.409 488.651L771.069 489.375C769.117 489.909 768.776 489.877 766.746 489.745C764.999 489.615 764.007 491.468 760.508 490.373L760.077 489.251C760.914 487.493 761.68 486.308 762.707 484.686Z"/><path fill="#E7E5DB" transform="scale(1.33333 1.33333)" d="M769.416 496.562C772.2 497.065 774.142 497.639 776.337 499.443C777.918 502.473 777.075 503.132 778.645 505.926C777.408 506.859 776.942 507.571 775.638 507.578C776.311 502.921 771.375 503.956 769.416 496.562Z"/><path fill="#E9DFC8" transform="scale(1.33333 1.33333)" d="M773.247 516.712L773.79 516.372C775.719 516.999 781.584 522.325 782.686 524.465C779.333 523.665 776.053 519.991 772.915 518.212L773.247 516.712Z"/><path fill="#E5DCBF" transform="scale(1.33333 1.33333)" d="M778.657 509.154C782.505 509.749 783.01 511.153 785.503 514.301C782.405 513.518 780.642 511.467 778.657 509.154Z"/><path fill="#AEAB94" transform="scale(1.33333 1.33333)" d="M785.175 514.559C788.137 514.678 790.25 516.903 792.338 518.798C789.139 518.312 787.639 516.635 785.175 514.559Z"/><path fill="#F4EFE2" transform="scale(1.33333 1.33333)" d="M553.086 319.731C563.834 317.81 581.281 314.603 591.851 316.67C612.467 320.7 626.728 325.879 648.231 326.175C647.104 329.479 646.064 330.212 642.899 332.128C648.697 334.423 650.239 335.19 654.633 339.746C648.986 343.014 647.058 343.765 640.513 345.438C644.621 348.51 652.763 353.957 654.101 358.7C652.148 363.591 642.376 361.811 639.429 364.669C639.79 371.104 647.471 382.938 645.405 390.091C639.167 394.373 634.904 383.699 628.327 387.215C629.014 393.007 630.767 402.986 628.951 408.111C622.969 414.162 613.205 396.355 608.966 398.491C607.1 403.757 607.695 411.901 604.444 414.952C599.95 415.346 591.958 403.169 589.102 399.773C587.68 404.217 586.907 408.279 583.25 411.223C582.278 411.362 581.267 411.728 580.614 410.809C573.957 401.435 575.877 382.857 569.206 373.124C564.455 366.192 555.279 360.05 548.735 355.612C553.776 354.013 571.25 351.312 573.21 346.943C570.944 342.214 556.631 341.136 552.983 336.925C551.114 334.767 548.159 328.235 546.651 325.336C548.333 323.493 551.091 321.368 553.086 319.731Z"/><path fill="#292929" transform="scale(1.33333 1.33333)" d="M578.752 326.501C579.447 327.126 579.14 326.899 579.368 328.209C578.017 330.202 578.091 329.657 575.192 330.495C573.398 333.32 576.237 340.49 567.586 338.035C565.699 336.56 565.343 335.254 564.414 333.089C564.633 332.238 564.611 332.672 564.285 331.791C561.6 331.468 559.813 331.095 558.042 329.003C558.113 328.959 575.346 327.318 578.752 326.501Z"/><path fill="#E7E5DB" transform="scale(1.33333 1.33333)" d="M597.305 380.889C600.994 381.293 601.644 381.297 602.593 384.671C602.162 386.136 602.204 386.62 602.435 388.129L601.611 388.887C597.406 389.076 597.489 384.136 597.305 380.889Z"/><path fill="#647468" transform="scale(1.33333 1.33333)" d="M612.6 387.568C616.527 388.208 618.577 392.961 620.283 396.189C615.366 395.5 614.002 391.691 612.6 387.568Z"/><path fill="#647468" transform="scale(1.33333 1.33333)" d="M625.579 367.871C629.935 368.163 630.604 368.201 632.394 372.227C629.326 371.637 627.659 369.978 625.579 367.871Z"/><path fill="#F09E0D" transform="scale(1.33333 1.33333)" d="M520.281 367.735C512.208 355.325 510.829 343.029 524.839 334.308C531.68 330.049 539.096 329.174 546.02 325.662L546.651 325.336C548.159 328.235 551.114 334.767 552.983 336.925C556.631 341.136 570.944 342.214 573.21 346.943C571.25 351.312 553.776 354.013 548.735 355.612C545.044 355.12 533.471 356.812 529.629 357.795C527.215 358.963 526.323 359.097 523.729 359.663C522.637 362.342 521.424 365.069 520.281 367.735Z"/><path fill="#292929" transform="scale(1.33333 1.33333)" d="M523.729 359.663C527.868 351.436 555.503 342.59 558.965 347.574C557.835 348.939 532.93 351.295 529.629 357.795C527.215 358.963 526.323 359.097 523.729 359.663Z"/><path fill="#292929" transform="scale(1.33333 1.33333)" d="M535.652 334.736C536.813 334.63 537.983 334.682 539.13 334.89C541.363 335.296 542.53 336.309 543.72 338.12C541.506 338.715 541.091 338.893 538.865 338.456C536.967 337.4 536.682 336.586 535.652 334.736Z"/><path fill="#1B4849" transform="scale(1.33333 1.33333)" d="M377.645 371.88C377.716 369.288 378.104 364.779 376.109 362.821C375.622 362.344 373.651 362.215 372.342 361.278L372.149 359.648C380.511 351.749 382.292 360.213 388.072 361.149C389.814 359.075 388.995 356.83 393.097 353.98L393.746 354.94C392.358 357.738 391.867 357.599 392.151 360.229L396.357 363.356C396.573 365.563 395.692 366.371 396.465 368.224C397.766 367.598 398.421 366.576 399.338 365.451C401.623 367.224 403.402 369.776 405.896 370.435C406.618 368.595 406.527 367.918 407.943 366.889C409.576 367.236 409.276 366.903 410.01 367.946C409.605 372.607 411.194 369.048 410.109 372.804L408.724 373.162C401.488 374.635 394.806 381.791 387.096 380.532C382.32 379.752 385.294 375.161 383.266 371.604C380.936 370.609 380.672 371.218 377.645 371.88Z"/><path fill="#0F4043" transform="scale(1.33333 1.33333)" d="M393.158 368.556C394.765 369.223 396.372 371.591 397.257 373.052L396.355 373.751C395.14 373.554 393.926 373.349 392.713 373.139L392.235 372.391L393.158 368.556Z"/><path fill="#1B4849" transform="scale(1.33333 1.33333)" d="M303.127 255.262C310.473 255.56 310.963 258.618 317.478 260.937C318.942 261.458 322.085 259.449 324.457 260.632C325.417 262.339 324.666 264.24 324.038 266.024C325.043 266.727 325.777 267.166 326.604 268.093C324.782 269.872 319.104 269.187 316.403 268.909C308.32 268.077 301.121 268.885 296.68 261.292C299.724 261.882 309.149 264.022 311.606 263.031L311.539 262.041C309.641 259.381 305.907 257.164 303.127 255.262Z"/><path fill="#1B4849" transform="scale(1.33333 1.33333)" d="M360.916 327.006C362.387 327.515 363.223 327.618 364.779 327.687L364.913 328.455C363.398 330.352 358.153 331.559 355.335 332.604L356.642 334.288C354.312 338.58 345.022 335.175 339.946 340.659L339.265 340.315C339.589 339.459 339.899 338.602 340.259 337.76C337.643 338.952 331.357 341.944 330.13 344.543C329.904 347.703 330.526 348.11 333.408 349.786L333.244 349.139C335.153 350.082 334.519 349.655 335.645 351.984C331.918 351.363 328.205 350.631 327.096 346.654C329.078 337.328 352.823 333.261 355.629 328.801C355.934 328.526 359.142 328.016 360.916 327.006Z"/><path fill="#153132" transform="scale(1.33333 1.33333)" d="M715.04 484.945C718.573 488.459 729.853 502.257 728.395 507.255L729.297 508.707C726.958 508.574 725.091 508.935 723.543 507.071C720.242 503.098 715.861 489.766 715.04 484.945Z"/><path fill="#1B4849" transform="scale(1.33333 1.33333)" d="M326.575 324.281C328.814 322.986 347.458 323.165 351.32 322.306L352.873 323.762C352.809 325.307 352.715 326.441 352.519 327.975C343.836 326.711 335.146 326.1 326.575 324.281Z"/><path fill="#F4EFE2" transform="scale(1.33333 1.33333)" d="M706.436 538.952C707.77 535.037 709.323 529.738 711.32 526.286L712.156 526.232L712.893 527.748C713.122 534.066 717.272 536.53 715.109 542.112L714.814 541.859C711.361 538.948 710.936 537.526 706.436 538.952Z"/><path fill="#345656" transform="scale(1.33333 1.33333)" d="M965.272 303.75C963.707 303.789 963.735 303.878 962.485 303.024C962.112 301.269 962.157 301.058 962.792 299.375C965.389 297.375 968.717 297.657 971.031 299.956L967.198 302.655L965.272 303.75Z"/><path fill="#F4EFE2" transform="scale(1.33333 1.33333)" d="M322.914 236.412C326.314 239.181 329.695 241.974 333.055 244.793C329.182 243.399 321.919 240.983 318.921 238.343L322.914 236.412Z"/><path fill="#153132" transform="scale(1.33333 1.33333)" d="M419.157 332.127L420.316 332.011L420.99 332.752C415.991 341.204 385.802 353.474 374.975 354.747L374.841 356.061L374.33 355.183C375.561 352.013 413.5 334.96 419.157 332.127Z"/><path fill="#153132" transform="scale(1.33333 1.33333)" d="M789.041 362.105C789.146 362.161 789.727 362.431 789.792 362.505C800.856 375.155 813.222 386.719 824.444 399.23C825.731 400.665 826.248 401.812 826.563 403.34C818.467 398.591 788.638 369.653 789.041 362.105Z"/><path fill="#153132" transform="scale(1.33333 1.33333)" d="M627.573 479.784C635.154 478.932 650.772 488.478 658.949 490.728C662.417 491.682 664.884 490.888 668.192 492.079C666.562 492.326 666.733 492.041 665.723 492.963C666.823 495.705 666.129 494.862 668.207 496.562C668.79 496.359 669.241 496.303 669.849 496.184C668.453 495.804 661.781 496.364 659.648 495.61C650.266 492.295 635.526 485.398 627.573 479.784Z"/><path fill="#153132" transform="scale(1.33333 1.33333)" d="M452.876 352.452L453.728 352.5L454.409 353.428C449.473 363.31 438.261 380.786 428.476 385.902L428.251 386.195C428.539 382.13 448.513 356.352 452.876 352.452Z"/><path fill="#153132" transform="scale(1.33333 1.33333)" d="M484.089 369.678L485.54 370.769C487.006 376.212 480.869 409.981 477.332 413.6C474.99 407.571 482.476 377.099 484.089 369.678Z"/><path fill="#153132" transform="scale(1.33333 1.33333)" d="M705.704 395.288C713.127 395.609 720.123 406.045 725.857 403.278L726.112 400.869L727.601 401.439C728.863 403.726 729.212 404.035 731.549 403.715C730.595 405.29 729.122 408.1 727.331 408.463C718.079 410.338 708.442 403.503 705.704 395.288Z"/><path fill="#1B4849" transform="scale(1.33333 1.33333)" d="M920.765 240.05L922.797 240.867L923.205 241.83C921.713 242.341 920.455 242.8 918.999 243.405L918.6 244.6C920.181 245.212 920.236 244.917 920.877 246.049C920.738 251.008 915.538 249.883 912.505 251.474C912.341 250.733 911.872 249.823 911.55 249.1C909.706 248.689 910.878 250.721 907.982 252.252C906.522 251.071 906.061 251.168 905.906 249.835C910.015 246.947 908.801 245.294 913.86 242.812C916.73 241.404 917.813 241.089 920.765 240.05Z"/><path fill="#153132" transform="scale(1.33333 1.33333)" d="M886.398 284.348C891.923 284.099 902.204 285.49 908.039 286.122L940.791 289.579L940.272 290.177C933.709 290.247 925.698 288.63 919.001 288.556C912.129 288.481 891.026 289.039 886.398 284.348Z"/><path fill="#1B4849" transform="scale(1.33333 1.33333)" d="M588.31 414.594C592.008 415.751 592.319 417.882 593.755 421.343C594.625 421.139 594.213 421.214 595.298 421.659C595.98 425.054 594.262 428.386 591.295 430.134C587.44 429.582 586.336 426.53 585.754 423.063L588.176 423.311C589.16 420.827 586.816 419.919 588.31 414.594Z"/><path fill="#E7E5DB" transform="scale(1.33333 1.33333)" d="M588.31 414.594C592.008 415.751 592.319 417.882 593.755 421.343C593.865 422.387 594.022 423.42 594.168 424.459L593.442 425.301L592.414 424.924C589.734 421.38 588.733 419.013 588.31 414.594Z"/><path fill="#345656" transform="scale(1.33333 1.33333)" d="M864.752 321.854C867.568 321.543 870.96 321.001 873.682 321.66C876.285 323.009 875.535 322.131 876.461 324.949C875.779 327.2 876.295 326.404 874.48 327.944C873.354 328.176 871.697 328.657 870.674 328.376L867.488 328.988C865.351 329.694 862.668 327.289 860.996 326.108C861.99 323.842 862.923 326.039 864.988 323.91L864.815 322.837L863.342 322.072L864.752 321.854Z"/><path fill="#1B4849" transform="scale(1.33333 1.33333)" d="M864.752 321.854C865.943 323.382 867.816 325.064 868.01 326.667C867.502 327.907 867.215 327.96 867.488 328.988C865.351 329.694 862.668 327.289 860.996 326.108C861.99 323.842 862.923 326.039 864.988 323.91L864.815 322.837L863.342 322.072L864.752 321.854Z"/><path fill="#1B4849" transform="scale(1.33333 1.33333)" d="M873.682 321.66C876.285 323.009 875.535 322.131 876.461 324.949C875.779 327.2 876.295 326.404 874.48 327.944C873.354 328.176 871.697 328.657 870.674 328.376C870.441 322.568 871.992 326.81 873.682 321.66Z"/><path fill="#153132" transform="scale(1.33333 1.33333)" d="M565.107 414.39C570.49 417.038 574.534 434.06 574.183 439.85C569.701 434.542 565.274 421.602 565.107 414.39Z"/><path fill="#153132" transform="scale(1.33333 1.33333)" d="M820.444 260.655C824.467 260.027 830.009 260.407 832.858 263.637C834.841 270.403 826.359 271.758 821.613 273.064C820.102 272.401 820.018 272.386 818.889 271.217C821.181 268.761 827.306 269.785 830.081 265.966C828.524 262.963 825.252 264.975 820.89 261.062L820.444 260.655Z"/><path fill="#345656" transform="scale(1.33333 1.33333)" d="M451.409 387.068L452.188 387.805C453.219 393.494 450.869 403.71 445.683 406.602C445.289 405.049 445.701 405.599 444.735 404.67C444.55 401.64 444.944 402.01 447.018 400.143L447.087 398.106L445.826 397.49L446.914 397.557L447.079 397.929L445.584 397.729C445.116 398.349 444.394 400.199 444.043 401.018L443.394 400.685C443.327 397.737 449.481 389.811 451.409 387.068Z"/><path fill="#153132" transform="scale(1.33333 1.33333)" d="M684.685 366.803C694.451 368.52 701.988 371.009 701.932 382.167C699.596 381.722 699.398 381.518 698.296 379.497C695.225 373.868 688.866 371.305 684.685 366.803Z"/><path fill="#1B4849" transform="scale(1.33333 1.33333)" d="M953.644 208.284C955.96 207.106 961.003 201.894 963.444 202.231C962.285 203.613 960.797 205.524 959.466 206.68C958.046 207.912 957.91 206.164 956.842 208.075L957.616 209.229L960.484 209.276L960.972 210.063C959.987 213.27 955.586 216.524 952.271 216.7C950.553 215.081 951.377 214.079 952.279 212.024L951.325 210.094L953.644 208.284Z"/><path fill="#153132" transform="scale(1.33333 1.33333)" d="M518.173 396.872L519.343 397.773C521.586 402.128 523.862 424.839 524.232 430.514C519.384 424.158 519.033 405.013 518.173 396.872Z"/><path fill="#153132" transform="scale(1.33333 1.33333)" d="M543.152 409.16L544.633 409.943C546.997 413.038 551.113 430.524 551.298 434.681C550.657 434.572 549.694 434.551 549.481 434.106C546.932 428.777 543.315 414.152 543.152 409.16Z"/><path fill="#1B4849" transform="scale(1.33333 1.33333)" d="M403.77 350.85C406.704 351.623 407.982 351.013 410.397 353.13L410.127 354.234C406.417 356.502 404.957 356.096 401.235 358.97C401.188 361.37 401.583 360.912 400.327 362.218C399.139 360.785 398.332 357.151 398.964 355.433C401.743 353.966 402.231 353.593 403.77 350.85Z"/><path fill="#153132" transform="scale(1.33333 1.33333)" d="M740.657 475.698C741.693 475.477 742.162 475.776 743.155 476.151L743.689 477.455C742.715 480.632 742.274 482.69 740.363 485.392C737.928 483.746 736.277 482.267 736.359 479.299C737.321 477.285 738.671 476.817 740.657 475.698Z"/><path fill="#E7E5DB" transform="scale(1.33333 1.33333)" d="M659.254 441.392C663.935 441.722 669.603 449.3 668.724 453.398C664.147 452.377 660.637 445.422 659.254 441.392Z"/><path fill="#E7E5DB" transform="scale(1.33333 1.33333)" d="M685.302 414.734C689.652 415.124 695.612 422.016 695.885 426.633C692.194 424.968 685.509 418.936 685.302 414.734Z"/><path fill="#E7E5DB" transform="scale(1.33333 1.33333)" d="M647.465 419.055C652.143 419.951 654.632 427.715 654.92 431.896C650.245 431.426 648.008 422.974 647.465 419.055Z"/><path fill="#E7E5DB" transform="scale(1.33333 1.33333)" d="M653.78 383.722C658.323 385.469 661.424 391.069 662.907 395.476C657.457 396.174 655.109 387.994 653.78 383.722Z"/><path fill="#1B4849" transform="scale(1.33333 1.33333)" d="M745.787 331.342C748.64 331.344 748.192 331.352 750.013 333.271C750.817 336.589 750.927 335.304 749.888 338.577C746.9 338.951 746.275 339.007 744.483 336.782C744.041 334.35 744.697 333.502 745.787 331.342Z"/><path fill="#153132" transform="scale(1.33333 1.33333)" d="M761.415 302.087C762.545 301.944 774.197 302.355 775.418 302.82L775.766 304.046L774.331 306.253L774.477 306.461L774.332 306.942C768.712 302.542 767.112 307.472 761.415 302.087Z"/><path fill="#E7E5DB" transform="scale(1.33333 1.33333)" d="M666.351 401.702C670.817 401.364 675.389 405.688 675.586 410.101C672.135 409.708 666.637 405.201 666.351 401.702Z"/><path fill="#153132" transform="scale(1.33333 1.33333)" d="M828.957 252.29C831.441 252.186 831.294 251.778 833.066 253.019L832.714 253.994C830.404 255.478 829.115 255.504 826.403 255.9C825.033 256.394 822.61 256.559 821.433 255.69L821.678 254.928C823.694 252.986 826.174 252.825 828.957 252.29Z"/><path fill="#E7E5DB" transform="scale(1.33333 1.33333)" d="M626.317 438.913C630.102 441.33 633.504 446.282 633.437 450.885C628.892 448.409 626.586 443.979 626.317 438.913Z"/><path fill="#E7E5DB" transform="scale(1.33333 1.33333)" d="M605.641 427.07C609.182 429.057 611.247 436.324 611.047 440.24C607.084 436.384 604.976 432.697 605.641 427.07Z"/><path fill="#E7E5DB" transform="scale(1.33333 1.33333)" d="M642.131 453.405C645.636 454.301 649.929 458.695 650.96 462.202C647.213 463.493 642.764 457.104 642.131 453.405Z"/><path fill="#E7E5DB" transform="scale(1.33333 1.33333)" d="M617.344 461.778C621.128 462.136 626.422 466.471 626.877 470.437C622.83 470.448 618.577 465.418 617.344 461.778Z"/><path fill="#E7E5DB" transform="scale(1.33333 1.33333)" d="M594.83 430.935C598.227 432.75 600.7 438.072 600.121 441.892C596.338 439.675 593.759 435.363 594.83 430.935Z"/><path fill="#E7E5DB" transform="scale(1.33333 1.33333)" d="M638.365 471.797C641.693 473.154 646.092 475.748 645.98 479.617C642.186 478.56 636.303 476.478 638.365 471.797Z"/><path fill="#E7E5DB" transform="scale(1.33333 1.33333)" d="M638.76 438.117C642.63 439.132 645.392 444.431 646.419 448.023C641.492 447.617 639.661 442.216 638.76 438.117Z"/><path fill="#345656" transform="scale(1.33333 1.33333)" d="M939.66 215.154L940.198 215.651C936.839 219.067 932.929 220.754 928.263 221.878L928.24 220.68C933.549 217.123 930.584 216.948 939.66 215.154Z"/><path fill="#E7E5DB" transform="scale(1.33333 1.33333)" d="M636.337 400.102C639.976 401.788 641.716 409.568 642.256 413.231C638.27 412.856 637.079 403.429 636.337 400.102Z"/><path fill="#E7E5DB" transform="scale(1.33333 1.33333)" d="M604.605 446.003C608.157 447.239 611.181 452.132 611.541 455.821C607.261 454.932 604.509 450.2 604.605 446.003Z"/><path fill="#E7E5DB" transform="scale(1.33333 1.33333)" d="M680.361 457.191C683.172 458.095 686.45 463.826 685.966 466.61C680.588 465.599 680.204 461.799 680.361 457.191Z"/><path fill="#E7E5DB" transform="scale(1.33333 1.33333)" d="M657.933 365.521C662.427 367.868 664.31 371.665 665.304 376.389C661.34 376.09 658.694 368.818 657.933 365.521Z"/><path fill="#153132" transform="scale(1.33333 1.33333)" d="M829.992 338.508C833.781 339.065 837.042 342.682 839.653 345.325L839.053 346.698L838.282 346.815C836.036 345.875 830.412 340.941 829.992 338.508Z"/><path fill="#E7E5DB" transform="scale(1.33333 1.33333)" d="M649.956 402.58C654.41 403.592 655.523 407.322 656.861 411.173C652.094 411.326 650.73 406.275 649.956 402.58Z"/><path fill="#E7E5DB" transform="scale(1.33333 1.33333)" d="M629.171 418.526C631.931 419.841 635.4 425.879 635.427 429.036C631.153 426.971 628.848 423.274 629.171 418.526Z"/><path fill="#E7E5DB" transform="scale(1.33333 1.33333)" d="M615.366 446.118C618.781 447.054 621.658 451.38 623.026 454.438C617.36 453.656 616.272 451.168 615.366 446.118Z"/><path fill="#E7E5DB" transform="scale(1.33333 1.33333)" d="M616.988 426.953C620.289 428.67 622.519 432.153 622.166 435.877C617.771 434.018 616.613 431.461 616.988 426.953Z"/><path fill="#E7E5DB" transform="scale(1.33333 1.33333)" d="M613.551 409.884C616.436 411.201 617.083 417.619 617.459 420.504C612.548 418.917 613.47 414.236 613.551 409.884Z"/><path fill="#E7E5DB" transform="scale(1.33333 1.33333)" d="M676.854 392.427C680.47 393.147 683.549 398.128 683.934 401.651C680.635 400.308 677.449 395.9 676.854 392.427Z"/><path fill="#E7E5DB" transform="scale(1.33333 1.33333)" d="M674.129 469.115C677.771 471.394 677.53 475.326 677.82 479.164L676.12 478.406C673.998 475.231 673.652 472.859 674.129 469.115Z"/><path fill="#E7E5DB" transform="scale(1.33333 1.33333)" d="M664.67 428.273C668.352 429.376 670.561 433.36 671.659 436.769C667.001 436.036 665.735 432.207 664.67 428.273Z"/><path fill="#E7E5DB" transform="scale(1.33333 1.33333)" d="M628.711 458.598C632.535 459.414 634.843 462.421 635.239 466.301C631.514 465.505 629.21 462.21 628.711 458.598Z"/><path fill="#153132" transform="scale(1.33333 1.33333)" d="M426.995 272.396C429.742 272.773 432.498 273.238 434.796 274.775L434.676 277.171L433.343 277.651C430.769 276.678 427.83 275.211 426.995 272.396Z"/><path fill="#E7E5DB" transform="scale(1.33333 1.33333)" d="M656.315 470.5C660.005 470.833 663.062 472.818 663.231 476.686C659.578 475.827 657.201 474.147 656.315 470.5Z"/><path fill="#E7E5DB" transform="scale(1.33333 1.33333)" d="M695.004 453.918C698.676 454.395 701.799 457.981 702.437 461.566C698.558 460.195 696.677 457.463 695.004 453.918Z"/><path fill="#E7E5DB" transform="scale(1.33333 1.33333)" d="M682.919 432.274L684.818 432.615C687.372 434.512 688.484 437.393 689.691 440.26C686.237 439.999 683.981 435.056 682.919 432.274Z"/><path fill="#E7E5DB" transform="scale(1.33333 1.33333)" d="M670.35 415.812C674.349 416.421 675.676 419.845 676.729 423.237C675.797 423.274 675.253 422.976 674.386 422.641C672.102 420.284 671.662 418.852 670.35 415.812Z"/><path fill="#E7E5DB" transform="scale(1.33333 1.33333)" d="M674.1 373.19C678.059 373.745 680.129 376.599 680.933 380.234C677.431 379.3 675.499 376.259 674.1 373.19Z"/><path fill="#E7E5DB" transform="scale(1.33333 1.33333)" d="M688.153 392.549C691.738 393.873 693.835 396.528 694.442 400.257C691.857 399.212 688.087 395.546 688.153 392.549Z"/><path fill="#153132" transform="scale(1.33333 1.33333)" d="M951.325 210.094C949.903 210.904 949.417 211.319 947.833 211.551L946.884 210.797C948.123 207.369 950.671 207.2 953.644 208.284L951.325 210.094Z"/><path fill="#153132" transform="scale(1.33333 1.33333)" d="M738.138 321.489C739.81 321.867 740.147 322.081 741.701 322.856C743.379 324.728 743.39 325.5 743.841 327.893C740.541 326.02 738.845 325.504 738.138 321.489Z"/><path fill="#E7E5DB" transform="scale(1.33333 1.33333)" d="M599.084 416.443L600.323 416.946C602.354 419.054 602.338 421.233 602.429 424.029C601.201 423.893 601.624 423.957 600.469 423.343C599.011 421.046 599.186 419.174 599.084 416.443Z"/><path fill="#153132" transform="scale(1.33333 1.33333)" d="M713.365 510.254C715.423 511.138 716.474 513.494 717.546 515.411L717.002 516.791C714.339 516.66 713.517 512.359 713.365 510.254Z"/><path fill="#E7E5DB" transform="scale(1.33333 1.33333)" d="M661.736 461.145C665.09 462.4 666.35 464.153 667.603 467.366C663.522 467.063 662.59 464.529 661.736 461.145Z"/><path fill="#1B4849" transform="scale(1.33333 1.33333)" d="M908.128 229.726C908.831 230.892 908.794 230.804 909.961 231.526C911.14 230.991 911.818 230.501 913.062 230.761L913.238 232.491C911.385 233.54 908.176 234.509 907.07 232.137L908.128 229.726Z"/><path fill="#E7E5DB" transform="scale(1.33333 1.33333)" d="M726.275 448.553C730.047 449.673 730.59 451.497 731.304 454.995C728.534 453.689 727.513 451.16 726.275 448.553Z"/><path fill="#F09E0D" transform="scale(1.33333 1.33333)" d="M619.814 531.693C623.891 531.659 625.601 528.41 629.248 530.613C630.434 532.841 630.399 535.232 630.596 537.768C627.675 540.136 624.868 542.317 622.233 545.016C628.456 548.675 632.653 549.99 635.381 556.505C635.69 560.605 633.726 568.046 629.358 568.982L627.915 568.167C627.496 566.596 629.259 564.801 629.173 562.03C619.159 550.641 612.701 549.276 599.872 556.379C595.389 559.684 598.082 560.939 595.782 565.15L594.725 565.07C593.413 561.551 592.861 559.707 592.669 555.918C591.517 555.907 589.243 556.158 588 556.254C584.189 560.17 585.364 562.565 583.099 564.944L582.066 564.347C580.114 560.877 580.698 558.874 581.518 554.946L580.269 554.245C576.431 557.848 578.177 558.109 575.705 561.677C570.284 560.2 574.29 551.904 575.615 548.889C579.027 545.073 580.623 543.997 585.409 542.177C594.532 538.785 599.849 540.699 609.467 541.023C609.801 540.807 610.134 540.591 610.468 540.376L610.986 540.018C614.511 537.611 616.907 534.794 619.814 531.693Z"/><path fill="#292929" transform="scale(1.33333 1.33333)" d="M575.615 548.889C578.446 549.669 578.365 549.172 579.992 551.072C580.084 552.08 580.219 553.251 580.269 554.245C576.431 557.848 578.177 558.109 575.705 561.677C570.284 560.2 574.29 551.904 575.615 548.889Z"/><path fill="#292929" transform="scale(1.33333 1.33333)" d="M581.518 554.946C583.704 552.679 582.663 551.174 584.339 550.031C584.696 553.508 587.265 552.823 588 556.254C584.189 560.17 585.364 562.565 583.099 564.944L582.066 564.347C580.114 560.877 580.698 558.874 581.518 554.946Z"/><path fill="#292929" transform="scale(1.33333 1.33333)" d="M592.669 555.918C593.801 553.667 594.477 552.765 596.875 552.461C598.719 553.504 598.987 554.499 599.872 556.379C595.389 559.684 598.082 560.939 595.782 565.15L594.725 565.07C593.413 561.551 592.861 559.707 592.669 555.918Z"/><path fill="#292929" transform="scale(1.33333 1.33333)" d="M629.173 562.03C630.654 558.955 632.506 558.152 635.381 556.505C635.69 560.605 633.726 568.046 629.358 568.982L627.915 568.167C627.496 566.596 629.259 564.801 629.173 562.03Z"/><path fill="#F09E0D" transform="scale(1.33333 1.33333)" d="M682.877 532.146C690.384 523.94 692.887 527.532 695.348 536.725C692.355 539.893 690.571 542.696 688.709 546.657C695.12 553.457 700.071 554.435 699.09 564.202C696.236 563.437 695.455 562.81 693.064 565.201C685.764 545.622 676.282 558.754 669.946 569.109C670.018 571.294 670.528 573.172 668.51 574.356L667.415 573.61C664.855 568.346 665.191 567.786 665.696 561.836L668.135 555.18C664.644 557.464 662.713 558.355 659.884 561.54C658.189 559.153 657.345 559.084 654.613 558.136C655.674 556.398 656.343 555.416 657.036 553.456C655.492 552.436 654.673 553.068 652.327 553.478C650.897 550.79 650.429 550.36 648.297 548.179C651.913 544.861 653.377 543.748 657.906 541.869C666.279 542.818 668.988 543.486 677.27 541.687C679.363 539.183 682.592 535.472 682.877 532.146Z"/><path fill="#292929" transform="scale(1.33333 1.33333)" d="M669.946 569.109C670.018 571.294 670.528 573.172 668.51 574.356L667.415 573.61C664.855 568.346 665.191 567.786 665.696 561.836C667.786 562.44 669.217 562.548 670.424 564.253C670.691 566.413 670.456 567.039 669.946 569.109Z"/><path fill="#292929" transform="scale(1.33333 1.33333)" d="M643.283 563.909C643.797 556.961 643.653 553.325 648.297 548.179C650.429 550.36 650.897 550.79 652.327 553.478C647.034 557.046 647.482 559.231 643.283 563.909Z"/><path fill="#292929" transform="scale(1.33333 1.33333)" d="M654.613 558.136C657.345 559.084 658.189 559.153 659.884 561.54C658.465 565.968 661.063 567.867 659.723 570.503C653.786 569.833 654.05 562.516 654.613 558.136Z"/><path fill="#292929" transform="scale(1.33333 1.33333)" d="M693.064 565.201C695.455 562.81 696.236 563.437 699.09 564.202C697.538 568.001 695.028 571.702 690.48 571.539L690.198 570.704C691.642 568.675 692.571 567.647 693.064 565.201Z"/></svg>