<?xml version="1.0" encoding="utf-8" ?><svg xmlns="http://www.w3.org/2000/svg" xmlns:xlink="http://www.w3.org/1999/xlink" width="1792" height="1024" viewBox="0 0 1792 1024"><path fill="#239979" transform="scale(1.33333 1.33333)" d="M647.353 184.701C653.89 125.242 686.058 66.4764 739.613 36.0172C743.349 33.8925 755.312 26.6689 759.176 28.8587C759.907 34.7301 755.77 61.183 753.451 67.1915C745.321 68.9972 736.336 69.7871 728.015 70.7238C735.523 73.2116 743.84 73.388 750.21 75.7033L750.488 76.4227C747.722 81.4888 723.921 88.9152 716.807 92.1302C726.439 92.0287 736.527 89.8977 746.017 90.1683C743.952 95.7737 742.286 100.64 739.465 105.908C729.853 109.036 715.146 110.006 704.584 112.652C714.648 114.369 725.225 115.831 735.343 117.388C734.322 122.338 732.492 127.397 730.55 132.053C718.421 135.8 706.69 137.06 694.185 138.27C703.8 141.118 717.301 142.325 725.007 145.069C728.24 145.567 736.245 136.751 739.204 134.095C746.602 127.398 754.508 121.284 762.849 115.808C790.77 97.3054 824.33 83.5633 858.282 84.0038C862.704 84.0611 877.829 82.8529 880.275 86.7096C878.831 89.6882 874.873 93.4515 872.733 96.2012C852.977 121.582 860.619 121.185 831.491 110.555C834.782 114.093 845.568 123.121 846.672 126.227L846.122 127.042C839.913 128.759 817.569 125.282 808.115 125.218C817.983 129.127 826.052 133.187 836.44 136.795C834.356 138.886 830.576 142.176 829.605 144.692C853.376 140.27 878.11 141.667 901.095 149.264C905.199 150.62 913.976 152.642 916.524 156.037L916.522 157.554C911.241 161.477 890.491 176.467 885.35 178.313C878.196 176.721 871.453 167.905 864.513 163.949C866.806 167.7 874.198 179.002 875.403 182.562L874.948 183.456C868.957 184.7 846.323 173.435 839.53 170.401C847.66 177.108 855.727 183.892 863.729 190.751C859.75 192.529 852.746 195.873 848.849 197.057C841.867 194.427 824.498 181.937 817.112 177.286C824.115 186.352 830.628 194.454 837.198 203.859C834.966 204.998 831.793 206.332 830.365 208.284C873.453 211.82 914.683 225.157 943.372 259.259C944.574 260.687 945.49 261.773 945.907 263.609C944.109 266.001 918.768 269.857 914.065 270.555C912.407 270.785 910.742 270.965 909.073 271.096C906.965 267.105 904.454 261.4 901.662 258.249L900.613 258.254C899.01 261.82 900.024 268.544 900.427 272.558C889.423 264.386 884.969 254.61 876.316 245.689C879.549 254.657 883.144 262.999 886.874 271.767C882.223 271.837 875.486 272.113 871.038 271.717C865.234 263.238 860.8 251.306 855.071 243.59C856.079 252.45 857.572 263.663 859.254 272.45C854.302 272.861 850.803 273.179 845.825 272.985C838.844 265.125 835.543 253.818 830.165 245.516C829.999 253.196 832 264.524 832.656 272.736C827.081 273.305 818.027 274.491 812.776 273.993C807.994 269.399 798.678 253.577 792.607 246.422C794.962 255.402 797.372 264.367 799.836 273.317C793.582 273.802 785.837 274.604 779.689 274.515C775.345 267.161 771.703 259.847 767.536 252.621C767.742 261.21 768.983 267.291 769.576 275.471C742.736 276.247 749.857 275.367 732.409 256.568C733.91 264.242 735.573 269.58 737.844 276.993C734.859 276.978 729.976 276.809 727.154 277.102C724.66 277.357 721.123 276.564 718.51 276.214C708.535 274.877 694.704 272.018 685.817 277.958C682.793 279.769 683.552 280.79 679.654 281.444C676.244 283.372 675.501 283.815 672.764 286.565C670.071 286.528 671.083 286.214 668.918 287.674C667.323 290.265 667.147 291.826 666.504 294.822C664.393 295.682 662.805 296.64 660.853 295.293C660.787 293.367 660.971 292.183 661.197 290.297L660.629 290.406C659.978 291.4 659.497 291.792 658.658 292.597L657.892 288.658L657.545 287.662C653.206 287.953 649.943 288.826 645.761 289.856C631.372 297.03 629.246 311.4 616.995 323.905C613.782 317.873 611.321 313.405 607.581 307.719C607.586 315.477 608.587 322.982 609.83 330.632C606.24 334.623 596.72 342.436 591.888 344.743C588.578 336.425 585.3 327.775 581.434 319.724C580.966 329.811 582.562 346.41 581.582 354.679C577.42 358.059 570.452 362.728 565.67 365.141C563.127 360.831 560.574 356.582 558.243 352.151C555.8 347.393 553.41 343.531 550.59 338.979C551.615 343.3 552.266 347.444 553.395 351.874C554.34 360.124 555.427 365.402 555.118 373.8C551.167 376.781 548.458 378.19 544.116 380.537C540.12 371.268 535.818 362.133 531.218 353.149C531.998 364.73 534.418 375.341 534.494 387.418C531.262 390.214 526.789 393.135 523.117 395.307C521.366 387.038 519.525 380.057 516.689 372.12C515.316 378.583 516.259 398.766 512.29 402.333C509.499 401.008 503.762 388.483 500.94 384.121C501.85 391.994 503.651 399.249 504.158 407.337C499.53 409.657 474.811 419.903 471.257 419.269C469.946 415.593 472.518 404.274 473.347 399.834C480.144 363.423 515.175 320.211 545.692 300.318C549.108 298.232 564.348 289.257 567.751 288.718C569.141 288.274 572.37 286.52 573.801 285.782C595.544 278.211 618.989 272.82 642.115 275.243C646.365 276.01 649.847 278.038 653.744 278.391L654.297 277.528C653.85 275.901 653.864 275.407 652.72 274.264C652.112 274.168 650.909 273.775 650.264 273.588L644.134 265.052C644.712 264.342 644.762 263.82 645.012 262.929C639.663 253.268 625.804 244.32 620.756 237.567L621.071 236.473C620.459 235.594 606.652 226.282 605.02 225.432C606.485 223.022 609.669 221.608 612.211 220.187C616.58 218.191 620.936 216.164 625.278 214.107C618.468 213.661 610.311 213.438 603.528 213.733L601.805 214.045C597.875 213.043 590.359 206.439 587.923 203.434C588.512 201.342 587.59 200.851 586.426 199.275C585.645 197.763 582.872 193.986 581.767 192.405C589.91 190.407 602.474 186.552 610.212 183.644C599.369 182.561 586.4 182.277 575.864 180.908C568.165 179.908 562.138 167.059 558.244 160.208C567.695 155.142 574.966 153.379 585.393 147.015C575.653 147.959 559.967 149.795 550.359 148.293C547.071 147.779 542.412 138.771 540.512 135.585C549.939 132.201 561.507 126.807 570.885 122.73C558.594 123.649 545.357 124.884 533.099 124.727C529.026 121.625 524.904 114.933 522.014 110.575C532.08 108.412 541.739 106.899 552.069 104.526C537.263 102.081 528.113 103.394 512.552 98.3589C519.32 94.1749 527.826 90.8967 535.39 86.2718C525.632 86.8811 519.56 88.8623 508.67 88.7464C505.639 84.6084 493.688 56.1403 492.259 50.4826L492.831 49.6642C499.063 47.9246 527.293 57.4644 533.978 60.4533C571.851 77.3885 607.155 111.179 629.208 146.237C636.616 158.013 642.275 171.975 647.353 184.701ZM806.699 208.499C810.708 208.943 815.755 208.125 819.974 208.123C810.581 202.956 802.348 196.453 793.913 189.909C797.208 195.456 802.745 203.5 806.699 208.499ZM759.768 211.347L764.456 217.019L769.443 215.639C766.306 214.099 763.088 212.392 759.768 211.347ZM701.59 178.502C703.799 175.527 705.345 173.206 707.296 170.054C699.099 172.633 690.244 174.813 681.903 177.017C688.322 177.491 695.225 177.868 701.59 178.502ZM787.603 139.233C790.717 142.056 798.702 148.932 802.08 150.918C806.33 149.063 807.805 148.617 812.246 147.492C806.043 143.685 794.757 140.615 787.603 139.233ZM676.345 207.646L684.609 209.246L686.711 204.622C682.697 205.594 680.287 206.26 676.345 207.646Z"/><path fill="#D4DFDF" fill-opacity="0.0078431377" transform="scale(1.33333 1.33333)" d="M676.345 207.646C680.287 206.26 682.697 205.594 686.711 204.622L684.609 209.246L676.345 207.646Z"/><path fill="#0C4D57" transform="scale(1.33333 1.33333)" d="M647.353 184.701C653.89 125.242 686.058 66.4764 739.613 36.0172C743.349 33.8925 755.312 26.6689 759.176 28.8587C759.907 34.7301 755.77 61.183 753.451 67.1915C745.321 68.9972 736.336 69.7871 728.015 70.7238C735.523 73.2116 743.84 73.388 750.21 75.7033L750.488 76.4227C747.722 81.4888 723.921 88.9152 716.807 92.1302C726.439 92.0287 736.527 89.8977 746.017 90.1683C743.952 95.7737 742.286 100.64 739.465 105.908C729.853 109.036 715.146 110.006 704.584 112.652C714.648 114.369 725.225 115.831 735.343 117.388C734.322 122.338 732.492 127.397 730.55 132.053C718.421 135.8 706.69 137.06 694.185 138.27C703.8 141.118 717.301 142.325 725.007 145.069C722.317 152.983 710.835 163.699 707.296 170.054C699.099 172.633 690.244 174.813 681.903 177.017C688.322 177.491 695.225 177.868 701.59 178.502C700.797 180.322 699.922 181.584 698.843 183.245C694.433 190.032 691.041 197.831 686.711 204.622C682.697 205.594 680.287 206.26 676.345 207.646L684.609 209.246C678.08 222.193 674.509 235.287 668.24 248.05C667.952 248.636 667.94 248.631 667.784 249.3C666.17 252.749 665.366 254.353 664.455 258.007L663.345 257.097C662.071 253.381 658.133 221.821 658.16 218.064C656.558 215.447 655.104 210.642 654.487 207.586C652.483 200.438 650.084 191.481 647.353 184.701Z"/><path fill="#206D6F" transform="scale(1.33333 1.33333)" d="M654.487 207.586L655.486 207.916C655.962 207.067 657.802 185.408 658.412 181.589C664.701 144.083 680.506 108.819 704.315 79.1689C707.277 75.4552 717.657 62.2544 721.632 61.2591L722.049 62.0204C704.973 76.9749 689.379 104.515 679.244 124.691C665 153.046 659.393 186.673 658.16 218.064C656.558 215.447 655.104 210.642 654.487 207.586Z"/><path fill="#0C4D57" transform="scale(1.33333 1.33333)" d="M829.605 144.692C853.376 140.27 878.11 141.667 901.095 149.264C905.199 150.62 913.976 152.642 916.524 156.037L916.522 157.554C911.241 161.477 890.491 176.467 885.35 178.313C878.196 176.721 871.453 167.905 864.513 163.949C866.806 167.7 874.198 179.002 875.403 182.562L874.948 183.456C868.957 184.7 846.323 173.435 839.53 170.401C847.66 177.108 855.727 183.892 863.729 190.751C859.75 192.529 852.746 195.873 848.849 197.057C841.867 194.427 824.498 181.937 817.112 177.286C824.115 186.352 830.628 194.454 837.198 203.859C834.966 204.998 831.793 206.332 830.365 208.284L819.974 208.123C810.581 202.956 802.348 196.453 793.913 189.909C797.208 195.456 802.745 203.5 806.699 208.499C792.717 210.137 783.08 212.427 769.443 215.639C766.306 214.099 763.088 212.392 759.768 211.347L764.456 217.019C729.408 229.447 704.168 244.087 677.118 270.122C687.265 250.659 691.902 248.192 711.3 239.295C716.8 236.773 726.599 230.852 732.156 227.492C726.585 223.556 721.304 219.225 716.354 214.532C724.806 216.345 733.074 218.794 741.617 220.056C747.154 214.895 752.62 209.658 758.013 204.348C753.896 201.737 740.759 192.407 737.668 189.24C749.083 190.792 760.706 193.255 772.034 195.501C778.915 190.749 783.059 185.539 788.408 179.129C786.323 177.637 784.082 175.32 782.204 173.495L779.42 170.779C784.244 167.796 783.656 171.396 787.665 166.333C790.662 167.191 792.491 167.844 795.382 169.024C803.558 172.206 804.351 165.168 811.68 162.101L812.715 160.822L812.2 159.269C808.535 155.772 806.137 153.939 802.08 150.918C806.33 149.063 807.805 148.617 812.246 147.492C813.712 148.652 819.722 149.612 821.923 150.071C824.875 147.661 826.329 146.637 829.605 144.692Z"/><path fill="#206D6F" transform="scale(1.33333 1.33333)" d="M812.2 159.269C821.128 156.698 856.827 149.316 864.247 152.303C853.806 153.403 847.344 153.626 836.938 155.871C832.632 156.801 814.008 162.058 811.68 162.101L812.715 160.822L812.2 159.269Z"/><path fill="#206D6F" transform="scale(1.33333 1.33333)" d="M787.665 166.333C790.662 167.191 792.491 167.844 795.382 169.024C790.424 169.592 786.515 170.908 782.204 173.495L779.42 170.779C784.244 167.796 783.656 171.396 787.665 166.333Z"/><defs><linearGradient id="gradient_0" gradientUnits="userSpaceOnUse" x1="633.94202" y1="256.47507" x2="639.36548" y2="250.6322"><stop offset="0" stop-color="#20726B"/><stop offset="1" stop-color="#10575E"/></linearGradient></defs><path fill="url(#gradient_0)" transform="scale(1.33333 1.33333)" d="M621.071 236.473C635.346 244.767 650.282 256.584 652.72 274.264C652.112 274.168 650.909 273.775 650.264 273.588L644.134 265.052C644.712 264.342 644.762 263.82 645.012 262.929C639.663 253.268 625.804 244.32 620.756 237.567L621.071 236.473Z"/><path fill="#0C4D57" transform="scale(1.33333 1.33333)" d="M779.42 170.779C776.68 168.696 772.312 166.045 771.708 162.825C774.744 161.41 783.663 165.133 787.665 166.333C783.656 171.396 784.244 167.796 779.42 170.779Z"/><path fill="#D4DFDF" transform="scale(1.33333 1.33333)" d="M667.784 249.3C667.512 257.635 666.247 264.224 664.379 272.35C664.316 269.207 664.649 260.142 664.455 258.007C665.366 254.353 666.17 252.749 667.784 249.3Z"/><path fill="#0C4D57" transform="scale(1.33333 1.33333)" d="M542.079 77.6763C545.847 77.5239 556.907 86.2122 560.23 88.7896C615.93 131.993 649.56 196.269 657.884 265.928C655.761 263.724 651.93 242.59 650.489 237.771C645.078 219.687 639.606 200.697 631.578 183.59C615.435 149.19 591.077 118.343 562.06 93.8989C555.382 88.2734 549.334 82.7111 542.079 77.6763Z"/><path fill="#0C4D57" transform="scale(1.33333 1.33333)" d="M819.625 99.9033C819.682 101.593 812.769 104.364 811.082 105.165C738.088 139.846 697.489 197.478 669.402 271.376C667.166 266.786 678.288 242.912 680.618 237.574C708.083 174.651 754.948 124.946 819.625 99.9033Z"/><path fill="#0C4D57" transform="scale(1.33333 1.33333)" d="M815.309 220.237C839.706 220.033 882.388 224.506 903.099 237.818C840.48 217.975 796.385 216.298 735.02 242.241C722.202 247.305 704.897 257.486 693.355 265.096C685.71 270.137 678.656 276.309 670.47 281.088C705.465 245.336 765.17 222.001 815.309 220.237Z"/><path fill="#0C4D57" transform="scale(1.33333 1.33333)" d="M638.969 281.315C644.325 281.21 649.759 282.218 655.078 283.018C648.147 283.974 638.997 283.195 631.519 284.233C574.54 292.148 537.044 319.786 502.161 363.223C499.582 366.299 498.153 369.36 495.16 372.265L494.827 371.492C500.887 360.094 509.717 349.787 518.313 340.239C549.109 306.03 592.494 283.212 638.969 281.315Z"/><path fill="#0C4D57" transform="scale(1.33333 1.33333)" d="M398.054 209.991C406.774 201.41 425.646 191.708 437.412 187.89C471.626 176.787 513.366 176.352 547.937 186.119C559.523 189.392 571.978 195.271 582.698 200.483L587.923 203.434C590.359 206.439 597.875 213.043 601.805 214.045L603.528 213.733C606.768 215.954 609.157 217.76 612.211 220.187C609.669 221.608 606.485 223.022 605.02 225.432C606.652 226.282 620.459 235.594 621.071 236.473L620.756 237.567C625.804 244.32 639.663 253.268 645.012 262.929C644.762 263.82 644.712 264.342 644.134 265.052L650.264 273.588C650.909 273.775 652.112 274.168 652.72 274.264C653.864 275.407 653.85 275.901 654.297 277.528L653.744 278.391C649.847 278.038 646.365 276.01 642.115 275.243C618.989 272.82 595.544 278.211 573.801 285.782L571.845 275.591C570.719 279.329 569.107 285.257 567.751 288.718C564.348 289.257 549.108 298.232 545.692 300.318C546.075 292.551 545.632 283.035 545.463 275.142C543.862 280.944 535.301 303.243 532.843 308.728L513.786 311.52C512.624 301.847 510.7 291.047 509.175 281.339C507.701 293.546 505.386 303.284 501.558 315.072C496.224 316.557 493.321 317.224 487.852 318.015C487.276 307.83 485.945 296.112 485.129 285.76C482.049 297.14 480.393 310.254 476.626 321.249C471.428 323.243 467.889 323.995 462.461 325.163L465.536 297.138C463.146 302.572 453.743 327.24 448.789 327.497C447.822 325.254 445.413 309.242 444.801 305.803C443.293 313.58 442.291 323.219 440.047 330.421C436.513 331.074 406.243 333.775 403.111 333.515L402.554 332.485C403.088 327.09 411.651 313.811 414.798 309.235C435.573 279.021 480.158 252.624 515.944 246.464C519.261 237.195 524.213 226.768 528.049 217.438C521.598 224.925 510.836 237.073 502.788 242.594C497.59 241.625 493.726 240.467 488.654 238.962C492.075 230.464 497.91 218.723 502.11 210.536C494.545 217.108 483.643 230.079 476.216 235.064C470.675 234.342 465.507 233.08 460.173 231.466C463.946 227.107 467.873 222.077 471.545 217.572C473.981 214.162 476.626 211.005 479.277 207.764C475.723 210.136 472.096 212.725 468.572 215.169C464.941 217.635 451.271 227.811 447.608 227.324C446.492 224.574 452.438 209.932 453.772 205.736C447.612 212.123 443.719 219.598 436.503 225.046C424.769 221.546 410.749 214.424 398.054 209.991ZM552.045 243.019L559.539 243.54L565.957 232.84L565.54 232.409C562.776 234.186 552.082 240.615 551.139 242.798L552.045 243.019Z"/><path fill="#206D6F" transform="scale(1.33333 1.33333)" d="M644.134 265.052C637.253 256.636 631.32 250.457 622.843 243.671C568.018 199.789 516.849 187.938 448.589 194.702C451.443 193.649 461.126 192.062 464.328 191.705C497.986 187.958 534.645 192.54 565.739 205.741C574.22 209.425 582.543 213.463 590.685 217.846C593.833 219.527 602.628 225.522 605.02 225.432C606.652 226.282 620.459 235.594 621.071 236.473L620.756 237.567C625.804 244.32 639.663 253.268 645.012 262.929C644.762 263.82 644.712 264.342 644.134 265.052Z"/><path fill="#206D6F" transform="scale(1.33333 1.33333)" d="M642.157 272.725C637.689 270.484 631.114 268.432 627.426 265.992C631.096 265.501 639.561 269.243 642.41 271.685C644.77 272.825 647.719 274.804 650.264 273.588C650.909 273.775 652.112 274.168 652.72 274.264C653.864 275.407 653.85 275.901 654.297 277.528L653.744 278.391C649.847 278.038 646.365 276.01 642.115 275.243L642.157 272.725Z"/><path fill="#DAC2A4" transform="scale(1.33333 1.33333)" d="M666.819 431.025C674.902 445.118 675.448 444.602 686.387 454.916C686.358 458.635 685.739 473.377 687.414 475.495L688.372 476.077C690.948 478.947 688.426 491.886 688.391 496.644L688.319 520.605C688.307 527.246 687.546 567.196 688.953 571.055L690.185 571.525C690.979 574.035 689.984 583.906 689.771 587.141L689.81 599.967C690.016 608.878 691.006 667.22 693.679 671.959L696.848 671.191C700.123 673.845 696.659 684.698 696.888 689.618L696.087 691.834C695.839 695.983 695.285 701.855 695.727 705.85L696.744 706.551C696.842 707.705 696.999 708.306 696.782 709.429C696.248 713.253 696.189 714.083 696.661 717.888C696.225 719.697 696.278 720.867 694.313 721.782C687.401 725.003 676.588 724.669 669.227 725.759L668.632 726.081C666.198 726.098 660.285 726.424 658.371 725.578C635.995 724.419 633.295 725.961 633.964 703.381L633.538 703.565C633.309 699.246 633.36 694.016 633.284 689.623C633.13 685.306 631.158 673.305 632.06 670.363L634.027 669.646C634.897 661.826 634.387 646.644 634.482 638.156C634.766 621.876 635.509 605.608 636.711 589.37L637.647 587.789C639.8 580.595 639.213 531.176 639.282 520.402L638.961 519.037C639.506 516.593 639.154 511.637 639.065 508.95C638.549 504.912 638.135 500.493 639.065 496.523C640.703 492.73 639.814 468.115 639.705 462.681C645.232 460.134 648.393 458.057 653.177 454.475C662.903 443.234 660.934 442.836 666.819 431.025Z"/><path fill="#DAC2A4" transform="scale(1.33333 1.33333)" d="M688.953 571.055L690.185 571.525C690.979 574.035 689.984 583.906 689.771 587.141L689.81 599.967C690.016 608.878 691.006 667.22 693.679 671.959L696.848 671.191C700.123 673.845 696.659 684.698 696.888 689.618L696.087 691.834C695.839 695.983 695.285 701.855 695.727 705.85L696.744 706.551C696.842 707.705 696.999 708.306 696.782 709.429C696.248 713.253 696.189 714.083 696.661 717.888C696.225 719.697 696.278 720.867 694.313 721.782C687.401 725.003 676.588 724.669 669.227 725.759L668.632 726.081C666.198 726.098 660.285 726.424 658.371 725.578C635.995 724.419 633.295 725.961 633.964 703.381L633.538 703.565C633.309 699.246 633.36 694.016 633.284 689.623C633.13 685.306 631.158 673.305 632.06 670.363L634.027 669.646C634.897 661.826 634.387 646.644 634.482 638.156C634.766 621.876 635.509 605.608 636.711 589.37L637.647 587.789C654.969 599.074 659.196 617.469 660.717 636.911C663.675 638.978 662.837 638.985 663.389 642.719L663.276 642.583L664.441 642.534C664.89 639.536 666.25 637.054 667.549 634.321C669.301 616.996 673.813 589.964 684.609 576.321C685.639 575.383 687.958 572.316 688.953 571.055Z"/><path fill="#DAC2A4" transform="scale(1.33333 1.33333)" d="M633.284 689.623C633.932 691.206 634.393 691.69 635.434 693.074C637.248 693.57 637.52 693.506 639.382 693.168L639.992 692.225L639.246 688.975C642.823 687.023 643.087 685.724 646.908 685.685L648.398 686.842L649.523 686.385C651.89 687.899 653.823 691.781 655.282 694.213C661.357 704.339 663.43 713.914 664.973 725.46L658.371 725.578C635.995 724.419 633.295 725.961 633.964 703.381L633.538 703.565C633.309 699.246 633.36 694.016 633.284 689.623Z"/><path fill="#A5B695" transform="scale(1.33333 1.33333)" d="M633.284 689.623C633.932 691.206 634.393 691.69 635.434 693.074C637.248 693.57 637.52 693.506 639.382 693.168L639.992 692.225L639.246 688.975C642.823 687.023 643.087 685.724 646.908 685.685L648.398 686.842L648.032 687.493C647.016 689.324 646.446 689.962 646.685 692.014L646.7 691.781C647.515 692.91 647.932 693.04 649.224 693.53C644.367 697.691 646.673 699.244 643.589 702.284L642.971 701.934L642.69 700.066C639.495 700.117 637.355 701.391 634.189 701.692L633.964 703.381L633.538 703.565C633.309 699.246 633.36 694.016 633.284 689.623Z"/><path fill="#8B8D86" transform="scale(1.33333 1.33333)" d="M688.953 571.055L690.185 571.525C690.979 574.035 689.984 583.906 689.771 587.141L689.81 599.967L687.308 600.808C686.072 603.846 688.822 602.946 686.853 604.259L681.562 604.416L680.545 602.894C679.825 603.902 679.829 604.339 679.594 605.532C678.667 605.513 678.438 605.494 677.528 605.324C676.397 607.383 676.393 606.693 676.578 608.7C677.561 609.556 678.244 610.131 679.113 611.1L678.839 611.99C677.271 611.82 676.934 611.584 675.469 610.931L674.782 611.779L675.73 613.563C671.036 621.642 670.019 628.743 669.38 638.344C668.766 641.071 666.957 646.922 666.642 649.112C667.039 644.078 667.393 639.368 667.549 634.321C669.301 616.996 673.813 589.964 684.609 576.321C685.639 575.383 687.958 572.316 688.953 571.055Z"/><path fill="#239979" transform="scale(1.33333 1.33333)" d="M688.953 571.055L690.185 571.525C690.979 574.035 689.984 583.906 689.771 587.141L688.231 592.072C687.137 592.728 686.888 592.714 685.671 593.009L685.685 592.979C685.971 594.598 686.081 594.776 685.661 596.317C684.272 596.143 682.503 596.083 681.361 595.375C680.536 588.535 683.477 582.883 684.507 576.928L684.609 576.321C685.639 575.383 687.958 572.316 688.953 571.055Z"/><path fill="#A7927B" transform="scale(1.33333 1.33333)" d="M636.711 589.37L637.647 587.789C654.969 599.074 659.196 617.469 660.717 636.911C663.675 638.978 662.837 638.985 663.389 642.719L663.276 642.583L664.441 642.534C664.89 639.536 666.25 637.054 667.549 634.321C667.393 639.368 667.039 644.078 666.642 649.112C666.957 646.922 668.766 641.071 669.38 638.344C670.14 643.45 665.95 664.628 663.47 669.005C663.476 679.488 664.491 690.697 661.686 700.594C660.794 692.8 661.44 683.658 661.24 675.541C660.773 656.599 659.873 636.491 655.534 617.993C654.812 614.918 651.914 606.589 649.467 605.199L648.737 606.364C648.102 603.328 648.119 600.676 645.084 599.402C645.409 598.814 645.306 598.628 645.359 597.861C643.538 594.68 639.62 591.847 636.711 589.37Z"/><path fill="#E2C28F" transform="scale(1.33333 1.33333)" d="M660.717 636.911C663.675 638.978 662.837 638.985 663.389 642.719L663.276 642.583L664.441 642.534C664.89 639.536 666.25 637.054 667.549 634.321C667.393 639.368 667.039 644.078 666.642 649.112C666.957 646.922 668.766 641.071 669.38 638.344C670.14 643.45 665.95 664.628 663.47 669.005C663.105 658.267 662.186 647.554 660.717 636.911Z"/><path fill="#A7927B" transform="scale(1.33333 1.33333)" d="M693.679 671.959L696.848 671.191C700.123 673.845 696.659 684.698 696.888 689.618L696.087 691.834C695.562 691.722 689.521 687.289 687.628 686.249L687.985 683.936L687.065 683.519C682.225 685.134 675.394 702.289 673.962 707.318C672.886 711.096 672.289 716.945 670.335 720.422L669.625 720.385C668.536 705.547 678.956 682.434 691.477 674.251C692.739 673.356 692.781 673.246 693.679 671.959Z"/><path fill="#239979" transform="scale(1.33333 1.33333)" d="M693.679 671.959L696.848 671.191C700.123 673.845 696.659 684.698 696.888 689.618C688.836 682.908 687.502 682.951 691.477 674.251C692.739 673.356 692.781 673.246 693.679 671.959Z"/><path fill="#239979" transform="scale(1.33333 1.33333)" d="M633.284 689.623C633.13 685.306 631.158 673.305 632.06 670.363L634.027 669.646C637.069 671.594 640.1 673.559 643.12 675.542C644.964 678.499 646.367 684.333 646.828 684.897L646.908 685.685C643.087 685.724 642.823 687.023 639.246 688.975L639.992 692.225L639.382 693.168C637.52 693.506 637.248 693.57 635.434 693.074C634.393 691.69 633.932 691.206 633.284 689.623Z"/><path fill="#A7927B" transform="scale(1.33333 1.33333)" d="M643.12 675.542C654.598 682.199 664.64 703.401 666.322 716.232C666.561 718.051 667.048 724.515 667.402 725.212L669.227 725.759L668.632 726.081C666.198 726.098 660.285 726.424 658.371 725.578L664.973 725.46C663.43 713.914 661.357 704.339 655.282 694.213C653.823 691.781 651.89 687.899 649.523 686.385L648.398 686.842L646.908 685.685L646.828 684.897C646.367 684.333 644.964 678.499 643.12 675.542Z"/><path fill="#64A977" transform="scale(1.33333 1.33333)" d="M645.084 599.402C648.119 600.676 648.102 603.328 648.737 606.364C649.542 611.281 651.262 628.359 648.711 632.161C648.323 631.155 645.205 602.182 645.084 599.402Z"/><path fill="#8B8D86" transform="scale(1.33333 1.33333)" d="M671.37 644.987L672.153 645.939C672.281 650.434 671.704 657.103 671.576 661.907C671.393 668.805 671.789 677.726 671.053 684.394C667.975 680.436 670.151 650.623 671.37 644.987Z"/><path fill="#8E7C6B" transform="scale(1.33333 1.33333)" d="M679.539 643.159L679.969 643.598C680.218 646.268 679.335 654.335 679.19 657.488C678.903 663.753 678.706 670.083 678.428 676.343L677.555 675.55C675.762 667.821 677.482 651.038 679.539 643.159Z"/><path fill="#8E7C6B" transform="scale(1.33333 1.33333)" d="M647.819 641.054C650.691 642.681 649.629 651.578 649.466 654.58C647.404 652.249 647.758 644.411 647.819 641.054Z"/><path fill="#A7927B" transform="scale(1.33333 1.33333)" d="M688.372 476.077C690.948 478.947 688.426 491.886 688.391 496.644L688.319 520.605L687.818 519.627C681.095 520.605 679.274 517.173 675.001 512.882C669.021 517.294 669.602 537.772 666.892 544.128C662.994 535.325 673.333 500.367 678.773 491.607L681.88 486.252C683.396 483.357 686.491 478.949 688.372 476.077Z"/><path fill="#239979" transform="scale(1.33333 1.33333)" d="M688.372 476.077C690.948 478.947 688.426 491.886 688.391 496.644L688.319 520.605L687.818 519.627C688.051 516.985 688.639 513.215 687.369 511.107C684.068 510.93 683.231 510.848 680.753 508.717C680.991 506.824 681.804 506.316 683.077 504.594L682.54 504.055L680.289 505.388L679.333 504.946C677.498 501.74 678.43 495.389 678.773 491.607L681.88 486.252C683.396 483.357 686.491 478.949 688.372 476.077Z"/><path fill="#A7927B" transform="scale(1.33333 1.33333)" d="M639.065 496.523C641.876 499.422 643.32 500.885 645.677 504.237C647.828 507.826 649.65 511.653 651.606 514.915C665.03 542.02 665.846 578.75 666.71 608.631C666.765 610.538 666.959 613.006 666.2 614.703L665.283 614.481C664.079 609.804 664.712 600.083 664.427 594.59C663.365 574.085 661.648 547.743 654.417 528.546C651.063 527.586 651.12 531.593 647.317 527.896C647.172 529.368 647.231 530.173 647.306 531.657C648.903 531.737 641.056 530.022 642.763 530.699L644.04 529.034L643.615 527.778C642.667 527.43 641.91 527.126 640.982 526.726C640.154 523.977 640.486 522.615 639.282 520.402L638.961 519.037C639.506 516.593 639.154 511.637 639.065 508.95C638.549 504.912 638.135 500.493 639.065 496.523Z"/><path fill="#239979" transform="scale(1.33333 1.33333)" d="M639.065 496.523C641.876 499.422 643.32 500.885 645.677 504.237C647.828 507.826 649.65 511.653 651.606 514.915L651.51 515.508C651.091 518.162 651.13 519.179 651.255 521.854C649.783 522.3 648.698 522.58 647.193 522.896C648.098 523.799 648.668 524.102 649.006 525.21C643.629 522.668 642.393 520.199 638.961 519.037C639.506 516.593 639.154 511.637 639.065 508.95C638.549 504.912 638.135 500.493 639.065 496.523Z"/><path fill="#8E7C6B" transform="scale(1.33333 1.33333)" d="M653.177 454.475C656.207 459.956 657.112 480.429 655.529 486.086C654.81 485.023 652.78 456.789 653.177 454.475Z"/><path fill="#8E7C6B" transform="scale(1.33333 1.33333)" d="M664.989 452.077C665.569 454.672 664.692 487.986 664.539 492.61C662.332 486.079 662.929 458.991 664.989 452.077Z"/><path fill="#A7927B" transform="scale(1.33333 1.33333)" d="M672.774 455.801C675.547 457.898 673.424 475.046 672.971 479.051C669.6 475.602 671.592 460.388 672.774 455.801Z"/><path fill="#8B8D86" transform="scale(1.33333 1.33333)" d="M671.71 542.809C673.498 545.024 671.9 565.606 671.706 569.877C668.889 565.604 671.283 548.268 671.71 542.809Z"/><path fill="#8B8D86" transform="scale(1.33333 1.33333)" d="M681.067 539.253C682.785 542.27 681.519 557.179 681 561.126C679.103 554.375 680.053 546.204 681.067 539.253Z"/><path fill="#8E7C6B" transform="scale(1.33333 1.33333)" d="M651.117 552.529C652.814 554.249 652.633 558.531 652.729 560.929L651.574 560.219C650.581 557.585 650.944 555.344 651.117 552.529Z"/><path fill="#0C4D57" transform="scale(1.33333 1.33333)" d="M685.817 277.958C694.704 272.018 708.535 274.877 718.51 276.214C721.123 276.564 724.66 277.357 727.154 277.102C778.911 294.108 813.25 323.935 838.488 372.58C845.715 386.508 852.865 410.304 852.516 426.003C843.376 422.291 824.684 415.372 817.014 410.825C817.699 402.312 819.742 395.181 821.7 386.907C818.572 390.972 811.426 404.456 808.802 405.293C805.92 402.571 806.002 393.501 805.883 389.355C805.745 383.108 805.552 376.863 805.301 370.62C802.619 379.866 800.091 389.156 797.721 398.487C793.3 396.025 789.171 393.07 785.413 389.679C785.661 379.297 788.438 363.447 790.019 352.792L775.484 383.017C771.518 380.471 768.05 378.186 764.236 375.417C764.763 361.879 765.795 353.859 769.258 340.707C764.399 346.777 757.888 358.686 753.711 365.932C748.331 363.099 740.799 358.235 736.869 353.626C737.098 342.034 737.396 330.443 737.762 318.855C733.759 327.145 730.568 335.153 727.116 343.677C721.884 339.952 714.182 334.129 709.789 329.494C710.831 321.643 712.04 313.212 712.473 305.339C708.082 309.892 705.356 316.803 701.774 321.669C693.218 311.559 686 294.265 676.236 288.943L672.764 286.565C675.501 283.815 676.244 283.372 679.654 281.444C683.552 280.79 682.793 279.769 685.817 277.958Z"/><path fill="#206D6F" transform="scale(1.33333 1.33333)" d="M679.654 281.444C683.552 280.79 682.793 279.769 685.817 277.958C691.254 277.856 701.197 280.534 706.917 281.861C742.203 290.05 768.436 306.213 794.449 331.265C810.037 346.142 823.113 363.448 833.167 382.509C831.06 381.879 825.467 371.46 823.456 368.713C791.967 325.7 748.459 290.13 694.263 282.383C688.942 281.623 684.977 281.27 679.654 281.444Z"/><path fill="#8B8D86" transform="scale(1.33333 1.33333)" d="M633.538 703.565L633.964 703.381C633.295 725.961 635.995 724.419 658.371 725.578C660.285 726.424 666.198 726.098 668.632 726.081L669.227 725.759C676.588 724.669 687.401 725.003 694.313 721.782C696.278 720.867 696.225 719.697 696.661 717.888C696.189 714.083 696.248 713.253 696.782 709.429C696.999 708.306 696.842 707.705 696.744 706.551C720.487 705.223 746.326 706.171 770.129 707.67C776.852 708.094 777.722 710.765 783.155 713.358C783.808 713.653 790.329 713.596 791.617 713.582C793.556 713.598 795.742 713.528 797.71 713.648C802.903 713.963 814.642 712.384 813.695 720.692C813.431 723 813.646 722.404 812.258 724.039C803.954 727.098 803.217 726.124 796.07 731.909C792.719 734.621 778.257 733.567 773.221 733.342C767.795 733.156 762.319 733.248 756.886 733.287C753.207 733.767 749.647 733.856 746.296 734.28C744.191 734.341 742.121 734.69 740.051 735.05C730.623 736.689 721.194 736.846 711.642 737.06C667.111 738.162 622.558 738.057 578.033 736.745C567.683 736.541 555.557 737.562 545.459 736.146C540.443 735.442 535.824 730.605 532.221 727.159C528.287 726.155 509.581 725.805 517.802 716.591C520.318 711.335 531.145 711.875 536.716 711.333C554.365 707.271 585.312 708.063 604.97 707.135C607.929 707.041 612.699 706.736 615.515 706.861C620.65 705.755 627.693 707.356 632.583 705.6C633.099 705.415 633.289 704.292 633.538 703.565Z"/><path fill="#AAAAA6" transform="scale(1.33333 1.33333)" d="M536.716 711.333C554.365 707.271 585.312 708.063 604.97 707.135C605.625 707.599 608.098 709.421 608.657 709.647L606.776 709.905C600.922 708.73 587.811 708.626 582.696 711.046L582.236 711.181C577.42 712.56 573.981 712.473 567.722 714.339C567.314 713.401 567.314 713.256 567.128 712.242C566.439 712.099 565.95 711.795 565.367 712.16C561.645 714.484 557.837 710.843 556.624 715.689C553.61 716.725 552.659 712.908 549.137 713.277L546.104 715.616L545.536 715.37C543.944 714.686 543.367 714.275 541.681 714.598C540.005 716.27 540.289 715.491 540.236 717.49L542.285 720.325C541.395 723.596 539.87 720.674 540.933 723.625C543.76 725.486 543.174 723.663 545.925 724.678L546.24 725.182C548.75 726.562 549.059 727 550.899 729.123L552.56 729.165L553.104 728.55C556.864 729.228 555.928 730.147 558.484 730.947C560.37 731.142 565.819 729.275 566.981 729.924C576.526 735.256 589.19 734.041 599.995 734.317C645.304 735.473 691.859 733.078 737.178 732.879C738.087 731.244 738.269 730.546 739.803 729.622C741.579 729.68 743.115 729.646 744.878 729.593C745.309 731.607 745.405 732.369 746.296 734.28C744.191 734.341 742.121 734.69 740.051 735.05C730.623 736.689 721.194 736.846 711.642 737.06C667.111 738.162 622.558 738.057 578.033 736.745C567.683 736.541 555.557 737.562 545.459 736.146C540.443 735.442 535.824 730.605 532.221 727.159C528.287 726.155 509.581 725.805 517.802 716.591C520.318 711.335 531.145 711.875 536.716 711.333Z"/><path fill="#9FA09D" transform="scale(1.33333 1.33333)" d="M552.56 729.165L554.106 729.428C558.864 735.285 559.142 731.991 560.514 733.66C553.938 735.903 556.785 732.916 553.119 732.575C551.789 732.451 549.83 734.56 546.977 733.581C545.231 731.362 545.038 730.651 544.037 728.048L546.24 725.182C548.75 726.562 549.059 727 550.899 729.123L552.56 729.165Z"/><path fill="#ABACA9" transform="scale(1.33333 1.33333)" d="M517.802 716.591C520.318 711.335 531.145 711.875 536.716 711.333C533.316 713.656 526.795 717.656 522.354 717.32C520.851 717.206 520.881 716.834 519.215 717.519L517.802 716.591Z"/><path fill="#AAAAA6" transform="scale(1.33333 1.33333)" d="M696.744 706.551C720.487 705.223 746.326 706.171 770.129 707.67C776.852 708.094 777.722 710.765 783.155 713.358C783.808 713.653 790.329 713.596 791.617 713.582C793.92 719.433 802.365 715.545 807.91 717.13C802.641 718.261 798.715 718.739 793.284 718.38C787.541 718 780.629 714.464 775.376 713.855C768.81 713.094 761.027 713.072 754.451 713.117C752.887 713.128 743.869 710.895 742.111 710.457L741.406 710.888L741.921 712.509C740.092 712.83 738.408 713.109 736.537 713.009C731.736 710.535 730.067 712.849 725.236 713.567L725.012 711.884C723.221 711.038 722.861 711.587 720.542 712.191L719.511 712.781C718.112 712.112 715.088 712.405 713.509 712.768C707.029 714.256 698.103 709.229 696.661 717.888C696.189 714.083 696.248 713.253 696.782 709.429C696.999 708.306 696.842 707.705 696.744 706.551Z"/><path fill="#ABACA9" transform="scale(1.33333 1.33333)" d="M696.782 709.429C701.123 712.133 703.976 709.327 709.59 709.344C709.801 710.821 709.546 710.685 710.37 711.614C711.072 710.661 711.631 709.78 712.264 708.788C715.081 708.47 712.22 709.588 715.022 711.364L719.313 709.334L720.542 712.191L719.511 712.781C718.112 712.112 715.088 712.405 713.509 712.768C707.029 714.256 698.103 709.229 696.661 717.888C696.189 714.083 696.248 713.253 696.782 709.429Z"/><path fill="#9FA09D" transform="scale(1.33333 1.33333)" d="M719.313 709.334C720.593 707.745 721.761 708.522 723.33 708.739C729.019 709.529 733.244 707.692 739.218 709.02C738.565 710.379 738.352 710.434 737.107 711.371L736.537 713.009C731.736 710.535 730.067 712.849 725.236 713.567L725.012 711.884C723.221 711.038 722.861 711.587 720.542 712.191L719.313 709.334Z"/><path fill="#ABACA9" transform="scale(1.33333 1.33333)" d="M791.617 713.582C793.556 713.598 795.742 713.528 797.71 713.648C802.903 713.963 814.642 712.384 813.695 720.692C813.431 723 813.646 722.404 812.258 724.039C803.954 727.098 803.217 726.124 796.07 731.909C792.719 734.621 778.257 733.567 773.221 733.342C773.4 731.426 773.41 730.98 773.999 729.174L775.095 729.458C782.025 737.097 781.419 725.632 790.117 730.775L790.667 731.105C791.62 728.22 789.552 730.176 789.518 726.753L789.974 726.849C792.157 725.826 796.521 726.393 798.137 725.007C801.684 721.962 800.287 720.364 805.574 720.816C807.483 719.405 806.957 719.675 807.91 717.13C802.365 715.545 793.92 719.433 791.617 713.582Z"/><path fill="#9FA09D" transform="scale(1.33333 1.33333)" d="M754.287 728.966C755.45 729.238 755.301 729.07 756.62 728.701C758.562 729.729 761.54 729.322 763.68 729.046C765.139 728.858 765.34 727.894 766.373 726.383L767.182 726.491L767.757 728.676L768.718 728.502C769.204 727.104 769.242 727.021 770.024 725.766C779.106 731.109 776.371 726.204 784.397 724.904C785.402 724.742 788.406 725.539 789.518 726.753C789.552 730.176 791.62 728.22 790.667 731.105L790.117 730.775C781.419 725.632 782.025 737.097 775.095 729.458L773.999 729.174C773.41 730.98 773.4 731.426 773.221 733.342C767.795 733.156 762.319 733.248 756.886 733.287C753.207 733.767 749.647 733.856 746.296 734.28C745.405 732.369 745.309 731.607 744.878 729.593C747.928 729.613 751.413 729.838 754.287 728.966Z"/><path fill="#ABACA9" transform="scale(1.33333 1.33333)" d="M744.878 729.593C747.928 729.613 751.413 729.838 754.287 728.966C752.744 730.358 751.397 731.042 751.008 732.74C753.233 733.178 754.66 733.2 756.886 733.287C753.207 733.767 749.647 733.856 746.296 734.28C745.405 732.369 745.309 731.607 744.878 729.593Z"/><path fill="#9FA09D" transform="scale(1.33333 1.33333)" d="M604.97 707.135C607.929 707.041 612.699 706.736 615.515 706.861C620.652 706.963 622.874 706.502 627.641 708.072L628.022 708.704C623.412 710.876 615.085 709.647 611.138 710.773L608.657 709.647C608.098 709.421 605.625 707.599 604.97 707.135Z"/><path fill="#ABACA9" transform="scale(1.33333 1.33333)" d="M582.696 711.046C587.811 708.626 600.922 708.73 606.776 709.905C600.933 710.314 599.585 711.099 594.019 712.888C593.578 713.03 589.639 711.591 589.653 711.584C587.885 712.458 586.488 713.77 584.399 714.04L582.696 711.046Z"/><path fill="#F3B23A" transform="scale(1.33333 1.33333)" d="M677.048 335.759C679.707 333.202 680.485 333.688 684.011 334.142C689.667 336.142 695.85 342.022 701.01 345.57C707.539 350.06 738.287 358.76 734.724 368.29C726.273 376.503 704.889 370.481 694.869 367.83C701.468 372.007 723.658 385.535 720.793 394.018C712.855 401.809 690.372 391.106 683.223 384.178C681.815 387.237 683.499 393.403 684.961 396.358C682.311 394.812 678.818 392.335 675.937 392.12C673.912 392.993 674.602 392.412 673.403 394.433C671.168 392.216 669.963 390.945 668.038 388.47L666.457 387.742L664.707 390.56L661.52 389.938L658.963 391.772C657.256 394.647 655.852 396.034 655.866 399.316C649.95 405.763 652.137 413.108 647.533 421.983L649.005 422.109C649.737 425.665 646.487 428.727 645.934 432.546L645.1 433.07L644.646 432.819C641.81 432.65 638.998 434.723 636.438 436.207C628.548 442.625 611.291 450.969 601.726 445.118C596.17 436.828 618.356 425.416 623.45 420.867C627.369 417.368 630.853 415.034 634.561 410.984C635.231 408.344 632.427 408.963 632.21 406.822C631.631 401.086 634.418 396.501 636.914 391.914C639.897 390.742 653.6 371.317 654.742 367.565C657.373 358.915 655.157 354.977 662.082 346.877L664.624 345.679L663.951 341.869L664.958 340.506L664.114 339.706L664.802 340.144L663.984 339.761C664.992 339.977 665.645 340.692 666.459 341.372C668.152 340.7 667.568 341.138 668.548 339.149C668.407 337.88 668.13 336.82 668.608 335.674C669.833 336.8 670.279 337.209 671.662 338.116C673.927 338.078 675.104 337.014 677.048 335.759Z"/><path fill="#DAC2A4" transform="scale(1.33333 1.33333)" d="M676.856 377.697L678.423 378.293C680.057 380.049 682.187 382.095 683.223 384.178C681.815 387.237 683.499 393.403 684.961 396.358C682.311 394.812 678.818 392.335 675.937 392.12C673.912 392.993 674.602 392.412 673.403 394.433C671.168 392.216 669.963 390.945 668.038 388.47C669.939 386.369 669.092 386.737 671.346 386.288L672.328 388.018C674.294 385.526 674.93 380.841 676.856 377.697Z"/><path fill="#E2C28F" transform="scale(1.33333 1.33333)" d="M672.473 368.918C674.005 371.692 675.826 374.735 676.856 377.697C674.93 380.841 674.294 385.526 672.328 388.018L671.346 386.288C669.092 386.737 669.939 386.369 668.038 388.47L666.457 387.742C670.541 380.435 670.887 377.021 672.473 368.918Z"/><path fill="#DC8F29" transform="scale(1.33333 1.33333)" d="M658.963 391.772C656.067 391.541 653.424 397.373 649.927 398.288C651.784 394.626 656.087 392.238 658.32 388.682C662.061 382.726 664.004 375.977 667.219 369.82C667.625 372.021 662.675 388.243 661.52 389.938L658.963 391.772Z"/><path fill="#DAC2A4" transform="scale(1.33333 1.33333)" d="M647.533 421.983L649.005 422.109C649.737 425.665 646.487 428.727 645.934 432.546L645.1 433.07L644.646 432.819C641.81 432.65 638.998 434.723 636.438 436.207C640.255 430.764 643.503 428.922 647.533 421.983Z"/><path fill="#DC8F29" transform="scale(1.33333 1.33333)" d="M669.23 344.706C676.39 348.687 671.717 373.742 697.503 388.238C699.246 389.215 700.998 390.175 702.76 391.117C693.356 388.801 689.304 385.394 682.858 378.382C677.858 371.496 673.918 364.492 672.515 356.032C672.17 353.955 669.236 345.131 669.23 344.706Z"/><path fill="#DC8F29" transform="scale(1.33333 1.33333)" d="M645.314 408.139L645.961 408.677C645.429 419.747 625.553 435.656 615.564 439.146L615.168 438.763L615.244 437.865C630.844 432.834 637.915 421.026 645.314 408.139Z"/><path fill="#DC8F29" transform="scale(1.33333 1.33333)" d="M681.182 341.057C684.045 342.231 688.007 347.342 690.811 349.723C700.554 357.996 708.649 361.429 720.622 364.914C707.685 365.359 687.775 351.904 681.182 341.057Z"/><path fill="#DC8F29" transform="scale(1.33333 1.33333)" d="M676.358 344.421C680.854 347.714 680.979 354.836 684.081 359.98C687.908 366.328 691.686 370.713 696.492 376.348C687.206 371.867 679.138 353.918 676.358 344.421Z"/><path fill="#F3B23A" transform="scale(1.33333 1.33333)" d="M666.457 387.742L668.038 388.47C669.963 390.945 671.168 392.216 673.403 394.433C674.602 392.412 673.912 392.993 675.937 392.12C678.818 392.335 682.311 394.812 684.961 396.358L685.285 396.713C689.373 401.123 694.211 405.124 698.624 409.201C703.441 413.65 729.662 424.372 724.245 432.64C713.756 439.261 699.448 432.42 689.08 429.239L689.264 429.531C693.19 435.667 713.511 452.94 706.305 458.628C700.586 460.034 691.907 456.914 686.387 454.916C675.448 444.602 674.902 445.118 666.819 431.025C660.934 442.836 662.903 443.234 653.177 454.475C648.393 458.057 645.232 460.134 639.705 462.681C603.787 473.531 638.926 440.457 644.646 432.819L645.1 433.07L645.934 432.546C646.487 428.727 649.737 425.665 649.005 422.109L647.533 421.983C652.137 413.108 649.95 405.763 655.866 399.316C655.852 396.034 657.256 394.647 658.963 391.772L661.52 389.938L664.707 390.56L666.457 387.742Z"/><path fill="#E2C28F" transform="scale(1.33333 1.33333)" d="M655.866 399.316L657.919 399.067C658.496 401.843 658.587 402.418 659.921 404.917C651.808 410.502 656.303 422.855 645.934 432.546C646.487 428.727 649.737 425.665 649.005 422.109L647.533 421.983C652.137 413.108 649.95 405.763 655.866 399.316Z"/><path fill="#EEB747" transform="scale(1.33333 1.33333)" d="M658.963 391.772L661.52 389.938L664.707 390.56C662.453 394.689 662.14 394.83 663.206 399.273L662.702 401.749C661.596 403.37 661.444 403.744 659.921 404.917C658.587 402.418 658.496 401.843 657.919 399.067L655.866 399.316C655.852 396.034 657.256 394.647 658.963 391.772Z"/><path fill="#64A977" transform="scale(1.33333 1.33333)" d="M657.919 399.067C659.483 397.306 659.568 396.534 661.448 396.252C662.603 398.168 662.51 399.511 662.702 401.749C661.596 403.37 661.444 403.744 659.921 404.917C658.587 402.418 658.496 401.843 657.919 399.067Z"/><path fill="#64A977" transform="scale(1.33333 1.33333)" d="M666.457 387.742L668.038 388.47C669.963 390.945 671.168 392.216 673.403 394.433C670.689 396.582 670.795 396.746 667.126 395.47L666.339 396.04L666.224 398.094C664.753 399.373 665.373 398.99 663.206 399.273C662.14 394.83 662.453 394.689 664.707 390.56L666.457 387.742Z"/><path fill="#DC8F29" transform="scale(1.33333 1.33333)" d="M676.573 398.298C678.545 399.241 689.355 414.391 694.238 418.366C698.934 422.189 707.901 425.902 710.236 428.023C697.218 425.894 681.99 409.965 676.573 398.298Z"/><path fill="#DC8F29" transform="scale(1.33333 1.33333)" d="M671.133 401.576C673.251 402.725 675.297 413.07 675.691 415.666C676.772 422.793 685.482 431.616 686.663 437.392C676.91 426.848 673.344 415.594 671.133 401.576Z"/><path fill="#DC8F29" transform="scale(1.33333 1.33333)" d="M667.51 421.322C668.472 422.057 673.659 434.425 675.454 437.134C679.556 443.321 684.659 446.202 689.186 451.31C681.749 450.824 666.876 429.074 667.51 421.322Z"/><path fill="#DC8F29" transform="scale(1.33333 1.33333)" d="M662.077 425.653C665.834 433 648.637 453.533 641.185 456.034C641.423 454.137 649.993 448.603 652.698 444.784C658.029 437.255 659.466 434.281 662.077 425.653Z"/><path fill="#F3B23A" transform="scale(1.33333 1.33333)" d="M644.869 334.576C647.96 335.965 648.723 334.915 651.725 333.528L652.204 333.895C651.62 335.986 650.824 337.996 651.124 340.083C653.922 338.331 654.456 337.638 656.637 335.107C657.019 338.544 656.977 342.235 658.875 344.967C659.626 345.424 661.358 346.543 662.082 346.877C655.157 354.977 657.373 358.915 654.742 367.565C653.6 371.317 639.897 390.742 636.914 391.914L637.18 388.397C630.261 391.771 616.602 398.449 608.885 395.511C602.736 388.819 623.166 373.063 627.998 368.635C618.781 371.611 600.114 378.261 592.506 369.561C591.531 362.194 615.242 352.263 621.27 347.826C627.08 343.549 637.101 334.948 643.595 333.426L644.869 334.576Z"/><path fill="#E2C28F" transform="scale(1.33333 1.33333)" d="M651.124 340.083C653.922 338.331 654.456 337.638 656.637 335.107C657.019 338.544 656.977 342.235 658.875 344.967C659.626 345.424 661.358 346.543 662.082 346.877C655.157 354.977 657.373 358.915 654.742 367.565C653.6 371.317 639.897 390.742 636.914 391.914L637.18 388.397L636.126 388.106C647.116 378.895 659.997 359.144 656.174 342.438C655.797 340.788 652.709 340.46 651.124 340.083Z"/><path fill="#DC8F29" transform="scale(1.33333 1.33333)" d="M651.358 349.569C651.958 350.13 652.428 350.372 652.281 351.436C650.06 367.512 637.818 376.238 628.936 385.333L628.656 385.624L627.682 384.738C628.366 382.732 632.681 380.371 634.94 378.066C643.936 368.885 648.249 361.958 651.358 349.569Z"/><path fill="#DC8F29" transform="scale(1.33333 1.33333)" d="M642.302 339.313L642.764 339.941C642.639 340.368 642.467 341.027 642.184 341.369C633.707 351.615 621.042 364.052 607.963 366.822L607.41 366.066C623.766 360.828 630.793 351.556 642.302 339.313Z"/><path fill="#DC8F29" transform="scale(1.33333 1.33333)" d="M646.753 343.84C649.585 346.947 638.91 364.433 635.861 366.944L635.29 366.382C638.914 359.731 643.257 350.746 646.753 343.84Z"/><path fill="#239979" transform="scale(1.33333 1.33333)" d="M666.504 294.822C667.147 291.826 667.323 290.265 668.918 287.674C671.083 286.214 670.071 286.528 672.764 286.565L676.236 288.943C676.745 294.856 677.638 301.652 678.909 307.454L679.449 310.174C680.198 317.387 679.349 329.007 684.011 334.142C680.485 333.688 679.707 333.202 677.048 335.759C675.104 337.014 673.927 338.078 671.662 338.116C670.279 337.209 669.833 336.8 668.608 335.674C668.13 336.82 668.407 337.88 668.548 339.149C667.568 341.138 668.152 340.7 666.459 341.372C665.645 340.692 664.992 339.977 663.984 339.761L664.802 340.144L664.114 339.706L664.958 340.506L663.951 341.869L664.624 345.679L662.082 346.877C661.358 346.543 659.626 345.424 658.875 344.967C656.977 342.235 657.019 338.544 656.637 335.107C654.456 337.638 653.922 338.331 651.124 340.083C650.824 337.996 651.62 335.986 652.204 333.895L651.725 333.528C648.723 334.915 647.96 335.965 644.869 334.576L643.595 333.426L645.213 332.313C646.812 328.919 645.701 311.533 645.533 306.802L645.761 289.856C649.943 288.826 653.206 287.953 657.545 287.662L657.892 288.658L658.658 292.597C659.497 291.792 659.978 291.4 660.629 290.406L661.197 290.297C660.971 292.183 660.787 293.367 660.853 295.293C662.805 296.64 664.393 295.682 666.504 294.822Z"/><defs><linearGradient id="gradient_1" gradientUnits="userSpaceOnUse" x1="676.1474" y1="310.69714" x2="661.37366" y2="300.93304"><stop offset="0" stop-color="#DFBEA2"/><stop offset="1" stop-color="#D1CCB4"/></linearGradient></defs><path fill="url(#gradient_1)" transform="scale(1.33333 1.33333)" d="M666.504 294.822C667.147 291.826 667.323 290.265 668.918 287.674C671.083 286.214 670.071 286.528 672.764 286.565L676.236 288.943C676.745 294.856 677.638 301.652 678.909 307.454L679.449 310.174C680.198 317.387 679.349 329.007 684.011 334.142C680.485 333.688 679.707 333.202 677.048 335.759C675.047 333.01 672.043 330.737 669.409 328.533L667.746 327.592C661.7 322.04 665.127 302.474 666.504 294.822Z"/><path fill="#DAC2A4" transform="scale(1.33333 1.33333)" d="M669.409 328.533C672.112 320.107 673.958 316.914 679.449 310.174C680.198 317.387 679.349 329.007 684.011 334.142C680.485 333.688 679.707 333.202 677.048 335.759C675.047 333.01 672.043 330.737 669.409 328.533Z"/><path fill="#A7927B" transform="scale(1.33333 1.33333)" d="M678.909 307.454L679.449 310.174C673.958 316.914 672.112 320.107 669.409 328.533L667.746 327.592C669.332 319.044 672.165 313.291 678.909 307.454Z"/><defs><linearGradient id="gradient_2" gradientUnits="userSpaceOnUse" x1="645.99683" y1="302.44299" x2="658.28693" y2="300.08109"><stop offset="0" stop-color="#E3D3BE"/><stop offset="1" stop-color="#C3BDA5"/></linearGradient></defs><path fill="url(#gradient_2)" transform="scale(1.33333 1.33333)" d="M645.761 289.856C649.943 288.826 653.206 287.953 657.545 287.662L657.892 288.658C657.293 293.506 656.309 300.003 656.056 304.754L655.864 307.061C655.713 312.196 655.511 317.331 655.256 322.463C654.119 326.711 648.129 329.236 644.869 334.576L643.595 333.426L645.213 332.313C646.812 328.919 645.701 311.533 645.533 306.802L645.761 289.856Z"/><path fill="#DAC2A4" transform="scale(1.33333 1.33333)" d="M645.533 306.802C647.03 305.976 647.629 305.255 648.944 305.581L649.122 305.986C651.597 309.833 653.06 312.625 654.53 317.016C654.855 318.947 655.124 320.489 655.256 322.463C654.119 326.711 648.129 329.236 644.869 334.576L643.595 333.426L645.213 332.313C646.812 328.919 645.701 311.533 645.533 306.802Z"/><path fill="#A7927B" transform="scale(1.33333 1.33333)" d="M649.122 305.986C651.597 309.833 653.06 312.625 654.53 317.016L653.488 317.192C651.353 314.313 649.536 309.547 649.122 305.986Z"/><path fill="#A7927B" transform="scale(1.33333 1.33333)" d="M655.864 307.061C654.253 304.997 651.802 301.453 651.3 298.944L651.899 298.604C654.299 300.747 654.659 301.819 656.056 304.754L655.864 307.061Z"/><defs><linearGradient id="gradient_3" gradientUnits="userSpaceOnUse" x1="551.43427" y1="351.23318" x2="556.11389" y2="345.59546"><stop offset="0" stop-color="#E9EAEA" stop-opacity="0"/><stop offset="1" stop-color="#DEE8E3" stop-opacity="0.027450981"/></linearGradient></defs><path fill="url(#gradient_3)" transform="scale(1.33333 1.33333)" d="M550.59 338.979C553.41 343.531 555.8 347.393 558.243 352.151C557.099 352.99 556.383 353.289 555.1 353.907C554.308 352.167 554.907 352.78 553.395 351.874C552.266 347.444 551.615 343.3 550.59 338.979Z"/><path fill="#D4DFDF" fill-opacity="0.011764706" transform="scale(1.33333 1.33333)" d="M468.572 215.169C472.096 212.725 475.723 210.136 479.277 207.764C476.626 211.005 473.981 214.162 471.545 217.572C470.029 217.226 469.789 216.495 468.572 215.169Z"/><defs><linearGradient id="gradient_4" gradientUnits="userSpaceOnUse" x1="583.08862" y1="200.15985" x2="586.88519" y2="199.14507"><stop offset="0" stop-color="#F3EFF0" stop-opacity="0"/><stop offset="1" stop-color="#E7EAE6" stop-opacity="0.054901961"/></linearGradient></defs><path fill="url(#gradient_4)" transform="scale(1.33333 1.33333)" d="M582.698 200.483L582.94 199.045L583.87 198.463L586.426 199.275C587.59 200.851 588.512 201.342 587.923 203.434L582.698 200.483Z"/></svg>