<?xml version="1.0" encoding="utf-8" ?><svg xmlns="http://www.w3.org/2000/svg" xmlns:xlink="http://www.w3.org/1999/xlink" width="1792" height="1024" viewBox="0 0 1792 1024"><path fill="#243E46" transform="scale(1.33333 1.33333)" d="M669.79 172.106C671.437 167.845 682.539 153.406 685.683 149.114C707.962 118.692 729.275 91.3753 765.097 76.2014C768.638 74.7014 773.295 72.4958 777.12 73.9647C778.504 75.7107 778.192 74.8205 777.918 77.6025C749.032 109.174 738.253 126.007 722.494 166.561C710.114 198.419 711.695 214.198 706.027 246.637C705.224 253.545 704.471 271.205 702.906 276.828L702.833 277.828C702.651 284.979 702.303 289.309 702.493 296.66C701.872 315.413 702.147 334.565 701.185 353.324C700.946 357.977 701.27 364.333 700.848 368.5C701.911 376.446 701.403 382.973 702.941 390.971C704.148 397.535 703.002 405.255 703.788 411.038C705.359 422.597 707.389 432.67 708.232 444.488C708.457 447.462 710.307 468.148 709.992 469.006L707.085 471.232C706.481 467.48 706.217 464.799 704.626 461.3L703.779 457.955C700.947 462.902 707.568 496.2 710.232 501.022C711.597 502.513 710.769 504.45 713.647 505.526C714.928 503.815 714.823 501.25 715.015 498.978C715.536 515.799 720.344 540.353 725.055 556.7C725.608 559.026 726.855 563.602 727.193 565.777C731.968 585.021 737.357 599.589 743.448 617.846C743.959 619.795 744.318 621.296 745.097 623.181C753.252 645.244 763.613 666.135 769.821 689.155C771.826 696.588 777.603 705.702 780.054 713.235C786.781 731.737 794.275 749.938 802.142 768L797.562 768L785.755 768L785.213 768L740.348 768L724.057 768L706.079 768L697.26 768L694.653 768L661.164 768L651.227 768L635.377 768L612.254 768L610.08 768L573.173 768L565.303 768L564.246 768L558.258 768L551.224 768C551.57 763.294 552.279 758.164 551.216 753.658C548.565 753.259 547.175 753.061 544.595 752.255C544.058 750.45 544.115 747.704 544.066 745.795C543.796 735.352 542.863 724.985 541.981 714.576C540.44 711.822 541.451 699.463 540.241 696.679C538.716 695.687 537.171 694.213 535.764 694.424C534.324 704.281 536.527 725.387 536.053 737.297C536.526 745.852 536.888 760.023 538.45 768L527.519 768C524.928 756.594 523.526 726.614 523.325 714.586C522.75 691.132 523.374 667.664 525.194 644.274C526.303 629.989 528.666 615.31 529.801 601.243C533.788 551.785 540.86 502.814 553.82 454.882C555.82 447.483 556.665 439.008 558.632 431.213C561.985 417.926 565.354 404.954 569.64 391.912C573.67 377.152 577.384 362.262 582.03 347.651C583.056 344.423 585.549 341.456 586.735 338.261C590.363 323.051 597.588 307.726 601.55 292.933C602.862 288.031 608.339 281.514 610.168 276.342C615.951 259.988 622.937 246.086 632.038 231.366C643.71 212.489 654.347 188.21 669.79 172.106ZM645.798 669.119C642.668 668.419 637.644 667.455 636.743 671.191C634.843 679.071 639.368 693.496 640.575 701.355C642.152 711.11 653.859 746.842 653.506 752.033C654.555 756.226 655.276 758.024 657.622 761.699C660.776 759.563 663.264 757.684 666.867 756.345L667.494 756.003C667.726 755.641 667.957 755.28 668.189 754.919C664.276 732.647 647.143 689.624 645.798 669.119ZM642.743 230.903C645.821 225.989 648.772 221.399 651.426 216.242L651.028 213.836L650.383 213.82C646.616 219.066 630.278 248.13 627.917 253.857C623.481 262.332 621.352 268.293 618.048 277.235C614.553 282.874 613.811 285.71 611.691 292.089C610.468 294.718 609.406 297.868 608.401 300.628C611.002 296.591 612.99 292.524 615.709 288.482C618.962 284.065 617.766 282.594 618.048 277.235L620.711 275.627C621.425 274.639 624.208 272.797 625.356 271.962C624.903 267.056 627.494 259.625 628.782 254.586C632.767 248.437 637.808 236.37 642.743 230.903ZM562.862 673.1C563.674 675.886 564.367 679.459 566.39 681.38L567.6 681.522C568.97 679.774 568.98 678.14 568.723 676.029C568.495 674.266 568.233 672.509 567.937 670.757C567.601 669.282 566.054 665.528 565.437 663.928C563.907 666.157 563.541 670.287 562.862 673.1ZM707.151 697.569L704.8 695.995L704.368 696.449C705.629 700.559 708.178 710.957 711.28 713.102L712.419 712.888C715.534 708.099 711.369 706.072 709.495 702.48C708.036 701.209 707.757 699.489 707.151 697.569ZM646.328 752.557C646.625 741.364 644.895 730.123 643.489 718.931C642.415 717.549 640.885 716.098 639.637 714.833C637.711 713.219 636.299 711.512 634.093 711.088C632.978 712.59 633.385 713.158 633.417 715.371C639.047 730.344 638.169 736.248 646.328 752.557ZM732.053 743.383C731.179 746.634 734.969 761.969 739.019 763.687L739.836 763.598C739.528 760.404 734.01 745.893 732.053 743.383ZM575.791 733.087C575.953 731.047 576.101 729.005 576.235 726.963C576.472 723.43 576.986 720.438 574.712 717.84L573.207 719.261C570.025 724.653 572.823 728.431 575.791 733.087ZM728.815 732.346C728.14 728.602 725.041 719.573 721.995 717.273L721.865 718.715L723.197 718.158L723.548 718.591L722.136 719.692C723.706 723.614 725.057 726.869 726.891 730.693L727.429 732.98C728.187 736.407 728.567 738.904 731.115 741.47C731.647 739.89 729.447 734.285 728.815 732.346ZM744.757 675.993C745.77 676.822 745.915 676.775 747.142 677.128C749.252 674.559 747.644 669.538 745.416 667.327L744.081 667.505C744.767 671.143 744.815 672.267 744.757 675.993ZM699.034 545.126C697.753 537.904 701.423 539.686 696.569 530.031C694.13 528.448 691.713 526.412 688.998 525.994C690.706 533.196 694.34 539.063 697.716 545.355L699.034 545.126ZM630.713 597.388C631.43 606.089 631.057 645.978 635.774 650.433C638.266 650.861 641.197 651.627 643.538 650.902C644.986 648.162 642.542 636.671 642.392 632.662C642.012 622.563 640.671 611.905 640.878 601.827C639.101 595.855 641.881 569.769 640.488 561.937C635.95 562.773 634.63 563.471 630.958 560.451L629.705 561.393C628.532 569.66 630.113 578.285 629.985 586.271C630.371 590.13 630.759 593.485 630.713 597.388ZM627.225 478.621C627.723 489.628 624.254 495.612 627.539 506.443C628.688 510.234 627.283 527.914 626.356 532.249C627.531 535.357 628.704 537.374 626.981 540.491C629.37 540.796 637.594 541.206 639.655 540.46C641.184 535.436 637.964 526.954 638.965 524.026C639.544 516.02 639.25 512.518 638.6 504.571C638.299 500.732 637.943 497.604 638.329 493.735C639.197 485.431 637.164 475.442 638.495 463.434C636.152 460.765 635.175 461.112 631.39 460.178C629.509 461.291 628.665 461.336 628.212 463.695C627.278 468.562 627.715 473.723 627.225 478.621ZM714.947 134.546C712.321 140.198 707.799 144.963 705.271 150.172C700.665 159.66 694.52 169.017 689.847 178.272L694.649 179.558C698.896 177.092 711.988 145.25 714.519 138.772L715.354 133.287L714.947 134.546ZM671.561 703.888C669.192 706.93 669.142 706.902 669.841 711.466C671.257 720.717 673.901 737.382 677.815 745.508L679.458 744.756C680.65 738.086 675.965 711.853 672.855 704.469L671.561 703.888ZM663.951 475.866C663.343 476.099 660.551 476.98 660.513 477.491C660.125 482.74 657.835 502.443 659.709 506.401C661.313 505.365 664.643 503.347 665.887 502.117C665.4 493.109 664.949 484.836 663.951 475.866ZM585.855 643.038C589.438 638.454 585.402 632.53 583.611 628.58C582.08 632.561 581.426 641 585.855 643.038ZM676.941 362.294L676.095 360.107L674.846 359.947C673.095 362.443 673.6 368.292 675.271 370.775C676.579 370.143 676.316 369.805 677.064 367.981C676.216 365.543 676.497 364.756 676.941 362.294ZM744.295 702.338C743.586 702.877 742.702 703.218 742.699 704.157C742.681 708.836 749.946 719.048 755.184 715.846C756.897 713.242 755.486 711.256 756.323 707.988C754.028 705.788 752.163 701.936 748.534 702.303C746.394 702.52 746.505 702.94 744.295 702.338ZM540.578 599.778C540.77 599.384 541.442 597.178 541.618 596.63C542.266 594.11 543.91 592.148 544.466 589.565C546.261 581.216 550.838 575.48 551.603 566.933C548.975 558.736 548.985 559.522 548.455 551.432C547.866 542.453 557.737 513.725 554.891 507.83L553.839 507.463C551.063 510.049 550.446 521.757 548.347 525.504C547.938 526.234 547.11 527.612 547.06 528.406C546.094 543.693 543.565 558.841 542.205 574.105C541.755 577.654 539.879 597.507 540.578 599.778ZM688.959 445.147L687.954 443.847L686.944 443.902C685.379 452.281 684.729 469.417 691.749 475.194L692.308 474.772C692.322 472.155 692.272 470.092 692.095 467.483C691.014 459.892 690.557 453.909 689.054 446.18L688.959 445.147ZM664.095 431.651C664.655 429.095 665.711 427.872 666.577 425.445C668.493 420.083 667.858 414.948 667.201 409.475C662.739 414.954 660.237 425.173 661.401 432.123L662.396 432.806C662.979 432.443 663.603 432.11 664.095 431.651ZM704.667 751.712C707.86 748.517 708.51 747.948 709.944 743.535C703.238 734.415 701.443 740.102 696.641 730.464L695.274 730.452C694.786 735.685 699.102 745.097 702.423 749.148C703.145 750.025 703.893 750.88 704.667 751.712ZM580.382 393.641C578.235 399.153 576.386 410.402 579.786 415.518C580.517 409.709 581.918 399.162 580.382 393.641ZM593.431 448.626C595.393 442.666 599.832 427.789 594.3 423.058C592.783 429.451 590.349 441.98 592.105 448.333C593.056 448.815 592.621 448.835 593.431 448.626ZM577.43 516.516L581.954 522.719C585.546 519.261 585.605 510.941 583.198 506.993C582.589 506.754 581.581 506.317 580.988 506.168C579.481 509.855 578.258 512.573 577.43 516.516ZM672.511 249.444C671.448 247.54 671.961 248.204 669.732 246.918C667.555 247.213 665.693 247.041 664.338 248.284C659.981 261.127 656.436 276.212 652.05 288.311L659.906 291.222C662.815 282.682 669.038 254.578 672.511 249.444ZM711.013 632.127L712.266 631.027C712.501 628.669 711.39 625.523 710.721 623.153C708.719 625.028 710.41 629.705 711.013 632.127ZM706.657 662.163C707.274 665.775 709.166 671.26 712.616 673.048C711.408 669.231 710.049 664.651 706.657 662.163ZM641.92 386.657C636.629 387.892 636.74 395.24 635.365 399.828C634.357 406.524 631.581 430.919 634.316 437.76C634.493 438.205 635.915 439.095 636.443 439.426C641.923 434.29 642.078 417.737 642.814 410.055C643.492 405.567 644.779 391.069 643.446 387.156L641.92 386.657ZM655.65 315.43C656.278 312.872 656.512 313.591 655.616 311.649C653.074 310.564 647.812 311.024 646.886 313.885C642.304 328.05 640.506 343.477 638.015 358.172C637.82 363.228 637.794 366.342 638.166 371.381L645.751 370.179L646.98 369.473C647.329 368.967 650.105 351.179 650.951 347.901C650.806 346.515 652.239 337.864 652.533 335.929C653.857 329.168 655.347 322.296 655.65 315.43ZM606.416 370.398C607.78 366.696 609.014 364.002 608.441 360.1C607.095 358.592 607.748 359.054 605.616 358.54C605.028 361.498 603.302 367.033 603.349 369.341C604.705 369.94 604.979 370.033 606.416 370.398ZM656.7 557.046C656.931 560.276 657.055 564.69 658.012 567.675L659.837 569.179C660.697 566.008 662.486 558.414 659.346 556.332L656.7 557.046ZM693.277 381.132C691.088 384.649 690.473 387.882 693.46 391.138C693.343 388.106 693.947 383.243 693.277 381.132ZM690.408 188.185C687.996 191.022 684.78 195.138 683.296 198.457C680.755 204.142 669.418 226.641 671.681 231.67C673.089 232.349 674.235 232.866 675.688 233.44C683.787 233.397 684.256 216.51 685.962 210.413C687.363 205.406 696.712 191.283 690.408 188.185Z"/><path fill="#E6E1DF" fill-opacity="0.023529412" transform="scale(1.33333 1.33333)" d="M627.917 253.857C630.278 248.13 646.616 219.066 650.383 213.82L651.028 213.836L651.426 216.242C648.772 221.399 645.821 225.989 642.743 230.903C637.808 236.37 632.767 248.437 628.782 254.586L627.917 253.857Z"/><path fill="#E6E1DF" fill-opacity="0.031372551" transform="scale(1.33333 1.33333)" d="M739.836 763.598L739.019 763.687C734.969 761.969 731.179 746.634 732.053 743.383C734.01 745.893 739.528 760.404 739.836 763.598Z"/><path fill="#E6E1DF" fill-opacity="0.019607844" transform="scale(1.33333 1.33333)" d="M726.891 730.693C725.057 726.869 723.706 723.614 722.136 719.692L723.548 718.591L723.197 718.158L721.865 718.715L721.995 717.273C725.041 719.573 728.14 728.602 728.815 732.346C729.447 734.285 731.647 739.89 731.115 741.47C728.567 738.904 728.187 736.407 727.429 732.98L726.891 730.693Z"/><path fill="#5B6A6E" transform="scale(1.33333 1.33333)" d="M736.975 621.632C736.12 621.464 735.965 621.316 735.162 620.951C735.109 618.394 734.755 618.945 735.869 617.036C738.558 616.324 739.535 618.243 743.448 617.846C743.959 619.795 744.318 621.296 745.097 623.181C753.252 645.244 763.613 666.135 769.821 689.155C771.826 696.588 777.603 705.702 780.054 713.235C786.781 731.737 794.275 749.938 802.142 768L797.562 768L785.755 768L785.213 768L784.713 765.72C782.858 763.981 780.487 761.816 779.909 759.368L780.624 758.344L782.225 758.795C784.735 758.219 785.687 757.126 786.301 754.848C785.252 751.874 785.975 752.699 783.791 751.149L783.838 746.294C779.299 746.27 773.256 741.771 772.792 737.632C772.576 736.798 771.394 734.425 770.969 733.512C769.285 731.887 769.354 728.32 768.723 725.336C763.443 723.809 765.363 720.748 762.026 717.256C758.988 714.079 762.048 710.921 762.845 707.551C763.192 706.088 760.812 703.419 759.884 701.972L760.281 700.396L762.036 699.996L762.093 698.313L761.499 697.233L760.428 697.042C755.824 693.652 758.057 695.964 755.928 690.661C752.855 690.24 747.591 687.113 745.39 684.819C743.526 682.876 744.434 678.833 744.757 675.993C745.77 676.822 745.915 676.775 747.142 677.128C749.252 674.559 747.644 669.538 745.416 667.327L744.081 667.505C743.233 666.616 738.489 652.589 739.1 651.014C741.521 650.602 742.387 651.476 745.086 652.264C744.847 650.124 744.695 650.952 745.565 649.083C746.868 646.841 744.602 639.313 743.099 637.237C741.366 636.37 740.959 636.324 739.937 634.777C741.222 632.643 740.998 635.217 743.377 634.392C739.772 625.04 739.103 632.975 734.255 630.812C733.936 626.664 737.261 627.856 736.803 622.795L736.975 621.632Z"/><path fill="#2C454C" transform="scale(1.33333 1.33333)" d="M744.081 667.505C743.233 666.616 738.489 652.589 739.1 651.014C741.521 650.602 742.387 651.476 745.086 652.264C744.847 650.124 744.695 650.952 745.565 649.083L746.282 650.675C750.447 650.873 753.779 651.864 755.338 656.075C755.062 657.613 754.885 657.696 753.84 658.936C753.597 661.698 757.178 664.141 757.091 666.602L754.854 668.344C754.746 670.995 761.24 677.934 760.946 681.244L758.034 683.142L757.97 684.091C760.537 685.473 761.506 683.184 763.665 684.99C763.379 692.078 759.735 690.206 758.675 693.814L760.428 697.042C755.824 693.652 758.057 695.964 755.928 690.661C752.855 690.24 747.591 687.113 745.39 684.819C743.526 682.876 744.434 678.833 744.757 675.993C745.77 676.822 745.915 676.775 747.142 677.128C749.252 674.559 747.644 669.538 745.416 667.327L744.081 667.505Z"/><path fill="#41565B" transform="scale(1.33333 1.33333)" d="M762.093 698.313C763.42 697.689 764.489 697.267 765.651 696.37L766.446 694.067L767.385 694.296C769.344 698.176 764.7 704.853 767.333 706.971L769.129 706.793C770.652 710.362 766.596 711.726 767.038 715.679C768.223 718.004 770.042 719.533 772.122 721.051C775.289 723.362 773.208 722.238 773.945 725.138C777.013 725.07 779.921 724.466 780.219 728.553C779.178 731.062 776.508 733.891 773.925 734.761C773.699 736.902 774.074 736.283 772.792 737.632C772.576 736.798 771.394 734.425 770.969 733.512C769.285 731.887 769.354 728.32 768.723 725.336C763.443 723.809 765.363 720.748 762.026 717.256C758.988 714.079 762.048 710.921 762.845 707.551C763.192 706.088 760.812 703.419 759.884 701.972L760.281 700.396L762.036 699.996L762.093 698.313Z"/><path fill="#41565B" transform="scale(1.33333 1.33333)" d="M783.838 746.294L784.611 745.594C785.504 746.698 785.623 747.297 786.09 748.609C789.045 748.544 786.487 747.783 789.311 748.064C790.636 750.043 790.158 751.239 790.148 753.685L790.143 754.21C791.976 754.695 792.439 754.607 794.368 754.562L794.503 755.298L792.317 756.361C792.117 758.16 791.954 757.348 792.705 758.899L793.353 758.883L794.655 757.22C796.095 757.849 797.279 760.278 798.185 761.745L798.188 763.011L796.287 764.607C796.271 766.589 796.323 766.025 797.562 768L785.755 768L785.213 768L784.713 765.72C782.858 763.981 780.487 761.816 779.909 759.368L780.624 758.344L782.225 758.795C784.735 758.219 785.687 757.126 786.301 754.848C785.252 751.874 785.975 752.699 783.791 751.149L783.838 746.294Z"/><path fill="#8E9291" transform="scale(1.33333 1.33333)" d="M785.213 768L784.713 765.72C782.858 763.981 780.487 761.816 779.909 759.368L780.624 758.344L782.225 758.795C783.392 760.788 783.46 761.814 785.2 762.391C787.876 760.818 790.799 760.932 792.186 764.157L791.011 764.718L787.84 763.464C785.864 764.754 785.996 765.633 785.755 768L785.213 768Z"/><path fill="#2C454C" transform="scale(1.33333 1.33333)" d="M736.975 621.632C736.12 621.464 735.965 621.316 735.162 620.951C735.109 618.394 734.755 618.945 735.869 617.036C738.558 616.324 739.535 618.243 743.448 617.846C743.959 619.795 744.318 621.296 745.097 623.181C744.261 625.57 744.721 625.344 742.994 626.792C740.242 625.679 741.115 622.686 738.494 620.725L736.975 621.632Z"/><path fill="#2C454C" transform="scale(1.33333 1.33333)" d="M669.79 172.106C670.602 176.914 665.933 177.469 669.267 180.548C673.858 180.874 672.198 179.199 673.858 180.477L673.418 181.512L672.072 182.011L672.909 184.511C673.848 185.254 675.56 186.415 676.04 187.412C673.425 187.66 672.029 188.81 670.137 190.496C664.852 195.206 659.767 197.446 658.443 204.852L657.467 205.681C656.555 204.328 656.914 204.259 656.983 202.212C653.04 202.44 652.752 214.748 652.122 215.896L651.426 216.242L651.028 213.836L650.383 213.82C646.616 219.066 630.278 248.13 627.917 253.857C623.481 262.332 621.352 268.293 618.048 277.235C614.553 282.874 613.811 285.71 611.691 292.089C604.779 287.947 607.266 289.385 601.55 292.933C602.862 288.031 608.339 281.514 610.168 276.342C615.951 259.988 622.937 246.086 632.038 231.366C643.71 212.489 654.347 188.21 669.79 172.106Z"/><path fill="#5B6A6E" transform="scale(1.33333 1.33333)" d="M672.909 184.511C671.994 186.82 672.598 186.092 670.737 187.446C668.457 187.392 669.301 187.715 667.567 186.23C666.859 183.798 666.743 184.717 667.821 182.744C669.678 181.762 669.966 181.797 672.072 182.011L672.909 184.511Z"/><path fill="#41565B" transform="scale(1.33333 1.33333)" d="M691.662 762.2C690.639 760.835 689.893 759.591 689.004 758.149C689.727 755.732 689.33 758.647 693.258 756.04L693.414 755.219L691.688 755.334C689.911 753.95 689.783 753.662 688.824 751.608C689.051 749.522 688.982 748.218 690.398 746.632C692.555 746.338 693.265 747.567 695.928 748.576C698.811 743.556 689.702 726.705 689.144 720.239L689.917 720.24L691.873 722.98L694.006 723.226C693.732 726.05 695.651 727.253 696.641 730.464L695.274 730.452C694.786 735.685 699.102 745.097 702.423 749.148C703.145 750.025 703.893 750.88 704.667 751.712C707.86 748.517 708.51 747.948 709.944 743.535C710.619 748.293 708.474 749.032 709.405 752.037L710.728 752.324C713.442 750.138 712.377 746.446 714.479 745.973C718.141 745.721 720.702 742.415 724.495 743.775C723.966 744.928 724.031 744.997 723.972 746.22L724.873 747.197L725.415 747.138C729.995 743.305 724.44 739.19 727.429 732.98C728.187 736.407 728.567 738.904 731.115 741.47L732.395 741.742L732.51 742.903L732.053 743.383C731.179 746.634 734.969 761.969 739.019 763.687L739.836 763.598L741.078 764.51C741.306 766.614 741.303 765.868 740.348 768L724.057 768L706.079 768L697.26 768L697.255 761.29C694.977 762.128 694.115 762.616 691.662 762.2Z"/><path fill="#2C454C" transform="scale(1.33333 1.33333)" d="M727.429 732.98C728.187 736.407 728.567 738.904 731.115 741.47L732.395 741.742L732.51 742.903L732.053 743.383C731.179 746.634 734.969 761.969 739.019 763.687L739.836 763.598L741.078 764.51C741.306 766.614 741.303 765.868 740.348 768L724.057 768L706.079 768C706.565 765.782 707.669 764.584 709.035 762.733L707.944 760.493C709.252 757.741 708.477 760.721 711.048 758.139C714.391 762.098 715.458 759.445 717.935 761.479C720.109 757.635 720.485 760.99 723.952 758.787C724.406 756.275 723.613 754.755 721.858 752.988L720.86 753.013L720.764 756.935L720.017 757.446L718.711 756.393L718.847 754.506C717.952 752.659 715.873 752.485 713.57 750.94L715.301 750.073L716.14 747.315C717.483 747.839 716.823 747.805 718.181 747.475C717.019 746.046 716.663 746.389 714.479 745.973C718.141 745.721 720.702 742.415 724.495 743.775C723.966 744.928 724.031 744.997 723.972 746.22L724.873 747.197L725.415 747.138C729.995 743.305 724.44 739.19 727.429 732.98Z"/><path fill="#334B52" transform="scale(1.33333 1.33333)" d="M711.048 758.139C714.391 762.098 715.458 759.445 717.935 761.479L718.931 762.539C721.917 762.332 719.936 766.066 726.889 762.919L727.125 763.661C725.964 765.623 725.491 766.26 724.057 768L706.079 768C706.565 765.782 707.669 764.584 709.035 762.733L707.944 760.493C709.252 757.741 708.477 760.721 711.048 758.139Z"/><path fill="#243E46" transform="scale(1.33333 1.33333)" d="M697.255 761.29C699.133 760.492 699.455 760.396 700.676 758.785C700.269 757.027 698.008 756.427 695.734 754.375C694.939 752.263 694.968 753.136 695.511 751.066C695.785 751.051 698.639 751.119 698.507 751.272C699.695 749.887 698.694 750.253 700.34 749.831C701.964 752.471 705.826 760.044 710.045 756.265L709.679 753.92L710.748 753.248L711.612 754.192L711.048 758.139C708.477 760.721 709.252 757.741 707.944 760.493L709.035 762.733C707.669 764.584 706.565 765.782 706.079 768L697.26 768L697.255 761.29Z"/><path fill="#41565B" transform="scale(1.33333 1.33333)" d="M536.053 737.297C533.861 733.464 535.972 727.639 534.397 720.154L533.473 719.612L532.333 721.519C531.575 720.795 531.528 720.375 531.199 719.388L531.083 719.031C530.306 719.016 529.53 719.013 528.754 719.022C528.929 716 529.014 719.363 531.605 714.911L531.322 713.975L531.67 713.833L531.543 714.206C532.361 713.639 532.465 713.86 533.695 713.885C533.347 709.098 534.36 709.828 534.384 706.666C534.434 700.14 531.901 689.181 534.273 683.125L534.492 682.58C532.993 679.474 535.248 679.554 533.858 676.442C532.549 676.639 532.309 676.742 530.985 676.398L531.113 675.084L533.707 673.835C533.513 665.409 531.372 658.541 537.79 650.862C539.754 648.512 541.7 647.814 544.731 647.531C546.088 649.726 543.761 654.201 546.12 657.126C547.713 657.35 548.127 657.258 549.226 658.306C548.823 659.799 549.232 659.206 547.901 660.099C546.978 658.764 546.896 658.599 545.651 657.59C545.646 657.64 544.317 659.227 544.163 659.413C538.864 660.159 540.084 657.641 537.597 656.393C537.078 659.416 537.077 660.249 537.197 663.327C538.368 663.381 538.714 663.189 539.716 662.68C540.648 664.603 540.693 663.947 540.165 665.527L537.975 666.154L538.069 666.924C540.731 669.171 543.053 667.651 545.777 669.706L545.592 671.149C540.79 675.711 543.4 673.62 543.189 678.017C544.327 679.578 543.801 679.062 545.626 679.914C547.961 678.016 546.159 675.616 548.921 673.335C554.013 674.744 550.755 678.436 553.499 681.4C556.67 678.634 553.331 675.854 556.046 672.391L556.873 672.311L557.653 675.372L558.542 675.604C562.257 672.423 560.052 665.44 565.411 662.226L565.968 662.972L565.437 663.928C563.907 666.157 563.541 670.287 562.862 673.1C563.674 675.886 564.367 679.459 566.39 681.38L567.6 681.522C568.97 679.774 568.98 678.14 568.723 676.029C568.495 674.266 568.233 672.509 567.937 670.757C571.441 674.102 571.271 688.857 568.575 692.69C564.986 692.192 564.051 692.015 560.692 690.731L560.453 689.861C562.147 689.53 566.477 692.05 566.9 685.36C565.354 682.914 552.341 682.513 549.931 683.382L549.178 685.177L547.998 685.103C547.062 682.098 546.402 682.292 543.159 682.07L541.079 679.045C538.858 679.067 537.183 681.593 536.504 683.576C537.306 689.185 543.006 688.472 541.405 691.396C540.108 693.766 540.083 693.492 540.241 696.679C538.716 695.687 537.171 694.213 535.764 694.424C534.324 704.281 536.527 725.387 536.053 737.297Z"/><path fill="#41565B" transform="scale(1.33333 1.33333)" d="M697.037 305.536C696.529 303.687 696.385 298.96 697.332 297.259C698.477 295.203 700.64 296.277 702.493 296.66C701.872 315.413 702.147 334.565 701.185 353.324C700.946 357.977 701.27 364.333 700.848 368.5C699.634 366.044 699.439 365.336 697.118 363.843L696.241 364.11C695.77 365.739 695.423 366.831 694.789 368.403C693.08 368.456 691.968 368.996 690.366 369.582C685.852 367.267 691.147 351.936 690.549 347.672C689.859 346.684 689.296 345.877 688.859 345.252C689.477 343.598 692.268 342.73 694.271 341.646C694.468 337.683 692.241 335.087 692.415 332.38C694.257 333.477 694.338 333.984 696.068 333.676C697.68 329.758 693.145 311.61 697.037 305.536Z"/><path fill="#41565B" transform="scale(1.33333 1.33333)" d="M697.037 305.536C694.245 304.034 692.379 306.498 689.53 308.115C687.142 308.171 687.999 308.483 686.273 307.033L686.513 305.721C687.485 305.386 688.025 305.277 689.016 305.059C689.635 301.906 687.358 303.323 687.661 301.573C688.145 298.773 688.586 290.146 690.606 288.483C692.396 287.01 692.288 280.111 692.458 277.476C690.279 277.601 689.378 277.774 687.233 277.219L686.724 276.028C687.481 274.11 687.037 274.353 688.457 273.518C689.908 274.325 690.275 274.635 691.878 274.927C693.737 272.114 690.534 271.333 691.846 267.262C696.935 265.922 692.235 257.573 698.775 255.695C707.563 258.344 700.749 252.383 706.027 246.637C705.224 253.545 704.471 271.205 702.906 276.828L702.833 277.828C702.651 284.979 702.303 289.309 702.493 296.66C700.64 296.277 698.477 295.203 697.332 297.259C696.385 298.96 696.529 303.687 697.037 305.536Z"/><path fill="#243E46" transform="scale(1.33333 1.33333)" d="M702.833 277.828C700.024 278.254 699.884 277.912 697.549 276.348C696.65 274.439 696.64 275.151 697.16 273.477L699.047 273.524C699.362 272.366 697.27 270.647 696.284 268.112L696.877 267.114C698.9 266.976 699.567 266.966 701.394 266.055L702.261 266.917C702.209 270.545 702.526 273.254 702.906 276.828L702.833 277.828Z"/><path fill="#334B52" transform="scale(1.33333 1.33333)" d="M574.712 717.84L575.643 715.246L576.713 714.941C577.606 716.139 579.102 718 579.515 719.481C580.508 723.032 577.081 725.768 580.831 726.722L579.179 725.827L581.347 726.294L580.377 727.324L582.091 727.793L581.947 731.048L581.276 731.526L578.409 730.013L577.369 730.48C577.111 733.055 579.154 732.046 578.694 734.3C578.126 737.078 575.405 738.888 576.365 740.614L577.626 741.301L577.524 742.535L576.877 742.968C575.71 741.284 574.746 739.754 573.234 738.349L572.368 738.763C570.507 745.265 576.626 744.266 577.075 749.394L576.36 749.957L573.898 748.795C571.366 751.217 574.746 751.045 571.022 753.991C571.266 757.695 577.525 758.251 571.285 765.394L573.173 768L565.303 768L564.246 768L558.258 768C556.785 763.928 556.106 762.236 558.806 758.706L558.257 758.172C559.73 757.705 560.412 756.446 561.675 755.411L564.384 756.625C565.198 756.569 565.455 756.404 566.26 756.13C565.866 754.069 560.639 752.548 562.002 748.991L563.732 749.177L564.604 752.591L565.367 752.474C566.601 751.213 566.821 750.922 568.312 750.027L569.238 750.908L569.605 750.253C568.602 748.155 568.755 748.728 566.248 747.462C565.115 744.991 567.152 745.859 567.658 741.829C566.897 740.05 566.641 739.921 564.964 738.919C562.235 740.04 563.925 741.463 561.605 742.7C560.228 741.284 560.153 741.022 559.585 739.119C560.96 735.913 561.753 738.01 564.094 735.159C562.837 733.261 561.871 732.802 561.78 730.421C563.205 728.432 562.577 729.11 565.153 727.882C567.804 730.799 564.575 730.393 565.018 736.122L565.924 736.783C568.752 735.895 570.061 729.294 569.942 726.315C568.466 724.972 568.022 724.664 566.951 723.016C567.045 720.927 567.101 720.677 568.057 718.819C569.5 717.743 569.687 717.454 571.399 717.212L573.207 719.261C570.025 724.653 572.823 728.431 575.791 733.087C575.953 731.047 576.101 729.005 576.235 726.963C576.472 723.43 576.986 720.438 574.712 717.84Z"/><path fill="#2C454C" transform="scale(1.33333 1.33333)" d="M565.303 768C563.82 764.156 565.742 755.169 569.688 755.673C573.176 760.332 569.459 760.252 569.977 764.896L571.285 765.394L573.173 768L565.303 768Z"/><path fill="#2C454C" transform="scale(1.33333 1.33333)" d="M558.257 758.172C559.73 757.705 560.412 756.446 561.675 755.411L564.384 756.625L563.084 757.72C563.452 760.269 564.026 761.321 562.783 763.066L560.853 763.475C560.724 765.044 560.471 764.505 561.08 765.588L563.444 766.026L564.246 768L558.258 768C556.785 763.928 556.106 762.236 558.806 758.706L558.257 758.172Z"/><path fill="#2C454C" transform="scale(1.33333 1.33333)" d="M726.891 730.693C723.274 729.796 719.734 728.86 716.731 726.565L716.287 726.221L714.443 728.271C708.17 726.156 711.492 710.436 703.4 707.196C702.369 706.776 701.33 706.373 700.286 705.985C701.185 700.346 701.754 698.739 700.534 692.949C700.24 691.556 700.711 689.395 701.797 688.131C703.732 687.649 703.205 687.461 704.574 688.189L704.67 691.304C706.933 693.204 706.829 694.681 707.151 697.569L704.8 695.995L704.368 696.449C705.629 700.559 708.178 710.957 711.28 713.102L712.419 712.888C715.534 708.099 711.369 706.072 709.495 702.48C717.111 704.426 712.898 717.143 722.836 712.909C725.49 711.779 726.798 708.944 729.89 708.815C730.948 710.095 730.976 709.725 731.084 711.088L728.964 712.796C728.844 714.016 729.257 714.792 729.676 715.951C729.054 717.118 727.431 719.724 728.195 720.574C730.464 723.095 729.985 728.03 731.072 729.979C730.31 730.758 729.557 731.547 728.815 732.346C728.14 728.602 725.041 719.573 721.995 717.273L721.865 718.715L723.197 718.158L723.548 718.591L722.136 719.692C723.706 723.614 725.057 726.869 726.891 730.693Z"/><path fill="#41565B" transform="scale(1.33333 1.33333)" d="M640.575 701.355C642.152 711.11 653.859 746.842 653.506 752.033C652.998 754.407 653.268 755.455 651.722 756.604C650.388 756.396 649.06 756.153 647.738 755.873L650.237 755.65L651.063 754.411L650.525 752.774C649.124 753.191 640.657 753.176 638.024 753.384C637.747 752.666 637.25 749.909 637.406 750.012C635.156 748.528 635.528 749.639 634.787 747.313L635.366 746.576L637.915 746.636L638.509 745.667C632.841 740.526 638.441 740.597 630.704 736.725L632.533 735.384C633.254 728.464 633.641 726.329 631.232 719.851L631.043 719.356C631.811 718.014 632.603 716.685 633.417 715.371C639.047 730.344 638.169 736.248 646.328 752.557C646.625 741.364 644.895 730.123 643.489 718.931C642.415 717.549 640.885 716.098 639.637 714.833C642.288 711.633 639.919 706.96 640.575 701.355Z"/><path fill="#334B52" transform="scale(1.33333 1.33333)" d="M727.193 565.777C731.968 585.021 737.357 599.589 743.448 617.846C739.535 618.243 738.558 616.324 735.869 617.036C734.755 618.945 735.109 618.394 735.162 620.951C735.965 621.316 736.12 621.464 736.975 621.632L736.803 622.795L734.166 624.308L733.134 623.863C731.037 619.583 734.144 616.572 734.732 610.396L734.257 610.08C733.783 611.383 733.759 611.695 732.725 612.668L731.633 612.142C730.133 610.234 730.061 607.737 729.705 605.276C728.018 604.925 726.865 604.748 725.252 604.081C727.052 602.052 728.834 600.008 730.6 597.948C730.235 595.189 725.762 595.18 726.974 589.227C727.089 588.662 726.885 581.379 726.901 580.087L728.561 579.593C729.023 576.002 721.869 571.592 727.193 565.777Z"/><path fill="#41565B" transform="scale(1.33333 1.33333)" d="M541.981 714.576C543.855 715.679 544.069 715.776 545.464 717.441L544.49 719.669C546.742 718.606 548.606 719.691 550.487 721.136L551.205 722.747C550.544 723.941 549.825 724.054 548.543 724.582L548.332 725.684C549.65 727.132 550.212 727.507 551.819 728.644C550.982 731.362 548.827 736.919 549.464 739.315C550.373 739.967 551.125 740.496 552.087 741.091L552.155 742.491C549.526 743.753 549.914 741.06 548.817 743.248C549.296 745.21 550.035 747.011 549.339 748.776C547.699 749.976 546.806 750.504 545.612 752.209L545.144 751.591L544.595 752.255C544.058 750.45 544.115 747.704 544.066 745.795C543.796 735.352 542.863 724.985 541.981 714.576Z"/><path fill="#5B6A6E" transform="scale(1.33333 1.33333)" d="M628.782 254.586C632.767 248.437 637.808 236.37 642.743 230.903C640.395 239.28 636.821 257.355 632.97 266.313C631.963 267.045 631.121 267.656 630.444 268.148C628.894 268.022 629.495 268.314 628.405 267.574C628.138 270.751 628.418 270.598 625.356 271.962C624.903 267.056 627.494 259.625 628.782 254.586Z"/><path fill="#5B6A6E" transform="scale(1.33333 1.33333)" d="M715.015 498.978C715.536 515.799 720.344 540.353 725.055 556.7C723.093 556.411 721.697 556.388 720.025 555.346C720.907 554.281 721.418 553.96 722.495 553.147C722.445 550.563 718.787 546.99 719.236 546.11C722.552 539.61 716.356 541.852 715.166 537.954L716.552 536.991C717.614 533.627 714.31 531.437 713.089 528.693C710.745 522.93 714.108 516.875 711.531 511.046C710.729 509.23 709.48 502.615 710.232 501.022C711.597 502.513 710.769 504.45 713.647 505.526C714.928 503.815 714.823 501.25 715.015 498.978Z"/><path fill="#41565B" transform="scale(1.33333 1.33333)" d="M702.941 390.971C704.148 397.535 703.002 405.255 703.788 411.038C705.359 422.597 707.389 432.67 708.232 444.488C706.425 443.041 704.559 443.309 702.249 443.321C702.616 440.753 701.389 441.124 702.906 437.516C700.797 432.925 701.361 433.823 701.522 428.639C701.08 424.537 700.131 417.848 700.513 413.736C701.325 412.487 702.004 411.443 702.549 410.605C702.199 409.077 701.617 409.141 699.98 408.044C699.989 405.552 702.984 401.269 702.98 399.85C702.971 396.107 702.504 395.161 702.941 390.971Z"/><path fill="#8E9291" transform="scale(1.33333 1.33333)" d="M701.522 428.639L702.904 429.171C704.264 432.607 704.27 433.811 702.906 437.516C700.797 432.925 701.361 433.823 701.522 428.639Z"/><path fill="#41565B" transform="scale(1.33333 1.33333)" d="M647.738 755.873C649.06 756.153 650.388 756.396 651.722 756.604C653.268 755.455 652.998 754.407 653.506 752.033C654.555 756.226 655.276 758.024 657.622 761.699C660.776 759.563 663.264 757.684 666.867 756.345C663.799 762.213 657.084 761.46 661.164 768L651.227 768C645.828 762.987 650.748 762.763 642.576 762.531C642.83 759.27 645.029 757.445 647.738 755.873Z"/><defs><linearGradient id="gradient_0" gradientUnits="userSpaceOnUse" x1="701.00494" y1="454.47559" x2="712.25879" y2="458.7261"><stop offset="0" stop-color="#2E494B"/><stop offset="1" stop-color="#415560"/></linearGradient></defs><path fill="url(#gradient_0)" transform="scale(1.33333 1.33333)" d="M702.779 450.11C702.505 448.202 701.981 445.148 702.249 443.321C704.559 443.309 706.425 443.041 708.232 444.488C708.457 447.462 710.307 468.148 709.992 469.006L707.085 471.232C706.481 467.48 706.217 464.799 704.626 461.3L703.779 457.955L702.855 457.779C703.139 454.442 703.128 453.442 702.779 450.11Z"/><path fill="#8E9291" transform="scale(1.33333 1.33333)" d="M702.779 450.11C704.868 452.339 705.23 453.631 705.086 457.033C705.035 458.465 704.881 459.89 704.626 461.3L703.779 457.955L702.855 457.779C703.139 454.442 703.128 453.442 702.779 450.11Z"/><path fill="#2C454C" transform="scale(1.33333 1.33333)" d="M620.711 275.627C621.002 277.315 620.888 278.973 622.416 279.652C625.681 281.102 629.189 282.84 627.566 287.58C622.532 287.55 623.153 283.104 620.221 288.461C618.669 288.512 617.262 288.508 615.709 288.482C618.962 284.065 617.766 282.594 618.048 277.235L620.711 275.627Z"/><defs><linearGradient id="gradient_1" gradientUnits="userSpaceOnUse" x1="556.91272" y1="762.05054" x2="553.53772" y2="761.7323"><stop offset="0" stop-color="#5A696C"/><stop offset="1" stop-color="#3A4E54"/></linearGradient></defs><path fill="url(#gradient_1)" transform="scale(1.33333 1.33333)" d="M551.216 753.658C552.545 752.912 553.067 752.413 554.553 752.653C556.754 755.647 552.939 758.16 558.257 758.172L558.806 758.706C556.106 762.236 556.785 763.928 558.258 768L551.224 768C551.57 763.294 552.279 758.164 551.216 753.658Z"/><path fill="#2C454C" transform="scale(1.33333 1.33333)" d="M635.377 768L633.223 765.328L633.365 764.096C634.802 763.18 634.278 763.208 635.631 763.425L635.961 765.494L638.141 766.036C638.502 764.115 638.618 761.895 640.289 760.954C639.988 762.761 639.59 764.119 640 765.885L641.592 766.152C643.326 765.251 642.894 765.803 643.407 764.21L641.524 764.668L641.177 763.71L642.576 762.531C650.748 762.763 645.828 762.987 651.227 768L635.377 768Z"/><path fill="#334B52" transform="scale(1.33333 1.33333)" d="M770.969 733.512C771.394 734.425 772.576 736.798 772.792 737.632C773.256 741.771 779.299 746.27 783.838 746.294L783.791 751.149C783.162 749.704 782.697 748.806 781.918 747.436L780.485 749.238L777.379 749.407L777.083 748.654L778.277 748.113L778.685 746.678L778.189 745.972L775.373 747.252C770.67 745.898 770.758 737.563 770.969 733.512Z"/><path fill="#41565B" transform="scale(1.33333 1.33333)" d="M610.08 768C608.532 765.837 608.256 765.962 608.805 762.835C609.272 760.172 609.917 756.685 611.377 754.488L612.459 754.126C611.688 759.284 609.92 763.529 612.254 768L610.08 768Z"/><path fill="#2C454C" transform="scale(1.33333 1.33333)" d="M697.255 761.29L697.26 768L694.653 768C692.832 764.444 692.048 766.575 691.662 762.2C694.115 762.616 694.977 762.128 697.255 761.29Z"/><path fill="#334B52" transform="scale(1.33333 1.33333)" d="M638.495 463.434C639.94 465.225 640.377 465.83 641.528 467.856L642.362 466.478C645.831 469.668 643.705 470.013 645.54 471.41L646.218 470.533C649.2 470.549 648.883 469.571 651.644 470.077C653.917 468.674 652.978 469.497 654.425 466.817C656.967 465.927 659.276 467.591 662.481 468.823C658.926 471.337 660.568 469.203 657.521 470.25C656.58 470.573 656.566 471.352 653.883 471.76C656.268 476.418 660.26 473.173 663.951 475.866C663.343 476.099 660.551 476.98 660.513 477.491C660.125 482.74 657.835 502.443 659.709 506.401C661.313 505.365 664.643 503.347 665.887 502.117C665.523 504.186 662.866 510.215 663.357 510.929C661.056 514.838 656.913 517.73 656.455 519.665C657.839 521.638 660.031 522.471 662.211 523.582C664.968 520.939 663.155 518.497 665.853 516.125C667.829 516.289 667.095 515.965 668.595 517.232C669.255 520.025 669.37 523.573 667.882 526.108L666.708 526.868C666.046 525.787 665.871 525.402 664.635 524.876C662.173 525.297 658.354 526.649 656.975 525.686L655.85 521.831L654.884 521.723C652.576 524.742 653.667 523.301 653.85 528.017C651.989 526.593 653.886 527.017 650.581 524.003L649.638 524.233C648.352 528.144 651.696 529.282 649.681 530.302C646.187 528.427 647.141 524.182 647.885 520.898C646.971 520.285 647.015 520.344 645.914 520.191C645.437 518.831 645.38 518.694 645.195 517.278C643.448 517.147 644.142 517.001 642.48 518.302C642.034 520.093 641.671 520.964 641.953 522.815C640.769 523.825 640.566 523.768 638.965 524.026C639.544 516.02 639.25 512.518 638.6 504.571C638.299 500.732 637.943 497.604 638.329 493.735C639.197 485.431 637.164 475.442 638.495 463.434Z"/><path fill="#243E46" transform="scale(1.33333 1.33333)" d="M638.495 463.434C639.94 465.225 640.377 465.83 641.528 467.856L642.362 466.478C645.831 469.668 643.705 470.013 645.54 471.41L646.218 470.533C649.2 470.549 648.883 469.571 651.644 470.077C652.375 475.775 652.547 483.896 649.571 488.927L647.77 489.233C647.226 492.695 650.226 493.37 650.075 496.068C649.079 496.5 648.776 496.508 647.726 496.7C645.594 500.791 651.551 506.804 640.969 503.401L638.6 504.571C638.299 500.732 637.943 497.604 638.329 493.735C639.197 485.431 637.164 475.442 638.495 463.434Z"/><path fill="#41565B" transform="scale(1.33333 1.33333)" d="M638.495 463.434C639.94 465.225 640.377 465.83 641.528 467.856L642.362 466.478C645.831 469.668 643.705 470.013 645.54 471.41L646.286 473.047C645.903 473.728 642.999 478.891 640.373 478.732C640.404 479.187 640.435 479.642 640.466 480.097L641.282 480.515L644.444 479.377C645.44 481.291 642.91 490.561 642.26 493.054C638.838 493.823 641.739 491.837 638.329 493.735C639.197 485.431 637.164 475.442 638.495 463.434Z"/><path fill="#2C454C" transform="scale(1.33333 1.33333)" d="M649.538 505.623C651.113 505.821 652.635 505.912 654.215 506.021C655.524 507.57 653.121 509.255 653.359 510.366C653.762 512.249 656.279 514.197 654.12 516.345C652.285 515.899 652.193 515.668 650.771 514.309C649.862 515.947 649.832 516.174 648.363 517.245C647.873 516.076 647.925 513.906 647.894 513.866C646.388 511.96 644.425 510.787 644.044 508.182L644.566 507.489C645.589 507.755 646.698 508.271 647.686 508.684L649.538 505.623Z"/><path fill="#2C454C" transform="scale(1.33333 1.33333)" d="M655.055 494.78L655.567 495.05C656.05 496.64 656.296 499.125 656.536 500.858L655.749 501.255C654.192 500.034 653.305 500.087 651.56 498.53C652.517 497.024 653.754 496.009 655.055 494.78Z"/><path fill="#41565B" transform="scale(1.33333 1.33333)" d="M681.071 482.132L682.849 483.445L685.455 484.199C686.063 485.324 686.337 485.963 687.221 486.921C688.931 487.318 689.134 487.276 690.756 486.593L693.561 490.446L695.097 490.185C697.418 491.978 697.184 491.228 697.684 493.602C696.886 495.854 695.959 497.515 696.596 499.704C698.723 501.236 698.027 500.411 699.075 503.098L698.58 504.43L698.196 504.307C697.069 503.956 696.723 503.737 695.583 504.058C695.71 507.164 697.75 509.149 698.471 511.225C699.225 513.398 693.848 514.726 696.858 518.115C697.64 516.831 697.905 516.187 698.49 514.794L699.524 514.671C702.521 518.346 703.013 524.271 702.809 528.955C701.302 529.969 701.866 529.914 700.365 529.783L699.185 528.3L699.145 529.031L699.586 528.955L699.609 529.009C699.01 530.192 699.08 530.667 699.173 531.924C702.02 532.88 703.243 530.305 704.964 532.557C707.329 535.652 706.377 542.083 707.248 544.555L706.773 545.531C707.695 549.286 708.709 553.018 709.812 556.724C711.511 559.314 714.223 564.247 710.226 566.122C708.835 564.599 709.216 564.397 708.948 562.045L707.979 561.967C707.138 563.101 706.317 564.25 705.518 565.413C702.164 565.577 703.18 563.506 700.026 563.905C700.677 564.048 701.603 563.272 702.383 562.816C702.953 561.804 703.559 561.008 704.237 560.073C704.393 558.023 704.755 557.803 703.85 556.233C702.476 556.538 700.987 558.556 699.945 559.709L697.24 556.455C697.361 555.182 699.172 553.592 700.146 552.546C698.404 546.006 694.036 548.656 690.047 547.367C688.052 546.722 687.591 534.813 686.563 532.115C685.501 532.688 685.565 532.638 684.351 532.715C683.592 529.4 682.021 527.022 680.342 524.092C680.95 523.01 681.5 521.962 681.884 520.78L684.484 522.29L684.936 521.215C683.728 516.943 683.326 516.437 686.419 513.092L686.918 512.557C687.733 506.607 682.448 506.324 681.456 502.256C680.958 500.209 679.796 492.418 679.501 490.059C675.808 488.053 680.991 485.579 681.071 482.132ZM699.034 545.126C697.753 537.904 701.423 539.686 696.569 530.031C694.13 528.448 691.713 526.412 688.998 525.994C690.706 533.196 694.34 539.063 697.716 545.355L699.034 545.126Z"/><path fill="#2C454C" transform="scale(1.33333 1.33333)" d="M681.071 482.132L682.849 483.445L685.455 484.199C686.063 485.324 686.337 485.963 687.221 486.921C688.931 487.318 689.134 487.276 690.756 486.593L693.561 490.446L695.097 490.185C697.418 491.978 697.184 491.228 697.684 493.602C696.886 495.854 695.959 497.515 696.596 499.704C694.931 498.309 694.211 498.321 692.257 497.53C686.18 505.607 683.181 490.626 680.559 489.455L679.501 490.059C675.808 488.053 680.991 485.579 681.071 482.132Z"/><path fill="#334B52" transform="scale(1.33333 1.33333)" d="M695.097 490.185C697.418 491.978 697.184 491.228 697.684 493.602C696.886 495.854 695.959 497.515 696.596 499.704C694.931 498.309 694.211 498.321 692.257 497.53C691.73 494.728 690.485 496.05 691.156 492.188L693.17 491.993L693.561 490.446L695.097 490.185Z"/><path fill="#8E9291" transform="scale(1.33333 1.33333)" d="M709.812 556.724L709.368 557.214C707.377 554.936 703.31 546.556 703.67 543.547L704.436 543.148C705.199 544.451 705.419 544.845 706.773 545.531C707.695 549.286 708.709 553.018 709.812 556.724Z"/><path fill="#334B52" transform="scale(1.33333 1.33333)" d="M655.65 315.43L656.617 314.91C657.963 316.161 657.542 315.813 657.975 318.02C659.398 317.926 659.581 317.805 660.85 317.292C662.52 318.651 662.135 320.229 661.89 322.302C662.871 323.826 662.388 323.594 663.743 323.897L665.323 322.787C667.984 324.078 666.711 326.758 669.165 329.226L672.381 327.575C674.716 329.113 672.816 329.822 675.122 331.08L676.266 329.057L677.574 328.697C678.503 330.012 678.52 330.245 679.005 331.809C680.009 330.738 680.306 330.499 681.674 329.974L683.594 330.649L683.622 331.475L682.138 332.499C684.929 334.133 687.301 334.265 688.012 336.315C687.269 339.024 685.516 341.226 683.091 342.631C679.8 341.553 680.261 337.799 675.983 338.296L674.932 339.567C677.94 341.166 678.219 338.792 680.489 341.177L678.253 341.326L677.564 342.396L677.902 343.333L678.295 343.213C679.314 342.909 679.764 342.663 680.794 342.911L680.943 344.144L679.888 344.888C678.231 343.994 677.81 343.61 675.961 343.659C674.333 347.662 675.308 350.155 673.096 352.929L673.294 353.725C673.437 359.556 663.481 360.411 666.149 370.765C663.89 369.585 664.591 370.115 663.512 367.229L662.68 367.033L662.623 369.901C661.39 370.594 662.05 370.464 660.561 370.167L660.711 368.279C658.995 368.257 657.135 371.966 654.978 372.105L653.611 370.385C651.305 369.957 649.335 369.502 646.98 369.473C647.329 368.967 650.105 351.179 650.951 347.901C650.806 346.515 652.239 337.864 652.533 335.929C653.857 329.168 655.347 322.296 655.65 315.43Z"/><path fill="#243E46" transform="scale(1.33333 1.33333)" d="M652.533 335.929C655.537 335.543 656.574 334.875 658.893 335.949C659.876 337.731 659.73 338.72 659.732 340.713L659.338 342.31L659.092 344.252L658.018 344.779L655.788 343.834C655.014 346.284 656.103 350.31 657.594 352.373C652.549 350.517 653.458 351.663 650.951 347.901C650.806 346.515 652.239 337.864 652.533 335.929Z"/><path fill="#41565B" transform="scale(1.33333 1.33333)" d="M673.294 353.725L672.588 355.238L671.54 354.149C670.444 356.388 670.377 357.587 667.899 356.937C666.211 355.031 666.625 355.948 666.264 353.497C667.44 351.631 666.777 352.17 668.713 351.37L670.356 353.252L671.651 353.046C672.484 351.121 672.424 351.976 671.744 349.812C670.342 348.707 670.743 348.659 669.333 348.661L668.586 346.61L668.988 346.026L670.268 346.182L672.073 348.853C674.141 348.18 671.567 347.697 673.544 344.162L675.961 343.659C674.333 347.662 675.308 350.155 673.096 352.929L673.294 353.725Z"/><path fill="#41565B" transform="scale(1.33333 1.33333)" d="M659.732 340.713C661.181 339.928 661.66 340.038 662.057 338.885L660.494 338.436L660.678 337.662C663.131 337.53 662.183 337.299 664.278 338.492C664.135 341.307 661.737 341.582 659.338 342.31L659.732 340.713Z"/><path fill="#334B52" transform="scale(1.33333 1.33333)" d="M640.488 561.937C650.158 563.804 649.527 563.894 656.7 557.046C656.931 560.276 657.055 564.69 658.012 567.675L659.837 569.179C661.451 572.485 661.583 571.668 660.2 575.67C659.97 576.334 659.736 576.997 659.499 577.658L660.79 579.626C660.058 581.881 658.262 582.473 655.991 582.409C654.588 581.669 653.412 581.015 652.059 580.188C650.423 581.233 649.644 583.353 649.49 585.28C651.811 586.909 651.559 584.265 653.198 586.419C651.891 589.33 651.489 588.919 652.149 591.37C652.882 591.958 653.468 592.488 654.281 592.957C656.567 593.642 656.184 593.131 657.039 594.69C655.153 599.379 654.037 593.893 652.025 602.562L651.623 602.675C650.912 604.81 651.097 605.41 649.55 606.72C649.068 604.482 649.033 603.939 647.482 602.184C645.508 600.896 643.254 601.514 640.878 601.827C639.101 595.855 641.881 569.769 640.488 561.937Z"/><path fill="#41565B" transform="scale(1.33333 1.33333)" d="M654.281 592.957L655.014 591.776L654.102 589.678C655.174 588.69 654.721 588.982 656.571 588.952C658.836 591.33 657.21 593.765 658.812 595.625C662.296 599.666 666.553 595.652 668.581 601.041L668.543 601.422C668.447 602.465 668.306 602.891 668.783 603.824C672.316 613.308 668.073 618.824 669.777 624.435C670.987 624.307 671.605 623.535 672.555 622.706C673.43 624.129 673.655 624.689 674.286 626.247C672.273 629.534 664.885 631.385 661.261 632.702C660.914 632.829 662.094 635.649 662.199 635.888C661.661 639.18 657.374 638.682 654.701 638.27C654.115 636.63 653.968 635.934 653.664 634.215L653.868 632.018C655.184 631.968 655.215 631.816 656.285 631.09C655.343 630.295 654.57 629.852 653.536 629.212L653.621 628.455L656.035 628.718L656.667 628.075C656.911 622.354 650.447 621.611 656.485 617.471C657.025 617.1 653.773 607.168 652.698 605.661C651.388 607.103 651.044 608.06 649.506 608.188L649.55 606.72C651.097 605.41 650.912 604.81 651.623 602.675L652.025 602.562C654.037 593.893 655.153 599.379 657.039 594.69C656.184 593.131 656.567 593.642 654.281 592.957Z"/><path fill="#2C454C" transform="scale(1.33333 1.33333)" d="M668.783 603.824C672.316 613.308 668.073 618.824 669.777 624.435C670.987 624.307 671.605 623.535 672.555 622.706C673.43 624.129 673.655 624.689 674.286 626.247C672.273 629.534 664.885 631.385 661.261 632.702C660.914 632.829 662.094 635.649 662.199 635.888C661.661 639.18 657.374 638.682 654.701 638.27C654.115 636.63 653.968 635.934 653.664 634.215C655.159 634.93 655.212 634.965 656.842 634.971C662.963 631.662 657.546 626.984 661.368 622.819C664.108 622.806 664.58 624.942 667.973 625.625L668.749 624.54C667.261 621.323 668.024 607.638 668.783 603.824Z"/><path fill="#2C454C" transform="scale(1.33333 1.33333)" d="M642.362 466.478C644.874 465.571 644.136 465.834 647.063 466.521C648.179 465.338 647.918 464.438 648.129 462.516C649.857 460.682 650.8 460.117 650.563 457.705C649.39 456.529 646.482 455.288 644.937 455.85L645.839 458.368C644.496 459.1 645.238 458.908 643.492 458.645L642.731 457.613C643.718 449.313 653.985 454.857 656.558 451.951L654.819 448.534C655.543 446.987 656.403 445.567 657.257 444.088L656.959 443.131C656.032 443.325 655.957 443.369 655.221 443.922L654.626 444.379C651.545 442.89 651.679 444.373 648.524 442.863L648.512 441.969C651.186 440.427 653.671 442.164 655.479 441.106C656 438.942 655.041 437.259 654.189 435.205C655.036 432.554 656.794 434.666 657.961 431.928C652.739 425.497 654.515 420.838 660.14 414.947C662.816 412.145 662.833 407.676 667.201 409.475C662.739 414.954 660.237 425.173 661.401 432.123L662.396 432.806C662.979 432.443 663.603 432.11 664.095 431.651C665.607 438.052 663.29 438.172 663.668 445.371C662.407 446.406 662.886 446.093 661.009 446.269L661.365 446.86C663.19 449.924 664.144 455.314 662.263 458.435L664.553 458.076L665.335 458.813C664.336 463.201 661.067 461.135 659.101 464.633C660.087 467.358 660.018 466.703 662.481 468.823C659.276 467.591 656.967 465.927 654.425 466.817C652.978 469.497 653.917 468.674 651.644 470.077C648.883 469.571 649.2 470.549 646.218 470.533L645.54 471.41C643.705 470.013 645.831 469.668 642.362 466.478Z"/><path fill="#41565B" transform="scale(1.33333 1.33333)" d="M711.013 632.127C707.072 627.728 707.388 619.703 706.681 613.705C705.812 606.553 704.3 599.494 702.161 592.614C700.334 591.45 699.925 592.043 697.234 592.481L697.224 590.99C699.364 591.112 698.723 591.357 700.458 590.474C700.558 590.134 700.665 589.796 700.779 589.461C701.342 587.828 702.116 586.363 703.713 585.601L705.112 586.557C706.313 584.019 707.05 582.648 708.544 580.273L709.203 580.778C709.818 594.073 705.909 585.953 701.439 589.454L701.598 590.715C704.055 591.72 705.741 590.981 708.761 590.666C709.785 592.157 713.022 596.166 713.458 597.234C712.057 599.849 708.696 605.334 708.446 608.025C712.743 607.997 714.449 607.877 718.719 607.113C721.293 610.715 718.96 625.417 719.289 630.371C719.374 631.646 723.351 636.203 723.575 637.699L722.36 638.898L723.418 640.646L722.99 641.192C722.444 641.897 722.259 642.238 721.834 643.041L722.143 644.232L721.18 644.929C718.677 642.679 721.967 634.957 712.307 634.998C711.31 633.665 711.33 633.751 711.013 632.127L712.266 631.027C712.501 628.669 711.39 625.523 710.721 623.153C708.719 625.028 710.41 629.705 711.013 632.127Z"/><path fill="#2C454C" transform="scale(1.33333 1.33333)" d="M708.446 608.025C712.743 607.997 714.449 607.877 718.719 607.113C721.293 610.715 718.96 625.417 719.289 630.371C719.374 631.646 723.351 636.203 723.575 637.699L722.36 638.898L723.418 640.646L722.99 641.192C722.444 641.897 722.259 642.238 721.834 643.041L722.143 644.232L721.18 644.929C718.677 642.679 721.967 634.957 712.307 634.998L714.309 633.652C716.919 628.839 708.198 613.275 708.446 608.025Z"/><path fill="#334B52" transform="scale(1.33333 1.33333)" d="M620.194 573.81C618.945 569.168 623.31 568.332 625.092 564.543C626.2 562.187 625.557 558.212 627.161 556.295L628.428 556.541C629.477 557.761 630.788 558.924 630.958 560.451L629.705 561.393C628.532 569.66 630.113 578.285 629.985 586.271C630.371 590.13 630.759 593.485 630.713 597.388C623.627 590.262 625.932 594.385 620.719 593.515L620.352 591.782L619.494 591.278C618.73 592.349 617.977 593.429 617.234 594.515L615.897 593.964C616.018 592.906 616.076 592.523 615.601 591.556L614.423 590.291C614.611 589.129 614.543 589.2 614.472 588.024L614.896 589.162L614.324 587.962C612.493 588.117 610.808 587.731 609.264 586.761C609.414 583.37 612.167 584.37 612.386 580.508C610.963 579.698 611.121 580.075 608.933 580.61L608.714 579.049C609.772 575.744 612.352 571.559 616.058 571.172C617.068 572.283 618.086 573.387 619.111 574.484L620.194 573.81Z"/><path fill="#41565B" transform="scale(1.33333 1.33333)" d="M620.194 573.81C618.945 569.168 623.31 568.332 625.092 564.543C626.2 562.187 625.557 558.212 627.161 556.295L628.428 556.541C629.477 557.761 630.788 558.924 630.958 560.451L629.705 561.393C628.532 569.66 630.113 578.285 629.985 586.271C629.331 587.371 628.458 588.474 627.683 589.51L626.808 589.474C626.451 584.291 626.903 579.406 624.472 574.793C622.171 573.315 623.252 573.649 620.194 573.81Z"/><path fill="#5B6A6E" transform="scale(1.33333 1.33333)" d="M615.601 591.556C616.235 586.5 617.142 582.938 616.089 577.909L616.949 577.501C620.754 580.851 617.43 589.598 617.234 594.515L615.897 593.964C616.018 592.906 616.076 592.523 615.601 591.556Z"/><path fill="#41565B" transform="scale(1.33333 1.33333)" d="M673.294 353.725C674.843 353.44 675.444 353.147 676.798 352.341L677.313 353.389C678.441 353.87 680.327 354.389 680.463 355.236C680.527 355.629 681.647 356.75 681.997 357.057C683.064 357.995 683.771 359.283 683.63 360.883C683.328 364.309 680.694 368.131 679.089 371.097C679.556 371.864 679.972 372.547 680.336 373.146C678.339 374.394 677.808 373.65 675.482 375.261L674.343 375.765C674.012 377.611 673.925 378.162 674.686 379.89C673.97 381.325 674.15 380.901 672.641 381.914L671.225 381.711C670.34 380.429 670.565 379.639 670.609 377.985C668.506 378.182 668.346 379.008 667.985 380.662C669.707 384.815 671.789 390.592 666.411 392.717C662.604 392.373 658.19 389.107 660.606 385.051C662.61 384.797 660.638 386.194 662.861 387.278C664.801 385.304 667.705 381.885 665.451 379.348C663.596 379.154 662.886 379.215 661.008 379.339C661.528 377.145 661.333 379.643 664.194 377.853C663.2 371.417 664.865 376.758 666.149 370.765C663.481 360.411 673.437 359.556 673.294 353.725ZM676.941 362.294L676.095 360.107L674.846 359.947C673.095 362.443 673.6 368.292 675.271 370.775C676.579 370.143 676.316 369.805 677.064 367.981C676.216 365.543 676.497 364.756 676.941 362.294Z"/><path fill="#334B52" transform="scale(1.33333 1.33333)" d="M677.313 353.389C678.441 353.87 680.327 354.389 680.463 355.236C680.527 355.629 681.647 356.75 681.997 357.057C683.064 357.995 683.771 359.283 683.63 360.883C683.328 364.309 680.694 368.131 679.089 371.097C679.556 371.864 679.972 372.547 680.336 373.146C678.339 374.394 677.808 373.65 675.482 375.261C677.893 372.157 677.808 371.66 677.064 367.981C676.216 365.543 676.497 364.756 676.941 362.294C679.29 359.797 679.183 356.085 677.313 353.389Z"/><path fill="#334B52" transform="scale(1.33333 1.33333)" d="M670.609 377.985C672.771 377.599 672.546 377.315 674.343 375.765C674.012 377.611 673.925 378.162 674.686 379.89C673.97 381.325 674.15 380.901 672.641 381.914L671.225 381.711C670.34 380.429 670.565 379.639 670.609 377.985Z"/><path fill="#41565B" transform="scale(1.33333 1.33333)" d="M683.392 470.031C686.51 464.311 681.312 449.294 680.904 442.435C684.443 441.337 686.233 438.572 688.638 440.056C689.633 442.109 689.324 442.951 688.959 445.147L687.954 443.847L686.944 443.902C685.379 452.281 684.729 469.417 691.749 475.194L692.308 474.772C692.322 472.155 692.272 470.092 692.095 467.483C694.196 467.018 695.135 466.629 697.006 465.608L698.321 465.994C698.732 467.031 698.809 467.037 698.989 468.126L698.619 469.64L699.396 470.344C697.432 474.015 698.511 479.422 697.335 480.922L694.719 480.964C692.548 483.266 694.441 486.993 695.097 490.185L693.561 490.446L690.756 486.593C689.134 487.276 688.931 487.318 687.221 486.921C686.337 485.963 686.063 485.324 685.455 484.199L682.849 483.445L681.071 482.132C680.309 481.295 679.523 477.691 679.12 476.349C679.874 472.96 680.594 472.577 683.392 470.031Z"/><path fill="#334B52" transform="scale(1.33333 1.33333)" d="M681.071 482.132C680.309 481.295 679.523 477.691 679.12 476.349C679.874 472.96 680.594 472.577 683.392 470.031C684.01 475.888 685.692 479.25 682.849 483.445L681.071 482.132Z"/><path fill="#334B52" transform="scale(1.33333 1.33333)" d="M688.541 373.935C689.646 373.857 695.063 374.181 695.983 374.54L696.51 376.042L694.653 377.526C695.776 378.376 696.905 379.217 698.04 380.051L698.206 381.246L695.479 384.426C695.623 388.165 694.331 394.936 694.026 399.362C699.327 405.472 696.637 411.697 696.279 420.103L695.805 419.979C695.747 418.037 695.807 416.395 695.282 414.522L694.5 415.466C692.692 416.252 692.395 416.234 690.412 416.215C688.963 414.917 689.204 415.523 689.078 413.931L691.627 414.107L692.302 413.334C692.068 410.529 690.475 408.938 688.672 406.862C688.96 404.704 688.901 405.356 690.685 403.425C691.939 403.596 693.151 403.702 694.41 403.818L694.952 403.187L694.201 401.918L692.282 402.298C689.673 399.865 684.1 377.478 686.155 374.102C687.202 374.324 687.532 374.29 688.541 373.935ZM693.46 391.138C693.343 388.106 693.947 383.243 693.277 381.132C691.088 384.649 690.473 387.882 693.46 391.138Z"/><path fill="#ADAEAB" fill-opacity="0.098039217" transform="scale(1.33333 1.33333)" d="M693.277 381.132C693.947 383.243 693.343 388.106 693.46 391.138C690.473 387.882 691.088 384.649 693.277 381.132Z"/><path fill="#41565B" transform="scale(1.33333 1.33333)" d="M635.365 399.828C634.369 395.905 632.869 390.63 632.335 386.636C632.273 386.172 634.191 384.038 634.009 382.158L632.465 381.211C630.44 381.446 629.734 381.592 627.687 381.217C623.755 377.311 628.309 380.589 627.667 372.528L625.986 371.93L626.31 370.795C628.626 369.997 629.662 369.774 629.847 367.194C628.198 366.71 627.715 366.539 626.199 365.735C625.736 363.379 625.702 364.359 626.85 361.771C629.119 360.545 628.084 360.684 630.746 361.364L630.302 360.555L629.496 360.538L630.728 361.23C630.696 362.347 630.764 363.302 630.82 364.412C631.305 364.917 631.703 365.48 632.3 365.697L632.3 365.671C635.452 361.488 631.917 361.165 638.015 358.172C637.82 363.228 637.794 366.342 638.166 371.381L645.751 370.179L645.321 372.003C638.226 373.289 632.686 375.384 636.838 383.985C638.174 384.551 638.93 384.331 640.371 384.184C641.575 385.19 641.516 385.128 641.92 386.657C636.629 387.892 636.74 395.24 635.365 399.828Z"/><path fill="#5B6A6E" transform="scale(1.33333 1.33333)" d="M688.434 597.957L687.641 599.154L685.808 598.967C683.825 603.064 687.553 614.191 685.893 617.237L684.928 616.995C684.552 612.458 680.595 611.746 682.18 605.238C683.922 598.089 682.1 591.544 680.079 584.549L681.612 582.516L679.668 581.245C679.384 578.414 680.892 576.839 681.461 573.693C680.609 572 680.32 571.668 679.12 570.174C680.451 563.162 680.778 558.341 681.797 551.699L680.302 550.636L680.361 550.362L681.851 549.625L680.215 548.474L681.394 547.09L681.895 547.287L682.487 548.693L685.412 548.988C683.161 551.675 682.625 551.95 682.897 555.386C683.383 561.511 681.254 565.212 686.729 569.197C688.784 570.693 689.598 579.295 689.329 582.263L689.259 582.99C687.245 580.695 687.895 580.668 685.56 580.472C682.476 583.38 684.381 592.181 685.028 596.302C686.444 597.234 686.83 597.351 688.434 597.957Z"/><path fill="#334B52" transform="scale(1.33333 1.33333)" d="M756.323 707.988L757.265 708.271C761.49 719.97 754.594 715.346 752.681 722.966C753.105 726.738 755.457 730.735 754.257 734.561C753.632 736.551 750.941 738.772 748.53 737.759C748.047 736.459 749.097 734.072 748.978 733.759C747.886 730.882 745.751 726.684 746.374 723.54C747.022 720.269 748.743 721.888 749.383 719.192L748.524 717.868C746.065 718.101 746.641 719.869 743.623 721.604C740.752 718.856 735.61 705.321 740.252 701.459C742.108 701.297 742.634 701.509 744.295 702.338C743.586 702.877 742.702 703.218 742.699 704.157C742.681 708.836 749.946 719.048 755.184 715.846C756.897 713.242 755.486 711.256 756.323 707.988Z"/><path fill="#41565B" transform="scale(1.33333 1.33333)" d="M714.947 134.546C712.321 140.198 707.799 144.963 705.271 150.172C700.665 159.66 694.52 169.017 689.847 178.272C686.987 174.336 688.921 170.735 685.229 166.942C683.606 168.41 682.93 168.939 681.091 170.124L680.381 169.515C680.312 167.882 680.57 167.579 681.241 166.027C684.569 163.013 686.416 165.705 691.044 164.338C693.975 159.54 697.577 158.955 699.757 155.554C699.13 155.728 698.507 155.889 697.896 156.114L700.307 153.243C700.517 151.136 700.695 152.005 699.184 149.896C702.466 150.309 702.271 150.627 704.786 149.438C705.948 147.743 705.937 147.44 705.993 145.368C704.33 143.624 704.49 145.434 701.21 144.585C700.99 143.146 701.804 141.959 702.473 140.611C705.444 139.035 704.444 140.924 708.675 140.608C710.796 137.947 712.326 136.756 714.947 134.546Z"/><path fill="#2C454C" transform="scale(1.33333 1.33333)" d="M610.721 724.445L612.321 724.21C615.994 726.588 617.693 724.919 619.894 728.182C620.786 732.855 619.027 740.678 616.37 744.805C614.194 742.68 615.015 741.048 612.973 738.817C611.139 738.962 610.054 738.987 608.216 738.92C606.286 736.813 607.333 734.076 606.86 733.657C604.529 731.593 604.69 733.095 603.495 729.718C604.025 727.595 604.445 727.358 606.132 725.908C608.215 725.736 609.098 725.902 610.721 724.445Z"/><path fill="#2C454C" transform="scale(1.33333 1.33333)" d="M558.736 471.844C561.674 468.312 558.587 464.122 563.552 463.962C569.75 469.925 562.21 477.059 565.638 482.717C566.969 481.764 567.406 481.364 569.06 481.316C570.234 482.457 570.9 483.361 572.372 483.987L572.251 484.934C568.146 486.674 569.405 489.012 566.649 485.711L565.336 485.956L564.766 487.173C564.363 486.296 563.829 486.06 563.037 485.573L561.802 486.08L562.542 489.995C560.77 490.89 561.296 490.602 558.95 490.301C557.102 489.268 556.864 488.038 556.006 486.04L556.287 484.152C557.475 483.764 557.852 484.009 559.043 484.379L559.362 483.514C557.5 479.82 554.606 476.147 558.084 472.573L557.87 472.201L558.736 471.844Z"/><path fill="#5B6A6E" transform="scale(1.33333 1.33333)" d="M558.736 471.844C561.674 468.312 558.587 464.122 563.552 463.962C562.765 466.622 561.503 471.95 559.903 473.909C558.951 473.3 559.194 473.213 558.736 471.844Z"/><path fill="#334B52" transform="scale(1.33333 1.33333)" d="M547.535 645.258C540.702 646.957 539.317 642.698 531.131 647.276C531.538 646.271 532.154 645.72 532.874 644.861C533.296 641.789 531.675 643.925 533.006 639.363L534.635 639.114C536.321 635.554 534.622 633.155 536.322 630.831L537.193 630.815L538.436 632.937C540.937 632.07 541.333 631.954 544.022 631.775L544.491 630.838C546.59 633.132 544.268 632.943 545.9 636.067C546.863 635.17 546.772 634.981 547.045 633.7C549.563 635.887 549.117 641.002 548.742 644.104L547.535 645.258Z"/><path fill="#2C454C" transform="scale(1.33333 1.33333)" d="M544.022 631.775L544.491 630.838C546.59 633.132 544.268 632.943 545.9 636.067C546.863 635.17 546.772 634.981 547.045 633.7C549.563 635.887 549.117 641.002 548.742 644.104L547.535 645.258C547.654 642.765 548.115 642.397 546.898 640.67C545.788 641.105 544.69 641.569 543.604 642.06L542.437 641.121C540.066 634.009 544.424 636.154 544.022 631.775Z"/><path fill="#2C454C" transform="scale(1.33333 1.33333)" d="M598.846 698.805L601.231 695.305L602.012 695.468C600.934 700.028 605.207 706.446 604.58 712.774C604.798 715.323 605.207 716.768 605.901 719.198L605.303 720.191C600.667 720.434 602.238 721.178 600.07 721.567C596.33 718.786 594.789 714.839 595.231 710.22C596.819 708.022 595.648 710.43 598.207 709.596C598.144 705.07 598.031 703.252 598.846 698.805Z"/><path fill="#ADAEAB" transform="scale(1.33333 1.33333)" d="M598.846 698.805L601.231 695.305L602.012 695.468C600.934 700.028 605.207 706.446 604.58 712.774L603.718 713.104C601.143 711.449 601.955 708.077 600.97 705.091C600.262 702.944 599.637 700.936 598.846 698.805Z"/><path fill="#41565B" transform="scale(1.33333 1.33333)" d="M599.437 574.672L600.551 575.01C600.571 575.288 600.59 575.567 600.609 575.846C600.081 579.701 599.866 583.291 600.044 587.156C599.041 588.224 598.204 589.116 597.531 589.832C597.547 591.319 597.696 590.998 598.858 592.481L598.564 593.397C596.702 594.437 595.657 594.234 593.497 593.737C592.428 595.815 593.449 606.565 591.241 610.841L590.281 610.753L588.515 607.335C590.866 601.555 586.799 588.82 589.846 585.472C591.961 586.12 593.114 588.422 595.229 590.401L596.358 589.66L596.147 587.876C597.031 587.796 597.583 587.691 598.455 587.522C599.225 585.738 599.126 586.641 598.729 584.715C596.985 583.194 595.154 582.047 595.75 579.55C597.643 579.548 597.929 579.645 599.61 578.901L599.883 577.954L598.312 576.315L598.435 575.32L599.437 574.672Z"/><path fill="#ADAEAB" transform="scale(1.33333 1.33333)" d="M551.603 566.933C553.12 569.777 553.637 570.66 553.142 573.777C552.395 578.485 552.631 591.877 549.264 595.231C548.046 594.362 547.677 594.073 546.325 593.464C543.601 594.199 543.736 595.478 541.618 596.63C542.266 594.11 543.91 592.148 544.466 589.565C546.261 581.216 550.838 575.48 551.603 566.933Z"/><path fill="#41565B" transform="scale(1.33333 1.33333)" d="M618.031 427.043L619.507 426.882C619.5 428.035 619.267 429.302 619.1 430.455L620.132 430.69C621.214 430.026 622.706 428.002 623.651 426.912C625.03 429.048 625.776 433.889 623.762 435.768L622.01 434.414L621.122 434.529L620.705 435.877C621.432 438.879 621.793 436.02 623.742 437.808C621.97 439.302 620.805 439.777 620.094 441.702C621.547 442.542 621.785 442.582 622.725 443.914C622.107 446.061 621.826 445.787 619.974 447.413L618.776 447.244L618.485 445.337C616.096 444.934 616.236 447.393 613.33 447.559C612.728 445.841 612.94 446.309 613.389 444.24C615.782 442.221 616.145 442.801 619.695 442.116L619.47 441.039C617.777 440.307 616.44 440.014 615.595 438.479L616.567 437.272L616.309 436.122C614.96 435.906 614.982 435.974 613.859 435.069C613.37 431.588 616.246 429.808 617.804 427.399L618.031 427.043Z"/><path fill="#334B52" transform="scale(1.33333 1.33333)" d="M597.749 657.62L600.929 659.245C603.632 658.888 602.673 659.352 604.605 657.584L605.749 657.83C606.043 658.901 606.064 659.255 606.593 660.244C605.319 662.414 604.705 662.694 602.671 664.014C600.846 669.563 606.698 669.927 602.236 674.293C601.223 675.284 604.142 679.41 600.058 681.923C598.981 680.441 598.718 679.219 598.155 677.485L597.248 677.358C595.821 679.807 597.02 680.461 595.854 683.181L595.015 683.541C592.948 679.808 597.564 674.937 596.847 670.865C595.771 670.001 596.403 670.247 594.81 670.373C596.239 668.098 599.031 667.181 600.9 664.144C599.87 661.96 598.82 659.785 597.749 657.62Z"/><path fill="#2C454C" transform="scale(1.33333 1.33333)" d="M636.443 439.426C641.923 434.29 642.078 417.737 642.814 410.055C643.567 415.421 643.418 419.639 643.037 425.036C642.998 425.591 645.205 426.359 645.707 426.522L645.499 427.319L643.415 427.67L646.762 428.679C647.37 430.104 647.175 429.674 646.826 431.48C645.525 431.339 645.256 431.037 644.191 430.313L645.025 432.63L646.054 433.019C647.492 431.639 647.904 431.005 649.036 429.352C649.922 430.778 649.599 430.888 649.63 432.879L648.472 434.539C649.281 435.702 649.457 435.911 650.451 436.923C648.373 438.056 647.423 437.326 645.487 436.04C641.75 439.017 648.945 439.671 636.443 439.426Z"/><path fill="#2C454C" transform="scale(1.33333 1.33333)" d="M597.749 657.62L598.85 655.759C598.818 655.474 598.789 655.188 598.765 654.901C598.529 652.059 598.373 647.311 600.209 645.153C602.316 645.45 602.779 646.443 604.64 648.079C606.372 649.782 608.241 651.446 609.557 653.474C608.766 653.792 608.084 654.08 607.31 654.437L607.068 656.698L605.749 657.83L604.605 657.584C602.673 659.352 603.632 658.888 600.929 659.245L597.749 657.62Z"/><path fill="#41565B" transform="scale(1.33333 1.33333)" d="M607.068 656.698C601.359 653.554 604.813 653.955 603.23 648.849L604.64 648.079C606.372 649.782 608.241 651.446 609.557 653.474C608.766 653.792 608.084 654.08 607.31 654.437L607.068 656.698Z"/><path fill="#334B52" transform="scale(1.33333 1.33333)" d="M610.365 458.184L612.07 457.745L612.655 455.702C615.117 457.205 614.756 459.243 617.799 461.791C618.257 464.808 613.397 469.901 611.906 472.936L611.053 472.204L611.496 470.539C610.478 468.038 606.423 458.885 607.693 457.211C608.749 458.043 609.091 458.071 610.365 458.184Z"/><path fill="#2C454C" transform="scale(1.33333 1.33333)" d="M714.263 682.717C721.209 683.545 722.638 690.298 717.94 694.484L716.741 694.402C715.714 692.395 716.071 692.483 716.199 690.074C712.682 687.64 713.29 690.559 707.511 690.443L707.075 689.649C710.803 685.439 708.693 685.876 714.263 682.717Z"/><path fill="#334B52" transform="scale(1.33333 1.33333)" d="M578.21 547.163C577.06 549.199 578.945 547.266 578.02 549.991L577.028 550.163C574.769 546.954 575.64 544.471 573.547 542.853L571.818 544.306C569.558 544.926 568.151 545.201 567.161 542.923L568.021 541.508C573.65 541.587 579.089 536.792 581.666 537.981C582.378 540.322 581.777 540.604 580.815 543.421L578.21 547.163Z"/><path fill="#41565B" transform="scale(1.33333 1.33333)" d="M592.315 378.798C593.301 379.983 593.971 380.33 595.258 381.206L595.12 382.314L593.426 383.478L595.881 384.697C595.04 386.091 594.188 387.478 593.324 388.858L593.799 389.677C596.164 389.465 598.119 386.195 600.948 385.575C601.315 387.283 601.473 387.9 601.521 389.63L598.225 389.463C596.081 390.858 596.651 391.161 595.679 394.391C593.662 395.232 594.372 395.002 591.878 394.513C589.267 392.096 592.308 390.84 591.364 388.464C589.875 384.719 590.515 382.333 592.315 378.798Z"/><path fill="#5B6A6E" transform="scale(1.33333 1.33333)" d="M588.38 358.713C589.201 358.716 590.104 358.787 590.931 358.831L591 359.06C590.3 361.612 589.872 362.25 590.414 364.935C591.318 365.491 591.797 365.729 592.733 366.178L593.141 368.577C592.109 368.139 591.258 367.496 590.309 366.874L588.735 367.514C586.218 370.61 586.254 373.734 586.297 377.584C586.615 379.281 586.607 379.592 586.444 381.314C585.641 382.369 584.929 383.618 583.725 383.983C582.637 381.084 585.03 364.83 587.867 361.945C588.424 361.378 588.326 359.559 588.38 358.713Z"/><path fill="#2C454C" transform="scale(1.33333 1.33333)" d="M664.748 544.2L662.812 544.238C661.264 545.349 660.871 545.886 659.088 545.83C656.516 543.637 655.111 540.408 656.738 537.279C659.083 536.757 660.61 537.616 662.847 538.863C665.316 540.01 667.584 543.275 668.257 545.895L667.373 546.745C665.248 545.539 665.912 546.227 664.748 544.2Z"/><path fill="#41565B" transform="scale(1.33333 1.33333)" d="M662.847 538.863C665.316 540.01 667.584 543.275 668.257 545.895L667.373 546.745C665.248 545.539 665.912 546.227 664.748 544.2C663.655 542.042 663.197 541.337 662.847 538.863Z"/><path fill="#41565B" transform="scale(1.33333 1.33333)" d="M638.524 283.288C640.45 282.927 640.312 282.743 641.075 280.943L642.151 281.18L641.859 281.045C638.863 285.912 644.083 285.36 636.834 291.382C635.91 292.28 634.792 292.462 633.588 292.784C632.652 294.308 632.872 294.835 632.997 296.73L631.019 294.035L631.77 292.608C631.646 290.563 631.317 289.341 632.411 287.673L633.526 289.174C637.194 284.114 633.42 287.32 635.401 282.298C637.181 282.037 636.578 282.084 638.524 283.288Z"/><path fill="#2C454C" transform="scale(1.33333 1.33333)" d="M638.524 283.288C640.45 282.927 640.312 282.743 641.075 280.943L642.151 281.18L641.859 281.045C638.863 285.912 644.083 285.36 636.834 291.382C637.007 287.352 638.241 286.803 638.524 283.288Z"/><path fill="#41565B" transform="scale(1.33333 1.33333)" d="M662.154 211.092L662.879 211.076C665.573 212.682 662.998 213.171 665.006 215.737L666.252 215.691L667.575 212.483C669.385 211.445 668.598 211.68 670.992 212.036L671.534 212.93C670.005 214.76 669.005 215.909 667.743 217.949C668.377 220.258 668.146 220.697 667.368 222.912L667.714 223.334L667.152 223.726C661.158 220.466 665.531 221.602 663.882 216.785C661.797 216.91 662.469 218.975 659.987 220.055L659.754 218.926C661.303 215.699 659.442 215.596 662.154 211.092Z"/><path fill="#2C454C" transform="scale(1.33333 1.33333)" d="M722.57 650.522L724.236 651.084C726.277 654.298 727.952 655.525 730.753 657.987C730.561 659.562 729.29 661.777 729.281 661.744C729.729 663.344 730.608 664.833 730.554 666.784L729.818 667.159L728.128 666.001C725.853 664.03 723.061 656.256 722.666 652.719L723.29 655.289C723.885 653.353 723.294 652.464 722.57 650.522Z"/><path fill="#2C454C" transform="scale(1.33333 1.33333)" d="M668.51 448.451C677.12 449.943 670.894 453.409 671.2 456.638C672.527 456.158 672.594 456.124 673.985 455.965L675.054 456.985L674.699 458.6L673.4 459.409L672.482 458.47L669.876 458.264L669.083 458.975L669.148 461.62L668.052 461.902C666.538 460.267 666.938 461.079 666.613 458.788C669.281 455.26 666.173 453.143 668.51 448.451Z"/><path fill="#ADAEAB" transform="scale(1.33333 1.33333)" d="M539.851 613.936C538.734 609.034 537.88 601.707 538.754 596.741C539.72 591.248 538.687 577.561 542.205 574.105C541.755 577.654 539.879 597.507 540.578 599.778C540.951 605.193 540.537 608.638 539.851 613.936Z"/><path fill="#41565B" transform="scale(1.33333 1.33333)" d="M715.354 133.287C716.026 127.298 723.312 125.96 724.915 120.656C725.005 120.359 725.934 118.89 726.165 118.499L728.498 120.113C729.011 119.37 723.056 127.143 724.799 125.999C720.582 128.767 717.805 134.639 714.519 138.772L715.354 133.287Z"/><path fill="#41565B" transform="scale(1.33333 1.33333)" d="M539.829 620.236C542.372 621.78 542.394 620.367 544.755 621.899C544.574 623.005 544.414 624.115 544.275 625.227L545.737 626.004L545.736 627.074C544.339 627.015 543.831 626.84 542.516 626.494L541.794 627.582C540.002 628.987 538.124 629.531 535.942 629.271L535.856 628.98L537.423 629.595C536.328 629.791 536.861 629.808 535.832 629.375C535.621 626.872 536.216 626.785 537.579 624.15L537.691 624.591L538.222 624.624C540.086 622.521 539.57 623.368 539.829 620.236Z"/><path fill="#334B52" transform="scale(1.33333 1.33333)" d="M662.415 394.058C665.119 394.673 667.383 395.814 669.754 396.934C670.457 397.267 673.335 395.573 675.205 396.923L673.32 399.954L671.237 400.786C668.251 398.279 668 401.193 664.698 400.273C663.427 398.427 662.996 396.229 662.415 394.058Z"/><path fill="#2C454C" transform="scale(1.33333 1.33333)" d="M544.248 700.674C549.456 701.182 545.706 702.297 549.956 703.484C550.353 702.487 550.4 702.068 551.202 701.368C553.267 703.838 550.773 703.777 553.255 707.293L552.944 708.025C552.589 708.17 552.233 708.314 551.878 708.459C551.732 708.356 549.617 706.854 549.616 706.854C547.588 706.766 546.693 706.931 544.74 706.111C543.896 704.209 544.164 702.777 544.248 700.674Z"/><path fill="#334B52" transform="scale(1.33333 1.33333)" d="M692.478 215.666C697.717 217.977 696.312 225.284 692.948 229.013L690.81 228.116C689.382 224.889 693.102 222.956 692.478 215.666Z"/><path fill="#2C454C" transform="scale(1.33333 1.33333)" d="M592.496 542.92C595.491 543.595 595.884 542.292 598.431 544.749C599.128 548.385 597.773 548.777 597.482 552.338L596.117 553.519L595.318 553.315C594.413 551.062 594.687 548.578 594.714 546.083C593.434 544.816 592.983 544.578 592.496 542.92Z"/><path fill="#334B52" transform="scale(1.33333 1.33333)" d="M591.567 396.308C598.33 397.794 593.105 402.245 594.096 407.059L593.042 407.214L593.198 409.994L592.106 411.003L590.995 410.484C590.64 405.824 592.032 402.081 591.624 396.95L591.567 396.308Z"/><path fill="#334B52" transform="scale(1.33333 1.33333)" d="M568.817 580.668C571.361 582.151 572.299 581.155 575.098 581.793C576.346 583.871 576.442 584.137 576.199 586.541L575.434 586.824L574.438 585.932C569.927 586.025 572.134 584.227 567.532 586.239C566.509 584.8 567.429 585.585 568.843 583.551C568.832 582.359 568.823 581.398 568.817 580.668Z"/><path fill="#334B52" transform="scale(1.33333 1.33333)" d="M660.33 666.615L662 667.751C664.124 674.403 666.33 675.427 665.933 683.057L664.679 683.072C663.522 677.928 660.425 671.064 660.33 666.615Z"/><path fill="#41565B" transform="scale(1.33333 1.33333)" d="M669.732 246.918C672.323 245.893 673.122 245.895 675.926 245.659C677.88 247.894 678.125 250.44 675.565 252.34C673.98 251.725 673.471 251.4 672.511 249.444C671.448 247.54 671.961 248.204 669.732 246.918Z"/><path fill="#334B52" transform="scale(1.33333 1.33333)" d="M552.207 687.252L553.095 687.353C552.228 689.819 553.482 687.243 553.823 691.054L551.406 693.191C549.449 691.474 548.327 692.412 547.753 689.03C549.573 687.302 549.359 687.787 552.207 687.252Z"/><path fill="#2C454C" transform="scale(1.33333 1.33333)" d="M656.765 302.52C659.559 302.957 664.337 302.413 666.42 304.045L665.711 305.184C664.409 305.221 663.831 305.168 662.689 305.924C661.916 307.081 661.987 307.015 660.801 307.74L659.342 306.989L660.693 306.749C659.109 306.113 657.644 305.604 656.337 304.522L656.765 302.52Z"/><path fill="#41565B" transform="scale(1.33333 1.33333)" d="M623.326 289.158C625.176 290.29 625.818 290.656 627.436 292.171L627.063 292.956C625.93 292.687 625.914 292.763 624.743 292.927L625.218 294.208C625.435 296.286 625.714 297.219 624.965 299.172L624.109 298.844C622.306 295.024 621.679 293.126 623.326 289.158Z"/><path fill="#41565B" transform="scale(1.33333 1.33333)" d="M631.019 294.035L632.997 296.73C633.169 297.247 632.974 298.292 632.91 298.911C634.324 301.469 634.422 301.169 633.39 303.713L632.187 303.674L630.795 301.986C630.458 299.319 629.958 296.495 631.019 294.035Z"/><path fill="#2C454C" transform="scale(1.33333 1.33333)" d="M618.196 386.995C619.266 387.729 618.897 387.243 619.274 388.546C618.299 391.252 617.086 393.826 614.854 395.842C614.104 396.52 612.618 395.974 611.302 395.759L611.477 394.293C612.32 394.001 612.763 394.177 613.649 394.337L614.008 394.403C615.145 391.594 616.3 389.359 618.196 386.995Z"/><path fill="#334B52" transform="scale(1.33333 1.33333)" d="M568.145 610.761C570.642 611.351 570.847 611.765 571.252 614.014C570.378 616.611 570.156 616.875 568.291 618.813L567.477 617.997C567.63 616.775 566.927 614.06 566.767 612.335L568.145 610.761Z"/><path fill="#2C454C" transform="scale(1.33333 1.33333)" d="M580.815 543.421L582.758 543.21C584.351 541.178 583.652 541.426 585.656 541.038C586.676 541.599 587.676 542.135 588.674 542.735C585.024 544.83 580.865 545.366 578.21 547.163L580.815 543.421Z"/><path fill="#5B6A6E" transform="scale(1.33333 1.33333)" d="M658.667 649.446L659.968 650.396C661.132 653.85 661.919 657.852 661.397 661.487C659.612 657.858 657.593 653.459 658.667 649.446Z"/><path fill="#334B52" transform="scale(1.33333 1.33333)" d="M584.145 620.062C586.209 621.076 587.341 622.368 587.381 624.568C586.597 625.136 586.541 625.202 586.072 626.016L585.703 626.671L585.876 627.849L585.166 627.515C583.755 624.746 583.658 623.02 584.145 620.062Z"/><path fill="#E6E1DF" fill-opacity="0.015686275" transform="scale(1.33333 1.33333)" d="M706.657 662.163C710.049 664.651 711.408 669.231 712.616 673.048C709.166 671.26 707.274 665.775 706.657 662.163Z"/><path fill="#334B52" transform="scale(1.33333 1.33333)" d="M620.24 314.917L624.601 316.24C626.32 318.242 625.822 317.285 626.161 320.337C621.488 318.714 622.07 319.292 620.24 314.917Z"/><path fill="#334B52" transform="scale(1.33333 1.33333)" d="M572.847 426.074C572.995 427.572 573.368 429.268 573.541 430.947C572.473 432.686 572.75 432.156 570.489 433.139L569.436 431.758C569.415 428.488 571.06 431.207 572.847 426.074Z"/><path fill="#41565B" transform="scale(1.33333 1.33333)" d="M656.169 401.268L656.961 401.584C658.99 404.045 655.057 404.918 656.494 409.358L654.45 408.217L654.243 406.982C655.242 404.718 655.533 403.63 656.169 401.268Z"/><path fill="#E6E1DF" fill-opacity="0.015686275" transform="scale(1.33333 1.33333)" d="M711.013 632.127C710.41 629.705 708.719 625.028 710.721 623.153C711.39 625.523 712.501 628.669 712.266 631.027L711.013 632.127Z"/><path fill="#2C454C" transform="scale(1.33333 1.33333)" d="M561.928 606.336C563.384 607.084 564.372 607.245 564.957 608.479C563.697 610.579 563.627 611.092 563.313 613.482L563.231 614.127C561.492 613.291 562.346 608.855 561.928 606.336Z"/><path fill="#334B52" transform="scale(1.33333 1.33333)" d="M674.526 435.2C675.815 436.231 674.754 438.588 674.408 440.031L673.248 440.707C671.511 439.63 671.8 440.162 671.16 438.569C672.717 437.408 673.007 437.113 674.229 435.58L674.526 435.2Z"/><path fill="#2C454C" transform="scale(1.33333 1.33333)" d="M607.468 309.052L607.966 310.07C607.08 312.295 604.21 314.758 602.388 316.555C601.776 315.962 602.026 316.331 601.955 315.211L607.468 309.052Z"/><path fill="#334B52" transform="scale(1.33333 1.33333)" d="M567.331 497.953C569.971 499.528 568.376 498.534 571.794 498.762L571.44 499.542C569.54 500.945 569.812 501.169 567.593 501.47C566.757 499.655 567.008 500.249 567.331 497.953Z"/><path fill="#334B52" transform="scale(1.33333 1.33333)" d="M671.689 464.286C672.846 464.009 671.77 465.103 675.453 464.62L676.048 465.685C675.316 466.495 674.905 466.586 673.918 467.057C671.549 466.546 672.098 467.042 671.017 465.475L671.689 464.286Z"/><path fill="#41565B" transform="scale(1.33333 1.33333)" d="M697.748 444.97L698.438 445.345C698.669 447.289 697.698 448.05 696.501 450.095C695.521 449.672 695.885 449.877 695.144 448.998C695.997 447.646 696.865 446.303 697.748 444.97Z"/><defs><linearGradient id="gradient_2" gradientUnits="userSpaceOnUse" x1="715.17792" y1="489.61646" x2="707.54944" y2="488.60571"><stop offset="0" stop-color="#38484E"/><stop offset="1" stop-color="#49636B"/></linearGradient></defs><path fill="url(#gradient_2)" transform="scale(1.33333 1.33333)" d="M708.208 475.125C709.032 474.475 710.564 474.06 711.62 473.703C712.822 482.118 713.954 490.544 715.015 498.978C714.823 501.25 714.928 503.815 713.647 505.526C710.769 504.45 711.597 502.513 710.232 501.022C712.012 494.399 709.607 481.769 708.208 475.125Z"/><path fill="#5B6A6E" transform="scale(1.33333 1.33333)" d="M707.085 471.232L709.992 469.006L711.62 473.703C710.564 474.06 709.032 474.475 708.208 475.125L707.085 471.232Z"/></svg>