<?xml version="1.0" encoding="utf-8" ?><svg xmlns="http://www.w3.org/2000/svg" xmlns:xlink="http://www.w3.org/1999/xlink" width="1792" height="1024" viewBox="0 0 1792 1024"><path fill="#EDB03E" transform="scale(1.33333 1.33333)" d="M749.021 147.153C745.082 143.97 736.407 137.674 739.331 131.959C742.342 129.956 747.742 131.012 751.113 131.946C768.389 136.732 777.333 131.779 783.961 151.33C793.25 152.267 798.435 154.324 806.412 158.789C809.657 156.408 812.721 153.555 817.102 155.355C823.191 157.857 834.576 163.526 839.61 166.801C843.674 169.445 837.274 202.203 835.896 206.795C836.535 212.895 838.801 211.694 842.551 215.766C837.77 214.282 835.564 213.242 831.091 211.089C834.808 217.44 836.374 219.535 841.915 224.843C838.645 223.544 834.667 222.186 832.231 219.619L832.407 222.593C833.985 225.139 835.398 227.602 837.088 230.128C838.62 232.418 842.309 234.143 842.359 235.802C840.246 236.345 836.808 235.153 834.518 234.56L834.294 235.207C835.865 238.269 839.463 244.155 841.977 246.508L849.406 249.646C850.771 250.31 852.656 251.332 854.076 251.66C858.231 253.685 875.914 261.752 878.094 264.52L878.313 265.275C869.763 268.105 871.11 278.766 868.002 281.706C865.823 280.982 860.601 277.919 856.491 276.449C858.994 280.189 860.175 281.637 861.242 286.112L861.024 285.925L866.004 296.942L865.751 297.594L862.524 295.987C865.915 305.573 869.998 315.525 871.552 325.679L878.305 317.03C877.084 321.76 873.164 333.709 874.635 337.771L875.697 338.463C879.653 337.503 885.1 329.964 887.433 326.554C885.691 331.056 880.886 339.94 881.852 343.836C882.892 345.073 883.015 345.086 884.49 345.828C887.185 344.848 888.151 343.919 890.387 342.145L894.295 337.869C892.541 344.51 891.022 350.515 887.766 356.624C891.035 353.168 894.311 349.843 897.204 346.064C892.517 356.661 890.525 360.945 882.311 369.324L892.718 364.53C888.353 371.205 885.39 373.609 878.616 377.874C879.865 388.438 880.101 401.666 880.803 412.591C881.522 423.788 883.397 439.522 883.235 450.519C897.191 461.259 901.458 472.787 903.849 490.173C906.092 506.48 905.631 530.778 895.708 544.847C892.646 549.19 885.392 553.169 880.707 555.824C877.898 556.949 861.199 562.882 859.745 563.656C857.304 565.562 858.467 565.075 855.312 565.423L854.84 565.473C841.807 566.948 835.264 569.903 821.026 568.921L815.724 569.097C803.122 569.469 795.629 567.705 783.669 565.685L783.359 565.944C781.53 565.696 781.2 565.336 779.584 564.324C777.413 563.301 770.114 561.328 767.206 560.298C760.893 558.061 753.032 554.539 747.202 551.25C745.638 549.005 740.008 545.291 738.28 542.759C727.154 526.458 727.408 497.239 729.483 479.062C724.764 463.814 724.949 423.215 724.346 405.551C723.909 382.454 722.654 359.457 723.39 336.357C724.147 312.607 730.776 300.926 750.974 288.8C741.424 288.777 736.309 288.77 728.643 283.135L730.907 284.036C728.993 281.83 725.874 280.678 723.194 279.434C720.871 280.883 716.84 283.935 714.495 283.805L713.521 283.176C714.034 276.39 713.171 270.971 707.045 267.31C708.119 264.26 708.764 263.915 711.194 261.81C708.275 255.405 701.809 233.691 700.234 231.936L701.283 231.619C710.005 239.148 716.122 232.732 721.496 225.658C726.841 233.396 730.443 243.076 737.992 248.495C741.772 246.763 745.721 244.658 749.545 242.841C751.557 241.224 752.881 240.583 752.585 237.863C750.997 238.218 750.799 238.335 749.229 238.081C749.541 236.006 755.507 228.072 757.095 226.055C758.953 221.487 759.111 220.032 758.17 215.194C746.21 208.039 743.722 208.766 735.489 196.531C734.307 191.551 733.764 189.793 734.294 184.65C734.79 181.612 734.785 178.313 736.733 176.21C738.851 175.1 740.547 175.566 742.899 175.885C753.544 175.873 755.584 176.379 760.27 165.919C755.634 159.737 752.435 154.036 749.021 147.153Z"/><path fill="#0E6D77" transform="scale(1.33333 1.33333)" d="M755.099 294.294C755.437 297.002 755.201 299.077 756.746 301.338L757.459 300.423C759.149 304.128 762.089 311.172 764.619 313.859L763.864 315.655C759.715 316.733 757.818 317.128 753.949 319.163L754.324 319.627C757.118 319.274 759.37 318.651 762.097 317.952C755.636 320.769 754.391 321.079 749.39 326.151L749.93 326.622C752.306 325.326 753.709 324.284 755.896 322.681C750.131 329.171 748.57 331.072 745.759 339.426C748.746 336.582 750.109 335.244 752.632 331.926C749.121 342.536 748.355 345.951 753.635 357.011C756.831 363.706 760.848 368.058 765.897 373.356L758.379 374.287C757.94 376.542 758.21 377.28 759.205 379.495C761.148 383.822 759.637 385.219 759.53 388.368L761.844 388.639C753.038 403.657 746.398 432.153 770.005 436.751C785.128 439.696 799.379 439.026 814.583 439.733C816.529 439.732 818.936 439.794 820.838 439.71C830.249 437.057 848.491 439.43 859.049 435.923C869.085 432.589 870.187 431.12 875.391 422.622C875.607 427.591 876.171 440.513 876.979 445.157L876.737 447.053L883.235 450.519C897.191 461.259 901.458 472.787 903.849 490.173C906.092 506.48 905.631 530.778 895.708 544.847C892.646 549.19 885.392 553.169 880.707 555.824C877.898 556.949 861.199 562.882 859.745 563.656C857.304 565.562 858.467 565.075 855.312 565.423L854.84 565.473C841.807 566.948 835.264 569.903 821.026 568.921L815.724 569.097C803.122 569.469 795.629 567.705 783.669 565.685L783.359 565.944C781.53 565.696 781.2 565.336 779.584 564.324C777.413 563.301 770.114 561.328 767.206 560.298C760.893 558.061 753.032 554.539 747.202 551.25C745.638 549.005 740.008 545.291 738.28 542.759C727.154 526.458 727.408 497.239 729.483 479.062C730.96 473.98 732.323 470.374 734.277 465.442C732.124 458.609 731.954 436.176 731.515 427.996C729.888 397.75 728.733 367.455 729.168 337.162C729.474 315.849 735.643 303.979 755.099 294.294Z"/><path fill="#0E6D77" transform="scale(1.33333 1.33333)" d="M875.391 422.622C875.607 427.591 876.171 440.513 876.979 445.157L876.737 447.053L883.235 450.519C897.191 461.259 901.458 472.787 903.849 490.173C906.092 506.48 905.631 530.778 895.708 544.847C892.646 549.19 885.392 553.169 880.707 555.824C877.898 556.949 861.199 562.882 859.745 563.656C857.304 565.562 858.467 565.075 855.312 565.423L854.84 565.473C841.807 566.948 835.264 569.903 821.026 568.921L815.724 569.097C814.413 564.156 813.922 517.135 815.166 510.859C810.171 509.95 806.073 509.725 800.629 508.558C798.356 507.832 797.016 506.992 795.935 504.87C785.064 483.518 788.242 468.055 814.481 470.484C817.74 470.77 818.564 470.715 821.82 470.299C822.642 466.067 822.09 443.735 820.838 439.71C830.249 437.057 848.491 439.43 859.049 435.923C869.085 432.589 870.187 431.12 875.391 422.622Z"/><path fill="#0E6D77" transform="scale(1.33333 1.33333)" d="M876.737 447.053L883.235 450.519C897.191 461.259 901.458 472.787 903.849 490.173C906.092 506.48 905.631 530.778 895.708 544.847C892.646 549.19 885.392 553.169 880.707 555.824C877.898 556.949 861.199 562.882 859.745 563.656C859.486 560.228 862.793 543.782 863.352 539.25C867.1 508.85 874.556 477.489 876.737 447.053Z"/><path fill="#D73732" transform="scale(1.33333 1.33333)" d="M821.82 470.299C850.359 466.547 850.351 487.137 840.037 507.136C838.994 509.158 836.129 509.276 834.13 509.38C829.648 509.884 825.368 510.361 820.909 511.076C819.22 511.243 816.909 510.984 815.166 510.859C810.171 509.95 806.073 509.725 800.629 508.558C798.356 507.832 797.016 506.992 795.935 504.87C785.064 483.518 788.242 468.055 814.481 470.484C817.74 470.77 818.564 470.715 821.82 470.299Z"/><path fill="#153135" transform="scale(1.33333 1.33333)" d="M821.82 470.299C850.359 466.547 850.351 487.137 840.037 507.136C838.994 509.158 836.129 509.276 834.13 509.38C840.948 505.83 845.722 484.19 842.958 478.668C833.806 470.846 808.432 471.414 797.784 476.202C787.082 481.015 796.443 501.944 800.629 508.558C798.356 507.832 797.016 506.992 795.935 504.87C785.064 483.518 788.242 468.055 814.481 470.484C817.74 470.77 818.564 470.715 821.82 470.299Z"/><path fill="#1C3E43" transform="scale(1.33333 1.33333)" d="M855.312 565.423C855.212 564.681 855.15 563.934 855.127 563.185C855.033 558.967 859.521 532.406 860.416 526.673L869.541 471.286C870.165 467.417 872.679 445.82 874.402 444.047L876.979 445.157L876.737 447.053C874.556 477.489 867.1 508.85 863.352 539.25C862.793 543.782 859.486 560.228 859.745 563.656C857.304 565.562 858.467 565.075 855.312 565.423Z"/><path fill="#EDB03E" transform="scale(1.33333 1.33333)" d="M815.166 510.859C816.909 510.984 819.22 511.243 820.909 511.076C821.28 512.319 822.185 515.862 822.135 516.92C821.735 525.415 823.446 561.878 822.242 567.483L821.026 568.921L815.724 569.097C814.413 564.156 813.922 517.135 815.166 510.859Z"/><path fill="#1C3E43" transform="scale(1.33333 1.33333)" d="M779.584 564.324C779.216 558.121 774.99 543.802 773.388 537.164C768.756 517.497 764.287 497.792 759.982 478.05C758.288 470.605 752.552 451.286 754.831 445.296L755.559 444.888C758.941 448.526 766.51 485.144 767.975 492.545C772.629 516.068 780.799 539.758 783.428 563.516C783.543 564.559 783.025 564.421 783.669 565.685L783.359 565.944C781.53 565.696 781.2 565.336 779.584 564.324Z"/><path fill="#EDB03E" transform="scale(1.33333 1.33333)" d="M814.583 439.733C816.529 439.732 818.936 439.794 820.838 439.71C822.09 443.735 822.642 466.067 821.82 470.299C818.564 470.715 817.74 470.77 814.481 470.484C813.986 464.159 813.963 445.836 814.583 439.733Z"/><path fill="#FEFAFB" transform="scale(1.33333 1.33333)" d="M746.007 376.221C749.703 375.28 754.523 374.793 758.379 374.287C757.94 376.542 758.21 377.28 759.205 379.495C761.148 383.822 759.637 385.219 759.53 388.368C753.821 388.864 744.991 390.956 741.241 386.287L740.746 385.735C740.812 381.316 743.102 379.596 746.007 376.221Z"/><path fill="#4F5E60" transform="scale(1.33333 1.33333)" d="M740.746 385.735C744.567 380.898 745.747 380.44 751.659 378.48C748.248 381.638 745.528 384.218 741.241 386.287L740.746 385.735Z"/><path fill="#153135" transform="scale(1.33333 1.33333)" d="M761.844 388.639C765.324 387.663 771.665 387.861 775.631 387.314C793.198 384.894 810.695 382.656 828.471 384.14C828.472 384.14 830.822 385.652 831.004 385.769C835.379 388.51 846.607 392.617 850.747 388.167C854.596 390.057 862.5 388.268 866.717 387.39C870.511 394.822 871.237 397.724 874.266 404.518C875.345 408.655 876.135 418.493 875.391 422.622C870.187 431.12 869.085 432.589 859.049 435.923C848.491 439.43 830.249 437.057 820.838 439.71C818.936 439.794 816.529 439.732 814.583 439.733C799.379 439.026 785.128 439.696 770.005 436.751C746.398 432.153 753.038 403.657 761.844 388.639Z"/><path fill="#889593" transform="scale(1.33333 1.33333)" d="M806.673 392.219C809.807 391.736 813.259 391.973 816.393 391.779C838.441 390.416 860.711 397.552 865.349 422.065C865.531 423.029 865.506 422.609 864.937 423.397C863.76 422.091 862.807 415.417 859.181 410.259C852.927 399.999 843.529 395.414 831.871 393.9C829.379 393.577 826.811 393.723 824.217 393.178C809.972 393.098 796.916 393.312 783.622 399.682C776.394 403.145 770.281 409.262 767.892 416.992C767.1 419.554 767.164 421.342 766.172 424.217L765.554 424.209C764.928 418.156 767.982 411.425 771.894 406.913C780.937 396.482 793.55 393.394 806.673 392.219Z"/><path fill="#0E6D77" transform="scale(1.33333 1.33333)" d="M841.977 246.508L849.406 249.646C850.771 250.31 852.656 251.332 854.076 251.66C858.231 253.685 875.914 261.752 878.094 264.52L878.313 265.275C869.763 268.105 871.11 278.766 868.002 281.706C865.823 280.982 860.601 277.919 856.491 276.449C854.632 273.85 852.837 270.789 851.147 268.046C854.291 270.22 857.457 272.362 860.645 274.472C856.831 269.463 851.235 264.028 846.769 258.342C845.514 257.642 843.907 255.333 842.935 254.104C842.4 252.862 842.975 250.611 843.205 249.153L841.977 246.508Z"/><path fill="#CC8624" transform="scale(1.33333 1.33333)" d="M843.205 249.153C847.115 253.021 853.02 258.551 856.354 262.661C854.214 261.639 848.757 258.906 846.769 258.342C845.514 257.642 843.907 255.333 842.935 254.104C842.4 252.862 842.975 250.611 843.205 249.153Z"/><path fill="#EEC571" transform="scale(1.33333 1.33333)" d="M757.095 226.055L757.18 230.713L757.851 231.222C759.226 230.04 760.198 229.189 761.731 228.169L765.082 228.761C767.501 228.79 769.061 228.664 771.334 229.519C772.595 231.9 771.77 232.705 770.733 235.32C770.357 236.902 769.726 239.165 769.664 240.724L769.882 241.563C765.586 243.391 759.795 246.773 755.781 247.718C754.682 247.979 753.735 248.237 752.613 248.388C753.576 246.265 753.711 245.94 753.934 243.628C752.69 243.489 750.83 243.08 749.545 242.841C751.557 241.224 752.881 240.583 752.585 237.863C750.997 238.218 750.799 238.335 749.229 238.081C749.541 236.006 755.507 228.072 757.095 226.055Z"/><path fill="#2F2B24" transform="scale(1.33333 1.33333)" d="M734.294 184.65C735.933 186.772 737.997 190.396 740.003 191.121C747.305 206.604 760.323 204.623 773.867 198.698C772.75 203.28 771.199 210.371 767.109 212.943C762.359 215.929 758.237 209.518 756.929 205.894C748.444 204.029 745.12 202.149 738.926 195.808C738.779 195.657 735.863 196.416 735.489 196.531C734.307 191.551 733.764 189.793 734.294 184.65Z"/><path fill="#FEFAFB" transform="scale(1.33333 1.33333)" d="M768.912 203.664L769.421 204.111C769.599 207.515 768.577 209.191 766.133 211.304C763.67 211.998 764.727 212.032 762.106 210.931C760.502 209.028 759.767 208.807 759.449 206.649C760.799 205.328 766.353 204.414 768.912 203.664Z"/><path fill="#E4A73F" transform="scale(1.33333 1.33333)" d="M823.956 228.022C825.881 225.655 826.348 223.586 828.693 221.878C830.268 221.8 830.874 222.111 832.407 222.593C833.985 225.139 835.398 227.602 837.088 230.128C838.62 232.418 842.309 234.143 842.359 235.802C840.246 236.345 836.808 235.153 834.518 234.56L834.294 235.207C835.865 238.269 839.463 244.155 841.977 246.508L843.205 249.153C842.975 250.611 842.4 252.862 842.935 254.104C840.909 252.405 825.434 231.037 823.956 228.022Z"/><path fill="#222220" transform="scale(1.33333 1.33333)" d="M734.294 184.65C734.79 181.612 734.785 178.313 736.733 176.21C738.851 175.1 740.547 175.566 742.899 175.885C758.002 182.369 753.814 188.751 740.003 191.121C737.997 190.396 735.933 186.772 734.294 184.65Z"/><path fill="#CC8624" transform="scale(1.33333 1.33333)" d="M758.17 215.194C761.784 215.38 763.056 216.16 766.242 216.602C770.014 217.125 774.552 217.448 778.369 217.76L778.542 218.528C776.334 220.415 773.215 223.37 770.352 223.754C768.016 224.868 763.695 226.768 761.731 228.169C760.198 229.189 759.226 230.04 757.851 231.222L757.18 230.713L757.095 226.055C758.953 221.487 759.111 220.032 758.17 215.194Z"/><path fill="#CC8624" transform="scale(1.33333 1.33333)" d="M749.021 147.153C751.49 148.135 765.689 153.305 767.069 154.345C767.981 157.778 762.196 162.41 760.27 165.919C755.634 159.737 752.435 154.036 749.021 147.153Z"/><path fill="#CC8624" transform="scale(1.33333 1.33333)" d="M829.275 211.976C814.476 202.817 808.56 188.937 806.608 172.173C806.316 169.661 806.141 166.514 807.807 164.515C809.192 169.488 809.295 176.084 811.012 181.548C814.857 193.781 819.415 203.268 830.909 209.799L831.785 211.099C830.856 212.153 831.165 211.816 829.275 211.976Z"/><path fill="#0E6D77" transform="scale(1.33333 1.33333)" d="M707.045 267.31C708.119 264.26 708.764 263.915 711.194 261.81C715.108 270.235 716.976 272.271 723.194 279.434C720.871 280.883 716.84 283.935 714.495 283.805L713.521 283.176C714.034 276.39 713.171 270.971 707.045 267.31Z"/><path fill="#E4A73F" transform="scale(1.33333 1.33333)" d="M770.352 223.754C774.143 230.735 776.738 225.739 779.526 233.99C778.865 236.124 779.409 235.411 777.436 236.624C775.917 239.51 776.513 239.503 774.095 240.68C772.74 240.592 770.907 240.336 769.664 240.724C769.726 239.165 770.357 236.902 770.733 235.32C771.77 232.705 772.595 231.9 771.334 229.519C769.061 228.664 767.501 228.79 765.082 228.761L761.731 228.169C763.695 226.768 768.016 224.868 770.352 223.754Z"/><path fill="#EEC571" transform="scale(1.33333 1.33333)" d="M777.436 236.624L775.166 238.259L774.213 237.994C773.282 235.502 774.111 233.215 775.574 231.115L776.593 231.211C777.484 232.685 778.075 233.077 779.526 233.99C778.865 236.124 779.409 235.411 777.436 236.624Z"/><path fill="#E4A73F" transform="scale(1.33333 1.33333)" d="M828.984 377.583C837.977 381.925 841.456 385.882 850.747 388.167C846.607 392.617 835.379 388.51 831.004 385.769L833.764 383.622L833.628 382.351C831.658 380.766 830.585 379.537 828.984 377.583Z"/><path fill="#CC8624" transform="scale(1.33333 1.33333)" d="M764.619 313.859C777.286 313.395 788.821 314.785 796.241 326.501C789.604 322.685 782.376 317.829 774.856 316.774C770.987 316.231 768.059 316.416 763.864 315.655L764.619 313.859Z"/><path fill="#0E6D77" transform="scale(1.33333 1.33333)" d="M749.545 242.841C750.83 243.08 752.69 243.489 753.934 243.628C753.711 245.94 753.576 246.265 752.613 248.388L753.25 250.097L752.817 250.156C747.474 250.881 742.446 251.876 737.992 248.495C741.772 246.763 745.721 244.658 749.545 242.841Z"/><path fill="#E4A73F" transform="scale(1.33333 1.33333)" d="M830.909 209.799L832.517 208.559L833.148 208.799L832.669 208.779L833.51 210.435L834.43 209.805L834.79 207.423L835.896 206.795C836.535 212.895 838.801 211.694 842.551 215.766C837.77 214.282 835.564 213.242 831.091 211.089C834.808 217.44 836.374 219.535 841.915 224.843C838.645 223.544 834.667 222.186 832.231 219.619C832.443 217.612 830.344 214.404 829.275 211.976C831.165 211.816 830.856 212.153 831.785 211.099L830.909 209.799Z"/><path fill="#0E6D77" transform="scale(1.33333 1.33333)" d="M866.717 387.39C868.903 386.151 871.079 384.951 873.185 383.58C873.396 389.622 874.358 399.132 874.266 404.518C871.237 397.724 870.511 394.822 866.717 387.39Z"/><path fill="#CC8624" transform="scale(1.33333 1.33333)" d="M769.882 241.563C770.223 246.375 756.665 250.625 753.25 250.097L752.613 248.388C753.735 248.237 754.682 247.979 755.781 247.718C759.795 246.773 765.586 243.391 769.882 241.563Z"/><path fill="#E4A73F" transform="scale(1.33333 1.33333)" d="M890.387 342.145C887.869 348.502 886.751 349.021 881.896 353.746C882.703 354.373 883.415 354.32 884.446 354.425C883.446 355.903 883.526 355.846 881.933 356.635C881.444 355.892 880.949 355.285 880.275 354.702L878.402 355.595L877.884 354.813C880.412 351.264 883.848 349.97 885.566 346.562C885.029 345.787 885.392 346.026 884.49 345.828C887.185 344.848 888.151 343.919 890.387 342.145Z"/><path fill="#CC8624" transform="scale(1.33333 1.33333)" d="M867.245 327.315L867.784 327.822C868.373 331.259 864.092 336.933 861.911 339.706C854.63 348.962 844.957 357.843 833.605 361.615L833.094 361.062L833.567 359.951C849.503 351.447 858.529 342.742 867.245 327.315Z"/><path fill="#CC8624" transform="scale(1.33333 1.33333)" d="M752.495 140.344C758.028 141.112 763.749 145.565 767.682 144.219C767.516 143.283 767.331 142.745 767.512 141.819C770.655 142.674 773.164 145.977 774.771 148.667C774.813 149.873 774.573 150.194 774.09 151.276L772.677 151.738C766.898 148.155 756.92 143.629 752.495 140.344Z"/><path fill="#222220" transform="scale(1.33333 1.33333)" d="M785.122 178.222C786.274 178.351 786.894 178.555 788.003 178.842C790.972 182.444 788.304 185.496 785.834 188.586C784.282 188.581 784.092 188.462 782.595 187.962C780.041 184.244 782.659 181.295 785.122 178.222Z"/><path fill="#CC8624" transform="scale(1.33333 1.33333)" d="M767.956 280.867L769.883 281.148L769.93 281.911C766.315 285.318 760.875 285.676 756.635 287.416L756.136 287.626C754.812 287.691 754.884 287.756 753.785 287.037C755.093 285.004 765.121 281.886 767.956 280.867Z"/><path fill="#2F2B24" transform="scale(1.33333 1.33333)" d="M762.716 166.963C765.211 167.72 765.558 168.344 766.113 170.648C765.59 173.248 764.556 174.221 762.884 176.282C760.727 175.288 760.559 175.015 759.933 172.992C760.208 170.465 761.335 169.101 762.716 166.963Z"/><path fill="#EEC571" transform="scale(1.33333 1.33333)" d="M785.89 158.088C788.136 158.073 788.905 158.126 791.116 158.509C790.86 159.327 785.552 161.149 783.072 162.854L782.493 163.258C780.549 164.285 780.948 164.474 779.188 164.228C780.357 161.719 783.604 159.601 785.89 158.088Z"/><path fill="#EEC571" transform="scale(1.33333 1.33333)" d="M795.523 162.004L796.593 162.152L796.706 162.909C794.024 164.762 788.433 166.716 785.21 167.978L784.12 167.761L784.127 166.776C787.229 164.831 791.988 163.299 795.523 162.004Z"/><path fill="#CC8624" transform="scale(1.33333 1.33333)" d="M871.932 372.788L872.834 372.898L873.058 373.504C871.076 374.971 862.039 377.665 859.164 378.601L858.083 377.811C859.391 376.454 869.336 373.645 871.932 372.788Z"/><path fill="#CC8624" transform="scale(1.33333 1.33333)" d="M813.159 166.506C814.001 167.31 815.673 179.069 816.778 182.786C812.339 180.329 812.964 170.91 813.159 166.506Z"/><path fill="#CC8624" transform="scale(1.33333 1.33333)" d="M825.635 169.731C827.479 171.853 827.558 179.825 827.991 183.523L827.17 183.642C825.774 178.934 825.084 174.626 825.635 169.731Z"/><path fill="#CC8624" transform="scale(1.33333 1.33333)" d="M811.581 212.334C813.831 213.319 817.133 220.229 818.515 222.738C814.681 221.595 812.821 215.729 811.581 212.334Z"/><path fill="#E4A73F" transform="scale(1.33333 1.33333)" d="M844.147 326.063C845.432 327.745 845.473 333.423 845.581 335.781L843.859 334.827C842.707 331.428 842.931 329.394 844.147 326.063Z"/><path fill="#CC8624" transform="scale(1.33333 1.33333)" d="M822.201 294.51C824.92 296.064 825.444 303.935 825.657 306.781C823.532 304.857 822.694 297.579 822.201 294.51Z"/><path fill="#CC8624" transform="scale(1.33333 1.33333)" d="M841.343 275.319C845.152 277.326 845.731 281.901 846.453 285.705C844.313 284.382 842.256 277.861 841.343 275.319Z"/><path fill="#CC8624" transform="scale(1.33333 1.33333)" d="M865.956 355.126L866.439 355.741C864.404 358.658 860.528 360.931 857.267 362.24L857.107 362.165L857.177 361.486C860.363 358.959 862.593 357.365 865.956 355.126Z"/><path fill="#CC8624" transform="scale(1.33333 1.33333)" d="M817.509 230.159C820.577 231.483 821.712 235.031 822.788 237.99C819.308 236.88 818.066 233.431 817.509 230.159Z"/><path fill="#CC8624" transform="scale(1.33333 1.33333)" d="M815.536 209.211C816.778 210.099 820.683 217.595 821.89 219.585L820.851 219.849C818.233 216.299 816.312 213.569 815.536 209.211Z"/><path fill="#CC8624" transform="scale(1.33333 1.33333)" d="M850.211 369.048C850.305 369.611 850.092 369.833 849.852 370.525C847.294 371.847 844.368 372.139 841.515 372.598L841.479 371.315C842.871 370.414 847.649 369.82 850.211 369.048Z"/><path fill="#CC8624" transform="scale(1.33333 1.33333)" d="M813.596 238.561C816.698 240.415 817.396 244.587 818.17 247.907L817.014 247.365C815.445 245.058 814.468 241.308 813.596 238.561Z"/><path fill="#CC8624" transform="scale(1.33333 1.33333)" d="M873.223 339.996C873.345 342.766 869.131 345.844 867.067 347.273C866.986 344.269 870.975 341.521 873.223 339.996Z"/><path fill="#CC8624" transform="scale(1.33333 1.33333)" d="M718.48 259.139C720.906 259.833 723.942 264.016 725.635 266.094C721.522 265.22 720.02 262.67 718.48 259.139Z"/><path fill="#CC8624" transform="scale(1.33333 1.33333)" d="M835.469 345.646C838.051 347.3 836.815 351.785 836.182 354.191L835.387 353.595C834.65 352.197 835.31 347.523 835.469 345.646Z"/><path fill="#CC8624" transform="scale(1.33333 1.33333)" d="M786.81 237.951L787.457 239.926C787.113 242.756 785.914 244.078 784.281 246.421C783.539 244.282 785.797 240.256 786.81 237.951Z"/><path fill="#E4A73F" transform="scale(1.33333 1.33333)" d="M811.901 278.785C813.926 279.941 814.715 285.527 815.25 287.899L813.876 286.97C812.456 284.636 812.275 281.539 811.901 278.785Z"/><path fill="#CC8624" transform="scale(1.33333 1.33333)" d="M811.809 247.357C813.721 248.825 815.411 255.113 816.198 257.604C813.082 254.796 812.593 251.387 811.809 247.357Z"/><path fill="#E4A73F" transform="scale(1.33333 1.33333)" d="M809.084 296.468C810.794 298.744 811.129 302.666 811.63 305.589C809.06 303.439 808.325 299.611 809.084 296.468Z"/><path fill="#CC8624" transform="scale(1.33333 1.33333)" d="M879.736 363.788L879.397 364.897C876.937 366.863 874.983 367.419 872.028 368.536L872.109 367.499C874.038 365.737 877.227 364.751 879.736 363.788Z"/><path fill="#CC8624" transform="scale(1.33333 1.33333)" d="M826.881 317.509C829.046 320.347 828.954 324.463 829.022 327.894C827.095 325 826.795 320.912 826.881 317.509Z"/><path fill="#CC8624" transform="scale(1.33333 1.33333)" d="M857.649 353.813L857.73 355.418C856.616 357.437 854.319 358.53 852.31 359.75L852.141 359.22C852.595 357.639 856.101 355.128 857.649 353.813Z"/><path fill="#CC8624" transform="scale(1.33333 1.33333)" d="M773.473 300.386C776.022 302.035 776.522 306.32 777.272 309.431C774.875 307.439 774.139 303.307 773.473 300.386Z"/><path fill="#CC8624" transform="scale(1.33333 1.33333)" d="M844.387 378.351C845.13 378.24 845.875 378.143 846.622 378.063C849.173 377.803 850.326 377.718 852.069 379.145C848.262 380.009 847.591 380.689 844.387 378.351Z"/><path fill="#CC8624" transform="scale(1.33333 1.33333)" d="M828.278 297.017C831.25 298.74 830.865 303.071 830.655 306.028C829.278 304.148 828.744 299.538 828.278 297.017Z"/><path fill="#CC8624" transform="scale(1.33333 1.33333)" d="M846.503 363.779C846.656 363.905 846.717 364.431 846.78 364.701C845.023 366.182 842.523 366.682 840.247 367.373C839.718 366.7 839.903 367.102 839.994 366.027L846.503 363.779Z"/><path fill="#CC8624" transform="scale(1.33333 1.33333)" d="M875.323 350.461L875.735 351.411C875.143 353.519 873.121 354.613 871.305 355.924L870.599 355.368C871.12 353.584 873.736 351.789 875.323 350.461Z"/><path fill="#CC8624" transform="scale(1.33333 1.33333)" d="M834.619 302.347L835.813 303.423C836.953 306.286 836.772 307.605 836.722 310.716C834.871 309.101 834.908 305.021 834.619 302.347Z"/><path fill="#EEC571" transform="scale(1.33333 1.33333)" d="M795.646 270.081C798.075 272.058 797.731 275.739 797.868 278.691C795.924 275.658 795.673 273.565 795.646 270.081Z"/><path fill="#CC8624" transform="scale(1.33333 1.33333)" d="M820.214 315.417L821.266 315.308C822.312 317.99 822.247 319.681 822.391 322.545C820.629 321.227 820.496 317.539 820.214 315.417Z"/><path fill="#CC8624" transform="scale(1.33333 1.33333)" d="M839.304 282.623C842.001 284.013 842.764 287.657 843.581 290.372C841.238 289.321 840.125 284.978 839.304 282.623Z"/><path fill="#CC8624" transform="scale(1.33333 1.33333)" d="M803.876 367.418C805.676 369.105 806.71 374.42 807.153 376.862C804.837 373.866 804.311 371.087 803.876 367.418Z"/><path fill="#CC8624" transform="scale(1.33333 1.33333)" d="M809.031 368.683C811.207 370.587 811.23 373.79 811.358 376.456C809.379 373.876 809.468 371.818 809.031 368.683Z"/><path fill="#153135" transform="scale(1.33333 1.33333)" d="M747.202 551.25C753.032 554.539 760.893 558.061 767.206 560.298C770.114 561.328 777.413 563.301 779.584 564.324C781.2 565.336 781.53 565.696 783.359 565.944L783.669 565.685C795.629 567.705 803.122 569.469 815.724 569.097L821.026 568.921C835.264 569.903 841.807 566.948 854.84 565.473L855.312 565.423C858.467 565.075 857.304 565.562 859.745 563.656C861.199 562.882 877.898 556.949 880.707 555.824C888.359 563.365 889.382 568.001 891.038 578.633C899.604 584.43 897.23 592.647 888.372 596.3C885.935 597.305 880.487 593.821 878.805 596.514C872.208 610.033 863.514 613.639 847.978 609.872C847.876 614.59 847.973 624.141 847.525 628.452C847.232 633.938 847.115 636.623 844.653 641.751C836.542 658.64 807.886 659.537 796.067 646.348C794.63 644.757 793.389 642.999 792.371 641.112C789.141 631.684 790.024 612.608 790.768 602.275C790.545 600.432 790.788 595.13 790.831 593.021C788.99 592.866 787.152 592.683 785.317 592.473C762.166 589.82 743.82 576.977 747.202 551.25Z"/><path fill="#1C3E43" transform="scale(1.33333 1.33333)" d="M790.768 602.275C792.76 607.725 791.601 611.027 792.713 616.1C793.019 617.498 795.492 619.978 796.436 621.746L794.928 622.858C796.761 624.243 797.686 624.365 797.998 626.133C797.102 626.913 797.182 626.885 796 626.994C797.236 627.734 797.51 626.827 797.776 627.253C798.513 628.434 797.878 627.965 799.215 628.598L799.784 626.332C802.548 625.1 804.681 624.476 806.568 627.275C805.794 629.448 805.331 630.244 804.222 632.182C802.668 630.655 801.74 630.012 799.437 630.993C799.597 632.052 800.08 635.323 800.711 635.897C802.705 637.714 802.651 638.19 802.171 640.885C804.051 640.587 803.43 640.943 804.729 639.711C803.687 638.147 803.207 637.683 801.887 636.319L802.178 635.087L803.581 634.466C806.906 636.261 805.623 637.245 810.038 638.349C811.014 639.895 810.85 639.082 810.584 640.86C809.68 640.021 809.268 639.571 808.173 638.944C806.452 642.422 808.519 651.401 811.777 653.479L812.482 653.122C810.209 650.54 808.701 646.947 809.462 643.513L808.131 641.921L809.176 641.053C810.961 641.417 810.323 641.002 811.438 642.613C811.072 644.346 810.896 644.983 810.24 646.626L811.541 646.885L812.304 646.149L812.289 645.525C812.252 643.549 812.12 643.04 813.162 641.362L814.648 640.982L815.309 641.71C814.815 642.332 814.33 642.961 813.853 643.596C816.18 645.57 818.821 645.612 821.34 644.052L822.342 644.548L822.388 645.906L822.91 646.321C823.585 645.787 824.247 645.237 824.895 644.671L823.714 643.541C824.411 641.918 824.717 641.868 826.27 640.848C830.095 640.931 829.644 639.833 830.982 636.585C831.308 636.237 831.518 635.905 831.751 635.491L832.579 637.024L831.408 636.778L833.11 636.952L833.863 636.337L833.829 634.608C836.35 633.031 838.501 633.814 839.966 632.353C839.575 631.262 839.488 631.02 839.27 629.831C841.327 627.406 840.235 628.714 844.178 629.6C845.516 629.141 846.631 628.758 847.525 628.452C847.232 633.938 847.115 636.623 844.653 641.751C836.542 658.64 807.886 659.537 796.067 646.348C794.63 644.757 793.389 642.999 792.371 641.112C789.141 631.684 790.024 612.608 790.768 602.275Z"/><path fill="#223439" transform="scale(1.33333 1.33333)" d="M822.388 645.906L822.91 646.321C823.552 650.107 825.235 648.441 825.536 652.27L824.973 652.717L822.008 650.691L818.643 651.377L817.78 650.801C818.461 648.437 820.269 647.193 822.388 645.906Z"/><path fill="#223439" transform="scale(1.33333 1.33333)" d="M830.982 636.585L830.116 635.818C830.461 633.616 830.731 631.681 832.789 630.614C833.15 631.451 833.519 632.283 833.897 633.112C835.284 633.125 835.216 633.2 836.358 632.437C835.27 630.794 834.98 629.956 834.276 628.154C836.298 624.895 835.557 620.804 836.176 620.057C838.763 620.351 840.807 620.815 842.85 619.34L842.958 618.388C840.823 617.956 837.905 617.843 837.214 615.689C838.866 612.869 841.466 612.891 841.53 612.399C841.826 610.127 841.535 606.16 843.317 604.274L844.856 604.324C847.494 606.504 847.033 606.623 847.978 609.872C847.876 614.59 847.973 624.141 847.525 628.452C846.631 628.758 845.516 629.141 844.178 629.6C840.235 628.714 841.327 627.406 839.27 629.831C839.488 631.02 839.575 631.262 839.966 632.353C838.501 633.814 836.35 633.031 833.829 634.608L833.863 636.337L833.11 636.952L831.408 636.778L832.579 637.024L831.751 635.491C831.518 635.905 831.308 636.237 830.982 636.585Z"/><path fill="#223439" transform="scale(1.33333 1.33333)" d="M818.563 609.034C819.113 608.929 821.253 609.307 822.121 609.362C823.598 610.37 823.116 609.703 823.594 611.443C822.504 615.584 817.978 618.183 816.952 620.767C816.991 621.214 816.859 621.94 816.799 622.422C814.725 622.47 812.656 622.048 811.566 620.261C812.638 614.426 817.746 613.864 818.563 609.034Z"/><path fill="#0E6D77" transform="scale(1.33333 1.33333)" d="M887.491 216.329C882.715 204.99 887.59 191.891 898.616 186.435C909.642 180.979 923.009 185.052 929.123 195.73C935.236 206.407 931.983 220 921.698 226.751C911.413 233.503 897.652 231.079 890.291 221.22C889.163 219.709 888.222 218.067 887.491 216.329ZM911.837 226.031C922.094 224.539 929.283 215.127 928.026 204.836C926.769 194.545 917.525 187.141 907.211 188.164C900.326 188.846 894.351 193.204 891.596 199.552C888.84 205.899 889.737 213.242 893.94 218.739C898.142 224.236 904.99 227.026 911.837 226.031Z"/><path fill="#0E6D77" transform="scale(1.33333 1.33333)" d="M686.49 221.922C679.901 232.208 666.452 235.597 655.777 229.661C645.102 223.725 640.881 210.51 646.139 199.483C651.396 188.456 664.318 183.418 675.649 187.979C686.98 192.539 692.813 205.126 688.969 216.722C688.363 218.552 687.53 220.298 686.49 221.922ZM670.373 228.011C680.72 226.069 687.513 216.078 685.517 205.738C683.52 195.399 673.495 188.657 663.169 190.709C652.92 192.746 646.241 202.682 648.223 212.944C650.205 223.206 660.103 229.939 670.373 228.011Z"/><path fill="#223439" transform="scale(1.33333 1.33333)" d="M868.002 281.706C871.11 278.766 869.763 268.105 878.313 265.275C883.962 271.516 902.909 275.707 910.214 280.752C914.817 283.931 909.927 296.508 904.2 296.003C892.707 294.988 879.234 281.638 868.002 281.706Z"/><path fill="#223439" transform="scale(1.33333 1.33333)" d="M707.045 267.31C713.171 270.971 714.034 276.39 713.521 283.176C708.269 286.147 683.751 301.301 679.182 297.472C659.119 280.662 701.16 276.299 707.045 267.31Z"/><path fill="#223439" transform="scale(1.33333 1.33333)" d="M849.406 249.646C849.707 247.948 850.281 244.598 851.41 243.422C860.604 233.844 876.633 224.401 887.491 216.329C888.222 218.067 889.163 219.709 890.291 221.22C879.663 229.128 865.413 236.93 856.357 246.329C855.312 247.414 854.528 250.12 854.076 251.66C852.656 251.332 850.771 250.31 849.406 249.646Z"/><path fill="#223439" transform="scale(1.33333 1.33333)" d="M688.969 216.722C696.719 222.271 698.781 222.721 701.283 231.619L700.234 231.936C695.606 228.662 691.025 225.323 686.49 221.922C687.53 220.298 688.363 218.552 688.969 216.722Z"/><path fill="#222220" fill-opacity="0.98039216" transform="scale(1.33333 1.33333)" d="M701.683 206.401C705.701 208.025 706.012 211.17 706.455 214.953C704.395 213.715 702.771 208.895 701.683 206.401Z"/><path fill="#222220" fill-opacity="0.93725491" transform="scale(1.33333 1.33333)" d="M709.079 205.143C712.607 207.189 713.079 209.984 713.836 213.685C711.534 212.198 710.222 207.875 709.079 205.143Z"/></svg>