<?xml version="1.0" encoding="utf-8" ?><svg xmlns="http://www.w3.org/2000/svg" xmlns:xlink="http://www.w3.org/1999/xlink" width="1792" height="1024" viewBox="0 0 1792 1024"><path fill="#F0DCAE" transform="scale(1.33333 1.33333)" d="M500.891 96.2111C511.485 84.3999 526.3 70.7756 540.782 64.3487C561.178 55.2971 554.901 72.7623 549.979 82.9529C559.669 79.1774 574.783 68.3441 585.181 70.3508C593.073 71.8738 587.412 84.0622 585.453 88.205C597.191 82.1836 613.001 70.2438 622.459 85.2209C622.294 93.3645 622.269 100.793 616.689 107.64C602.654 124.86 584.334 124.879 564.147 124.955C559.836 124.971 553.522 124.729 549.677 125.36L549.06 125.467C553.553 136.336 574.472 146.74 583.699 152.744C589.984 157.003 596.074 160.894 602.418 165.124C626.52 181.195 647.585 199.245 669.408 218.56C672.645 221.426 692.951 248.233 698.592 253.407C698.536 253.889 698.48 254.37 698.424 254.852L698.779 255.93C706.749 264.678 722.971 297.846 728.309 302.02L728.77 302.194C736.783 305.307 745.25 311.133 753.587 313.649C759.883 315.549 767.443 315.991 773.934 317.331C792.272 321.114 810.588 323.353 828.929 327.003C832.328 326.719 832.049 327.088 834.392 325.193C842.601 328.117 851.922 332.031 860.433 332.862C908.905 352.001 928.061 379.235 940.438 429.008C941.387 432.824 941.21 441.334 944.716 443.262C951.432 446.954 957.979 454.933 963.772 460.329C964.001 461.848 963.967 461.851 963.754 463.393C971.964 467.932 967.556 466.042 973.815 473.339C973.844 475.148 974.108 474.349 972.934 475.792C965.042 466.837 951.515 449.307 942.314 443.989C941.98 459.677 943.23 496.161 935.962 508.83C933.939 509.422 934.774 509.504 932.847 508.476C927.282 500.215 919.836 467.278 916.212 455.921C909.347 468.134 908.956 479.851 905.962 493.238C904.239 500.941 902.406 508.071 899.685 515.501C898.547 518.703 898.979 523.616 896.359 524.875C891.153 521.539 882.679 484.173 880.118 476.744C879.826 475.898 879.041 476.183 878.326 476.26C875.555 480.249 874.844 494.228 873.114 498.986C868.717 511.08 865.654 524.341 861.684 536.366C858.327 536.596 847.742 509.867 845.781 505.131C845.17 505.472 844.422 505.89 843.538 506.384C838.739 514.412 837.273 521.891 831.051 529.17L831.076 536.521C829.218 537.825 826.703 539.487 825.035 540.931C823.916 544.773 823.892 547.291 819.995 548.918C819.456 550.165 818.428 552.746 817.775 553.803C817.597 553.899 815.292 555.137 815.292 555.137C806.478 570.973 795.709 585.47 785.135 600.14C783.034 603.054 780.434 606.203 779.232 609.585C778.971 614.84 770.929 650.926 768.623 656.574C764.796 651.751 769.823 644.665 770.088 640.375C770.474 634.126 752.556 630.808 748.325 630.436C745.303 629.618 746.385 629.467 744.018 630.569C742.69 632.476 741.776 634.044 740.619 636.046C741.486 628.447 742.753 628.762 736.46 623.57C727.275 615.991 720.964 604.86 714.565 594.926C695.282 603.727 700.786 601.078 690.796 620.303C688.506 624.709 682.919 624.051 681.828 630.859C674.931 626.848 666.965 627.638 659.755 621.042L659.459 620.766C657.904 621.292 656.869 623.477 655.297 624.831C655.774 620.331 656.104 616.993 657.105 612.548C651.199 605.51 647.051 605.598 640.675 596.091C628.947 578.605 616.564 561.481 605.023 543.891C602.72 540.381 597.207 535.442 594.48 531.435C587.428 521.071 578.402 505.011 569.229 496.856C558.95 489.43 553.913 484.846 544.774 476.219C532.749 464.446 528.061 451.915 520.151 438.84C517.9 435.159 511.399 429.381 508.366 425.656C504.267 420.622 500.981 415.731 497.324 410.392C495.187 406.504 493.159 402.713 491.561 398.551C490.426 395.596 491.784 394.793 489.802 392.671C486.784 389.429 483.185 374.024 484.031 370.306C486.735 358.412 479.291 357.857 479.244 346.662C479.079 341.191 479.824 339.548 478.12 334.233C471.619 320.304 472.811 292.348 471.823 276.5C471.164 265.94 469.776 253.574 474.865 244.109C463.953 243.036 456.724 241.461 451.247 231.129C443.159 215.871 453.68 200.967 460.972 188.121C463.634 183.431 467.695 173.603 469.125 168.467C458.33 168.767 449.145 170.959 438.634 172.823C435.857 173.315 432.035 173.932 429.678 172.219C429.392 162.414 468.019 151.143 475.971 149.378L477.062 147.958C477.187 147.084 477.395 147.046 476.883 146.8C468.03 142.534 457.855 143.587 452.287 133.412C447.987 124.577 448.08 111.077 450.55 101.825C451.515 98.2118 454.483 88.381 459.491 90.9328C463.7 93.0774 465.553 102.081 467.671 106.697C471.834 100.424 486.332 65.4528 498.56 74.8397C501.322 76.9604 500.823 91.8865 500.891 96.2111Z"/><path fill="#F0DCAE" transform="scale(1.33333 1.33333)" d="M571.919 366.845C572.525 352.654 568.772 358.293 562.471 356.592C560.148 353.346 561.82 344.914 564.397 341.812C565.126 340.935 563.421 338.362 564.296 336.143C566.358 335.64 574.103 340.253 576.248 341.429L578.151 341.616L578.586 341.317C578.679 339.818 578.753 339.854 579.513 338.632C581.807 338.066 581.509 338.412 584.106 339.318L584.423 338.828C589.267 337.872 588.077 338.87 592.102 338.947C593.122 337.999 593.48 337.856 594.814 337.44L595.707 342.071L595.369 342.712C595.962 346.448 596.131 348.787 596.286 352.576L597.586 351.618C602.283 354.45 618.592 371.014 623.263 373.707C629.199 373.909 635.258 374.347 638.622 380.135C638.24 383.78 642.357 384.722 641.645 387.345C639.172 387.587 640.007 387.885 637.902 386.188L637.322 385.711L636.72 386.14C636.52 385.556 636.621 385.89 636.442 385.131L636.551 386.64C636.27 386.68 635.668 386.807 635.438 386.747L631.562 384.881L630.519 385.722C632.972 388.607 639.713 400.349 637.051 403.643C640.212 405.848 672.038 425.826 673.124 425.856C673.247 424.75 673.204 425.124 673.803 424.081C674.878 424.045 675.037 424.113 676.032 423.74C675.301 422.75 674.763 422.323 673.867 421.515L674.157 420.243C680.501 423.842 687.608 427.801 694.172 431.003C701.503 434.578 710.565 443.39 718.186 444.213C720.356 445.466 726.334 449.751 727.199 451.97C729.313 454.215 730.92 455.237 730.792 457.988C730.742 459.047 736.502 459.04 737.041 459.792C738.626 461.037 741.572 465.351 742.402 466.946L747.005 468.828C747.548 470.577 748.039 472.394 748.829 474.035C750.863 476.456 750.041 478.6 751.618 482.17C755.483 490.773 771.348 526.755 777.484 530.636C778.89 530.534 778.799 530.58 779.929 529.744L780.053 529.24L782.199 522.054C783.82 511.523 789.229 493.763 787.497 484.175C786.828 480.597 786.233 478.685 785.081 475.209L784.064 473.518L784.628 471.965C786.956 474.311 786.585 474.287 790.669 474.318L791.065 474.319C792.2 475.686 799.54 502.534 801.115 507.273C805.969 521.886 807.128 541.433 817.775 553.803C817.597 553.899 815.292 555.137 815.292 555.137C806.478 570.973 795.709 585.47 785.135 600.14C783.034 603.054 780.434 606.203 779.232 609.585C778.971 614.84 770.929 650.926 768.623 656.574C764.796 651.751 769.823 644.665 770.088 640.375C770.474 634.126 752.556 630.808 748.325 630.436C745.303 629.618 746.385 629.467 744.018 630.569C742.69 632.476 741.776 634.044 740.619 636.046C741.486 628.447 742.753 628.762 736.46 623.57C727.275 615.991 720.964 604.86 714.565 594.926C695.282 603.727 700.786 601.078 690.796 620.303C688.506 624.709 682.919 624.051 681.828 630.859C674.931 626.848 666.965 627.638 659.755 621.042L659.459 620.766C657.904 621.292 656.869 623.477 655.297 624.831C655.774 620.331 656.104 616.993 657.105 612.548C651.199 605.51 647.051 605.598 640.675 596.091C628.947 578.605 616.564 561.481 605.023 543.891C602.72 540.381 597.207 535.442 594.48 531.435C587.428 521.071 578.402 505.011 569.229 496.856C558.95 489.43 553.913 484.846 544.774 476.219C532.749 464.446 528.061 451.915 520.151 438.84C517.9 435.159 511.399 429.381 508.366 425.656C504.267 420.622 500.981 415.731 497.324 410.392C495.187 406.504 493.159 402.713 491.561 398.551C490.426 395.596 491.784 394.793 489.802 392.671C486.784 389.429 483.185 374.024 484.031 370.306C486.735 358.412 479.291 357.857 479.244 346.662L479.489 347.902L480.497 348.325C482.219 346.437 484.056 344.013 486.542 343.772C487.899 344.744 488.39 345.014 490.07 345.055C495.099 346.8 502.1 367.3 506 372.271C506.215 372.544 506.564 374.253 506.629 374.694C509.097 376.445 509.49 381.7 512.263 381.855C512.242 381.708 512.221 381.561 512.199 381.414C511.801 378.771 512.565 375.737 512.88 373.148C512.88 373.146 510.918 370.409 510.918 370.405C510.721 368.587 510.546 365.905 510.249 364.201C508.443 353.862 508.814 347.542 514.208 338.186L515.184 338.017C516.535 339.557 521.465 344.798 522.245 346.225C525.415 352.027 533.663 376.772 537.021 380.144C537.119 380.879 537.293 380.892 537.785 381.607L538.943 381.492C543.697 376.678 539.164 364.36 542.021 363.396L544.338 368.206C546.024 366.427 547.007 364.854 549.253 364.464L550.134 365.292L550.176 366.926C551.319 368.68 551.928 370.632 553.02 372.429C558.066 380.73 568.395 382.331 566.992 369.586C566.698 366.922 567.536 365.451 565.675 362.87L567.055 361.558C569.654 361.954 569.619 364.93 571.919 366.845Z"/><path fill="#134247" transform="scale(1.33333 1.33333)" d="M571.919 366.845C572.525 352.654 568.772 358.293 562.471 356.592C560.148 353.346 561.82 344.914 564.397 341.812C565.126 340.935 563.421 338.362 564.296 336.143C566.358 335.64 574.103 340.253 576.248 341.429L578.151 341.616L578.586 341.317C578.679 339.818 578.753 339.854 579.513 338.632C581.807 338.066 581.509 338.412 584.106 339.318L584.423 338.828C589.267 337.872 588.077 338.87 592.102 338.947C593.122 337.999 593.48 337.856 594.814 337.44L595.707 342.071L595.369 342.712C595.962 346.448 596.131 348.787 596.286 352.576L597.586 351.618C602.283 354.45 618.592 371.014 623.263 373.707C629.199 373.909 635.258 374.347 638.622 380.135C638.24 383.78 642.357 384.722 641.645 387.345C639.172 387.587 640.007 387.885 637.902 386.188L637.322 385.711L636.72 386.14C636.52 385.556 636.621 385.89 636.442 385.131L636.551 386.64C636.27 386.68 635.668 386.807 635.438 386.747L631.562 384.881L630.519 385.722C632.972 388.607 639.713 400.349 637.051 403.643C640.212 405.848 672.038 425.826 673.124 425.856C679.229 428.763 686.141 435.208 693.055 437.805C694.746 438.441 699.644 440.38 700.799 441.274C700.716 441.782 698.976 447.378 698.613 447.672C694.35 451.121 684.782 445.446 681.425 442.391C679.764 440.879 680.35 440.022 677.615 439.047L676.627 440.721C672.874 440.761 675.282 438.861 670.752 439.075C661.954 440.889 647.316 424.819 642.881 424.347C641.499 426.566 642.69 427.256 641.658 429.495L638.968 432.178C635.083 434.608 629.473 434.922 628.781 437.409C632.922 437.467 636.939 442.229 640.605 445.253C640.615 448.29 640.602 451.326 640.567 454.362C637.727 456.218 635.898 457.263 632.867 458.789C628.549 457.324 613.899 449.347 613.061 449.18L612.56 449.206C610.571 449.294 610.039 449.269 608.095 448.929C607.069 450.314 607.383 449.843 607.128 451.728C606.513 451.683 603.212 449.131 601.688 448.334L601.253 448.376C599.145 446.739 590.59 443.369 587.559 441.733C577.846 436.492 571.268 431.501 563.214 424.162C555.851 418.009 548.102 411.469 540.915 405.076C539.521 403.836 539.352 403.205 539.391 401.711C537.624 400.906 538.4 401.032 536.364 401.468L536.184 402.323C533.861 400.985 527.673 396.945 525.744 396.967C523.639 403.022 538.487 425.4 542.847 429.406L545.724 433.697C545.237 435.693 545.163 436.794 543.583 438.162C546.629 442.57 551.275 443.434 551.909 448.21C551.199 450.638 550.214 451.285 548.39 452.961C549.892 454.344 552.195 456.906 553.182 458.694C557.119 465.83 580.393 485.654 574.839 494.244C572.581 495.452 571.551 495.277 569.229 496.856C558.95 489.43 553.913 484.846 544.774 476.219C532.749 464.446 528.061 451.915 520.151 438.84C517.9 435.159 511.399 429.381 508.366 425.656C504.267 420.622 500.981 415.731 497.324 410.392C495.187 406.504 493.159 402.713 491.561 398.551C490.426 395.596 491.784 394.793 489.802 392.671C486.784 389.429 483.185 374.024 484.031 370.306C486.735 358.412 479.291 357.857 479.244 346.662L479.489 347.902L480.497 348.325C482.219 346.437 484.056 344.013 486.542 343.772C487.899 344.744 488.39 345.014 490.07 345.055C495.099 346.8 502.1 367.3 506 372.271C506.215 372.544 506.564 374.253 506.629 374.694C509.097 376.445 509.49 381.7 512.263 381.855C512.242 381.708 512.221 381.561 512.199 381.414C511.801 378.771 512.565 375.737 512.88 373.148C512.88 373.146 510.918 370.409 510.918 370.405C510.721 368.587 510.546 365.905 510.249 364.201C508.443 353.862 508.814 347.542 514.208 338.186L515.184 338.017C516.535 339.557 521.465 344.798 522.245 346.225C525.415 352.027 533.663 376.772 537.021 380.144C537.119 380.879 537.293 380.892 537.785 381.607L538.943 381.492C543.697 376.678 539.164 364.36 542.021 363.396L544.338 368.206C546.024 366.427 547.007 364.854 549.253 364.464L550.134 365.292L550.176 366.926C551.319 368.68 551.928 370.632 553.02 372.429C558.066 380.73 568.395 382.331 566.992 369.586C566.698 366.922 567.536 365.451 565.675 362.87L567.055 361.558C569.654 361.954 569.619 364.93 571.919 366.845Z"/><path fill="#274546" transform="scale(1.33333 1.33333)" d="M509.688 400.918C514.061 402.963 517.763 404.828 520.427 399.14C522.287 395.169 522.286 389.445 522.065 385.155C526.957 390.206 532.04 397.605 536.364 401.468L536.184 402.323C533.861 400.985 527.673 396.945 525.744 396.967C523.639 403.022 538.487 425.4 542.847 429.406L545.724 433.697C545.237 435.693 545.163 436.794 543.583 438.162C546.629 442.57 551.275 443.434 551.909 448.21C551.199 450.638 550.214 451.285 548.39 452.961C549.892 454.344 552.195 456.906 553.182 458.694C557.119 465.83 580.393 485.654 574.839 494.244C572.581 495.452 571.551 495.277 569.229 496.856C558.95 489.43 553.913 484.846 544.774 476.219C532.749 464.446 528.061 451.915 520.151 438.84C517.9 435.159 511.399 429.381 508.366 425.656C504.267 420.622 500.981 415.731 497.324 410.392C498.216 407.734 495.234 404.017 496.356 400.228L498.936 399.107C499.985 394.851 495.516 397.345 500.763 391.025L500.401 390.449L500.934 388.635C504.489 392.981 507.04 395.916 509.688 400.918Z"/><path fill="#EEDFB9" transform="scale(1.33333 1.33333)" d="M509.688 400.918C514.061 402.963 517.763 404.828 520.427 399.14C522.287 395.169 522.286 389.445 522.065 385.155C526.957 390.206 532.04 397.605 536.364 401.468L536.184 402.323C533.861 400.985 527.673 396.945 525.744 396.967C523.639 403.022 538.487 425.4 542.847 429.406L545.724 433.697C545.237 435.693 545.163 436.794 543.583 438.162C539.762 433.952 535.607 426.08 532.439 425.342C523.709 413.241 503.445 401.436 500.763 391.025L500.401 390.449L500.934 388.635C504.489 392.981 507.04 395.916 509.688 400.918Z"/><path fill="#2B4E50" transform="scale(1.33333 1.33333)" d="M520.151 438.84C524.964 440.834 528.007 440.507 531.9 444.451C532.789 447.763 529.27 451.962 533.95 456.505C534.529 455.038 534.492 454.832 534.583 453.231C535.88 452.801 536.796 453.4 538.339 453.882C539.263 458.884 534.896 460.83 538.303 464.754C540.046 465.231 540.837 465.45 542.63 465.621C546.003 469.5 541.553 474.816 547.765 474.427C549.307 474.331 549.278 474.495 550.026 475.251L549.557 476.05C547.915 476.147 546.426 476.256 544.774 476.219C532.749 464.446 528.061 451.915 520.151 438.84Z"/><path fill="#4D584E" transform="scale(1.33333 1.33333)" d="M532.439 425.342C535.607 426.08 539.762 433.952 543.583 438.162C546.629 442.57 551.275 443.434 551.909 448.21C551.199 450.638 550.214 451.285 548.39 452.961C545.391 447.237 549.583 446.882 540.786 440.552C539.546 439.659 535.094 428.357 532.439 425.342Z"/><path fill="#4D584E" transform="scale(1.33333 1.33333)" d="M565.675 362.87L567.055 361.558C569.654 361.954 569.619 364.93 571.919 366.845L573.198 367.316C573.077 368.137 573.175 367.908 572.82 368.647C577.732 376.834 586.506 384.665 593.36 391.513C597.73 390.649 595.879 392.067 598.718 392.216L598.373 391.871C601.243 393.524 605.497 396.164 606.821 399.234C608.185 398.281 608.605 397.074 609.39 395.569L609.29 396.302C609.009 398.428 608.743 399.384 609.83 401.293C611.468 402.797 614.211 404.242 616.491 403.822L616.843 402.699C616.156 401.895 616.021 401.992 614.968 401.701L615.089 400.53L616.205 400.237C617.724 401.976 617.269 401.149 617.744 403.643C616.435 406.726 616.005 406.946 612.46 407.474C612.205 410.275 614.19 408.681 613.147 411.953C604.393 413.257 594.213 396.218 589.091 395.863C588.509 396.638 588.141 397.129 587.625 397.964C584.07 392.964 582.711 386.176 575.894 385.492L575.172 384.723C573.309 386.054 574.187 385.777 571.852 385.725C572.737 386.934 572.883 386.938 574.269 387.618C575.975 394.383 575.92 397.124 579.729 402.979L579.176 403.815L578.131 403.47C578 403.165 576.546 399.765 576.515 399.753C572.977 398.317 567.86 393.816 564.505 392.854C564.714 390.168 564.938 389.468 563.094 387.667C559.13 387.788 557.657 388.065 556.482 383.831L556.391 383.491L554.686 382.802C553.971 381.421 553.854 380.934 552.51 379.832C551.098 378.675 546.064 374.271 545.907 372.763C545.586 369.665 546.121 370.648 544.338 368.206C546.024 366.427 547.007 364.854 549.253 364.464L550.134 365.292L550.176 366.926C551.319 368.68 551.928 370.632 553.02 372.429C558.066 380.73 568.395 382.331 566.992 369.586C566.698 366.922 567.536 365.451 565.675 362.87Z"/><path fill="#ECD5A6" transform="scale(1.33333 1.33333)" d="M565.675 362.87L567.055 361.558C569.654 361.954 569.619 364.93 571.919 366.845L573.198 367.316C573.077 368.137 573.175 367.908 572.82 368.647C577.732 376.834 586.506 384.665 593.36 391.513C597.851 394.583 599.01 396.64 602.139 400.994C595.822 397.068 576.802 378.631 570.766 379.57L569.888 380.863C569.529 383.833 570.474 386.834 571.184 389.762L570.28 390.37C565.191 388.676 553.148 376.775 550.394 371.504C549.184 369.189 549.483 368.922 550.176 366.926C551.319 368.68 551.928 370.632 553.02 372.429C558.066 380.73 568.395 382.331 566.992 369.586C566.698 366.922 567.536 365.451 565.675 362.87Z"/><path fill="#ECD5A6" transform="scale(1.33333 1.33333)" d="M539.391 401.711C543.837 397.665 542.506 393.325 545.147 388.964C549.932 392.312 557.161 410.268 561.386 415.398C564.373 419.025 572.839 426.259 577.318 426.441C580.819 424.437 577.113 422.24 578.57 418.805C580.375 417.921 581.338 417.259 583.348 417.189C591.814 430.296 593.673 432.886 605.613 444.699C603.17 445.463 602.327 445.545 601.688 448.334L601.253 448.376C599.145 446.739 590.59 443.369 587.559 441.733C577.846 436.492 571.268 431.501 563.214 424.162C555.851 418.009 548.102 411.469 540.915 405.076C539.521 403.836 539.352 403.205 539.391 401.711Z"/><path fill="#384A45" transform="scale(1.33333 1.33333)" d="M479.244 346.662L479.489 347.902L480.497 348.325C482.219 346.437 484.056 344.013 486.542 343.772C487.899 344.744 488.39 345.014 490.07 345.055C495.099 346.8 502.1 367.3 506 372.271C506.215 372.544 506.564 374.253 506.629 374.694C502.528 372.531 499.498 368.917 498.339 364.413L498.158 363.692C496.414 363.37 493.675 364.391 492.237 364.554C491.615 364.625 491.504 363.367 489.077 363.657L487.613 366.288C488.626 367.568 489.173 368.951 489.872 370.431L492.087 369.736C495.861 376.065 492.238 378.874 499.602 382.816C500.462 383.277 501.077 387.302 500.934 388.635L500.401 390.449L500.763 391.025C495.516 397.345 499.985 394.851 498.936 399.107L496.356 400.228C495.234 404.017 498.216 407.734 497.324 410.392C495.187 406.504 493.159 402.713 491.561 398.551C490.426 395.596 491.784 394.793 489.802 392.671C486.784 389.429 483.185 374.024 484.031 370.306C486.735 358.412 479.291 357.857 479.244 346.662Z"/><path fill="#2B4E50" transform="scale(1.33333 1.33333)" d="M489.872 370.431L492.087 369.736C495.861 376.065 492.238 378.874 499.602 382.816C500.462 383.277 501.077 387.302 500.934 388.635L500.401 390.449L500.763 391.025C495.516 397.345 499.985 394.851 498.936 399.107L496.356 400.228C495.234 404.017 498.216 407.734 497.324 410.392C495.187 406.504 493.159 402.713 491.561 398.551C490.426 395.596 491.784 394.793 489.802 392.671C490.512 390.318 490.724 388.862 492.581 387.073C496.12 383.665 494.98 386.144 497.989 385.562L498.302 384.252C495.893 383.565 492.778 384.708 489.929 385.006C488.711 382.968 486.629 378.878 486.909 376.425C487.224 373.662 488.607 373.382 490.764 371.487L489.872 370.431Z"/><path fill="#274546" transform="scale(1.33333 1.33333)" d="M487.445 355.421C489.453 355.859 489.67 355.962 491.112 357.423C491.68 359.923 491.739 358.879 490.77 361.38L489.287 360.788C487.956 358.485 487.714 358.131 487.445 355.421Z"/><path fill="#EEDFB9" transform="scale(1.33333 1.33333)" d="M596.286 352.576L597.586 351.618C602.283 354.45 618.592 371.014 623.263 373.707C629.199 373.909 635.258 374.347 638.622 380.135C638.24 383.78 642.357 384.722 641.645 387.345C639.172 387.587 640.007 387.885 637.902 386.188L637.322 385.711L636.72 386.14C636.52 385.556 636.621 385.89 636.442 385.131L636.551 386.64C636.27 386.68 635.668 386.807 635.438 386.747L631.562 384.881C629.249 382.578 622.77 379.54 619.576 377.987C614.667 368.602 612.131 377.95 603.05 370.137C604.257 367.175 597.77 363.746 597.328 361.649C596.757 358.945 597.225 356.487 596.412 353.087L596.286 352.576Z"/><path fill="#EFAA2B" transform="scale(1.33333 1.33333)" d="M623.263 373.707C629.199 373.909 635.258 374.347 638.622 380.135C638.24 383.78 642.357 384.722 641.645 387.345C639.172 387.587 640.007 387.885 637.902 386.188L637.322 385.711L636.72 386.14C636.52 385.556 636.621 385.89 636.442 385.131L636.551 386.64C636.27 386.68 635.668 386.807 635.438 386.747C635 383.731 626.029 376.233 623.263 373.707Z"/><path fill="#384A45" transform="scale(1.33333 1.33333)" d="M584.423 338.828C589.267 337.872 588.077 338.87 592.102 338.947C593.122 337.999 593.48 337.856 594.814 337.44L595.707 342.071L595.369 342.712C595.136 344.418 593.027 354.116 592.392 355.635C592.061 354.573 591.746 354.371 591.007 353.538C583.719 352.272 577.228 349.269 576.248 341.429L578.151 341.616L578.586 341.317C578.679 339.818 578.753 339.854 579.513 338.632C581.807 338.066 581.509 338.412 584.106 339.318L584.423 338.828Z"/><path fill="#EEDFB9" transform="scale(1.33333 1.33333)" d="M578.586 341.317C578.679 339.818 578.753 339.854 579.513 338.632C581.807 338.066 581.509 338.412 584.106 339.318C584.65 341.556 585.183 342.961 584.642 345.234L583.793 346.204C580.341 345.889 580.224 343.474 578.586 341.317Z"/><path fill="#45524C" transform="scale(1.33333 1.33333)" d="M595.369 342.712C595.962 346.448 596.131 348.787 596.286 352.576L596.412 353.087C597.225 356.487 596.757 358.945 597.328 361.649C597.77 363.746 604.257 367.175 603.05 370.137C600.207 371.118 601.23 372.44 598.716 372.858L598.182 372.314C598.63 371.767 599.077 371.22 599.524 370.673C596.848 367.129 594.432 363.225 592.312 359.328C592.31 359.325 592.385 355.956 592.392 355.635C593.027 354.116 595.136 344.418 595.369 342.712Z"/><path fill="#ECD5A6" transform="scale(1.33333 1.33333)" d="M630.519 385.722C632.972 388.607 639.713 400.349 637.051 403.643C632.847 399.585 630.202 393.215 629.203 387.529L630.519 385.722Z"/><path fill="#384A45" transform="scale(1.33333 1.33333)" d="M554.686 382.802L556.391 383.491L556.482 383.831C557.657 388.065 559.13 387.788 563.094 387.667C564.938 389.468 564.714 390.168 564.505 392.854C562.662 393.657 559.791 393.154 557.864 392.701C560.807 387.633 554.993 389.414 552.762 386.05C554.583 384.191 554.195 385.039 554.686 382.802Z"/><path fill="#45524C" transform="scale(1.33333 1.33333)" d="M628.781 437.409L628.09 436.98C628.099 435.168 628.119 434.881 627.419 433.222C625.647 431.785 625.072 431.21 623.554 429.538L623.786 428.762C627.887 429.889 627.685 434.535 632.769 434.119C634.47 432.994 634.728 432.268 635.6 430.488L635.88 429.907C638.029 429.963 639.545 429.74 641.658 429.495L638.968 432.178C635.083 434.608 629.473 434.922 628.781 437.409Z"/><path fill="#ECD5A6" transform="scale(1.33333 1.33333)" d="M605.613 444.699C607.068 445.599 612.001 448.378 613.061 449.18L612.56 449.206C610.571 449.294 610.039 449.269 608.095 448.929C607.069 450.314 607.383 449.843 607.128 451.728C606.513 451.683 603.212 449.131 601.688 448.334C602.327 445.545 603.17 445.463 605.613 444.699Z"/><path fill="#384A45" transform="scale(1.33333 1.33333)" d="M614.731 412.489L615.93 412.743C619.327 416.041 624.049 419.242 622.25 424.425C620.268 425.674 620.464 425.186 617.504 424.724L618.463 421.127L620.71 421.031L621.124 419.93C618.091 418.556 616.354 419.38 614.401 417.103C613.55 414.24 613.512 415.463 614.731 412.489Z"/><path fill="#134247" transform="scale(1.33333 1.33333)" d="M542.847 429.406C538.487 425.4 523.639 403.022 525.744 396.967C527.673 396.945 533.861 400.985 536.184 402.323L536.364 401.468C538.4 401.032 537.624 400.906 539.391 401.711C539.352 403.205 539.521 403.836 540.915 405.076C548.102 411.469 555.851 418.009 563.214 424.162C571.268 431.501 577.846 436.492 587.559 441.733C590.59 443.369 599.145 446.739 601.253 448.376L601.688 448.334C603.212 449.131 606.513 451.683 607.128 451.728C614.806 456.184 631.394 463.282 640.123 464.439C642.544 464.062 643.238 464.079 645.576 464.326C654.772 465.299 665.288 465.614 659.94 477.882C651.177 481.104 647.918 479.385 644.64 480.331C642.574 479.059 635.175 479.246 632.265 479.165L631.842 479.163L631.147 481.449C628.69 483.005 615.652 478.875 611.551 478.744C607.999 478.564 609.124 479.048 606.178 477.219C608.586 477.067 612.634 477.184 614.385 475.967C614.073 473.583 612.295 471.802 610.837 469.533C604.133 465.972 604.233 462.822 597.445 459.383C590.115 466.635 581.829 462.518 573.828 458.637C568.005 457.559 549.073 439.179 545.724 433.697L542.847 429.406Z"/><path fill="#384A45" transform="scale(1.33333 1.33333)" d="M542.847 429.406C538.487 425.4 523.639 403.022 525.744 396.967C527.673 396.945 533.861 400.985 536.184 402.323L536.364 401.468C538.4 401.032 537.624 400.906 539.391 401.711C539.352 403.205 539.521 403.836 540.915 405.076C548.102 411.469 555.851 418.009 563.214 424.162L560.453 426.297L559.301 425.703C557.962 420.561 554.967 420.958 551.162 417.331C548.276 414.579 544.994 411.425 540.715 411.416C536.159 413.972 540.542 422.238 542.149 425.785C543.496 425.98 543.749 425.861 545.034 425.578L545.571 426.34C544.728 428.164 543.94 426.971 542.847 429.406Z"/><path fill="#384A45" transform="scale(1.33333 1.33333)" d="M601.253 448.376L601.688 448.334C603.212 449.131 606.513 451.683 607.128 451.728C614.806 456.184 631.394 463.282 640.123 464.439C624.561 469.383 626.335 463.362 613.366 458.134C611.504 457.384 605.525 459.421 603.651 456.103C601.908 453.018 600.849 451.795 601.253 448.376Z"/><path fill="#ECD5A6" transform="scale(1.33333 1.33333)" d="M610.837 469.533C615.593 472.65 618.58 474.903 624.097 476.658C626.537 477.434 629.657 478.148 631.842 479.163L631.147 481.449C628.69 483.005 615.652 478.875 611.551 478.744C607.999 478.564 609.124 479.048 606.178 477.219C608.586 477.067 612.634 477.184 614.385 475.967C614.073 473.583 612.295 471.802 610.837 469.533Z"/><path fill="#384A45" transform="scale(1.33333 1.33333)" d="M573.828 458.637C582.763 455.53 586.863 461.117 591.51 458.501C591.245 455.851 590.965 456.906 592.734 454.581L593.791 454.195C595.638 455.663 596.303 457.299 597.445 459.383C590.115 466.635 581.829 462.518 573.828 458.637Z"/><path fill="#8D8363" transform="scale(1.33333 1.33333)" d="M673.124 425.856C673.247 424.75 673.204 425.124 673.803 424.081C674.878 424.045 675.037 424.113 676.032 423.74C675.301 422.75 674.763 422.323 673.867 421.515L674.157 420.243C680.501 423.842 687.608 427.801 694.172 431.003C701.503 434.578 710.565 443.39 718.186 444.213C720.356 445.466 726.334 449.751 727.199 451.97C729.313 454.215 730.92 455.237 730.792 457.988C730.742 459.047 736.502 459.04 737.041 459.792C738.626 461.037 741.572 465.351 742.402 466.946C738.893 466.815 735.717 466.147 732.277 465.519C727.864 467.904 725.223 464.732 721.898 469.661C721.705 472.328 721.481 471.341 722.516 473.587C719.332 471.6 712.122 465.197 709.529 467.762C704.645 472.591 689.699 472.143 684.591 468.587C676.734 468.491 677.7 465.719 672.894 464.837C664.196 463.12 654.218 455.499 647.702 449.762C642.911 445.922 638.662 437.108 643.542 431.948L642.085 431.115L638.968 432.178L641.658 429.495C642.69 427.256 641.499 426.566 642.881 424.347C647.316 424.819 661.954 440.889 670.752 439.075C675.282 438.861 672.874 440.761 676.627 440.721L677.615 439.047C680.35 440.022 679.764 440.879 681.425 442.391C684.782 445.446 694.35 451.121 698.613 447.672C698.976 447.378 700.716 441.782 700.799 441.274C699.644 440.38 694.746 438.441 693.055 437.805C686.141 435.208 679.229 428.763 673.124 425.856Z"/><path fill="#134247" transform="scale(1.33333 1.33333)" d="M643.542 431.948C644.428 430.827 644.304 430.592 645.44 430.2C646.029 431.39 646.012 431.621 646.261 432.894C647.261 433.55 646.823 433.044 647.633 433.229C650.09 433.79 660.006 438.776 662.083 439.991C671.013 445.211 697.756 453.908 704.108 459.202C704.387 461.263 704.324 460.583 703.032 462.809L703.559 463.144L705.101 462.395L706.084 462.852L706.271 464.37C705.893 464.779 705.365 465.567 704.805 465.661C700.529 466.378 700.98 469.637 697.299 465.54L696.642 467.285C693.1 467.065 690.049 466.546 686.922 468.14C686.436 468.388 685.189 468.523 684.591 468.587C676.734 468.491 677.7 465.719 672.894 464.837C664.196 463.12 654.218 455.499 647.702 449.762C642.911 445.922 638.662 437.108 643.542 431.948Z"/><path fill="#384A45" transform="scale(1.33333 1.33333)" d="M647.702 449.762C649.734 449.027 650.888 448.375 652.979 449.019C655.704 450.791 655.315 453.76 657.667 455.642C661.295 458.545 670.238 461.619 672.894 464.837C664.196 463.12 654.218 455.499 647.702 449.762Z"/><path fill="#EEDFB9" transform="scale(1.33333 1.33333)" d="M714.35 453.51C712.575 451.279 708.381 450.101 705.782 446.754C705.842 444.707 705.526 445.194 706.567 443.829C710.15 443.957 714.508 448.674 717.154 451.197C719.433 452.719 722.616 455.283 725.172 455.333L726.501 454.765L727.199 451.97C729.313 454.215 730.92 455.237 730.792 457.988C730.742 459.047 736.502 459.04 737.041 459.792C738.626 461.037 741.572 465.351 742.402 466.946C738.893 466.815 735.717 466.147 732.277 465.519C730.216 465.1 713.316 462.05 713.065 461.904C714.033 460.331 715.193 459.16 716.426 457.787C716.384 455.603 715.828 455.577 714.35 453.51Z"/><path fill="#384A45" transform="scale(1.33333 1.33333)" d="M670.752 439.075C675.282 438.861 672.874 440.761 676.627 440.721L677.615 439.047C680.35 440.022 679.764 440.879 681.425 442.391C684.782 445.446 694.35 451.121 698.613 447.672C698.976 447.378 700.716 441.782 700.799 441.274C707.072 445.768 701.048 446.058 704.884 451.271C705.098 453.25 705.307 453.913 704.706 455.803L703.561 456.204C698.565 453.733 693.306 451.03 688.381 448.448C683.607 445.946 673.372 443.205 670.752 439.075Z"/><path fill="#134247" transform="scale(1.33333 1.33333)" d="M684.724 482.267C687.745 482.416 690.03 482.494 693.047 482.37L693.045 481.611L694.073 480.938C698.478 487.529 705.571 480.794 710.683 484.568L711.079 485.7C708.716 487.964 707.589 488.558 706.847 491.703L707.779 493.326C704.263 495.341 704.746 493.496 701.598 494.721C698.848 495.825 696.132 498.543 693.342 499.428C683.092 502.681 671.785 500.763 661.553 498.365C660.135 498.033 659.223 496.936 658.036 497.118C656.536 491.273 657.11 493.693 652.388 489.859L652.474 488.468C653.136 488.154 653.633 487.91 654.277 487.549L654.785 487.258C660.68 486.378 664.568 485.698 670.656 486.319C672.494 486.507 675.108 487.446 676.668 487.522L676.84 486.688C676.395 485.826 676.335 485.872 676.402 484.919L679.328 482.852L684.724 482.267Z"/><path fill="#384A45" transform="scale(1.33333 1.33333)" d="M679.328 482.852L684.724 482.267C685.459 484.943 685.482 483.843 684.71 486.435C681.986 488.687 679.707 486.951 676.668 487.522L676.84 486.688C676.395 485.826 676.335 485.872 676.402 484.919L679.328 482.852Z"/><path fill="#134247" transform="scale(1.33333 1.33333)" d="M599.799 475.571C602.973 476.938 603.387 477.778 606.178 477.219C609.124 479.048 607.999 478.564 611.551 478.744L610.538 480.536C613.358 484.098 620.564 480.307 624.885 482.039C626.1 484.256 624.93 485.736 625.26 486.359C626.445 488.592 628.372 488.099 629.268 491.279C628.618 493.463 629.127 492.697 627.307 494.147C625.119 494.532 624.398 494.606 622.18 494.582C621.743 495.709 622.121 496.605 622.398 497.822L622.01 498.782C610.801 501.385 612.819 496.378 603.379 496.935C599.579 497.16 597.504 495.31 594.502 493.577C596.203 492.947 595.632 493.225 596.915 491.72C596.841 487.551 591.952 486.298 588.616 485.576C597.595 485.828 599.016 483.45 599.799 475.571Z"/><path fill="#4D584E" transform="scale(1.33333 1.33333)" d="M611.551 478.744C615.652 478.875 628.69 483.005 631.147 481.449L631.842 479.163L632.265 479.165C635.175 479.246 642.574 479.059 644.64 480.331L644.941 482.597C651.025 483.503 656.445 483.969 662.576 483.675C667.468 483.441 674.774 482.314 679.328 482.852L676.402 484.919C676.335 485.872 676.395 485.826 676.84 486.688L676.668 487.522C675.108 487.446 672.494 486.507 670.656 486.319C664.568 485.698 660.68 486.378 654.785 487.258L654.277 487.549C653.633 487.91 653.136 488.154 652.474 488.468L652.388 489.859C657.11 493.693 656.536 491.273 658.036 497.118C652.793 492.387 647.995 494.533 644.139 490.945C641.821 490.146 641.711 489.714 639.474 490.124C635.378 496.932 630.279 500.203 622.01 498.782L622.398 497.822C622.121 496.605 621.743 495.709 622.18 494.582C624.398 494.606 625.119 494.532 627.307 494.147C629.127 492.697 628.618 493.463 629.268 491.279C628.372 488.099 626.445 488.592 625.26 486.359C624.93 485.736 626.1 484.256 624.885 482.039C620.564 480.307 613.358 484.098 610.538 480.536L611.551 478.744Z"/><path fill="#384A45" transform="scale(1.33333 1.33333)" d="M644.139 490.945C646.006 489.47 647.441 490.417 648.937 488.372C647.444 487.247 646.855 486.956 645.858 485.423C651.045 485.228 647.971 486.64 651.687 485.431C652.201 486.08 652.313 486.173 652.943 486.713L654.439 486.022L654.785 487.258L654.277 487.549C653.633 487.91 653.136 488.154 652.474 488.468L652.388 489.859C657.11 493.693 656.536 491.273 658.036 497.118C652.793 492.387 647.995 494.533 644.139 490.945Z"/><path fill="#8D8363" transform="scale(1.33333 1.33333)" d="M632.265 479.165C635.175 479.246 642.574 479.059 644.64 480.331L644.941 482.597C640.932 481.767 635.039 481.784 632.265 479.165Z"/><path fill="#EEC476" transform="scale(1.33333 1.33333)" d="M748.325 630.436C754.982 629.494 754.516 629.188 760.131 625.837C761.53 625.003 766.884 628.619 769.666 624.553C769.196 623.211 768.787 621.983 768.383 620.62C772.581 615.575 774.199 610.699 779.232 609.585C778.971 614.84 770.929 650.926 768.623 656.574C764.796 651.751 769.823 644.665 770.088 640.375C770.474 634.126 752.556 630.808 748.325 630.436Z"/><path fill="#274546" transform="scale(1.33333 1.33333)" d="M574.553 478.434C574.507 476.625 574.383 475.661 574.098 473.871C572.409 472.367 572.076 472.008 570.792 470.15C571.792 468.294 571.546 467.424 570.988 465.427L570.858 464.978C572.265 465.799 572.548 466.48 573.115 468.107C574.507 472.098 588.847 472.74 591.389 471.252C593.716 471.142 598.512 473.735 599.799 475.571C599.016 483.45 597.595 485.828 588.616 485.576C584.688 483.543 579.777 481.382 575.652 479.317L574.553 478.434Z"/><path fill="#274546" transform="scale(1.33333 1.33333)" d="M722.516 473.587C721.481 471.341 721.705 472.328 721.898 469.661C725.223 464.732 727.864 467.904 732.277 465.519C735.717 466.147 738.893 466.815 742.402 466.946L747.005 468.828C747.548 470.577 748.039 472.394 748.829 474.035C740.808 479.113 729.322 473.082 722.516 473.587Z"/><path fill="#EEDFB9" transform="scale(1.33333 1.33333)" d="M780.399 534.474C780.932 532.347 781.029 531.625 782.28 529.732L783.664 529.707L786.878 530.112L787.373 531.333L786.734 531.174C791.55 537.779 789.281 535.816 789.933 542.106L788.08 542.937C787.582 544.612 787.528 543.829 788.113 545.367L789.032 546.348C787.81 546.274 781.137 544.219 779.642 542.949L779.594 542.607C779.185 539.905 779.289 539.648 780.57 537.332L780.399 534.474Z"/><path fill="#F7F6EB" transform="scale(1.33333 1.33333)" d="M780.399 534.474C780.932 532.347 781.029 531.625 782.28 529.732L783.664 529.707C785.463 532.122 787.171 534.075 786.267 537.255C784.171 538.745 782.892 538.382 780.57 537.332L780.399 534.474Z"/><path fill="#EEDFB9" transform="scale(1.33333 1.33333)" d="M779.642 542.949C781.781 542.184 783.882 541.065 785.899 541.676C786.581 543.112 786.659 543.202 786.8 544.76L788.113 545.367L789.032 546.348C787.81 546.274 781.137 544.219 779.642 542.949Z"/><path fill="#45524C" transform="scale(1.33333 1.33333)" d="M570.888 462.544C576.547 466.473 584.765 469.17 591.389 471.252C588.847 472.74 574.507 472.098 573.115 468.107C572.548 466.48 572.265 465.799 570.858 464.978L570.988 465.427C571.546 467.424 571.792 468.294 570.792 470.15C572.076 472.008 572.409 472.367 574.098 473.871C574.383 475.661 574.507 476.625 574.553 478.434C569.091 473.813 568.343 472.712 564.398 466.913C566.531 465.412 568.695 463.955 570.888 462.544Z"/><path fill="#ECD5A6" transform="scale(1.33333 1.33333)" d="M792.585 517.125L794.569 517.45C795.79 520.113 794.74 524.243 793.752 526.978C792.836 526.439 792.906 526.338 792.388 525.38C787.765 525.724 787.41 528.417 784.838 528.436L783.664 529.707L782.28 529.732C781.029 531.625 780.932 532.347 780.399 534.474C780.182 533.04 780.067 531.22 779.929 529.744L780.053 529.24L782.199 522.054C784.191 520.795 784.405 520.424 785.171 518.308L785.361 517.768L786.786 517.144C787.716 519.743 787.105 518.792 789.271 520.707C791.076 519.429 791.319 518.964 792.585 517.125Z"/><path fill="#EEDFB9" transform="scale(1.33333 1.33333)" d="M782.199 522.054C784.191 520.795 784.405 520.424 785.171 518.308L785.361 517.768L786.786 517.144C787.716 519.743 787.105 518.792 789.271 520.707L790.404 521.259L790.097 522.288C785.268 523.159 784.222 525.807 781.633 528.718L780.053 529.24L782.199 522.054Z"/><path fill="#4D584E" transform="scale(1.33333 1.33333)" d="M694.073 480.938C695.465 480.869 696.227 480.908 697.533 480.993C700.637 481.198 705.209 478.568 708.256 478.705C716.946 479.096 717.429 488.225 710.464 491.515L709.677 490.277C708.789 490.844 707.846 491.608 706.847 491.703C707.589 488.558 708.716 487.964 711.079 485.7L710.683 484.568C705.571 480.794 698.478 487.529 694.073 480.938Z"/><path fill="#45524C" transform="scale(1.33333 1.33333)" d="M575.652 479.317C579.777 481.382 584.688 483.543 588.616 485.576C591.952 486.298 596.841 487.551 596.915 491.72C595.632 493.225 596.203 492.947 594.502 493.577C588.83 491.358 579.199 484.412 575.652 479.317Z"/><path fill="#F7F6EB" transform="scale(1.33333 1.33333)" d="M785.081 475.209C787.508 475.323 789.23 475.023 790.918 477.084C793.25 479.931 794.235 482.206 792.266 485.291C789.913 485.879 789.663 485.547 787.497 484.175C786.828 480.597 786.233 478.685 785.081 475.209Z"/><path fill="#4D584E" transform="scale(1.33333 1.33333)" d="M564.398 466.913C562.053 464.841 561.953 465.439 561.588 462.97C563.887 459.106 567.765 460.892 570.888 462.544C568.695 463.955 566.531 465.412 564.398 466.913Z"/><path fill="#F7F6EB" transform="scale(1.33333 1.33333)" d="M786.786 517.144C786.678 515.98 786.682 515.243 786.697 514.098L787.706 513.393C789.789 513.911 791.08 515.573 792.585 517.125C791.319 518.964 791.076 519.429 789.271 520.707C787.105 518.792 787.716 519.743 786.786 517.144Z"/><path fill="#ECD5A6" transform="scale(1.33333 1.33333)" d="M789.933 542.106C792.399 542.54 796.027 540.823 797.942 542.19L797.849 543.264C796.005 544.337 793.968 543.914 791.83 543.403C790.922 544.477 790.866 544.87 790.413 546.163L789.032 546.348L788.113 545.367C787.528 543.829 787.582 544.612 788.08 542.937L789.933 542.106Z"/><path fill="#F7F6EB" transform="scale(1.33333 1.33333)" d="M727.301 510.028L725.959 508.878L725.023 509.417C725.477 512.218 726.258 513.385 725.368 515.937C723.917 517.285 723.647 517.382 721.783 518.076C718.79 515.01 720.241 505.668 724.257 503.312C726.171 503.59 726.654 503.856 728.428 504.658L729.064 504.38C730.936 503.572 731.508 503.171 733.536 503.394C736.018 505.248 735.558 508.994 734.047 511.357C731.537 512.8 732.673 512.582 729.777 512.148C728.6 512.004 727.625 511.169 727.301 510.028Z"/><path fill="#EEEAE8" transform="scale(1.33333 1.33333)" d="M727.301 510.028C726.945 508.777 727.45 507.441 728.545 506.739C729.64 506.037 731.065 506.135 732.053 506.981C733.041 507.827 733.359 509.221 732.834 510.411C732.31 511.601 731.067 512.307 729.777 512.148C728.6 512.004 727.625 511.169 727.301 510.028Z"/><path fill="#EEDFB9" transform="scale(1.33333 1.33333)" d="M651.093 561.021C649.791 561.258 648.776 561.49 647.496 561.826C645.588 560.777 645.371 560.622 644.182 558.804C642.119 549.849 651.661 553.717 654.849 552.416L655.738 553.11C655.774 554.953 655.946 556.118 656.194 557.916C657.734 563.137 656.498 564.358 652.107 567.08L651.404 566.696C650.927 563.737 651.903 563.927 651.093 561.021Z"/><path fill="#EEDFB9" transform="scale(1.33333 1.33333)" d="M651.093 561.021L651.921 559.447C653.613 558.616 654.363 558.436 656.194 557.916C657.734 563.137 656.498 564.358 652.107 567.08L651.404 566.696C650.927 563.737 651.903 563.927 651.093 561.021Z"/><path fill="#ECD5A6" transform="scale(1.33333 1.33333)" d="M714.885 536.007C719.533 536.065 728.9 543.511 728.163 544.705C724.319 550.925 731.834 551.595 733.999 557.904C733.584 560.005 730.009 563.4 728.217 564.78C727.57 561.192 728.811 561.238 731.217 558.593C730.39 554.105 726.126 554.314 724.096 551.181C724.733 550.778 725.198 550.52 725.854 550.161C728.08 542.086 716.084 541.417 714.147 537.961L714.885 536.007Z"/><path fill="#EEDFB9" transform="scale(1.33333 1.33333)" d="M663.511 617.778C663.114 614.955 665.805 612.65 667.728 610.747L668.053 607.421L668.812 606.847C670.554 608.262 670.423 611.281 670.424 613.389C671.552 614.668 672.131 614.998 673.539 615.993L673.341 616.992C671.705 617.661 671.329 617.559 669.515 617.565C670.283 620.178 671.085 622.231 668.888 624.288C665.319 623.483 664.81 620.888 663.511 617.778Z"/><path fill="#ECD5A6" transform="scale(1.33333 1.33333)" d="M663.511 617.778C665.71 616.728 666.758 615.737 668.823 616.019L669.515 617.565C670.283 620.178 671.085 622.231 668.888 624.288C665.319 623.483 664.81 620.888 663.511 617.778Z"/><path fill="#F7F6EB" transform="scale(1.33333 1.33333)" d="M770.139 550.888C768.563 551.23 765.833 554.127 764.834 555.486C762.708 555.642 763.456 555.9 761.971 554.714C761.844 552.428 761.587 553.337 763.142 551.32C767.376 549.985 769.431 545.66 772.11 545.766L772.816 547.412C777.099 551.591 778.88 558.255 779.916 563.974C776.537 557.81 775.561 555.532 770.139 550.888Z"/><path fill="#F7F6EB" transform="scale(1.33333 1.33333)" d="M730.472 476.706C733.384 476.956 735.104 477.277 737.482 478.964C739.188 482.215 738.824 482.228 737.847 486.107C737.163 486.33 736.7 486.168 735.904 486.083C733.818 483.93 731.283 479.591 730.472 476.706Z"/><path fill="#F7F6EB" transform="scale(1.33333 1.33333)" d="M764.429 535.407L766.811 536.418C769.866 539.624 767.416 542.959 765.284 545.808C762.35 543.434 762.885 538.495 764.429 535.407Z"/><path fill="#F7F6EB" transform="scale(1.33333 1.33333)" d="M678.165 586.976L678.701 586.598L679.387 586.793L678.881 588.804L680.332 587.425C682.262 587.135 683.682 587.425 684.78 589.11L682.883 590.54C680.237 591.868 676.615 592.877 674.753 589.851L675.413 588.072L676.815 588.532L678.165 586.976Z"/><path fill="#EEDFB9" transform="scale(1.33333 1.33333)" d="M736.461 490.53C738.89 491.504 738.971 491.04 739.894 492.973C739.525 495.596 737.513 497.114 736.136 500.672L735.905 501.278C735.145 500.064 734.412 498.832 733.707 497.585C734.606 496.613 735.531 495.764 736.492 494.858C736.578 493.356 736.513 492.022 736.461 490.53Z"/><path fill="#ECD5A6" transform="scale(1.33333 1.33333)" d="M666.588 589.364L667.521 590.783C667.25 592.743 667.212 593.067 667.553 595.009C668.487 595.994 668.839 596.235 669.312 597.539L667.273 597.041L665.272 598.443L663.959 598.156C662.688 594.352 664.393 592.127 666.588 589.364Z"/><path fill="#ECD5A6" transform="scale(1.33333 1.33333)" d="M716.742 554.718C719.565 555.15 721.228 556.083 722.947 558.304C723.58 560.41 723.834 560.726 723.297 562.751C722.008 561.197 718.311 558.458 716.407 556.721L716.742 554.718Z"/><path fill="#EEDFB9" transform="scale(1.33333 1.33333)" d="M759.851 568.316C762.616 570.955 761.387 574.28 759.089 576.693C758.569 576.663 758.187 576.248 757.616 575.86C756.997 573.653 758.775 571.302 759.851 568.316Z"/><path fill="#EEDFB9" transform="scale(1.33333 1.33333)" d="M639.945 555.014L640.872 555.422C641.191 557.036 637.656 561.045 636.082 563.774L634.862 563.029L634.875 561.09C635.969 558.567 637.962 556.942 639.945 555.014Z"/><path fill="#F7F6EB" transform="scale(1.33333 1.33333)" d="M747.459 559.674C749.859 561.123 751.384 565.366 750.947 568.164C747.749 565.389 745.197 563.845 747.459 559.674Z"/><path fill="#EEDFB9" transform="scale(1.33333 1.33333)" d="M686.796 598.831C687.834 599.322 688.205 599.705 689.109 600.402C689.179 602.71 688.635 602.591 686.934 604.824L685.257 605.075L684.441 604.164C684.5 601.955 685.591 600.663 686.796 598.831Z"/><path fill="#EEDFB9" transform="scale(1.33333 1.33333)" d="M672.475 573.167L675.044 573.256L675.625 573.95C673.866 575.945 674.269 575.383 671.443 576.281C669.874 576.284 668.763 576.096 667.834 574.915C669.514 573.145 669.506 573.656 672.475 573.167Z"/><path fill="#ECD5A6" transform="scale(1.33333 1.33333)" d="M705.168 545.813C709.828 544.968 710.249 544.442 713.046 548.1C710.242 547.949 706.653 548.296 705.168 545.813Z"/><path fill="#EEDFB9" transform="scale(1.33333 1.33333)" d="M703.039 538.576C704.416 538.558 706.069 538.364 707.466 538.243C709.48 539.24 708.863 538.875 709.807 541.604C708.571 541.444 705.326 540.616 703.963 540.304L703.039 538.576Z"/><path fill="#EEDFB9" transform="scale(1.33333 1.33333)" d="M733.488 591.032C735.575 590.783 737.325 590.415 739.343 591.052L739.442 592.401C736.241 592.893 735.605 593.248 733.488 591.032Z"/><path fill="#F3A12A" transform="scale(1.33333 1.33333)" d="M721.294 308.588C717.391 306.154 708.135 298.619 706.883 294.414L707.628 293.726C714.867 293.909 722.166 301.173 728.309 302.02L728.77 302.194C736.783 305.307 745.25 311.133 753.587 313.649C759.883 315.549 767.443 315.991 773.934 317.331C792.272 321.114 810.588 323.353 828.929 327.003C832.328 326.719 832.049 327.088 834.392 325.193C842.601 328.117 851.922 332.031 860.433 332.862C908.905 352.001 928.061 379.235 940.438 429.008C941.387 432.824 941.21 441.334 944.716 443.262C951.432 446.954 957.979 454.933 963.772 460.329C964.001 461.848 963.967 461.851 963.754 463.393C971.964 467.932 967.556 466.042 973.815 473.339C973.844 475.148 974.108 474.349 972.934 475.792C965.042 466.837 951.515 449.307 942.314 443.989C941.98 459.677 943.23 496.161 935.962 508.83C933.939 509.422 934.774 509.504 932.847 508.476C927.282 500.215 919.836 467.278 916.212 455.921C909.347 468.134 908.956 479.851 905.962 493.238C904.239 500.941 902.406 508.071 899.685 515.501C898.547 518.703 898.979 523.616 896.359 524.875C891.153 521.539 882.679 484.173 880.118 476.744C879.826 475.898 879.041 476.183 878.326 476.26C875.555 480.249 874.844 494.228 873.114 498.986C868.717 511.08 865.654 524.341 861.684 536.366C858.327 536.596 847.742 509.867 845.781 505.131C845.17 505.472 844.422 505.89 843.538 506.384C838.739 514.412 837.273 521.891 831.051 529.17L831.076 536.521C829.218 537.825 826.703 539.487 825.035 540.931C823.916 544.773 823.892 547.291 819.995 548.918C819.456 550.165 818.428 552.746 817.775 553.803C807.128 541.433 805.969 521.886 801.115 507.273C799.54 502.534 792.2 475.686 791.065 474.319L790.669 474.318C786.585 474.287 786.956 474.311 784.628 471.965L784.064 473.518L785.081 475.209C786.233 478.685 786.828 480.597 787.497 484.175C789.229 493.763 783.82 511.523 782.199 522.054L780.053 529.24L779.929 529.744C778.799 530.58 778.89 530.534 777.484 530.636C771.348 526.755 755.483 490.773 751.618 482.17C750.041 478.6 750.863 476.456 748.829 474.035C748.039 472.394 747.548 470.577 747.005 468.828L742.402 466.946C741.572 465.351 738.626 461.037 737.041 459.792C736.502 459.04 730.742 459.047 730.792 457.988C730.92 455.237 729.313 454.215 727.199 451.97C726.334 449.751 720.356 445.466 718.186 444.213C710.565 443.39 701.503 434.578 694.172 431.003C687.608 427.801 680.501 423.842 674.157 420.243L673.867 421.515C674.763 422.323 675.301 422.75 676.032 423.74C675.037 424.113 674.878 424.045 673.803 424.081C673.204 425.124 673.247 424.75 673.124 425.856C672.038 425.826 640.212 405.848 637.051 403.643C639.713 400.349 632.972 388.607 630.519 385.722L631.562 384.881L635.438 386.747C635.668 386.807 636.27 386.68 636.551 386.64L636.442 385.131C636.621 385.89 636.52 385.556 636.72 386.14L637.322 385.711L637.902 386.188C640.007 387.885 639.172 387.587 641.645 387.345C642.357 384.722 638.24 383.78 638.622 380.135C635.258 374.347 629.199 373.909 623.263 373.707C618.592 371.014 602.283 354.45 597.586 351.618L596.286 352.576C596.131 348.787 595.962 346.448 595.369 342.712L595.707 342.071C609.822 341.253 638.909 355.617 651.603 362.246C661.006 367.157 667.133 371.723 678.058 375.877C664.458 361.548 620.548 344.988 616.724 335.251L617.94 334.781C625.643 335.779 640.061 343.22 648.513 346.029C657.021 348.857 657.509 346.495 662.578 347.627C673.925 350.16 686.788 354.284 696.931 359.957C698.774 360.987 701.472 363.273 703.977 364.765C707.209 364.586 708.464 366.097 712.05 366.086C711.555 363.015 684.234 350.977 680.03 347.124C675.454 342.93 653.79 331.327 653.572 324.716C659.074 322.889 677.223 332.826 683.337 334.791C685.808 335.97 688.722 332.473 691.336 332.808C703.075 334.312 714.443 340.56 725.288 344.944C729.71 346.73 733.622 349.65 737.938 350.532L738.722 349.903C736.357 343.14 689.636 329.568 687.565 319.211L688.371 318.711C703.615 320.448 730.56 331.676 743.659 339.492C746.115 340.957 753.334 343.517 756.042 342.601L756.171 341.588C752.344 338.217 732.793 330.466 727.108 327.653C720.842 324.735 714.708 321.399 708.836 317.751C706.7 316.424 699.994 311.847 702.256 308.823C705.763 308.79 712.144 311.145 715.231 312.815C716.664 309.022 717.507 309.283 721.294 308.588Z"/><path fill="#E3982F" transform="scale(1.33333 1.33333)" d="M638.622 380.135C641.873 382.44 645.178 385.122 648.332 387.589L648.432 388.267L645.803 388.181L645.477 388.882C646.591 390.159 648.15 391.457 649.871 391.74C653.203 393.306 660.28 395.953 661.546 399.081L660.885 400.813L661.362 401.109C667.608 399.277 715.179 432.666 717.849 441.09L718.596 441.747L718.186 444.213C710.565 443.39 701.503 434.578 694.172 431.003C687.608 427.801 680.501 423.842 674.157 420.243L673.867 421.515C674.763 422.323 675.301 422.75 676.032 423.74C675.037 424.113 674.878 424.045 673.803 424.081C673.204 425.124 673.247 424.75 673.124 425.856C672.038 425.826 640.212 405.848 637.051 403.643C639.713 400.349 632.972 388.607 630.519 385.722L631.562 384.881L635.438 386.747C635.668 386.807 636.27 386.68 636.551 386.64L636.442 385.131C636.621 385.89 636.52 385.556 636.72 386.14L637.322 385.711L637.902 386.188C640.007 387.885 639.172 387.587 641.645 387.345C642.357 384.722 638.24 383.78 638.622 380.135Z"/><path fill="#F0DCAE" transform="scale(1.33333 1.33333)" d="M661.362 401.109C667.608 399.277 715.179 432.666 717.849 441.09C713.762 441.707 708.796 437.093 705.244 434.322C690.998 423.207 676.787 413.072 661.347 403.873C660.673 403.472 661.212 401.958 661.362 401.109Z"/><path fill="#645634" transform="scale(1.33333 1.33333)" d="M657.382 404.412C655.814 403.929 655.665 403.957 654.003 403.974L653.949 406.263C648.792 403.371 637.444 393.523 634.626 388.907L635.34 387.517C638.943 389.333 647.337 394.872 650.397 394.114L649.871 391.74C653.203 393.306 660.28 395.953 661.546 399.081L660.885 400.813C659.97 401.845 658.456 403.707 657.382 404.412Z"/><path fill="#F0DCAE" transform="scale(1.33333 1.33333)" d="M832.942 490.855C835.301 488.062 838.592 489.932 840.983 491.512C842.149 494.858 845.119 502.149 845.781 505.131C845.17 505.472 844.422 505.89 843.538 506.384C838.739 514.412 837.273 521.891 831.051 529.17L831.076 536.521C829.218 537.825 826.703 539.487 825.035 540.931C823.916 544.773 823.892 547.291 819.995 548.918C822.967 536.45 838.557 500.877 832.942 490.855Z"/><path fill="#EEDFB9" transform="scale(1.33333 1.33333)" d="M747.396 466.541L748.05 465.213C748.962 465.019 750.191 464.51 750.937 465.384C756.098 471.428 759.402 479.251 763.869 485.906C766.806 490.28 769.806 495.107 770.912 500.292L770.57 501.272C766.418 499.433 758.212 485.195 755.239 481.016L751.618 482.17C750.041 478.6 750.863 476.456 748.829 474.035C748.039 472.394 747.548 470.577 747.005 468.828L747.396 466.541Z"/><path fill="#EFAA2B" transform="scale(1.33333 1.33333)" d="M747.396 466.541C749.352 472.813 752.305 475.401 755.239 481.016L751.618 482.17C750.041 478.6 750.863 476.456 748.829 474.035C748.039 472.394 747.548 470.577 747.005 468.828L747.396 466.541Z"/><path fill="#EFAA2B" transform="scale(1.33333 1.33333)" d="M834.392 325.193C842.601 328.117 851.922 332.031 860.433 332.862C860.447 336.474 860.811 337.158 862.323 340.493C856.236 337.542 839.428 330.668 832.873 330.453C831.72 329.816 829.972 327.991 828.929 327.003C832.328 326.719 832.049 327.088 834.392 325.193Z"/><path fill="#EEDFB9" transform="scale(1.33333 1.33333)" d="M817.851 450.138C818.787 448.936 819.515 448.937 821.081 448.304C823.608 452.905 833.669 472.963 833.385 477.169C833.822 480.534 834.403 481.781 832.456 484.422C827.895 472.685 822.463 461.827 817.851 450.138Z"/><path fill="#EEDFB9" transform="scale(1.33333 1.33333)" d="M832.873 330.453C839.428 330.668 856.236 337.542 862.323 340.493C864.542 341.708 866.744 342.951 868.93 344.224C866.709 345.248 863.604 344.722 861.047 344.537C852.58 340.272 839.957 335.742 832.873 330.453Z"/><path fill="#EEDFB9" transform="scale(1.33333 1.33333)" d="M752.473 413.572C758.743 420.728 766.46 430.069 770.08 438.913C767.615 438.485 768.84 436.386 766.44 434.78L765.36 435.935C766.021 437.236 766.023 437.308 766.198 438.79L766.237 439.151C761.643 434.038 754.358 421.921 750.498 415.674L752.473 413.572Z"/><path fill="#ECD5A6" transform="scale(1.33333 1.33333)" d="M721.294 308.588C726.722 312.392 730.799 316.362 735.275 321.209C728.986 318.221 720.034 316.332 715.231 312.815C716.664 309.022 717.507 309.283 721.294 308.588Z"/><path fill="#ECD5A6" transform="scale(1.33333 1.33333)" d="M766.237 439.151L766.198 438.79C766.023 437.308 766.021 437.236 765.36 435.935L766.44 434.78C768.84 436.386 767.615 438.485 770.08 438.913C773.231 443.398 778.144 454.666 779.956 459.976L778.524 461.176C773.495 452.867 773.556 449.02 766.237 439.151Z"/><path fill="#ECD5A6" transform="scale(1.33333 1.33333)" d="M833.385 477.169C837.627 481.861 838.819 485.802 840.983 491.512C838.592 489.932 835.301 488.062 832.942 490.855C832.778 490.229 832.587 485.632 832.456 484.422C834.403 481.781 833.822 480.534 833.385 477.169Z"/><path fill="#EEC476" transform="scale(1.33333 1.33333)" d="M817.851 450.138C815.2 443.185 810.782 437.52 807.8 430.488C813.146 436.498 816.815 441.557 821.081 448.304C819.515 448.937 818.787 448.936 817.851 450.138Z"/><path fill="#ECD5A6" transform="scale(1.33333 1.33333)" d="M868.93 344.224C870.848 345.059 872.744 345.944 874.616 346.878L874.725 348.448L875.2 348.534C870.204 349.514 865.288 346.939 861.047 344.537C863.604 344.722 866.709 345.248 868.93 344.224Z"/><path fill="#EEC476" transform="scale(1.33333 1.33333)" d="M744.066 404.84C747.597 408.064 749.514 409.745 752.473 413.572L750.498 415.674C748.107 412.035 746.197 408.623 744.066 404.84Z"/><path fill="#EFAA2B" transform="scale(1.33333 1.33333)" d="M779.956 459.976C780.48 464.877 783.071 467.459 784.628 471.965L784.064 473.518C780.975 468.926 781.164 465.518 778.524 461.176L779.956 459.976Z"/><path fill="#EEDFB9" transform="scale(1.33333 1.33333)" d="M778.141 341.605C782.28 342.76 783.833 341.94 787.947 341.839C807.393 341.361 825.158 347.844 841.642 357.59C840.646 356.558 836.884 352.95 836.338 352.222C841.606 350.086 853.255 363.305 855.505 367.579L855.451 368.684C852.739 368.106 844.417 361.744 841.071 360.122C825.649 352.647 812.308 347.69 795.427 345.371C813.884 352.341 828.431 358.645 841.937 373.634C844.495 376.473 847.131 380.134 849.532 382.757C854.803 388.514 858.539 389.252 860.9 397.333L860.115 397.824C857.015 396.46 852.536 391.351 850.373 388.776C832.464 367.463 825.927 364.383 800.083 356.981C797.374 356.511 779.74 351.314 777.635 350.33C774.99 350.062 777.039 348.606 777.132 347.031C777.132 347.03 776.034 344.701 775.954 344.531L777.321 344.871L778.141 341.605Z"/><path fill="#ECD5A6" transform="scale(1.33333 1.33333)" d="M777.635 350.33C784.507 346.803 789.804 351.844 794.917 350.097C797.989 351.208 801.388 352.214 803.974 354.155C802.069 353.915 801.089 353.462 799.529 354.119C799.282 356.184 799.064 355.47 800.083 356.981C797.374 356.511 779.74 351.314 777.635 350.33Z"/><path fill="#EFAA2B" transform="scale(1.33333 1.33333)" d="M775.954 344.531L777.321 344.871C782.579 346.197 790 348.091 794.917 350.097C789.804 351.844 784.507 346.803 777.635 350.33C774.99 350.062 777.039 348.606 777.132 347.031C777.132 347.03 776.034 344.701 775.954 344.531Z"/><path fill="#EEDFB9" transform="scale(1.33333 1.33333)" d="M801.124 363.995C809.948 365.876 840.596 406.494 847.529 415.765C839.877 415.215 805.626 371.866 801.124 363.995Z"/><path fill="#EEDFB9" transform="scale(1.33333 1.33333)" d="M774.709 382.462C782.891 384.746 819.212 422.772 820.561 432.064C818.898 431.777 817.904 431.433 816.732 430.068C806.097 417.69 795.123 405.515 783.727 393.832C779.736 389.741 777.54 387.58 774.709 382.462Z"/><path fill="#ECD5A6" transform="scale(1.33333 1.33333)" d="M674.312 383.971C689.331 384.163 732.054 405.686 738.505 419.39C727.005 413.598 718.179 405.84 706.985 399.234C696.894 393.279 683.153 390.459 674.312 383.971Z"/><path fill="#ECD5A6" transform="scale(1.33333 1.33333)" d="M603.573 348.09C604.38 348.283 605.182 348.496 605.979 348.728C617.14 351.968 664.321 378.424 669.622 388.024C669.502 387.987 669.382 387.951 669.262 387.915C652.298 376.619 635.353 366.313 616.648 358.167C611.941 356.118 605.616 352.439 603.573 348.09Z"/><path fill="#EEDFB9" transform="scale(1.33333 1.33333)" d="M789.728 330.941C795.933 330.694 820.878 337.825 827.998 339.522C833.825 340.91 841.617 341.653 846.981 343.906C850.476 345.374 853.51 346.298 854.967 349.762C846.134 349.144 829.283 342.321 819.591 340.703C813.709 339.721 794.153 335.223 789.972 332.428L789.728 330.941Z"/><path fill="#F0DCAE" transform="scale(1.33333 1.33333)" d="M884.548 361.596C894.012 362.164 926.121 397.927 925.156 408.049C921.957 407.421 915.047 396.077 913.384 392.728C910.422 386.765 885.183 365.449 884.548 361.596Z"/><path fill="#F0DCAE" transform="scale(1.33333 1.33333)" d="M874.786 391.09C877.563 393.901 881.069 406.762 882.385 411.216C885.196 420.729 895.844 444.616 894.173 454.031C889.984 451.623 884.375 424.861 882.239 418.943C880.292 413.55 872.967 395.329 874.786 391.09Z"/><path fill="#EEDFB9" transform="scale(1.33333 1.33333)" d="M756.443 445.029C764.363 456.797 777.688 476.834 781.251 490.038C771.131 481.239 768.685 472.743 762.193 461.371C759.737 457.07 756.325 451.685 754.24 447.409L756.443 445.029Z"/><path fill="#EEDFB9" transform="scale(1.33333 1.33333)" d="M916.739 412.098C923.798 417.304 939.158 456.69 939.031 465.343C938.594 465.259 937.69 464.856 937.232 464.671C933.356 459.952 929.577 444.486 926.947 437.958C923.904 430.408 918.531 419.674 916.739 412.098Z"/><path fill="#ECD5A6" transform="scale(1.33333 1.33333)" d="M794.749 382.442C805.905 394.249 822.284 413.029 830.977 426.655L827.755 428.93C818.54 412.579 804.087 399.177 793.531 382.984L794.749 382.442Z"/><path fill="#EEDFB9" transform="scale(1.33333 1.33333)" d="M689.092 403.205C690.919 400.917 690.15 401.61 693.071 400.585C701.131 405.044 717.4 416.185 723.664 422.646L719.989 424.562C709.81 417.116 699.483 410.332 689.092 403.205Z"/><path fill="#EEDFB9" transform="scale(1.33333 1.33333)" d="M726.578 372.616C737.498 374.541 753.928 385.988 762.982 392.424C765.151 393.965 765.391 395.348 765.863 397.816C764.297 397.405 758.784 394.418 757.463 393.404C750.957 388.415 730.114 378.945 726.578 372.616Z"/><path fill="#EEDFB9" transform="scale(1.33333 1.33333)" d="M697.829 376.066C705.669 378.52 732.567 391.63 734.419 399.608C728.673 398.35 700.033 381.485 697.829 376.066Z"/><path fill="#ECD5A6" transform="scale(1.33333 1.33333)" d="M723.843 363.881C733.302 364.84 765.276 375.96 768.672 384.94C766.678 384.257 724.784 365.405 724.707 365.339C724.414 365.089 724.058 364.244 723.843 363.881Z"/><path fill="#F0DCAE" transform="scale(1.33333 1.33333)" d="M869.144 372.636C878.901 373.944 896.665 402.982 899.737 413.138C897.877 412.268 893.234 404.819 891.968 402.698C886.083 392.843 874.694 381.813 869.144 372.636Z"/><path fill="#EEDFB9" transform="scale(1.33333 1.33333)" d="M911.57 424.688L915.343 424.422C917.829 434.247 928.048 458.363 927.1 465.84L926.468 466.19C923.456 462.314 913.456 430.796 911.57 424.688Z"/><path fill="#F0DCAE" transform="scale(1.33333 1.33333)" d="M868.888 416.558C869.475 417.242 870.043 417.941 870.592 418.655C874.952 424.324 886.69 454.293 885.906 460.452L884.698 457.459C883.922 458.392 884.081 460.069 883.98 461.525C881.152 448.751 872.68 433.308 868.888 416.558Z"/><path fill="#EEDFB9" transform="scale(1.33333 1.33333)" d="M849.187 441.074C854.683 448.889 865.453 472.4 864.865 481.968C860.287 476.259 848.7 449.356 849.187 441.074Z"/><path fill="#EEDFB9" transform="scale(1.33333 1.33333)" d="M779.289 425.338C783.111 430.341 799.937 458.245 798.802 463.227L797.833 463.89C795.094 462.431 791.162 453.3 789.83 450.268C786.184 441.968 782.485 435.003 777.359 427.57L779.289 425.338Z"/><path fill="#EEDFB9" transform="scale(1.33333 1.33333)" d="M772.785 375.317C768.546 374.56 748.201 363.727 744.752 359.806L745.175 359.238C753.434 360.066 768.422 368.131 775.51 372.513L772.785 375.317Z"/><path fill="#EEDFB9" transform="scale(1.33333 1.33333)" d="M743.683 320.289C751.878 320.224 776.677 329.061 782.879 334.852C773.82 335.029 751.298 325.749 743.683 320.289Z"/><path fill="#F0DCAE" transform="scale(1.33333 1.33333)" d="M731.528 432.407C735.65 434.201 750.603 458.851 749.619 462.719L747.765 462.788C743.191 460.556 731.096 436.009 731.528 432.407Z"/><path fill="#EEDFB9" transform="scale(1.33333 1.33333)" d="M831.55 448.762C835.93 451.046 846.759 482.537 846.378 488.152C845.715 488.054 845.187 487.708 844.562 487.397C840.872 482.354 833.539 455.783 831.55 448.762Z"/><path fill="#F0DCAE" transform="scale(1.33333 1.33333)" d="M698.034 343.349C706.403 346.545 728.038 352.598 731.87 359.828C724.354 359.307 702.857 349.225 698.034 343.349Z"/><path fill="#F0DCAE" transform="scale(1.33333 1.33333)" d="M762.047 350.661C767.929 352.05 794.914 361.353 797.352 366.184C790.591 365.555 764.518 356.406 762.047 350.661Z"/><path fill="#EEDFB9" transform="scale(1.33333 1.33333)" d="M883.98 461.525C884.081 460.069 883.922 458.392 884.698 457.459L885.906 460.452C887.814 467.472 893.44 483.336 891.813 489.209L890.994 489.511C887.621 486.007 884.854 466.808 883.98 461.525Z"/><path fill="#EEDFB9" transform="scale(1.33333 1.33333)" d="M811.947 492.861C816.393 496.455 818.712 514.685 818.139 520.378C816.448 520.424 817.209 520.622 815.763 519.808C813.185 514.595 811.633 498.662 811.947 492.861Z"/><path fill="#EEDFB9" transform="scale(1.33333 1.33333)" d="M866.356 437.669C869.957 440.615 875.116 455.644 874.503 460.373L873.537 460.31C868.784 455.602 866.646 444.277 866.356 437.669Z"/><path fill="#ECD5A6" transform="scale(1.33333 1.33333)" d="M903.923 430.477L904.526 431.041C907.406 438.186 906.385 450.358 904.93 457.895C904.032 457.974 904.35 457.892 903.304 457.343C901.822 453.231 903.716 436.27 903.923 430.477Z"/><path fill="#ECD5A6" transform="scale(1.33333 1.33333)" d="M689.092 403.205C685.968 401.236 676.162 395.856 675.547 392.672C679.566 391.961 689.322 398.321 693.071 400.585C690.15 401.61 690.919 400.917 689.092 403.205Z"/><path fill="#EEC476" transform="scale(1.33333 1.33333)" d="M777.359 427.57C775.263 420.801 762.988 407.907 760.211 401.405L760.81 401.428C765.571 405.755 776.634 419.751 779.289 425.338L777.359 427.57Z"/><path fill="#EEDFB9" transform="scale(1.33333 1.33333)" d="M827.755 428.93L830.977 426.655C833.415 430.136 839.65 438.063 839.407 442.143C836.228 442.442 829.231 431.937 827.755 428.93Z"/><path fill="#F0DCAE" transform="scale(1.33333 1.33333)" d="M794.463 439.451L796.068 439.737C801.486 447.005 803.633 449.426 806.059 458.189C800.115 452.425 797.375 446.919 794.463 439.451Z"/><path fill="#ECD5A6" transform="scale(1.33333 1.33333)" d="M912.025 412.156C912.327 415.855 914.16 420.777 915.343 424.422L911.57 424.688C910.907 421.792 908.887 414.712 909.59 412.32L912.025 412.156Z"/><path fill="#EEC476" transform="scale(1.33333 1.33333)" d="M909.59 412.32C908.186 408.012 901.055 402.201 902.898 397.635L903.768 397.684C906.721 402.026 909.179 408.229 912.025 412.156L909.59 412.32Z"/><path fill="#EFAA2B" transform="scale(1.33333 1.33333)" d="M794.463 439.451C792.875 437.756 783.785 423.316 783.226 421.297C787.152 423.761 793.463 435.261 796.068 439.737L794.463 439.451Z"/><path fill="#EEC476" transform="scale(1.33333 1.33333)" d="M775.51 372.513C780.496 375.427 781.533 376.589 784.704 381.091C780.782 379.214 776.627 377.305 772.785 375.317L775.51 372.513Z"/><path fill="#EEC476" transform="scale(1.33333 1.33333)" d="M748.511 435.306C751.817 438.299 754.255 441.156 756.443 445.029L754.24 447.409C751.732 442.924 750.477 440.07 748.511 435.306Z"/><path fill="#ECD5A6" transform="scale(1.33333 1.33333)" d="M765.832 339.874C770.737 340.262 773.325 340.617 778.141 341.605L777.321 344.871L775.954 344.531C771.944 343.089 769.552 341.821 765.832 339.874Z"/><path fill="#F0DCAE" transform="scale(1.33333 1.33333)" d="M719.989 424.562L723.664 422.646C724.8 424.384 725.751 425.354 725.639 427.361C723.537 428.024 721.625 425.9 719.989 424.562Z"/><path fill="#EFAA2B" transform="scale(1.33333 1.33333)" d="M793.531 382.984C790.598 381.114 788.896 378.745 787.177 375.821C790.565 378.334 791.868 379.387 794.749 382.442L793.531 382.984Z"/><path fill="#DF573F" transform="scale(1.33333 1.33333)" d="M500.891 96.2111C511.485 84.3999 526.3 70.7756 540.782 64.3487C561.178 55.2971 554.901 72.7623 549.979 82.9529C559.669 79.1774 574.783 68.3441 585.181 70.3508C593.073 71.8738 587.412 84.0622 585.453 88.205C597.191 82.1836 613.001 70.2438 622.459 85.2209C622.294 93.3645 622.269 100.793 616.689 107.64C602.654 124.86 584.334 124.879 564.147 124.955C559.836 124.971 553.522 124.729 549.677 125.36L549.06 125.467L546.922 122.558L546.011 124.698C543.745 125.384 539.898 125.208 537.374 125.533C521.513 127.572 504.374 137.756 492.67 148.152C493.924 152.029 495.476 157.607 499.335 159.081C521.192 167.429 515.107 140.318 526.165 133.588C532.231 129.896 541.915 145.24 541.932 149.98C543.01 154.245 543.998 162.526 541.427 165.761C537.317 170.931 532.082 173.204 527.567 178.889C527.294 196.611 534.883 205.762 520.231 219.579C510.769 228.501 500.076 237.921 487.314 242.198C484.193 243.244 477.56 243.214 474.865 244.109C463.953 243.036 456.724 241.461 451.247 231.129C443.159 215.871 453.68 200.967 460.972 188.121C463.634 183.431 467.695 173.603 469.125 168.467C458.33 168.767 449.145 170.959 438.634 172.823C435.857 173.315 432.035 173.932 429.678 172.219C429.392 162.414 468.019 151.143 475.971 149.378L477.062 147.958C477.187 147.084 477.395 147.046 476.883 146.8C468.03 142.534 457.855 143.587 452.287 133.412C447.987 124.577 448.08 111.077 450.55 101.825C451.515 98.2118 454.483 88.381 459.491 90.9328C463.7 93.0774 465.553 102.081 467.671 106.697C471.834 100.424 486.332 65.4528 498.56 74.8397C501.322 76.9604 500.823 91.8865 500.891 96.2111Z"/><path fill="#EFAA2B" transform="scale(1.33333 1.33333)" d="M475.971 149.378C482.234 149.43 490.136 144.058 490.129 156.32C490.121 171.122 479.292 166.51 469.125 168.467C458.33 168.767 449.145 170.959 438.634 172.823C435.857 173.315 432.035 173.932 429.678 172.219C429.392 162.414 468.019 151.143 475.971 149.378Z"/><path fill="#DA624D" transform="scale(1.33333 1.33333)" d="M522.626 94.4518L524.379 95.1943L524.793 96.4305C524.018 99.3698 522.132 101.229 519.463 102.508C516.763 103.801 517.791 104.764 515.299 105.876C512.943 105.703 512.143 105.684 511.431 103.37C512.44 99.6859 518.371 98.0265 522.046 94.9433L522.626 94.4518Z"/><path fill="#EEEAE8" transform="scale(1.33333 1.33333)" d="M545.946 107.371C546.432 107.487 547.477 107.934 547.994 108.135C547.743 109.825 546.02 110.57 544.282 111.931C542.317 111.463 542.662 111.863 541.63 110.593C542.356 109.025 544.309 108.277 545.946 107.371Z"/><path fill="#DA624D" transform="scale(1.33333 1.33333)" d="M458.915 208.188C460.555 209.074 460.348 208.627 460.829 209.977C458.676 210.742 457.955 210.937 456.566 212.928L456.279 213.657L455.633 213.54C455.252 210.273 456.482 209.666 458.915 208.188Z"/><path fill="#384A45" transform="scale(1.33333 1.33333)" d="M536.798 335.026C537.817 336.439 538.106 336.8 538.804 338.377C540.363 339.221 540.672 339.378 542.395 339.77L543.482 341.141C542.389 341.614 541.678 341.781 540.976 342.739C541.159 344.957 540.943 344.106 542.392 346.214C550.66 350.835 551.19 346.026 554.927 357.512C555.197 358.341 554.342 358.808 553.873 359.294C557.325 362.587 556.078 357.153 562.668 363.126C563.62 363.052 564.746 362.999 565.675 362.87C567.536 365.451 566.698 366.922 566.992 369.586C568.395 382.331 558.066 380.73 553.02 372.429C551.928 370.632 551.319 368.68 550.176 366.926L550.134 365.292L549.253 364.464C547.007 364.854 546.024 366.427 544.338 368.206L542.021 363.396C539.164 364.36 543.697 376.678 538.943 381.492L537.785 381.607C537.293 380.892 537.119 380.879 537.021 380.144C539.737 376.404 536.198 344.543 536.798 335.026Z"/><path fill="#45524C" transform="scale(1.33333 1.33333)" d="M543.966 326.887C544.852 330.473 550.266 341.453 552.047 345.488C553.418 348.594 553.644 352.866 555.629 355.268L556.678 355.284C559.464 351.798 557.096 329.302 563.163 326.506C564.713 327.326 576.532 339.245 578.151 341.616L576.248 341.429C574.103 340.253 566.358 335.64 564.296 336.143C563.421 338.362 565.126 340.935 564.397 341.812C561.82 344.914 560.148 353.346 562.471 356.592C568.772 358.293 572.525 352.654 571.919 366.845C569.619 364.93 569.654 361.954 567.055 361.558L565.675 362.87C564.746 362.999 563.62 363.052 562.668 363.126C556.078 357.153 557.325 362.587 553.873 359.294C554.342 358.808 555.197 358.341 554.927 357.512C551.19 346.026 550.66 350.835 542.392 346.214C540.943 344.106 541.159 344.957 540.976 342.739C541.678 341.781 542.389 341.614 543.482 341.141C545.486 339.348 544.073 336.731 543.379 334.397C542.164 330.311 542.487 330.502 543.966 326.887Z"/><path fill="#45524C" transform="scale(1.33333 1.33333)" d="M478.12 334.233C479.329 331.422 480.776 326.278 482.171 324.405C486.728 325.213 492.222 340.985 490.07 345.055C488.39 345.014 487.899 344.744 486.542 343.772C484.056 344.013 482.219 346.437 480.497 348.325L479.489 347.902L479.244 346.662C479.079 341.191 479.824 339.548 478.12 334.233Z"/><path fill="#4D584E" transform="scale(1.33333 1.33333)" d="M584.423 338.828C584.502 334.648 582.742 322.875 587.222 321.686C592.082 324.419 593.792 332.327 594.814 337.44C593.48 337.856 593.122 337.999 592.102 338.947C588.077 338.87 589.267 337.872 584.423 338.828Z"/><path fill="#384A45" transform="scale(1.33333 1.33333)" d="M536.798 335.026C535.707 332.156 536.015 322.658 539.881 321.492C542.058 322.539 542.765 324.631 543.966 326.887C542.487 330.502 542.164 330.311 543.379 334.397C544.073 336.731 545.486 339.348 543.482 341.141L542.395 339.77C540.672 339.378 540.363 339.221 538.804 338.377C538.106 336.8 537.817 336.439 536.798 335.026Z"/><path fill="#F7F6EB" transform="scale(1.33333 1.33333)" d="M695.377 263.971C694.886 261.574 693.976 258.742 694.864 256.565C696.234 255.228 696.524 255.2 698.424 254.852L698.779 255.93C698.285 256.334 696.516 258.119 696.786 258.79C699.255 264.922 707.014 273.296 708.428 279.575C704.332 275.025 700.422 269.474 695.377 263.971Z"/><path fill="#F7F6EB" transform="scale(1.33333 1.33333)" d="M585.427 269.681C589.451 272.972 598.452 314.894 598.429 321.504L597.948 320.955C592.144 314.565 584.666 278.203 585.427 269.681Z"/><path fill="#F7F6EB" transform="scale(1.33333 1.33333)" d="M571.287 305.867C566.597 297.634 565.927 291.308 565.018 282.074C564.754 279.394 561.851 266.834 562.726 265.339C566.209 270.915 570.726 290.779 571.862 297.59C572.674 299.301 575.42 304.219 575.55 305.181C573.478 306.628 574.161 305.233 571.287 305.867Z"/><path fill="#EEDFB9" transform="scale(1.33333 1.33333)" d="M571.862 297.59C572.674 299.301 575.42 304.219 575.55 305.181C573.478 306.628 574.161 305.233 571.287 305.867C571.595 303.468 571.704 300.078 571.862 297.59Z"/><path fill="#F7F6EB" transform="scale(1.33333 1.33333)" d="M623.286 269.519L624.209 270.191C631.436 287.917 636.844 291.443 640.525 313.262C634.836 309.84 624.202 276.647 623.286 269.519Z"/><path fill="#F7F6EB" transform="scale(1.33333 1.33333)" d="M665.063 277.29C671.956 280.707 680.309 301.545 681.696 309.155L680.245 308.571C676.005 303.783 665.65 283.244 665.063 277.29Z"/><path fill="#F7F6EB" transform="scale(1.33333 1.33333)" d="M586.802 225.601C592.037 229.368 600.743 253.282 602.339 260.088L601.39 259.99C594.799 249.926 587.838 237.761 586.802 225.601Z"/><path fill="#F7F6EB" transform="scale(1.33333 1.33333)" d="M602.204 221.887C610.095 224.673 619.849 239.977 618.126 248.25C617.854 248.037 617.582 247.825 617.31 247.612C614.658 242.808 602.323 226.291 602.204 221.887Z"/><path fill="#F7F6EB" transform="scale(1.33333 1.33333)" d="M559.221 178.338C566.284 181.231 576.486 198.975 578.05 206.38C573.034 203.494 561.11 184.03 559.221 178.338Z"/><path fill="#F7F6EB" transform="scale(1.33333 1.33333)" d="M676.097 263.552C683.651 265.486 692.401 282.008 692.918 289.711C689.693 287.993 677.888 267.966 676.097 263.552Z"/><path fill="#F7F6EB" transform="scale(1.33333 1.33333)" d="M649.225 281.911C654.163 284.156 662.607 306.009 661.573 310.731C654.697 307.715 652.528 289.474 649.225 281.911Z"/><path transform="scale(1.33333 1.33333)" d="M506.085 143.683C512.537 144.833 514.367 151.947 506.209 155.058C502.667 153.022 499.232 151.334 500.186 146.78C501.434 144.805 503.807 144.399 506.085 143.683Z"/><path fill="#F7F6EB" transform="scale(1.33333 1.33333)" d="M544.49 275.357C548.469 278.702 550.052 299.522 548.943 304.719L548.998 306.044L548.248 306.136C543.359 299.694 544.727 283.742 544.49 275.357Z"/><path fill="#F7F6EB" transform="scale(1.33333 1.33333)" d="M603.918 196.675C604.81 196.611 606.751 196.53 607.39 197.054C612.059 200.886 620.332 209.694 622.132 215.093C612.871 212.98 608.397 204.217 603.918 196.675Z"/><path fill="#F7F6EB" transform="scale(1.33333 1.33333)" d="M637.01 224.854C643.637 226.207 652.11 237.623 655.511 243.416C647.585 243.442 639.826 231.412 637.01 224.854Z"/><path fill="#F7F6EB" transform="scale(1.33333 1.33333)" d="M629.886 237.989C634.906 240.393 644.535 252.418 643.441 258.401L641.736 258.09C637.558 254.946 631.553 242.936 629.886 237.989Z"/><path fill="#F7F6EB" transform="scale(1.33333 1.33333)" d="M617.864 187.638C622.941 189.208 633.216 197.61 636.037 202.879C634.539 202.976 632.675 203.151 631.416 202.344C627.314 199.714 618.322 192.228 617.864 187.638Z"/><path fill="#F7F6EB" transform="scale(1.33333 1.33333)" d="M580.15 179.403C583.791 182.482 591.067 191.196 591.486 195.673L590.951 196.907C586.952 195.913 580.886 184.71 578.241 180.87L580.15 179.403Z"/><path fill="#F7F6EB" transform="scale(1.33333 1.33333)" d="M573.993 155.604C579.03 157.65 591.608 169.095 594.957 174.181C589.318 173.268 575.293 160.236 573.993 155.604Z"/><path fill="#F7F6EB" transform="scale(1.33333 1.33333)" d="M567.328 227.682L568.544 225.218C570.64 229.75 575.673 239.027 573.565 244.011L572.505 244.115C569.308 240.818 567.694 232.232 567.328 227.682Z"/><path fill="#F7F6EB" transform="scale(1.33333 1.33333)" d="M484.184 259.226C486.199 261.694 486.177 279.419 484.813 282.301L484.69 281.985C481.23 273.034 480.384 267.831 484.184 259.226Z"/><path fill="#F7F6EB" transform="scale(1.33333 1.33333)" d="M498.185 259.044C502.61 264.421 499.105 274.15 499.932 281.406C495.219 274.03 495.385 267.064 498.185 259.044Z"/><path fill="#F7F6EB" transform="scale(1.33333 1.33333)" d="M610.764 306.737C611.483 306.915 612.617 307.391 613.35 307.668C616.317 310.534 618.677 322.334 618.834 326.4C615.576 324.591 610.326 310.971 610.764 306.737Z"/><path fill="#F7F6EB" transform="scale(1.33333 1.33333)" d="M528.992 288.492C529.704 288.896 530.109 289.338 530.721 289.887C532.707 297.284 532.56 303.136 531.579 310.58L530.538 310.101C528.496 303.089 527.969 295.723 528.992 288.492Z"/><path fill="#F7F6EB" transform="scale(1.33333 1.33333)" d="M558.019 161.185C570.477 167.62 570.424 173.363 580.15 179.403L578.241 180.87C574.866 176.778 568.396 172.736 564.414 169.009C562.358 167.086 559.751 163.511 558.019 161.185Z"/><path fill="#F7F6EB" transform="scale(1.33333 1.33333)" d="M505.859 304.915L507.004 306.022C508.835 312.219 508.554 323.586 507.65 329.98C504.684 323.369 504.472 311.95 505.859 304.915Z"/><path fill="#F7F6EB" transform="scale(1.33333 1.33333)" d="M643.028 211.007C647.706 211.892 655.762 219.001 657.112 223.65C656.708 223.595 656.306 223.534 655.904 223.468C648.676 222.273 647.357 217.048 643.028 211.007Z"/><path fill="#F7F6EB" transform="scale(1.33333 1.33333)" d="M511.241 251.916C515.322 257.039 513.608 266.858 512.831 272.837C509.608 266.755 509.122 258.462 511.241 251.916Z"/><path fill="#F7F6EB" transform="scale(1.33333 1.33333)" d="M602.559 265.012C606.895 268.026 609.677 284.995 610.192 290.438C606.102 288.179 604.307 270.936 602.559 265.012Z"/><path fill="#F7F6EB" transform="scale(1.33333 1.33333)" d="M481.596 298.77L482.389 297.779L483.294 297.967C485.521 301.656 486.558 309.897 484.357 313.724L483.468 313.558C481.116 308.73 481.584 304.114 481.596 298.77Z"/><path fill="#F7F6EB" transform="scale(1.33333 1.33333)" d="M527.849 241.757C528.9 242.165 529.005 242.419 529.774 243.235C531.079 248.434 532.154 254.804 531.41 260.139C526.513 256.741 527.771 247.133 527.849 241.757Z"/><path fill="#F7F6EB" transform="scale(1.33333 1.33333)" d="M518.912 300.972C522.788 303.661 522.421 317.928 522.069 322.551C520.023 316.61 518.118 307.218 518.912 300.972Z"/><path fill="#F7F6EB" transform="scale(1.33333 1.33333)" d="M489.556 308.938C492.174 311.032 493.068 324.192 493.367 327.834C490.062 322.69 487.888 314.984 489.556 308.938Z"/><path fill="#EEDFB9" transform="scale(1.33333 1.33333)" d="M545.724 217.406C549.609 219.577 548.818 224.671 550.691 230.571L549.517 230.475C548.359 229.497 546.504 220.111 545.724 217.406Z"/><path fill="#ECD5A6" transform="scale(1.33333 1.33333)" d="M567.328 227.682C565.741 222.482 565.147 220.326 564.466 214.955C565.884 218.276 567.217 221.842 568.544 225.218L567.328 227.682Z"/><path fill="#EEDFB9" transform="scale(1.33333 1.33333)" d="M481.596 298.77C481.823 296.855 481.975 293.385 483.253 292.229C484.152 294.316 483.679 295.753 483.294 297.967L482.389 297.779L481.596 298.77Z"/><path fill="#134247" transform="scale(1.33333 1.33333)" d="M834.392 325.193C836.828 317.664 837.964 307.392 839.702 299.439C840.063 297.788 838.947 294.278 839.03 292.584C839.101 291.118 841.193 289.694 842.422 288.618C842.458 287.337 842.36 286.614 842.959 285.473C850.872 285.135 844.726 279.673 846.219 274.076C847.785 268.208 851.025 269.417 854.128 265.109C854.995 263.906 851.763 264.283 850.831 262.278C853.253 256.951 857.228 261.027 860.325 256.738C859.801 255.032 859.516 253.975 859.189 252.222C859.811 250.343 860.878 249.864 862.518 248.821L863.143 248.427C861.681 240.305 865.812 243.432 869.79 240.742C869.923 238.513 870.1 238.15 870.962 236.074C873.69 233.104 879.761 234.587 881.235 231.055L877.346 231.279L877.089 230.323C877.847 228.744 881.286 225.922 882.853 225.84L882.447 227.945L883.347 228.174C885.158 227.127 885.752 226.91 887.136 225.284L886.94 222.864C889.302 218.735 892.7 220.054 897.479 217.629L897.588 215.679C899.806 213.051 903.221 214.169 906.847 211.264C907.063 210.611 907.271 209.907 907.588 209.296C909.361 205.885 957.259 188.413 964.545 185.815C967.545 184.745 970.7 185.903 973.834 185.457C983.143 184.133 992.41 181.955 1001.77 181.085C1011.21 180.207 1046.16 180.257 1054 183.993C1055.9 184.898 1057.76 185.761 1059.91 185.439C1060.06 185.347 1061.31 184.556 1061.39 184.548C1068.94 183.643 1081.9 185.867 1089.19 186.577C1095.47 187.187 1100.25 185.976 1105.23 186.495C1115.19 187.533 1124.07 189.617 1133.63 191.889C1142.77 194.063 1155.2 195.745 1163.93 198.345C1172.79 201.496 1181.38 205.842 1190.07 209.48C1195.27 211.656 1200.31 214.424 1205.41 216.816C1208.44 218.24 1211.75 219.75 1214.59 221.49C1231.81 232.057 1244.23 247.522 1256.34 263.358C1259.36 267.312 1262.88 270.877 1265.62 275.039C1271.54 283.514 1275.59 292.919 1281.05 301.478C1287.34 311.32 1292.71 321.559 1298.41 331.891C1298.41 331.891 1298.16 334.574 1298.16 334.574C1299.14 336.48 1300.74 338.59 1301.61 340.482C1304.74 347.31 1311.84 362.675 1302.82 367.45C1299.1 369.417 1290.76 368.018 1286.89 366.525C1282.91 361.3 1277.49 357.094 1273.83 352.227C1265.91 341.726 1254.97 330.636 1247.6 320.113C1242.08 319.347 1237.52 312.719 1233.59 308.495C1229.4 303.928 1224.98 299.573 1220.35 295.446C1213.31 289.13 1207.24 284.935 1198.58 281.461C1192.58 279.345 1182.64 271.523 1177.26 270.107C1155.97 264.509 1135.47 255.463 1113.28 253.853C1111.96 253.757 1111.35 253.923 1109.85 253.667L1110.2 255.183C1127.03 261.809 1154.47 279.215 1168.03 291.989C1169.73 293.598 1173.44 299.448 1175.43 301.597C1176.95 303.25 1178.95 304.402 1180.28 305.905C1181.69 307.491 1183.66 310.875 1185.24 312.657C1185.24 312.657 1187.16 313.02 1187.16 313.02C1188.35 314.99 1190.27 319.759 1191.27 321.621C1193.58 325.902 1195.55 330.507 1197.85 334.578C1200.95 340.077 1204.15 344.467 1206.74 350.272C1207.91 352.901 1208.05 356.972 1208.57 357.802C1211.42 362.397 1214.65 364.226 1217.94 369.398C1216.6 373.929 1215.66 379.194 1212.2 382.275C1203.95 384.822 1189.77 364.34 1184.11 358.621C1178.43 352.889 1172.44 348.064 1166.49 342.65C1149.72 325.152 1143.43 316.967 1119.26 309.251C1115.26 307.973 1105.17 303.198 1101.51 303.08C1089.79 302.702 1083.8 301.113 1071.61 301.648L1071.41 301.945L1072.77 301.867L1072.65 303.335C1083.16 309.991 1095.17 319.705 1103.05 329.237C1103.61 332.272 1101.43 331.631 1104.16 333.383C1110.71 337.107 1111.19 339.236 1113.52 345.911C1113.72 346.489 1123.68 354.03 1123.72 354.363C1125.06 366.324 1138.48 376.781 1140.21 387.278C1141.54 395.317 1139.57 396.948 1142.87 405.344C1140.95 407.79 1134.54 414.862 1131.94 416.112C1122.12 415.389 1117.92 406.661 1111.19 400.676C1109.63 399.291 1105.26 398.612 1103.04 397.118C1097.48 393.372 1092.72 388.647 1086.9 385.327C1079.58 381.147 1070.71 379.602 1062.89 376.65C1053.5 373.111 1044.36 368.749 1035.1 364.905C1032.36 363.577 1027.27 362.087 1025.38 360.304C1019.13 357.609 1013.52 354.443 1006.8 354.514L1006.52 354.878C1009.71 356.741 1019.48 362.023 1021.09 364.174C1033.11 380.232 1052.5 419.359 1045.18 438.55C1041.83 440.476 1031.74 440.222 1027.88 439.466C1025.42 438.986 1021.47 434.062 1019.87 431.987C1009.36 418.376 996.233 408.601 981.15 400.443C983.108 407.136 985.494 412.25 987.635 418.483C993.19 434.653 998.856 455.783 995.792 472.959L997.216 474.167C995.124 477.667 986.803 485.021 983.051 486.77L976.724 483.199C975.456 480.792 974.055 478.25 972.934 475.792C974.108 474.349 973.844 475.148 973.815 473.339C967.556 466.042 971.964 467.932 963.754 463.393C963.967 461.851 964.001 461.848 963.772 460.329C957.979 454.933 951.432 446.954 944.716 443.262C941.21 441.334 941.387 432.824 940.438 429.008C928.061 379.235 908.905 352.001 860.433 332.862C851.922 332.031 842.601 328.117 834.392 325.193ZM1048.7 213.614C1033.83 214.731 1013.93 220.033 999.31 223.481C993.061 224.955 981.763 225.031 976.339 227.947C977.775 231.583 983.646 232.261 987.139 232.381C992.931 231.028 999.804 229.415 1005.5 228.274C1016.11 226.145 1050.32 222.08 1057.46 216.741L1057.86 215.49C1055.52 212.861 1051.91 213.168 1048.7 213.614ZM931.374 291.516C935.348 289.982 938.857 288.049 942.783 286.509C944.75 285.738 952.088 286.316 953.851 285.538C966.394 279.999 985.158 278.124 996.619 271.977C997.244 270.361 997.053 270.044 996.739 268.258C995.203 267.269 994.566 267.084 992.327 267.367C974.216 270.773 955.218 275.46 938.418 282.943C934.462 284.706 927.745 286.24 925.29 289.824L925.45 291.124C928.082 292.495 927.848 291.95 931.374 291.516ZM967.631 369.605C965.18 370.028 961.287 370.789 960.087 373.217C962.708 377.039 982.009 377.719 987.349 378.309C996.072 379.274 1006.08 381.377 1014.66 381.441L1016.16 380.714C1016.02 379.761 1016.22 379.683 1015.17 379.057C1002.68 371.596 987.037 369.403 972.689 370.055C971.017 370.131 968.968 369.558 967.631 369.605ZM1044.62 323.863C1046.98 324.191 1046.92 324.535 1049.03 323.733C1047.11 317.327 1011.36 308.477 1003.5 307.588C1000.9 307.681 999.75 307.259 997.927 308.546C998.363 309.986 999.07 310.695 1000.57 311.206C1008.46 313.901 1038.01 324.225 1044.62 323.863ZM1170.3 326.205C1171.49 328.375 1179.73 336.455 1181.73 336.966C1179.61 331.37 1175.96 327.967 1170.3 326.205ZM984.447 258.778C980.997 259.551 976.603 260.749 974.086 263.389L974.043 264.64C975.614 265.847 976.733 265.778 978.719 266.023C982.125 264.31 985.688 263.261 987.264 259.316C986.118 258.349 986.467 258.663 984.447 258.778ZM948.849 402.004L946.72 404.163C947.083 406.143 951.223 409.394 953.064 411.687C958.675 418.676 964.73 430.871 970.33 436.918C971.305 437.188 972.46 437.541 973.43 437.748C973.999 433.28 961.772 415.41 958.767 410.993C956.522 407.695 952.263 404.234 948.849 402.004ZM1074 255.63L1072.95 257.421L1069.75 257.432L1069.02 258.4C1072.3 262.264 1096.89 262.992 1102.25 262.507C1103.53 263.011 1105.16 262.584 1106.5 262.409L1107.06 261.826C1104.8 258.524 1101.1 256.935 1097.4 256.358C1093.11 255.69 1077.31 254.673 1074 255.63ZM928.927 328.232C921.846 330.36 903.206 333.374 900.179 338.197L900.641 339.315C903.825 340.499 903.219 339.848 907.011 339.536C914.034 338.361 932.995 336.032 937.358 330.062C936.242 327.5 931.461 328.187 928.927 328.232ZM903.499 256.981C898.018 262.151 883.957 276.217 881.522 282.763C881.899 284.594 881.924 284.898 883.241 286.196L883.799 286.352C892.945 279.488 903.744 268.998 907.449 257.962C906.729 257.122 904.896 257.175 903.499 256.981Z"/><path fill="#274546" transform="scale(1.33333 1.33333)" d="M1025.38 360.304C1027.37 358.732 1027.9 358.161 1030.47 357.633C1034.59 358.561 1034.49 361.216 1035.1 364.905C1032.36 363.577 1027.27 362.087 1025.38 360.304Z"/><path fill="#9AABAB" transform="scale(1.33333 1.33333)" d="M1096.63 251.772C1100.32 252.041 1106.77 252.132 1109.85 253.667L1110.2 255.183C1108.14 255.643 1099.12 252.534 1096.63 251.772Z"/><path fill="#2B4E50" transform="scale(1.33333 1.33333)" d="M925.164 271.584C927.103 272.54 931.444 269.564 934.803 271.686C934.087 274.799 930.559 275.66 930.017 278.867C929.743 280.49 929.183 280.985 928.058 282.2C926.379 283.139 923.327 283.737 921.425 283.985L920.764 282.924L921.027 281.827L923.251 281.826C924.331 280.447 923.65 274.724 923.658 272.336L925.164 271.584Z"/><path fill="#274546" transform="scale(1.33333 1.33333)" d="M1116.01 204.668L1117.83 203.788L1117.14 201.19L1118.51 201.185C1119.93 202.659 1120.08 205.121 1120.49 207.274C1120.05 208.23 1119.78 208.864 1119.21 209.766C1115.03 212.082 1116.04 214.416 1113.79 215.507L1113.87 213.007C1111.68 211.86 1111.38 211.655 1110.94 209.468C1112.1 205.324 1111.97 205.382 1116.01 204.668Z"/><path fill="#2B4E50" transform="scale(1.33333 1.33333)" d="M1116.01 204.668L1117.83 203.788L1117.14 201.19L1118.51 201.185C1119.93 202.659 1120.08 205.121 1120.49 207.274C1120.05 208.23 1119.78 208.864 1119.21 209.766C1118.52 208.548 1117.16 207.817 1115.97 207.031L1116.01 204.668Z"/><path fill="#2B4E50" transform="scale(1.33333 1.33333)" d="M1036.74 249.122L1037.75 249.74C1038.53 254.086 1040.18 259.299 1035.13 260.925C1032.71 259.551 1032.33 259.526 1031.06 256.912C1031.31 252.404 1034.48 253.255 1036.74 249.122Z"/><path fill="#2B4E50" transform="scale(1.33333 1.33333)" d="M1029.48 272.039C1029.88 271.974 1030.27 271.918 1030.67 271.87C1032.74 271.624 1034.97 271.621 1036.59 272.916C1036.67 274.602 1034.87 278.375 1034 280.027C1033.37 278.866 1033.08 277.377 1032.74 276.072C1030.36 275.777 1027.98 275.972 1026.88 273.772L1027.81 272.339L1028.77 272.847L1029.48 272.039Z"/><path fill="#2B4E50" transform="scale(1.33333 1.33333)" d="M1117.05 379.775C1122.93 380.393 1123.76 384.309 1121.93 389.205C1119.74 388.158 1117.62 386.235 1116.54 384.017C1116.44 382.029 1116.37 381.624 1117.05 379.775Z"/><path fill="#EEEAE8" fill-opacity="0.019607844" transform="scale(1.33333 1.33333)" d="M1170.3 326.205C1175.96 327.967 1179.61 331.37 1181.73 336.966C1179.73 336.455 1171.49 328.375 1170.3 326.205Z"/><path fill="#2B4E50" transform="scale(1.33333 1.33333)" d="M961.271 294.359L959.238 295.202C957.869 297.751 957.288 297.638 954.589 298.299C952.812 297.83 953.44 298.266 952.359 296.617L953.141 295.056C954.901 293.842 955.975 292.809 958.061 292.721L961.271 294.359Z"/><path fill="#9AABAB" transform="scale(1.33333 1.33333)" d="M1047.7 309.779C1049.99 310.274 1055.34 313.451 1057.66 314.725L1057.71 315.724L1057.11 315.969C1052.83 314.533 1050.79 313.001 1047.7 309.779Z"/><path fill="#9AABAB" transform="scale(1.33333 1.33333)" d="M958.061 292.721C961.03 292.326 964.589 291.939 967.281 293.425C966.29 294.455 964.14 294.308 962.515 294.339C962.1 294.348 961.685 294.355 961.271 294.359L958.061 292.721Z"/><path fill="#274546" transform="scale(1.33333 1.33333)" d="M974.803 298.4C976.61 299.509 976.299 300.212 978.794 301.066L978.539 302.496L977.944 302.706C974.989 302.01 975.783 302.631 974.367 300.67L974.803 298.4Z"/><path fill="#2B4E50" transform="scale(1.33333 1.33333)" d="M980.18 305.945C982.454 306.011 983.044 306.124 985.257 306.674L985.708 307.898C983.719 308.453 981.707 307.028 980.18 305.945Z"/><path fill="#F3A12A" transform="scale(1.33333 1.33333)" d="M655.297 624.831C656.869 623.477 657.904 621.292 659.459 620.766L659.755 621.042C666.965 627.638 674.931 626.848 681.828 630.859L681.752 631.551C681.38 634.722 680.866 636.303 679.62 638.695C675.906 645.824 654.396 705.86 655.309 709.241C658.412 704.576 667.244 702.965 672.49 700.852C681.796 697.103 690.797 691.891 700.701 690.121C710.599 688.321 719.226 690.953 728.851 691.712C729.227 689.292 729.622 686.181 730.237 683.875C734.46 668.04 736.915 652.007 740.619 636.046C741.776 634.044 742.69 632.476 744.018 630.569C746.385 629.467 745.303 629.618 748.325 630.436C752.556 630.808 770.474 634.126 770.088 640.375C769.823 644.665 764.796 651.751 768.623 656.574C766.428 664.416 762.989 676.496 760.139 683.962C754.982 697.472 745.169 711.607 746.181 726.886L747.135 725.919C743.242 729.819 733.268 734.071 728.487 737.64C723.551 741.327 702.261 754.425 696.637 752.529L696.473 751.325C698.765 746.019 715.582 732.589 720.978 728.131L715.732 725.142C695.497 725.76 675.702 731.868 653.749 729.464C673.178 717.443 690.344 715.186 709.403 706.842C698.623 707.293 666.285 710.213 653.499 711.858C651.178 714.193 649.504 724.641 648.202 726.706C643.194 734.654 610.522 758.383 602.486 756.355C599.782 751.278 624.251 729.911 626.659 721.785C625.315 721.417 620.782 721.736 619.089 721.762C607.638 721.934 596.199 722.446 585.044 725.266C582.313 725.957 575.885 727.912 574.302 724.783C576.187 719.222 597.391 709.09 604.664 703.571C597.574 704.003 570.394 708.18 566.971 703.121C570.715 695.685 619.984 689.52 632.295 684.959C633.194 680.678 653.842 626.482 655.297 624.831Z"/><path fill="#EFAA2B" transform="scale(1.33333 1.33333)" d="M633.738 695.24C636.737 694.878 642.265 696.68 643.987 699.185L641.832 699.554C639.287 698.497 635.411 697.241 633.738 695.24Z"/></svg>