<?xml version="1.0" encoding="utf-8" ?><svg xmlns="http://www.w3.org/2000/svg" xmlns:xlink="http://www.w3.org/1999/xlink" width="1792" height="1024" viewBox="0 0 1792 1024"><path fill="#EBAD3B" transform="scale(1.33333 1.33333)" d="M659.219 181.637C675.535 172.556 684.847 173.45 702.166 170.489C745.07 163.154 730.256 184.632 708.255 201.808C702.401 206.378 694.612 208.654 688.235 212.222C690.3 214.103 691.975 215.766 694.374 217.217C696.543 218.297 697.328 218.228 698.439 220.033C696.362 221.863 694.486 221.329 691.9 220.988L692.227 221.504C694.942 225.727 699.271 226.664 699.771 229.091C697.903 230.283 695.656 229.942 693.409 229.867C695.585 231.924 700.326 235.254 701.341 236.968L700.956 237.773C697.942 238.701 695.83 237.935 692.692 237.239C694.1 239.256 696.124 242.34 697.742 244.022C700.122 245.815 704.927 248.387 706.012 250.098C704.724 252.128 701.443 252.031 699.147 252.237C701.945 256.404 704.198 259.336 707.352 263.247C706.01 265.568 705.822 263.02 704.382 265.826L706.644 269.102C708.914 272.749 711.221 277.259 714.959 279.332L715.826 278.527L718.952 279.82C719.507 281.218 719.527 281.139 719.204 282.59C721.671 282.662 721.492 281.756 723.23 281.752C724.523 283.199 724.782 283.363 726.468 284.336C725.871 285.247 725.52 285.663 724.835 286.486C726.654 286.874 726.88 286.685 728.73 286.108L730.758 287.401C727.808 291.852 724.627 293.211 722.724 297.862C722.066 300.04 721.028 302.25 721.751 304.225L723.128 305.375C719.565 308.292 717.986 313.51 716.265 317.892C719.933 321.87 726.537 328.166 728.371 333.018C739.315 361.983 739.294 412.579 738.06 443.085C737.684 452.134 737.02 461.17 736.067 470.177C753.392 493.1 755.488 518.775 752.317 546.75C750.303 564.519 742.943 570.354 726.418 574.782C721.614 575.479 717.441 576.034 712.605 576.427C707.787 577.049 702.111 576.529 698.203 577.153C696.656 579.352 696.692 579.496 693.491 580.049C693.096 580.117 692.699 580.181 692.302 580.24C681.804 582.246 673.009 583.125 662.394 582.873L655.889 582.784C647.887 582.757 640.387 581.985 632.165 582.293C630.751 594.581 631.341 610.865 629.799 621.616C622.313 621.74 613.82 622.535 606.936 619.987L603.772 619.106C582.36 616.025 581.757 589.777 585.769 573.235C569.921 566.25 567.207 556.952 565.853 540.41C563.839 515.811 566.486 490.066 582.711 470.371C578.661 444.265 579.812 405.062 580.655 378.379C581.092 364.559 583.769 342.116 589.93 329.464C591.5 326.24 596.123 322.096 598.963 319.573C593.062 313.176 592.694 310.083 588.66 305.024L587.981 305.184C584.14 306.113 580.961 308.509 578.843 308.297L578.038 307.475C579.288 301.415 576.827 294.937 574.185 289.59L575.785 288.361C578.042 286.305 581.267 284.816 584.398 282.024C585.9 282.844 587.827 284.281 589.212 284.116C588.539 282.957 587.998 281.967 587.4 280.767C588.688 280.564 590.04 280.241 591.322 279.961C597.054 277.839 602.629 275.371 608.348 273.191C608.729 270.95 608.894 267.421 609.075 265.053C611.618 261.556 613.674 259.471 615.114 255.307C615.136 253.953 615.674 250.184 615.848 248.659C608.585 243.337 597.181 243.978 590.997 236.708C589.592 235.055 587.917 231.3 586.34 228.955L586.044 228.522C582.749 223.798 582.767 220.809 582.86 215.245C582.41 208.329 582.578 206.673 589.721 206.033C612.877 203.037 601.296 197.015 618.437 182.762C623.867 178.246 633.604 176.775 640.616 177.809C644.71 179.03 646.044 179.563 650.289 179.397C649.494 176.449 647.366 172.998 646.143 169.953C651 175.74 652.311 178.927 659.219 181.637Z"/><path fill="#0B6B76" transform="scale(1.33333 1.33333)" d="M598.963 319.573C600.534 321.675 600.439 323.033 600.661 325.656L604.74 322.267L606.777 322.451C606.385 323.967 605.511 326.355 606.008 327.685C608.893 326.97 609.549 323.514 611.836 323.225C611.59 325.139 610.029 332.128 610.233 332.855L612.455 330.356C613.444 331.432 613.954 338.388 614.379 340.555C611.437 341.148 607.576 342.261 605.486 344.473C605.519 345.779 605.524 345.375 606.696 346.63C599.85 351.831 597.133 357.787 595.863 366.239C593.371 382.831 601.046 394.396 609.334 407.544L610.738 409.677C607.607 413.549 605.086 416.479 602.624 420.83C585.514 465.523 631.898 450.38 656.361 454.646C657.997 454.682 660.473 454.815 662.036 454.703C662.87 464.323 662.691 475.817 662.746 485.641C668.211 485.934 683.097 486.419 686.497 490.591C691.415 496.624 689.724 521.72 683.403 526.569C679.691 529.416 667.135 529.953 662.252 530.362C662.823 545.614 663.167 567.673 662.394 582.873L655.889 582.784C647.887 582.757 640.387 581.985 632.165 582.293C630.751 594.581 631.341 610.865 629.799 621.616C622.313 621.74 613.82 622.535 606.936 619.987L603.772 619.106C582.36 616.025 581.757 589.777 585.769 573.235C569.921 566.25 567.207 556.952 565.853 540.41C563.839 515.811 566.486 490.066 582.711 470.371C578.661 444.265 579.812 405.062 580.655 378.379C581.092 364.559 583.769 342.116 589.93 329.464C591.5 326.24 596.123 322.096 598.963 319.573Z"/><path fill="#C01E1A" transform="scale(1.33333 1.33333)" d="M655.701 530.272C644.55 528.803 632.553 530.601 630.738 516.341C626.78 485.249 629.941 488.723 655.922 485.827L662.746 485.641C668.211 485.934 683.097 486.419 686.497 490.591C691.415 496.624 689.724 521.72 683.403 526.569C679.691 529.416 667.135 529.953 662.252 530.362L655.701 530.272Z"/><path fill="#E7B8B3" transform="scale(1.33333 1.33333)" d="M654.657 491.87C661.881 491.049 675.782 492.203 681.734 496.685C683.472 497.993 683.499 500.546 683.698 502.575L683.163 502.912C674.425 493.663 681.526 495.851 666.258 493.616C659.655 493.434 652.403 493.213 645.926 494.652C636.27 496.798 638.19 501.58 636.351 504.494C633.401 492.997 647.043 492.757 654.657 491.87Z"/><path fill="#7C8785" transform="scale(1.33333 1.33333)" d="M585.769 573.235C588.786 573.9 590.251 574.093 592.925 575.604L593.363 575.632C601.135 576.196 612.219 579.535 620.325 577.033L620.878 577.05C622.476 580.221 623.388 580.011 626.834 580.406C629.035 581.644 629.79 581.75 632.165 582.293C630.751 594.581 631.341 610.865 629.799 621.616C622.313 621.74 613.82 622.535 606.936 619.987L603.772 619.106C582.36 616.025 581.757 589.777 585.769 573.235Z"/><path fill="#162E32" transform="scale(1.33333 1.33333)" d="M585.769 573.235C588.786 573.9 590.251 574.093 592.925 575.604L592.475 582.014C592.37 593.262 592.088 602.232 598.831 612.132C600.315 614.311 603.441 617.005 603.772 619.106C582.36 616.025 581.757 589.777 585.769 573.235Z"/><path fill="#B6BDBD" transform="scale(1.33333 1.33333)" d="M592.475 582.014L595.599 581.219L596.69 581.921C598.123 589.217 599.512 597.971 601.247 605.027C602.173 608.79 605.813 615.752 606.936 619.987L603.772 619.106C603.441 617.005 600.315 614.311 598.831 612.132C592.088 602.232 592.37 593.262 592.475 582.014Z"/><path fill="#EBB953" transform="scale(1.33333 1.33333)" d="M598.963 319.573C600.534 321.675 600.439 323.033 600.661 325.656C582.024 345.251 585.017 436.485 589.118 463.055L582.711 470.371C578.661 444.265 579.812 405.062 580.655 378.379C581.092 364.559 583.769 342.116 589.93 329.464C591.5 326.24 596.123 322.096 598.963 319.573Z"/><path fill="#EBB953" transform="scale(1.33333 1.33333)" d="M601.012 459.449C601.1 456.761 600.718 457.645 602.171 455.833C606.222 454.923 606.755 459.054 607.434 462.216C609.099 469.961 609.905 477.974 611.465 485.734C617.14 513.947 621.173 542.423 625.805 570.819C626.324 574.004 626.798 577.175 626.834 580.406C623.388 580.011 622.476 580.221 620.878 577.05C617.104 551.547 612.265 525.533 608.372 499.928C606.883 490.138 603.468 467.914 601.012 459.449Z"/><path fill="#0E373E" transform="scale(1.33333 1.33333)" d="M620.325 577.033L616.598 575.961C612.137 569.21 609.526 539.097 608.23 529.776C604.972 507.047 601.323 484.374 597.285 461.77C598.25 459.909 598.548 460.311 601.012 459.449C603.468 467.914 606.883 490.138 608.372 499.928C612.265 525.533 617.104 551.547 620.878 577.05L620.325 577.033Z"/><path fill="#EBB953" transform="scale(1.33333 1.33333)" d="M655.701 530.272L662.252 530.362C662.823 545.614 663.167 567.673 662.394 582.873L655.889 582.784C654.739 571.961 655.604 542.623 655.701 530.272Z"/><path fill="#EBB953" transform="scale(1.33333 1.33333)" d="M656.361 454.646C657.997 454.682 660.473 454.815 662.036 454.703C662.87 464.323 662.691 475.817 662.746 485.641L655.922 485.827C655.288 478.675 656.003 462.168 656.361 454.646Z"/><path fill="#EBAD3B" transform="scale(1.33333 1.33333)" d="M609.334 407.544L610.738 409.677C607.607 413.549 605.086 416.479 602.624 420.83C599.874 419.939 598.727 419.303 596.927 417.09C595.325 410.134 604.531 408.664 609.334 407.544Z"/><path fill="#0B6B76" transform="scale(1.33333 1.33333)" d="M715.324 318.988L716.265 317.892C719.933 321.87 726.537 328.166 728.371 333.018C739.315 361.983 739.294 412.579 738.06 443.085C737.684 452.134 737.02 461.17 736.067 470.177C753.392 493.1 755.488 518.775 752.317 546.75C750.303 564.519 742.943 570.354 726.418 574.782C721.614 575.479 717.441 576.034 712.605 576.427C707.787 577.049 702.111 576.529 698.203 577.153C696.656 579.352 696.692 579.496 693.491 580.049C693.096 580.117 692.699 580.181 692.302 580.24C681.804 582.246 673.009 583.125 662.394 582.873C663.167 567.673 662.823 545.614 662.252 530.362C667.135 529.953 679.691 529.416 683.403 526.569C689.724 521.72 691.415 496.624 686.497 490.591C683.097 486.419 668.211 485.934 662.746 485.641C662.691 475.817 662.87 464.323 662.036 454.703C664.262 454.05 670.41 454.243 673.16 454.137C684.567 453.499 697.684 454.543 708.73 451.654C723.356 447.83 719.364 431.087 716.189 420.894C719.344 420.119 720.179 419.826 721.9 417.11C723.081 410.333 715.161 408.41 710.189 407.494C712.803 402.191 717.065 397.366 719.484 391.401C721.018 387.62 720.167 383.663 721.439 381.514L722.864 385.133L723.529 385.129C725.469 380.267 724.069 368.317 724.056 362.694C724.053 361.69 721.885 357.724 721.298 356.662C723.594 350.025 714.745 346.627 712.625 340.374C712.814 337.626 712.384 338.512 713.971 336.756C714.347 337.853 714.364 337.77 715.255 338.536L716.113 337.931C716.789 333.567 715.831 330.728 714.321 326.67L715.254 326.217L715.324 318.988Z"/><path fill="#EBB953" transform="scale(1.33333 1.33333)" d="M715.324 318.988L716.265 317.892C719.933 321.87 726.537 328.166 728.371 333.018C739.315 361.983 739.294 412.579 738.06 443.085C737.684 452.134 737.02 461.17 736.067 470.177L729.225 463.108C733.486 434.714 735.919 345.456 715.254 326.217L715.324 318.988Z"/><path fill="#EBB953" transform="scale(1.33333 1.33333)" d="M692.302 580.24C692.381 569.088 708.907 464.566 712.635 457.582C713.464 456.028 714.096 455.95 715.669 455.519C717.642 456.446 717.006 455.807 717.936 458.087C715.54 467.491 713.667 479.615 711.872 489.38C707.616 511.97 703.964 534.67 700.92 557.456C700.111 563.09 698.593 571.705 698.203 577.153C696.656 579.352 696.692 579.496 693.491 580.049C693.096 580.117 692.699 580.181 692.302 580.24Z"/><path fill="#0E373E" transform="scale(1.33333 1.33333)" d="M717.936 458.087C720.148 459.341 720.924 459.226 721.644 461.15C720.393 470.921 718.058 481.662 715.985 491.378C711.442 512.667 710.032 534.392 706.357 555.676C705.974 559.269 705.627 562.848 704.754 566.367C704.005 569.383 701.588 572.52 702.411 575.483C705.202 576.728 709.42 576.178 712.605 576.427C707.787 577.049 702.111 576.529 698.203 577.153C698.593 571.705 700.111 563.09 700.92 557.456C703.964 534.67 707.616 511.97 711.872 489.38C713.667 479.615 715.54 467.491 717.936 458.087Z"/><path fill="#162E32" transform="scale(1.33333 1.33333)" d="M610.738 409.677C625.046 395.7 644.584 398.62 662.752 398.505C686.694 398.353 703.118 397.248 716.189 420.894C719.364 431.087 723.356 447.83 708.73 451.654C697.684 454.543 684.567 453.499 673.16 454.137C670.41 454.243 664.262 454.05 662.036 454.703C660.473 454.815 657.997 454.682 656.361 454.646C631.898 450.38 585.514 465.523 602.624 420.83C605.086 416.479 607.607 413.549 610.738 409.677Z"/><path fill="#7C8785" transform="scale(1.33333 1.33333)" d="M644.83 409.833C648.141 409.388 653.008 409.422 656.237 410.261C654.797 411.123 640.352 411.646 637.305 412.111C627.511 413.608 622.842 414.278 616.545 422.112C615.089 424.687 614.176 426.42 612.313 428.709L612.172 428C613.11 425.575 614.655 421.316 616.193 419.39C622.482 411.513 635.523 410.783 644.83 409.833Z"/><path fill="#B6BDBD" transform="scale(1.33333 1.33333)" d="M691.468 411.286C696.001 413.094 704.413 418.8 704.668 424.099C699.102 420.27 698.709 415.4 690.934 412.473L691.468 411.286Z"/><path fill="#51696A" transform="scale(1.33333 1.33333)" d="M671.211 409.405C678.606 408.75 684.441 408.419 691.468 411.286L690.934 412.473C686.948 410.693 676.096 409.941 671.211 409.405Z"/><path fill="#FDFDFD" transform="scale(1.33333 1.33333)" d="M587.4 280.767C596.42 280.927 598.809 285.33 604.258 291.927C602.087 294.785 599.059 293.104 596.868 295.367L597.61 297.647C594.756 299.75 590.822 304.06 588.808 304.723L588.66 305.024L587.981 305.184C584.14 306.113 580.961 308.509 578.843 308.297L578.038 307.475C579.288 301.415 576.827 294.937 574.185 289.59L575.785 288.361C578.042 286.305 581.267 284.816 584.398 282.024C585.9 282.844 587.827 284.281 589.212 284.116C588.539 282.957 587.998 281.967 587.4 280.767Z"/><path fill="#0B6B76" transform="scale(1.33333 1.33333)" d="M575.785 288.361C580.913 292.392 586.669 298.451 588.808 304.723L588.66 305.024L587.981 305.184C584.14 306.113 580.961 308.509 578.843 308.297L578.038 307.475C579.288 301.415 576.827 294.937 574.185 289.59L575.785 288.361Z"/><path fill="#D5902E" transform="scale(1.33333 1.33333)" d="M708.427 293.907C708.453 291.264 702.612 280.981 705.038 276.318C706.919 276.677 710.27 281.157 711.22 282.927C713.291 281.68 713.702 281.487 714.959 279.332L715.826 278.527L718.952 279.82C719.507 281.218 719.527 281.139 719.204 282.59C721.671 282.662 721.492 281.756 723.23 281.752C724.523 283.199 724.782 283.363 726.468 284.336C725.871 285.247 725.52 285.663 724.835 286.486C726.654 286.874 726.88 286.685 728.73 286.108L730.758 287.401C727.808 291.852 724.627 293.211 722.724 297.862C722.066 300.04 721.028 302.25 721.751 304.225L723.128 305.375C719.565 308.292 717.986 313.51 716.265 317.892L715.324 318.988C715.954 312.089 714.711 297.945 708.427 293.907Z"/><path fill="#FDFDFD" transform="scale(1.33333 1.33333)" d="M715.826 278.527L718.952 279.82C719.507 281.218 719.527 281.139 719.204 282.59C721.671 282.662 721.492 281.756 723.23 281.752C724.523 283.199 724.782 283.363 726.468 284.336C725.871 285.247 725.52 285.663 724.835 286.486C726.654 286.874 726.88 286.685 728.73 286.108L730.758 287.401C727.808 291.852 724.627 293.211 722.724 297.862C718.685 296.764 718.954 295.175 715.936 293.463C714.185 292.47 710.906 292.78 710.064 289.397C709.33 286.451 709.915 285.507 711.22 282.927C713.291 281.68 713.702 281.487 714.959 279.332L715.826 278.527Z"/><path fill="#0B6B76" transform="scale(1.33333 1.33333)" d="M608.348 273.191C611.318 272.376 612.874 271.949 615.661 270.691C614.455 272.862 610.442 279.123 610.669 280.752C612.784 280.441 613.97 279.353 615.75 278.113C613.202 282.204 609.131 291.839 606.658 293.038C605.388 292.738 605.265 292.808 604.258 291.927C598.809 285.33 596.42 280.927 587.4 280.767C588.688 280.564 590.04 280.241 591.322 279.961C597.054 277.839 602.629 275.371 608.348 273.191Z"/><path fill="#292A27" transform="scale(1.33333 1.33333)" d="M582.86 215.245C582.41 208.329 582.578 206.673 589.721 206.033C595.238 207.519 602.383 208.953 600.886 216.489C598.247 220.26 594.188 221.389 589.817 221.734L587.567 221.539L582.86 215.245Z"/><path fill="#D5902E" transform="scale(1.33333 1.33333)" d="M694.862 256.104L696.173 255.667C696.195 252.877 683.776 248.363 684.911 244.103L688.903 242.683C690.798 243.018 690.887 243.148 692.523 244.247C693.55 244.745 694.426 245.126 695.48 245.561L697.742 244.022C700.122 245.815 704.927 248.387 706.012 250.098C704.724 252.128 701.443 252.031 699.147 252.237C701.945 256.404 704.198 259.336 707.352 263.247C706.01 265.568 705.822 263.02 704.382 265.826L703.864 265.698C702.811 264.686 701.729 263.927 701.519 262.525L703.438 262.221L703.766 261.581C702.048 259.479 697.908 258.086 694.862 256.104Z"/><path fill="#D38E2A" transform="scale(1.33333 1.33333)" d="M697.742 244.022C700.122 245.815 704.927 248.387 706.012 250.098C704.724 252.128 701.443 252.031 699.147 252.237C696.153 249.671 694.781 247.427 692.523 244.247C693.55 244.745 694.426 245.126 695.48 245.561L697.742 244.022Z"/><path fill="#D5902E" transform="scale(1.33333 1.33333)" d="M604.74 322.267C605.034 314.445 612.748 296.73 618.686 290.112C617.731 293.236 616.367 296.691 615.228 299.789C614.383 303.195 612 322.944 611.836 323.225C609.549 323.514 608.893 326.97 606.008 327.685C605.511 326.355 606.385 323.967 606.777 322.451L604.74 322.267Z"/><path fill="#D38E2A" transform="scale(1.33333 1.33333)" d="M606.777 322.451C609.927 320.441 612.061 304.795 615.228 299.789C614.383 303.195 612 322.944 611.836 323.225C609.549 323.514 608.893 326.97 606.008 327.685C605.511 326.355 606.385 323.967 606.777 322.451Z"/><path fill="#D38E2A" transform="scale(1.33333 1.33333)" d="M615.848 248.659C617.517 247.201 629.871 248.261 633.705 248.147C630.08 251.571 621.304 259.259 617.232 261.586L616.514 261.216C616.128 259.549 615.836 256.294 615.114 255.307C615.136 253.953 615.674 250.184 615.848 248.659Z"/><path fill="#292A27" transform="scale(1.33333 1.33333)" d="M587.567 221.539L589.817 221.734L589.867 222.329C591.047 235.354 605.095 233.642 613.409 227.607L614.404 227.738C614.068 235.937 600.619 235.85 595.241 233.419C591.171 231.579 589.641 229.653 587.357 225.99L587.567 221.539Z"/><defs><linearGradient id="gradient_0" gradientUnits="userSpaceOnUse" x1="714.18176" y1="308.90967" x2="710.71075" y2="309.73276"><stop offset="0" stop-color="#CE7A28"/><stop offset="1" stop-color="#CD913C"/></linearGradient></defs><path fill="url(#gradient_0)" transform="scale(1.33333 1.33333)" d="M708.427 293.907C714.711 297.945 715.954 312.089 715.324 318.988L715.254 326.217L714.321 326.67C712.979 312.205 710.802 307.039 708.427 293.907Z"/><path fill="#D38E2A" transform="scale(1.33333 1.33333)" d="M706.644 269.102C706.101 270.225 705.97 270.32 705.205 271.252L703.653 271.105C699.403 268.671 695.12 261.109 693.53 256.553L694.862 256.104C697.908 258.086 702.048 259.479 703.766 261.581L703.438 262.221L701.519 262.525C701.729 263.927 702.811 264.686 703.864 265.698L704.382 265.826L706.644 269.102Z"/><path fill="#D38E2A" transform="scale(1.33333 1.33333)" d="M689.908 226.658C690.476 227.191 692.939 229.576 693.409 229.867C695.585 231.924 700.326 235.254 701.341 236.968L700.956 237.773C697.942 238.701 695.83 237.935 692.692 237.239C690.106 235.528 687.14 234.278 688.35 230.915C690.122 231.833 689.574 231.884 691.213 231.634C691.634 230.036 690.603 228.317 689.908 226.658Z"/><path fill="#D5902E" transform="scale(1.33333 1.33333)" d="M702.904 339.671C704.879 339.994 709.848 341.014 711.498 340.632C711.904 338.505 712.154 336.682 712.968 334.668C713.862 335.497 713.601 335.365 713.971 336.756C712.384 338.512 712.814 337.626 712.625 340.374C714.745 346.627 723.594 350.025 721.298 356.662C714.34 347.478 712.592 345.592 702.904 339.671Z"/><path fill="#D5902E" transform="scale(1.33333 1.33333)" d="M688.724 220.015C689.576 219.977 690.382 219.89 691.215 219.708L691.9 220.988L692.227 221.504C694.942 225.727 699.271 226.664 699.771 229.091C697.903 230.283 695.656 229.942 693.409 229.867C692.939 229.576 690.476 227.191 689.908 226.658L688.987 225.626C688.415 223.342 687.956 222.292 688.724 220.015Z"/><path fill="#D5902E" transform="scale(1.33333 1.33333)" d="M606.696 346.63C605.524 345.375 605.519 345.779 605.486 344.473C607.576 342.261 611.437 341.148 614.379 340.555C619.093 340.997 618.313 340.053 623.084 341.676C622.401 342.226 622.29 342.187 621.455 342.249C616.8 342.599 610.968 344.733 606.696 346.63Z"/><path fill="#D38E2A" transform="scale(1.33333 1.33333)" d="M682.925 212.817C685.904 214.478 691.25 218.046 694.374 217.217C696.543 218.297 697.328 218.228 698.439 220.033C696.362 221.863 694.486 221.329 691.9 220.988L691.215 219.708C690.382 219.89 689.576 219.977 688.724 220.015C686.81 217.601 684.877 215.201 682.925 212.817Z"/><path fill="#D5902E" transform="scale(1.33333 1.33333)" d="M688.35 230.915C687.813 228.892 684.732 226.481 684.634 223.758C686.783 223.838 686.994 224.397 688.987 225.626L689.908 226.658C690.603 228.317 691.634 230.036 691.213 231.634C689.574 231.884 690.122 231.833 688.35 230.915Z"/><path fill="#CE8565" transform="scale(1.33333 1.33333)" d="M713.595 178.012C716.301 178.336 715.251 177.948 717.611 179.962C718.227 189.186 687.248 200.765 678.818 202.552C675.201 201.096 673.716 201.212 672.588 197.381C670.504 197.043 667.117 195.278 666.189 193.339C668.7 186.274 704.036 181.906 712.928 178.289L713.595 178.012Z"/><path fill="#D9936F" transform="scale(1.33333 1.33333)" d="M713.595 178.012C716.301 178.336 715.251 177.948 717.611 179.962C718.227 189.186 687.248 200.765 678.818 202.552C675.201 201.096 673.716 201.212 672.588 197.381C677.998 196.46 682.466 198.117 688.371 196.616C693.263 195.374 701.235 193.395 705.804 190.982C706.25 190.747 709.57 185.619 709.832 185.479C712.518 184.05 714.363 184.483 716.012 181.865C715.748 179.417 715.779 180.113 713.595 178.012Z"/><path fill="#EBB953" transform="scale(1.33333 1.33333)" d="M662.421 342.572C664.38 341.143 665.176 340.006 667.23 339.806C668.502 340.946 668.643 341.109 669.349 342.663C669.248 344.547 669.024 345.321 669.923 346.924C671.768 346.241 673.585 342.497 675.589 340.622C678.431 341.707 679.274 340.01 681.776 341.125C679.021 349.539 675.501 349.061 672.3 363.324C670.446 363.152 668.947 363.275 667.599 362.124C667.932 359.326 669.371 356.678 668.657 354.688L667.227 354.941L667.096 354.027L667.71 353.793C668.609 353.441 668.882 353.241 669.682 352.718L669.894 351.727C668.542 351.979 665.977 354.582 664.958 355.628C662.602 355.36 663.516 355.703 661.504 354.058C661.085 352.764 660.723 352.677 661.515 351.466C663.141 348.979 663.791 346.579 664.588 343.729L664.433 343.187C663.469 345.033 661.841 348.401 660.625 349.916C661 347.355 662.352 343.457 662.421 342.572Z"/><path fill="#ECCC86" transform="scale(1.33333 1.33333)" d="M662.421 342.572L662.308 342.28L661.397 342.389C657.89 345.859 659.093 351.03 657.886 356.758L656.884 356.594C655.082 354.81 655.224 354.394 656.759 352.139C659.137 348.646 657.306 349.966 656.874 347.562C660.054 341.019 663.36 335.484 668.87 330.543C670.297 329.264 674.907 325.468 676.679 325.559C676.616 328.586 671.408 331.9 671.257 335.442C672.886 335.959 673.097 335.518 674.981 334.872C676.585 331.417 678.595 331.102 682.366 329.395C680.263 332.725 677.39 337.171 675.589 340.622C673.585 342.497 671.768 346.241 669.923 346.924C669.024 345.321 669.248 344.547 669.349 342.663C668.643 341.109 668.502 340.946 667.23 339.806C665.176 340.006 664.38 341.143 662.421 342.572Z"/><path fill="#D38E2A" transform="scale(1.33333 1.33333)" d="M649.522 340.474C650.228 342.89 645.648 351.916 644.337 355.941C641.336 365.154 642.04 377.343 644.716 386.592C644.991 387.54 648.493 392.337 649.565 394.453L648.899 395.35C632.118 384.088 637.34 353.412 649.522 340.474Z"/><path fill="#292A27" transform="scale(1.33333 1.33333)" d="M633.221 203.565C638.487 202.796 648.113 203.409 647.278 212.08C647.228 212.605 646.628 212.726 646.068 213.051L644.978 212.292C640.507 206.032 637.376 207.614 630.177 207.851L629.459 207.115C630.195 205.19 631.437 204.709 633.221 203.565Z"/><path fill="#292A27" transform="scale(1.33333 1.33333)" d="M610.059 194.873C614.741 194.812 621.039 197.987 618.7 203.066L617.431 203.082C615.187 198.139 613.623 198.877 608.568 198.551L608.312 197.538L610.059 194.873Z"/><path fill="#EBB953" transform="scale(1.33333 1.33333)" d="M645.138 181.168C645.13 181.231 645.121 181.293 645.113 181.356C644.94 181.817 644.768 182.279 644.595 182.74C642.746 183.673 640.038 185.177 638.383 186.193C635.142 188.182 632.114 190.523 629.066 192.73C628.115 187.314 641.351 182.769 645.138 181.168Z"/><path fill="#D38E2A" transform="scale(1.33333 1.33333)" d="M678.753 375.271C679.308 377.959 675.571 385.13 676.288 388.759C676.599 390.333 676.132 392.713 675.554 394.258C674.278 393.41 674.794 393.947 674.047 392.502C674.086 385.61 674.564 380.964 678.753 375.271Z"/><path fill="#EBB953" transform="scale(1.33333 1.33333)" d="M680.48 277.452C683.392 279.066 685.108 286.282 684.279 289.55L682.416 288.366C681.208 285.344 680.001 280.679 680.48 277.452Z"/><path fill="#D38E2A" transform="scale(1.33333 1.33333)" d="M675.825 363.547C674.762 369.384 672.141 374.028 671.436 380.49C669.767 374.116 671.014 368.17 675.825 363.547Z"/><path fill="#EBB953" transform="scale(1.33333 1.33333)" d="M629.967 181.271C631.443 181.525 631.389 181.47 632.59 182.336C632.181 184.712 629.054 186.824 627.011 188.607L625.966 189.05L625.134 188.465C625.637 186.536 628.601 183.054 629.967 181.271Z"/><path fill="#D38E2A" transform="scale(1.33333 1.33333)" d="M670.289 285.923L671.579 286.763C672.832 290.555 672.509 296.722 672.32 300.808L671.53 300.501C670.647 295.898 670.538 290.643 670.289 285.923Z"/><path fill="#D38E2A" transform="scale(1.33333 1.33333)" d="M664.332 278.755L665.424 279.721C666.894 282.977 666.242 288.094 665.9 291.593L665.128 290.845C664.094 286.945 663.91 282.757 664.332 278.755Z"/><path fill="#EBB953" transform="scale(1.33333 1.33333)" d="M647.363 187.587L648.478 187.781L648.8 188.535C646.741 190.232 642.637 191.564 640.019 192.572L638.72 192.511L638.988 191.469C641.826 189.462 644.137 188.768 647.363 187.587Z"/><path fill="#EBB953" transform="scale(1.33333 1.33333)" d="M710.599 358.68C714.862 360.845 713.648 364.374 712.199 367.984C709.788 366.341 710.959 362.164 710.599 358.68Z"/><path fill="#EBB953" transform="scale(1.33333 1.33333)" d="M688.697 268.168C691.517 270.361 692.555 274.672 691.173 277.946C690.774 277.199 690.386 276.446 690.009 275.688C688.537 272.719 687.732 271.046 688.697 268.168Z"/><path fill="#D5902E" transform="scale(1.33333 1.33333)" d="M616.142 373.143L616.924 373.72C616.923 373.717 617.855 382.741 618.002 383.751C614.838 380.936 613.715 376.848 616.142 373.143Z"/><path fill="#EBB953" transform="scale(1.33333 1.33333)" d="M657.202 295.801C658.969 297.3 657.413 304.05 656.558 306.014C654.655 304.248 656.568 298.11 657.202 295.801Z"/><path fill="#D38E2A" transform="scale(1.33333 1.33333)" d="M677.028 295.001L678.05 295.758C679.035 298.015 678.888 301.831 678.959 304.449L677.696 303.678C676.774 301.217 677.015 297.716 677.028 295.001Z"/><path fill="#D38E2A" transform="scale(1.33333 1.33333)" d="M685.661 304.963L686.73 305.85C688.133 308.492 688.089 311.671 688.285 314.686C685.758 312.71 685.856 307.94 685.661 304.963Z"/><path fill="#D38E2A" transform="scale(1.33333 1.33333)" d="M700.587 319.392C703.831 321.605 703.579 324.474 703.972 328.146L702.896 327.687C701.621 325.633 701.091 321.893 700.587 319.392Z"/><path fill="#D5902E" transform="scale(1.33333 1.33333)" d="M679.345 255.745C682.366 257.377 682.99 261.824 683.732 264.963C681.141 261.957 679.901 259.722 679.345 255.745Z"/><path fill="#D5902E" transform="scale(1.33333 1.33333)" d="M694.317 301.642C696.494 303.108 696.654 306.275 697.233 309.052C696.146 308.802 695.909 308.489 695.021 307.807C693.83 305.536 694.132 304.208 694.317 301.642Z"/><path fill="#D5902E" transform="scale(1.33333 1.33333)" d="M699.027 383.698C700.234 386.481 698.447 389.65 697.1 392.157C695.94 389.375 697.763 386.177 699.027 383.698Z"/><path fill="#D38E2A" transform="scale(1.33333 1.33333)" d="M681.202 311.59C683.302 313.845 682.572 318.234 682.386 321.171C680.492 319.133 681.081 314.303 681.202 311.59Z"/><path fill="#D38E2A" transform="scale(1.33333 1.33333)" d="M663.307 231.596C666.047 233.788 667.862 236.845 669.84 239.76C666.07 238.06 664.635 235.251 663.307 231.596Z"/><path fill="#D5902E" transform="scale(1.33333 1.33333)" d="M645.391 268.21L646.099 268.879C646.398 271.276 645.596 273.71 645.018 276.091L644.091 275.318C643.713 273.108 644.737 270.478 645.391 268.21Z"/><path fill="#EBB953" transform="scale(1.33333 1.33333)" d="M649.356 298.435C650.375 301.268 649.137 304.728 648.196 307.446C646.905 304.5 648.3 301.296 649.356 298.435Z"/><path fill="#D5902E" transform="scale(1.33333 1.33333)" d="M693.015 342.285L693.983 343.028C695.1 345.434 694.82 346.35 694.535 348.985L693.426 348.958C692.565 347.316 692.949 344.309 693.015 342.285Z"/><path fill="#D5902E" transform="scale(1.33333 1.33333)" d="M701.609 366.649C704.097 368.398 703.583 371.032 703.106 373.615L702.507 373.508C701.671 371.542 701.731 368.861 701.609 366.649Z"/><path fill="#D38E2A" transform="scale(1.33333 1.33333)" d="M647.202 326.605C648.532 329.382 647.08 332.022 645.855 334.564C644.77 332.255 646.382 328.833 647.202 326.605Z"/><path fill="#EBB953" transform="scale(1.33333 1.33333)" d="M689.909 319.305L690.954 319.83C691.74 321.237 691.052 324.062 690.809 325.833L689.95 325.786C689.098 323.645 689.618 321.667 689.909 319.305Z"/><path fill="#D38E2A" transform="scale(1.33333 1.33333)" d="M660.764 381.158C662.726 382.231 663.096 386.608 663.466 388.695C660.919 386.448 660.833 384.306 660.764 381.158Z"/><path fill="#D5902E" transform="scale(1.33333 1.33333)" d="M698.868 346.997L699.798 347.901C700.699 349.925 700.356 352.509 700.259 354.774C698.563 352.166 698.808 349.999 698.868 346.997Z"/><path fill="#D5902E" transform="scale(1.33333 1.33333)" d="M655.987 264.825C657.566 266.952 656.899 269.968 656.573 272.466C654.887 269.948 655.49 267.622 655.987 264.825Z"/><path fill="#EBB953" transform="scale(1.33333 1.33333)" d="M643.229 301.056C643.983 303.333 643.124 306.943 642.731 309.481C641.233 306.313 642.197 304.313 643.229 301.056Z"/><path fill="#162E32" transform="scale(1.33333 1.33333)" d="M712.605 576.427C717.441 576.034 721.614 575.479 726.418 574.782C726.454 576.036 726.251 578.55 727.028 579.242C727.607 579.758 730.157 580.966 730.973 581.282C738.075 584.028 739.506 589.602 739.805 596.808C740.019 601.97 740.43 606.911 736.876 611.31C733.899 614.996 725.872 614.91 725.505 615.176C717.81 620.753 717.643 628.638 705.484 628.844C699.639 628.942 696.092 628.136 690.278 626.135C690.868 632.928 691.179 658.179 688.761 663.834C688.756 663.941 688.751 664.049 688.746 664.156C680.916 684.037 645.745 684.163 633.625 668.789C629.464 663.753 629.18 656.153 629.287 649.786C629.441 640.734 628.773 630.601 629.799 621.616C631.341 610.865 630.751 594.581 632.165 582.293C640.387 581.985 647.887 582.757 655.889 582.784L662.394 582.873C673.009 583.125 681.804 582.246 692.302 580.24C692.699 580.181 693.096 580.117 693.491 580.049C696.692 579.496 696.656 579.352 698.203 577.153C702.111 576.529 707.787 577.049 712.605 576.427Z"/><path fill="#0E373E" transform="scale(1.33333 1.33333)" d="M688.761 663.834C687.369 659.604 689.735 655.152 688.488 650.863C685.552 649.339 685.03 652.01 682.104 650.849L682.165 649.801C684.373 648.654 686.045 647.903 687.933 646.262C690.112 641.105 689.68 632.33 689.353 626.652L689.307 625.924L690.278 626.135C690.868 632.928 691.179 658.179 688.761 663.834Z"/><path fill="#51696A" transform="scale(1.33333 1.33333)" d="M669.67 600.531C669.792 603.411 666.898 609.348 665.528 611.934L665.172 610.817C665.686 606.707 667.381 603.924 669.67 600.531Z"/><path fill="#162E32" transform="scale(1.33333 1.33333)" d="M547.058 238.711C527.04 262.895 491.092 244.344 499.59 214.195C505.638 192.74 539.219 189.729 548.265 210.286C551.707 218.11 552.436 224.887 549.676 233.131C561.551 244.245 574.216 254.469 586.466 265.149C591.717 269.728 591.298 273.627 591.322 279.961C590.04 280.241 588.688 280.564 587.4 280.767C587.998 281.967 588.539 282.957 589.212 284.116C587.827 284.281 585.9 282.844 584.398 282.024C584.576 279.041 584.225 273.939 584.104 270.804C579.047 265.266 553.585 244.059 547.058 238.711Z"/><path fill="#FDFDFD" transform="scale(1.33333 1.33333)" d="M504.381 230.436C501.156 221.622 503.943 211.733 511.295 205.901C518.648 200.07 528.91 199.61 536.754 204.76C539.259 206.405 541.397 208.549 543.034 211.058C548.812 219.911 547.393 231.636 539.672 238.855C531.95 246.074 520.159 246.698 511.719 240.336C508.37 237.812 505.822 234.374 504.381 230.436Z"/><path fill="#D1E9E1" transform="scale(1.33333 1.33333)" d="M543.034 211.058C548.812 219.911 547.393 231.636 539.672 238.855C531.95 246.074 520.159 246.698 511.719 240.336C515.363 234.424 536.822 214.852 543.034 211.058Z"/><path fill="#D1E9E1" transform="scale(1.33333 1.33333)" d="M504.381 230.436C501.156 221.622 503.943 211.733 511.295 205.901C518.648 200.07 528.91 199.61 536.754 204.76C528.457 210.426 511.604 226.862 504.381 230.436Z"/><path fill="#162E32" transform="scale(1.33333 1.33333)" d="M757.682 233.703C752.781 217.103 759.568 201.9 776.628 197.364C812.72 187.769 822.238 246.287 785.389 249.446C774.111 250.413 767.964 246.999 760.695 238.612C754.209 244.574 747.624 250.426 740.941 256.166C736.351 260.078 728.15 266.687 724.381 270.874C723.872 274.674 723.481 277.894 723.23 281.752C721.492 281.756 721.671 282.662 719.204 282.59C719.527 281.139 719.507 281.218 718.952 279.82L715.826 278.527C717.244 274.489 717.519 272.603 718.192 268.447C722.336 263.871 729.951 258.018 734.913 253.863C742.687 247.354 750.28 240.632 757.682 233.703Z"/><path fill="#FDFDFD" transform="scale(1.33333 1.33333)" d="M761.74 229.736C758.942 221.038 761.838 211.515 769.006 205.85C776.174 200.184 786.105 199.566 793.92 204.3C796.763 206.022 799.177 208.369 800.978 211.163C806.953 220.432 805.103 232.7 796.662 239.794C788.22 246.888 775.82 246.596 767.722 239.111C764.955 236.553 762.895 233.324 761.74 229.736Z"/><path fill="#D1E9E1" transform="scale(1.33333 1.33333)" d="M800.978 211.163C806.953 220.432 805.103 232.7 796.662 239.794C788.22 246.888 775.82 246.596 767.722 239.111C775.523 234.07 793.581 217.76 800.978 211.163Z"/><path fill="#D1E9E1" transform="scale(1.33333 1.33333)" d="M761.74 229.736C758.942 221.038 761.838 211.515 769.006 205.85C776.174 200.184 786.105 199.566 793.92 204.3C785.277 212.326 771.396 221.726 761.74 229.736Z"/><path fill="#162E32" transform="scale(1.33333 1.33333)" d="M730.758 287.401L734.543 289.707C745.026 294.191 757.097 296.267 766.938 301.913C772.024 304.83 769.516 314.928 764.683 317.29C759.093 318.558 736.728 307.619 731.646 306.919C728.501 308.884 726.941 306.5 723.567 305.5L723.128 305.375L721.751 304.225C721.028 302.25 722.066 300.04 722.724 297.862C724.627 293.211 727.808 291.852 730.758 287.401Z"/><path fill="#0B6B76" transform="scale(1.33333 1.33333)" d="M730.758 287.401L734.543 289.707C731.562 293.383 726.93 303.095 731.646 306.919C728.501 308.884 726.941 306.5 723.567 305.5L723.128 305.375L721.751 304.225C721.028 302.25 722.066 300.04 722.724 297.862C724.627 293.211 727.808 291.852 730.758 287.401Z"/><path fill="#162E32" transform="scale(1.33333 1.33333)" d="M574.185 289.59C576.827 294.937 579.288 301.415 578.038 307.475C570.727 306.674 553.693 318.988 545.299 317.244C540.013 316.145 536.695 303.678 542.305 301.518C553.05 297.38 563.668 294.548 574.185 289.59Z"/><path fill="#EBB953" fill-opacity="0.97254902" transform="scale(1.33333 1.33333)" d="M640.616 177.809L642.625 177.133C642.686 175.252 641.473 174.166 640.252 172.286L640.75 172.079C644.566 174.54 647.477 177.727 650.289 179.397C646.044 179.563 644.71 179.03 640.616 177.809Z"/></svg>