<?xml version="1.0" encoding="utf-8" ?><svg xmlns="http://www.w3.org/2000/svg" xmlns:xlink="http://www.w3.org/1999/xlink" width="1792" height="1024" viewBox="0 0 1792 1024"><path fill="#DEBD81" transform="scale(1.33333 1.33333)" d="M718.335 270.76C734.888 271.888 759.043 271.059 773.81 276.712C770.271 281.566 758.797 297.688 759.271 303.024L760.255 303.73C766.988 302.784 772.465 285.871 778.761 279.511C781.699 278.514 782.354 279.301 785.298 280.598C802.069 287.988 816.943 299.733 823.342 317.586C820.801 324.277 807.311 342.654 808.49 347.476C814.51 349.904 822.931 330.482 825.633 325.683C826.425 337.301 823.924 346.272 823.839 357.591C849.32 351.155 878.445 346.045 904.499 352.228C901.619 359.132 887.192 380.195 889.278 385.627C889.847 385.746 890.391 385.984 890.96 385.813C895.689 384.388 907.687 358.794 910.638 353.2C929.242 357.366 949.515 369.294 960.004 385.687C956.532 393.843 950.955 401.321 947.648 409.431C946.921 411.214 947.392 412.073 948.12 413.452C954.815 413.305 957.885 396.826 963.751 393.515C970.404 400.599 962.315 429.359 955.118 435.816C946.49 443.555 941.651 444.049 932.178 448.016C907.537 458.334 884.292 459.941 858.019 460.946C859.693 457.89 864.173 450.619 862.039 447.375C857.265 447.809 852.973 457.383 851.017 461.1C845.844 461.55 838.107 461.529 832.602 461.769C818.985 462.476 805.358 462.97 791.725 463.252C794.621 457.798 805.575 439.516 802.497 434.406C797.594 435.442 787.375 458.49 783.836 464.003C760.487 464.611 738.532 466.089 714.797 466.341C717.899 461.045 728.453 447.667 726.659 442.313L725.498 441.94C719.319 444.618 712.319 460.005 706.885 465.832L706.404 466.336C698.957 467.325 683.299 467.27 675.117 467.45C660.237 468.328 641.253 466.564 625.484 466.792C629.513 461.557 645.088 438.068 646.12 432.603L645.407 431.566C644.952 431.565 644.51 431.578 644.061 431.661C639.321 432.536 622.221 461.163 618.319 466.982C590.35 468.198 559.927 466.701 531.862 466.397C515.971 466.225 497.523 465.89 481.885 463.924C485.7 458.289 505.044 433.746 502.483 428.624L501.381 428.612C495.702 431.908 479.256 457.194 475.639 463.648C461.529 464.59 432.255 464.734 419.309 462.407C424.229 455.989 428.878 448.69 433.625 442.078C437.981 436.01 443.145 430.31 444.459 422.832L443.199 421.826C437.874 424.552 417.973 454.956 413.687 461.535C396.062 459.803 376.773 451.28 372.924 433.239C364.77 395.023 407.717 377.545 438.724 382.946C446.538 384.307 453.481 386.687 461.193 386.76C462.376 386.771 461.992 383.879 462.275 383.049C462.718 370.38 460.834 362.353 466.865 350.557C475.991 332.705 492.617 318.86 511.577 312.676C529.955 306.682 556.873 308.052 574.044 317.226C581.565 321.244 588.164 326.67 595.546 330.398C601.403 324.752 606.058 315.54 612.45 309.323C642.019 280.566 678.615 272.004 718.335 270.76ZM536.257 463.567C540.843 458.554 565.871 424.379 565.789 417.884C564.788 416.478 565.31 416.916 563.124 416.528C559.047 421.274 533.864 457.464 532.915 461.308L533.532 462.632L536.257 463.567ZM471.688 417.634C475.422 413.993 498.927 380.109 499.465 376.232C498.393 374.885 497.935 375.162 495.932 374.707C490.201 380.14 471.708 406.174 468.948 414.982C468.702 415.767 469.491 416.496 470.031 417.218L471.688 417.634ZM535.598 416.235C539.816 412.192 562.988 378.886 564.131 373.625C563.349 371.879 562.977 372.142 560.952 371.11C557.053 375.836 533.224 409.549 532.482 413.419C533.593 415.443 533.401 414.912 535.598 416.235ZM820.649 405.364C824.261 401.384 844.865 367.929 844.882 363.69C843.349 362.492 842.968 362.452 841.06 361.991C836.562 367.963 817.994 397.609 817.533 403.521C818.3 405.405 817.781 404.938 819.328 405.603L820.649 405.364ZM762.392 436.788C766.493 433.062 789.019 397.802 787.629 393.645C786.368 393.131 786.117 392.984 784.71 392.823C781.38 396.341 761.32 428.538 759.005 433.615C759.236 435.98 759.857 436.358 762.392 436.788ZM395.444 435.65C401.024 431.649 423.527 401.594 424.714 394.991C423.622 393.263 424.037 393.82 422.026 392.765C413.755 400.059 402.766 420.749 394.535 429.645C392.891 431.422 393.168 434.225 395.444 435.65ZM723.787 284.621C720.242 289.153 697.98 323.185 697.932 326.541C699.203 327.857 699.298 327.851 701.094 328.4C706.215 323.222 726.092 292.833 726.81 286.44C725.789 285.188 725.38 285.188 723.787 284.621ZM898.258 443.18C902.404 439.012 922.911 403.364 921.583 398.819L918.34 398.239C914.197 403.306 894.206 437.854 895.974 442.287C896.842 442.833 897.24 443.222 898.258 443.18ZM648.65 401.35C653.003 396.829 673.868 365.056 674.784 360.448C673.584 359.14 673.224 359.39 671.289 358.902C667.27 363.652 642.336 397.147 647.087 401.281L648.65 401.35ZM864.558 399.402C861.731 402.693 841.358 438.338 840.114 442.011L840.363 443.662C841.26 444.191 841.819 444.596 842.842 444.851C847.737 441.009 868.813 405.519 867.339 400.752C866.454 400.306 865.465 399.768 864.558 399.402ZM749.296 377.943C744.85 381.686 725.117 413.364 723.915 419.002C724.621 420.876 724.513 420.335 726.636 421.667C730.81 417.894 752.708 383.999 751.232 379.218L749.296 377.943ZM676.414 453.122C681.34 449.466 702.617 415.929 700.48 410.601L698.544 409.771C692.477 415.311 678.454 441.758 674.392 450.089C674.117 450.654 675.875 452.667 676.414 453.122ZM787.858 312.685C785.203 316.962 764.957 354.922 765.155 357.285C766.389 358.605 766.613 358.675 768.362 359.161C773.476 353.513 790.548 322.123 790.897 314.869L790.25 313.278C789.436 313.042 788.691 312.771 787.858 312.685ZM533.999 368.54C538.604 364.862 558.476 333.179 558.448 327.701C557.143 326.574 557.001 326.565 555.355 325.958C552.038 330.516 531.101 363.583 530.931 367.398L531.548 368.233L533.999 368.54ZM597.308 353.366C602.382 347.633 619.234 320.49 620.309 313.811L620.009 312.798C618.751 312.422 618.125 312.189 616.787 312.076C613.215 317.825 593.551 347.768 593.87 351.758C595.389 353.281 594.892 352.806 597.308 353.366ZM589.914 454.228C594.636 448.75 615.045 417.827 616.124 412.224L615.814 411.132L613.009 409.923C609.047 414.539 586.833 448.003 586.894 452.117C588.141 453.322 588.353 453.472 589.914 454.228ZM676.875 288.438C671.564 292.881 650.817 323.317 649.886 329.869L650.353 331.417L652.219 332.287C655.939 329.436 678.221 295.169 679.195 290.58C678.317 288.968 678.648 289.488 676.875 288.438ZM630.49 353.636C625.923 359.905 604.958 388.948 603.692 394.362L604.141 395.715C605.186 396.149 605.93 396.538 607.062 396.666C612.385 390.464 632.689 362.302 633.715 355.496L633.308 354.536L630.49 353.636ZM729.504 336.432C720.25 346.952 709.803 365.195 702.868 377.43C702.348 378.348 705.381 379.942 706.155 380.239C710.014 377.203 732.105 342.51 732.827 337.967C731.554 336.528 731.799 336.967 729.504 336.432Z"/></svg>