<?xml version="1.0" encoding="utf-8" ?><svg xmlns="http://www.w3.org/2000/svg" xmlns:xlink="http://www.w3.org/1999/xlink" width="1792" height="1024" viewBox="0 0 1792 1024"><path fill="#0B6B75" transform="scale(1.33333 1.33333)" d="M664.95 160.325C671.527 146.439 698.003 95.9226 700.156 141.662C701.03 160.208 699.01 170.905 692.272 187.937C694.358 190.964 700.593 195.224 700.354 198.033C698.599 198.121 697.732 197.978 695.975 197.763C695.375 201.304 702.029 207.916 704.447 210.492C702.118 209.66 697.541 207.207 695.677 207.476L695.659 209.498C697.169 213.221 701.181 218.556 701.252 220.369C698.134 222.36 698.266 219.158 697.076 221.892C697.605 224.563 699.388 226.942 700.882 229.263C698.387 229.974 694.316 230.574 692.78 231.067C696.385 235.035 699.479 237.765 701.698 242.674L703.12 246.367L704.925 247.681L704.282 250.148C707.718 251.894 711.643 253.774 714.917 255.732L711.594 264.037C721.322 267.372 722.561 268.095 728.893 275.938L728.624 278.812C726.981 288.198 725.551 292.72 720.114 300.72C730.636 320.225 729.737 352.653 729.407 374.863C729.126 393.667 728.749 412.468 728.275 431.268C728.006 439.882 727.204 448.914 727.115 457.402C739.072 469.138 743.964 486.264 744.177 502.68L744.119 503.937C744.204 505.389 744.296 508.292 744.479 509.623L744.215 511.096C744.064 516.844 743.751 521.756 743.253 527.488L743.016 528.722C742.803 530.833 742.285 534.789 742.271 536.759L741.928 537.663C738.081 554.36 738.236 558.412 724.641 569.639C730.866 576.684 733.906 581.874 733.58 591.716C733.354 598.529 728.865 604.325 721.643 603.564C719.004 607.512 716.787 611.463 711.682 612.284C692.564 615.359 695.21 596.424 695.032 583.868C692.19 584.276 688.451 584.697 685.713 585.259C668.159 587.567 642.998 587.845 625.64 585.092C624.341 584.51 619.58 583.77 617.543 583.05C607.478 579.494 597.64 576.617 588.671 570.763C575.226 561.987 573.398 551.964 570.323 537.522L569.837 535.692L568.822 528.779L568.353 527.16C568.504 526.307 568.337 522.282 568.309 521.176L567.888 517.414L567.751 511.895L567.675 508.758L567.648 503.549L567.277 501.589C570.339 484.001 570.072 471.051 585.252 457.475C582.703 442.152 582.695 417.641 582.569 401.799C582.332 371.927 578.593 333.45 588.356 304.945C575.515 303.637 571.375 288.824 568.197 278.156C571.009 273.9 575.254 268.305 580.476 266.617C582.044 266.11 583.301 267.225 584.788 268.078L585.821 267.308C584.282 263.113 582.753 259.796 580.878 255.755C583.55 253.797 587.912 251.615 590.93 249.988C592.744 249.507 595.69 247.755 597.447 246.797C598.373 245.97 601.049 244.134 602.175 243.321L603.975 242.147C605.21 239.972 605.028 239.681 605.503 237.56C606.109 234.853 611.152 232.564 613.551 231.279L608.407 231.016C607.152 230.585 607.176 230.675 606.302 229.699C606.939 228.679 611.461 226.019 613.163 224.724L603.153 228.358C606.181 225.955 611.436 222.369 610.265 217.746C607.478 218.873 606.131 219.875 603.07 219.307L602.746 218.626C606.471 215.846 607.181 215.689 609.978 211.896L609.672 211.26C607.062 212.183 605.262 212.995 602.485 213.019L602.001 212.373C603.446 208.856 608.346 209.666 609.556 203.85C607.439 203.973 604.646 204.467 603.068 203.466C603.739 201.688 607.837 200.909 608.938 199.121C610.062 197.297 611.222 194.452 612.06 192.468L611.745 192.15C598.161 178.178 592.902 159.399 594.466 140.176C594.783 136.281 595.248 131.262 598.189 128.42C608.152 123.937 630.703 153.15 634.912 161.407C638.529 160.006 643.165 158.878 646.969 157.837C645.551 156.292 643.289 152.921 641.981 151.085C644.635 153.034 648.745 156.963 651.988 155.885L652.215 153.78C653.699 154.275 655.49 156.869 656.598 158.218L664.95 160.325Z"/><path fill="#E9AB39" transform="scale(1.33333 1.33333)" d="M664.95 160.325C671.527 146.439 698.003 95.9226 700.156 141.662C701.03 160.208 699.01 170.905 692.272 187.937C694.358 190.964 700.593 195.224 700.354 198.033C698.599 198.121 697.732 197.978 695.975 197.763C695.375 201.304 702.029 207.916 704.447 210.492C702.118 209.66 697.541 207.207 695.677 207.476L695.659 209.498C697.169 213.221 701.181 218.556 701.252 220.369C698.134 222.36 698.266 219.158 697.076 221.892C697.605 224.563 699.388 226.942 700.882 229.263C698.387 229.974 694.316 230.574 692.78 231.067C696.385 235.035 699.479 237.765 701.698 242.674L703.12 246.367L704.925 247.681L704.282 250.148C707.718 251.894 711.643 253.774 714.917 255.732L711.594 264.037C721.322 267.372 722.561 268.095 728.893 275.938L728.624 278.812C726.981 288.198 725.551 292.72 720.114 300.72C718.697 301.728 717.554 302.544 716.217 303.684C716.04 305.529 716.13 306.016 716.351 307.879L713.604 304.145C709.6 303.928 708.769 303.039 705.409 300.816L705.815 298.904L703.85 299.997C704.038 305.214 701.934 305.718 704.375 311.251L704.156 312.313C703.944 314.573 706.371 330.094 707.651 330.906C725.882 342.469 721.677 375.433 708.543 390.492C706.763 393.139 706.261 392.852 706.682 395.189C709.18 398.119 710.634 398.158 713.614 401.586L711.425 402.484C711.119 403.638 710.664 405.849 710.329 406.805C707.187 402.469 704.628 400.386 700.608 397.053C684.316 389.371 669.444 389.486 652.008 389.37C648.293 389.791 643.061 390.259 639.302 390.231C623.894 391.889 613.742 393.705 602.741 405.584C600.73 404.402 599.065 404.21 596.79 403.725L597.084 403.328C600.137 399.128 600.589 398.706 604.676 395.336C604.039 392.904 598.594 387.598 596.708 384.073C593.746 378.536 592.929 375.888 591.045 369.978C589.665 362.559 590.179 358.227 590.564 350.69C588.183 348.74 588.679 345.3 588.581 342.316C588.974 327.549 589.736 317.125 596.324 303.89C594.445 303.572 592.018 303.869 590.064 304.004L588.356 304.945C575.515 303.637 571.375 288.824 568.197 278.156C571.009 273.9 575.254 268.305 580.476 266.617C582.044 266.11 583.301 267.225 584.788 268.078L585.821 267.308C584.282 263.113 582.753 259.796 580.878 255.755C583.55 253.797 587.912 251.615 590.93 249.988C592.744 249.507 595.69 247.755 597.447 246.797C598.373 245.97 601.049 244.134 602.175 243.321L603.975 242.147C605.21 239.972 605.028 239.681 605.503 237.56C606.109 234.853 611.152 232.564 613.551 231.279L608.407 231.016C607.152 230.585 607.176 230.675 606.302 229.699C606.939 228.679 611.461 226.019 613.163 224.724L603.153 228.358C606.181 225.955 611.436 222.369 610.265 217.746C607.478 218.873 606.131 219.875 603.07 219.307L602.746 218.626C606.471 215.846 607.181 215.689 609.978 211.896L609.672 211.26C607.062 212.183 605.262 212.995 602.485 213.019L602.001 212.373C603.446 208.856 608.346 209.666 609.556 203.85C607.439 203.973 604.646 204.467 603.068 203.466C603.739 201.688 607.837 200.909 608.938 199.121C610.062 197.297 611.222 194.452 612.06 192.468L611.745 192.15C598.161 178.178 592.902 159.399 594.466 140.176C594.783 136.281 595.248 131.262 598.189 128.42C608.152 123.937 630.703 153.15 634.912 161.407C638.529 160.006 643.165 158.878 646.969 157.837C645.551 156.292 643.289 152.921 641.981 151.085C644.635 153.034 648.745 156.963 651.988 155.885L652.215 153.78C653.699 154.275 655.49 156.869 656.598 158.218L664.95 160.325Z"/><path fill="#0B6B75" transform="scale(1.33333 1.33333)" d="M602.46 297.78C602.864 299.105 603.332 300.34 603.36 301.724C602.986 304.121 601.267 312.47 601.789 313.838C603.26 312.687 603.268 312.395 604.05 310.617L604.199 309.018L605.128 308.827C606.115 312.349 606.007 315.556 606.252 319.22L606.027 323.049C605.827 325.663 605.891 330.221 604.148 331.943C596.104 333.969 592.541 343.488 590.564 350.69C588.183 348.74 588.679 345.3 588.581 342.316C588.974 327.549 589.736 317.125 596.324 303.89C598.374 301.886 600.036 300.048 601.944 297.906L602.46 297.78Z"/><path fill="#CF8D28" transform="scale(1.33333 1.33333)" d="M604.05 310.617L604.199 309.018L605.128 308.827C606.115 312.349 606.007 315.556 606.252 319.22C605.231 319.399 600.92 324.615 599.808 325.838C600.872 322.475 604.897 313.662 604.805 311.134L604.05 310.617Z"/><path fill="#0B6B75" transform="scale(1.33333 1.33333)" d="M602.175 243.321L603.91 245.924C599.31 251.766 594.7 266.891 588.033 269.212C586.757 268.775 586.618 268.386 585.821 267.308C584.282 263.113 582.753 259.796 580.878 255.755C583.55 253.797 587.912 251.615 590.93 249.988C592.744 249.507 595.69 247.755 597.447 246.797C598.373 245.97 601.049 244.134 602.175 243.321Z"/><path fill="#CF8D28" transform="scale(1.33333 1.33333)" d="M635.422 380.621C633.11 374.671 634.612 363.361 637.511 357.871C639.554 354.002 648.446 335.623 651.465 334.403C651.397 336.188 649.978 339.607 649.319 341.359C643.194 357.634 635.417 363.001 641 380.828C638.411 379.546 638.64 379.119 636.328 379.537L635.422 380.621Z"/><path fill="#CF8D28" transform="scale(1.33333 1.33333)" d="M601.411 287.173C600.906 284.426 603.006 272.009 605.135 270.28C606.754 273.751 604.8 294.141 605.012 299.731C605.026 300.08 603.783 301.325 603.36 301.724C603.332 300.34 602.864 299.105 602.46 297.78L601.944 297.906C600.036 300.048 598.374 301.886 596.324 303.89C594.445 303.572 592.018 303.869 590.064 304.004L589.875 303.68C591.826 299.692 593.845 301.45 598.146 296.122C599.537 292.834 600.359 290.585 601.411 287.173Z"/><path fill="#DD9B30" transform="scale(1.33333 1.33333)" d="M608.407 231.016C613.955 227.825 615.576 223.531 619.056 221.565L619.58 223.569L620.39 223.764C622.536 221.539 624.193 219.674 626.771 217.907L627.238 218.304C628.536 221.775 628.711 220.686 627.703 223.716C624.333 232.699 622.525 229.738 615.717 234.114L615.265 234.898L614.375 234.942C613.688 233.345 613.336 232.927 613.551 231.279L608.407 231.016Z"/><path fill="#CF8D28" transform="scale(1.33333 1.33333)" d="M615.717 234.114L615.367 232.721C617.29 228.784 623.46 224.287 627.703 223.716C624.333 232.699 622.525 229.738 615.717 234.114Z"/><path fill="#DD9B30" transform="scale(1.33333 1.33333)" d="M694.204 222.63L693.422 222.713C690.83 219.995 688.525 211.932 690.605 209.336L692.568 210.825C693.817 211.279 693.876 211.4 695.232 211.246L695.659 209.498C697.169 213.221 701.181 218.556 701.252 220.369C698.134 222.36 698.266 219.158 697.076 221.892C697.605 224.563 699.388 226.942 700.882 229.263C697.947 228.631 695.189 227.357 692.806 225.532C693.73 225.061 693.979 224.795 694.768 224.14L694.204 222.63Z"/><path fill="#CF8D28" transform="scale(1.33333 1.33333)" d="M703.85 299.997L703.25 299.552C701.951 295.806 698.751 270.068 699.384 266.551L700.129 266.646C702.245 270.406 703.587 274.553 704.075 278.84C703.811 281.212 705.384 295.735 705.815 298.904L703.85 299.997Z"/><path fill="#DD9B30" transform="scale(1.33333 1.33333)" d="M685.273 231.429C681.124 230.288 679.143 228.434 677.074 224.471C676.465 223.305 677.525 222.237 678.166 221.177C680.681 220.575 680.435 224.878 685.854 225.429C688.103 226.849 691.71 228.686 692.575 231.096L692.054 233.262L691.107 233.767C690.497 233.506 689.412 233.093 688.904 232.751L685.273 231.429Z"/><path fill="#CF8D28" transform="scale(1.33333 1.33333)" d="M685.273 231.429C683.295 229.838 681.345 228.72 680.675 226.41L681.285 225.579C685.575 225.74 688.061 228.809 688.904 232.751L685.273 231.429Z"/><path fill="#DD9B30" transform="scale(1.33333 1.33333)" d="M704.075 278.84C705.43 283.548 706.529 288.439 707.735 292.94C708.562 296.03 712.491 299.334 713.604 304.145C709.6 303.928 708.769 303.039 705.409 300.816L705.815 298.904C705.384 295.735 703.811 281.212 704.075 278.84Z"/><path fill="#0B6B75" transform="scale(1.33333 1.33333)" d="M704.282 250.148C707.718 251.894 711.643 253.774 714.917 255.732L711.594 264.037C709.601 262.552 705.661 254.455 703.841 251.486L704.282 250.148Z"/><path fill="#CF8D28" transform="scale(1.33333 1.33333)" d="M635.422 380.621L636.328 379.537C638.64 379.119 638.411 379.546 641 380.828C642.407 383.639 643.61 386.028 644.768 388.946C646.968 389.038 649.902 389.081 652.008 389.37C648.293 389.791 643.061 390.259 639.302 390.231C639.284 388.441 636.435 383.302 635.422 380.621Z"/><path fill="#CF8D28" transform="scale(1.33333 1.33333)" d="M685.854 225.429C686.19 223.535 686.247 222.09 687.35 220.55C690 220.36 691.423 223.465 692.806 225.532C695.189 227.357 697.947 228.631 700.882 229.263C698.387 229.974 694.316 230.574 692.78 231.067L692.575 231.096C691.71 228.686 688.103 226.849 685.854 225.429Z"/><path fill="#DD9B30" transform="scale(1.33333 1.33333)" d="M606.027 323.049C607.044 324.57 608.071 326.034 610.042 326.206C611.948 327.59 611.601 326.906 612.011 328.792C610.906 330.706 610.753 331.039 608.97 332.315C606.735 332.437 606.314 332.464 604.148 331.943C605.891 330.221 605.827 325.663 606.027 323.049Z"/><path fill="#CF8D28" transform="scale(1.33333 1.33333)" d="M603.975 242.147C606.564 241.454 608.942 238.096 612.122 236.519L612.681 236.911C611.167 240.295 606.906 244.484 603.91 245.924L602.175 243.321L603.975 242.147Z"/><path fill="#6C8362" transform="scale(1.33333 1.33333)" d="M703.841 251.486C702.607 250.381 698.876 245.853 698.622 244.205C700.71 244.89 701.028 245.276 702.386 246.894L702.757 247.344L703.12 246.367L704.925 247.681L704.282 250.148L703.841 251.486Z"/><path fill="#FBFBFB" transform="scale(1.33333 1.33333)" d="M650.358 298.261C665.213 306.386 674.928 312.089 681.7 328.735L679.845 331.265C678.731 331.222 678.827 331.191 677.738 330.921C676.196 334.337 675.114 337.461 671.827 339.389C666.678 339.26 667.795 331.245 667.8 327.431C666.372 331.031 665.46 334.353 662.04 336.334C657.3 336.034 658.188 328.616 658.123 324.89L652.26 334.559C652.132 328.739 652.83 321.672 653.264 315.752C652.458 309.896 651.489 304.063 650.358 298.261Z"/><path fill="#EEEEE0" transform="scale(1.33333 1.33333)" d="M653.264 315.752C654.138 318.763 652.926 321.799 654.604 323.517C655.961 323.886 657.299 323.996 658.123 324.89L652.26 334.559C652.132 328.739 652.83 321.672 653.264 315.752Z"/><path fill="#DD9B30" transform="scale(1.33333 1.33333)" d="M674.292 366.884C675.362 363.606 684.083 343.201 685.917 340.972L686.736 341.137C687.098 343.762 685.22 347.972 684.711 351.032C685.812 354.559 684.466 358.925 681.419 361.139C680.772 361.019 680.52 361.082 680.097 360.74C679.407 361.13 675.057 366.049 674.292 366.884Z"/><path fill="#EDB74F" transform="scale(1.33333 1.33333)" d="M684.711 351.032C685.812 354.559 684.466 358.925 681.419 361.139C680.772 361.019 680.52 361.082 680.097 360.74C681.949 357.814 683.337 354.242 684.711 351.032Z"/><path fill="#EEEEE0" transform="scale(1.33333 1.33333)" d="M681.7 328.735C682.683 333.313 683.128 335.416 683.372 340.171C682.286 342.111 681.673 343.816 679.758 344.729C677.698 342.108 679.68 335.206 677.738 330.921C678.827 331.191 678.731 331.222 679.845 331.265L681.7 328.735Z"/><path fill="#DD9B30" transform="scale(1.33333 1.33333)" d="M669.268 228.528C670.509 226.894 670.834 226.933 672.891 226.255C676.135 226.8 675.957 228.158 676.8 231.263L680.134 232.456L679.637 233.299C676.902 233.811 676.463 232.211 675.559 232.311C673.254 232.566 670.129 233.444 668.268 230.901L669.572 230.061L669.268 228.528Z"/><path fill="#EDB74F" transform="scale(1.33333 1.33333)" d="M687.251 250.944C688.342 251.13 688.773 251.315 689.806 251.658C689.954 252.259 690.545 263.837 690.405 264.791L689.493 264.843L688.663 263.874C687.91 260.257 686.118 254.146 687.251 250.944Z"/><path fill="#EDB74F" transform="scale(1.33333 1.33333)" d="M688.511 292.739C685.588 292.532 684.71 287.288 686.201 285.392L687.443 286.62C689.816 286.783 688.96 286.389 690.639 288.112C691.229 290.631 691.064 291.017 690.246 293.379L689.175 293.514L688.511 292.739Z"/><path fill="#DD9B30" transform="scale(1.33333 1.33333)" d="M688.511 292.739C685.588 292.532 684.71 287.288 686.201 285.392L687.443 286.62C687.768 288.37 688.355 291.045 688.511 292.739Z"/><path fill="#CF8D28" transform="scale(1.33333 1.33333)" d="M643.449 224.93C644.769 226.535 644.573 225.847 644.729 227.702C643.439 230.246 640.192 232.112 637.771 233.807C637.033 233.545 637.386 233.751 636.885 232.835C638.968 230.158 641.254 227.525 643.449 224.93Z"/><path fill="#CF8D28" transform="scale(1.33333 1.33333)" d="M653.379 360.204C653.949 362.616 650.841 369.648 649.463 371.813C647.58 367.242 650.359 363.376 653.379 360.204Z"/><path fill="#EDB74F" transform="scale(1.33333 1.33333)" d="M668.232 250.528C670.284 251.591 672.212 260.275 673.302 263.288C672.468 263.125 672.289 262.931 671.499 262.511C669.646 258.798 668.435 254.68 668.232 250.528Z"/><path fill="#DD9B30" transform="scale(1.33333 1.33333)" d="M661.809 220.009C664.113 222.265 667.104 225.989 669.268 228.528L669.572 230.061L668.268 230.901L666.762 230.394C664.738 227.542 663.186 223.311 661.809 220.009Z"/><path fill="#DD9B30" transform="scale(1.33333 1.33333)" d="M680.242 243.189L681.716 244.007C683.945 247.029 684.269 249.422 684.434 253.079C682.008 250.902 680.006 246.479 680.242 243.189Z"/><path fill="#CF8D28" transform="scale(1.33333 1.33333)" d="M633.555 224.372L634.203 225.15C633.455 227.865 630.117 229.788 627.819 231.218C627.14 230.606 627.382 230.818 627.045 229.829C628.249 227.852 631.54 225.8 633.555 224.372Z"/><path fill="#DD9B30" transform="scale(1.33333 1.33333)" d="M650.471 261.665C652.652 264.354 651.691 269.61 651.38 273.252C648.702 269.293 649.82 266.515 650.471 261.665Z"/><path fill="#DD9B30" transform="scale(1.33333 1.33333)" d="M705.056 379.206L705.639 379.981C705.678 381.873 702.448 386.384 701.262 388.334L700.097 387.187C700.209 385.046 703.539 381.344 705.056 379.206Z"/><path fill="#DD9B30" transform="scale(1.33333 1.33333)" d="M620.534 261.488C623.468 263.076 621.614 266.6 620.367 268.779L618.524 267.131C618.28 264.393 618.925 264.383 620.534 261.488Z"/><path fill="#DD9B30" transform="scale(1.33333 1.33333)" d="M624.957 303.592L625.941 304.659C625.968 307.073 624.548 309.952 623.605 312.285C620.959 310.177 623.666 305.845 624.957 303.592Z"/><path fill="#CF8D28" transform="scale(1.33333 1.33333)" d="M663.797 345.057L664.541 346.24C664.146 348.928 662.213 351.709 660.786 354.106L659.951 353.079C660.438 350.24 662.297 347.567 663.797 345.057Z"/><path fill="#DD9B30" transform="scale(1.33333 1.33333)" d="M658.93 285.304C661.207 287.472 660.801 291.462 660.521 294.364C659.603 294.332 659.991 294.337 659.032 293.715C658.215 291.081 658.692 288.084 658.93 285.304Z"/><path fill="#EDB74F" transform="scale(1.33333 1.33333)" d="M675.33 296.476C677.591 298.387 677.684 303.727 677.967 306.782C675.279 305.403 675.3 299.075 675.33 296.476Z"/><path fill="#DD9B30" transform="scale(1.33333 1.33333)" d="M656.372 261.696C658.472 264.098 657.725 269.29 657.594 272.683C655.235 270.157 656.123 264.98 656.372 261.696Z"/><path fill="#EDB74F" transform="scale(1.33333 1.33333)" d="M637.572 293.052L638.535 293.524C638.962 295.397 637.776 299.963 637.335 302.112L636.487 301.973C635.356 299.802 636.856 295.341 637.572 293.052Z"/><path fill="#DD9B30" transform="scale(1.33333 1.33333)" d="M688.91 274.712C692.268 276.864 691.987 279.845 692.142 283.449L690.985 282.86C689.926 280.693 689.401 277.192 688.91 274.712Z"/><path fill="#CF8D28" transform="scale(1.33333 1.33333)" d="M653.137 240.686L654.186 242.229C654.655 245.646 654.228 246.933 653.485 250.349L652.638 249.536C651.978 246.731 652.694 243.576 653.137 240.686Z"/><path fill="#CF8D28" transform="scale(1.33333 1.33333)" d="M680.518 264.372C683.315 266.286 683.601 270.176 683.795 273.26C681.018 271.309 680.87 267.492 680.518 264.372Z"/><path fill="#DD9B30" transform="scale(1.33333 1.33333)" d="M650.22 282.583L651.194 283.587C652.078 286.23 651.644 288.569 651.395 291.352C648.602 288.031 649.301 286.55 650.22 282.583Z"/><path fill="#DD9B30" transform="scale(1.33333 1.33333)" d="M706.713 362.654L707.921 363.758C709.156 366.298 708.741 368.417 708.543 371.25L707.347 370.621C706.476 368.542 706.703 365.026 706.713 362.654Z"/><path fill="#EDB74F" transform="scale(1.33333 1.33333)" d="M669.303 174.544L671.967 174.585C674.801 175.855 675.735 177.09 677.898 179.358C674.667 179.181 672.015 176.578 669.303 174.544Z"/><path fill="#DD9B30" transform="scale(1.33333 1.33333)" d="M625.259 243.451L625.844 244.31C625.649 246.292 623.42 249.102 622.206 250.894C621.78 250.456 621.723 250.081 621.46 249.454C621.897 247.221 623.794 245.269 625.259 243.451Z"/><path fill="#DD9B30" transform="scale(1.33333 1.33333)" d="M640.928 332.412L642.08 333.35C642.922 335.819 642.481 338.988 642.304 341.655L641.43 340.942C640.578 338.598 640.876 335.011 640.928 332.412Z"/><path fill="#DD9B30" transform="scale(1.33333 1.33333)" d="M618.688 304.747L619.999 305.786C620.79 308.26 620.239 310.76 619.921 313.371L619.124 312.701C618.295 310.403 618.608 307.267 618.688 304.747Z"/><path fill="#DD9B30" transform="scale(1.33333 1.33333)" d="M624.327 284.472L625.394 285.432C625.773 287.561 624.864 289.789 624.244 291.956L623.108 290.698C622.605 288.45 623.528 286.629 624.327 284.472Z"/><path fill="#DD9B30" transform="scale(1.33333 1.33333)" d="M676.422 345.616L677.317 346.66C677.034 349.152 675.555 351.244 674.282 353.445L673.553 352.745C673.589 350.929 675.532 347.449 676.422 345.616Z"/><path fill="#DD9B30" transform="scale(1.33333 1.33333)" d="M665.125 356.858L665.512 358.182C664.957 360.548 663.475 362.02 661.929 363.908L661.491 362.556C662.045 360.035 663.421 358.807 665.125 356.858Z"/><path fill="#DD9B30" transform="scale(1.33333 1.33333)" d="M671.496 196.032C674.283 197.244 675.05 201.519 675.266 204.213C673.007 202.811 672.179 198.529 671.496 196.032Z"/><path fill="#DD9B30" transform="scale(1.33333 1.33333)" d="M596.865 352.998C598.196 354.691 597.409 357.994 597.62 361.253L596.369 360.684C595.094 357.938 595.96 355.751 596.865 352.998Z"/><path fill="#DD9B30" transform="scale(1.33333 1.33333)" d="M635.395 259.087C637.564 260.859 636.15 264.696 635.154 266.759L634.193 265.757C634.028 263.397 634.761 261.371 635.395 259.087Z"/><path fill="#DD9B30" transform="scale(1.33333 1.33333)" d="M646.892 254.954C648.703 257.493 647.249 261.488 646.581 264.358C645.105 261.196 646.171 258.429 646.892 254.954Z"/><path fill="#CF8D28" transform="scale(1.33333 1.33333)" d="M652.678 349.097L653.217 349.774C652.69 352.421 651.164 354.628 649.789 356.974L649.058 356.099C649.557 353.735 651.36 351.222 652.678 349.097Z"/><path fill="#CF8D28" transform="scale(1.33333 1.33333)" d="M669.638 363.39L670.092 364.991C669.286 367.639 668.595 368.133 666.67 370.099L666.348 368.768C666.753 366.686 668.287 365.129 669.638 363.39Z"/><path fill="#DD9B30" transform="scale(1.33333 1.33333)" d="M653.913 209.805L654.791 210.615C655.404 213.083 654.889 215.998 654.607 218.575L653.941 217.998C653.191 215.54 653.685 212.42 653.913 209.805Z"/><path fill="#CF8D28" transform="scale(1.33333 1.33333)" d="M643.088 363.282L644.067 364.03C644.959 365.924 644.559 368.375 644.449 370.578L643.481 369.834C642.403 367.905 642.89 365.535 643.088 363.282Z"/><path fill="#EDB74F" transform="scale(1.33333 1.33333)" d="M706.338 340.537C707.957 341.821 708.243 345.207 708.658 347.358C707.653 346.939 707.547 346.721 706.707 346.017C705.702 343.933 706.047 342.79 706.338 340.537Z"/><path fill="#DD9B30" transform="scale(1.33333 1.33333)" d="M656.364 188.765L657.359 189.606C658.181 192.075 657.599 195.089 657.305 197.739C655.963 196.168 656.315 190.98 656.364 188.765Z"/><path fill="#CF8D28" transform="scale(1.33333 1.33333)" d="M630.393 340.402L631.543 341.648C632.473 344.348 632.014 346.277 631.672 349.116C630.289 345.873 630.494 343.961 630.393 340.402Z"/><path fill="#CF8D28" transform="scale(1.33333 1.33333)" d="M643.831 295.725L644.851 296.601C645.593 298.757 645.041 301.449 644.769 303.771L644.216 303.398C643.444 301.31 643.762 298.067 643.831 295.725Z"/><path fill="#CF8D28" transform="scale(1.33333 1.33333)" d="M661.514 257.122L662.52 258.205C663.356 260.646 662.864 262.547 662.502 265.109C661.119 262.82 661.07 259.697 661.514 257.122Z"/><path fill="#CF8D28" transform="scale(1.33333 1.33333)" d="M644.335 276.686C645.775 278.876 645.038 283.082 644.776 285.653C643.327 282.196 643.499 280.258 644.335 276.686Z"/><path fill="#CF8D28" transform="scale(1.33333 1.33333)" d="M645.273 316.23C646.942 318.565 646.525 319.9 646.802 323.126L645.524 322.86C644.48 320.729 645.011 318.69 645.273 316.23Z"/><path fill="#DD9B30" transform="scale(1.33333 1.33333)" d="M647.86 185.493C649.182 187.977 647.845 191.802 647.18 194.568C646.316 191.653 646.982 188.333 647.86 185.493Z"/><path fill="#DD9B30" transform="scale(1.33333 1.33333)" d="M646.067 205.91C646.885 208.974 645.514 211.553 644.035 214.155C643.825 211.354 645.039 208.444 646.067 205.91Z"/><path fill="#DD9B30" transform="scale(1.33333 1.33333)" d="M609.167 382.435C611.769 384.203 612.148 385.674 612.825 388.525C610.512 387.628 609.856 384.559 609.167 382.435Z"/><path fill="#143035" transform="scale(1.33333 1.33333)" d="M652.008 389.37C669.444 389.486 684.316 389.371 700.608 397.053C704.628 400.386 707.187 402.469 710.329 406.805L713.015 413.004C715.615 421.371 716.982 430.963 712.72 439.088C710.9 442.559 708.654 444.717 704.872 445.819C691.673 449.667 614.817 451.291 603.563 444.699C599.662 442.414 597.629 436.483 596.831 432.326C595.832 427.125 595.79 418.558 598.852 413.962C598.931 413.844 599.027 413.739 599.115 413.627C600.309 410.94 601.518 408.259 602.741 405.584C613.742 393.705 623.894 391.889 639.302 390.231C643.061 390.259 648.293 389.791 652.008 389.37Z"/><path fill="#B9C1C0" transform="scale(1.33333 1.33333)" d="M632.529 398.56C633.968 398.191 635.567 398.396 637.072 398.479C636.776 399.588 633.838 400.283 632.686 400.587C622.552 403.257 618.661 403.544 611.742 411.968L609.41 415.17C607.849 405.979 625.53 400.105 632.529 398.56Z"/><path fill="#B9C1C0" transform="scale(1.33333 1.33333)" d="M675.101 398.29C686.119 398.008 698.985 402.997 703.552 413.741L702.648 413.835C700.411 411.173 696.073 406.633 693.19 404.578C689.445 401.909 677.852 400.628 675.101 398.29Z"/><path fill="#143035" transform="scale(1.33333 1.33333)" d="M724.641 569.639C730.866 576.684 733.906 581.874 733.58 591.716C733.354 598.529 728.865 604.325 721.643 603.564C719.004 607.512 716.787 611.463 711.682 612.284C692.564 615.359 695.21 596.424 695.032 583.868C704.956 579.369 715.408 575.219 724.641 569.639Z"/><path fill="#EDB74F" transform="scale(1.33333 1.33333)" d="M716.351 307.879C716.13 306.016 716.04 305.529 716.217 303.684C717.554 302.544 718.697 301.728 720.114 300.72C730.636 320.225 729.737 352.653 729.407 374.863C729.126 393.667 728.749 412.468 728.275 431.268C728.006 439.882 727.204 448.914 727.115 457.402C725.213 456.336 722.311 454.263 720.41 452.988C722.085 438.104 721.612 419.41 721.943 404.161C722.444 376.403 723.718 348.638 720.119 321.016C719.503 316.295 717.238 312.411 716.351 307.879Z"/><path fill="#EDB74F" transform="scale(1.33333 1.33333)" d="M590.064 304.004C592.018 303.869 594.445 303.572 596.324 303.89C589.736 317.125 588.974 327.549 588.581 342.316C588.679 345.3 588.183 348.74 590.564 350.69C590.179 358.227 589.665 362.559 591.045 369.978L588.371 369.298C588.935 394.913 588.62 428.793 590.812 453.467L585.252 457.475C582.703 442.152 582.695 417.641 582.569 401.799C582.332 371.927 578.593 333.45 588.356 304.945L590.064 304.004Z"/><path fill="#2F7E85" transform="scale(1.33333 1.33333)" d="M588.371 369.298C587.832 364.599 587.819 347.063 588.581 342.316C588.679 345.3 588.183 348.74 590.564 350.69C590.179 358.227 589.665 362.559 591.045 369.978L588.371 369.298Z"/><path fill="#143035" transform="scale(1.33333 1.33333)" d="M567.888 517.414C569.286 518.423 568.811 517.768 569.701 518.076C574.735 519.82 580.63 523.639 584.206 527.383C578.786 525.639 573.477 523.567 568.309 521.176L567.888 517.414Z"/><path fill="#CF8D28" transform="scale(1.33333 1.33333)" d="M703.85 299.997L705.815 298.904L705.409 300.816C704.704 305.024 708.813 308.278 708.413 311.674C706.62 312.852 706.609 312.439 704.156 312.313L704.375 311.251C701.934 305.718 704.038 305.214 703.85 299.997Z"/><path fill="#FBFBFB" transform="scale(1.33333 1.33333)" d="M710.329 406.805C710.664 405.849 711.119 403.638 711.425 402.484L713.614 401.586C715.512 405.867 717.114 409.382 713.015 413.004L710.329 406.805Z"/><path fill="#FBFBFB" transform="scale(1.33333 1.33333)" d="M596.79 403.725C599.065 404.21 600.73 404.402 602.741 405.584C601.518 408.259 600.309 410.94 599.115 413.627C596.199 409.501 596.134 408.7 596.79 403.725Z"/><path fill="#143035" transform="scale(1.33333 1.33333)" d="M567.675 508.758C571.493 509.75 576.593 513.277 579.737 515.658C576.662 516.672 570.659 512.876 567.751 511.895L567.675 508.758Z"/><path fill="#123A40" transform="scale(1.33333 1.33333)" d="M743.016 528.722C741.101 530.551 735.665 533.951 732.947 533.834L732.488 533.064C733.626 529.617 740.028 526.582 743.253 527.488L743.016 528.722Z"/><path fill="#123A40" transform="scale(1.33333 1.33333)" d="M727.574 543.456C730.783 540.886 738.008 535.38 742.271 536.759L741.928 537.663C736.396 541.741 734.161 542.198 727.574 543.456Z"/><path fill="#123A40" transform="scale(1.33333 1.33333)" d="M730.662 517.713C734.577 513.644 738.714 510.002 744.479 509.623L744.215 511.096C739.268 514.87 736.406 515.8 730.662 517.713Z"/><path fill="#143035" transform="scale(1.33333 1.33333)" d="M568.353 527.16C572.544 526.976 581.162 532.756 584.507 535.351C579.837 533.937 572.809 531.579 568.822 528.779L568.353 527.16Z"/><path fill="#143035" transform="scale(1.33333 1.33333)" d="M569.837 535.692C572.85 536.132 577.952 538.549 579.978 540.895L579.849 541.693C576.94 541.552 572.764 539.128 570.323 537.522L569.837 535.692Z"/><path fill="#143035" transform="scale(1.33333 1.33333)" d="M567.277 501.589C570.867 502.197 573.158 502.657 575.574 505.567L575.34 506.509C572.899 506.79 569.719 504.86 567.648 503.549L567.277 501.589Z"/><path fill="#123A40" transform="scale(1.33333 1.33333)" d="M744.119 503.937C742.57 503.046 740.248 506.611 736.378 507.048L735.683 506.383C736.188 502.979 741.266 502.253 744.177 502.68L744.119 503.937Z"/><path fill="#BD2724" transform="scale(1.33333 1.33333)" d="M649.54 484.022C651.616 483.654 654.71 483.717 656.593 483.65C680.086 482.873 684.92 490.335 678.222 512.404C675.245 522.211 672.904 521.653 662.965 523.01C657.455 523.589 644.266 522.845 639.404 520.124C634.011 517.107 629.095 495.017 632.56 489.604C635.131 485.588 644.982 484.668 649.54 484.022Z"/><path fill="#BD2724" transform="scale(1.33333 1.33333)" d="M640.771 491.805C659.903 481.6 685.04 488.274 670.502 514.868C668.678 518.989 664.999 519.442 660.861 519.775C657.067 520.08 651.332 521.275 647.803 520.132C640.064 516.945 639.763 508.706 638.885 501.307C637.853 497.71 638.471 494.647 640.771 491.805Z"/><path fill="#672221" transform="scale(1.33333 1.33333)" d="M640.771 491.805C659.903 481.6 685.04 488.274 670.502 514.868L668.249 512.952C669.873 507.744 672.431 500.263 669.59 495.235C664.726 486.626 650.539 490.075 643.862 493.996L640.771 491.805Z"/><path fill="#672221" transform="scale(1.33333 1.33333)" d="M638.885 501.307C639.519 500.158 639.945 500.074 641.108 499.482C642.527 508.235 643.921 516.017 653.554 518.411L653.16 519.467L647.803 520.132C640.064 516.945 639.763 508.706 638.885 501.307Z"/><path fill="#852524" transform="scale(1.33333 1.33333)" d="M653.554 518.411C657.404 517.994 662.123 518.434 665.576 517C667.361 515.452 667.488 515.196 668.249 512.952L670.502 514.868C668.678 518.989 664.999 519.442 660.861 519.775C657.067 520.08 651.332 521.275 647.803 520.132L653.16 519.467L653.554 518.411Z"/><path fill="#852524" transform="scale(1.33333 1.33333)" d="M638.885 501.307C637.853 497.71 638.471 494.647 640.771 491.805L643.862 493.996C642.521 495.917 641.302 497.206 641.108 499.482C639.945 500.074 639.519 500.158 638.885 501.307Z"/><path fill="#123A40" transform="scale(1.33333 1.33333)" d="M711.957 451.111C712.967 451.309 713.742 451.643 714.698 452.005C715.143 454.341 714.627 458.964 714.436 461.468C711.588 498.933 706.639 536.212 704.092 573.709C703.99 575.211 703.384 576.698 702.631 577.985C700.725 577.353 700.253 577.375 699.099 575.868C697.641 567.938 708.571 458.567 711.957 451.111Z"/><path fill="#123A40" transform="scale(1.33333 1.33333)" d="M607.409 570.845C606.269 555.016 605.031 539.194 603.696 523.38C602.677 512.395 596.005 457.024 597.412 451.32L598.658 450.996C603.132 454.052 604.452 477.105 605.173 483.126C607.476 502.608 609.436 522.13 611.05 541.681C611.397 546.38 612.16 568.844 612.943 571.179C612.955 574.351 613.238 575.321 610.498 577.171L609.008 576.615C607.486 574.865 607.628 573.23 607.409 570.845Z"/><path fill="#143035" transform="scale(1.33333 1.33333)" d="M607.409 570.845C609.86 570.438 610.577 570.183 612.943 571.179C612.955 574.351 613.238 575.321 610.498 577.171L609.008 576.615C607.486 574.865 607.628 573.23 607.409 570.845Z"/><path fill="#123A40" transform="scale(1.33333 1.33333)" d="M661.558 525.578C661.857 525.858 662.388 526.702 662.649 527.085C663.079 533.383 663.641 578.038 661.818 581.847C660.668 579.535 660.177 529.613 661.558 525.578Z"/><path fill="#143035" transform="scale(1.33333 1.33333)" d="M649.866 526.84L650.642 527.495C652.327 532.061 651.707 556.344 651.676 562.988L650.569 562.19C649.086 559.13 649.817 532.199 649.866 526.84Z"/><path fill="#143035" transform="scale(1.33333 1.33333)" d="M661.154 452.149L661.823 452.82C663.522 459.274 662.841 474.584 662.445 481.466L661.477 481.035C660.05 477.051 660.834 457.179 661.154 452.149Z"/><path fill="#143035" transform="scale(1.33333 1.33333)" d="M649.859 451.391C652.36 453.459 651.405 477.218 651.303 481.969L650.34 481.549C648.925 478.427 649.548 455.877 649.859 451.391Z"/><path fill="#143035" transform="scale(1.33333 1.33333)" d="M741.506 518.475L742.398 519.567L741.971 520.876C739.664 522.963 736.161 524.212 733.248 525.463C732.655 524.714 732.867 524.98 732.686 523.911C734.486 521.864 738.935 519.832 741.506 518.475Z"/><path fill="#123A40" transform="scale(1.33333 1.33333)" d="M650.092 563.418C652.879 565.414 651.612 577.62 651.361 581.232C649.252 577.524 650.008 568.06 650.092 563.418Z"/><path fill="#2F7E85" transform="scale(1.33333 1.33333)" d="M695.775 466.357L696.778 467.262C697.572 472.332 696.827 475.609 696.82 480.776L696.218 480.875L695.546 480.178C695.232 475.206 695.498 471.321 695.775 466.357Z"/><path fill="#143035" transform="scale(1.33333 1.33333)" d="M625.544 644.394C624.99 638.688 625.235 628.468 625.272 622.491L625.64 585.092C642.998 587.845 668.159 587.567 685.713 585.259C685.798 593.294 685.99 601.575 685.961 609.589C686.587 617.251 686.736 636.112 686.113 644.005L685.771 646.842C685.187 661.181 673.444 668.211 660.198 669.03C642.114 670.149 626.952 664.352 625.544 644.394Z"/><path fill="#123A40" transform="scale(1.33333 1.33333)" d="M625.544 644.394C626.644 645.328 626.551 645.359 627.344 646.39C630.082 649.949 635.026 651.803 635.974 656.76L635.449 657.979L634.47 658.047C633.406 656.038 633.41 655.3 633.154 653.115C631.983 652.478 629.753 651.088 628.567 651.079L627.688 651.724C629.579 654.873 635.232 662.767 638.704 663.706C639.967 662.73 640.464 660.851 639.7 659.452L637.61 660.115L636.74 659.245C637.603 658.395 637.099 658.684 638.342 658.421L637.461 657.251L638.119 657.097C639.04 656.873 638.676 656.982 639.538 656.646L640.187 658.278C641.539 658.154 642.029 657.481 643.054 656.558L644.914 656.199L644.86 655.13C641.397 654.122 639.771 656.148 637.413 654.756L637.701 654.1C640.54 653.579 644.193 653.125 646.776 654.695L647.088 655.808C644.809 657.606 642.104 658.535 641.171 660.587C641.527 663.266 643.324 665.714 646.236 665.283C647.277 663.46 647.278 663.019 647.553 660.919C649.978 662.752 652.455 664.678 654.92 666.44L656.052 665.874L657.023 661.947L658.38 661.48C659.656 662.426 660.516 663.036 661.885 663.839C664.875 662.466 665.709 661.829 668.353 659.816C668.412 657.949 668.008 657.946 666.916 656.161C666.307 656.371 675.29 655.899 674.624 655.835C673.873 657.286 673.543 657.499 672.355 658.663L673.739 659.041C674.272 660.89 673.229 662.755 672.497 664.693L673.232 664.821L672.654 665.188L672.754 663.999L673.998 664.272C678.113 660.714 680.657 657.9 682.91 652.814C683.963 650.438 683.952 648.808 685.771 646.842C685.187 661.181 673.444 668.211 660.198 669.03C642.114 670.149 626.952 664.352 625.544 644.394Z"/><path fill="#123A40" transform="scale(1.33333 1.33333)" d="M685.961 609.589C686.587 617.251 686.736 636.112 686.113 644.005C685.24 638.89 681.377 631.024 685.223 626.182L684.765 625.386L680.271 624.345L680.332 623.448C686.4 620.528 685.71 615.433 685.961 609.589Z"/><path fill="#0B6B75" transform="scale(1.33333 1.33333)" d="M737.159 217.702C732.927 205.921 738.587 192.88 750.081 187.927C761.574 182.973 774.937 187.816 780.591 198.984C786.245 210.152 782.24 223.792 771.446 230.128C760.652 236.464 746.794 233.31 739.803 222.926C738.709 221.301 737.821 219.546 737.159 217.702ZM760.266 228.617C770.855 228.224 779.138 219.35 778.803 208.756C778.469 198.163 769.644 189.829 759.052 190.104C748.375 190.38 739.962 199.294 740.299 209.971C740.635 220.649 749.593 229.014 760.266 228.617Z"/><path fill="#0B6B75" transform="scale(1.33333 1.33333)" d="M556.62 222.344C549.873 232.89 536.08 236.355 525.153 230.247C514.225 224.139 509.946 210.575 515.389 199.3C520.833 188.025 534.115 182.943 545.692 187.706C557.269 192.469 563.132 205.428 559.069 217.271C558.457 219.054 557.635 220.757 556.62 222.344ZM537.8 228.514C548.141 227.784 556.034 218.974 555.631 208.613C555.227 198.252 546.673 190.083 536.307 190.159C529.304 190.211 522.885 194.072 519.557 200.236C516.229 206.399 516.521 213.886 520.318 219.771C524.115 225.657 530.814 229.008 537.8 228.514Z"/><path fill="#143035" transform="scale(1.33333 1.33333)" d="M535.369 277.242C539.871 275.038 559.493 266.147 563.441 266.121C566.351 268.885 567.241 274.215 568.197 278.156C556.578 282.017 536.405 298.533 535.369 277.242Z"/><path fill="#143035" transform="scale(1.33333 1.33333)" d="M731.422 265.168C736.525 267.205 758.602 275.275 759.178 277.621C764.191 298.051 731.418 279.733 728.624 278.812L728.893 275.938C729.705 272.444 730.51 268.604 731.422 265.168Z"/><path fill="#143035" transform="scale(1.33333 1.33333)" d="M559.069 217.271C567.036 222.187 592.587 239.857 597.447 246.797C595.69 247.755 592.744 249.507 590.93 249.988C587.532 242.729 564.584 228.025 556.62 222.344C557.635 220.757 558.457 219.054 559.069 217.271Z"/><path fill="#143035" transform="scale(1.33333 1.33333)" d="M737.159 217.702C737.821 219.546 738.709 221.301 739.803 222.926C733.505 227.034 709.549 243.254 704.925 247.681L703.12 246.367L701.698 242.674C712.938 234.353 725.484 225.327 737.159 217.702Z"/></svg>