<?xml version="1.0" encoding="utf-8" ?><svg xmlns="http://www.w3.org/2000/svg" xmlns:xlink="http://www.w3.org/1999/xlink" width="1792" height="1024" viewBox="0 0 1792 1024"><path fill="#0B9479" transform="scale(1.33333 1.33333)" d="M675.375 57.9184C677.157 51.824 687.042 30.7075 692.949 29.2701L694.158 30.0626C695.398 33.3106 697.517 49.1675 698.263 53.774C702.024 50.8522 706.496 46.5603 710.101 43.2678C710.296 53.1435 711.382 63.841 706.902 72.826C705.08 76.4794 698.771 83.2235 700.479 86.8718C705.177 87.2948 727.442 68.043 732.262 74.478C728.208 92.8276 721.632 100.842 705.069 109.11C701.084 111.099 694.856 115.586 695.812 120.801C697.855 121.817 701.359 118.677 703.238 117.22C713.902 108.947 727.499 105.124 740.85 104.195C736.859 117.979 730.04 129.7 717.126 137.132C710.531 140.926 691.201 147.957 689.628 155.368L690.354 156.104C696.474 156.669 707.048 148.188 714.025 145.918C721.637 143.44 723.699 142.811 732.02 141.955C734.026 139.842 741.146 131.749 742.813 130.658C747.484 133.572 747.003 160.361 747.188 166.631C750.381 164.55 751.578 163.64 754.364 161.046C751.124 135.884 759.339 123.195 774.532 103.946C775.504 102.713 775.491 102.683 776.834 101.791C782.462 104.684 778.21 135.49 779.574 139.255C781.391 139.196 785.588 137.228 785.339 135.399C782.45 114.19 798.423 92.6764 820.34 86.666C818.51 91.1524 812.296 117.593 812.565 120.791L813.432 121.283C816.47 119.892 819.422 114.302 820.181 111.121C822.629 100.87 843.184 87.7513 853.479 87.1364L854.303 87.6497C853.703 90.862 846.467 106.675 844.753 111.394C848.662 108.139 852.607 104.476 856.762 101.785C866.423 95.5281 884.546 92.5467 895.915 93.2691C892.774 98.6601 885.392 109.882 880.798 113.744C873.704 119.708 871.579 117.749 866.053 126.095C874.789 127.653 884.892 129.729 892.896 133.811C864.988 156.25 866.208 139.112 840.584 145.907C858.365 150.422 859.892 149.888 873.491 162.749C864.702 165.637 856.568 169.025 847.086 168.774C837.083 168.509 826.477 152.651 817.853 160.829L817.905 161.921C820.599 164.2 825.852 165.802 829.112 167.426C833.555 169.639 844.309 176.509 846.376 180.776C846.413 186.752 823.752 188.051 818.828 188.018C813.744 187.985 805.574 182.147 800.977 179.422C795.026 180.401 790.956 181.19 785.194 183.129C791.25 187.118 805.476 190.522 812.8 198.644C814.336 208.165 782.322 209.4 776.951 207.373C763.706 202.375 768.52 198.232 754.747 206.589C762.858 209.777 766.204 213.327 770.503 215.125C774.145 214.053 787.649 210.054 788.863 214.683C787.016 220.685 778.323 225.87 778.138 228.568C787.717 232.378 793.108 220.516 798.053 215.435C803.253 210.093 832.101 200.922 837.496 204.901C840.462 212.555 821.61 228.207 816.074 232.577C841.519 227.179 846.455 212.871 877.234 216.284C880.912 216.692 886.193 216.989 889.32 218.945C889.868 219.288 890.125 220.007 890.441 220.566C889.34 229.708 862.458 236.807 860.827 238.819C860.614 242.556 866.948 245.388 868.502 244.743C886.043 237.464 908.49 231.392 926.703 247.435C927.975 248.56 929.181 249.756 930.316 251.019C924.557 252.537 896.837 258.297 894.392 260.462C897.624 264.307 915.924 258.605 923.795 262.29C930.244 265.31 944.024 273.341 946.2 280.29C943.805 283.668 929.266 283.776 924.714 284.036C929.389 287.855 940.114 297.617 939.742 303.93C937.437 306.174 923.11 305.719 919.574 306.232C908.13 307.89 906.329 286.339 895.97 291.312C894.938 296.816 897.453 310.604 893.624 316.521C891.444 317.685 890.102 317.397 888.07 315.671C879.511 308.406 874.506 304.526 872.176 293.148C862.83 285.833 859.814 273.411 854.32 270.954L853.594 271.434C853.29 275.077 855.724 281.099 856.229 285.653C856.803 290.838 855.377 297.886 855.889 302.175C855.579 305.364 856.101 304.982 854.348 307.112C850.09 308.753 845.339 305.267 841.999 302.783C825.377 311.266 825.369 308.101 810.96 312.642C823.735 315.601 828.735 315.977 841.889 315.418C858.294 314.719 881.336 319.471 895.667 327.606C886.483 329.428 877.653 331.523 868.395 333.022C864.58 333.64 854.832 333.692 852.617 334.912C854.464 336.788 863.414 337.418 865.972 337.284C881.424 336.472 896.123 351.133 906.546 361.035C908.025 362.441 909.544 364.386 910.212 366.422L910.095 367.893C907.474 370.056 894.151 370.165 889.623 370.872C887.922 372.528 887.228 372.612 886.924 374.606C888.915 376.598 895.085 376.27 898.642 377.177C901.656 381.971 910.957 401.884 907.675 406.962C903.363 408.477 894.133 400.415 890.449 397.764C883.699 402.532 880.419 403.676 877.677 394.536C876.767 391.503 876.392 389.827 876.58 386.57C868.735 381.684 866.192 376.277 859.982 370.069C862.992 386.628 867.414 390.779 856.745 406.179L855.881 407.416C848.082 396.757 844.029 388.092 848.23 374.928C845.219 371.9 843.533 370.323 841.059 366.76C839.2 364.083 837.796 358.205 836.362 357.105C834.965 359.375 840.769 386.594 830.756 393.158C828.711 393.556 827.398 393.982 825.57 392.553C814.193 383.668 817.365 370.483 819.377 358.736C812.352 353.948 811.192 353.697 806.387 346.733C806.113 354.733 808.781 360.381 807.272 367.547C805.974 372.092 804.106 379.016 798.759 378.769C795.933 377.442 790.413 370.625 788.81 367.83C786.622 353.13 785.461 352.358 795.417 341.396C787.983 335.699 788.351 339.322 781.589 329.257C781.548 342.011 782.214 337.617 775.979 347.639L776.078 348.227C780.049 370.515 800.674 388.275 786.496 409.52C783.239 414.4 777.33 419.48 772.156 422.314C767.041 421.137 761.318 420.103 756.656 417.853C749.615 413.459 747.9 410.462 744.375 403.086C740.742 395.419 740.648 391.814 740.911 383.665L741.338 379.741C741.936 375.783 739.83 364.545 739.828 359.325C739.826 355.138 740.402 350.901 740.342 347.181C738.19 348.868 738.588 349.08 736.22 349.34C734.289 348.074 733.731 345.737 732.816 343.456C726.11 340.746 719.229 338.493 712.218 336.712C713.203 339.161 714.601 341.841 714.206 344.369C713.51 345.558 713.181 346.242 712.21 347.257C717.588 357.002 724.4 369.257 721.005 380.848C718.754 388.532 711.568 399.432 704.301 403.085C701.815 404.335 698.046 403.793 695.368 403.235L693.255 402.66C689.735 401.219 687.258 400.056 683.881 398.302C680.614 396.072 679.93 395.39 677.481 392.256C672.491 383.445 672.301 374.618 671.257 364.916C671.587 363.23 671.294 361.266 671.148 359.516C670.062 357.667 668.526 353.085 667.718 350.885C667.395 347.817 667.401 342.878 667.305 339.666C666.938 342.243 667.208 343.854 665.703 345.423C663.407 345.127 662.285 344.179 659.851 343.422C659.118 340.469 659.285 337.898 655.971 338.228L651.4 338.745C651.768 334.498 650.698 328.719 650.371 324.158L649.954 322.006C649.38 318.153 648.886 315.58 647.93 311.807L647.088 311.381C643.769 312.622 639.705 313.907 636.929 316.018L635.468 316.303L634.959 317.287L633.682 317.464L632.469 316.774C630.602 313.844 631.067 310.514 631.289 307.117L631.656 304.359C632.567 300.614 632.611 297.096 634.424 293.395C635.65 290.894 633.757 291.221 633.075 289.58C634.74 288.985 636.473 288.61 637.549 287.315L637.083 286.408C634.65 285.663 634.258 285.521 631.654 285.953L628.945 285.352C626.832 284.92 624.782 284.226 622.841 283.287C619.143 281.489 620.671 279.392 622.129 277L624 274.666C620.039 267.613 600.462 270.725 594.087 273.093C591.325 276.817 573.569 298.198 566.753 293.11C563.814 290.915 564.587 279.048 564.6 274.836C553.311 280.996 556.477 287.19 548.808 299.619C546.986 300.781 535.961 306.141 534.012 306.572C532.826 304.243 532.021 302.778 531.527 300.196C530.527 294.972 533.223 287.988 527.739 285.357C517.27 285.429 515.218 297.39 510.471 303.393C510.319 306.9 510.233 310.705 509.992 314.177C506.653 318.962 495.88 332.163 489.485 328.841C486.193 324.192 488.062 312.561 488.585 306.559L484.16 303.708C481.706 306.859 477.231 312.305 475.236 315.489C474.65 325.76 466.371 354.423 453.831 353.77C446.728 351.017 448.583 337.207 445.785 331.32L444.757 330.925C441.884 333.156 436.957 345.104 436.652 348.877C437.391 354.847 434.569 362.018 427.626 360.528C426.347 359.266 424.97 357.188 423.888 355.687C421.889 356.091 407.688 375.278 401.333 373.816C399.735 373.668 397.57 372.308 397.981 370.37C400.001 360.837 403.358 350.366 408.246 341.923C409.922 339.027 415.063 337.298 415.376 333.378C409.814 331.731 395.186 344.972 390.579 339.615C390.337 338.171 390.305 336.453 390.854 335.015C395.715 320.892 401.844 311.238 416.338 305.933C419.41 304.808 429.627 302.056 430.346 299.177C425.774 294.058 406.701 302.445 398.801 299.122L398.705 298.044C410.956 268.182 454.685 282.874 458.567 272.206C455.152 267.677 429.584 268.183 428.288 261.812C429.775 259.175 432.361 258.147 435.062 256.888C447.638 251.033 462.065 246.776 475.663 251.244C484.57 254.171 489.7 260.775 498.7 255.812C500.337 254.909 500.311 254.952 500.815 253.349C498.491 249.51 487.919 248.164 483.776 245.597C479.048 242.667 474.038 237.728 470.465 233.516L470.585 232.397C481.828 224.72 512.647 231.009 524.138 237.009C533.212 241.746 530.086 245.942 542.598 242.96C539.409 238.252 536.319 234.306 532.799 229.831C546.405 231.609 547.458 232.492 561.891 229.226C564.695 231.085 567.795 233.249 570.643 234.973C567.745 237.554 565.228 239.474 563.37 242.914L564.958 243.923C573.602 246.435 579.623 247.741 588.705 248.131C591.261 248.241 596.434 248.129 598.639 248.344C599.016 250.158 620.249 258.312 623.242 258.998C620.225 253.601 619.04 250.464 616.849 244.625C616.662 240.363 616.157 238.439 614.127 234.761C615.947 234.466 618.395 234.568 620.286 234.572C622.142 235.294 625.431 235.693 627.389 235.37L630.068 235.573L630.872 235.575L631.903 236.562C636.334 238.277 640.97 239.431 645.216 241.407C646.358 241.904 651.579 248.307 652.783 249.711C650.134 239.499 653.325 234.223 650.921 224.911C650.396 222.876 647.423 221.835 645.481 221.054C635.978 213.016 628.951 202.445 625.217 190.571C628.873 190.174 631.05 189.997 634.63 188.934C638.207 191.708 646.048 197.348 650.558 196.121L651.327 194.66C651.449 191.954 649.975 189.086 648.91 186.526C639.197 184.046 633.412 183.205 627.517 174.282C624.633 170.828 616.893 155.73 618.289 151.986C621.95 142.17 643.98 161.198 649.185 162.735C649.737 162.898 650.041 162.428 650.601 162.022C653.119 148.584 631.352 147.926 628.239 133.524C627.161 128.532 621.939 104.08 628.35 101.86C631.127 102.78 632.794 104.813 635.031 106.632C644.745 114.534 647.916 119.226 653.986 129.959C655.03 124.675 655.699 121.457 655.977 116.09C655.33 114.886 649.47 107.233 648.181 105.724C638.789 94.7283 643.501 82.153 645.755 68.0188C652.581 73.087 661.989 89.5688 667.887 88.6216L668.9 87.0632C669.697 82.4856 664.265 77.4503 662.965 73.4023C661.388 68.4937 659.15 49.4232 665.846 48.1686C668.206 49.0039 673.329 55.5634 675.375 57.9184ZM730.753 291.812C738.622 291.597 744.554 288.696 752.189 287.155C755.68 286.45 758.524 286.434 761.953 285.368C759.688 284.157 754.095 281.249 752.384 279.743C743.463 271.892 740.289 262.14 725.991 266.073C722.17 267.123 719.733 269.073 716.742 271.657C722.612 272.967 734.089 276.107 737.963 280.827C739.514 286.828 731.53 286.742 729.537 290.476L730.753 291.812ZM818.867 265.415C816.516 263.249 814.164 260.505 810.984 260.559C806.398 264.33 813.605 276.671 813.083 282.406C812.712 286.484 811.704 288.78 810.016 292.427C813.613 292.725 832.108 294.141 834.441 293.884C825.314 282.739 822.268 279.493 818.867 265.415ZM769.523 285.617C777.792 285.343 782.203 284.9 789.983 288.371L790.545 286.037C780.559 278.206 786.993 272.134 778.644 265.325C776.794 263.816 770.323 261.548 767.779 260.584C770.072 271.15 771.088 274.878 769.523 285.617ZM723.182 190.83C720.294 181.307 720.941 174.814 721.378 164.896C718.389 167.51 714.65 170.95 711.596 173.322C714.768 181.769 717.507 186.926 717.549 195.851C719.67 194.335 721.315 192.64 723.182 190.83ZM753.487 316.403C759.41 322.776 757.529 324.737 760.572 329.918C762.399 327.756 764.084 327.232 765.329 324.429L764.261 322.896C762.357 321.258 760.341 318.852 758.634 316.935C758.13 316.315 757.022 315.265 756.413 314.655L754.946 314.654L753.487 316.403ZM697.236 218.361C697.805 221.606 697.269 221.095 699.147 223.452C701.399 224.001 700.476 224.1 702.606 223.036C704.039 220.866 703.728 221.871 703.729 219.218C702.433 217.038 703.219 217.754 700.203 216.789L697.236 218.361ZM698.801 179.923C695.544 182.272 689.242 186.473 689.507 190.969C691.712 193.477 693.346 192.733 696.404 192.088C697.457 187.754 698.08 184.301 698.801 179.923ZM745.988 237.763C748.624 235.952 751.851 231.852 753.989 229.295C747.625 228.782 732.634 226.659 727.883 230.056L727.573 231.213C731.23 232.959 735.845 233.566 739.713 234.906C741.896 235.663 743.844 236.809 745.988 237.763ZM714.661 301.429C717.181 302.761 729.012 309.321 730.879 309.868C731.526 307.701 732.296 305.573 733.041 303.437C725.984 303.208 721.223 301.971 714.661 301.429Z"/><path fill="#054751" transform="scale(1.33333 1.33333)" d="M820.34 86.666C818.51 91.1524 812.296 117.593 812.565 120.791L813.432 121.283C816.47 119.892 819.422 114.302 820.181 111.121C822.629 100.87 843.184 87.7513 853.479 87.1364L854.303 87.6497C853.703 90.862 846.467 106.675 844.753 111.394C848.662 108.139 852.607 104.476 856.762 101.785C866.423 95.5281 884.546 92.5467 895.915 93.2691C892.774 98.6601 885.392 109.882 880.798 113.744C873.704 119.708 871.579 117.749 866.053 126.095C874.789 127.653 884.892 129.729 892.896 133.811C864.988 156.25 866.208 139.112 840.584 145.907C858.365 150.422 859.892 149.888 873.491 162.749C864.702 165.637 856.568 169.025 847.086 168.774C837.083 168.509 826.477 152.651 817.853 160.829L817.905 161.921C820.599 164.2 825.852 165.802 829.112 167.426C833.555 169.639 844.309 176.509 846.376 180.776C846.413 186.752 823.752 188.051 818.828 188.018C813.744 187.985 805.574 182.147 800.977 179.422C795.026 180.401 790.956 181.19 785.194 183.129C791.25 187.118 805.476 190.522 812.8 198.644C814.336 208.165 782.322 209.4 776.951 207.373C763.706 202.375 768.52 198.232 754.747 206.589C762.858 209.777 766.204 213.327 770.503 215.125C772.576 217.438 774.303 218.946 776.64 221.008C769.36 227.348 763.566 228.659 753.989 229.295C747.625 228.782 732.634 226.659 727.883 230.056L727.573 231.213C731.23 232.959 735.845 233.566 739.713 234.906C741.896 235.663 743.844 236.809 745.988 237.763C739.1 246.655 734.269 246.574 723.336 248.119C720.784 248.479 716.39 248.614 714.318 249.85C708.74 251.137 709.329 252.542 705.454 255.647C704.643 255.644 704.307 255.777 703.491 255.95C701.837 258.723 701.717 259.148 698.615 259.061L698.465 258.038C702.217 249.091 710.432 247.222 708.042 232.78L707.212 230.352C699.99 234.698 691.106 237.484 685.442 242.656C685.819 240.162 686.839 235.199 686.318 232.988C686.211 229.51 687.06 224.029 687.506 220.426C688.542 217.767 687.532 211.578 692.345 212.141C694.669 213.637 695.786 215.977 697.236 218.361C697.805 221.606 697.269 221.095 699.147 223.452C701.399 224.001 700.476 224.1 702.606 223.036C704.039 220.866 703.728 221.871 703.729 219.218C702.433 217.038 703.219 217.754 700.203 216.789C695.467 206.84 696.148 202.976 696.404 192.088C697.457 187.754 698.08 184.301 698.801 179.923C701.837 173.483 702.614 169.993 706.911 164.14C709.196 167.111 710.953 169.615 711.596 173.322C714.768 181.769 717.507 186.926 717.549 195.851C719.67 194.335 721.315 192.64 723.182 190.83C720.294 181.307 720.941 174.814 721.378 164.896C723.697 155.977 727.942 150.08 732.02 141.955C734.026 139.842 741.146 131.749 742.813 130.658C747.484 133.572 747.003 160.361 747.188 166.631C750.381 164.55 751.578 163.64 754.364 161.046C751.124 135.884 759.339 123.195 774.532 103.946C775.504 102.713 775.491 102.683 776.834 101.791C782.462 104.684 778.21 135.49 779.574 139.255C781.391 139.196 785.588 137.228 785.339 135.399C782.45 114.19 798.423 92.6764 820.34 86.666Z"/><path fill="#1493B1" transform="scale(1.33333 1.33333)" d="M789.539 151.342C805.1 141.409 821.105 132.271 837.103 123.19C849.517 116.143 859.052 107.987 872.853 103.819C876.169 102.817 880.463 100.222 884.409 98.9152L884.658 99.227C880.384 102.519 873.554 104.576 868.77 107.355C848.829 118.937 828.128 130.508 808.521 142.538C776.736 162.041 745.466 187.776 721.332 216.247C738.217 212.881 743.015 212.211 758.951 219.21C748.627 219.21 740.745 213.885 729.719 217.126C727.438 217.796 723.431 218.371 721.544 216.653C718.524 218.574 711.216 229.081 708.042 232.78L707.212 230.352C710.041 224.672 701.243 192.631 704.975 188.155L705.911 188.466C707.981 198.594 709.244 217.597 708.801 227.796C727.681 203.749 743.386 187.431 767.328 167.695C774.293 161.954 782.414 157.112 789.539 151.342Z"/><path fill="#1493B1" transform="scale(1.33333 1.33333)" d="M803.258 105.012L804.621 106.318C804.614 108.416 799.958 119.254 798.849 121.815C794.555 131.732 792.236 140.952 789.539 151.342C787.985 148.957 788.125 148.421 788.791 145.25C790.31 138.019 800.012 110.031 803.258 105.012Z"/><path fill="#1493B1" transform="scale(1.33333 1.33333)" d="M769.135 191.184C778.693 190.73 779.965 193.96 788.94 196.317C791.79 197.066 798.197 196.515 799.924 197.941C791.975 203.02 782.002 195.88 774.574 193.89L773.859 193.703C764.773 192.679 759.881 197.167 751.079 196.652C751.524 195.788 753.695 195.076 754.825 194.56C752.638 192.996 747.352 195.081 744.98 193.664L745.38 192.579C748.792 191.438 754.056 192.974 757.327 194.158C761.594 192.914 764.763 192.083 769.135 191.184Z"/><path fill="#1493B1" transform="scale(1.33333 1.33333)" d="M784.243 168.421C791.707 167.408 802.49 167.943 809.689 170.45C812.787 171.529 828.4 176.603 829.297 177.891L828.499 178.508C825.565 178.826 821.613 177.303 818.672 176.405C805.957 171.242 796.395 168.373 782.668 171.106C780.583 171.521 775.145 171.201 773.214 169.637C774.516 168.767 781.918 168.613 784.243 168.421Z"/><path fill="#1493B1" transform="scale(1.33333 1.33333)" d="M770.775 120.381C772.231 121.212 771.682 120.653 772.494 122.101C771.271 126.556 768.563 132.479 767.775 136.891C765.272 150.911 763.785 160.912 758.038 174.439L757.41 174.36L756.809 173.346C757.7 168.21 761.003 161.511 761.918 156.612C764.635 142.068 764.925 134.22 770.775 120.381Z"/><path fill="#1493B1" transform="scale(1.33333 1.33333)" d="M806.12 145.386C821.452 144.333 828.775 150.265 841.637 155.896C845.239 157.473 853.02 156.786 857.192 160.058C842.755 162.268 836.197 154.812 823.802 150.123C818.276 148.033 812.47 147.924 806.691 146.774L806.12 145.386Z"/><path fill="#1493B1" transform="scale(1.33333 1.33333)" d="M737.883 149.342L738.705 150.041C740.193 154.167 733.418 191.971 731.194 198.249L730.361 198.45C730.048 196.965 730.517 194.63 730.892 193.153C734.514 178.91 732.894 163.074 737.883 149.342Z"/><path fill="#1493B1" transform="scale(1.33333 1.33333)" d="M839.218 100.288L839.818 100.962C840.019 104.218 823.108 122.598 820.47 126.832C819.127 128.988 817.985 131.23 816.846 133.524L815.982 132.517C816.578 125.487 834.017 105.151 839.218 100.288Z"/><path fill="#1493B1" transform="scale(1.33333 1.33333)" d="M841.658 125.329C848.352 125.402 852.447 129.668 858.602 131.827C861.869 132.972 871.978 132.761 873.369 135.49L872.078 136.734C867.866 136.215 863.368 135.861 859.422 134.413C851.44 131.483 848.392 128.094 839.71 127.022L841.658 125.329Z"/><path fill="#054751" transform="scale(1.33333 1.33333)" d="M761.953 285.368C764.325 286.229 766.961 285.797 769.523 285.617C777.792 285.343 782.203 284.9 789.983 288.371L790.545 286.037C792.913 287.358 800.86 291.332 801.811 293.129C806.231 292.633 803.607 294.808 810.016 292.427C813.613 292.725 832.108 294.141 834.441 293.884C839.52 293.441 844.079 294.478 847.842 298.001C845.615 300.455 844.805 300.953 841.999 302.783C825.377 311.266 825.369 308.101 810.96 312.642C823.735 315.601 828.735 315.977 841.889 315.418C858.294 314.719 881.336 319.471 895.667 327.606C886.483 329.428 877.653 331.523 868.395 333.022C864.58 333.64 854.832 333.692 852.617 334.912C854.464 336.788 863.414 337.418 865.972 337.284C881.424 336.472 896.123 351.133 906.546 361.035C908.025 362.441 909.544 364.386 910.212 366.422L910.095 367.893C907.474 370.056 894.151 370.165 889.623 370.872C887.922 372.528 887.228 372.612 886.924 374.606C888.915 376.598 895.085 376.27 898.642 377.177C901.656 381.971 910.957 401.884 907.675 406.962C903.363 408.477 894.133 400.415 890.449 397.764C883.699 402.532 880.419 403.676 877.677 394.536C876.767 391.503 876.392 389.827 876.58 386.57C868.735 381.684 866.192 376.277 859.982 370.069C862.992 386.628 867.414 390.779 856.745 406.179L855.881 407.416C848.082 396.757 844.029 388.092 848.23 374.928C845.219 371.9 843.533 370.323 841.059 366.76C839.2 364.083 837.796 358.205 836.362 357.105C834.965 359.375 840.769 386.594 830.756 393.158C828.711 393.556 827.398 393.982 825.57 392.553C814.193 383.668 817.365 370.483 819.377 358.736C812.352 353.948 811.192 353.697 806.387 346.733C806.113 354.733 808.781 360.381 807.272 367.547C805.974 372.092 804.106 379.016 798.759 378.769C795.933 377.442 790.413 370.625 788.81 367.83C786.622 353.13 785.461 352.358 795.417 341.396C787.983 335.699 788.351 339.322 781.589 329.257C781.548 342.011 782.214 337.617 775.979 347.639L776.078 348.227C780.049 370.515 800.674 388.275 786.496 409.52C783.239 414.4 777.33 419.48 772.156 422.314C767.041 421.137 761.318 420.103 756.656 417.853C749.615 413.459 747.9 410.462 744.375 403.086C740.742 395.419 740.648 391.814 740.911 383.665L741.338 379.741C741.936 375.783 739.83 364.545 739.828 359.325C739.826 355.138 740.402 350.901 740.342 347.181C738.19 348.868 738.588 349.08 736.22 349.34C734.289 348.074 733.731 345.737 732.816 343.456C731.594 337.009 731.928 329.573 730.656 323.276C729.386 316.986 730.846 315.408 730.879 309.868C731.526 307.701 732.296 305.573 733.041 303.437C733.463 302.789 735.049 300.994 735.63 300.3C734.514 299.517 734.775 299.178 734.31 297.434C732.36 297.46 731.926 297.462 730.04 296.997C729.206 295.039 729.963 294.345 730.753 291.812C738.622 291.597 744.554 288.696 752.189 287.155C755.68 286.45 758.524 286.434 761.953 285.368ZM760.572 329.918C762.399 327.756 764.084 327.232 765.329 324.429L764.261 322.896C762.357 321.258 760.341 318.852 758.634 316.935C758.13 316.315 757.022 315.265 756.413 314.655L754.946 314.654L753.487 316.403C759.41 322.776 757.529 324.737 760.572 329.918Z"/><path fill="#F7A227" transform="scale(1.33333 1.33333)" d="M760.198 332.816C757.993 341.479 755.747 353.684 758.421 362.351L759.534 363.129C763.914 361.318 772.279 351.603 775.979 347.639L776.078 348.227C780.049 370.515 800.674 388.275 786.496 409.52C783.239 414.4 777.33 419.48 772.156 422.314C767.041 421.137 761.318 420.103 756.656 417.853C749.615 413.459 747.9 410.462 744.375 403.086C740.742 395.419 740.648 391.814 740.911 383.665L741.338 379.741C741.936 375.783 739.83 364.545 739.828 359.325C739.826 355.138 740.402 350.901 740.342 347.181C741.962 344.668 744.971 341.819 747.125 339.617C751.759 337.149 755.855 336.06 760.198 332.816Z"/><path fill="#F4AF43" transform="scale(1.33333 1.33333)" d="M741.338 379.741C743.324 379.126 743.644 378.857 745.512 379.459L746.383 380.658C744.761 386.429 745.07 386.998 748.839 392.766C749.744 394.151 749.799 401.117 750.107 403.135C753.149 406.086 758.865 409.684 760.143 414.017C758.696 415.339 757.619 416.136 756.656 417.853C749.615 413.459 747.9 410.462 744.375 403.086C740.742 395.419 740.648 391.814 740.911 383.665L741.338 379.741Z"/><path fill="#EFBE70" transform="scale(1.33333 1.33333)" d="M740.911 383.665C747.108 384.367 746.181 389.776 745.569 394.446C745.124 397.845 745.362 397.982 747.357 400.765L747.134 401.973C746.508 402.215 744.871 402.796 744.375 403.086C740.742 395.419 740.648 391.814 740.911 383.665Z"/><path fill="#209C7D" transform="scale(1.33333 1.33333)" d="M775.639 407.528C777.118 408.849 777.363 409.973 777.193 411.889C775.497 415.711 772.823 417.118 768.867 416.281C767.148 414.637 766.378 414.495 766.004 412.522C767.716 410.649 771.972 410.699 775.639 407.528Z"/><path fill="#F4AF43" transform="scale(1.33333 1.33333)" d="M747.875 361.778C745.243 358.746 743.11 353.909 745.144 350.057C746.822 348.556 747.267 348.603 749.549 348.427C749.099 349.47 747.712 350.728 746.875 351.592C746.479 353.109 746.581 353.457 747.128 354.919C749.905 356.709 751.193 357.47 751.29 361.069L750.229 362.282C748.472 362.29 749.203 362.552 747.875 361.778Z"/><path fill="#F4AF43" transform="scale(1.33333 1.33333)" d="M747.128 354.919C749.905 356.709 751.193 357.47 751.29 361.069L750.229 362.282C748.472 362.29 749.203 362.552 747.875 361.778C748.193 360.04 747.457 356.826 747.128 354.919Z"/><path fill="#EFBE70" transform="scale(1.33333 1.33333)" d="M766.398 397.673C767.479 398.82 767.437 406.01 767.663 408.406L765.834 408.637C764.171 407.091 761.938 405.328 762.422 402.94C763.661 401.89 763.971 401.665 765.437 400.941L765.781 400.775L766.398 397.673Z"/><path fill="#EFBE70" transform="scale(1.33333 1.33333)" d="M783.878 382.538C787.759 386.264 788.367 392.251 785.29 396.689C782.502 393.437 784.751 389.349 783.878 382.538Z"/><path fill="#EFBE70" transform="scale(1.33333 1.33333)" d="M784.641 398.973C787.215 402.689 781.847 410.351 779.434 413.127L778.981 411.245C779.961 409.071 783.77 400.381 784.641 398.973Z"/><path fill="#F4AF43" transform="scale(1.33333 1.33333)" d="M754.073 372.414C756.507 374.262 757.079 380.892 757.389 383.962C756.022 383.549 755.943 383.541 754.722 382.827C753.419 379.732 753.924 375.844 754.073 372.414Z"/><path fill="#EFBE70" transform="scale(1.33333 1.33333)" d="M779.086 372.646C779.407 373.131 781.172 380.301 781.532 381.599L780.975 381.795C777.52 380.672 778.33 375.343 779.086 372.646Z"/><path fill="#F4AF43" transform="scale(1.33333 1.33333)" d="M774.818 363.957C776.611 365.167 778.536 369.592 778.482 371.821C774.767 369.76 773.83 368.06 774.818 363.957Z"/><path fill="#1493B1" transform="scale(1.33333 1.33333)" d="M734.31 297.434C740.048 297.28 747.837 297.219 753.686 299.407C804.426 318.388 851.477 352.449 892.204 387.689C893.224 388.571 893.749 389.21 894.356 390.284L893.778 391.161C890.292 390.288 884.751 384.433 881.503 381.889C882.468 384.583 885.283 391.437 884.998 393.709C881.449 391.097 880.618 385.804 880.338 381.701C871.8 374.2 861.095 365.407 852.235 358.671C831.605 342.988 764.289 298.357 739.987 299.767C738.526 299.865 737.071 300.043 735.63 300.3C734.514 299.517 734.775 299.178 734.31 297.434Z"/><path fill="#0B9479" transform="scale(1.33333 1.33333)" d="M753.487 316.403C759.41 322.776 757.529 324.737 760.572 329.918C760.519 330.366 760.29 332.517 760.198 332.816C755.855 336.06 751.759 337.149 747.125 339.617C747.165 338.853 752.994 317.608 753.487 316.403Z"/><path fill="#0F5661" transform="scale(1.33333 1.33333)" d="M788.81 367.83C790.636 368.685 792.503 369.599 794.072 370.88C800.078 375.786 801.965 369.707 807.272 367.547C805.974 372.092 804.106 379.016 798.759 378.769C795.933 377.442 790.413 370.625 788.81 367.83Z"/><path fill="#D6DBDB" transform="scale(1.33333 1.33333)" d="M790.545 286.037C792.913 287.358 800.86 291.332 801.811 293.129L797.608 293.956C794.831 293.338 792.729 290.47 789.983 288.371L790.545 286.037Z"/><path fill="#0F5661" transform="scale(1.33333 1.33333)" d="M758.634 316.935C760.968 317.083 764.286 316.962 765.996 318.298C766.166 320.66 765.745 320.436 764.261 322.896C762.357 321.258 760.341 318.852 758.634 316.935Z"/><path fill="#1493B1" transform="scale(1.33333 1.33333)" d="M853.894 347.174C858.916 347.106 871.911 353.324 876.65 356.631L883.385 353.492C888.647 355.002 894.238 358.095 897.722 362.399C895.255 363.197 886.904 357.796 883.012 356.108C880.97 357.179 878.919 358.232 876.859 359.268C869.776 354.665 856.781 351.145 853.894 347.174Z"/><path fill="#1493B1" transform="scale(1.33333 1.33333)" d="M827.477 298.146C828.002 298.547 827.762 298.336 827.926 299.307C822.771 303.352 815.015 302.653 808.873 302.499L802.576 306.521C794.641 306.857 791.352 306.1 783.777 304.435L783.376 304.117L783.589 303.45C794.925 301.404 795.766 309.323 807.595 299.961C817.246 299.97 818.332 301.399 827.477 298.146Z"/><path fill="#1493B1" transform="scale(1.33333 1.33333)" d="M828.02 323.923C832.624 323.863 868.165 324.178 870.007 325.326C867.187 326.47 865.017 326.271 861.958 326.29C852.476 327.86 839.395 325.632 829.524 325.335C826.341 325.24 822.458 325.581 819.591 325.157C821.647 324.274 825.625 324.123 828.02 323.923Z"/><path fill="#1493B1" transform="scale(1.33333 1.33333)" d="M824.251 347.537C827.628 348.417 828.391 351.407 829.72 354.367C825.937 366.586 826.845 368.906 830.735 380.887C828.889 380.366 827.984 379.524 826.882 378.017C821.482 370.626 826.129 361.534 827.164 353.624C827.254 352.936 824.711 348.374 824.251 347.537Z"/><path fill="#1493B1" transform="scale(1.33333 1.33333)" d="M743.436 302.966L744.305 303.478C744.801 308.139 738.124 309.716 741.813 321.725C737.502 328.102 737.779 329.259 738.814 336.786L737.726 336.515C732.916 330.807 738.489 325.874 738.739 320.851C739.194 311.719 735.944 310.586 743.436 302.966Z"/><path fill="#1493B1" transform="scale(1.33333 1.33333)" d="M765.038 341.153C764.336 330.78 770.542 332.679 773.114 324.188C773.746 322.103 771.841 316.139 774.66 315.617C776.469 317.875 775.823 323.348 775.664 326.36C770.282 332.399 768.658 333.903 766.133 341.58L765.038 341.153Z"/><path fill="#1493B1" transform="scale(1.33333 1.33333)" d="M851.125 362.79C853.008 364.367 854.439 369.506 855.346 372.057L851.284 379.039C853.531 381.937 855.45 384.611 856.321 388.173C855.421 388.333 855.37 388.237 854.434 388.14C852.38 385.918 850.725 382.059 849.344 379.255L853.073 371.278C852.587 370.457 852.115 369.628 851.657 368.791C850.018 365.754 850.281 365.605 851.125 362.79Z"/><path fill="#1493B1" transform="scale(1.33333 1.33333)" d="M800.434 333.285C803.085 333.992 804.577 337.107 805.982 339.38C802.882 343.695 800.089 347.476 797.45 352.094L796.627 352.257C795.446 348.982 800.671 344.384 801.745 341.131C802.781 337.994 801.221 336.444 800.434 333.285Z"/><path fill="#F4AF43" transform="scale(1.33333 1.33333)" d="M765.038 341.153L766.133 341.58C766.389 344.292 766.951 349.346 765.062 351.427C763.151 349.132 764.515 343.964 765.038 341.153Z"/><path fill="#D6DBDB" transform="scale(1.33333 1.33333)" d="M778.498 296.868C781.15 296.692 782.927 296.381 785.422 297.3C783.838 298.352 782.348 298.084 780.193 298.232C778.127 298.734 775.56 299.732 773.727 299.098C774.986 297.693 776.626 297.441 778.498 296.868Z"/><path fill="#0F5661" transform="scale(1.33333 1.33333)" d="M740.974 326.22C742.229 326.151 742.392 326.368 743.513 326.931C744.181 329.289 743.729 329.221 742.941 331.98C742.228 332.079 741.735 331.937 740.988 331.835C740.162 329.794 740.695 328.664 740.974 326.22Z"/><path fill="#1493B1" transform="scale(1.33333 1.33333)" d="M794.73 358.213C796.424 359.872 796.73 362.787 797.249 365.17L795.574 364.213C794.389 362.416 794.679 360.379 794.73 358.213Z"/><path fill="#F7A227" transform="scale(1.33333 1.33333)" d="M667.305 339.666C669.364 320.034 680.08 320.727 681.719 313.69C685.324 312.908 693.101 316.061 696.458 317.998C699.534 321.871 700.185 322.992 702.389 327.349C704.622 333.398 708.696 339.037 710.167 343.411L712.21 347.257C717.588 357.002 724.4 369.257 721.005 380.848C718.754 388.532 711.568 399.432 704.301 403.085C701.815 404.335 698.046 403.793 695.368 403.235L693.255 402.66C689.735 401.219 687.258 400.056 683.881 398.302C680.614 396.072 679.93 395.39 677.481 392.256C672.491 383.445 672.301 374.618 671.257 364.916C671.587 363.23 671.294 361.266 671.148 359.516C670.062 357.667 668.526 353.085 667.718 350.885C667.395 347.817 667.401 342.878 667.305 339.666Z"/><path fill="#F4AF43" transform="scale(1.33333 1.33333)" d="M710.167 343.411L712.21 347.257C717.588 357.002 724.4 369.257 721.005 380.848C718.754 388.532 711.568 399.432 704.301 403.085C701.815 404.335 698.046 403.793 695.368 403.235C699.584 402.476 701.449 403.397 705.238 400.672C709.044 397.934 714.15 395.358 714.216 389.988C712.056 389.866 707.338 400.748 701.431 400.094L700.91 398.609C702.383 393.552 717.985 390.099 717.993 382.056C717.997 378.918 720.565 377.325 716.892 374.849C714.234 375.234 716.897 376.644 713.971 378.917L713.251 378.091C713.143 376.136 712.914 375.309 713.914 373.506C713.671 370.428 713.702 366.212 713.628 363.041C710.652 360.036 709.881 360.002 710.436 355.769C706.397 350.349 707.142 349.036 710.167 343.411Z"/><path fill="#EFBE70" transform="scale(1.33333 1.33333)" d="M710.436 355.769C713.51 358.053 715.013 361.689 716.606 365.132C716.405 367.675 716.406 370.875 715.167 373.022L713.914 373.506C713.671 370.428 713.702 366.212 713.628 363.041C710.652 360.036 709.881 360.002 710.436 355.769Z"/><path fill="#F4AF43" transform="scale(1.33333 1.33333)" d="M677.481 392.256C679.885 393.932 679.834 393.886 682.352 392.712L682.661 391.657C681.791 384.868 675.557 388.213 677.479 374.105C679.613 372.087 679.071 373.993 682.12 372.849C681.892 370.783 681.828 369.061 681.741 366.977L682.757 365.964C685.127 365.883 684.482 365.542 685.856 366.784C685.954 369.22 684.639 371.434 683.6 373.746C685.426 372.101 686.564 371.672 688.868 372.522L689.348 373.667L688.289 375.534C691.589 380.058 690.028 379.995 688.739 384.95C689.396 385.655 689.844 385.911 690.714 386.316L690.53 387.833C688.945 388.956 689.514 388.618 687.349 388.792C687.187 389.983 687.238 389.945 687.527 391.126C684.757 393.285 684.058 390.139 683.248 392.539C685.461 395.847 691.715 394.404 695.174 393.968C696.341 395.774 696.193 394.972 695.814 396.96C693.597 399.079 692.275 399.459 689.24 399.102C687.268 398.012 687.042 397.613 685.666 395.8C683.65 396.327 684.504 396.313 682.377 395.697L683.395 396.442C683.375 397.756 683.221 397.156 683.881 398.302C680.614 396.072 679.93 395.39 677.481 392.256Z"/><path fill="#EFBE70" transform="scale(1.33333 1.33333)" d="M685.666 395.8C688.138 396.158 689.527 396.332 691.932 397.064L691.727 398.027L689.24 399.102C687.268 398.012 687.042 397.613 685.666 395.8Z"/><path fill="#A2BEB6" transform="scale(1.33333 1.33333)" d="M570.787 254.698C564.33 244.655 556.116 243.163 551.232 235.032C557.092 237.699 558.565 238.883 563.37 242.914L564.958 243.923C569.565 247.803 571.235 250.168 574.428 255.033C597.678 255.493 614.422 258.446 635.36 268.08C622.766 266.547 611.101 261.89 598.337 259.964C594.769 262.621 587.014 265.42 585.36 267.576C578.311 276.762 581.152 277.105 571.668 284.585C573.892 280.178 581.061 268.552 584.327 265.467L584.701 265.118C587.353 262.614 591.987 261.013 595.454 259.57C543.543 251.847 475.068 269.655 441.761 312.087C438.942 315.679 424.806 332.765 422.078 334.013C421.778 327.346 450.318 298.709 456.139 293.092C466.294 283.293 482.96 275.29 495.774 269.336C485.145 269.243 468.083 265.981 457.637 263.112C473.469 260.663 482.157 267.274 497.31 267.778C499.901 267.864 513.662 263.246 517.481 262.356C524.476 260.726 531.281 259.497 538.395 258.212C527.735 255.793 520.944 251.119 510.944 247.226C507.37 245.835 496.517 244.232 494.564 242.181C498.236 241.007 510.037 243.516 514.002 245.164C523.822 249.247 534.897 258.955 546.098 257.205C554.475 255.896 562.32 255.122 570.787 254.698Z"/><path fill="#0B9479" transform="scale(1.33333 1.33333)" d="M666.999 316.847C665.956 319.809 663.29 326.101 664.537 328.877C668.29 320.623 667.465 313.583 676.025 307.638L676.277 308.287C676.592 309.087 676.812 309.49 677.244 310.248C684.226 301.212 664.372 284.527 670.213 276.715L671.965 275.978C674.568 277.413 675.852 280.707 678.04 282.792C684.207 288.671 691.763 291.356 694.086 300.345C695.833 307.104 695.679 311.912 699.273 318.219L696.458 317.998C693.101 316.061 685.324 312.908 681.719 313.69C680.08 320.727 669.364 320.034 667.305 339.666C666.938 342.243 667.208 343.854 665.703 345.423C663.407 345.127 662.285 344.179 659.851 343.422C659.118 340.469 659.285 337.898 655.971 338.228L651.4 338.745C651.768 334.498 650.698 328.719 650.371 324.158L652.056 323.871C653.744 324.432 654.353 325.468 655.527 326.85C655.357 320.171 656.247 319.181 658.525 312.945C659.258 317.295 659.614 318.476 664.576 318.22L666.999 316.847Z"/><path fill="#0B5654" transform="scale(1.33333 1.33333)" d="M676.583 305.55C676.627 297.26 672.018 293.234 668.37 286.619C667.84 285.658 666.955 279.794 666.727 278.353C660.465 273.026 642.334 273.562 634.678 275.513C633.182 275.894 630.508 277.348 628.467 277.932L628.851 277.069C634.912 272.824 647.508 270.449 654.472 272.848C684.013 283.027 665.416 246.905 663.59 233.127L664.1 233.407C668.825 246.206 672.111 254.224 672.572 267.788L673.448 267.905C676.137 262.428 687.049 258.035 689.391 255.07C696.045 246.645 692.292 244.524 704.313 238.567L704.496 239.052C702.625 241.498 698.741 243.797 696.71 246.373C694.548 249.116 692.566 254.202 690.056 256.429C681.297 264.2 678.761 261.673 672.854 272.588C682.709 271.922 692.643 271.492 702.412 270.034C704.802 269.678 706.803 268.41 709.119 268.749C705.471 273.651 683.886 273.067 674.018 275.421C688.118 292.605 690.9 283.232 697.627 306.122C707.024 310.235 718.632 319.831 726.413 326.826L726.374 327.367C722.914 326.018 714.632 318.89 711.372 316.23L708.361 314.307C697.888 314.201 703.232 317.603 700.461 319.187L699.882 319.069L699.273 318.219C695.679 311.912 695.833 307.104 694.086 300.345C691.763 291.356 684.207 288.671 678.04 282.792C675.852 280.707 674.568 277.413 671.965 275.978L670.213 276.715C664.372 284.527 684.226 301.212 677.244 310.248C676.812 309.49 676.592 309.087 676.277 308.287L676.025 307.638C667.465 313.583 668.29 320.623 664.537 328.877C663.29 326.101 665.956 319.809 666.999 316.847C669.15 311.237 671.805 308.716 676.583 305.55Z"/><path fill="#0B9479" transform="scale(1.33333 1.33333)" d="M696.987 308.212C701.486 310.205 704.156 311.793 708.361 314.307C697.888 314.201 703.232 317.603 700.461 319.187L699.882 319.069C700.35 316.26 698.049 311.158 696.987 308.212Z"/><path fill="#D6C4B2" transform="scale(1.33333 1.33333)" d="M661.105 301.149L665.666 305.976C662.322 308.597 661.034 309.583 658.525 312.945C656.247 319.181 655.357 320.171 655.527 326.85C654.353 325.468 653.744 324.432 652.056 323.871L650.371 324.158L649.954 322.006C654.021 318.879 652.305 314.978 650.765 311.062C651.162 309.416 658.752 304.506 661.105 301.149Z"/><path fill="#209C7D" transform="scale(1.33333 1.33333)" d="M699.882 319.069L700.461 319.187C703.232 317.603 697.888 314.201 708.361 314.307L711.372 316.23C714.618 322.462 709.709 327.279 703.097 326.485L702.389 327.349C700.185 322.992 699.534 321.871 696.458 317.998L699.273 318.219L699.882 319.069Z"/><path fill="#209C7D" transform="scale(1.33333 1.33333)" d="M847.842 298.001C848.523 302.344 852.431 302.522 855.889 302.175C855.579 305.364 856.101 304.982 854.348 307.112C850.09 308.753 845.339 305.267 841.999 302.783C844.805 300.953 845.615 300.455 847.842 298.001Z"/><path fill="#0B5654" transform="scale(1.33333 1.33333)" d="M633.682 317.464C637.536 306.481 634.228 301.774 644.563 292.406C647.234 289.985 655.114 281.857 658.462 281.868L658.76 283.288C645.58 292.317 636.368 298.966 635.468 316.303L634.959 317.287L633.682 317.464Z"/><path fill="#D6DBDB" transform="scale(1.33333 1.33333)" d="M683.261 221.644C684.472 220.459 685.123 219.608 686.729 219.046L687.506 220.426C687.06 224.029 686.211 229.51 686.318 232.988C685.007 230.768 683.878 224.45 683.261 221.644Z"/><path fill="#B4C2BD" transform="scale(1.33333 1.33333)" d="M714.318 249.85C712.885 251.903 708.73 256.329 706.416 257.308L705.5 256.812L705.454 255.647C709.329 252.542 708.74 251.137 714.318 249.85Z"/><path fill="#A2BEB6" transform="scale(1.33333 1.33333)" d="M785.267 242.938C790.987 233.959 810.814 220.303 821.221 216.505C813.222 224.214 795.812 233.943 786.989 242.819C798.301 242.805 809.611 242.61 820.877 243.727C827.921 237.491 857.371 232.244 866.864 226.146C867.944 225.453 872.148 223.872 873.491 223.447C862.136 235.276 837.423 238.805 821.514 243.649C837.116 246.898 849.567 249.089 864.344 255.539C871.858 252.885 890.89 245.023 897.956 249.023C896.759 251.453 887.248 250.799 883.701 251.685C877.988 253.112 872.607 255.666 867.086 256.96C880.692 264.556 913.373 282.594 920.417 295.355L920.121 295.222C914.285 292.549 904.031 283.701 898.235 279.252C892.541 274.942 886.633 270.921 880.534 267.205C872.063 262.024 861.725 256.451 852.285 253.33C811.017 239.684 754.35 242.734 715.688 262.692L713.866 262.237L713.449 261.515L716.545 259.076C725.95 253.859 742.159 249.395 752.88 246.316C756.578 241.114 762.342 232.371 767.196 228.813L767.32 229.337L766.809 229.351L767.48 228.923C764.226 235.575 760.46 240.31 755.979 246.16C766.24 244.337 774.854 243.573 785.267 242.938Z"/><path fill="#A2BEB6" transform="scale(1.33333 1.33333)" d="M679.755 82.3058L680.42 82.0891C681.928 75.9733 684.906 58.4705 687.48 54.094C689.219 55.9485 684.871 71.195 684.302 74.4909C675.766 123.943 668.098 178.927 671.546 229.022C670.361 227.665 669.111 226.345 668.158 224.824C667.431 215.503 667.697 202.466 668.086 192.926C664.119 189.424 659.58 181.839 655.917 179.302C644.762 171.58 635.086 173.294 627.117 160.145C630.273 162.045 638.481 167.482 641.022 168.695C656.858 176.254 658.317 175.802 668.045 190.724C668.525 182.771 669.29 173.469 669.484 165.607C662.108 159.235 663.516 150.259 651.511 145.337C643.743 142.153 637.074 131.473 635.578 123.027L635.899 122.064C638.993 125.221 641.401 132.577 644.479 136.205C647.507 139.775 650.641 142.196 654.691 144.427C663.042 149.026 665.625 155.726 669.708 163.993C670.137 160.123 672.974 137.106 672.293 134.703C672.761 133.778 672.88 133.031 673.144 132.023C673.096 122.933 680.422 91.2451 678.853 85.7647L679.755 82.3058Z"/><path fill="#A2BEB6" transform="scale(1.33333 1.33333)" d="M724.74 112.79C725.145 112.91 725.743 113.336 726.14 113.582C724.325 119.769 692.429 137.944 685.781 142.494C682.09 145.02 679.725 147.284 676.433 150.526L675.883 150.641L675.323 150.038C680.621 138.613 702.937 131.3 711.937 122.516C715.001 119.525 721.202 115.143 724.74 112.79Z"/><path fill="#A2BEB6" transform="scale(1.33333 1.33333)" d="M720.36 82.4895C721.725 83.5578 721.268 82.8832 721.707 84.6262C719.835 88.7086 705.765 98.8864 701.489 101.824C696.004 105.594 687.062 108.961 680.797 111.525C680.571 111.505 680.185 111.176 679.943 111.012C681.034 108.914 684.167 107.192 686.342 106.432C700.716 101.407 709.136 92.265 720.36 82.4895Z"/><path fill="#A2BEB6" transform="scale(1.33333 1.33333)" d="M672.293 134.703C666.484 129.873 664.495 118.807 661.504 111.818C659.55 107.253 649.543 91.2469 650.322 87.5255L651.435 86.8415C652.558 87.7668 660.756 105.083 662.577 108.228C666.478 114.965 667.203 125.473 672.249 132.205L673.144 132.023C672.88 133.031 672.761 133.778 672.293 134.703Z"/><path fill="#A2BEB6" transform="scale(1.33333 1.33333)" d="M784.216 247.932C788.717 250.398 795.029 269.033 796.925 273.604C798.651 277.766 804.041 279.01 804.886 284.368C802.542 284.232 801.533 283.569 799.902 281.969C795.73 277.875 784.309 253.77 784.216 247.932Z"/><path fill="#A2BEB6" transform="scale(1.33333 1.33333)" d="M832.294 251.83C832.745 252.205 839.184 274.678 840.431 277.059C843.01 281.981 847.899 287.355 848.618 292.761C841.158 289.881 829.657 260.305 832.294 251.83Z"/><path fill="#B4C2BD" transform="scale(1.33333 1.33333)" d="M497.734 287.021C497.943 281.228 497.707 280.274 500.627 275.117C502.077 285.338 498.181 282.914 503.872 294.703C502.423 299.253 501.171 303.91 498.784 308.029L497.819 308.226L498.515 308.37L497.811 308.252C497.382 301.561 501.005 295.31 499.096 292.062C497.186 290.712 496.585 290.606 494.346 291.293L493.758 290.719L495.159 290.674L493.772 291.06L493.396 290.222L495.508 289.837L494.365 290.377C496.019 289.376 497.057 288.974 497.734 287.021Z"/><path fill="#209C7D" transform="scale(1.33333 1.33333)" d="M497.734 287.021C498.119 288.471 498.633 290.712 499.096 292.062C497.186 290.712 496.585 290.606 494.346 291.293L493.758 290.719L495.159 290.674L493.772 291.06L493.396 290.222L495.508 289.837L494.365 290.377C496.019 289.376 497.057 288.974 497.734 287.021Z"/><path fill="#A2BEB6" transform="scale(1.33333 1.33333)" d="M559.618 259.191C560.037 259.59 559.911 259.641 560.12 260.364C559.32 261.337 553.178 268.149 552.974 268.684C549.449 277.947 548.53 287.125 541.249 294.603C538.639 291.339 547.39 279.251 548.21 274.432C549.422 267.31 554.161 263.418 559.618 259.191Z"/><path fill="#A2BEB6" transform="scale(1.33333 1.33333)" d="M704.913 157.296C705.871 157.59 705.456 157.32 706.018 158.332C704.232 162.691 689.038 173.443 684.831 178.02C682.046 181.049 680.853 182.6 678.361 186.065C677.101 185.651 677.587 186.029 676.89 184.854C678.617 178.397 698.817 162.221 704.913 157.296Z"/><path fill="#B4C2BD" transform="scale(1.33333 1.33333)" d="M878.394 276.455C881.658 288.806 887.705 298.499 890.224 311.273C887.265 306.817 877.931 288.459 877.327 283.616C877.41 281.083 877.256 278.691 878.394 276.455Z"/><path fill="#A2BEB6" transform="scale(1.33333 1.33333)" d="M904.139 268.789C911.806 268.002 925.745 269.296 931.42 275.277L931.104 276.005L928.946 276.432C924.686 274.123 923.813 273.961 919.359 272.72C915.496 271.644 904.6 272.247 902.3 270.687L902.584 269.567L904.139 268.789Z"/><path fill="#A2BEB6" transform="scale(1.33333 1.33333)" d="M639.427 201.34C645.471 202.306 665.014 214.845 665.87 222.089C664.79 221.64 658.728 216.139 657.133 214.865C651.438 210.315 643.14 207.57 639.427 201.34Z"/><path fill="#A2BEB6" transform="scale(1.33333 1.33333)" d="M460.079 307.657C460.84 308.42 464.271 314.129 464.808 315.277C467.854 321.788 465.319 327.642 463.228 333.88L461.999 333.116C460.394 330.013 462.653 324.927 463.757 321.368C461.423 316.831 457.649 312.253 460.079 307.657Z"/><path fill="#0B5654" transform="scale(1.33333 1.33333)" d="M725.779 281.86C727.826 281.511 728.393 281.311 730.361 281.889C728.885 283.168 726.966 282.682 725.164 283.299C713.901 287.155 703.311 284.88 691.786 286.156C690.298 286.282 687.622 286.671 686.7 285.417C694.723 283.214 714.439 283.53 725.779 281.86Z"/><path fill="#0B5654" transform="scale(1.33333 1.33333)" d="M620.978 241.555C629.667 242.035 634.647 250.195 640.931 253.789C652.499 260.404 660.356 259.333 665.58 273.898C662.324 271.984 659.755 265.215 655.575 262.346C651.482 259.536 646.307 258.628 642.561 256.297C638.74 253.919 634.135 249.821 630.324 247.248C627.474 245.324 623.972 243.364 620.978 241.555Z"/><path fill="#A2BEB6" transform="scale(1.33333 1.33333)" d="M743.123 254.606C747.912 255.272 750.697 257.766 754.271 260.838C756.908 268.779 758.51 269.595 762.639 276.678L762.326 276.567C754.855 273.846 754.17 267.766 750.87 260.779C747.069 258.972 745.034 258.304 743.123 254.606Z"/><path fill="#B4C2BD" transform="scale(1.33333 1.33333)" d="M678.853 85.7647C674.479 79.1756 666.436 68.6617 667.001 61.2009L667.748 60.5603C669.463 62.4804 670.163 68.16 671.624 70.4439C674.315 74.648 677.066 77.9669 679.755 82.3058L678.853 85.7647Z"/><path fill="#A2BEB6" transform="scale(1.33333 1.33333)" d="M429.832 312.477L430.916 312.371L431.193 312.966C424.528 317.112 414.871 321.691 407.134 326.338C406.41 326.397 406.57 326.292 405.735 325.909C407.559 320.935 424.688 314.142 429.832 312.477Z"/><path fill="#A2BEB6" transform="scale(1.33333 1.33333)" d="M694.94 199.729C695.608 200.23 695.338 200.106 695.701 201.18C694.145 203.008 689.704 203.192 686.91 204.832C682.553 207.388 680.79 210.156 676.791 213.415L676.272 212.881C676.911 205.499 688.569 200.769 694.94 199.729Z"/><path fill="#B4C2BD" transform="scale(1.33333 1.33333)" d="M704.313 54.8424C708.532 60.124 694.285 73.5526 690.429 77.1826L689.808 76.4686C690.422 74.549 697.674 66.1364 699.379 63.3966C701.185 60.4938 702.634 58.0441 704.313 54.8424Z"/><path fill="#A2BEB6" transform="scale(1.33333 1.33333)" d="M444.746 288.473C450.328 288.216 454.128 288.506 459.489 290.013C454.004 290.812 447.247 290.714 441.603 290.782C435.34 291.182 432.735 291.489 426.437 290.914C433.168 288.962 437.829 288.826 444.746 288.473Z"/><path fill="#209C7D" transform="scale(1.33333 1.33333)" d="M715.688 262.692C712.942 264.03 708.11 266.464 706.494 262.647C707.714 257.671 712.4 256.811 716.545 259.076L713.449 261.515L713.866 262.237L715.688 262.692Z"/><path fill="#0B5654" transform="scale(1.33333 1.33333)" d="M697.737 296.311C701.808 295.892 707.74 295.049 710.868 297.717C706.437 298.015 701.477 298.713 697.737 296.311Z"/><path fill="#A2BEB6" transform="scale(1.33333 1.33333)" d="M877.327 283.616C876.647 278.327 876.16 274.819 876.258 269.458L876.206 269.967L876.502 269.252C877.618 272.03 877.841 273.497 878.394 276.455C877.256 278.691 877.41 281.083 877.327 283.616Z"/><path fill="#209C7D" transform="scale(1.33333 1.33333)" d="M713.655 330.414C718.241 329.813 720.603 331.252 724.689 333.394C721.681 333.655 716.576 331.508 713.655 330.414Z"/><path fill="#D6C4B2" transform="scale(1.33333 1.33333)" d="M655.971 338.228C659.285 337.898 659.118 340.469 659.851 343.422C662.285 344.179 663.407 345.127 665.703 345.423C667.208 343.854 666.938 342.243 667.305 339.666C667.401 342.878 667.395 347.817 667.718 350.885C668.526 353.085 670.062 357.667 671.148 359.516C671.294 361.266 671.587 363.23 671.257 364.916C672.301 374.618 672.491 383.445 677.481 392.256C679.93 395.39 680.614 396.072 683.881 398.302C687.258 400.056 689.735 401.219 693.255 402.66C691.558 404.262 691.342 403.891 691.389 405.977C691.53 412.271 692.642 418.245 692.946 424.59C693.59 439.835 693.937 455.092 693.986 470.351C694.75 539.643 696.167 608.927 698.237 678.192L699.848 735.402C700.237 746.312 701.01 757.059 701.165 768L639.136 768C638.884 735.706 639.404 703.411 640.696 671.143C641.644 647.574 643.967 624.099 643.89 600.543C643.96 549.779 639.584 497.834 644.961 447.267C647.574 422.693 651.467 400.536 649.251 375.417C648.821 370.535 649.638 364.851 649.307 359.951C649.213 358.556 647.734 358.044 646.727 357.431C647.787 356.625 649.206 356.319 650.508 355.929C652.624 353.668 653.023 352.186 654.49 349.597L653.627 348.539L653.111 348.689L652.432 348.233C652.173 345.062 651.828 341.898 651.4 338.745L655.971 338.228Z"/><path fill="#209C7D" transform="scale(1.33333 1.33333)" d="M659.851 343.422C662.285 344.179 663.407 345.127 665.703 345.423C667.208 343.854 666.938 342.243 667.305 339.666C667.401 342.878 667.395 347.817 667.718 350.885C665.349 352.529 666.329 352.258 663.798 352.483C660.622 350.337 660.643 347.361 659.851 343.422Z"/><path fill="#68A6A2" transform="scale(1.33333 1.33333)" d="M671.257 364.916C670.647 367.327 670.208 370.373 668.381 371.89L667.342 371.635C666.022 367.283 668.123 362.658 671.148 359.516C671.294 361.266 671.587 363.23 671.257 364.916Z"/><path fill="#68A6A2" transform="scale(1.33333 1.33333)" d="M685.609 702.604L687.152 703.252C688.647 706.503 686.862 719.155 685.142 722.427C681.349 719.184 683.962 706.845 685.609 702.604Z"/><path fill="#68A6A2" transform="scale(1.33333 1.33333)" d="M681.035 468.896L682.14 469.47C682.988 472.506 678.617 483.592 676.97 486.626C676.033 485.792 676.066 485.575 675.464 484.44C675.131 478.756 677.541 473.276 681.035 468.896Z"/><path fill="#68A6A2" transform="scale(1.33333 1.33333)" d="M664.857 672.603C667.621 675.109 668.954 687.862 666.639 691.311C663.834 688.76 662.233 676.215 664.857 672.603Z"/><path fill="#68A6A2" transform="scale(1.33333 1.33333)" d="M669.587 469.114C670.654 469.813 670.269 469.344 670.696 470.628C669.679 474.804 667.037 482.667 664.973 486.362C660.876 481.209 665.995 473.098 669.587 469.114Z"/><path fill="#68A6A2" transform="scale(1.33333 1.33333)" d="M648.259 711.7C652.814 713.714 653.549 726.057 652.396 730.296C649.201 728.57 647.172 715.064 648.259 711.7Z"/><path fill="#68A6A2" transform="scale(1.33333 1.33333)" d="M692.795 721.855L693.865 722.793C694.509 724.994 692.138 736.688 691.328 739.089C689.951 738.639 690.014 738.557 689.171 737.438C688.223 732.093 689.842 726.33 692.795 721.855Z"/><path fill="#68A6A2" transform="scale(1.33333 1.33333)" d="M668.351 490.863L668.963 492.039C667.583 496.143 665.336 505.823 663.065 508.322C659.093 503.044 664.432 494.691 668.351 490.863Z"/><path fill="#68A6A2" transform="scale(1.33333 1.33333)" d="M658.093 395.553C659.16 396.165 658.688 395.873 659.441 397.125C658.862 400.638 655.908 409.131 654.825 413.173C649.695 409.998 655.424 398.937 658.093 395.553Z"/><path fill="#68A6A2" transform="scale(1.33333 1.33333)" d="M687.523 413.909L689.039 414.422C689.199 416.669 684.031 423.677 682.487 429.702L680.855 429.422L680.232 428.03C680.574 422.812 683.87 417.512 687.523 413.909Z"/><path fill="#68A6A2" transform="scale(1.33333 1.33333)" d="M676.069 647.714C679.475 649.526 678.731 661.249 677.615 664.495C676.809 664.353 676.563 664.151 675.789 663.784C673.968 659.259 674.58 652.234 676.069 647.714Z"/><path fill="#68A6A2" transform="scale(1.33333 1.33333)" d="M672.77 612.709C673.716 613.402 673.609 613.44 674.33 614.418C674.941 618.611 676.093 626.2 674.414 630.022C670.127 626.093 670.715 617.66 672.77 612.709Z"/><path fill="#68A6A2" transform="scale(1.33333 1.33333)" d="M655.257 489.529L655.864 490.258C656.174 492.933 651.763 504.792 650.446 507.482C646.668 503.565 652.334 492.943 655.257 489.529Z"/><path fill="#68A6A2" transform="scale(1.33333 1.33333)" d="M650.438 667.194C655.308 668.975 654.381 679.346 654.315 683.931L652.594 683.315C650.288 680.447 650.318 670.929 650.438 667.194Z"/><path fill="#68A6A2" transform="scale(1.33333 1.33333)" d="M648.341 745.866C652.244 747.597 653 758.857 651.788 762.47C648.073 760.575 647.214 749.524 648.341 745.866Z"/><path fill="#68A6A2" transform="scale(1.33333 1.33333)" d="M675.887 695.155C676.296 692.186 676.509 688.54 678.055 686.066L678.862 686.061C679.907 688.368 679.489 692.144 679.397 694.815C679.27 697.288 679.702 700.569 676.961 701.206C675.417 698.686 675.945 698.574 675.887 695.155Z"/><path fill="#68A6A2" transform="scale(1.33333 1.33333)" d="M675.887 695.155L678.192 695.996L679.397 694.815C679.27 697.288 679.702 700.569 676.961 701.206C675.417 698.686 675.945 698.574 675.887 695.155Z"/><path fill="#68A6A2" transform="scale(1.33333 1.33333)" d="M657.762 461.071L659.396 461.732C660.006 464.122 657.326 473.845 656.475 476.495L655.577 476.328C652.678 472.982 655.183 464.439 657.762 461.071Z"/><path fill="#68A6A2" transform="scale(1.33333 1.33333)" d="M661.953 527.998C663.076 528.515 662.592 528.126 663.26 529.391C662.751 534.373 661.021 538.98 659.157 543.595C654.949 539.841 659.309 531.664 661.953 527.998Z"/><path fill="#68A6A2" transform="scale(1.33333 1.33333)" d="M683.871 655.957C687.99 658.053 686.756 669.554 685.404 673.276C681.868 672.596 683.303 658.945 683.871 655.957Z"/><path fill="#68A6A2" transform="scale(1.33333 1.33333)" d="M669.732 707.229C673.062 709.552 673.584 720.789 671.782 723.926C668.62 720.97 668.018 710.993 669.732 707.229Z"/><path fill="#68A6A2" transform="scale(1.33333 1.33333)" d="M673.598 416.521L674.716 417.069C674.854 417.902 671.222 429.451 670.715 432.436L669.452 431.884C666.135 427.495 670.767 420.018 673.598 416.521Z"/><path fill="#68A6A2" transform="scale(1.33333 1.33333)" d="M676.546 509.134L677.131 509.484C678.058 511.526 674.31 522.046 673.296 525.015L671.872 524.297C669.609 519.613 673.186 512.539 676.546 509.134Z"/><path fill="#68A6A2" transform="scale(1.33333 1.33333)" d="M663.004 588.924C664.42 589.504 663.783 589.075 664.801 590.476C664.951 594.002 664.721 602.975 663.298 606.009C659.403 601.075 661.41 594.337 663.004 588.924Z"/><path fill="#68A6A2" transform="scale(1.33333 1.33333)" d="M693.967 642.37C697.036 644.264 694.457 656.198 693.297 659.037C689.318 655.216 691.832 646.692 693.967 642.37Z"/><path fill="#68A6A2" transform="scale(1.33333 1.33333)" d="M664.081 644.916C667.682 646.999 667.171 658.315 665.787 661.831C662.182 658.684 662.895 649.134 664.081 644.916Z"/><path fill="#68A6A2" transform="scale(1.33333 1.33333)" d="M655.491 693.363C656.454 693.682 656.545 693.882 657.331 694.549C658.958 698.745 660.36 705.441 658.827 709.78C655.477 707.623 654.764 697.063 655.491 693.363Z"/><path fill="#68A6A2" transform="scale(1.33333 1.33333)" d="M651.644 639.137C656.007 641.466 655.632 651.151 655.33 655.213C654.249 654.757 654.118 654.505 653.289 653.691C652.244 650.176 650.291 642.563 651.644 639.137Z"/><path fill="#68A6A2" transform="scale(1.33333 1.33333)" d="M687.863 623.319C688.395 623.822 688.548 624.238 688.936 624.904C688.812 628.244 687.205 637.078 686.082 640.205C682.311 636.522 685.177 626.91 687.863 623.319Z"/><path fill="#68A6A2" transform="scale(1.33333 1.33333)" d="M661.706 726.257L662.812 726.696C664.917 728.874 664.625 739.229 664.746 742.916L662.877 742.185C660.482 738.396 661.286 730.63 661.706 726.257Z"/><path fill="#68A6A2" transform="scale(1.33333 1.33333)" d="M678.639 454.473C680.254 455.048 679.605 454.591 680.706 455.822C680.133 459.6 679.701 464.556 677.896 467.791C677.504 467.806 676.508 467.626 676.066 467.561L675.378 466.131C675.29 462.425 676.583 457.548 678.639 454.473Z"/><path fill="#68A6A2" transform="scale(1.33333 1.33333)" d="M687.201 528.846C689.679 530.552 686.307 541.016 684.756 543.092C680.724 538.722 684.015 532.583 687.201 528.846Z"/><path fill="#68A6A2" transform="scale(1.33333 1.33333)" d="M674.514 747.178C674.63 743.876 674.563 737.394 676.656 734.951C678.03 736.296 678.141 738.716 678.157 740.565C678.156 742.958 678.116 745.352 678.036 747.744L674.514 747.178Z"/><path fill="#68A6A2" transform="scale(1.33333 1.33333)" d="M662.565 413.39C664.534 415.543 661.133 425.637 659.836 428.207C656.375 422.876 658.323 417.57 662.565 413.39Z"/><path fill="#68A6A2" transform="scale(1.33333 1.33333)" d="M674.311 529.613C675.527 531.076 671.547 542.993 670.873 545.395C666.251 541.519 670.837 532.979 674.311 529.613Z"/><path fill="#68A6A2" transform="scale(1.33333 1.33333)" d="M663.274 623.848L664.464 625.332C665.385 630.334 665.487 634.454 664.552 639.48C659.697 636.295 661.614 628.525 663.274 623.848Z"/><path fill="#68A6A2" transform="scale(1.33333 1.33333)" d="M688.643 433.008L689.666 433.442C690.342 435.951 685.394 444.009 683.931 446.731C679.867 442.571 685.667 436.454 688.643 433.008Z"/><path fill="#68A6A2" transform="scale(1.33333 1.33333)" d="M686.273 598.955C687.221 599.429 686.924 599.329 687.637 600.295C687.677 603.63 686.536 610.304 685.477 613.487C680.894 609.71 683.656 603.242 686.273 598.955Z"/><path fill="#68A6A2" transform="scale(1.33333 1.33333)" d="M653.286 528.237C655.487 530.757 650.697 541.885 649.599 545.069C649.065 544.592 648.906 544.165 648.519 543.512C648.63 538.021 649.684 532.553 653.286 528.237Z"/><path fill="#68A6A2" transform="scale(1.33333 1.33333)" d="M658.996 510.349C659.458 510.49 660.182 510.927 660.606 511.157C660.721 513.871 658.864 521.311 657.979 523.987C653.114 520.066 656.461 514.603 658.996 510.349Z"/><path fill="#68A6A2" transform="scale(1.33333 1.33333)" d="M673.923 437.5C675.595 437.833 675.16 437.499 676.168 438.579C676.267 442.725 674.763 445.589 673.243 449.518C671.197 448.824 671.807 449.358 670.807 447.667C670.721 443.646 672.037 441.011 673.923 437.5Z"/><path fill="#68A6A2" transform="scale(1.33333 1.33333)" d="M659.557 567.088L663.075 568.402C661.268 572.577 661.91 575.414 659.446 579.843L658.749 579.791C657.703 574.992 658.529 571.73 659.557 567.088Z"/><path fill="#68A6A2" transform="scale(1.33333 1.33333)" d="M652.22 592.266C653.15 592.633 653.17 592.78 653.89 593.5C654.523 596.72 655.45 603.558 654.123 606.588C650.133 603.444 650.449 596.571 652.22 592.266Z"/><path fill="#68A6A2" transform="scale(1.33333 1.33333)" d="M654.469 546.537L655.385 547.804C655.055 551.427 652.848 559.836 651.889 563.737C648.686 559.038 651.564 550.814 654.469 546.537Z"/><path fill="#68A6A2" transform="scale(1.33333 1.33333)" d="M660.135 376.452L661.063 376.974C661.407 378.952 657.539 387.991 656.512 390.942L655.3 390.252C653.584 386.213 657.749 379.553 660.135 376.452Z"/><path fill="#68A6A2" transform="scale(1.33333 1.33333)" d="M678.877 491.26C679.515 491.797 679.474 491.911 679.938 492.647C679.425 497.335 678.147 501.907 676.155 506.182C673.319 501.457 676.023 495.351 678.877 491.26Z"/><path fill="#68A6A2" transform="scale(1.33333 1.33333)" d="M654.95 614.706C655.958 615.437 655.604 615.168 656.257 616.373C656.21 619.644 655.25 626.371 653.953 629.323C650.294 625.825 652.812 618.532 654.95 614.706Z"/><path fill="#68A6A2" transform="scale(1.33333 1.33333)" d="M690.555 751.246C691.428 751.985 691.161 751.804 691.73 752.9C691.753 757.779 690.801 761.138 689.019 765.658C685.941 762.533 688.231 754.354 690.555 751.246Z"/><path fill="#68A6A2" transform="scale(1.33333 1.33333)" d="M669.714 399.833C671.747 400.558 671.174 400.013 671.985 401.712C671.893 405.206 670.3 408.526 669.003 411.803C664.584 409.265 668.131 403.762 669.714 399.833Z"/><path fill="#68A6A2" transform="scale(1.33333 1.33333)" d="M649.531 570.037C650.173 570.612 650.381 571.043 650.865 571.758C651.339 575.348 651.981 582.477 650.109 585.666C647.912 581.536 647.398 574.2 649.531 570.037Z"/><path fill="#68A6A2" transform="scale(1.33333 1.33333)" d="M675.613 547.289C677.366 549.002 672.485 558.22 671.4 560.57C667.431 556.646 672.615 550.281 675.613 547.289Z"/><path fill="#68A6A2" transform="scale(1.33333 1.33333)" d="M661.874 356.622C662.871 357.08 662.781 357.13 663.63 357.877C663.563 360.238 660.385 366.549 659.218 369.181C657.35 367.883 657.79 368.582 657.219 366.631C657.847 363.279 660.169 359.671 661.874 356.622Z"/><path fill="#68A6A2" transform="scale(1.33333 1.33333)" d="M689.144 559.647C692.631 562.538 690.737 568.524 689.35 572.112C685.064 569.529 687.478 563.253 689.144 559.647Z"/><path fill="#68A6A2" transform="scale(1.33333 1.33333)" d="M690.583 579.298L691.638 580.614C691.927 584.706 691.949 589.902 689.951 593.584C686.714 589.776 688.709 583.322 690.583 579.298Z"/><path fill="#68A6A2" transform="scale(1.33333 1.33333)" d="M666.371 451.242L667.531 452.134C668.02 454.653 666.627 461.808 665.751 464.362C661.941 461.102 663.52 454.739 666.371 451.242Z"/><path fill="#68A6A2" transform="scale(1.33333 1.33333)" d="M688.917 546.009L689.263 546.344C689.69 548.287 686.14 556.11 685.034 558.204C681.018 553.385 685.341 549.176 688.917 546.009Z"/><path fill="#68A6A2" transform="scale(1.33333 1.33333)" d="M663.841 545.249C665.197 548.995 662.958 555.336 660.968 558.607C658.663 552.954 660.404 549.72 663.841 545.249Z"/><path fill="#68A6A2" transform="scale(1.33333 1.33333)" d="M672.699 587.291C674.881 587.664 674.244 587.24 675.604 588.65C675.599 589.633 675.584 590.616 675.561 591.599C675.494 594.169 675.595 595.334 673.83 597.001L672.884 596.006C671.726 593.173 672.34 590.342 672.699 587.291Z"/><path fill="#68A6A2" transform="scale(1.33333 1.33333)" d="M653.068 429.614L654.485 430.497C654.452 432.441 650.819 438.512 649.699 442.62L649.205 442.636L648.568 441.808C648.901 437.078 650.638 433.62 653.068 429.614Z"/><path fill="#68A6A2" transform="scale(1.33333 1.33333)" d="M669.165 382.41L670.198 383.7C670.447 387.624 669.66 389.702 667.404 392.875C664.115 389.098 666.86 386.039 669.165 382.41Z"/><path fill="#68A6A2" transform="scale(1.33333 1.33333)" d="M679.345 399.558L680.156 400.412C680.778 402.998 682.015 409.317 681.053 411.7C680.027 411.128 679.749 410.783 678.933 409.983C677.527 405.831 677.734 403.621 679.345 399.558Z"/><path fill="#68A6A2" transform="scale(1.33333 1.33333)" d="M661.964 749.951L663.265 751.035C664.71 754.259 664.723 757.926 664.63 761.418C660.145 759.438 661.292 753.94 661.964 749.951Z"/><path fill="#68A6A2" transform="scale(1.33333 1.33333)" d="M661.044 441.51C660.52 444.044 660.272 446.591 658.339 448.187L657.461 447.222C656.764 444.595 657.766 442.003 658.49 439.33L661.044 441.51Z"/><path fill="#68A6A2" transform="scale(1.33333 1.33333)" d="M691.216 677.2L692.089 678.155C692.792 682.222 692.41 684.978 691.028 688.849L689.832 687.537C688.994 683.366 689.415 681.036 691.216 677.2Z"/><path fill="#68A6A2" transform="scale(1.33333 1.33333)" d="M672.699 587.291C673.232 584.817 673.438 582.265 675.226 580.602L676.247 580.894C676.947 582.715 676.21 586.912 675.604 588.65C674.244 587.24 674.881 587.664 672.699 587.291Z"/><path fill="#68A6A2" transform="scale(1.33333 1.33333)" d="M687.519 472.85C688.231 473.175 688.316 473.385 688.923 473.947C689.349 476.363 688.283 479.237 687.599 481.675C686.002 480.947 686.548 481.352 685.592 479.556C685.38 477.077 686.504 475.145 687.519 472.85Z"/><path fill="#68A6A2" transform="scale(1.33333 1.33333)" d="M690.652 452.029C691.495 454.65 689.865 459.649 688.698 462.064C686.129 458.074 688.239 455.207 690.652 452.029Z"/><path fill="#68A6A2" transform="scale(1.33333 1.33333)" d="M659.557 567.088C660.643 565.11 661.482 563.093 663.431 561.983L664.31 562.409C664.646 564.706 663.867 566.183 663.075 568.402L659.557 567.088Z"/><path fill="#68A6A2" transform="scale(1.33333 1.33333)" d="M674.514 747.178L678.036 747.744C678.179 750.407 678.26 751.227 676.863 753.008L675.79 752.669C674.334 750.653 674.524 749.611 674.514 747.178Z"/><path fill="#68A6A2" transform="scale(1.33333 1.33333)" d="M686.295 488.638C688.277 491.088 687.519 495.477 685.34 497.639C683.951 494.569 685.179 491.634 686.295 488.638Z"/><path fill="#68A6A2" transform="scale(1.33333 1.33333)" d="M658.49 439.33C659.724 437.237 659.433 436.973 661.396 435.961C663.19 437.714 661.981 439.473 661.044 441.51L658.49 439.33Z"/><path fill="#68A6A2" transform="scale(1.33333 1.33333)" d="M688.171 507.197C688.353 507.914 688.461 508.649 688.492 509.389C688.579 511.633 687.325 512.897 685.875 514.392L685.037 512.296C685.207 510.083 686.678 508.838 688.171 507.197Z"/><path fill="#B4C2BD" transform="scale(1.33333 1.33333)" d="M649.238 511.782C650.13 514.542 649.08 519.273 648.47 522.162C646.673 518.675 648.091 515.22 649.238 511.782Z"/><path fill="#68A6A2" transform="scale(1.33333 1.33333)" d="M649.873 453.886L650.848 454.787C651.075 457.105 649.901 459.218 648.984 461.464L648.598 461.444C647.574 459.087 648.827 456.042 649.873 453.886Z"/><path fill="#B4C2BD" transform="scale(1.33333 1.33333)" d="M650.489 475.038L651.283 475.802C652.002 478.63 651.662 479.997 651.28 482.883C649.084 480.133 649.727 478.152 650.489 475.038Z"/><path fill="#054751" transform="scale(1.33333 1.33333)" d="M578.68 296.632C589.511 276.078 601.723 277.507 622.129 277C620.671 279.392 619.143 281.489 622.841 283.287C624.782 284.226 626.832 284.92 628.945 285.352L631.654 285.953C634.258 285.521 634.65 285.663 637.083 286.408L637.549 287.315C636.473 288.61 634.74 288.985 633.075 289.58C633.757 291.221 635.65 290.894 634.424 293.395C632.611 297.096 632.567 300.614 631.656 304.359L631.289 307.117C631.067 310.514 630.602 313.844 632.469 316.774L633.682 317.464L634.959 317.287L635.468 316.303L636.929 316.018C639.705 313.907 643.769 312.622 647.088 311.381L647.93 311.807C648.886 315.58 649.38 318.153 649.954 322.006L650.371 324.158C650.698 328.719 651.768 334.498 651.4 338.745C651.828 341.898 652.173 345.062 652.432 348.233L653.111 348.689L653.627 348.539L654.49 349.597C653.023 352.186 652.624 353.668 650.508 355.929C649.206 356.319 647.787 356.625 646.727 357.431C645.266 357.718 642.168 357.136 640.55 356.913C640.263 361.153 640.285 363.381 640.496 367.568C643.154 382.397 647.753 397.439 643.846 412.527C636.451 437.256 610.097 442.711 595.911 419.938C589.034 408.898 592.496 400.43 595.529 389.023C582.274 398.055 578.148 381.935 574.416 372.025C572.484 366.897 573.255 361.056 573.723 355.699C570.986 357.969 567.574 360.386 564.687 362.543L564.201 370.282C572.885 385.983 575.572 403.641 564.272 418.936C563.103 420.518 559.757 424.764 557.881 424.277C548.071 421.731 547.288 402.947 541.892 396.081C541.319 395.433 540.632 395.838 539.624 396.08C536.519 399.135 535.115 402.843 533.766 406.895C538.13 424.064 538.829 427.635 531.742 443.875C530.728 444.4 525.786 447.021 525.192 447.001C516.771 446.729 512.563 423.105 511.868 418.994C507.857 422.076 506.402 424.313 503.654 428.405L503.37 440.132C497.037 449.223 496.168 447.519 487.252 449.355C483.381 450.153 477.302 462.476 469.681 458.893C465.369 454.004 468.122 437.287 470.53 431.466C471.505 429.109 475.844 422.623 477.383 419.859C472.68 415.999 458.102 424.535 454.173 418.45C454.2 414.219 456.134 412.01 458.186 408.334C463.382 399.023 472.592 392.87 481.917 388.223C485.931 386.222 493.685 384.778 496.431 381.195C492.264 379.402 464.296 388.319 462.841 378.163C465.786 370.53 471.387 367.881 477.936 363.939C492.363 355.256 505.896 352.727 522.447 351.548L528.958 346.084C515.982 343.967 505.923 345.783 494.066 341.966C498.591 337.824 501.174 334.15 508.008 331.453C521.738 326.147 536.961 322.254 551.524 320.132C554.439 319.707 558.076 324.072 562.503 321.971L562.98 319.838C558.241 313.344 528.428 323.356 524.712 315.166C525.653 311.23 530.605 308.755 534.012 306.572C535.961 306.141 546.986 300.781 548.808 299.619C562.545 294.994 564.348 295.318 578.68 296.632ZM602.591 363.815C604.489 354.541 602.618 352.028 607.843 342.519C605.208 340.251 604.463 338.213 602.974 335.117C591.932 348.597 594.328 348.035 602.591 363.815Z"/><path fill="#F7A227" transform="scale(1.33333 1.33333)" d="M623.419 335.768C636.163 336.704 639.013 345.849 640.55 356.913C640.263 361.153 640.285 363.381 640.496 367.568C643.154 382.397 647.753 397.439 643.846 412.527C636.451 437.256 610.097 442.711 595.911 419.938C589.034 408.898 592.496 400.43 595.529 389.023C598.483 377.931 600.698 377.722 602.591 363.815C604.489 354.541 602.618 352.028 607.843 342.519C612.475 338.528 614.405 337.651 620.331 336.112L623.419 335.768Z"/><path fill="#F4AF43" transform="scale(1.33333 1.33333)" d="M640.496 367.568C643.154 382.397 647.753 397.439 643.846 412.527C643.141 409.69 643.104 409.139 643.533 406.214L643.64 405.509L643.179 405.647C642.902 406.645 642.412 407.001 641.702 407.851C640.915 408.974 640.534 409.434 639.605 410.442L638.627 410.116C637.997 407.599 638.895 403.734 638.758 400.306L638.731 399.685C636.671 393.403 635.989 372.448 640.496 367.568Z"/><path fill="#D6C4B2" transform="scale(1.33333 1.33333)" d="M638.731 399.685C639.886 397.769 639.569 397.597 641.388 396.753C642.735 398.424 642.555 401.423 642.324 403.492C642.152 404.95 641.944 406.403 641.702 407.851C640.915 408.974 640.534 409.434 639.605 410.442L638.627 410.116C637.997 407.599 638.895 403.734 638.758 400.306L638.731 399.685Z"/><path fill="#209C7D" transform="scale(1.33333 1.33333)" d="M622.954 424.877C623.428 424.95 623.291 425.021 623.765 425.579C622.376 429.005 621.11 432.164 617.038 430.616C615.57 429.161 614.428 428.413 614.151 426.439C615.857 425.355 619.21 426.575 622.954 424.877Z"/><path fill="#F4AF43" transform="scale(1.33333 1.33333)" d="M612.474 379.326C613.315 379.633 614.812 379.658 615.778 379.727C614.05 381.257 613.541 382.609 613.566 384.888C614.662 386.644 614.025 386.15 615.933 386.784L617.648 385.766L618.194 386.513L617.659 385.982C618.495 387.416 618.29 386.815 618.021 388.757C618.02 389.751 617.685 390.336 617.306 391.25L616.31 391.25C613.056 387.544 611.062 384.287 612.474 379.326Z"/><path fill="#1493B1" transform="scale(1.33333 1.33333)" d="M631.654 285.953C634.258 285.521 634.65 285.663 637.083 286.408L637.549 287.315C636.473 288.61 634.74 288.985 633.075 289.58C633.757 291.221 635.65 290.894 634.424 293.395C632.611 297.096 632.567 300.614 631.656 304.359L631.289 307.117C625.633 301.82 623.614 300.475 616.861 297.289C604.573 307.653 592.893 318.924 580.847 329.592C562.477 345.848 543.326 361.695 527.034 380.077C512.513 396.462 498.266 412.223 487.713 431.554C486.245 434.243 480.948 445.216 478.551 446.227C485.158 422.588 521.67 382.041 539.816 363.468C551.196 351.82 569.723 336.966 582.158 325.318C596.736 311.664 612.652 296.798 628.945 285.352L631.654 285.953Z"/><path fill="#054751" transform="scale(1.33333 1.33333)" d="M631.654 285.953C634.258 285.521 634.65 285.663 637.083 286.408L637.549 287.315C636.473 288.61 634.74 288.985 633.075 289.58C633.757 291.221 635.65 290.894 634.424 293.395C632.611 297.096 632.567 300.614 631.656 304.359C627.946 300.392 623.142 297.928 618.466 295.243C622.96 291.748 626.896 289.1 631.654 285.953Z"/><path fill="#1493B1" transform="scale(1.33333 1.33333)" d="M620.331 336.112C620.9 331.775 621.029 327.392 620.715 323.03C620.326 317.97 616.742 303.337 618.15 300.24C623.182 303.365 623.191 329.747 623.419 335.768L620.331 336.112Z"/><path fill="#1493B1" transform="scale(1.33333 1.33333)" d="M635.468 316.303L636.929 316.018L638.594 320.248C641.379 327.746 642.635 335.737 641.341 343.681L640.826 343.62C637.795 334.734 640.066 329.36 634.959 317.287L635.468 316.303Z"/><path fill="#0F5661" transform="scale(1.33333 1.33333)" d="M636.929 316.018C639.705 313.907 643.769 312.622 647.088 311.381L647.93 311.807C646.651 313.049 646.29 313.968 645.607 315.603C643.914 317.133 642.605 317.067 640.372 317.327C639.019 318.514 638.958 318.547 638.594 320.248L636.929 316.018Z"/><path fill="#1493B1" transform="scale(1.33333 1.33333)" d="M517.13 381.996L517.863 382.619L517.94 383.627C509.839 389.853 502.736 390.396 493.889 394.649C488.549 397.307 483.674 401.087 478.5 403.992C475.386 405.741 471.41 407.448 468.13 409.062C466.901 408.855 467.447 409.098 466.467 408.24C467.779 404.369 476.618 403.234 479.219 401.264C490.914 392.403 503.948 388.301 517.13 381.996Z"/><path fill="#1493B1" transform="scale(1.33333 1.33333)" d="M535.614 361.019L536.03 361.103L536.239 361.653C530.704 367.028 494.813 372.775 483.541 376.053L482.754 375.636L482.924 374.838C495.39 368.586 524.08 366.633 535.614 361.019Z"/><path fill="#1493B1" transform="scale(1.33333 1.33333)" d="M517.614 337.039C523.345 336.882 557.624 336.665 561.275 338.306C558.417 339.477 554.789 339.272 551.643 339.319C536.166 338.95 522.362 337.673 506.926 339.611L507.263 338.856C510.599 337.696 514.103 337.446 517.614 337.039Z"/><path fill="#1493B1" transform="scale(1.33333 1.33333)" d="M580.762 339.808L581.548 340.442C582.051 342.137 582.901 344.017 583.995 345.387C593.094 356.78 590.058 364.084 595.988 376.383C587.038 373.05 590.715 363.521 588.136 356.618C586.044 351.02 579.088 346.453 580.762 339.808Z"/><path fill="#1493B1" transform="scale(1.33333 1.33333)" d="M592.974 287.601C599.17 287.041 611.538 287.21 616.859 290.258L615.752 290.667L615.746 290.084L615.197 290.693C613.242 290.796 609.282 289.892 607.175 289.487C596.117 288.748 592.126 290.009 581.926 293.407C586.159 290.034 587.803 289.377 592.974 287.601Z"/><path fill="#1493B1" transform="scale(1.33333 1.33333)" d="M555.273 366.678C556.519 369.27 555.821 374.112 556.806 376.578C560.267 385.252 565.498 386.059 559.874 395.551L558.87 395.086C562.103 378.778 550.632 380.893 555.273 366.678Z"/><path fill="#1493B1" transform="scale(1.33333 1.33333)" d="M589.994 307.452C591.158 307.277 593.112 307.313 594.356 307.292L594.544 307.698C592.691 309.572 576.781 311.081 573.401 311.246L570.201 311.461L569.793 310.674C572.11 309.057 586.197 307.859 589.994 307.452Z"/><path fill="#1493B1" transform="scale(1.33333 1.33333)" d="M517.334 396.964C518.478 403.363 520.813 407.194 522.277 413.23C517.802 411.49 515.988 401.106 517.334 396.964Z"/><path fill="#0F5661" transform="scale(1.33333 1.33333)" d="M549.26 384.617L550.521 384.277C550.345 388.357 553.152 387.602 552.616 392.306L551.228 392.642C550.08 389.52 550.215 387.315 549.26 384.617Z"/><path fill="#4A7D82" transform="scale(1.33333 1.33333)" d="M498.296 427.182L498.872 427.726C498.941 431.152 498.572 434.552 498.618 438.118C497.636 438.064 497.633 437.932 496.797 437.367C496.27 434.697 497.628 429.943 498.296 427.182Z"/><path fill="#0F5661" transform="scale(1.33333 1.33333)" d="M576.646 319.762L577.437 319.87L577.175 320.591L568.564 324.338C568.298 324.348 567.487 324.105 567.185 324.028C568.232 322.221 574.242 320.571 576.646 319.762Z"/><path fill="#0F5661" transform="scale(1.33333 1.33333)" d="M547.946 309.523C550.778 309.192 555.785 308.427 558.15 309.83C554.712 310.309 551.002 311.132 547.946 309.523Z"/><path fill="#0F5661" transform="scale(1.33333 1.33333)" d="M536.747 348.577C536.112 350.801 532.771 353.314 530.79 355.243L530.567 353.935C532.722 351.192 533.829 350.569 536.747 348.577Z"/><path fill="#7DA2AB" transform="scale(1.33333 1.33333)" d="M489.241 415.329C490.012 417.338 487.493 421.08 486.499 422.894C486.076 419.577 487.302 417.777 489.241 415.329Z"/><path fill="#7DA2AB" transform="scale(1.33333 1.33333)" d="M527.548 394.138L528.151 395.35C528.228 397.58 527.169 399.195 526.173 401.261C525.322 399.02 526.57 396.155 527.548 394.138Z"/><path fill="#4A7D82" transform="scale(1.33333 1.33333)" d="M480.156 367.489L480.671 367.852C480.081 369.345 478.366 370.083 476.791 371.166L476.087 370.497C476.939 368.864 478.287 368.549 480.156 367.489Z"/><path fill="#0F5661" transform="scale(1.33333 1.33333)" d="M630.269 318.716L630.901 319.267C631.123 321.232 630.259 321.682 628.913 323.729L628.546 323.148C628.321 321.313 629.24 320.356 630.269 318.716Z"/><path fill="#054751" transform="scale(1.33333 1.33333)" d="M480.006 127.954C491.746 135.131 493.885 146.193 500.812 148.916L501.909 148.58C503.84 143.157 493.688 120.077 498.178 116.706C503.004 117.001 513.53 124.762 517.197 128.419C524.151 135.355 526.813 152.574 533.553 154.779C535.916 151.992 530.004 143.056 529.343 139.978C528.612 136.571 523.456 120.85 523.995 118.449C527.502 117.763 531.513 120.505 534.38 122.536C549.342 133.131 559.65 143.671 556.801 163.089C559.147 166.46 559.877 167.324 562.925 170.069C561.879 163.284 560.987 135.448 567.779 132.589C572.146 134.021 578.747 146.829 581.1 151.001C584.784 157.531 584.294 162.813 583.419 169.969C589.349 177.926 587.803 184.555 592.489 187.359L593.749 187.209C596.218 183.371 592.553 159.859 596.543 154.762C601.047 154.076 604.736 162.723 607.044 165.918C614.365 176.058 617.029 185.874 616.166 198.288C618.213 200.672 620.485 203.456 622.593 205.731C623.426 200.244 623.131 195.666 622.967 190.129C623.72 186.314 623.668 181.587 628.294 182.043C630.896 183.541 632.786 186.491 634.63 188.934C631.05 189.997 628.873 190.174 625.217 190.571C628.951 202.445 635.978 213.016 645.481 221.054C645.125 226.777 644.377 235.996 645.216 241.407C640.97 239.431 636.334 238.277 631.903 236.562L630.872 235.575L630.068 235.573L627.389 235.37C625.431 235.693 622.142 235.294 620.286 234.572C618.395 234.568 615.947 234.466 614.127 234.761C616.157 238.439 616.662 240.363 616.849 244.625C610.208 245.429 605.005 247.372 598.639 248.344C596.434 248.129 591.261 248.241 588.705 248.131C579.623 247.741 573.602 246.435 564.958 243.923L563.37 242.914C565.228 239.474 567.745 237.554 570.643 234.973C577.28 230.601 580.922 229.317 587.395 225.579C572.528 217.729 574.848 223.743 562.544 228.954L561.891 229.226C547.458 232.492 546.405 231.609 532.799 229.831C530.885 229.089 528.737 228.579 527.652 226.999C529.044 221.197 554.45 206.095 560.473 198.304C549.589 202.063 552.292 203.937 539.19 203.677C524.189 216.236 512.55 219.981 493.879 211.845C503.011 203.679 507.811 195.988 520.157 191.656C521.928 191.034 522.452 189.092 522.284 187.225C515.96 182.26 507.451 191.353 502.774 194.504C493.683 200.629 478.021 197.816 467.89 195.954C473.756 186.603 481.649 181.54 490.894 176.27C482.293 169.589 483.885 174.019 477.043 175.803C471.415 177.27 448.069 174.121 445.941 168.23C447.02 164.236 453.733 161.134 457.857 158.342C452.384 155.254 435.35 145.003 436.587 137.888C441.241 130.811 463.367 137.25 469.66 140.362C469.441 136.861 468.083 132.574 467.139 129.116C466.753 127.309 466.59 126.49 466.5 124.649C469.481 120.498 476.302 125.891 480.006 127.954Z"/><path fill="#1493B1" transform="scale(1.33333 1.33333)" d="M491.126 155.378C487.14 147.827 478.461 139.296 476.929 135.403C483.342 137.417 490.338 150.042 493.368 155.724C532.612 168.848 566.416 183.96 600.33 207.882C604.57 205.385 605.452 205.311 606.615 200.956C606.438 191.154 599.865 179.927 601.408 175.715C606.88 181.347 609.245 206.889 611.691 214.251C613.831 220.691 625.069 229.699 630.068 235.573L627.389 235.37C620.393 229.757 613.841 221.781 606.186 215.59C583.069 196.894 559.923 185.557 533.449 173.174C525.639 176.767 516.162 175.906 509.406 179.156C501.158 183.124 496.304 190.127 485.781 191.606L485.459 191.111C486.963 189.485 504.828 180.928 508.395 177.776C511.619 174.928 527.332 173.732 532.92 172.873C522.883 168.861 511.193 163.671 500.256 161.83C493.622 160.714 463.235 170.276 459.968 165.771C460.6 165.463 496.496 159.941 498.877 159.792C491.457 157.226 461.449 148.631 457.796 146.033C463.775 144.907 484.796 153.115 491.126 155.378Z"/><path fill="#0F5661" transform="scale(1.33333 1.33333)" d="M606.615 200.956C607.331 206.593 609.163 211.2 611.025 216.545C607.77 213.852 603.671 210.289 600.33 207.882C604.57 205.385 605.452 205.311 606.615 200.956Z"/><path fill="#1493B1" transform="scale(1.33333 1.33333)" d="M581.176 237.515C582.515 236.873 583.874 236.271 585.249 235.711C591.428 233.235 616.961 231.635 621.081 233.439L620.286 234.572C618.395 234.568 615.947 234.466 614.127 234.761C610.341 235.606 604.051 234.911 599.579 235.309C592.935 235.901 587.837 237.371 581.176 237.515Z"/><path fill="#0F5661" transform="scale(1.33333 1.33333)" d="M467.139 129.116C466.753 127.309 466.59 126.49 466.5 124.649C469.481 120.498 476.302 125.891 480.006 127.954C476.444 128.289 470.382 128.62 467.139 129.116Z"/><path fill="#1493B1" transform="scale(1.33333 1.33333)" d="M631.846 208.656C634.871 219.393 634.683 225.78 631.903 236.562L630.872 235.575C631.962 226.802 630.828 217.419 631.846 208.656Z"/><path fill="#1493B1" transform="scale(1.33333 1.33333)" d="M556.016 187.274C557.788 187.11 558.034 186.743 559.067 187.532C551.607 191.849 539.431 189.919 531.604 198.477C527.075 203.43 517.084 207.02 510.449 208.632C509.467 208.957 509.108 208.888 508.08 208.895C508.817 206.943 521.174 202.983 524.082 201.151C528.881 198.13 534.459 193.445 539.441 191.161L539.933 190.939C544.3 188.933 551.108 188.082 556.016 187.274Z"/><path fill="#1493B1" transform="scale(1.33333 1.33333)" d="M536.551 134.968C544.744 137.864 548.831 162.179 552.56 169.723C554.476 173.598 561.716 179.614 561.829 182.434C545.894 172.849 549.637 158.396 541.226 144.164C539.529 141.293 537.908 138.01 536.551 134.968Z"/><path fill="#1493B1" transform="scale(1.33333 1.33333)" d="M591.065 208.951L592.439 208.889L592.491 209.579C585.206 213.639 578.958 211.305 572.707 213.281C564.823 215.772 556.98 219.25 548.764 221.981C547.694 222.23 548.2 222.143 546.962 221.785C548.016 220.108 551.841 218.988 553.621 217.996C566.427 210.862 577.326 211.357 591.065 208.951Z"/><path fill="#1493B1" transform="scale(1.33333 1.33333)" d="M508.474 131.718C511.188 133.741 513.378 143.027 515.904 147.164C519.519 153.083 529.97 163.281 531.763 168.975C530.932 168.792 530.333 168.644 529.725 167.981C522.303 159.897 508.188 143.225 508.474 131.718Z"/><path fill="#1493B1" transform="scale(1.33333 1.33333)" d="M572.795 154.438C573.144 154.632 574.383 155.65 574.409 156.001C575.448 170.111 580.988 183.451 585.915 196.539C579.493 192.185 571.588 162.468 572.795 154.438Z"/></svg>