<?xml version="1.0" encoding="utf-8" ?><svg xmlns="http://www.w3.org/2000/svg" xmlns:xlink="http://www.w3.org/1999/xlink" width="1820" height="1024" viewBox="0 0 1820 1024"><path fill="#D49758" d="M892.419 436.61C895.747 431.741 897.278 425.657 899.692 423.207L900.59 423.303L902.252 427.885C906.472 436.404 912.262 442.494 921.294 445.902L922.782 446.877C922.99 452.238 922.652 462.04 923.001 466.328L922.626 471.492C920.873 553.235 920.155 634.997 920.472 716.758C920.535 795.688 921.44 881.036 929.483 959.224C917.085 963.762 857.997 966.957 850.311 956.197C848.993 943.218 851.527 925.656 852.359 912.35C856.571 844.997 859.261 776.209 864.784 709.073L864.738 708.363C864.527 695.527 866.509 672.459 867.314 658.843C870.34 611.453 874.674 564.156 880.311 517.006C882.382 499.715 883.966 474.216 887.627 458.022C887.976 452.164 887.909 447.691 887.759 441.853C889.364 440.183 890.896 438.362 892.419 436.61Z"/><path fill="#D49758" d="M892.419 436.61C895.747 431.741 897.278 425.657 899.692 423.207L900.59 423.303L902.252 427.885C906.472 436.404 912.262 442.494 921.294 445.902L922.782 446.877C922.99 452.238 922.652 462.04 923.001 466.328C915.465 466.317 917.49 472.82 912.18 474.507C910.094 472.348 908.967 465.591 908.17 462.284C905.432 465.738 902.729 471.874 898.241 471.769C893.846 468.094 893.889 459.289 888.509 458.287L887.627 458.022C887.976 452.164 887.909 447.691 887.759 441.853C889.364 440.183 890.896 438.362 892.419 436.61Z"/><path fill="#7D5034" d="M864.738 708.363C870.505 707.703 874.344 721.39 876.324 726.354C880.401 722.247 883.537 718.799 887.316 714.443C889.888 720.094 891.776 724.592 895.216 729.804C897.211 726.656 901.654 718.627 904.083 716.736L905.254 717.49C907.275 728.358 894.47 744.161 886.201 723.441C871.214 743.533 868.832 720.766 864.784 709.073L864.738 708.363Z"/><path fill="#7D5034" d="M888.509 458.287C893.889 459.289 893.846 468.094 898.241 471.769C902.729 471.874 905.432 465.738 908.17 462.284C908.967 465.591 910.094 472.348 912.18 474.507C917.49 472.82 915.465 466.317 923.001 466.328L922.626 471.492C919.72 476.105 917.836 480.672 911.982 481.07C909.438 479.454 908.43 476.406 907.039 473.545C903.462 472.047 905.012 478.138 898.525 479.105C891.286 476.939 888.523 464.926 888.509 458.287Z"/><path fill="#7D5034" d="M866.163 789.456C871.752 790.718 873.587 801.301 876.194 807.08C879.675 802.502 883.132 797.905 886.566 793.29C889.118 800.035 891.053 804.384 894.267 810.844C906.989 804.571 908.757 796.756 913.606 794.09L916.151 795.23C912.804 803.276 904.133 817.29 893.309 814.286C888.97 813.082 887.29 807.681 885.686 803.88C883.045 807.551 881.305 810.477 876.795 811.577C868.088 809.784 867.329 797.055 866.163 789.456Z"/><path fill="#7D5034" d="M864.145 913.102C868.386 915.055 870.803 924.004 872.894 929.054C877.79 924.532 881.314 919.126 886.776 914.08C888.737 918.355 892.425 926.775 895.963 929.343C899.372 927.083 898.776 918.687 902.793 917.135C903.708 918.243 904.061 920.882 904.388 922.405C902.894 928.367 902.57 934.349 895.336 934.559C889.777 932.191 888.109 927.865 885.356 922.649C881.614 928.026 879.445 932.742 873.149 934.472C865.006 933.198 863.128 919.688 864.145 913.102Z"/><path fill="#7D5034" d="M868.98 830.598C872.548 832.046 876.228 842.522 878.247 846.947C882.928 842.608 887.73 838.4 892.646 834.33C895.761 841.63 896.465 843.424 900.651 850.427C902.923 846.047 904.384 839.742 907.108 836.272L908.487 836.562L909.39 839.335C908.06 845.602 906.79 854.224 898.913 853.931C893.793 851.392 892.575 847.14 890.39 841.996C876.77 861.828 868.976 848.214 868.98 830.598Z"/><path fill="#7D5034" d="M863.903 745.16C868.699 747.161 870.139 760.099 871.868 765.801L879.956 754.45C882.681 761.182 883.804 764.128 887.772 770.204C890.474 766.374 892.445 759.822 896.181 758.144L898.183 759.376C894.609 773.041 888.302 783.446 878.813 765.572L878.37 766.24C875.881 769.956 875.435 770.999 871.422 771.777C864.058 769.004 863.764 751.959 863.903 745.16Z"/><path fill="#7D5034" d="M884.902 506.999C885.716 507.313 886.667 507.68 887.755 508.1C890.462 513.585 891.198 519.848 893.964 525.813C897.499 521.277 901.087 516.782 904.727 512.33L910.374 526.716C912.85 523.506 915.147 518.598 918.02 517.372C920.467 518.576 919.898 518.737 921.124 521.827C915.573 535.061 908.768 533.935 902.679 521.715C900.8 525.564 899.586 529.012 895.539 530.652C886.047 530.09 884.413 514.288 884.902 506.999Z"/><path fill="#7D5034" d="M859.21 873.752C863.813 875.307 864.577 883.189 868.158 889.407C870.793 885.973 874.131 880.356 877.641 878.75C882.577 879.587 884.41 886.196 888.618 891.882C890.283 889.457 891.659 887.011 894.004 885.314C895.744 886.475 895.264 886.687 895.965 889.432C893.609 893.73 893.332 895.695 888.311 896.341C883.004 894.386 880.897 888.849 878.313 883.915C875.452 888.677 873.781 893.165 867.871 894.251C860.163 892.494 857.693 879.844 859.21 873.752Z"/><path fill="#7D5034" d="M877.533 667.078C882.795 669.659 881.605 677.846 886.933 679.291C890.019 678.179 891.921 674.962 894 672.255C896.517 675.924 900.28 683.214 902.572 687.393C906.673 683.273 907.902 678.207 911.409 675.449L912.636 676.301L913.127 679.383C912.759 680.649 912.369 681.909 911.958 683.163C910.735 686.996 908.879 689.89 905.24 691.787C897.871 693.243 895.681 685.69 893.283 680.319C890.215 683.985 889.715 684.853 885.484 685.842C878.25 684.367 877.047 673.094 877.533 667.078Z"/><path fill="#7D5034" d="M880.813 566.817C884.093 568.11 886.646 575.78 888.061 579.069C890.864 574.988 891.838 572.394 896.289 571.144C902.577 573.994 900.023 578.641 904.073 584.56C908.738 582.183 908.746 573.459 913.086 571.549L914.285 573.032C911.221 588.298 904.311 595.477 895.271 578.493C893.012 581.011 892.026 582.474 888.842 583.613C880.897 583.099 880.397 573.197 880.813 566.817Z"/><path fill="#7D5034" d="M917.784 880.245L919.708 881.116C921.777 886.86 913.379 916.248 899.33 892.593C897.553 888.748 896.959 887.782 897.033 883.586C900.451 883.149 904.984 896.342 910.763 894.605C913.585 891.288 916.02 884.485 917.784 880.245Z"/><path fill="#7D5034" d="M878.146 619.861C886.561 622.852 882.822 629.662 889.593 633.694C893.743 632.115 894.663 627.137 899.123 625.821C900.649 627.714 900.403 628.62 900.506 631.208C888.29 650.236 877.194 631.604 878.146 619.861Z"/><path fill="#0A545B" d="M1016.25 336.834C1020.82 335.05 1031.36 334.612 1036.66 333.928C1118.15 323.394 1212.08 359.308 1243.79 440.027C1251.85 460.553 1262.3 517.412 1256.89 538.256C1249.21 539.767 1243.3 517.399 1239.85 512.818C1234.5 505.71 1217.97 472.941 1211.55 469.786C1210.75 470.88 1210.62 471.525 1210.74 472.822C1211.62 482.023 1201.91 514.614 1192.48 516.868C1191.29 516.143 1189.5 515.259 1189.43 513.563C1188.68 494.787 1188.81 475.222 1185.64 456.661C1185.02 453.034 1178.47 445.311 1176.28 439.93C1176.05 449.12 1173.8 488.391 1162.91 491.09C1156.22 488.426 1156.33 472.361 1154.4 465.601C1150.65 452.469 1124.29 407.027 1112.83 403.546L1111.4 404.344C1115.31 417.588 1123.39 425.566 1120.61 440.9C1119.83 445.235 1120.15 450.772 1116.18 453.777C1109.74 453.79 1105.98 439.876 1102.89 434.592C1089.27 411.293 1076.18 395.241 1052.87 381.603C1060.69 391.483 1069.82 403.696 1069.6 416.965C1067.71 419.51 1067.92 423.258 1067.71 426.628C1066.02 424.33 1064.27 422.069 1062.48 419.844C1041.77 394.34 1013.38 377.164 981.317 369.702C974.553 368.128 960.391 367.097 953.161 366.358C956.657 374.243 952.48 372.292 956.11 379.357C948.748 372.628 943.203 369.313 934.099 365.722L933.936 361.663L934.635 361.755C949.016 354.71 967.283 348.916 982.507 344.211C988.854 342.249 1003.8 339.055 1008.87 336.425C1011.09 336.647 1014.23 337.259 1016.25 336.834ZM1210.23 436.553L1211.81 436.9L1212.62 435.745C1211.54 431.169 1207.74 426.823 1204.61 423.455C1202.39 422.591 1202.25 422.613 1199.84 422.544C1198.64 424.875 1199.34 424.081 1197.05 425.407L1197.61 426.463C1201.77 427.123 1205.8 432.664 1210.23 436.553Z"/><path fill="#3F928E" d="M933.936 361.663L934.635 361.755L935.516 364.352C938.958 365.882 948.767 366.102 953.161 366.358C956.657 374.243 952.48 372.292 956.11 379.357C948.748 372.628 943.203 369.313 934.099 365.722L933.936 361.663Z"/><path fill="#0A545B" d="M845.273 364.1C846.697 362.942 861.337 360.013 864.835 358.987L864.674 364.823L864.987 369.851C856.671 378.783 846.018 390.01 842.08 401.824C840.217 406.619 837.259 418.941 838.677 423.758C837.157 440.568 839.942 459.705 839.803 476.637C824.908 463.922 821.133 450.509 812.706 433.655C806.434 465.27 817.907 481.765 822.288 508.342C813.427 502.759 814.378 502.789 807 496.062C800.315 489.966 792.14 471.743 786.827 471.373C786.188 478.068 797.244 523.916 800.609 533.353C802.648 539.071 810.534 553.461 812.775 560.449C796.946 552.066 787.972 543.226 779.578 527.069C780.006 527.894 771.35 516.03 772.34 516.709C768.618 524.681 777.813 552.251 780.238 561.322C783.323 572.857 794.817 588.354 797.738 596.945C787.79 602.519 751.751 565.621 745.43 557.887C750.372 574.194 756.18 587.607 765.187 602.163C767.503 605.905 776.987 619.893 777.45 622.695C770.388 629.169 746.595 604.464 742.026 598.827C739.468 595.644 737.037 592.362 734.739 588.987C737.563 606.733 744.907 627.02 751.57 643.594C754.86 651.777 769.568 674.945 769.121 680.596C761.728 687.25 735.971 659.79 731.396 654.69C690.604 609.219 678.988 533.072 707.995 478.557C709.276 476.148 711.389 471.91 713.174 470.068C734.15 429.797 780.517 399.39 820.667 380.477C830.806 375.701 837.573 373.518 845.774 365.706L845.273 364.1ZM719.383 540.317L719.955 539.524C722.64 535.854 727.313 532.078 727.823 526.582C726.901 524.157 726.015 521.893 725.275 519.397C726.661 520.63 725.901 520.396 727.466 520.485C728.722 519.161 732.098 516.15 732.157 514.819C732.311 511.317 732.959 509.616 735.663 507.255C734.7 506.136 733.848 505.135 732.803 504.081L733.435 503.143L736.686 502.735C736.765 499.139 733.141 499.247 733.229 496.207L734.857 496.699L735.266 497.58C737.354 496.435 738.148 494.306 739.59 492.014L738.885 491.145C737.933 491.046 735.371 490.718 734.546 490.714C731.488 493.01 730.418 492.911 729.726 495.919C730.673 497.282 731.356 498.59 732.767 499.396C730.089 499.645 730.958 499.53 728.514 501.64C729.454 513.27 710.528 525.786 720.938 530.909L720.491 531.735L718.295 531.722C716.526 534.956 714.931 537.32 714.512 540.984L715.255 541.938C717.847 542.043 718.724 542.5 720.785 541.396L719.383 540.317ZM748.065 476.835C751.17 475.22 751.158 474.518 751.894 471.118C753.293 464.659 766.585 455.954 763.553 449.19C766.144 448.636 767.538 448.887 768.684 447.162C767.738 444.852 766.842 441.576 764.911 440.42C763.69 451.526 751.916 457.68 748.081 464.685C747.043 466.583 748.85 469.852 747.096 472.073L744.998 471.559L745.67 472.683L744.932 473.116L743.011 472.121L742.464 472.631C744.72 474.716 745.438 475.237 748.065 476.835Z"/><path fill="#3F928E" d="M845.273 364.1C846.697 362.942 861.337 360.013 864.835 358.987L864.674 364.823C811.119 381.9 747.916 417.022 717.382 466.489C716.44 468.014 715.188 471.054 713.174 470.068C734.15 429.797 780.517 399.39 820.667 380.477C830.806 375.701 837.573 373.518 845.774 365.706L845.273 364.1Z"/><path fill="#D3C2AA" fill-opacity="0.062745102" d="M734.546 490.714C735.371 490.718 737.933 491.046 738.885 491.145L739.59 492.014C738.148 494.306 737.354 496.435 735.266 497.58L734.857 496.699L733.229 496.207C733.141 499.247 736.765 499.139 736.686 502.735L733.435 503.143L732.803 504.081C733.848 505.135 734.7 506.136 735.663 507.255C732.959 509.616 732.311 511.317 732.157 514.819C732.098 516.15 728.722 519.161 727.466 520.485C725.901 520.396 726.661 520.63 725.275 519.397C726.015 521.893 726.901 524.157 727.823 526.582C727.313 532.078 722.64 535.854 719.955 539.524L719.383 540.317L720.785 541.396C718.724 542.5 717.847 542.043 715.255 541.938L714.512 540.984C714.931 537.32 716.526 534.956 718.295 531.722L720.491 531.735L720.938 530.909C710.528 525.786 729.454 513.27 728.514 501.64C730.958 499.53 730.089 499.645 732.767 499.396C731.356 498.59 730.673 497.282 729.726 495.919C730.418 492.911 731.488 493.01 734.546 490.714Z"/><path fill="#0A545B" d="M642.788 200.616C622.278 206.05 605.556 215.935 586.889 225.562C580.069 229.079 566.627 244.804 559.578 239.782C558.691 236.794 559.942 234.443 561.168 231.637C573.395 203.649 606.01 178.273 634.248 168.034C669.891 155.109 707.886 157.69 742.185 172.899L742.043 174.374C746.191 177.111 751.496 179.185 755.921 181.442C812.418 210.262 846.133 271.057 871.561 326.577C872.806 329.296 875.873 335.22 877.678 337.53L873.171 342.58C869.704 347.438 868.448 349.353 865.752 354.789C858.765 347.313 853.594 339.341 845.283 332.794C843.634 332.311 833.568 324.434 831.465 322.851C811.919 308.144 787.727 304.555 764.441 299.273L763.37 297.346C767.422 286.437 803.327 289.802 812.768 290.835C797.385 279.096 771.854 275.547 752.745 275.799C747.103 275.874 733.075 278.046 728.313 276.106L727.93 274.605C733.728 265.799 759.079 259.867 764.418 255.155L763.618 253.762C758.79 251.518 752.578 250.958 747.231 250.438C726.834 248.457 707.784 257.301 689.839 265.763C685.979 267.583 682.95 268.787 678.766 269.688L678.341 269.776C687.208 252.224 704.378 238.791 720.402 228.006C697.514 232.707 677.112 237.027 657.145 249.827C653.366 252.25 644.131 260.909 640.449 261.151L639.582 259.454C642.413 241.895 659.027 225.116 669.883 210.953C642.055 219.964 634.418 228.68 613.329 248.881C618.759 227.28 627.856 216.346 642.788 200.616ZM818.202 264.987C814.181 255.452 794.841 247.492 791.982 242.473C791.81 242.562 791.638 242.651 791.467 242.74L790.648 244.092C794.647 248.394 811.974 263.869 816.985 265.292L818.202 264.987Z"/><path fill="#D3C2AA" fill-opacity="0.019607844" d="M791.467 242.74C791.638 242.651 791.81 242.562 791.982 242.473C794.841 247.492 814.181 255.452 818.202 264.987L816.985 265.292C811.974 263.869 794.647 248.394 790.648 244.092L791.467 242.74Z"/><path fill="#0A545B" d="M919.329 173.11C922.488 165.796 928.057 157.917 932.437 151.082C952.449 119.862 979.937 93.7112 1014.82 79.8499C1023.99 76.1686 1033.4 73.149 1043 70.8144C1051.1 68.8893 1099.16 61.4063 1105.27 65.4288C1105.25 68.2374 1105.07 69.1513 1101.95 70.287C1081.75 77.6479 1064.68 88.4948 1046.53 99.9376C1054.97 100.854 1091.57 104.827 1095 113.549L1094.27 115.533C1087.12 117.392 1078.46 117.28 1071.04 117.669C1053.5 118.59 1032.77 118.516 1015.94 123.48C1029.52 126.236 1062.08 133.518 1070.7 144.402L1071.09 146.241C1070.64 146.661 1070.2 147.082 1069.75 147.502C1057.23 148.233 1045.94 146.672 1033.39 148.85C1016.68 151.754 1001.26 157.95 986.1 165.503C998.27 164.872 1036.68 163.577 1044.91 173.946L1044.82 175.747C1040.11 178.571 1027.53 178.918 1021.8 180.755C992.069 190.289 973.713 199.315 950.742 219.847C959.838 216.766 996.697 204.657 1004.19 210.359C1003.4 214.622 989.697 219.665 985.496 222.763C965.883 237.222 944.273 254.9 930.034 274.692C937.709 270.882 963.755 256.687 971.208 260.541C971.645 261.986 972.144 262.531 971.233 263.666C966.803 269.185 961.183 273.589 956.275 279.154C943.291 293.875 924.192 317.18 915.121 334.634C910.925 333.388 906.742 332.099 902.572 330.767C901.027 297.484 897.431 265.567 901.017 232.29C902.853 215.247 920.285 180.637 919.329 173.11Z"/><path fill="#21A181" d="M765.422 101.788C756.345 94.3161 748.541 90.3324 737.985 85.3667C734.108 83.5426 719.036 77.8385 716.683 75.8613C717.898 67.0403 754.814 70.3316 762.19 71.3124C802.071 76.6158 835.559 101.884 859.148 133.457C880.46 161.907 889.567 197.165 897.378 231.424C903.342 211.747 909.87 191.483 919.329 173.11C920.285 180.637 902.853 215.247 901.017 232.29C897.431 265.567 901.027 297.484 902.572 330.767C894.553 330.442 892.385 330.272 884.777 333.206C882.623 334.484 879.659 336.12 877.678 337.53C875.873 335.22 872.806 329.296 871.561 326.577C846.133 271.057 812.418 210.262 755.921 181.442C751.496 179.185 746.191 177.111 742.043 174.374L742.185 172.899C767.632 180.797 796.034 203.474 812.873 224.573C820.888 234.614 819.221 228.281 829.14 230.068C835.756 232.329 844.832 238.117 851.206 241.851C846.858 223.644 822.762 202.883 807.342 193.412C801.946 190.099 786.132 183.015 784.768 178.597C789.547 167.532 824.915 182.679 832.913 185.353C809.001 162.123 788.034 152.034 754.789 149.606C752.52 149.441 748.393 148.334 746.822 146.553C747.063 132.964 777.25 129.919 787.296 129.123C767.493 111.259 733.088 124.606 723.017 119.089C722.675 117.72 722.349 117.567 723.269 116.367C733.387 103.157 751.018 101.991 765.422 101.788ZM868.448 299.964C870.717 286.851 833.006 237.865 822.004 231.761C821.925 232.345 821.828 233.07 821.712 233.937C833.39 251.529 844.989 270.15 857.043 287.364C859.572 290.975 865.984 297.57 868.448 299.964ZM846.591 163.391C841.841 157.812 832.18 127.019 820.577 125.755C819.408 129.931 818.975 130.358 821.37 134.621C827.525 145.478 834.468 155.869 842.14 165.711C844.432 164.931 844.595 164.803 846.591 163.391ZM875.317 244.709L876.882 244.988C877.789 244.327 879.261 243.678 879.135 242.431C878.35 234.717 872.012 212.036 865.823 207.934C866.612 205.379 868.176 201.997 865.39 199.911C863.433 201.356 860.418 203.142 859.554 205.197C860.683 212.189 861.665 214.247 868.007 217.809C867.878 218.317 866.749 222.513 866.679 222.309C868.883 228.691 872.168 234.598 872.635 241.309L875.317 244.709ZM796.449 106.402C797.555 101.238 796.518 96.1346 790.513 95.4475C789.039 99.6223 789.024 98.0833 789.736 102.357C791.92 105.287 792.795 105.836 796.449 106.402Z"/><path fill="#71B495" fill-opacity="0.98823529" d="M820.577 125.755C832.18 127.019 841.841 157.812 846.591 163.391C844.595 164.803 844.432 164.931 842.14 165.711C834.468 155.869 827.525 145.478 821.37 134.621C818.975 130.358 819.408 129.931 820.577 125.755Z"/><path fill="#71B495" fill-opacity="0.98823529" d="M865.39 199.911C868.176 201.997 866.612 205.379 865.823 207.934C872.012 212.036 878.35 234.717 879.135 242.431C879.261 243.678 877.789 244.327 876.882 244.988L875.317 244.709L872.635 241.309C872.168 234.598 868.883 228.691 866.679 222.309C866.749 222.513 867.878 218.317 868.007 217.809C861.665 214.247 860.683 212.189 859.554 205.197C860.418 203.142 863.433 201.356 865.39 199.911Z"/><path fill="#C0CCB8" fill-opacity="0.023529412" d="M790.513 95.4475C796.518 96.1346 797.555 101.238 796.449 106.402C792.795 105.836 791.92 105.287 789.736 102.357C789.024 98.0833 789.039 99.6223 790.513 95.4475Z"/><path fill="#71B495" d="M879.137 246.378C883.799 248.359 883.653 251.996 882.81 256.56C880.857 256.293 880.873 256.217 879.072 255.315C877.609 251.644 878.466 250.907 879.137 246.378Z"/><path fill="#21A181" d="M953.161 366.358C960.391 367.097 974.553 368.128 981.317 369.702C1013.38 377.164 1041.77 394.34 1062.48 419.844C1064.27 422.069 1066.02 424.33 1067.71 426.628C1067.92 423.258 1067.71 419.51 1069.6 416.965C1069.79 420.642 1070.37 425.204 1069.04 428.512L1067.72 429.181C1062.45 426.686 1055.66 415.666 1051.41 411.09C1031.51 389.665 1006.48 376.899 978.383 371.338C998.573 384.825 1013.15 393.878 1032.2 409.999C1083.96 453.786 1114.63 530.87 1076.64 593.152C1071.37 601.669 1041.28 638.757 1031.39 634.766C1030.22 629.483 1033.53 618.261 1034.97 612.836C1038.76 598.601 1041.49 583.332 1039.8 568.553C1028.96 577.841 1010.3 603.607 994.462 602.443C993.612 601.77 992.611 601.328 992.859 600.602C996.299 590.537 1005.55 576.167 1010.11 566.988C1016.09 554.98 1019.58 545.105 1023.04 532.926C1018.17 539.114 1004.63 557.66 998.12 559.438C994.874 555.844 1004.32 539.108 1006.09 534.671C1011.35 521.42 1015.3 510.071 1015.89 495.757C1012.23 500.601 1003.39 514.694 998.989 516.039C997.64 514.198 997.755 514.179 998.36 511.249C1003.17 487.962 1005.77 456.099 1000.4 432.686L999.79 429.552L998.905 429.288C997.785 432.926 997.43 434.566 996.851 438.333C995.235 445.05 989.922 470.488 983.302 471.857C981.566 468.772 981.286 460.596 981.262 456.798C981.062 425.133 977.271 404.382 956.11 379.357C952.48 372.292 956.657 374.243 953.161 366.358Z"/><path fill="#21A181" d="M921.268 338.324C948.868 297.157 992.199 257.137 1040.16 242.276C1089.1 227.537 1146.37 232.255 1192.2 254.904C1199.62 258.572 1237.26 283.116 1232.51 291.062C1232.7 291.04 1209.88 284.009 1207.74 283.382C1192.69 278.986 1178.69 276.817 1163.23 274.663C1171.55 281.776 1193.75 301.913 1187.76 313.962C1186.09 314.268 1184.92 314.743 1183.48 313.273C1165.9 295.417 1150.49 283.987 1126.3 277.783C1132.82 282.762 1158.32 304.51 1157.16 312.231C1151.52 312.331 1138.89 301.061 1132.17 298.094C1111.19 288.835 1087.51 281.333 1064.4 281.798C1074.37 287.188 1111.44 303.021 1111.99 313.874C1107.24 315.776 1090.59 306.903 1083.78 305.051C1056.63 297.664 1043.49 295.017 1015.55 296.405C1026.5 300.175 1062.16 309.003 1065.55 321.898C1063.39 324.448 1036.71 316.36 1029.98 316.265C1011.07 316 984.985 311.709 968.417 321.663C982.284 322.889 1010.63 321.42 1016.25 336.834C1014.23 337.259 1011.09 336.647 1008.87 336.425C985.397 331.457 951.751 339.349 930.287 348.969C928.186 345.855 926.411 342.713 923.005 341.246L921.268 338.324Z"/><path fill="#71B495" d="M1000.33 285.838C1003.57 287.404 1002.77 286.544 1004.56 289.062C1003.72 293.374 996.446 299.03 992.098 299.345C990.324 299.473 991.29 297.302 987.038 298.823L986.463 299.257L985.085 297.588C987.145 292.35 992.873 289.401 998.025 293.156C999.049 292.259 999.443 288.504 1000.16 286.344L1000.33 285.838Z"/><path fill="#21A181" d="M622.999 381.382C610.77 388.768 597.724 402.14 587.013 411.916C582.211 416.298 573.334 425.966 568.05 428.605L566.221 427.723C564.911 423.452 567.754 418.937 569.357 415.037C616.743 299.69 748.483 293.989 850.114 339.833C848.008 337.581 845.956 335.812 845.283 332.794C853.594 339.341 858.765 347.313 865.752 354.789L864.835 358.987C861.337 360.013 846.697 362.942 845.273 364.1C827.284 367.175 807.075 376.723 790.442 384.1C785.429 386.323 773.798 395.507 769.829 392.914C770.541 386.342 792.105 361.833 797.127 355.784C778.315 361.232 764.868 368.499 749.22 380.068C742.691 384.896 733.921 391.588 726.823 394.922C735.513 378.077 745.966 368.29 759.018 354.797C741.325 358.99 720.692 371.258 707.22 383.74C701.211 389.308 689.246 405.794 685.106 407.21L683.791 406.495C681.184 393.58 696.934 371.991 704.215 362.278C685.759 370.11 670.211 383.516 659.747 400.622C654.459 409.217 650.9 416.813 644.93 425.359C642.841 404.808 645.511 391.564 654.364 373.212C641.704 382.778 633.073 395.083 625.047 408.664C622.544 412.898 620.29 419.342 617.14 422.662L615.726 422.508C610.902 411.745 617.971 391.502 622.999 381.382ZM675.354 348.291C676.267 347.51 680.333 344.079 680.978 344.048C688.735 343.676 694.705 344.978 702.702 343.157L703.453 341.64C707.831 343.004 718.052 339.663 723.23 339.71C729.117 339.763 734.252 343.677 738.424 339.136C749.264 339.098 768.598 343.088 778.08 341.336C779.057 340.21 780.055 339.102 781.072 338.012C788.202 337.876 786.686 341.606 790.773 339.511C790.394 336.538 788.082 334.7 785.228 334.906C768.851 336.09 748.542 330.801 732.782 331.677L729.577 334.09C727.74 333.584 726.723 331.923 725.148 330.97C723.919 333.37 723.803 333.929 721.821 335.646C718.493 335.782 716.207 335.768 712.881 335.595C712.01 334.766 711.439 334.247 710.288 333.866C703.785 334.959 697.28 336.077 690.804 337.311C690.616 337.347 687.01 340.956 686.191 340.905C669.709 339.869 658.12 345.178 642.884 351.81L645.705 352.762L646.825 355.834C649.084 356.231 654.758 352.928 658.572 351.84C665.551 349.85 667.844 348.779 675.354 348.291Z"/><path fill="#71B495" fill-opacity="0.98823529" d="M725.148 330.97C726.723 331.923 727.74 333.584 729.577 334.09L732.782 331.677C748.542 330.801 768.851 336.09 785.228 334.906C788.082 334.7 790.394 336.538 790.773 339.511C786.686 341.606 788.202 337.876 781.072 338.012C780.055 339.102 779.057 340.21 778.08 341.336C768.598 343.088 749.264 339.098 738.424 339.136C734.252 343.677 729.117 339.763 723.23 339.71C718.052 339.663 707.831 343.004 703.453 341.64L702.702 343.157C694.705 344.978 688.735 343.676 680.978 344.048C680.333 344.079 676.267 347.51 675.354 348.291C667.844 348.779 665.551 349.85 658.572 351.84C654.758 352.928 649.084 356.231 646.825 355.834L645.705 352.762L642.884 351.81C658.12 345.178 669.709 339.869 686.191 340.905C687.01 340.956 690.616 337.347 690.804 337.311C697.28 336.077 703.785 334.959 710.288 333.866C711.439 334.247 712.01 334.766 712.881 335.595C716.207 335.768 718.493 335.782 721.821 335.646C723.803 333.929 723.919 333.37 725.148 330.97Z"/><path fill="#7D5034" d="M902.572 330.767C906.742 332.099 910.925 333.388 915.121 334.634L921.268 338.324L923.005 341.246C926.411 342.713 928.186 345.855 930.287 348.969C931.98 353.344 932.691 356.197 933.814 360.78L933.936 361.663L934.099 365.722C933.074 369.918 931.627 375.781 929.792 379.706C938.155 380.732 940.507 380.965 948.097 385.116L950.261 386.775C957.015 393.566 959.451 397.255 962.925 406.372C964.025 417.668 963.597 422.55 958.755 432.935C955.947 437.139 955.369 437.997 951.451 441.11C941.638 448.088 934.597 448.405 922.782 446.877L921.294 445.902C912.262 442.494 906.472 436.404 902.252 427.885L900.59 423.303L899.692 423.207C897.278 425.657 895.747 431.741 892.419 436.61C890.896 438.362 889.364 440.183 887.759 441.853C876.785 447.94 862.133 451.988 851.096 443.454C845.247 439.011 844.008 436.311 841.305 429.451L838.677 423.758C837.259 418.941 840.217 406.619 842.08 401.824C843.608 400.37 844.438 398.768 845.547 396.97C849.736 389.639 862.716 385.805 870.518 384.321C867.866 379.138 866.397 375.52 865.138 369.877L864.987 369.851L864.674 364.823L864.835 358.987L865.752 354.789C868.448 349.353 869.704 347.438 873.171 342.58L877.678 337.53C879.659 336.12 882.623 334.484 884.777 333.206C892.385 330.272 894.553 330.442 902.572 330.767Z"/><path fill="#804827" d="M865.138 369.877L865.619 367.983C867.58 366.01 868.41 366.583 871.831 366.261L871.601 369.2L868.841 371.445C869.555 372.702 873.166 376.098 873.104 375.799C874.924 384.524 869.068 385.282 873.72 394.223C873.482 397.661 874.027 402.247 872.479 404.369C869.434 404.426 868.098 403.029 865.958 402.284C864.968 401.938 865.79 404.261 861.629 403.054L860.951 401.264C862.108 399.035 861.414 399.561 863.408 398.884C866.131 399.979 866.36 400.621 868.815 399.999L870.33 397.907C868.186 393.346 851.117 395.092 847.186 397.829L845.547 396.97C849.736 389.639 862.716 385.805 870.518 384.321C867.866 379.138 866.397 375.52 865.138 369.877Z"/><path fill="#804827" d="M902.572 330.767C906.742 332.099 910.925 333.388 915.121 334.634L921.268 338.324L923.005 341.246L921.825 342.821C919.487 343.043 910.167 344.088 908.54 343.724C905.533 341.601 903.273 342.549 899.889 343.227L898.896 342.185C898.55 341.293 897.962 340.268 897.508 339.401C894.026 339.506 891.879 338.04 889.123 337.005C888.496 336.77 888.729 339.129 885.711 339.565C884.276 337.512 884.682 335.806 884.777 333.206C892.385 330.272 894.553 330.442 902.572 330.767Z"/><path fill="#804827" d="M946.863 395.334C947.068 390.075 947.259 390.179 950.261 386.775C957.015 393.566 959.451 397.255 962.925 406.372C962.54 410.265 961.466 414.498 956.483 413.995C954.621 412.132 954.875 412.945 954.78 410.806L957.216 408.452C954.939 406.055 953.812 405.29 955.117 402.146L958.178 400.915L958.288 400.12C954.848 398.16 953.053 399.958 948.259 399.561C946.526 397.714 947.048 398.474 946.863 395.334Z"/><path fill="#804827" d="M873.171 342.58C875.594 342.629 880.526 342.666 882.478 344.296L881.867 345.71C878.284 347.128 874.07 347.855 871.462 350.315C871.036 353.682 872.965 360.014 874.487 362.943L871.732 364.448L871.831 366.261C868.41 366.583 867.58 366.01 865.619 367.983L865.138 369.877L864.987 369.851L864.674 364.823L864.835 358.987L865.752 354.789C868.448 349.353 869.704 347.438 873.171 342.58Z"/><path fill="#8C4D27" d="M950.805 433.334L958.755 432.935C955.947 437.139 955.369 437.997 951.451 441.11C941.638 448.088 934.597 448.405 922.782 446.877L921.294 445.902C928.756 441.468 940.751 441.654 949.855 441.004C949.054 439.205 948.289 437.669 947.382 435.92L948.059 434.247L950.805 433.334Z"/><path fill="#804827" d="M840.754 420.068L842.038 419.27C843.215 422.281 845.994 421.147 847.369 424.883C846.439 427.03 847.184 426.212 844.904 427.261C847.455 430.45 851.378 428.359 853.256 431.645C853.77 432.544 852.318 434.707 854.36 437.188C854.191 440.345 854.403 442.011 851.096 443.454C845.247 439.011 844.008 436.311 841.305 429.451C842.906 424.628 843.8 424.329 840.754 420.068Z"/><path fill="#8C4D27" d="M927.196 368.286C929.729 368.499 930.57 368.037 931.859 366.136L930.746 361.824L931.525 360.703L933.814 360.78L933.936 361.663L934.099 365.722C933.074 369.918 931.627 375.781 929.792 379.706C927.359 380.192 924.06 381.126 921.582 381.753L921.182 380.503L920.671 381.205C924.973 376.186 926.022 378.063 929.313 374.956L928.201 374.124C926.491 374.304 925.242 374.526 923.725 373.677C919.067 371.066 919.397 374.948 913.469 375.988C911.304 374.832 912.059 375.663 911.096 373.441C914.164 370.833 922.609 370.166 927.196 368.286Z"/><path fill="#8C4D27" d="M845.547 396.97L847.186 397.829C849.948 398.945 850.531 398.611 851.803 400.796C848.355 403.441 846.076 402.373 845.561 404.709C847.729 406.264 849.26 407.25 851.538 408.612C849.099 412.308 838.856 409.264 839.919 419.012L840.754 420.068C843.8 424.329 842.906 424.628 841.305 429.451L838.677 423.758C837.259 418.941 840.217 406.619 842.08 401.824C843.608 400.37 844.438 398.768 845.547 396.97Z"/><path fill="#8C4D27" d="M908.54 343.724C902.901 348.71 903.366 344.432 900.656 344.739C898.318 345.004 895.8 347.388 891.3 347.073L890.289 345.905L890.703 343.706C892.979 341.893 895.797 342.27 898.896 342.185L899.889 343.227C903.273 342.549 905.533 341.601 908.54 343.724Z"/><path fill="#8C4D27" d="M948.097 385.116L950.261 386.775C947.259 390.179 947.068 390.075 946.863 395.334C944.455 389.406 943.517 389.409 948.097 385.116Z"/><path fill="#8C4D27" d="M902.939 383.666L903.822 384.213L905.897 387.22C904.237 387.776 903.171 388.257 901.402 388.287C900.938 390.6 900.385 392.622 900.493 394.972L896.545 394.182C894.439 392.284 895.066 392.395 894.788 388.913L894.063 389.462C892.533 388.955 893.012 389.095 891.954 387.257C893.121 383.576 897.809 386.677 902.939 383.666Z"/><path fill="#804827" d="M894.788 388.913C897.809 387.61 898.187 387.585 901.402 388.287C900.938 390.6 900.385 392.622 900.493 394.972L896.545 394.182C894.439 392.284 895.066 392.395 894.788 388.913Z"/><path fill="#8C4D27" d="M879.895 357.232C884.159 357.225 885.848 356.536 889.155 358.427L890.002 361.712L883.509 362.185C880.697 360.398 881.463 360.725 879.895 357.232Z"/><path fill="#8C4D27" d="M915.957 421.03C919.155 423.145 920.317 422.384 923.896 423.165L924.992 425.833C922.317 426.583 920.096 427.508 917.423 427.038C915.556 424.684 916.124 424.461 915.957 421.03Z"/><path fill="#8C4D27" d="M879.705 349.579C883.055 349.776 886.101 349.424 888.492 351.213L888.333 353.348C886.184 353.674 884.039 354.03 881.9 354.415L880.292 353.284L879.705 349.579Z"/><path fill="#8C4D27" d="M894.906 363.714C898.353 365.219 897.475 364.271 898.838 367.047C897.73 369.939 898.328 368.892 895.564 371.173C893.361 370.115 893.287 370.074 891.734 368.227C892.205 365.408 892.448 365.942 894.906 363.714Z"/><path fill="#8C4D27" d="M902.939 383.666L903.66 381.176C907.191 379.702 905.664 379.883 909.438 380.489L910.577 381.727C908.932 384.257 906.762 384.079 903.822 384.213L902.939 383.666Z"/><path fill="#FDFDFD" fill-opacity="0.015686275" d="M996.851 438.333C997.43 434.566 997.785 432.926 998.905 429.288L999.79 429.552L1000.4 432.686L999.622 438.274L998.53 439.023L996.851 438.333Z"/></svg>