<?xml version="1.0" encoding="utf-8" ?><svg xmlns="http://www.w3.org/2000/svg" xmlns:xlink="http://www.w3.org/1999/xlink" width="1792" height="1024" viewBox="0 0 1792 1024"><path fill="#D4C3B0" transform="scale(1.33333 1.33333)" d="M646.116 302.368C647.436 300.689 647.905 300.561 649.867 299.655C655.527 300.897 652.134 309.251 657.837 311.583C659.277 311.073 659.308 311.121 660.485 310.199C661.061 311.874 662.492 316.346 663.246 317.658L663.344 320.803C663.746 331.812 664.551 339.59 671.228 348.726C675.353 352.317 676.146 351.093 679.48 353.209C683.099 393.541 680.657 433.939 683.245 474.324C684.335 491.341 683.262 509.179 684.006 526.264C686.02 565.482 687.227 604.586 688.272 643.827C688.801 663.736 690.761 683.211 691.102 703.279C687.736 704.672 678.872 707.688 677.257 710.497L674.685 709.914C669.663 707.859 667.441 707.168 662.019 706.907L659.543 707.041C646.807 705.559 641.568 705.271 629.031 707.857L630.352 705.898C632.336 682.802 632.585 658.563 633.61 635.381C634.409 617.332 636.277 599.618 637.686 581.706C642.661 518.424 638.793 454.292 641.224 390.826C641.552 382.186 646.788 360.02 644.946 353.844C643.601 343.347 645.196 328.603 645.74 317.966C645.788 317.034 645.473 316.524 644.986 315.776C647.572 308.909 648.635 310.632 646.116 302.368Z"/><path fill="#50A7A1" transform="scale(1.33333 1.33333)" d="M659.543 707.041C659.142 704.293 658.642 702.68 659.872 700.213L660.836 699.652C662.405 701.366 662.253 701.739 662.14 704.502C662.106 705.304 662.066 706.106 662.019 706.907L659.543 707.041Z"/><path fill="#50A7A1" transform="scale(1.33333 1.33333)" d="M663.344 320.803C663.134 321.917 662.901 323.026 662.643 324.13C662.292 325.576 661.911 327.035 660.627 327.834L660.029 326.951C660.01 322.636 660.837 321.27 663.246 317.658L663.344 320.803Z"/><path fill="#50A7A1" transform="scale(1.33333 1.33333)" d="M657.043 570.162C659.474 571.841 657.092 586.94 655.928 589.447C652.388 586.474 654.66 573.589 657.043 570.162Z"/><path fill="#50A7A1" transform="scale(1.33333 1.33333)" d="M679.785 617.954C683.13 620.43 680.465 630.957 678.782 634.105C675.765 630.856 678.224 621.646 679.785 617.954Z"/><path fill="#50A7A1" transform="scale(1.33333 1.33333)" d="M640.562 608.679C641.684 609.102 641.59 609.146 642.266 610.164C642.775 613.91 642.979 620.214 641.659 623.79C637.493 620.09 639.31 613.324 640.562 608.679Z"/><path fill="#50A7A1" transform="scale(1.33333 1.33333)" d="M682.609 666.51C683.559 667.196 683.508 667.294 684.202 668.237C684.922 672.787 683.797 676.168 682.623 680.563C678.681 677.847 681.372 670.304 682.609 666.51Z"/><path fill="#50A7A1" transform="scale(1.33333 1.33333)" d="M647.883 556.942L648.997 558.041C649.706 562.089 649.802 567.424 649.065 571.469C644.59 568.756 646.533 561.037 647.883 556.942Z"/><path fill="#4FA4AC" transform="scale(1.33333 1.33333)" d="M649.499 427.216L649.895 427.675C650.4 429.984 646.882 439.137 645.893 442.426C642.011 438.456 646.893 430.793 649.499 427.216Z"/><path fill="#50A7A1" transform="scale(1.33333 1.33333)" d="M664.172 585.121C667.39 587.619 665.563 595.541 664.81 599.124C660.742 597.142 662.913 588.538 664.172 585.121Z"/><path fill="#50A7A1" transform="scale(1.33333 1.33333)" d="M678.098 549.13C681.51 551.098 680.125 559.716 679.136 562.878C675.481 560.86 677.092 552.543 678.098 549.13Z"/><path fill="#50A7A1" transform="scale(1.33333 1.33333)" d="M660.022 429.15L660.603 429.841C660.341 432.459 657.55 440.621 656.468 443.211C652.644 438.793 657.125 432.646 660.022 429.15Z"/><path fill="#50A7A1" transform="scale(1.33333 1.33333)" d="M671.732 410.008L672.458 410.79C671.854 413.378 669.146 420.318 668.046 424.402L666.895 423.291C665.851 418.425 668.256 413.335 671.732 410.008Z"/><path fill="#50A7A1" transform="scale(1.33333 1.33333)" d="M645.823 641.575C648.556 643.684 647.777 652.919 645.874 655.384L644.671 653.762C643.878 648.969 644.335 646.172 645.823 641.575Z"/><path fill="#50A7A1" transform="scale(1.33333 1.33333)" d="M679.785 645.411C683.531 647.611 681.74 655.078 680.812 658.535C676.959 655.945 679.07 649.413 679.785 645.411Z"/><path fill="#4FA4AC" transform="scale(1.33333 1.33333)" d="M668.908 560.866C669.568 561.303 669.854 561.711 670.391 562.299C671.056 566.492 670.781 569.915 669.284 573.895C665.798 570.928 667.745 564.548 668.908 560.866Z"/><path fill="#50A7A1" transform="scale(1.33333 1.33333)" d="M661.87 410.117C662.919 411.612 658.791 421.937 657.993 424.353C654.422 420.24 658.904 413.44 661.87 410.117Z"/><path fill="#4FA4AC" transform="scale(1.33333 1.33333)" d="M668.89 631.948C671.121 634.398 670.389 643.022 669.098 645.852C666.191 641.934 666.612 636.093 668.89 631.948Z"/><path fill="#50A7A1" transform="scale(1.33333 1.33333)" d="M677.412 573.267C677.815 573.553 678.443 574.235 678.819 574.613C679.203 578.785 678.152 581.733 676.898 585.722C672.955 583.678 676.137 576.269 677.412 573.267Z"/><path fill="#4FA4AC" transform="scale(1.33333 1.33333)" d="M664.567 365.919C664.907 366.117 665.384 366.653 665.693 366.961C664.521 370.983 663.302 374.991 662.038 378.986C660.884 378.187 660.847 377.763 660.338 376.465C660.384 371.845 661.992 369.759 664.567 365.919Z"/><path fill="#4FA4AC" transform="scale(1.33333 1.33333)" d="M676.502 363.263L677.418 363.684C678.056 365.603 673.286 370.593 672.125 376.623C671.474 376.589 671.383 376.437 670.731 376.131C669.695 371.96 673.853 366.183 676.502 363.263Z"/><path fill="#4FA4AC" transform="scale(1.33333 1.33333)" d="M652.096 348.168L652.983 348.667C653.314 350.653 649.92 356.889 649.394 362.61C649.138 362.654 648.384 362.469 648.08 362.411C646.642 358.296 649.736 351.535 652.096 348.168Z"/><path fill="#50A7A1" transform="scale(1.33333 1.33333)" d="M665.968 681.697C669.076 683.473 668.762 692.511 667.267 695.28L666.236 694.099C665.01 689.616 665.19 686.264 665.968 681.697Z"/><path fill="#50A7A1" transform="scale(1.33333 1.33333)" d="M644.397 684.889L645.927 686.224C646.84 689.608 647.341 694.071 646.408 697.488C645.951 697.202 645.239 696.545 644.801 696.17C643.455 692.217 643.062 688.922 644.397 684.889Z"/><path fill="#4FA4AC" transform="scale(1.33333 1.33333)" d="M652.039 403.472C654.287 405.1 651.378 413.958 650.578 416.526L649.665 416.074C647.75 412.762 649.951 406.384 652.039 403.472Z"/><path fill="#50A7A1" transform="scale(1.33333 1.33333)" d="M679.155 689.569C681.807 692.16 681.543 698.814 680.117 702.107C676.576 699.588 677.809 693.001 679.155 689.569Z"/><path fill="#50A7A1" transform="scale(1.33333 1.33333)" d="M677.312 486.195C678.161 486.857 678.414 487.279 679.095 488.105C679.988 492.057 678.976 494.683 677.827 498.503L676.419 496.992C675.536 493.222 676.414 489.92 677.312 486.195Z"/><path fill="#4FA4AC" transform="scale(1.33333 1.33333)" d="M666.805 444.119C667.991 444.843 667.592 444.342 668.019 445.686C666.916 448.78 665.344 455.199 664.048 457.12C661.049 454.411 664.758 446.792 666.805 444.119Z"/><path fill="#4FA4AC" transform="scale(1.33333 1.33333)" d="M655.196 459.89L655.948 460.691C656.039 463.496 653.743 470.082 652.703 472.775C649.328 469.346 652.941 462.999 655.196 459.89Z"/><path fill="#4FA4AC" transform="scale(1.33333 1.33333)" d="M661.051 521.405C661.803 521.783 661.887 521.967 662.53 522.541C663.234 526.011 663.218 530.529 661.912 533.855C658.336 530.05 659.876 525.914 661.051 521.405Z"/><path fill="#50A7A1" transform="scale(1.33333 1.33333)" d="M659.141 651.59L660.355 652.752C661.237 656.783 660.763 660.6 660.215 664.662C656.476 662.622 658.067 654.871 659.141 651.59Z"/><path fill="#50A7A1" transform="scale(1.33333 1.33333)" d="M665.552 609.433L666.955 610.586C667.94 614.741 667.203 618.405 666.43 622.56L665.084 621.205C664.272 617.402 664.304 613.135 665.552 609.433Z"/><path fill="#50A7A1" transform="scale(1.33333 1.33333)" d="M653.263 444.829C654.025 445.414 653.978 445.726 654.299 446.679C653.647 449.485 652.742 454.307 651.44 456.685C648.207 452.357 650.308 448.494 653.263 444.829Z"/><path fill="#50A7A1" transform="scale(1.33333 1.33333)" d="M656.974 547.088L658.416 548.3C659.374 552.217 658.999 555.701 658.317 559.645C657.869 559.323 657.114 558.525 656.687 558.104C655.635 554.084 656.088 551.119 656.974 547.088Z"/><path fill="#50A7A1" transform="scale(1.33333 1.33333)" d="M675.367 596.396L676.383 597.711C676.637 601.873 675.819 604.932 674.312 608.785C671.925 604.372 672.896 600.545 675.367 596.396Z"/><path fill="#4FA4AC" transform="scale(1.33333 1.33333)" d="M657.8 632.565C660.378 634.717 659.921 642.084 658.101 644.762L656.987 643.271C656.227 639.352 656.321 636.324 657.8 632.565Z"/><path fill="#50A7A1" transform="scale(1.33333 1.33333)" d="M649.26 535.39C650.616 538.527 650.487 544.769 648.014 547.513C646.028 543.726 646.4 538.662 649.26 535.39Z"/><path fill="#50A7A1" transform="scale(1.33333 1.33333)" d="M651.096 620.008L652.314 621.331C652.852 624.875 653.079 629.761 651.387 633.006C649.015 628.964 649.816 624.296 651.096 620.008Z"/><path fill="#4FA4AC" transform="scale(1.33333 1.33333)" d="M654.897 364.028L655.659 364.448C656.211 366.717 654.195 372.206 653.476 375.189C649.008 372.991 653.002 366.559 654.897 364.028Z"/><path fill="#50A7A1" transform="scale(1.33333 1.33333)" d="M645.985 589.721C646.722 590.076 646.811 590.259 647.445 590.808C648.245 594.376 648.107 598.827 647.479 602.424L646.078 601.041C644.725 596.77 645.235 594.128 645.985 589.721Z"/><path fill="#50A7A1" transform="scale(1.33333 1.33333)" d="M669.535 428.352C670.942 431.032 668.075 438.882 666.938 441.719C665.051 436.863 666.636 432.432 669.535 428.352Z"/><path fill="#4FA4AC" transform="scale(1.33333 1.33333)" d="M648.24 476.234L648.742 476.5C649.685 478.13 647.234 487.356 646.673 490.003C645.837 489.389 645.95 489.337 645.369 488.391C645.04 483.518 646.314 480.708 648.24 476.234Z"/><path fill="#50A7A1" transform="scale(1.33333 1.33333)" d="M677.576 379.245C678.007 379.718 678.046 380.054 678.309 380.702C677.564 383.452 675.114 387.521 673.673 390.146C672.97 389.497 672.977 389.207 672.574 388.286C672.86 384.538 675.232 382.052 677.576 379.245Z"/><path fill="#4FA4AC" transform="scale(1.33333 1.33333)" d="M665.065 461.207L665.809 462.169C664.522 465.795 663.554 470.412 662.722 474.227C659.093 471.176 662.996 464.177 665.065 461.207Z"/><path fill="#50A7A1" transform="scale(1.33333 1.33333)" d="M676.09 460.531L677.303 461.206C677.518 463.354 674.965 466.668 674.283 471.401C670.386 468.869 673.926 463.024 676.09 460.531Z"/><path fill="#4FA4AC" transform="scale(1.33333 1.33333)" d="M650.623 516.449L651.352 517.437C651.848 520.508 651.932 525.715 650.724 528.588L649.378 526.912C648.435 522.615 648.696 520.406 650.623 516.449Z"/><path fill="#4FA4AC" transform="scale(1.33333 1.33333)" d="M653.976 331.907L654.525 332.421C654.97 334.195 651.713 340.918 650.807 344.264C649.945 343.553 650.229 343.762 649.69 342.664C649.96 337.764 651.138 335.929 653.976 331.907Z"/><path fill="#4FA4AC" transform="scale(1.33333 1.33333)" d="M655.007 381.71C656.343 383.85 653.715 391.577 652.589 393.872C650.016 389.966 652.431 384.952 655.007 381.71Z"/><path fill="#4FA4AC" transform="scale(1.33333 1.33333)" d="M662.941 490.754C666.442 492.795 665.452 499.218 665.184 502.695L663.91 502.049C662.559 498.87 662.803 494.162 662.941 490.754Z"/><path fill="#50A7A1" transform="scale(1.33333 1.33333)" d="M668.29 506.278L669.397 506.751C670.994 509.034 669.947 514.355 669.565 517.047L668.094 515.837C666.717 512.24 667.371 509.971 668.29 506.278Z"/><path fill="#50A7A1" transform="scale(1.33333 1.33333)" d="M666.182 541.845L667.472 542.898C668.588 546.606 668.227 549.292 667.368 553.039L666.016 552.024C664.725 548.596 665.539 545.386 666.182 541.845Z"/><path fill="#50A7A1" transform="scale(1.33333 1.33333)" d="M674.175 528.625L675.453 529.431C676.092 532.77 675.379 535.953 674.468 539.182L673.044 537.91C672.047 534.376 672.738 531.902 674.175 528.625Z"/><path fill="#50A7A1" transform="scale(1.33333 1.33333)" d="M669.513 397.447L670.434 398.522C669.809 401.828 669.708 405.542 668.382 408.434C667.592 407.755 667.393 407.4 666.762 406.587C666.423 402.952 667.383 400.379 669.513 397.447Z"/><path fill="#50A7A1" transform="scale(1.33333 1.33333)" d="M654.311 600.873L655.619 602.027C656.79 605.404 656.415 608.024 655.684 611.46L654.094 610.185C652.863 606.701 653.55 604.387 654.311 600.873Z"/><path fill="#50A7A1" transform="scale(1.33333 1.33333)" d="M665.659 382.917C666.686 383.376 666.313 383.158 667.099 384.046C667.029 386.827 665.584 390.194 664.603 392.894L663.308 391.557C662.72 387.767 663.718 386.082 665.659 382.917Z"/><path fill="#4FA4AC" transform="scale(1.33333 1.33333)" d="M661.446 351.99C662.617 352.337 662.549 352.282 663.321 353.224C663.424 355.709 661.938 359.213 661.067 361.684C659.966 361.271 660.349 361.398 659.471 360.368C659.123 357.859 660.581 354.506 661.446 351.99Z"/><path fill="#50A7A1" transform="scale(1.33333 1.33333)" d="M670.202 661.94C670.618 662.172 671.319 662.778 671.722 663.101C672.572 665.95 672.012 669.11 671.704 672.1L669.94 670.941C668.53 667.685 669.402 665.325 670.202 661.94Z"/><path fill="#4FA4AC" transform="scale(1.33333 1.33333)" d="M655.369 315.31C656.307 315.741 655.959 315.54 656.657 316.414C656.39 319.26 654.365 322.55 652.996 325.171L652.062 324.786C651.221 321.469 653.618 318.27 655.369 315.31Z"/><path fill="#4FA4AC" transform="scale(1.33333 1.33333)" d="M656.633 474.36C657.706 477.173 655.881 483.655 653.98 485.942C652.655 481.003 653.725 478.288 656.633 474.36Z"/><path fill="#4FA4AC" transform="scale(1.33333 1.33333)" d="M665.952 476.327L666.49 476.836C666.849 478.327 664.016 484.78 663.231 487.415L662.086 486.052C661.766 481.807 663.593 479.808 665.952 476.327Z"/><path fill="#4FA4AC" transform="scale(1.33333 1.33333)" d="M645.89 499.355L646.769 500.413C647.525 503.581 647.901 507.177 646.17 510.067C643.441 506.512 644.562 503.145 645.89 499.355Z"/><path fill="#4FA4AC" transform="scale(1.33333 1.33333)" d="M647.773 460.542L648.179 462.126C647.587 464.348 646.131 471.393 644.88 472.627L644.155 471.744C644.461 467.208 645.232 464.326 647.773 460.542Z"/><path fill="#50A7A1" transform="scale(1.33333 1.33333)" d="M677.165 475.01C677.432 475.263 677.682 475.84 677.878 476.206C676.777 479.064 675.642 481.908 674.474 484.738C670.939 481.743 674.868 477.266 677.165 475.01Z"/><path fill="#50A7A1" transform="scale(1.33333 1.33333)" d="M646.221 663.925C649.11 666.045 647.912 671.463 647.506 674.588L646.256 673.945C644.87 670.852 645.699 667.219 646.221 663.925Z"/><path fill="#50A7A1" transform="scale(1.33333 1.33333)" d="M677.669 512.129L679.314 513.233C680.506 516.24 679.734 518.413 678.956 521.453C677.678 521.029 678.271 521.361 677.268 520.206C676.658 517.129 677.16 515.241 677.669 512.129Z"/><path fill="#50A7A1" transform="scale(1.33333 1.33333)" d="M658.992 394.907C660.564 397.167 659.045 402.578 658.565 406.07C655.942 402.212 656.457 398.617 658.992 394.907Z"/><path fill="#4FA4AC" transform="scale(1.33333 1.33333)" d="M656.56 488.2L657.324 489.363C656.897 492.2 655.359 495.149 654.148 497.799L653.266 496.817C652.902 493.073 654.424 491.074 656.56 488.2Z"/><path fill="#4FA4AC" transform="scale(1.33333 1.33333)" d="M657.458 504.403C659.635 507.162 659.062 511.136 657.976 514.207C655.449 510.856 655.787 507.998 657.458 504.403Z"/><path fill="#4FA4AC" transform="scale(1.33333 1.33333)" d="M648.534 377.183C649.084 379.358 645.878 386.079 644.841 389.476C643.44 385.321 645.954 380.365 648.534 377.183Z"/><path fill="#4FA4AC" transform="scale(1.33333 1.33333)" d="M661.715 337.124C663.113 339.905 661.551 343.776 659.715 346.018C657.82 342.374 659.644 340.035 661.715 337.124Z"/><path fill="#50A7A1" transform="scale(1.33333 1.33333)" d="M675.331 425.727C676.824 428.783 676.626 430.105 675.52 433.138L674.62 432.249C674.01 429.858 674.7 428.123 675.331 425.727Z"/><path fill="#ABBFB9" transform="scale(1.33333 1.33333)" d="M644.301 446.652C645.927 449.154 644.671 452.056 643.969 454.783C642.58 452.373 643.686 449.376 644.301 446.652Z"/><path fill="#0D957A" transform="scale(1.33333 1.33333)" d="M764.483 204.728C768.144 196.817 770.619 193.203 779.304 189.36C783.184 187.643 799.487 186.01 802.984 187.031L803.684 187.814C802.698 194.078 784.062 206.082 783.446 212.05C787.137 214.197 792.589 209.018 797.016 207.805C803.249 198.599 809.559 193.535 820.792 191.638C827.168 190.561 844.045 187.686 849.7 190.757L849.942 191.894C847.781 194.791 835.364 206.423 831.764 208.567C828.45 210.54 822.306 210.247 819.768 214.605C821.004 216.806 830.585 215.68 833.307 215.582C836.999 211.934 838.941 210.114 844.198 209.476C856.221 208.016 866.91 208.546 876.924 215.662C869.466 220.905 864.135 223.023 855.439 225.746C852.815 226.568 847.884 228.006 845.697 229.171L845.69 230.056C847.682 231.191 853.516 231.22 855.165 230.06C865.692 222.659 893.919 238.69 895.37 249.712C891.741 253.929 875.056 251.782 868.996 252.449C873.749 256.261 883.07 263.52 884.521 269.555C883.009 275.34 867.969 273.806 863.646 272.381C857.155 270.242 856.991 258.507 848.269 260.56L847.624 261.239C848.851 273.428 847.178 272.347 845.462 283.157C835.771 278.35 830.428 272.598 828.37 261.928C821.039 256.686 822.667 254.947 821.502 246.916C819.65 245.149 816.968 242.522 814.393 242.037C809.617 245.16 820.909 264.709 813.82 273.835C813.039 274.083 812.497 274.317 811.685 274.391C809.221 273.653 806.415 271.812 804.146 270.461C806.813 268.019 807.497 268.739 808.625 265.129C805.959 264.245 799.816 263.318 796.883 262.835L797.02 261.638C795.734 259.89 792.662 256.612 791.911 255.125C786.118 243.648 789.36 235.95 772.389 239.928C778.34 249.122 780.842 251.461 776.279 262.124C774.115 262.852 773.444 263.156 771.079 263.176L770.556 262.34C762.828 256.198 753.998 253.962 749.716 242.301C744.331 240.804 741.918 240.459 736.347 239.728C740.439 245.401 742.331 248.626 742.258 255.593L742.463 256.079C739.605 257.13 731.151 257.79 728.136 257.595C723.26 259.238 717.576 261.491 712.585 261.893L711.877 261.891C710.908 263.598 709.998 264.624 710.754 266.699C712.151 268.739 712.61 268.452 715.33 268.692C715.073 269.066 713.84 270.816 713.713 271.104L711.466 276.894C710.987 284.96 712.121 296.139 713.5 304.219C710.442 303.227 700.865 299.575 698.606 299.724L697.745 300.525C697.854 303.883 698.32 305.172 696.582 308.001C700.427 317.425 708.088 325.69 703.717 337.506C703.244 338.785 700.254 344.105 699.33 344.709C692.606 354.192 690.861 355.736 679.48 353.209C676.146 351.093 675.353 352.317 671.228 348.726C664.551 339.59 663.746 331.812 663.344 320.803L663.246 317.658C662.492 316.346 661.061 311.874 660.485 310.199C659.308 311.121 659.277 311.073 657.837 311.583C652.134 309.251 655.527 300.897 649.867 299.655C647.905 300.561 647.436 300.689 646.116 302.368C646.862 298.226 646.172 291.869 645.67 287.705L645.653 287.077C644.997 284.369 644.431 280.328 643.942 277.486C641.092 278.6 637.29 279.882 634.887 281.633C634.116 281.934 633.719 281.983 633.147 282.492L632.449 282.44L633.098 281.287C636.274 279.282 634.214 273.86 635.938 270.388C640.839 260.517 648.668 257.311 657.585 252.633L658.693 253.269L658.781 250.839L659.631 250.08L658.876 251.366L659.641 249.759C660.182 251.768 660.634 254.286 661.788 255.886C661.911 254.202 661.239 254.333 661.893 251.815L663.159 251.133C666.064 251.685 666.955 251.885 669.907 251.623L670.533 251.563C671.762 251.966 671.67 251.973 672.928 251.69L672.04 249.82C669.839 247.885 666.513 248.917 664.401 247.215L664.902 246.611C665.328 241.916 681.906 222.966 686.297 219.045C688.567 216.435 690.359 214.656 691.688 211.41L691.901 211.768C692.76 213.191 692.887 213.371 694.033 214.541C694.762 219.668 693.318 220.645 690.97 225.402C694.017 225.213 699.353 225.052 701.503 227.637C702.043 226.083 702.344 225.603 703.173 224.165C705.498 223.299 705.426 223.739 708.258 224.271C708.543 227.047 708.516 228.204 709.909 230.632L711.901 232.104C716.92 230.43 721.975 228.622 727.141 227.502L728.084 225.7L731.638 217.926C733.083 214.224 739.571 207.689 742.947 206.009C743.234 208.054 743.14 208.345 744.5 209.742C746.72 210.192 747.497 209.674 749.278 209.887L747.741 212.047L747.999 213.058C751.42 213.775 754.632 211.328 757.647 209.373C759.946 207.855 762.225 206.307 764.483 204.728Z"/><path fill="#F8A227" transform="scale(1.33333 1.33333)" d="M660.485 310.199C659.5 300.759 659.179 292.954 666.633 285.98C668.695 284.051 670.466 282.587 671.432 279.84L672.622 279.441C674.61 280.556 675.258 280.519 677.46 280.552L678.115 280.558C678.835 280.839 680.711 281.619 681.354 281.75C688.103 286.455 692.171 299.613 696.582 308.001C700.427 317.425 708.088 325.69 703.717 337.506C703.244 338.785 700.254 344.105 699.33 344.709C692.606 354.192 690.861 355.736 679.48 353.209C676.146 351.093 675.353 352.317 671.228 348.726C664.551 339.59 663.746 331.812 663.344 320.803L663.246 317.658C662.492 316.346 661.061 311.874 660.485 310.199Z"/><path fill="#F6B657" transform="scale(1.33333 1.33333)" d="M669.996 327.934C672.055 329.13 672.102 331.018 674.086 332.532C674.003 332.469 675.307 332.005 676.86 332.392C677.363 336.48 674.575 334.549 677.63 339.663C676.966 340.296 676.23 340.924 675.541 341.537C669.01 340.975 667.296 332.634 669.996 327.934Z"/><path fill="#F7A730" transform="scale(1.33333 1.33333)" d="M672.357 348.059C672.464 346.876 672.477 346.961 673.193 345.999C678.085 346.129 678.72 345.624 683.294 344.648C684.356 345.422 684.652 345.491 685.957 345.679L685.283 348.808L685.011 348.206C679.586 349.478 677.512 350.071 672.357 348.059Z"/><path fill="#F2CE98" transform="scale(1.33333 1.33333)" d="M696.316 318.68C697.484 318.912 697.62 319.113 698.593 319.773C700.928 323.598 700.144 325.47 699.18 329.871L698.698 329.67C697.9 327.775 696.813 321.124 696.316 318.68Z"/><path fill="#35A788" transform="scale(1.33333 1.33333)" d="M685.957 345.679C689.178 347.894 688.867 348.106 692.741 346.162C692.218 348.229 691.908 348.517 690.547 350.186C688.345 351.083 689.225 351.044 687.134 350.601L685.283 348.808L685.957 345.679Z"/><path fill="#A3C1B4" transform="scale(1.33333 1.33333)" d="M791.341 221.061C799.574 215.218 808.764 209.166 816.86 202.988C819.566 200.923 831.349 195.718 834.493 194.327C826.954 202.003 824.421 199.37 817.695 204.239C809.652 210.062 802.217 215.47 793.726 220.95C822.797 224.788 843.963 236.366 864.127 258.713C864.547 259.179 866.068 261.165 866.004 261.744C863.349 261.56 850.95 249.242 847.85 246.674C844.312 243.753 840.622 241.022 836.793 238.494C808.813 220.044 775.804 219.076 743.877 225.683C731.594 227.458 720.498 231.653 708.742 235.376C707.291 235.836 704.818 236.115 703.319 236.238C705.939 234.849 709.142 233.005 711.901 232.104C716.92 230.43 721.975 228.622 727.141 227.502C745.451 222.071 772.085 217.858 791.341 221.061Z"/><path fill="#D4C3B0" transform="scale(1.33333 1.33333)" d="M645.653 287.077C646.493 285.646 647.51 283.599 647.142 282.036C644.919 272.596 649.74 277.111 654.283 269.89L658.397 273.347C652.038 279.006 650.167 281.284 650.046 290.053C648.594 289.731 646.974 288.535 645.67 287.705L645.653 287.077Z"/><path fill="#0F6157" transform="scale(1.33333 1.33333)" d="M679.426 264.519C677.548 261.758 673.256 258.274 672.925 256.42L673.868 256.176C681.277 261.534 682.677 265.274 684.684 273.941C690.123 276.542 705.146 286.967 708.818 291.581L708.458 291.896C699.629 286.834 696.15 281.695 684.659 275.749C685.157 277.547 686.588 281.706 686.089 283.214L685.35 282.351C682.546 276.161 682.259 267.913 679.426 264.519Z"/><path fill="#1D5B60" transform="scale(1.33333 1.33333)" d="M686.297 219.045L686.825 219.707C680.124 227.25 674.825 232.06 670.78 241.258C673.507 240.96 676.34 240.456 678.975 241.118L678.868 241.833C674.178 243.771 668.441 244.685 664.902 246.611C665.328 241.916 681.906 222.966 686.297 219.045Z"/><path fill="#0A8A71" transform="scale(1.33333 1.33333)" d="M679.426 264.519C682.259 267.913 682.546 276.161 685.35 282.351L681.354 281.75C680.711 281.619 678.835 280.839 678.115 280.558C677.466 277.644 676.85 277.847 673.994 275.944C675.086 274.187 674.436 274.665 676.3 274.121C674.756 273.221 675.263 273.837 674.579 272.35L675.712 271.096L678.618 272.867L679.596 272.603C680.696 269.762 680.047 267.445 679.426 264.519Z"/><path fill="#0B464F" transform="scale(1.33333 1.33333)" d="M690.97 225.402C694.017 225.213 699.353 225.052 701.503 227.637C700.216 228.318 697.683 229.628 696.783 230.71C692.818 231.619 691.047 232.67 687.492 234.502L684.217 234.741L683.852 233.695C686.507 231.709 688.922 228.12 690.97 225.402Z"/><path fill="#06846F" transform="scale(1.33333 1.33333)" d="M691.688 211.41L691.901 211.768C692.76 213.191 692.887 213.371 694.033 214.541C694.762 219.668 693.318 220.645 690.97 225.402C688.922 228.12 686.507 231.709 683.852 233.695C684.163 230.573 684.236 230.431 686.006 228.251L685.931 229.127C687.844 226.059 690.455 222.859 688.931 219.143L686.825 219.707L686.297 219.045C688.567 216.435 690.359 214.656 691.688 211.41Z"/><path fill="#0F6157" transform="scale(1.33333 1.33333)" d="M658.693 253.269L658.781 250.839L659.631 250.08L658.876 251.366L659.641 249.759C660.182 251.768 660.634 254.286 661.788 255.886C662.518 258.585 664.785 259.107 666.141 262.121C670.882 272.65 665.239 275.485 660.5 284.082C658.786 287.19 658.928 289.967 657.841 293.025C655.519 279.152 672.843 274.437 663.799 261.716C661.79 258.892 660.367 256.252 658.693 253.269Z"/><path fill="#EEE9E4" transform="scale(1.33333 1.33333)" d="M712.585 261.893C710.562 260.326 710.628 260.907 710.245 258.989C712.934 256.244 718.173 258.305 720.264 253.902C723.349 255.655 724.813 256.313 728.136 257.595C723.26 259.238 717.576 261.491 712.585 261.893Z"/><path fill="#0A8A71" transform="scale(1.33333 1.33333)" d="M708.949 271.363C706.796 268.772 703.635 265.473 706.075 262.348C708.729 261.406 709.155 261.502 711.877 261.891C710.908 263.598 709.998 264.624 710.754 266.699C712.151 268.739 712.61 268.452 715.33 268.692C715.073 269.066 713.84 270.816 713.713 271.104C711.561 271.553 711.1 271.71 708.949 271.363Z"/><path fill="#A3C1B4" transform="scale(1.33333 1.33333)" d="M731.638 217.926C733.083 214.224 739.571 207.689 742.947 206.009C742.234 209.295 735.267 214.407 733.547 218.376C732.298 221.255 730.845 224.209 728.084 225.7L731.638 217.926Z"/><path fill="#EEE9E4" transform="scale(1.33333 1.33333)" d="M697.697 269.529L708.949 271.363C711.1 271.71 711.561 271.553 713.713 271.104L711.466 276.894C707.212 274.018 702.321 271.803 697.697 269.529Z"/><path fill="#06846F" transform="scale(1.33333 1.33333)" d="M808.625 265.129C808.103 267.896 810.431 271.017 811.685 274.391C809.221 273.653 806.415 271.812 804.146 270.461C806.813 268.019 807.497 268.739 808.625 265.129Z"/><path fill="#EEE9E4" transform="scale(1.33333 1.33333)" d="M687.492 234.502C691.047 232.67 692.818 231.619 696.783 230.71C694.941 233.502 689.899 235.633 686.745 236.3C686.896 234.982 686.664 235.565 687.492 234.502Z"/><path fill="#ABBFB9" transform="scale(1.33333 1.33333)" d="M789.865 225.604C801.143 227.754 800.232 235.664 801.255 244.567C801.264 244.645 804.221 246.996 804.454 248.191C805.6 254.097 806.326 256.497 809.674 261.526C804.45 262.793 802.685 251.648 801.851 248.167L798.522 244.994C799.788 233.463 798.93 232.587 789.865 225.604Z"/><path fill="#ABBFB9" transform="scale(1.33333 1.33333)" d="M827.654 240.679C832.792 243.598 841.173 268.743 842.444 275.108C837.201 271.184 833.224 253.005 830.548 246.928C829.655 244.901 828.603 242.703 827.654 240.679Z"/><path fill="#A3C1B4" transform="scale(1.33333 1.33333)" d="M751.087 225.052C753.842 225.979 757.672 229.092 760.149 230.907L760.695 238.642C764.556 243.817 766.938 243.575 767.633 250.465L766.592 250.243C764.768 246.319 761.443 242.924 758.584 239.638C758.626 227.67 754.804 233.079 751.087 225.052Z"/><path fill="#1D5B60" transform="scale(1.33333 1.33333)" d="M686.349 244.111C692.713 243.71 706.281 247.94 710.555 252.471L710.089 253.351C704.149 250.494 695.797 246.029 689.044 246.386C688.283 246.426 686.565 246.975 685.894 246.062L686.349 244.111Z"/><path fill="#A3C1B4" transform="scale(1.33333 1.33333)" d="M784.867 194.948L785.415 195.673C785.387 195.725 765.004 217.004 763.214 218.946L762.831 218.656L762.795 217.603C771.145 207.458 774.77 203.3 784.867 194.948Z"/><path fill="#ABBFB9" transform="scale(1.33333 1.33333)" d="M851.21 239.152C857.685 238.415 876.088 237.694 879.094 244.786C875.124 244.26 872.418 241.471 868.722 240.54C863.189 239.146 855.873 243.13 851.21 239.152Z"/><path fill="#A3C1B4" transform="scale(1.33333 1.33333)" d="M852.598 216.795C852.825 216.827 853.141 217.098 853.37 217.255C851.782 218.577 829.612 226.016 826.339 226.639L825.289 226.141C826.754 224.977 849.653 217.364 852.598 216.795Z"/><path fill="#A3C1B4" transform="scale(1.33333 1.33333)" d="M714.001 235.158C723.68 233.857 725.87 243.046 731.475 250.178C729.832 249.728 726.521 247.434 724.908 246.406C722.382 238.233 722.319 238.378 714.001 235.158Z"/><path fill="#1D5B60" transform="scale(1.33333 1.33333)" d="M674.817 253.052C679.212 252.443 692.675 251.823 695.472 255.042C691.819 255.343 678.012 254.452 674.817 253.052Z"/><path fill="#0F6157" transform="scale(1.33333 1.33333)" d="M702.072 236.974C703.066 236.779 703.225 236.935 704.227 237.199C703.429 238.1 694.191 240.943 691.452 242.227L690.324 242.567C692.462 240.152 699.001 237.85 702.072 236.974Z"/><path fill="#1D5B60" transform="scale(1.33333 1.33333)" d="M684.881 265.548C688.779 264.784 690.712 264.592 694.307 266.195C690.956 266.648 687.957 267.016 684.881 265.548Z"/><path fill="#35A788" transform="scale(1.33333 1.33333)" d="M783.784 233.415C786.698 232.832 788.642 231.906 790.877 234.069C788.579 234.348 785.662 234.726 783.784 233.415Z"/><path fill="#0B464F" transform="scale(1.33333 1.33333)" d="M592.793 254.663C605.597 251.421 601.992 250.61 617.257 251.697C615.492 253.628 614.873 253.65 614.5 255.896C617.176 258.329 621.217 257.352 624.946 257.644C626.648 257.392 626.601 257.083 627.632 257.797C630.34 258.884 630.946 258.625 632.505 260.611C633.016 263.629 630.727 266.893 630.083 271.593L629.911 273.044C630.29 276.296 629.593 279.768 630.827 281.585L632.449 282.44L633.147 282.492C633.719 281.983 634.116 281.934 634.887 281.633C637.29 279.882 641.092 278.6 643.942 277.486C644.431 280.328 644.997 284.369 645.653 287.077L645.67 287.705C646.172 291.869 646.862 298.226 646.116 302.368C648.635 310.632 647.572 308.909 644.986 315.776C645.473 316.524 645.788 317.034 645.74 317.966C645.196 328.603 643.601 343.347 644.946 353.844L641.955 354.716C641.687 358.506 641.039 361.564 639.448 365.058C632.77 383.186 611.07 384.21 601.752 367.699C596.268 357.982 598.866 351.755 601.474 341.923C600.669 342.568 597.856 344.758 597.105 344.923C589.14 346.678 584.572 333.05 583.099 328.084C581.603 323.043 582.068 318.684 582.178 314.297L575.593 319.144C575.19 321.654 574.748 324.158 574.268 326.655C580.03 336.315 581.169 340.867 580.614 352.462C580.324 358.508 574.569 371.534 567.519 370.354C560.309 365.585 560.576 348.994 555.936 347.153C552.851 348.813 551.461 352.823 550.077 355.968C552.162 371.883 554.849 370.798 548.531 387.237C546.499 388.142 543.882 389.864 541.924 391.071C534.843 382.166 534 378.512 531.388 367.577C527.948 370.113 526.413 372.592 524.439 376.266C524.647 379.174 525.058 382.341 524.373 385.139C522.572 387.814 502.175 399.483 498.37 401.466C492.104 400.053 494.388 390.901 495.039 386.095C496.034 378.762 499.381 372.305 504.102 366.65C498.683 367.765 490.535 368.975 485.028 368.964C479.57 365.482 487.683 356.907 489.083 354.025C492.258 347.489 513.376 339.576 515.376 336.469C509.59 335.045 492.465 341.043 490.297 333.516C492.008 323.518 514.127 314.74 523.419 312.614C528.76 311.392 538.639 311.464 542.202 307.841L542.168 306.684C536.121 302.946 522.129 307.105 517.682 302.245L517.944 300.618C524.648 291.339 548.09 286.79 559.375 284.44C564.119 283.452 570.179 286.34 573.311 284.259L573.351 283.054C567.425 278.853 543.127 286.346 540.522 279.488C541.649 276.921 545.838 274.464 548.336 272.975C551.832 271.067 559.439 268.695 561.325 266.862C572.098 262.619 573.637 264.646 584.87 264.3C586.718 264.243 587.066 263.25 588.229 261.861L589.25 259.455C590.635 257.981 592.386 256.521 592.793 254.663ZM610.366 304.098C608.626 301.722 605.892 298.398 603.121 301.231C598.373 306.087 603.14 313.822 605.256 317.848L606.313 317.577C607.823 316.159 608.627 308.312 610.366 304.098Z"/><path fill="#F8A227" transform="scale(1.33333 1.33333)" d="M623.541 297.818C633.841 299.114 636.041 304.503 637.662 314.13C640.525 315.6 641.818 316.832 644.986 315.776C645.473 316.524 645.788 317.034 645.74 317.966C645.196 328.603 643.601 343.347 644.946 353.844L641.955 354.716C641.687 358.506 641.039 361.564 639.448 365.058C632.77 383.186 611.07 384.21 601.752 367.699C596.268 357.982 598.866 351.755 601.474 341.923C602.335 334.353 607.809 330.479 605.256 317.848L606.313 317.577C607.823 316.159 608.627 308.312 610.366 304.098C614.493 300.826 616.211 299.432 621.334 298.425L623.541 297.818Z"/><path fill="#EEE9E4" transform="scale(1.33333 1.33333)" d="M637.662 314.13C640.525 315.6 641.818 316.832 644.986 315.776C645.473 316.524 645.788 317.034 645.74 317.966C645.196 328.603 643.601 343.347 644.946 353.844L641.955 354.716C642.027 341.134 640.267 337.209 637.223 323.994C637.353 320.706 637.499 317.418 637.662 314.13Z"/><path fill="#F6B657" transform="scale(1.33333 1.33333)" d="M637.223 323.994C640.267 337.209 642.027 341.134 641.955 354.716C641.687 358.506 641.039 361.564 639.448 365.058C639.044 363.891 639.053 362.659 638.568 361.233L636.142 361.084L635.951 358.447C635.487 349.912 633.445 331.372 637.223 323.994Z"/><path fill="#F2CE98" transform="scale(1.33333 1.33333)" d="M635.951 358.447C636.633 353.599 636.015 353.41 638.023 348.805L638.534 348.656C639.677 352.832 639.513 357.932 636.142 361.084L635.951 358.447Z"/><path fill="#35A788" transform="scale(1.33333 1.33333)" d="M623.943 371.693L624.42 372.581C623.224 375.973 622.109 378.365 618.374 376.272L616.837 373.64L617.292 372.836C620.425 373.117 621.204 373.27 623.943 371.693Z"/><path fill="#F7A730" transform="scale(1.33333 1.33333)" d="M615.568 333.059L616.658 333.841C616.905 335.333 615.809 337.951 615.288 339.523C614.612 338.873 614.641 338.658 614.213 337.737C614.268 335.41 614.447 335.118 615.568 333.059Z"/><path fill="#F7A730" transform="scale(1.33333 1.33333)" d="M610.554 361.547C612.62 362.545 614.059 364.362 614.965 366.423C611.751 365.83 610.929 364.512 610.554 361.547Z"/><path fill="#F7A730" transform="scale(1.33333 1.33333)" d="M628.307 318.228L628.85 318.666C628.34 321.126 628.12 322.774 627.853 325.269L626.706 323.922C626.44 321.479 627.224 320.389 628.307 318.228Z"/><path fill="#0B464F" transform="scale(1.33333 1.33333)" d="M619.928 265.986C624.406 268.633 625.967 269.609 629.911 273.044C630.29 276.296 629.593 279.768 630.827 281.585L632.449 282.44L633.147 282.492C633.719 281.983 634.116 281.934 634.887 281.633C637.29 279.882 641.092 278.6 643.942 277.486C644.431 280.328 644.997 284.369 645.653 287.077L645.67 287.705C646.172 291.869 646.862 298.226 646.116 302.368C648.635 310.632 647.572 308.909 644.986 315.776C641.818 316.832 640.525 315.6 637.662 314.13C636.041 304.503 633.841 299.114 623.541 297.818C624.231 283.176 622.983 280.617 619.928 265.986Z"/><path fill="#4FA4AC" transform="scale(1.33333 1.33333)" d="M633.147 282.492C633.719 281.983 634.116 281.934 634.887 281.633C638.404 289.652 638.775 294.129 638.446 303.108L638.062 303.556C635.656 295.12 636.822 291.871 633.147 282.492Z"/><path fill="#0A8DA8" transform="scale(1.33333 1.33333)" d="M624.946 257.644C626.648 257.392 626.601 257.083 627.632 257.797C630.34 258.884 630.946 258.625 632.505 260.611C633.016 263.629 630.727 266.893 630.083 271.593L629.911 273.044C625.967 269.609 624.406 268.633 619.928 265.986C622.983 280.617 624.231 283.176 623.541 297.818L621.334 298.425C621.901 292.072 621.268 270.35 617.257 266.549C614.828 267.95 601.856 279.857 598.799 282.586C572.403 306.153 546.246 328.626 525.075 357.276C519.985 364.163 516.067 370.734 511.701 378.044C510.023 380.853 506.345 388.286 504.642 389.983L504.459 389.106C518.977 347.66 589.967 286.371 624.946 257.644Z"/><path fill="#0B464F" transform="scale(1.33333 1.33333)" d="M627.632 257.797C630.34 258.884 630.946 258.625 632.505 260.611C633.016 263.629 630.727 266.893 630.083 271.593C628.034 268.532 622.74 265.746 619.438 263.924L627.632 257.797Z"/><path fill="#0A8DA8" transform="scale(1.33333 1.33333)" d="M589.25 259.455C598.321 257.978 604.78 254.351 614.254 257.781C616.118 258.456 617.416 257.15 619.83 258.977C619.047 259.705 618.204 260.549 616.951 260.379C613.535 259.915 610.3 258.091 606.841 257.737C600.501 257.089 594.052 261.016 588.229 261.861L589.25 259.455Z"/><path fill="#0A8DA8" transform="scale(1.33333 1.33333)" d="M535.277 336.678C536.091 336.879 535.747 336.656 536.264 337.411C531.174 342.85 523.738 342.812 518.021 346.11C509.954 350.764 503.24 354.98 494.631 358.752L494.141 358.637L493.978 357.728C497.068 354.499 502.062 353.982 504.661 351.875C513.51 344.699 526.538 342.355 535.277 336.678Z"/><path fill="#0A8DA8" transform="scale(1.33333 1.33333)" d="M550.528 319.114L551.065 319.479C545.903 324.281 544.774 322.076 539.278 323.759C528.932 326.927 517.343 327.49 507.385 331.4L506.888 330.454C513.097 326.175 540.279 323.379 550.528 319.114Z"/><path fill="#0A8DA8" transform="scale(1.33333 1.33333)" d="M537.122 298.289C541.959 297.7 567.503 298.479 572.324 299.634C568.015 300.312 565.235 300.197 560.931 300.139C550.105 299.498 538.373 300.532 527.703 300.282L527.82 299.904L527.927 300.381L528.291 299.762L528.413 300.428L528.838 299.618C531.188 298.892 534.588 298.598 537.122 298.289Z"/><path fill="#0A8DA8" transform="scale(1.33333 1.33333)" d="M590.382 298.603L590.908 299.393C589.55 301.888 589.011 302.998 590.508 305.554C592.532 309.012 594.984 312.295 597.121 315.708C597.073 323.883 597.664 324.219 600.676 331.552C593.924 327.55 596.726 320.962 594.53 315.211C592.045 308.704 584.036 305.734 590.382 298.603Z"/><path fill="#0A8DA8" transform="scale(1.33333 1.33333)" d="M567.275 323.386C567.424 323.835 567.549 324.077 567.551 324.494C567.59 330.654 571.184 335.143 573.054 340.867C573.931 343.552 573.074 344.83 571.79 347.303L571.142 346.665C571.585 336.737 564.396 331.422 567.275 323.386Z"/><path fill="#0A8DA8" transform="scale(1.33333 1.33333)" d="M595.065 273.987C597.061 273.557 597.306 273.7 599.369 274.099L599.354 274.664C594.343 276.006 588.17 276.361 582.916 276.837C581.009 277.023 580.844 277.074 579.002 276.666C580.652 274.904 592.217 274.23 595.065 273.987Z"/><path fill="#0A8DA8" transform="scale(1.33333 1.33333)" d="M535.534 348.959L536.487 349.775C537.743 353.332 540.002 358.869 540.177 362.446C536.4 358.367 535.56 354.311 535.534 348.959Z"/><path fill="#1D5B60" transform="scale(1.33333 1.33333)" d="M573.805 360.436C571.597 360.61 572.448 360.355 570.387 362.188C569.403 359.973 570.496 357.058 572.94 356.147L574.02 356.952L573.805 360.436Z"/><path fill="#326771" transform="scale(1.33333 1.33333)" d="M520.032 373.923C520.752 376.059 521.133 381.246 519.52 382.943L518.804 382.051C518.903 378.37 519.065 377.498 520.032 373.923Z"/><path fill="#A3C1B4" transform="scale(1.33333 1.33333)" d="M574.02 356.952C574.625 355.272 574.693 353.989 575.945 353.385C576.265 355.648 575.683 357.946 574.326 359.784C574.152 360.001 573.979 360.219 573.805 360.436L574.02 356.952Z"/><path fill="#1D5B60" transform="scale(1.33333 1.33333)" d="M567.985 274.058L568.139 274.816C566.444 275.998 564.388 275.805 562.217 275.907L562.253 275.168C564.086 273.902 565.456 274.24 567.985 274.058Z"/><path fill="#6A8B8D" transform="scale(1.33333 1.33333)" d="M512.962 363.529C513.192 366.1 511.47 368.73 510.261 371.075C509.292 368.359 511.493 365.626 512.962 363.529Z"/><path fill="#6A8B8D" transform="scale(1.33333 1.33333)" d="M506.25 323.721L506.304 324.128C505.558 325.647 501.946 327.227 500.249 328.13L500.364 327.142C502.262 325.199 503.748 324.765 506.25 323.721Z"/><path fill="#0A8A71" transform="scale(1.33333 1.33333)" d="M665.788 197.719L665.806 197.746C665.718 194.517 665.88 188.876 667.319 186.008C669.696 184.288 669.141 184.793 672.38 184.481L672.013 185.126C668.308 187.371 668.363 188.294 666.817 192.705C676.692 193.788 673.296 199.923 676.484 205.602C677.598 207.587 681.853 208.415 684.896 212.303C687.814 211.337 688.596 211.419 691.688 211.41C690.359 214.656 688.567 216.435 686.297 219.045C681.906 222.966 665.328 241.916 664.902 246.611L664.401 247.215C666.513 248.917 669.839 247.885 672.04 249.82L672.928 251.69C671.67 251.973 671.762 251.966 670.533 251.563L669.907 251.623C666.955 251.885 666.064 251.685 663.159 251.133L661.893 251.815C661.239 254.333 661.911 254.202 661.788 255.886C660.634 254.286 660.182 251.768 659.641 249.759L658.876 251.366L659.631 250.08L658.781 250.839L658.693 253.269L657.585 252.633C648.668 257.311 640.839 260.517 635.938 270.388C634.214 273.86 636.274 279.282 633.098 281.287L632.449 282.44L630.827 281.585C629.593 279.768 630.29 276.296 629.911 273.044L630.083 271.593C630.727 266.893 633.016 263.629 632.505 260.611C630.946 258.625 630.34 258.884 627.632 257.797C626.601 257.083 626.648 257.392 624.946 257.644C621.217 257.352 617.176 258.329 614.5 255.896C614.873 253.65 615.492 253.628 617.257 251.697C619.223 250.513 619.739 249.756 621.18 248.053C619.277 247.508 616.437 246.976 614.443 246.543L613.993 246.473C610.018 245.877 607.929 244.727 604.314 243.073C600.923 242.547 598.673 243.89 595.633 245.448C594.774 249.564 594.511 250.88 592.793 254.663C588.992 256.046 579.4 266.617 576.179 258.939C574.561 255.082 578.318 245.975 574.871 242.98C573.24 243.051 571.124 244.437 569.915 245.761C566.612 249.379 566.504 256.752 564.251 261.181C563.372 262.91 561.734 265.415 561.325 266.862C559.439 268.695 551.832 271.067 548.336 272.975C547.598 271.549 546.529 269.501 546.172 267.928C545.02 262.858 546.992 251.778 537.918 256.456C536.336 257.272 534.846 258.155 533.363 259.239C531.737 264.107 530.894 266.761 528.5 271.322C529.177 274.564 529.651 278.32 527.334 281.026C524.037 284.878 517.601 294.583 512.166 292.537C507.676 287.377 512.291 275.979 507.806 272.116C504.111 272.846 503.087 275.499 500.895 278.779L500.089 279.992C500.188 288.823 492.602 314.062 482.832 314.02C476.328 311.675 477.913 298.895 474.768 294.765C466.099 298.766 471.439 329.987 456.592 314.86C451.933 320.285 443.349 332.863 435.71 328.623C433.968 323.687 439.356 314.931 441.007 310.025C442.851 304.544 449.088 299.276 450.595 295.537C444.116 296.303 435.365 304.954 429.099 302.599C426.963 299.353 429.77 295.689 431.136 292.453C435.247 282.716 442.074 275.762 452.044 272.028C455.325 270.8 461.651 272.12 461.749 267.187C458.618 265.005 440.936 267.924 434.344 267.922C443.286 253.546 455.02 246.964 471.923 249.271C474.063 249.563 478.082 248.44 480.272 247.864C481.435 246.633 483.095 244.532 484.232 243.177C476.707 242.319 469.185 243.104 461.688 242.252C458.889 241.934 457.306 241.402 457.322 238.507C463.318 227.764 482.666 226.837 493.39 229.373L498.331 234.498C501.796 234.119 508.064 233.793 510.406 231.274C508.311 227.269 482.728 224.128 480.152 216.867C482.158 211.603 489.21 213.404 493.667 212.322C504.044 209.802 511.804 209.269 521.172 215.464C529.458 220.944 531.733 223.015 541.054 218.613C536.552 215.926 516.098 208.641 517.382 203.255C530.107 196.103 554.618 196.842 561.532 211.99C562.161 213.367 564.468 214.813 565.807 215.488C568.009 215.532 567.133 215.766 569.109 214.402C569.986 210.306 565.947 205.422 563.646 199.995C567.182 199.468 569.222 199.169 572.074 197.045C574.983 198.009 581.242 200.25 583.954 200.782C580.107 203.833 573.623 206.139 571.881 210.637C572.35 214.257 573.952 213.086 577.45 214.374C585.232 217.24 591.524 216.869 599.601 216.097C599.488 216.107 603.699 220.356 604.425 220.334C615.137 224.364 624.775 226.443 636.016 226.845L636.725 225.934C637.815 227.529 641.268 229.072 643.068 229.713C645.461 229.352 644.666 229.826 646.083 228.009C646.543 225.633 645.348 223.463 644.427 221.149C645.749 220.634 648.517 219.986 649.997 219.59C652.994 227.902 653.251 240.462 658.219 244.014L660.404 243.95C660.461 240.655 663.774 235.595 664.558 232.074C665.201 229.185 665.315 226.605 665.476 223.674C653.352 219.686 661.294 204.366 665.788 197.719Z"/><path fill="#0D957A" transform="scale(1.33333 1.33333)" d="M456.237 293.304C455.77 294.711 455.735 295.073 455.561 296.557L456.264 297.121C458.447 295.612 463.174 288.776 465.245 286.083C485.424 259.845 511.967 239.161 545.24 232.64C552.175 231.313 559.213 230.588 566.273 230.473C577.011 230.248 614.658 232.554 622.922 238.133L626.727 237.75C628.555 238.245 628.786 238.361 630.334 239.453L630.932 240.871C629.952 243.202 623.348 247.416 621.18 248.053C619.277 247.508 616.437 246.976 614.443 246.543L613.993 246.473C610.018 245.877 607.929 244.727 604.314 243.073C600.923 242.547 598.673 243.89 595.633 245.448C594.774 249.564 594.511 250.88 592.793 254.663C588.992 256.046 579.4 266.617 576.179 258.939C574.561 255.082 578.318 245.975 574.871 242.98C573.24 243.051 571.124 244.437 569.915 245.761C566.612 249.379 566.504 256.752 564.251 261.181C563.372 262.91 561.734 265.415 561.325 266.862C559.439 268.695 551.832 271.067 548.336 272.975C547.598 271.549 546.529 269.501 546.172 267.928C545.02 262.858 546.992 251.778 537.918 256.456C536.336 257.272 534.846 258.155 533.363 259.239C531.737 264.107 530.894 266.761 528.5 271.322C529.177 274.564 529.651 278.32 527.334 281.026C524.037 284.878 517.601 294.583 512.166 292.537C507.676 287.377 512.291 275.979 507.806 272.116C504.111 272.846 503.087 275.499 500.895 278.779L500.089 279.992C500.188 288.823 492.602 314.062 482.832 314.02C476.328 311.675 477.913 298.895 474.768 294.765C466.099 298.766 471.439 329.987 456.592 314.86C451.933 320.285 443.349 332.863 435.71 328.623C433.968 323.687 439.356 314.931 441.007 310.025C442.851 304.544 449.088 299.276 450.595 295.537C450.49 292.847 453.218 291.757 455.604 291.968L456.237 293.304Z"/><path fill="#35A788" transform="scale(1.33333 1.33333)" d="M626.727 237.75C628.555 238.245 628.786 238.361 630.334 239.453L630.932 240.871C629.952 243.202 623.348 247.416 621.18 248.053C619.277 247.508 616.437 246.976 614.443 246.543L613.993 246.473C610.018 245.877 607.929 244.727 604.314 243.073C606.617 241.399 607.001 241.341 609.808 240.954C615.52 240.793 619.794 244.384 624.241 242.385L625.066 239.678L622.922 238.133L626.727 237.75Z"/><path fill="#0A8A71" transform="scale(1.33333 1.33333)" d="M604.314 243.073C606.617 241.399 607.001 241.341 609.808 240.954C612.741 242.669 613.993 242.961 614.443 246.543L613.993 246.473C610.018 245.877 607.929 244.727 604.314 243.073Z"/><path fill="#ABBFB9" transform="scale(1.33333 1.33333)" d="M524.089 244.05C524.334 246.813 520.756 253.011 519.345 255.931C520.549 258.373 521.695 260.412 521.814 263.141L521.829 263.564C521.967 266.942 520.625 273.416 518.071 275.77L517.137 274.424C516.283 270.773 521.622 263.748 518.83 260.089C515.282 255.439 521.374 247.923 524.089 244.05Z"/><path fill="#A3C1B4" transform="scale(1.33333 1.33333)" d="M561.381 232.836C562.023 235.53 558.185 241.952 556.767 244.769L559.19 251.097C558.016 256.445 557.059 259.01 553.115 262.746C552.752 259.292 555.42 255.562 557.088 251.405C556.362 249.285 555.058 246.384 554.173 244.244L561.381 232.836Z"/><path fill="#ABBFB9" transform="scale(1.33333 1.33333)" d="M485.978 274.681C486.43 274.822 486.884 274.928 487.251 275.273C494.261 281.864 492.759 287.395 490.32 295.897L489.094 296.063L488.297 295.108C488.136 292.21 489.447 288.222 490.226 285.31C488.536 281.95 486.41 278.363 485.978 274.681Z"/><path fill="#A3C1B4" transform="scale(1.33333 1.33333)" d="M595.419 234.197L596.113 234.528C595.391 236.222 589.87 240.154 587.72 242.077L587.475 242.121L586.906 241.65C588.399 238.484 592.52 236.003 595.419 234.197Z"/><path fill="#ABBFB9" transform="scale(1.33333 1.33333)" d="M535.868 232.39C526.656 229.86 523.815 228.227 515.49 224.262C514.501 223.791 506.504 221.72 504.921 221.253L506.653 221.726C512.211 219.468 531.9 228.769 536.262 232.175C561.746 227.016 603.475 225.916 626.727 237.75L622.922 238.133C614.658 232.554 577.011 230.248 566.273 230.473C559.213 230.588 552.175 231.313 545.24 232.64C511.967 239.161 485.424 259.845 465.245 286.083C463.174 288.776 458.447 295.612 456.264 297.121L455.561 296.557C455.735 295.073 455.77 294.711 456.237 293.304C457.104 292.941 461.317 287.16 462.398 285.805C468.462 278.077 475.013 270.744 482.01 263.849C490.016 255.848 496.742 251.262 505.934 244.992L497.19 244.891C494.221 243.071 491.231 241.287 488.22 239.538L487.924 238.326L487.436 238.979L487.305 238.084L487.076 238.708L486.738 237.882L486.647 238.367L486.302 238.063L486.78 237.822L486.757 238.35C488.64 239.677 487.375 237.927 488.321 238.348C495.016 241.325 499.325 243.36 506.682 244.363C516.397 239.792 525.503 235.391 535.868 232.39Z"/><path fill="#1D5B60" transform="scale(1.33333 1.33333)" d="M666.817 192.705C676.692 193.788 673.296 199.923 676.484 205.602C677.598 207.587 681.853 208.415 684.896 212.303C681.411 213.48 679.429 215.464 675.961 216.87L676.246 213.046L676.311 213.497C677.263 208.668 675.235 203.052 672.905 198.916C671.138 195.779 670.054 196.257 667.238 194.664L666.817 192.705Z"/><path fill="#0F6157" transform="scale(1.33333 1.33333)" d="M633.098 281.287C633.151 278.983 633.377 274.298 634.147 272.253C636.885 264.988 648.462 249.265 657.585 252.633C648.668 257.311 640.839 260.517 635.938 270.388C634.214 273.86 636.274 279.282 633.098 281.287Z"/><path fill="#1D5B60" transform="scale(1.33333 1.33333)" d="M665.476 223.674C665.537 219.538 665.501 212.476 666.864 208.782C668.531 215.904 666.558 239.795 660.404 243.95C660.461 240.655 663.774 235.595 664.558 232.074C665.201 229.185 665.315 226.605 665.476 223.674Z"/><path fill="#1D5B60" transform="scale(1.33333 1.33333)" d="M670.533 251.563C668.043 250.577 666.213 250.751 663.953 249.319C666.164 248.875 669.665 249.518 672.04 249.82L672.928 251.69C671.67 251.973 671.762 251.966 670.533 251.563Z"/><path fill="#A3C1B4" transform="scale(1.33333 1.33333)" d="M533.071 207.449C536.111 207.392 547.661 211.17 550.243 213.008C557.174 217.942 562.432 222.519 569.87 227.152C559.684 226.127 558.07 218.755 550.152 214.464C545.167 211.763 537.777 211.171 533.071 207.449Z"/><path fill="#0F6157" transform="scale(1.33333 1.33333)" d="M626.434 233.09C631.461 233.495 651.984 244.092 655.709 246.854C652.575 247.014 628.602 235.171 626.434 233.09Z"/><path fill="#A3C1B4" transform="scale(1.33333 1.33333)" d="M462.853 278.341L463.581 278.644C463.329 279.039 444.753 289.357 442.729 290.646L442.224 290.558L441.877 289.746C444.863 285.397 457.867 280.279 462.853 278.341Z"/><path fill="#A3C1B4" transform="scale(1.33333 1.33333)" d="M470.026 258.908C474.978 258.629 478.121 258.311 482.95 259.319C482.95 259.319 481.899 259.923 481.899 259.923C481.292 260.589 479.052 260.515 477.914 260.567C474.746 260.391 464.95 261.012 462.636 259.974C464.83 259.084 467.621 259.077 470.026 258.908Z"/><path fill="#0F6157" transform="scale(1.33333 1.33333)" d="M635.085 247.091C637.457 246.978 639.789 246.682 642.051 247.278L641.84 248.298C640.354 248.761 632.759 248.688 628.582 249.445C625.894 250.464 624.815 250.951 621.94 251.291L621.819 250.753C627.483 247.655 628.712 247.723 635.085 247.091Z"/><path fill="#A3C1B4" transform="scale(1.33333 1.33333)" d="M589.911 217.029C593.898 217.996 597.185 223.303 599.324 226.59C596.467 225.56 592.256 219.682 589.911 217.029Z"/><path fill="#0B464F" transform="scale(1.33333 1.33333)" d="M477.978 139.068C472.612 135.614 461.589 129.638 459.728 123.778C460.971 117.482 474.555 119.551 479.645 119.755C482.64 119.874 489.981 124.83 492.964 123.363C492.033 117.786 482.224 111.877 484.536 104.774L486.229 103.953C491.324 103.851 498.039 106.323 502.612 108.764C509.576 112.482 517.633 119.92 520.241 127.604C520.698 128.948 520.352 128.76 521.427 129.892C523.719 130.307 523.383 130.595 525.282 129.923C521.129 118.901 519.638 116.091 518.047 104.391C529.899 109.56 537.406 116.637 542.527 128.604C542.205 130.4 540.845 133.692 541.498 135.263C542.529 137.744 544.197 140.072 546.922 140.349C549.866 136 539.957 116.829 545.291 110.664C548.962 110.451 552.806 114.796 555.199 117.316C564.521 127.131 564.315 136.863 563.761 149.483C565.723 151.462 569.117 154.769 571.792 155.291C572.825 151.803 568 146.351 567.35 143.375C566.485 139.418 565.277 123.002 567.796 120.378C572.792 120.623 585.662 137.828 586.927 142.948C588.25 148.304 588.2 156.238 588.733 162.02C591.61 166.325 592.246 167.221 596.817 169.7C595.869 164.783 592.268 140.267 594.808 137.213C595.929 137.065 596.887 136.758 597.767 137.555C607.944 146.775 610.556 153.218 613.471 165.263C616.941 166.195 617.414 166.244 620.986 165.876C622.387 163.737 621.632 164.255 623.731 163.606C626.129 164.236 629.181 167.144 629.956 169.472C630.334 172.472 631.269 176.839 632.871 179.408L634.012 182.049L634.1 182.367C635.488 187.479 634.877 189.283 634.851 193.72C634.838 196.006 641.174 196.19 641.134 201.806C640.356 204.41 640.243 205.522 638.2 207.309C639.899 211.027 642.52 218.278 644.427 221.149C645.348 223.463 646.543 225.633 646.083 228.009C644.666 229.826 645.461 229.352 643.068 229.713C641.268 229.072 637.815 227.529 636.725 225.934L636.016 226.845C624.775 226.443 615.137 224.364 604.425 220.334C603.699 220.356 599.488 216.107 599.601 216.097C591.524 216.869 585.232 217.24 577.45 214.374C573.952 213.086 572.35 214.257 571.881 210.637C573.623 206.139 580.107 203.833 583.954 200.782C586.668 200.066 591.414 199.409 594.318 198.914C586.134 193.862 579.518 188.698 572.074 197.045C569.222 199.169 567.182 199.468 563.646 199.995C554.458 200.783 544.881 198.564 536.393 195.236C541.305 190.007 546.829 184.332 554.058 182.693C557.464 181.92 560.997 181.564 564.222 180.337L564.388 179.515C561.868 177.292 556.633 175.089 553.43 173.568C549.47 176.677 548.35 179.098 542.859 182.335C532.847 188.235 524.246 185.886 513.582 184.141C512.212 183.917 511.526 182.569 510.989 181.564C512.247 173.533 531.73 168.967 534.615 164.885C534.383 164.081 534.512 163.88 534.02 163.702C522.979 158.91 518.487 166.474 509.193 170.074C504.657 171.832 485.467 172.368 483.98 166.584C487.342 156.724 504.21 152.8 506.886 150.102L506.294 149.046C503.411 147.422 500.853 147.082 497.639 146.432C492.254 149.027 474.004 157.056 471.043 148.967C471.485 144.967 475.155 141.952 477.978 139.068Z"/><path fill="#0A8DA8" transform="scale(1.33333 1.33333)" d="M636.016 226.845C619.806 208.406 610.724 198.701 590.756 184.348C560.111 162.322 528.422 143.175 491.874 132.471C489.113 131.663 480.514 130.402 478.863 128.509L478.38 128.467C484.03 127.432 498.82 132.745 504.615 134.787C544.412 148.812 578.56 171.29 611.292 197.498C608.297 186.986 605.702 180.642 605.514 169.438C605.468 166.714 602.562 158.183 601.604 154.968C604.316 159.582 607.143 167.014 608.879 172.082C608.163 174.763 607.726 177.676 607.255 180.426C609.48 185.452 610.827 195.429 613.134 198.664C619.052 206.958 631.916 216.835 636.725 225.934L636.016 226.845Z"/><path fill="#0A8A71" transform="scale(1.33333 1.33333)" d="M620.986 165.876C620.237 169.876 619.198 178.675 616.397 180.96C613.432 177.99 613.503 169.596 613.471 165.263C616.941 166.195 617.414 166.244 620.986 165.876Z"/><path fill="#35A788" transform="scale(1.33333 1.33333)" d="M638.2 207.309C636.976 205.434 636.043 204.123 635.197 202.012C636.562 200.971 638.931 201.633 641.134 201.806C640.356 204.41 640.243 205.522 638.2 207.309Z"/><path fill="#0A8DA8" transform="scale(1.33333 1.33333)" d="M572.766 135.698C574.777 137.062 579.598 146.866 580.339 149.413C581.849 154.599 582.693 160.199 584.27 165.449C585.135 168.33 587.534 171.621 587.711 174.371C587.2 174.523 587.236 174.387 586.535 174.167C581.694 164.408 581.609 160.285 578.59 150.128C576.988 144.734 573.422 141.272 572.766 135.698Z"/><path fill="#0A8DA8" transform="scale(1.33333 1.33333)" d="M528.867 121.531L529.458 121.456C536.655 125.036 536.229 133.072 536.219 140.084C539.548 143.484 541.547 145.143 542.72 149.704C542.041 149.273 535.708 141.734 534.142 140.245C534.152 136.455 534.121 132.664 534.049 128.875C532.517 126.33 529.218 123.018 528.867 121.531Z"/><path fill="#0A8DA8" transform="scale(1.33333 1.33333)" d="M556.104 164.918L556.944 165.354C554.672 167.348 548.192 168.011 545.529 169.796C537.635 175.086 536.697 176.955 527.336 178.363L526.657 178.262L526.925 177.395C529.046 176.631 535.254 174.961 536.356 174.274C547.035 167.608 543.961 167.13 556.104 164.918Z"/><path fill="#0A8DA8" transform="scale(1.33333 1.33333)" d="M583.777 181.994L584.135 182.005L584.418 182.581C581.58 184.863 577.232 184.636 574.22 186.131C566.252 190.086 564.039 191.654 555.111 192.592L554.284 192.258L554.059 191.475C556.679 189.906 560.56 190.807 562.72 189.787C570.71 186.013 574.916 183.719 583.777 181.994Z"/><path fill="#0A8DA8" transform="scale(1.33333 1.33333)" d="M553.021 128.37C559.264 131.463 558.129 144.642 558.359 150.217C558.418 151.62 560.049 156.168 560.586 157.669L559.885 157.73C554.926 153.519 557.129 142.22 556.414 136.695C556.402 136.604 553.449 129.558 553.021 128.37Z"/><path fill="#0A8DA8" transform="scale(1.33333 1.33333)" d="M526.711 152.01C527.4 151.879 527.088 151.931 527.896 152.237C526.05 153.307 521.01 154.076 518.673 154.537C511.956 161.06 510.49 161.515 501.551 163.196L500.642 163.341L500.003 162.832C502.107 160.748 505.332 161.297 507.827 160.013C516.108 155.749 516.983 152.393 526.711 152.01Z"/><path fill="#0A8DA8" transform="scale(1.33333 1.33333)" d="M496.191 114.739C505.842 117.185 509.89 127.93 512.797 136.06C508.935 133.452 508.761 127.434 506.23 124.46C503.018 120.687 499.335 119.266 496.191 114.739Z"/><path fill="#0A8DA8" transform="scale(1.33333 1.33333)" d="M608.742 202.172L609.966 202.507L609.489 203.48C603.537 206.516 597.951 207.233 591.423 207.948L590.512 207.781C592.161 205.947 602.822 204.951 608.742 202.172Z"/><path fill="#0A8DA8" transform="scale(1.33333 1.33333)" d="M495.219 138.561C496.919 138.536 497.078 138.46 498.532 139.227C491.998 141.915 489.961 142.352 483.958 146.295L482.203 146.791L481.852 145.99C485.039 143.124 491.266 140.23 495.219 138.561Z"/><path fill="#A3C1B4" transform="scale(1.33333 1.33333)" d="M626.976 188.854C628.049 193.061 626.138 197.935 624.893 202.091C623.521 199.4 626.099 192.231 626.976 188.854Z"/><path fill="#0B464F" transform="scale(1.33333 1.33333)" d="M742.463 256.079C746.658 256.597 751.551 255.685 755.534 256.819C762.4 258.774 762.922 263.509 770.556 262.34L771.079 263.176C773.444 263.156 774.115 262.852 776.279 262.124C782.306 262.034 792.628 263.379 796.883 262.835C799.816 263.318 805.959 264.245 808.625 265.129C807.497 268.739 806.813 268.019 804.146 270.461C792.171 276.135 789.772 275.038 778.821 278.73C793.108 282.143 796.366 280.909 810.612 281.083C821.349 281.214 837.414 285.964 847.04 290.693C837.385 293.5 828.061 295.656 817.992 296.153C816.152 296.244 813.581 296.195 812.015 297.069C815.331 299.506 825.648 298.835 830.24 299.75C837.638 301.223 859.04 317.945 860.605 324.001C859.061 328.329 842.694 325.183 840.542 330.326C843.308 331.878 847.148 332.161 850.35 332.641C852.647 336.906 861.678 354.593 857.288 357.993C853.988 357.981 846.76 352.336 843.318 350.356C841.378 351.83 839.327 353.451 837.312 354.791C834.265 349.994 832.759 347.31 831.669 341.582C831.37 340.014 823.003 332.329 821.421 330.811L820.365 330.82C819.306 335.16 824.171 350.894 817.024 356.626C814.472 357.296 815.431 357.398 813.268 356.536C808.543 351.776 803.511 337.055 809.986 331.38C809.406 329.72 805.347 327.093 803.677 325.852L800.197 326.775C800.434 332.8 798.817 345.631 791.368 346.732C781.163 344.016 783.748 324.184 784.708 316.733C778.377 312.847 777.39 311.825 773.272 305.978C773.553 312.545 774.062 315.365 775.945 321.429C774.357 327.857 772.958 330.413 770.145 336.464C766.752 332.668 764.396 330.504 760.585 327.116C758.511 320.933 758.167 317.282 757.976 310.971L764.791 303.398C759.358 299.378 757.457 298.142 753.402 292.917L753.475 301.949C751.402 304.662 749.173 308.166 747.234 311.043L747.479 311.529C757.462 331.158 776.861 354.193 747.047 369.265L734.796 366.942C729.58 363.856 726.742 360.431 723.81 355.213L721.049 348.753C719.939 343.988 720.037 340.522 720.308 335.768C721.017 330.043 719.867 324.054 719.645 318.278C719.506 314.674 720.142 312.169 717.931 309.441L715.952 309.172C714.038 307.528 714.395 307.049 713.5 304.219C712.121 296.139 710.987 284.96 711.466 276.894L713.713 271.104C713.84 270.816 715.073 269.066 715.33 268.692C712.61 268.452 712.151 268.739 710.754 266.699C709.998 264.624 710.908 263.598 711.877 261.891L712.585 261.893C717.576 261.491 723.26 259.238 728.136 257.595C731.151 257.79 739.605 257.13 742.463 256.079ZM736.299 293.509L740.957 289.238C738.664 287.007 734.046 280.605 731.073 281.277L730.447 282.773C731.733 284.791 735.854 292.948 736.299 293.509Z"/><path fill="#F7A730" transform="scale(1.33333 1.33333)" d="M725.294 301.05C728.853 299.465 732.367 297.781 735.832 296C734.329 302.703 732.563 313.642 734.277 320.369L735.312 321.533C738.558 321.034 743.823 313.802 747.234 311.043L747.479 311.529C757.462 331.158 776.861 354.193 747.047 369.265L734.796 366.942C729.58 363.856 726.742 360.431 723.81 355.213L721.049 348.753C719.939 343.988 720.037 340.522 720.308 335.768C721.017 330.043 719.867 324.054 719.645 318.278C719.506 314.674 720.142 312.169 717.931 309.441C718.55 308.339 724.101 302.368 725.294 301.05Z"/><path fill="#F6B657" transform="scale(1.33333 1.33333)" d="M720.308 335.768C722.333 338.348 724.945 341.223 725.84 344.304C725.217 345.663 725.698 345.161 724.315 345.821C726.379 349.004 726.872 350.181 728.28 353.742C727.11 354.119 724.848 354.769 723.81 355.213L721.049 348.753C719.939 343.988 720.037 340.522 720.308 335.768Z"/><path fill="#35A788" transform="scale(1.33333 1.33333)" d="M749.742 358.55L750.404 358.652L750.891 360.03C750.118 364.483 748.127 365.667 744.007 365.219C742.201 363.667 741.878 363.859 741.114 361.772C742.423 360.276 745.757 360.45 749.151 358.835L749.742 358.55Z"/><path fill="#F6B657" transform="scale(1.33333 1.33333)" d="M723.803 307.946C728.282 309.013 722.148 311.815 727.154 318.682L725.791 318.877L724.435 317.851C723.04 314.967 722.964 311.017 723.803 307.946Z"/><path fill="#0A8DA8" transform="scale(1.33333 1.33333)" d="M710.754 266.699C716.081 266.243 721.87 265.835 727.07 267.322C752.966 274.729 778.672 291.669 800.957 306.468C807.474 310.795 844.271 338.988 846.599 344.064C842.925 343.06 839.674 339.978 836.733 337.515C837.696 340.139 839.399 343.866 839.121 346.503L839.03 345.694L838.45 346.157L839.032 345.96C836.417 344.722 835.683 339.06 835.598 336.314C810.774 316.155 746.964 265.465 715.33 268.692C712.61 268.452 712.151 268.739 710.754 266.699Z"/><path fill="#35A788" transform="scale(1.33333 1.33333)" d="M730.447 282.773C731.733 284.791 735.854 292.948 736.299 293.509L735.832 296C732.367 297.781 728.853 299.465 725.294 301.05C725.212 294.412 730.257 291.298 730.447 282.773Z"/><path fill="#0A8DA8" transform="scale(1.33333 1.33333)" d="M809.986 331.38C814.152 328.062 809.421 324.214 810.357 321.278L811.667 321.232C814.51 323.986 813.729 329.407 811.872 332.659C810.683 337.191 815.119 338.841 814.631 342.309L813.508 342.439C811.255 339.822 809.628 334.827 809.986 331.38Z"/><path fill="#EEE9E4" transform="scale(1.33333 1.33333)" d="M800.197 326.775C799.14 323.573 798.622 317.035 798.461 313.667C800.188 317.055 801.916 322.054 803.677 325.852L800.197 326.775Z"/><path fill="#0A8DA8" transform="scale(1.33333 1.33333)" d="M813.573 307.762C818.419 308.201 828.315 313.105 832.584 315.698L837.729 312.854C843.139 315.046 845.938 316.38 850.204 320.346C848.107 320.593 840.579 316.161 837.737 314.801L831.897 317.588C825.949 313.7 816.698 311.366 813.573 307.762Z"/><path fill="#4FA4AC" transform="scale(1.33333 1.33333)" d="M791.737 266.643L792.245 266.787L791.653 267.739C786.326 270.517 781.686 270.503 775.915 270.318C774.031 271.575 771.922 272.791 769.966 273.967C766.023 273.831 759.607 272.818 755.494 272.274L755.043 271.932L755.103 271.004C757.245 270.376 766.857 271.949 769.806 272.302L774.923 268.31C782.275 268.687 784.705 269.202 791.737 266.643Z"/><path fill="#0A8DA8" transform="scale(1.33333 1.33333)" d="M784.817 288.52C797.486 287.681 812.446 288.645 825.335 288.573C825.911 288.569 826.255 289.411 826.616 289.943C811.103 290.652 800.555 289.619 785.177 289.188L784.817 288.52Z"/><path fill="#4FA4AC" transform="scale(1.33333 1.33333)" d="M723.039 270.361C724.283 272.325 720.069 275.539 720.105 276.458C720.41 284.245 717.313 292.068 718.473 299.513C712.686 294.424 718.103 290.713 718.276 285.77C718.584 277.009 716.18 277.025 723.039 270.361Z"/><path fill="#4FA4AC" transform="scale(1.33333 1.33333)" d="M789.614 308.402C796.466 312.51 790.919 319.584 791.22 325.429C791.347 327.885 793.151 332.712 793.785 335.546C786.941 331.695 789.629 322.19 791.149 316.244C792.147 312.337 791.035 312.003 789.614 308.402Z"/><path fill="#4FA4AC" transform="scale(1.33333 1.33333)" d="M747.292 281.294C749.272 283.506 748.861 287.632 748.899 290.68C744.265 296.714 743.276 294.824 740.842 303.519C738.687 298.412 744.212 293.527 747.246 289.887C747.031 286.877 746.7 284.273 747.292 281.294Z"/><path fill="#4FA4AC" transform="scale(1.33333 1.33333)" d="M769.699 296.471C771.891 297.297 772.776 299.384 773.978 301.426C771.507 304.832 769.158 308.507 766.834 312.029L766.394 312.136L765.719 311.495C767.116 303.746 773.201 307.222 769.699 296.471Z"/><path fill="#A3C1B4" transform="scale(1.33333 1.33333)" d="M752.601 265.244C754.248 265.136 754.922 265.302 756.569 265.561L756.123 266.216L752.359 266.849C750.085 267.378 749.298 267.972 747.361 267.327C748.571 265.9 750.646 265.714 752.601 265.244Z"/><path fill="#0B464F" transform="scale(1.33333 1.33333)" d="M747.884 133.069C744.756 118.96 747.909 106.068 760.742 97.7172L762.138 97.6045C765.14 100.692 764.341 115.257 763.779 119.655C763.51 121.764 759.902 125.68 759.862 129.199L760.841 130.103C762.637 129.685 764.676 127.506 765.441 125.925C771.494 113.415 774.08 100.193 787.493 92.8499C789.821 91.5755 794.576 87.7027 797.004 89.1677C797.805 93.6957 789.387 112.405 787.65 117.933C799.385 110.037 801.678 100.177 818.359 100.252C823.088 100.273 829.584 98.1273 833.794 101.568C835.831 107.286 825.612 115.55 821.282 118.464C818.745 118.556 815.916 118.333 813.87 119.669L813.627 120.748C815.457 122.773 826.247 127.341 830.077 129.472C821.12 137.219 807.411 142.345 796.628 135.29C793.747 136.797 790.094 138.345 788.177 140.859L788.085 142.042C790.28 143.614 793.828 143.054 796.357 142.63C797.471 142.447 798.582 142.24 799.687 142.007C804.25 143.513 816.008 148.018 815.262 153.662C810.127 160.135 790.119 160.18 782.041 160.031C774.114 159.885 777.55 155.137 767.635 161.826C772.809 163.337 788.338 168.982 791.286 172.93C790.55 178.152 776.873 183.123 771.397 181.801C765.597 180.401 761.022 179.285 755.09 180.503C749.753 177.551 744.125 175.038 739.599 181.726C741.108 187.438 761.655 184.016 764.555 191.175C764.106 193.363 762.554 194.557 760.944 196.234C758.059 201.729 755.712 208.06 749.278 209.887C747.497 209.674 746.72 210.192 744.5 209.742C743.14 208.345 743.234 208.054 742.947 206.009C739.571 207.689 733.083 214.224 731.638 217.926L728.084 225.7L727.141 227.502C721.975 228.622 716.92 230.43 711.901 232.104L709.909 230.632C708.516 228.204 708.543 227.047 708.258 224.271C705.426 223.739 705.498 223.299 703.173 224.165C702.344 225.603 702.043 226.083 701.503 227.637C699.353 225.052 694.017 225.213 690.97 225.402C693.318 220.645 694.762 219.668 694.033 214.541C692.887 213.371 692.76 213.191 691.901 211.768L691.688 211.41C688.596 211.419 687.814 211.337 684.896 212.303C681.853 208.415 677.598 207.587 676.484 205.602C673.296 199.923 676.692 193.788 666.817 192.705C668.363 188.294 668.308 187.371 672.013 185.126C673.776 187.415 676.775 191.071 678.107 193.463L683.445 190.179C682.561 187.965 681.929 183.781 681.472 181.292C682.904 171.419 686.197 164.133 691.492 155.702C692.934 160.146 693.846 163.955 696.635 167.693C698.879 175.735 699.456 175.154 701.314 185.073L702.017 185.363C703.182 184.39 705.025 182.986 705.208 181.498C705.938 175.581 702.545 167.736 699.446 162.994C699.811 156.608 699.086 156.103 700.599 149.386C701.841 146.393 710.438 133.827 712.916 132.799C717.6 137.263 717.56 162.262 718.805 164.569C720.791 164.081 723.071 161.333 724.632 159.747C722.286 150.878 721.302 134.397 726.527 126.412C730.941 119.666 736.158 115.145 741.999 109.679C742.278 115.538 742.821 123.488 742.657 129.227C742.507 134.47 739.212 140.844 740.523 147.032L741.232 147.099C744.335 142.467 746.196 138.326 747.884 133.069Z"/><path fill="#0A8A71" transform="scale(1.33333 1.33333)" d="M730.127 216.05C729.619 215.381 729.123 214.703 728.639 214.016C726.924 211.568 726.833 211.068 727.373 208.053C730.137 203.223 738.997 205.487 743.831 204.685C749.476 203.75 755.336 199 760.944 196.234C758.059 201.729 755.712 208.06 749.278 209.887C747.497 209.674 746.72 210.192 744.5 209.742C743.14 208.345 743.234 208.054 742.947 206.009C739.571 207.689 733.083 214.224 731.638 217.926L730.127 216.05Z"/><path fill="#0A8A71" transform="scale(1.33333 1.33333)" d="M730.127 216.05L731.638 217.926L728.084 225.7L727.141 227.502C721.975 228.622 716.92 230.43 711.901 232.104L709.909 230.632C708.516 228.204 708.543 227.047 708.258 224.271C715.454 225.398 724.451 220.141 730.127 216.05Z"/><path fill="#0A8A71" transform="scale(1.33333 1.33333)" d="M683.445 190.179C684.891 194.072 686.268 197.724 687.886 201.559C685.816 203.743 685.602 204.677 683.103 205.456C680.559 203.724 679.968 197.241 678.107 193.463L683.445 190.179Z"/><path fill="#0A8DA8" transform="scale(1.33333 1.33333)" d="M818.403 107.66L818.845 108.138C818.443 109.995 795.193 121.92 791.61 124.193C762.654 142.248 736.538 164.502 714.115 190.227C708.165 196.964 702.388 204.963 696.287 212.09L695.847 211.561C695.95 211.197 696.054 210.833 696.157 210.469C725.885 168.529 772.13 128.867 818.403 107.66Z"/><path fill="#0A8DA8" transform="scale(1.33333 1.33333)" d="M748.167 165.052C751.774 164.651 755.087 167.509 758.678 168.81C762.802 170.304 771.668 171.842 774.657 174.497L774.598 175.296L771.835 175.351C771.237 174.827 770.712 174.276 770.2 173.667C766.068 172.804 762.508 172.342 758.341 171.805L751.35 166.538C748.697 166.665 742.17 167.79 740.137 166.484C742.507 165.472 745.554 165.325 748.167 165.052Z"/><path fill="#0A8DA8" transform="scale(1.33333 1.33333)" d="M767.108 146.57C770.45 146.364 774.037 146.419 777.403 146.406C779.198 147.564 781.341 149.227 783.104 150.527C786.755 149.756 795.13 148.475 797.869 151.421C796.367 152.273 794.544 151.607 792.452 151.33C788.569 151.324 787.445 151.595 783.621 152.491L777.305 147.782C772.513 147.568 768.058 148.759 763.447 148.369C764.424 147.104 765.351 147.145 767.108 146.57Z"/><path fill="#0A8DA8" transform="scale(1.33333 1.33333)" d="M735.404 125.857C735.864 129.09 732.001 136.277 731.872 140.014C731.536 149.696 735.856 153.139 732.655 163.352C732.507 148.875 725.799 138.829 735.404 125.857Z"/><path fill="#0A8DA8" transform="scale(1.33333 1.33333)" d="M709.406 146.773C710.417 148.788 708.827 156.021 709.37 158.526C711.655 169.054 715.166 174.404 713.637 185.95C712.699 183.621 712.379 182.124 712.182 179.605C711.177 166.759 705.423 159.654 709.406 146.773Z"/><path fill="#0A8DA8" transform="scale(1.33333 1.33333)" d="M724.281 188.513C729.652 187.487 732.426 190.085 736.461 193.017C741.937 192.396 746.854 192.217 752.364 192.004C749.243 193.436 745.493 193.904 742.08 194.508C735.06 194.853 734.462 193.696 728.482 189.881C724.061 190.601 722.072 190.89 717.52 190.944L717.027 190.459C719.64 189.235 721.457 189.028 724.281 188.513Z"/><path fill="#0A8DA8" transform="scale(1.33333 1.33333)" d="M787.276 99.645C788.35 102.198 781.049 113.832 779.298 117.147C776.633 122.19 774.609 126.599 772.514 131.919C771.881 131.41 772.11 131.423 771.788 130.342C772.605 125.091 784.044 103.598 787.276 99.645Z"/><path fill="#0A8DA8" transform="scale(1.33333 1.33333)" d="M691.145 173.045L691.93 173.693C694.489 179.521 694.474 198.488 693.732 205.155L692.92 205.184C692.769 204.954 691.017 175.281 691.145 173.045Z"/><path fill="#0A8DA8" transform="scale(1.33333 1.33333)" d="M756.732 110.021C757.375 111.429 756.075 116.908 755.603 118.71C753.391 127.144 755.421 140.088 753.661 147.195C753.103 146.755 753.048 146.441 752.656 145.756C752.502 134.932 751.88 119.881 756.732 110.021Z"/><path fill="#0A8DA8" transform="scale(1.33333 1.33333)" d="M809.119 126.893L810.415 126.616L811.144 127.162C808.985 129.536 801.726 129.75 798.501 129.911C797.408 129.92 797.485 129.936 796.532 129.401C797.739 128.227 806.602 127.291 809.119 126.893Z"/><path fill="#0A8DA8" transform="scale(1.33333 1.33333)" d="M704.738 210.368C707.951 210.124 708.484 210.045 711.527 211.014L711.471 211.82L709.569 211.985C706.585 212.136 704.54 212.442 701.713 211.462L702.081 210.796L704.738 210.368Z"/><path fill="#326771" transform="scale(1.33333 1.33333)" d="M712.876 213.384L713.257 213.177C715.111 213.293 717.539 214.92 719.285 215.886C717.123 216.05 714.678 215.942 712.881 214.697L712.876 213.384Z"/><path fill="#0D957A" transform="scale(1.33333 1.33333)" d="M612.319 89.4065C616.965 91.8108 621.073 94.4563 625.382 97.4314C628.808 99.7961 632.782 107.836 636.828 106.646L637.646 105.124C637.533 100.597 632.161 96.0217 629.444 92.3C625.171 86.4489 626.311 70.1554 626.293 62.7925C626.289 61.1801 627.147 60.6471 628.101 59.9703C634.585 61.2555 641.756 74.9723 642.421 81.1066C642.535 82.1578 643.934 84.3958 644.97 84.872C647.897 80.2589 643.696 66.5954 646.128 60.9446C647.99 56.6185 655.524 42.8398 660.937 44.7085C664.863 49.1917 664.767 63.8643 665.063 70.3537C669.758 67.3537 678.457 59.6902 683.694 61.2245C686.892 65.9473 681.859 81.1242 676.502 84.144C672.004 86.6794 660.241 89.5062 663.38 96.9119C669.071 98.9157 680.157 86.7685 688.631 86.1548C692.814 87.6563 691.41 90.4379 690.887 94.1296C689.42 104.41 683.264 111.585 674.558 116.686C670.12 119.286 665.169 123.425 669.313 128.742C675.897 130.016 684.53 115.857 694.177 116.89C700.59 120.476 692.661 133.233 689.705 137.84C685.574 144.279 681.739 146.713 674.346 147.959C672.919 149.203 671.39 150.743 670.005 152.069C670.237 154.581 670.249 157.67 671.586 159.703C678.112 163.904 683.91 147.122 694.023 146.643C696.447 147.637 695.726 147.316 697.405 149.711L700.599 149.386C699.086 156.103 699.811 156.608 699.446 162.994L697.776 163.493L696.635 167.693C693.846 163.955 692.934 160.146 691.492 155.702C686.197 164.133 682.904 171.419 681.472 181.292C679.879 180.946 674.393 183.647 672.38 184.481C669.141 184.793 669.696 184.288 667.319 186.008C665.88 188.876 665.718 194.517 665.806 197.746L665.788 197.719C661.294 204.366 653.352 219.686 665.476 223.674C665.315 226.605 665.201 229.185 664.558 232.074C663.774 235.595 660.461 240.655 660.404 243.95L658.219 244.014C653.251 240.462 652.994 227.902 649.997 219.59C648.517 219.986 645.749 220.634 644.427 221.149C642.52 218.278 639.899 211.027 638.2 207.309C640.243 205.522 640.356 204.41 641.134 201.806C641.174 196.19 634.838 196.006 634.851 193.72C634.877 189.283 635.488 187.479 634.1 182.367L634.012 182.049L632.871 179.408C631.269 176.839 630.334 172.472 629.956 169.472C632.337 171.419 634.233 173.236 637.468 172.079L637.897 170.725C637.087 167.764 632.938 162.532 630.917 159.596C613.842 155.256 607.649 142.084 607.01 125.577C618.54 128.41 625.826 130.429 633.998 139.643C633.815 130.428 634.795 125.71 625.546 122.067C611.76 116.638 610.114 102.985 612.319 89.4065Z"/><path fill="#A3C1B4" transform="scale(1.33333 1.33333)" d="M651.897 192.945C649.997 164.714 646.355 137.695 649.438 109.245C649.517 108.516 648.308 105.856 648.078 104.755L649.772 104.1C651.515 91.8983 653.072 72.8507 656.133 61.7685L656.852 61.4616L656.719 61.9817C655.358 67.5177 655.566 75.2781 654.567 81.6528C647.773 125.029 650.436 169.392 656.746 212.633C657.173 215.561 661.357 222.996 661.191 224.863C654.882 224.739 652.701 200.736 652.255 196.032C644.007 186.405 645.205 186.766 634.012 182.049L632.871 179.408C637.146 181.75 638.611 182.164 643.171 183.436C645.599 185.995 649.898 190.263 651.897 192.945Z"/><path fill="#1D5B60" transform="scale(1.33333 1.33333)" d="M649.997 219.59C649.476 217.522 649.171 216.548 649.126 214.36L649.76 214.12L649.592 215.533L650.618 215.764C654.028 225.443 655.526 237.582 658.219 244.014C653.251 240.462 652.994 227.902 649.997 219.59Z"/><path fill="#EEE9E4" transform="scale(1.33333 1.33333)" d="M700.599 149.386C699.086 156.103 699.811 156.608 699.446 162.994L697.776 163.493C696.968 158.236 697.206 155.011 697.405 149.711L700.599 149.386Z"/><path fill="#ABBFB9" transform="scale(1.33333 1.33333)" d="M682.798 129.02L683.658 130.07C681.873 137.146 674.265 139.523 668.017 140.846C664.438 144.664 657.378 153.945 654.332 156.508C657.373 149.5 661.663 144.727 666.283 138.577C675.228 139.916 677.858 135.684 682.798 129.02Z"/><path fill="#A3C1B4" transform="scale(1.33333 1.33333)" d="M616.859 137.591C621.321 139.252 624.798 145.465 629.246 147.833C630.798 148.659 635.493 149.678 637.384 150.107C639.224 151.999 645.578 160.992 647.537 163.609C638.297 160.447 642.812 151.957 628.289 149.946C623.956 146.414 620.364 141.909 616.859 137.591Z"/><path fill="#ABBFB9" transform="scale(1.33333 1.33333)" d="M619.644 102.805C624.744 105.822 622.422 107.641 625.773 110.793C631.137 115.84 642.635 115.445 645.769 123.279C643.476 122.612 640.192 119.37 637.803 118.445C625.913 113.84 623.741 115.096 619.644 102.805Z"/><path fill="#A3C1B4" transform="scale(1.33333 1.33333)" d="M677.956 167.143C678.916 167.519 678.526 167.21 678.995 168.254C674.969 173.927 669.06 174.23 663.482 177.572C663.022 177.848 658.258 186.124 657.524 187.352L656.903 187.422L656.525 186.641C657.724 182.597 661.779 177.019 664.357 173.621C671.382 172.176 672.46 171.397 677.956 167.143Z"/><path fill="#ABBFB9" transform="scale(1.33333 1.33333)" d="M679.055 98.3407C680.425 105.141 662.754 111.932 660.316 117.92C659.946 118.83 656.771 121.953 655.876 122.791C655.731 120.579 661.253 113.367 662.909 110.958C671.594 108.074 672.377 104.9 679.055 98.3407Z"/><path fill="#A3C1B4" transform="scale(1.33333 1.33333)" d="M633.039 74.6012C637.572 77.8264 637.549 87.7516 639.95 92.187C642.432 96.773 645.303 98.855 647.751 104.005C638.831 98.9848 635.389 83.7103 633.039 74.6012Z"/><path fill="#ABBFB9" transform="scale(1.33333 1.33333)" d="M672.347 74.1728L672.393 74.9712C670.486 79.6348 663.683 83.3274 659.377 86.0969L659.229 85.1187C660.286 83.3178 669.788 76.306 672.347 74.1728Z"/><path fill="#1D5B60" transform="scale(1.33333 1.33333)" d="M702.717 706.972C709.486 702.593 721.804 698.627 727.236 706.979C732.817 711.031 773.725 705.08 778.201 711.553C775.985 714.618 733.163 709.556 725.726 711.494C721.335 712.352 718.083 712.492 713.643 712.762C711.901 712.662 711.817 712.632 710.204 713.214L712.839 713.832C717.838 714.388 722.262 714.141 727.275 713.985C728.79 715.137 728.367 714.413 728.756 716.117C724.369 721.011 685.955 715.264 677.404 715.61C667.657 716.004 645.973 720.718 638.176 717.562C637.05 715.534 637.354 716.368 637.68 713.475C637.81 714.043 637.856 714.9 638.227 714.974C646.991 716.723 662.141 713.41 669.996 712.293L669.971 711.164C672.288 711.027 672.579 710.908 674.685 709.914L677.257 710.497C678.872 707.688 687.736 704.672 691.102 703.279C696.74 703.322 698.061 703.62 702.717 706.972ZM725.697 707.531C721.224 706.432 713.741 704.753 709.764 707.741L709.768 708.19L710.154 707.867L710.698 708.584L714.51 708.739C718.957 708.197 720.777 708.72 725.697 707.531Z"/><path fill="#EEE9E4" fill-opacity="0.019607844" transform="scale(1.33333 1.33333)" d="M714.51 708.739L710.698 708.584L710.154 707.867L709.768 708.19L709.764 707.741C713.741 704.753 721.224 706.432 725.697 707.531C720.777 708.72 718.957 708.197 714.51 708.739Z"/><path fill="#326771" transform="scale(1.33333 1.33333)" d="M725.697 707.531L727.236 706.979C732.817 711.031 773.725 705.08 778.201 711.553C775.985 714.618 733.163 709.556 725.726 711.494C721.335 712.352 718.083 712.492 713.643 712.762C717.39 711.206 719.825 710.965 723.778 710.35C720.561 709.987 718.268 709.759 715.14 708.913L714.51 708.739C718.957 708.197 720.777 708.72 725.697 707.531Z"/><path fill="#EEE9E4" transform="scale(1.33333 1.33333)" d="M678.791 712.013C683.22 709.904 691.281 705.34 695.703 706.383L696.081 707.065C694.06 707.831 692.215 708.044 691.41 709.551C694.461 711.906 706.478 711.035 710.204 713.214L712.839 713.832C707.153 714.739 685.665 712.566 678.791 712.013Z"/><path fill="#6A8B8D" transform="scale(1.33333 1.33333)" d="M674.685 709.914L677.257 710.497L677.673 711.837C675.292 712.749 672.446 713.113 669.996 712.293L669.971 711.164C672.288 711.027 672.579 710.908 674.685 709.914Z"/><path fill="#1D5B60" transform="scale(1.33333 1.33333)" d="M596.722 710.767C599.312 709.246 610.767 702.09 613.212 702.494C617.665 703.232 623.768 706.694 628.535 707.751L629.031 707.857C641.568 705.271 646.807 705.559 659.543 707.041L662.019 706.907C667.441 707.168 669.663 707.859 674.685 709.914C672.579 710.908 672.288 711.027 669.971 711.164L669.996 712.293C662.141 713.41 646.991 716.723 638.227 714.974C637.856 714.9 637.81 714.043 637.68 713.475C635.901 711.576 635.598 711.991 632.675 711.172C627.439 712.905 609.631 720.116 605.443 717.036L605.337 715.809C610.999 713.579 617.147 712.278 622.701 710.114C619.784 708.86 616.857 707.631 613.919 706.428C608.733 707.825 602.069 711.362 597.123 713.841C592.424 713.43 589.131 712.863 584.503 712.004L586.947 709.228C590.203 709.911 593.43 710.315 596.722 710.767Z"/><path fill="#EEE9E4" transform="scale(1.33333 1.33333)" d="M632.675 711.172C636.74 707.606 663.792 710.091 669.971 711.164L669.996 712.293C662.141 713.41 646.991 716.723 638.227 714.974C637.856 714.9 637.81 714.043 637.68 713.475C635.901 711.576 635.598 711.991 632.675 711.172Z"/><path fill="#326771" transform="scale(1.33333 1.33333)" d="M584.503 712.004C581.37 712.275 575.961 713.222 573.648 711.306L574.285 710.349C578.803 708.426 582.073 708.978 586.947 709.228L584.503 712.004Z"/><path fill="#EEE9E4" fill-opacity="0.027450981" transform="scale(1.33333 1.33333)" d="M713.643 712.762C718.083 712.492 721.335 712.352 725.726 711.494L728.197 712.507L728.124 713.463L727.275 713.985C722.262 714.141 717.838 714.388 712.839 713.832L710.204 713.214C711.817 712.632 711.901 712.662 713.643 712.762Z"/></svg>