<?xml version="1.0" encoding="utf-8" ?><svg xmlns="http://www.w3.org/2000/svg" xmlns:xlink="http://www.w3.org/1999/xlink" width="1792" height="1024" viewBox="0 0 1792 1024"><path fill="#E5C68F" transform="scale(1.33333 1.33333)" d="M713.787 297.488C722.235 296.88 728.148 297.645 736.045 297.948C755.763 298.707 762.189 298.665 780.474 305.752C774.022 313.86 767.988 322.464 761.802 330.784C760.155 332.999 758.529 337.238 759.562 339.929L760.533 340.037C765.391 337.063 778.909 315.108 785.923 307.532C799.082 311.982 810.888 320.603 817.245 333.167C813.245 339.687 797.591 356.029 798.905 362.817L800.043 363.186C803.507 362.038 816.145 343.737 819.337 339.407C822.951 355.415 819.692 365.009 816.261 380.447C826.197 378.467 831.428 376.047 842.891 374.6C842.533 374.969 842.181 375.344 841.835 375.725C838.366 379.547 824.103 397.3 824.32 402.032C825.801 403.082 825.259 402.769 827.359 402.828C832.556 398.905 842.984 382.2 848.181 376.499C853.333 370.847 857.529 372.608 863.957 371.484C870.18 370.395 901.361 372.279 905.101 375.625C907.341 383.159 887.824 395.035 887.639 402.971C888.793 404.746 888.161 404.329 889.942 404.895C897.806 401.636 904.608 384.98 912.187 380.191C921.056 374.586 935.87 387.694 940.079 394.553C936.634 399.745 922.557 416.023 923.328 421.19L924.849 422.242C930.676 421.272 937.386 404.453 943.995 403.081C951.504 401.523 953.296 421.342 953.897 425.784C944.528 449.416 925.065 453.872 901.864 456.188C904.28 452.639 913.129 442.702 911.138 438.921L909.746 438.644C905.566 440.226 897.963 452.013 894.186 456.378C881.931 461.024 859.808 459.103 846.57 459.388C850.887 453.314 860.228 441.695 861.376 435.192L860.602 434.581C854.503 436.491 843.467 452.946 839.307 458.526C815.165 462.829 792.059 462.475 767.735 459.917C770.042 455.04 778.878 444.796 777.55 440.386L776.391 439.776C771.268 440.865 763.159 454.76 760.017 459.553C743.421 459.253 728.66 461.057 713.361 460.815C715.606 457.372 721.535 448.783 722.381 445.004C720.749 443.829 721.476 444.134 719.141 444.237C710.056 448.638 711.928 461.316 699.648 462.676C693.846 463.309 678.394 462.201 672.559 461.119C676.716 451.946 682.511 447.266 686.716 436.079L686.308 435.307C678.969 434.61 670.357 455.094 664.874 461.332L664.404 461.858C651.402 463.552 633.354 461.55 620.236 459.826C623.086 455.032 635.561 438.104 635.391 434.956L634.198 434.515C627.106 435.498 618.288 453.874 612.33 459.506C595.114 457.566 579.014 459.517 562.766 456.463C563.896 453.93 566.139 450.624 563.903 448.463C559.83 449.016 557.268 453.065 554.666 456.225C546.291 456.174 538.927 456.167 530.541 456.633L526.12 452.641C520.156 456.123 518.339 456.983 511.336 457.508C501.256 458.264 490.409 458.03 480.437 459.35L479.763 459.442C482.202 455.589 494.194 438.851 491.922 435.199C486.485 436.419 474.846 454.911 472.477 460.412C467.687 460.906 458.84 462.017 454.316 461.88C445.46 461.611 436.84 460.933 427.874 460.724C432.973 453.635 438.719 447.281 443.951 440.324C445.336 438.483 445.756 436.479 444.576 434.463L442.965 434.547C436.876 437.958 425.892 453.895 421.151 460.393C400.26 462.058 366.036 453.125 388.648 426.922C404.239 408.855 421.026 403 444.112 401.427C441.415 405.43 431.795 417.587 432.289 421.194C437.549 425.016 447.7 405.095 451.585 400.77L452.026 400.288C459.214 401.032 465.933 401.411 473.151 401.748C475.371 394.278 476.439 379.905 483.499 374.327C484.304 373.691 486.095 374.628 487.171 374.995C492.295 374.059 506.329 350.872 512.609 345.803C524.74 336.01 539.067 338.042 553.563 339.078C562.195 339.695 569.821 340.126 577.882 343.294C582.903 345.267 590.362 353.654 595.99 353.818C599.64 353.925 603.42 345.361 606.736 342.05C630.003 318.821 651.991 306.673 684.514 301.396C691.552 300.254 698.117 297.811 705.68 297.838C701.547 303.941 684.522 323.99 684.903 329.43L685.913 330.129C693.375 328.584 705.246 300.917 713.787 297.488ZM639.409 407.598C643.788 402.505 669.632 364.858 670.434 360.21C669.349 358.981 669.189 358.97 667.671 358.256C658.447 365.926 642.98 393.735 636.066 404.865C635.362 405.998 638.655 407.288 639.409 407.598ZM684.893 414.384C690.115 408.859 713.672 374.531 714.503 367.787C713.292 366.643 712.57 366.619 710.9 366.166C707.413 371.217 681.206 410.346 681.376 412.679C682.862 413.874 683.014 413.86 684.893 414.384ZM832.64 436.606C842.505 426.512 851.602 410.47 861.627 399.913C862.412 399.087 863.504 396.974 863.508 395.819C861.615 394.365 861.774 394.778 859.117 394.421C854.034 400.192 830.001 428.572 829.331 434.495C830.539 435.997 830.732 435.969 832.64 436.606ZM624.309 360.376C629.112 356.911 650.106 328.383 651.296 323.241C650.782 321.339 651.204 322.025 649.477 320.752C644.673 324.269 623.576 352.642 621.698 357.939C622.662 359.736 622.344 359.173 624.309 360.376ZM500.158 397.04C503.932 393.933 525.361 365.898 525.275 363.001C523.866 361.969 523.802 361.944 522.095 361.503C519.242 363.93 498.313 390.338 496.794 393.613C497.279 395.373 498.401 396.343 500.158 397.04ZM694.908 359.525C698.668 355.6 716.18 328.205 716.541 323.77C715.257 322.537 715.654 322.921 713.593 322.544C709.363 327.176 692.231 352.149 691.527 357.576C692.638 359.094 692.907 358.815 694.908 359.525ZM764.527 377.387C768.002 373.374 787.213 346.76 787.832 343.075C786.442 341.858 786.285 341.925 784.354 341.757C779.911 347.005 758.548 371.794 762.218 377.279L764.527 377.387ZM511.698 441.679C515.888 438.121 529.062 416.072 529.533 411.001C528.355 409.428 527.432 409.373 525.375 409.211C522.117 412.815 508.655 435.403 508.365 439.816C509.091 441.331 509.662 442.095 511.698 441.679ZM593.732 444.369C597.022 440.832 612.249 419.737 613.908 415.713L613.788 414.629C612.191 413.823 611.834 413.575 610.109 413.215C605.82 418.952 592.02 436.393 590.543 441.882L590.873 443.387C592.501 444.316 592.193 444.484 593.732 444.369ZM561.696 346.959C557.288 352.262 541.496 370.717 540.272 376.178L540.645 377.687L542.566 378.39C546.489 374.758 562.895 353.646 564.19 348.953C563.478 347.466 563.566 347.891 561.696 346.959ZM793.793 453.803C797.32 450.214 811.753 430.532 810.999 426.266C809.421 425.438 809.154 425.3 807.404 425C804.562 429.059 789.852 448.751 790.342 452.63C791.933 453.447 792.044 453.494 793.793 453.803ZM745.639 360.916C742.16 366.552 728.087 387.919 727.472 392.918L727.981 394.343C728.999 394.691 729.85 395.16 730.81 394.834C733.56 391.012 750.413 365.041 749.921 361.947C748.327 360.841 747.626 360.993 745.639 360.916ZM734.139 335.294C739.853 330.145 751.324 313.145 753.469 305.663C752.665 304.351 753.194 304.833 751.85 304.141C744.494 310.102 735.421 324.599 732.049 333.7C731.725 334.573 733.532 335.119 734.139 335.294ZM483.546 409.243C479.119 414.994 463.332 434.435 462.007 440.12C462.958 441.6 463.425 441.43 465.266 442.216C468.253 438.587 486.022 415.034 486.565 411.933C485.528 410.341 485.203 410.207 483.546 409.243ZM901.096 418.634C896.931 422.43 879.337 437.759 882.477 443.335L884.778 444.105C888.346 440.547 903.455 423.849 904.788 419.969C903.43 418.782 902.983 418.885 901.096 418.634ZM552.235 441.97C556.25 437.625 572.326 415.16 575.011 409.865L574.727 409.133C573.505 408.89 572.161 408.591 570.939 408.405C568.198 411.93 548.302 437.763 548.431 440.32C550.03 441.209 550.485 441.465 552.235 441.97ZM399.819 448.575C403.345 444.674 411.145 436.655 411.597 431.732C410.559 429.939 409.752 430.036 407.62 429.665C404.301 433.491 396.424 442.053 396.089 446.932L396.676 448.075C397.711 448.286 398.771 448.56 399.819 448.575ZM664.662 410.774C661.172 415.244 647.123 436.666 645.349 441.572C646.309 442.99 647.346 443.1 649.015 443.646C652.497 439.08 668.323 416.175 668.323 411.719C666.968 410.679 666.474 410.836 664.662 410.774ZM612.029 379.584C609.077 383.138 590.79 406.992 590.745 410.083C591.959 411.427 592.473 411.382 594.325 411.856C598.291 408.06 615.33 385.148 615.778 380.71C614.3 380.176 613.56 379.914 612.029 379.584ZM723.987 404.716C719.993 408.573 702.81 431 701.927 435.589C703.231 436.743 703.405 436.737 705.093 437.308C708.636 434.171 726.722 411.05 727.572 406.802L726.857 405.439C725.916 405.147 724.959 404.784 723.987 404.716ZM572.049 374.712C568.176 379.544 549.187 403.266 548.822 407.015C550.362 407.967 550.654 408.051 552.415 408.498C556.399 405.052 575.189 380.368 575.765 376.089C574.141 375.106 573.94 375.116 572.049 374.712ZM764.592 400.203C759.749 405.636 743.392 427.922 742.235 434.051C743.323 436.093 742.828 435.382 745.103 436.858C748.903 432.353 766.498 406.377 767.621 401.621C766.266 400.712 766.165 400.671 764.592 400.203Z"/></svg>