<?xml version="1.0" encoding="utf-8" ?><svg xmlns="http://www.w3.org/2000/svg" xmlns:xlink="http://www.w3.org/1999/xlink" width="1792" height="1024" viewBox="0 0 1792 1024"><path fill="#069379" transform="scale(1.33333 1.33333)" d="M638.053 170.064C642.572 173.508 655.188 180.52 661.571 184.801C661.812 188.842 662.167 193.247 662.209 197.267C662.628 200.092 663.621 208.532 665.139 210.295C666.227 208.614 665.874 208.119 665.922 205.891C669.33 208.302 671.085 207.992 671.545 212.402L671.365 213.925C671.499 218.208 678.085 222.954 678.794 227.098C679.603 231.827 679.025 239.191 679.026 244.136L687.169 236.111L688.086 235.721C688.151 235.694 689.318 235.219 689.378 235.175C693.287 232.352 699.679 235.019 702.855 231.581C704.155 230.174 705.178 229.859 706.934 229.215L707.591 228.979C717.496 231.214 719.962 234.312 730.381 231.98L730.779 234.249L739.446 232.108C739.698 229.941 741.174 227.038 742.366 225.212L741.439 224.686C744.168 221.6 746.249 218.279 749.524 214.678L750.371 214.742C755.049 214.907 759.577 212.971 762.911 213.418C768.514 213.668 769.631 213.201 774.554 210.394C778.919 201.726 779.716 199.502 787.509 193.604L787.321 192.81C788.041 192.502 787.569 192.649 788.265 192.542C794.532 191.575 798.228 190.354 803.298 186.738C808.209 186.023 816.353 184.272 820.925 185.473C828.685 191.765 798.75 211.521 797.952 213.777C800.208 214.983 804.776 213.909 807.327 213.284C812.314 212.061 815.647 206.274 818.694 203.926C828.909 196.056 842.187 191.104 855.106 190.563C858.257 190.431 864.261 189.279 866.811 190.366C868.062 194.108 852.903 211.835 848.234 213.097C843.589 214.351 838.127 213.078 835.61 219.51C837.008 220.19 837.814 220.601 839.124 221.431C842.823 220.342 845.576 219.64 849.354 218.847L850.011 218.769C852.711 218.423 866.399 212.1 869.228 210.013C875.966 205.044 904.101 208.038 905.502 216.271C903.689 220.552 894.681 225.819 890.592 227.719C885.162 230.243 873.69 230.315 870.571 232.062L870.687 233.014C880.642 239.718 889.157 236.425 900.274 236.178C908.055 236.005 915.575 242.016 921.076 246.94C922.992 248.655 927.36 251.656 927.965 254.029C925.842 258.073 909.335 257.423 904.493 257.454C911.261 262.639 920.537 269.919 921.811 278.982L921.214 280.034C913.067 281.144 903.561 284.543 896.758 279.499C889.325 273.988 891.86 266.717 881.563 266.648L880.905 267.244C880.71 272.772 882.098 290.281 875.585 291.047C867.498 288.611 860.193 277.48 858.272 269.355C851.246 262.658 848.097 255.802 841.972 249.036C843.461 256.483 845.117 274.774 842.286 281.458C838.565 283.642 833.244 279.481 830.199 277.265C823.435 280.382 818.135 282.553 810.761 284.022C807.293 284.713 803.754 285.002 800.435 285.962C816.065 289.416 822.109 289.094 837.895 288.713C849.341 288.437 868.924 294.44 878.793 300.307C868.082 303.21 857.57 305.73 846.419 306.364C844.376 306.48 842.541 306.305 840.694 307.239L840.839 307.896C846.49 310.602 854.507 309.373 859.973 310.337C867.707 311.7 895.721 332.69 894.237 339.508C889.045 343.312 877.043 337.968 872.406 345.309C873.883 346.84 880.601 347.19 883.162 347.439C886.747 352.491 893.178 368.614 892.308 375.026L891.335 376.526C887.298 376.998 879.188 370.22 875.169 367.48C873.251 369.11 871.506 371.017 869.091 371.319C863.169 369.805 862.324 362.073 862.618 356.788C856.196 352.766 853.166 347.381 849.471 345.529L848.541 345.812C848.261 347.772 849.031 351.478 849.566 353.492C851.789 361.867 847.705 370.02 842.611 376.829C835.36 367.227 830.641 356.823 835.187 344.879C831.022 341.144 829.074 339.441 826.791 334.189L824.608 335.842C825.578 343.827 825.484 355.296 819.238 361.62C816.107 364.789 811.534 361.37 809.623 358.242C804.039 349.103 805.807 339.21 808.024 329.4C800.336 325.073 800.682 324.383 795.172 317.673C795.021 325.399 795.679 326.039 797.342 333.202C796.688 339.605 794.024 345.682 790.855 351.255C788.43 348.515 785.959 345.816 783.441 343.162C778.049 338.63 775.966 331.085 777.716 324.38C779.03 319.346 781.716 317.097 785.098 313.319C778.497 308.836 777.326 308.107 772.51 302.035L772.576 311.646C770.452 313.838 768.017 317.471 766.18 320.032C767.906 324.296 770.825 333.315 772.907 336.882C783.805 355.547 788.173 376.895 764.258 389.758C758.906 388.329 753.143 387.697 748.566 385.259C746.113 383.93 744.44 382.018 742.469 380.042C739.802 377.318 737.919 373.066 736.48 369.596C734.411 364.799 733.788 361.863 733.526 356.69C733.691 352.745 734.192 348.001 734.521 344.001C732.282 335.412 732.167 328.417 733.917 319.796L733.073 318.736C731.271 319.85 730.845 320.267 728.776 320.087C727.081 318.776 726.877 316.691 726.29 314.481C720.604 312.255 713.528 309.86 707.538 308.641C708.234 311.012 709.349 313.713 708.732 315.974L706.934 317.891C714.907 333.317 721.265 341.523 711.488 358.458C708.289 363.322 703.53 368.685 698.536 371.825C695.113 371.361 691.89 370.957 688.504 370.22C688.37 370.032 680.544 366.526 679.557 366.042C678.865 365.529 678.211 364.969 677.597 364.365C672.484 359.427 668.803 348.774 668.687 341.877C668.574 339.664 668.241 336.943 668.028 334.693C668.106 333.372 667.994 331.05 667.974 329.643C667.322 327.034 665.957 323.62 665.007 321.022C657.417 325.561 657.192 314.302 656.235 309.062L649.43 309.531C649.294 304.736 648.978 299.786 647.709 295.15C648.497 291.4 647.997 290.679 650.325 288.067C652.064 288.039 653.453 287.298 655.09 286.634C656.573 284.166 660.028 281.022 662.172 278.898C662.262 277.165 662.411 277.85 661.331 276.283C657.624 275.569 652.285 279.687 650.033 282.376C649.023 284 649.618 283.494 647.887 284.342C644.147 283.669 639.539 285.698 636.209 287.196L635.76 287.735C634.451 288.238 634.532 287.98 633.799 288.928L631.629 288.784C629.911 286.823 630.46 285.748 630.001 282.476L630.332 278.905L630.877 275.976C631.246 272.544 631.379 269.133 632.864 266.027C634.776 261.014 636.318 263.34 636.522 258.673C633.159 259.885 631.557 261.034 628.438 260.153L630.168 257.999L626.293 259.147L621.111 257.333C619.09 253.293 616.176 251.723 612.558 249.133L611.955 249.546L608.066 248.448C603.969 245.338 598.053 243.153 593.213 241.304C587.519 249.643 581.086 263.475 569.807 266.472L569.09 266.598C564.523 258.02 567.842 244.787 565.231 242.66C553.174 244.823 558.205 253.283 555.897 261.226C555.244 263.473 551.456 268.842 551.484 270.636C550.686 271.404 538.102 276.936 536.504 277.425C530.547 268.329 535.321 265.52 533.367 256.108C533.206 255.332 532.326 255.324 531.38 255.065C527.005 256.191 522.49 260.338 518.891 263.245C517.125 268.389 516.485 270.16 513.746 274.851C514.147 277.429 514.338 280.032 514.568 282.632C511.365 287.703 499.902 301.958 493.403 297.664C490.539 292.804 492.02 282.05 492.361 276.103L488.108 274.107L479.944 284.362C479.349 298.585 472.85 317.93 458.481 323.415C452.35 315.02 452.915 309.44 451.984 299.185L451.108 299.055C445.287 303.573 444.218 315.689 442.148 322.393C439.662 330.445 437.142 328.611 431.543 326.173C431.266 324.835 431.278 324.039 430.252 323.174C425.297 328.529 413.017 344.417 405.068 339.642C404.491 336.65 412.137 314.559 414.689 311.179C416.955 308.177 422.627 305.956 422.438 301.369L421.337 301.25L422.602 301.636C415.757 300.57 406.48 312.928 399.315 308.457C396.779 304.098 399.561 301.113 401.249 296.965C405.698 286.034 413.746 278.614 424.946 275.042C428.607 273.874 433.073 274.294 436.041 271.31C436.465 269.33 436.459 270.109 435.441 267.972C433.405 266.786 412.802 269.847 405.372 268.764C406.57 266.929 407.818 265.128 409.116 263.362C427.692 238.325 465.042 251.038 473.358 239.569C472.158 238.224 442.124 231.325 445.795 224.12C459.274 214.918 482.887 213.443 498.269 218.269C499.802 218.749 503.612 221.452 505.127 222.504C508.789 222.733 515.219 222.957 518.683 221.915L518.878 221.233C517.443 219.591 514.498 218.066 512.419 217.136C507.116 214.762 494.899 203.355 496.274 197.145C501.656 194.2 514.518 200.021 519.866 200.879C536.847 203.605 536.739 203.186 548.023 215.985C550.605 216.804 555.068 218.192 557.629 217.112C557.095 215.444 556.032 215.282 554.19 214.118L554.713 213.335C559.56 214.539 564.514 215.257 569.503 215.48C576.491 215.788 583.258 215.453 588.547 210.593L592.804 215.985C588.606 220.228 587.328 221.772 583.815 226.795L584.127 228.075L585.526 229.248C586.584 229.426 590.837 230.202 591.653 230.2C599.344 230.06 604.136 231.606 612.288 229.687C617.477 232.181 631.494 233.37 637.023 232.866C641.681 233.258 643.465 234.072 647.709 236.043L649.248 235.494L649.243 236.542L654.133 242.801L656.431 242.504C656.314 239.396 656.377 236.603 656.458 233.492L655.705 232.703L656.006 232.208C657.462 226.351 659.36 219.903 655.602 214.842C656.86 207.916 660.512 191.662 653.75 187.088C646.649 186.509 644.15 199.63 638.108 201.983L636.881 201.18C635.401 198.593 635.125 195.465 634.657 192.499C639.691 182.765 640.468 180.509 638.053 170.064ZM810.529 247.797C807.922 245.94 803.255 243.223 800.048 244.338C795.923 250.529 803.366 255.677 799.14 267.061C798.842 267.201 798.541 267.335 798.237 267.462C795.651 268.532 794.852 268.505 792.359 267.43C779.672 256.906 780.041 264.658 769.113 245.192C767.74 244.474 766.343 243.805 764.923 243.186C762.448 242.079 758.807 240.227 756.246 241.206C756.19 243.283 760.279 248.407 760.702 250.381C761.29 253.13 761.637 257.292 761.924 260.138L762.995 260.855C758.155 261.371 748.9 261.234 743.717 261.289C739.877 257.38 739.041 255.528 737.246 250.34C732.971 247.117 728.631 244.454 723.675 242.375C718.601 243.963 717.412 244.472 713.235 247.64C719.649 249.094 727.953 250.589 732.125 256.113C733.541 263.137 725.681 261.918 723.759 264.56L724.609 265.703C724.018 267.343 723.659 268.401 723.26 270.095C723.498 270.398 724.131 271.257 724.386 271.445L723.071 272.419C724.89 273.406 727.044 273.468 729.15 273.727C728.477 274.625 727.192 276.228 726.683 277.132C721.793 276.43 716.24 275.506 711.383 275.012C715.921 278.052 719.532 280.444 724.689 282.478C723.56 287.846 725.049 309.037 726.29 314.481C726.877 316.691 727.081 318.776 728.776 320.087C730.845 320.267 731.271 319.85 733.073 318.736L733.917 319.796C732.167 328.417 732.282 335.412 734.521 344.001C734.192 348.001 733.691 352.745 733.526 356.69C733.788 361.863 734.411 364.799 736.48 369.596C737.919 373.066 739.802 377.318 742.469 380.042C744.44 382.018 746.113 383.93 748.566 385.259C753.143 387.697 758.906 388.329 764.258 389.758C788.173 376.895 783.805 355.547 772.907 336.882C770.825 333.315 767.906 324.296 766.18 320.032C768.017 317.471 770.452 313.838 772.576 311.646L772.51 302.035C777.326 308.107 778.497 308.836 785.098 313.319C781.716 317.097 779.03 319.346 777.716 324.38C775.966 331.085 778.049 338.63 783.441 343.162C785.959 345.816 788.43 348.515 790.855 351.255C794.024 345.682 796.688 339.605 797.342 333.202C795.679 326.039 795.021 325.399 795.172 317.673C800.682 324.383 800.336 325.073 808.024 329.4C805.807 339.21 804.039 349.103 809.623 358.242C811.534 361.37 816.107 364.789 819.238 361.62C825.484 355.296 825.578 343.827 824.608 335.842L826.791 334.189C829.074 339.441 831.022 341.144 835.187 344.879C830.641 356.823 835.36 367.227 842.611 376.829C847.705 370.02 851.789 361.867 849.566 353.492C849.031 351.478 848.261 347.772 848.541 345.812L849.471 345.529C853.166 347.381 856.196 352.766 862.618 356.788C862.324 362.073 863.169 369.805 869.091 371.319C871.506 371.017 873.251 369.11 875.169 367.48C879.188 370.22 887.298 376.998 891.335 376.526L892.308 375.026C893.178 368.614 886.747 352.491 883.162 347.439C880.601 347.19 873.883 346.84 872.406 345.309C877.043 337.968 889.045 343.312 894.237 339.508C895.721 332.69 867.707 311.7 859.973 310.337C854.507 309.373 846.49 310.602 840.839 307.896L840.694 307.239C842.541 306.305 844.376 306.48 846.419 306.364C857.57 305.73 868.082 303.21 878.793 300.307C868.924 294.44 849.341 288.437 837.895 288.713C822.109 289.094 816.065 289.416 800.435 285.962C803.754 285.002 807.293 284.713 810.761 284.022C818.135 282.553 823.435 280.382 830.199 277.265C832.717 275.871 834.169 275.083 835.2 272.565L834.534 271.031C830.848 268.466 827.621 268.666 823.215 268.513C815.966 259.905 815.136 258.213 810.529 247.797Z"/><path fill="#06434D" transform="scale(1.33333 1.33333)" d="M762.995 260.855C770.841 261.076 775.658 261.201 782.633 265.135C786.76 267.463 787.51 268.924 792.359 267.43C794.852 268.505 795.651 268.532 798.237 267.462C798.541 267.335 798.842 267.201 799.14 267.061C805.854 267.568 816.795 268.715 823.215 268.513C827.621 268.666 830.848 268.466 834.534 271.031L835.2 272.565C834.169 275.083 832.717 275.871 830.199 277.265C823.435 280.382 818.135 282.553 810.761 284.022C807.293 284.713 803.754 285.002 800.435 285.962C816.065 289.416 822.109 289.094 837.895 288.713C849.341 288.437 868.924 294.44 878.793 300.307C868.082 303.21 857.57 305.73 846.419 306.364C844.376 306.48 842.541 306.305 840.694 307.239L840.839 307.896C846.49 310.602 854.507 309.373 859.973 310.337C867.707 311.7 895.721 332.69 894.237 339.508C889.045 343.312 877.043 337.968 872.406 345.309C873.883 346.84 880.601 347.19 883.162 347.439C886.747 352.491 893.178 368.614 892.308 375.026L891.335 376.526C887.298 376.998 879.188 370.22 875.169 367.48C873.251 369.11 871.506 371.017 869.091 371.319C863.169 369.805 862.324 362.073 862.618 356.788C856.196 352.766 853.166 347.381 849.471 345.529L848.541 345.812C848.261 347.772 849.031 351.478 849.566 353.492C851.789 361.867 847.705 370.02 842.611 376.829C835.36 367.227 830.641 356.823 835.187 344.879C831.022 341.144 829.074 339.441 826.791 334.189L824.608 335.842C825.578 343.827 825.484 355.296 819.238 361.62C816.107 364.789 811.534 361.37 809.623 358.242C804.039 349.103 805.807 339.21 808.024 329.4C800.336 325.073 800.682 324.383 795.172 317.673C795.021 325.399 795.679 326.039 797.342 333.202C796.688 339.605 794.024 345.682 790.855 351.255C788.43 348.515 785.959 345.816 783.441 343.162C778.049 338.63 775.966 331.085 777.716 324.38C779.03 319.346 781.716 317.097 785.098 313.319C778.497 308.836 777.326 308.107 772.51 302.035L772.576 311.646C770.452 313.838 768.017 317.471 766.18 320.032C767.906 324.296 770.825 333.315 772.907 336.882C783.805 355.547 788.173 376.895 764.258 389.758C758.906 388.329 753.143 387.697 748.566 385.259C746.113 383.93 744.44 382.018 742.469 380.042C739.802 377.318 737.919 373.066 736.48 369.596C734.411 364.799 733.788 361.863 733.526 356.69C733.691 352.745 734.192 348.001 734.521 344.001C732.282 335.412 732.167 328.417 733.917 319.796L733.073 318.736C731.271 319.85 730.845 320.267 728.776 320.087C727.081 318.776 726.877 316.691 726.29 314.481C725.049 309.037 723.56 287.846 724.689 282.478L726.683 277.132C727.192 276.228 728.477 274.625 729.15 273.727C727.044 273.468 724.89 273.406 723.071 272.419L724.386 271.445C724.131 271.257 723.498 270.398 723.26 270.095C723.659 268.401 724.018 267.343 724.609 265.703C729.932 265.813 738.24 262.747 743.717 261.289C748.9 261.234 758.155 261.371 762.995 260.855ZM752.294 301.95C753.764 300.41 756.134 298.331 757.748 296.82C754.204 293.729 749.869 286.316 745.652 289.482C748.918 293.361 750.146 297.333 752.294 301.95ZM773.605 272.287L776.454 271.652C775.328 270.73 771.921 270.941 770.403 271.085C769.87 271.137 769.338 271.198 768.807 271.269L766.43 272.569L766.435 273.237C769.479 273.25 770.617 272.951 773.605 272.287Z"/><path fill="#F6A025" transform="scale(1.33333 1.33333)" d="M739.41 311.044L751.82 305.053C750.773 309.892 746.56 331.404 752.031 333.29C755.508 331.88 763.084 323.289 766.18 320.032C767.906 324.296 770.825 333.315 772.907 336.882C783.805 355.547 788.173 376.895 764.258 389.758C758.906 388.329 753.143 387.697 748.566 385.259C746.113 383.93 744.44 382.018 742.469 380.042C739.802 377.318 737.919 373.066 736.48 369.596C734.411 364.799 733.788 361.863 733.526 356.69C733.691 352.745 734.192 348.001 734.521 344.001C732.282 335.412 732.167 328.417 733.917 319.796L733.073 318.736C733.575 316.812 737.82 312.701 739.41 311.044Z"/><path fill="#EEB55A" transform="scale(1.33333 1.33333)" d="M736.48 369.596C738.78 365.589 735.329 363.937 740.194 360.502C740.725 362.922 740.639 362.094 741.303 363.739C743.508 369.196 739.797 369.124 745.38 373.327C741.679 375.295 742.306 375.836 742.469 380.042C739.802 377.318 737.919 373.066 736.48 369.596Z"/><path fill="#F4AF4A" transform="scale(1.33333 1.33333)" d="M745.38 373.327C747.872 375.875 749.439 377.491 751.577 380.317C750.638 381.896 750.486 382.159 749.096 383.348L748.566 385.259C746.113 383.93 744.44 382.018 742.469 380.042C742.306 375.836 741.679 375.295 745.38 373.327Z"/><path fill="#F4AF4A" transform="scale(1.33333 1.33333)" d="M733.526 356.69C734.82 354.991 735.517 355 737.581 354.406L740.194 360.502C735.329 363.937 738.78 365.589 736.48 369.596C734.411 364.799 733.788 361.863 733.526 356.69Z"/><path fill="#EEB55A" transform="scale(1.33333 1.33333)" d="M734.521 344.001C735.53 347.47 737.171 347.455 738.547 350.89C738.161 351.969 737.796 353.055 737.453 354.148L737.581 354.406C735.517 355 734.82 354.991 733.526 356.69C733.691 352.745 734.192 348.001 734.521 344.001Z"/><path fill="#2BA07E" transform="scale(1.33333 1.33333)" d="M767.152 376.1C770.901 378.396 767.028 385.823 760.718 383.635C759.176 382.482 757.507 380.92 756.044 379.629C760.868 378.734 762.859 378.551 767.152 376.1Z"/><path fill="#EEB55A" transform="scale(1.33333 1.33333)" d="M758.578 365.233C759.644 366.086 759.226 365.562 759.744 366.949C758.976 369.939 758.38 372.356 760.092 375.101L759.686 376.29L758.623 376.39C756.98 374.857 755.169 373.421 754.583 371.318C755.668 368.173 757.148 370.763 758.578 365.233Z"/><path fill="#F4AF4A" transform="scale(1.33333 1.33333)" d="M745.308 340.739C746.564 341.243 746.608 341.405 747.56 342.322C748.172 344.462 749.812 352.285 748.969 354.132L748.043 354.279C746.713 349.381 746.319 345.612 745.308 340.739Z"/><path fill="#D3C3B1" transform="scale(1.33333 1.33333)" d="M775.743 353.524L776.815 354.558C777.975 357.752 777.692 360.735 777.63 364.12C776.837 363.733 776.658 363.505 775.949 362.936C775.09 360.237 775.57 356.444 775.743 353.524Z"/><path fill="#EEB55A" transform="scale(1.33333 1.33333)" d="M768.697 344.991C771.852 346.466 773.022 350.972 773.754 354.067C770.206 352.371 769.748 348.608 768.697 344.991Z"/><path fill="#EEB55A" transform="scale(1.33333 1.33333)" d="M738.395 322.657C740.224 324.752 739.772 327.442 739.99 330.718C739.385 330.365 738.875 329.871 738.503 329.278C737.312 327.389 738.001 324.77 738.395 322.657Z"/><path fill="#078AAB" transform="scale(1.33333 1.33333)" d="M724.386 271.445C757.77 267.892 813.399 308.048 840.487 327.526C848.527 333.307 876.548 356.041 881.694 363.447C875.611 360.398 872.656 357.169 867.569 352.708C868.536 355.644 870.807 361.355 870.5 364.056C866.278 361.012 867.525 353.271 863.084 349.269C837.653 326.352 762.779 271.677 729.15 273.727C727.044 273.468 724.89 273.406 723.071 272.419L724.386 271.445Z"/><path fill="#2BA07E" transform="scale(1.33333 1.33333)" d="M745.652 289.482C748.918 293.361 750.146 297.333 752.294 301.95C752.228 303.068 752.271 304.04 751.82 305.053L739.41 311.044C741.27 302.912 744.297 298.685 745.652 289.482Z"/><path fill="#0D5857" transform="scale(1.33333 1.33333)" d="M783.441 343.162C796.056 340.317 790.638 343.788 797.103 333.571L797.342 333.202C796.688 339.605 794.024 345.682 790.855 351.255C788.43 348.515 785.959 345.816 783.441 343.162Z"/><path fill="#D5DCDE" transform="scale(1.33333 1.33333)" d="M824.608 335.842C823.781 334.067 822.941 330.34 824.465 328.804C826.283 330.592 825.998 331.349 826.791 334.189L824.608 335.842Z"/><path fill="#078AAB" transform="scale(1.33333 1.33333)" d="M841.079 318.806C845.901 319.473 857.915 325.337 862.284 328.016L869.06 325.136C874.8 327.795 878.862 329.25 882.965 334.238C880.524 334.137 871.791 329.089 868.749 327.584L862.273 330.427C853.692 324.803 845.911 324.985 841.079 318.806Z"/><path fill="#078AAB" transform="scale(1.33333 1.33333)" d="M815.432 273.162L816.681 273.145L816.756 273.767C811.435 277.278 804.616 276.832 798.673 276.283C796.899 277.438 794.824 279.004 793.066 280.257C787.502 280.568 782.482 279.745 777.049 278.812C776.085 278.767 775.455 278.436 774.562 278.081C776.08 276.494 788.564 278.945 791.918 277.575C794.481 276.529 795.333 275.835 797.592 274.258C804.219 274.528 808.908 274.949 815.432 273.162Z"/><path fill="#078AAB" transform="scale(1.33333 1.33333)" d="M808.419 297.029C819.241 297.801 845.784 295.957 855.631 297.572L855.99 298.86C841.531 299.97 823.78 298.591 808.815 297.795L808.419 297.029Z"/><path fill="#0D9AB7" transform="scale(1.33333 1.33333)" d="M813.21 319.58C821.742 322.566 815.383 331.506 815.047 337.232C814.85 340.568 818.32 348.332 817.67 350.651C810.617 346.345 812.198 336.325 814.423 329.87C816.168 324.81 815.163 324.258 813.21 319.58Z"/><path fill="#0D9AB7" transform="scale(1.33333 1.33333)" d="M736.32 276.69C736.926 276.94 736.897 277.083 737.399 277.648C733.379 284.8 731.499 285.07 735.051 293.903C731.555 299.298 730.288 300.697 732.577 306.972C732.111 307.398 731.742 307.467 731.116 307.739C727.712 304.633 730.596 296.998 732.37 293.596C730.16 285.541 730.549 282.771 736.32 276.69Z"/><path fill="#0D9AB7" transform="scale(1.33333 1.33333)" d="M837.157 333.783L838.65 334.455C840.081 336.399 841.074 340.135 841.866 342.577L838.722 349.573C840.88 352.739 842.704 354.843 842.736 358.63C840.151 357.903 837.765 352.169 836.518 349.763L839.643 342.772C838.45 339.458 837.562 337.33 837.157 333.783Z"/><path fill="#0D9AB7" transform="scale(1.33333 1.33333)" d="M764.599 298.345C764.533 295.893 764.125 292.009 765.273 290.035L766.103 290.175C768.285 295.969 765.905 300.818 761.9 304.812C759.368 307.336 758.822 309.757 757.904 313.145L756.691 312.653C755.928 306.194 761 302.815 764.599 298.345Z"/><path fill="#078AAB" transform="scale(1.33333 1.33333)" d="M789.802 305.558C792.543 306.252 793.803 308.882 795.291 311.207C792.203 315.425 790.03 318.514 787.355 322.993C787.206 323.18 786.67 323.402 786.414 323.532C784.192 316.087 794.987 316.803 789.802 305.558Z"/><path fill="#EEB55A" transform="scale(1.33333 1.33333)" d="M756.691 312.653L757.904 313.145C757.868 316.061 758.058 319.222 756.928 321.869L756.085 322.175C755.117 318.98 755.993 315.879 756.691 312.653Z"/><path fill="#D5DCDE" fill-opacity="0.031372551" transform="scale(1.33333 1.33333)" d="M768.807 271.269C769.338 271.198 769.87 271.137 770.403 271.085C771.921 270.941 775.328 270.73 776.454 271.652L773.605 272.287C770.617 272.951 769.479 273.25 766.435 273.237L766.43 272.569L768.807 271.269Z"/><path fill="#078AAB" transform="scale(1.33333 1.33333)" d="M784.136 328.612C786.364 329.781 786.563 333.559 786.879 335.778L785.508 335.109C784.272 333.244 784.317 330.873 784.136 328.612Z"/><path fill="#F6A025" transform="scale(1.33333 1.33333)" d="M665.007 321.022C664.277 316.251 663.773 306.586 665.937 302.386C685.901 263.655 699.331 302.332 706.934 317.891C714.907 333.317 721.265 341.523 711.488 358.458C708.289 363.322 703.53 368.685 698.536 371.825C695.113 371.361 691.89 370.957 688.504 370.22C688.37 370.032 680.544 366.526 679.557 366.042C678.865 365.529 678.211 364.969 677.597 364.365C672.484 359.427 668.803 348.774 668.687 341.877C668.574 339.664 668.241 336.943 668.028 334.693C668.106 333.372 667.994 331.05 667.974 329.643C667.322 327.034 665.957 323.62 665.007 321.022Z"/><path fill="#F4AF4A" transform="scale(1.33333 1.33333)" d="M702.909 361.19C705.877 359.216 707.979 359.111 711.488 358.458C708.289 363.322 703.53 368.685 698.536 371.825C695.113 371.361 691.89 370.957 688.504 370.22C688.37 370.032 680.544 366.526 679.557 366.042C679.986 365.172 680.466 364.304 680.923 363.447C684.999 361.611 683.91 364.967 688.901 363.851C689.016 362.695 689.154 362.151 689.423 361.054C691.634 359.997 691.185 360.401 694.155 361.175L694.981 361.125C698.802 363.695 698.676 363.416 702.909 361.19Z"/><path fill="#2BA07E" transform="scale(1.33333 1.33333)" d="M694.981 361.125C698.802 363.695 698.676 363.416 702.909 361.19C702.663 364.339 700.468 366.615 697.498 367.424C695.131 367.006 695.974 367.453 694.303 365.768C693.91 363.861 694.04 363.099 694.155 361.175L694.981 361.125Z"/><path fill="#F4AF4A" transform="scale(1.33333 1.33333)" d="M676.237 339.066C680.537 343.35 677.349 342.372 679.667 344.933L681.578 344.231L683.687 345.56L683.653 344.418C682.316 343.915 681.998 343.834 680.593 343.548C680.402 342.333 680.256 342.793 680.622 341.821C686.264 344.459 685.361 351.265 685.491 357.558C684.415 358.088 683.993 357.938 682.808 357.827C679.959 355.758 675.218 353.003 673.175 350.491C673.004 348.232 674.508 345.726 675.518 343.604C675.435 342.47 675.254 341.849 674.825 340.794L676.237 339.066Z"/><path fill="#F4AF4A" transform="scale(1.33333 1.33333)" d="M706.174 326.035C710.858 328.406 711.903 339.346 709.669 343.823C708.709 341.85 707.888 332.91 705.761 329.856C705.33 329.237 705.973 327.066 706.174 326.035Z"/><path fill="#A5BFB4" transform="scale(1.33333 1.33333)" d="M545.301 225.963C547.654 226.554 550.078 226.343 552.482 226.303C563.58 226.121 574.705 226.56 585.526 229.248C586.584 229.426 590.837 230.202 591.653 230.2L595.616 231.762C593.389 231.836 591.268 231.63 589.447 232.744C532.282 222.033 488.238 236.992 448.367 280.813C445.125 284.376 431.89 301.975 429.471 303.397L428.685 303.228C428.527 297.3 446.596 279.047 451.284 273.709C463.133 260.22 484.519 243.719 501.467 237.367C502.486 237.389 503.632 236.59 504.592 236.071C514.783 231.24 531.723 228.276 542.826 226.385L545.301 225.963Z"/><path fill="#A5BFB4" transform="scale(1.33333 1.33333)" d="M739.446 232.108C792.496 221.623 830.428 223.266 878.101 247.297C878.183 247.338 887.642 243.672 888.891 244.489C896.326 244.643 902.784 246.56 909.883 246.811L910.52 247.359C909.331 248.895 906.801 248.646 905.006 248.346C894.592 246.606 888.949 246.214 878.569 248.262L878.932 248.584C885.896 254.652 894.504 259.115 900.563 267.125L900.47 268.198L900.883 267.587L901.061 267.885L899.948 267.999L901.161 268.407C898.441 268.223 879.867 252.183 873.654 248.632C859.844 240.714 844.811 235.152 829.172 232.176C808.211 228.119 786.747 227.338 765.546 229.861C760.761 230.43 727.625 237.396 726.146 237.105C727.087 235.016 728.623 234.776 730.779 234.249L739.446 232.108Z"/><path fill="#098671" transform="scale(1.33333 1.33333)" d="M638.354 244.553C645.164 246.308 653.001 252.41 656.849 252.391C658.505 252.708 658.549 252.733 659.793 253.925C649.226 258.971 646.714 261.311 638.523 269.613L638.054 269.502C636.883 270.139 636.067 270.294 634.8 270.637L632.864 266.027C634.776 261.014 636.318 263.34 636.522 258.673C633.159 259.885 631.557 261.034 628.438 260.153L630.168 257.999L626.293 259.147L621.111 257.333C619.09 253.293 616.176 251.723 612.558 249.133C616.451 248.79 617.547 250.076 620.597 250.329C625.626 250.747 632.721 250.152 637.652 248.936C639.692 248.432 639.677 248.049 640.428 246.673L638.354 244.553Z"/><path fill="#0D5857" transform="scale(1.33333 1.33333)" d="M630.168 257.999C632.603 255.826 632.661 256.574 632.581 253.122L633.394 252.54L634.388 253.758C636.18 253.591 636.578 253.646 638.177 252.906L637.87 253.235L638.264 253.559L637.273 253.699L638.135 254.732C637.277 258.863 636.941 256.861 636.522 258.673C633.159 259.885 631.557 261.034 628.438 260.153L630.168 257.999Z"/><path fill="#0D5857" transform="scale(1.33333 1.33333)" d="M659.793 253.925C661.774 254.446 662.345 254.209 663.362 255.583C660.293 256.521 652.036 258.949 649.773 260.786C641.347 267.626 636.239 274.903 634.647 285.769C635.273 286.63 635.251 286.819 636.209 287.196L635.76 287.735C634.451 288.238 634.532 287.98 633.799 288.928L631.629 288.784C629.911 286.823 630.46 285.748 630.001 282.476L630.332 278.905L630.877 275.976C631.246 272.544 631.379 269.133 632.864 266.027L634.8 270.637C636.067 270.294 636.883 270.139 638.054 269.502L638.523 269.613C646.714 261.311 649.226 258.971 659.793 253.925Z"/><path fill="#098671" transform="scale(1.33333 1.33333)" d="M632.864 266.027L634.8 270.637C636.067 270.294 636.883 270.139 638.054 269.502L638.523 269.613C637.417 271.681 635.382 274.65 634.68 276.591C633.928 278.671 634.329 282.428 632.895 284.348C631.52 284.082 631.037 283.429 630.001 282.476L630.332 278.905L630.877 275.976C631.246 272.544 631.379 269.133 632.864 266.027Z"/><path fill="#A5BFB4" transform="scale(1.33333 1.33333)" d="M501.467 237.367C498.892 236.185 492.393 231.949 490.461 231.569C485.517 230.598 461.776 228.46 458.632 226.76L459.578 226.001C467.325 225.048 483.578 228.564 491.956 229.255C492.165 229.273 502.997 235.281 504.592 236.071C503.632 236.59 502.486 237.389 501.467 237.367Z"/><path fill="#A5BFB4" transform="scale(1.33333 1.33333)" d="M528.137 214.721C518.655 212.535 517.419 211.905 510.6 204.92C520.565 210.473 529.911 211.935 537.79 220.505C539.004 221.826 543.626 224.775 545.301 225.963L542.826 226.385C540.986 224.844 537.528 223.836 535.165 222.992C532.511 219.457 531.253 217.916 528.137 214.721Z"/><path fill="#2BA07E" transform="scale(1.33333 1.33333)" d="M647.709 295.15C651.992 295.85 652.055 297.851 653.165 297.281C656.269 302.155 654.123 307.208 656.235 309.062L649.43 309.531C649.294 304.736 648.978 299.786 647.709 295.15Z"/><path fill="#098671" transform="scale(1.33333 1.33333)" d="M656.458 233.492C657.954 236.447 657.975 237.387 657.957 240.708C659.448 240.661 658.726 240.864 660.072 239.767L658.262 239.421C658.875 238.459 659.001 238.562 660.058 237.955L660.662 236.777C661.06 238.372 661.499 239.956 661.979 241.528L662.927 241.772C664.716 240.325 665.17 240.275 665.398 238.178C665.473 237.45 665.532 236.719 665.574 235.988C666.001 238.855 666.401 241.997 666.918 244.824C664.851 245.984 661.661 247.559 660.687 249.783L659.988 249.82C659.851 247.511 657.716 244.576 656.431 242.504C656.314 239.396 656.377 236.603 656.458 233.492Z"/><path fill="#0D5857" transform="scale(1.33333 1.33333)" d="M638.354 244.553C635.007 244.065 618.589 241.672 616.944 239.958L617.558 239.425C637.461 242.559 640.39 241.029 656.849 252.391C653.001 252.41 645.164 246.308 638.354 244.553Z"/><path fill="#0D5857" transform="scale(1.33333 1.33333)" d="M665.574 235.988C665.485 233.044 664.709 223.867 665.183 222.012C668.307 227.123 667.001 233.513 667.536 238.916C668.142 245.032 670.549 246.066 667.996 252.578L667.3 252.983C667.279 249.99 667.255 247.789 666.918 244.824C666.401 241.997 666.001 238.855 665.574 235.988Z"/><path fill="#2BA07E" transform="scale(1.33333 1.33333)" d="M662.209 197.267C662.628 200.092 663.621 208.532 665.139 210.295C666.227 208.614 665.874 208.119 665.922 205.891C669.33 208.302 671.085 207.992 671.545 212.402L671.365 213.925C670.218 213.854 664.526 211.436 663.312 210.408C661.231 206.484 662.028 201.872 662.209 197.267Z"/><path fill="#D3C3B1" transform="scale(1.33333 1.33333)" d="M650.325 288.067C652.064 288.039 653.453 287.298 655.09 286.634C653.917 290.421 652.981 293.205 653.165 297.281C652.055 297.851 651.992 295.85 647.709 295.15C648.497 291.4 647.997 290.679 650.325 288.067Z"/><path fill="#A5BFB4" transform="scale(1.33333 1.33333)" d="M571.037 213.077C576.262 217.174 579.555 221.682 583.815 226.795L584.127 228.075C578.064 227.126 573.29 218.216 571.037 213.077Z"/><path fill="#BCCABA" transform="scale(1.33333 1.33333)" d="M595.616 231.762C599.84 232.955 603.851 233.843 607.61 236.112L607.429 236.592C602.213 236.213 594.689 234.088 589.447 232.744C591.268 231.63 593.389 231.836 595.616 231.762Z"/><path fill="#A5BFB4" transform="scale(1.33333 1.33333)" d="M749.524 214.678L750.371 214.742C750.367 218.455 745.379 223.337 742.366 225.212L741.439 224.686C744.168 221.6 746.249 218.279 749.524 214.678Z"/><path fill="#0D5857" transform="scale(1.33333 1.33333)" d="M656.431 242.504C657.716 244.576 659.851 247.511 659.988 249.82C658.334 248.16 655.702 244.726 654.133 242.801L656.431 242.504Z"/><path fill="#0D5857" transform="scale(1.33333 1.33333)" d="M677.095 259.128C687.886 260.316 690.509 270.055 693.268 278.86C699.299 279.331 716.095 294.489 720.34 299.293C718.017 298.679 716.183 296.974 714.217 295.478C706.095 288.273 702.367 285.395 692.542 280.613C693.655 283.454 695.548 287.888 696.241 290.722C691.026 289.216 691.064 273.139 686.677 267.618C682.827 262.772 682.254 262.767 677.095 259.128Z"/><path fill="#A5BFB4" transform="scale(1.33333 1.33333)" d="M847.86 199.509C849.097 199.487 848.614 199.444 849.82 200.02C848.977 202.61 843.686 204.22 841.163 205.024C828.773 208.97 826.83 216.719 815.451 224.899L814.778 224.854L814.242 223.924C814.439 223.465 830.293 207.268 831.522 206.408C833.727 204.865 844.212 201.251 847.86 199.509Z"/><path fill="#A5BFB4" transform="scale(1.33333 1.33333)" d="M885.747 218.173L887.184 217.899L887.393 218.939C883.333 222.743 874.117 221.668 868.162 223.742C861.213 226.162 856.563 228.875 850.162 232.356L848.878 232.742L848.32 232.114C849.698 230.081 851.621 229.236 853.586 227.883C863.744 220.892 873.809 219.677 885.747 218.173Z"/><path fill="#A5BFB4" transform="scale(1.33333 1.33333)" d="M815.93 233.563C825.455 234.489 827.473 252.274 832.492 258.902C834.112 261.041 835.695 264.743 836.179 267.419C829.945 265.702 823.243 245.429 820.853 239.605C820.236 238.102 817.137 234.832 815.93 233.563Z"/><path fill="#A5BFB4" transform="scale(1.33333 1.33333)" d="M507.322 242.65L507.896 242.987C508.038 244.778 504.397 253.559 503.503 255.997C504.862 259.208 505.858 262.406 506.937 265.713C506.013 269.449 503.969 276.155 502.004 279.355C498.184 275.915 503.221 271.058 503.037 267.323C502.412 254.649 499.497 254.426 507.322 242.65Z"/><path fill="#BCCABA" transform="scale(1.33333 1.33333)" d="M859.049 244.758C862.04 246.847 873.795 278.303 874.107 283.008C869.124 279.588 859.689 251.038 859.049 244.758Z"/><path fill="#A5BFB4" transform="scale(1.33333 1.33333)" d="M548.427 232.91L549.063 233.741C541.641 245.703 553.591 252.557 543.235 265.462C542.714 264.98 542.583 264.548 542.225 263.877C542.737 260.15 544.586 255.782 545.928 252.184C542.605 242.393 541.759 241.07 548.427 232.91Z"/><path fill="#A5BFB4" transform="scale(1.33333 1.33333)" d="M770.06 231.618C777.582 231.529 782.501 243.702 787.005 248.77C788.914 250.918 791.923 254.019 792.833 256.619C787.207 256.128 779.106 241.922 775.719 237.689C773.75 235.228 771.753 234.472 770.06 231.618Z"/><path fill="#0D5857" transform="scale(1.33333 1.33333)" d="M665.661 259.897C672.084 262.8 677.647 279.379 673.955 284.502C673.211 283.752 673.087 282.418 672.84 281.314L671.943 281.124C666.282 285.494 663.38 292.886 662.603 299.802L662.246 300.977L661.421 301.137L660.972 300.087C661.105 295.737 664.261 286.968 667.174 283.81C668.702 282.154 671.224 280.48 673.151 278.355C674.562 272.085 666.94 264.498 665.661 259.897Z"/><path fill="#A5BFB4" transform="scale(1.33333 1.33333)" d="M799.764 197.51L800.438 198.319C799.877 200.496 795.244 203.542 793.518 205.959C788.437 213.076 785.291 218.943 778.489 224.573L777.936 223.934C778.418 221.571 780.998 219.272 782.477 217.166C788.144 209.099 791.343 203.022 799.764 197.51Z"/><path fill="#A5BFB4" transform="scale(1.33333 1.33333)" d="M464.421 277.989C466.5 279.009 470.531 287.313 471.755 289.731C471.114 294.307 469.615 299.233 468.34 303.698C463.973 301.457 467.509 295.275 468.92 291.593C466.993 286.587 463.656 282.806 464.421 277.989Z"/><path fill="#0D5857" transform="scale(1.33333 1.33333)" d="M698.112 238.8L698.98 239.104C698.436 241.402 677.754 252.668 675.471 257.086L676.234 259.126C674.254 258.287 673.99 258.562 672.964 256.959C675.793 252.305 692.644 241.915 698.112 238.8Z"/><path fill="#0D5857" transform="scale(1.33333 1.33333)" d="M700.821 254.281C704.37 253.749 715.733 255.572 719.153 256.736L718.591 257.171C713.009 257.693 711.135 257.243 705.631 256.23C699.672 255.747 694.016 256.644 688.074 257.311L688.345 256.926C693.271 255.015 695.604 254.883 700.821 254.281Z"/><path fill="#A5BFB4" transform="scale(1.33333 1.33333)" d="M436.041 282.2C437.66 282.066 437.39 281.821 438.386 282.556C437.306 283.661 435.454 284.214 433.973 284.733C427.052 287.157 421.277 291.036 415.108 295.001L413.19 295.208L413.388 294.136C417.261 289.471 430.34 284.399 436.041 282.2Z"/><path fill="#A5BFB4" transform="scale(1.33333 1.33333)" d="M736.881 237.549C748.074 239.804 746.051 247.46 751.773 255.606C745.992 254.464 744.987 244.255 740.019 240.577C739.45 240.155 737.529 238.183 736.881 237.549Z"/><path fill="#A5BFB4" transform="scale(1.33333 1.33333)" d="M584.032 234.738L584.906 235.282C581.347 240.988 579.466 248.684 575.372 252.478L574.952 252.485L574.512 251.886C577.706 245 578.592 239.577 584.032 234.738Z"/><path fill="#A5BFB4" transform="scale(1.33333 1.33333)" d="M442.721 259.579C445.011 259.394 457.494 259.616 459.015 260.715L458.281 260.872C457.468 261.587 456.287 261.327 454.945 261.339C451.639 261.281 439.224 262.015 437.076 260.61C438.705 259.494 440.651 259.675 442.721 259.579Z"/><path fill="#2BA07E" transform="scale(1.33333 1.33333)" d="M809.94 238.816C811.586 238.219 814.141 238.475 815.803 238.841L816.689 240.496C814.083 240.666 812.681 240.928 810.233 240.006L809.94 238.816Z"/><path fill="#2BA07E" transform="scale(1.33333 1.33333)" d="M710.359 302.419C711.805 301.888 713.501 302.458 714.654 303.399C713.427 303.96 711.245 303.524 710.359 302.419Z"/><path fill="#D3C3B1" transform="scale(1.33333 1.33333)" d="M649.43 309.531L656.235 309.062C657.192 314.302 657.417 325.561 665.007 321.022C665.957 323.62 667.322 327.034 667.974 329.643C667.994 331.05 668.106 333.372 668.028 334.693C668.241 336.943 668.574 339.664 668.687 341.877C668.803 348.774 672.484 359.427 677.597 364.365C678.211 364.969 678.865 365.529 679.557 366.042C680.544 366.526 688.37 370.032 688.504 370.22C687.98 370.492 687.306 370.999 686.802 371.348C686.358 373.001 690.013 414.485 690.168 421.034L693.101 632.965C693.835 664.042 699.108 698.161 697.48 728.501C684.976 731.362 649.579 735.585 637.292 727.095C635.683 725.983 635.165 717.993 635.22 715.605C636.033 680.518 637.038 645.384 638.173 610.306C638.831 594.7 640.381 579.064 640.538 563.439C640.998 517.594 639.186 471.714 641.196 425.878C641.609 410.111 647.054 392.51 647.394 376.958C647.742 361.063 647.265 345.269 647.716 329.204C646.818 327.527 646.627 327.919 644.368 327.185C650.548 322.006 651.847 324.92 649.876 314.907C649.635 313.678 649.531 310.882 649.43 309.531Z"/><path fill="#6EA5A5" transform="scale(1.33333 1.33333)" d="M668.028 334.693C666.222 337.843 667.457 339.319 665.37 341.436L664.547 341.423C663 338.026 664.714 331.195 667.974 329.643C667.994 331.05 668.106 333.372 668.028 334.693Z"/><path fill="#6EA5A5" transform="scale(1.33333 1.33333)" d="M651.91 452.662C653.974 454.824 648.762 467.943 647.214 470.213L646.11 468.48C645.769 462.552 648.506 457.297 651.91 452.662Z"/><path fill="#6EA5A5" transform="scale(1.33333 1.33333)" d="M677.768 433.554L678.456 433.916C678.872 435.189 674.147 448.27 673.244 450.106L672.066 449.582C669.561 445.108 674.818 436.813 677.768 433.554Z"/><path fill="#6EA5A5" transform="scale(1.33333 1.33333)" d="M683.624 380.334L684.785 381.15C684.878 382.668 679.582 392.754 678.223 396.493L677.48 396.119C674.717 392.083 680.529 383.22 683.624 380.334Z"/><path fill="#6EA5A5" transform="scale(1.33333 1.33333)" d="M670.247 383.097C672.691 385.095 669.54 389.348 668.938 392.179C668.418 394.627 668.069 397.249 666.479 399.157C662.6 393.794 666.783 387.338 670.247 383.097Z"/><path fill="#6EA5A5" transform="scale(1.33333 1.33333)" d="M666.451 433.729L667.123 434.861C666.58 437.214 662.744 448.281 661.65 450.365C657.633 446.313 663.405 437.015 666.451 433.729Z"/><path fill="#6EA5A5" transform="scale(1.33333 1.33333)" d="M673.133 471.712C674.095 472.403 673.746 472.078 674.296 473.256C672.104 478.499 671.517 481.97 669.644 486.758L668.684 486.323C665.88 481.943 669.81 474.924 673.133 471.712Z"/><path fill="#6EA5A5" transform="scale(1.33333 1.33333)" d="M664.445 454.724L665.164 455.873C663.571 459.999 661.962 469.074 659.804 470.846C656.195 465.567 661.018 458.96 664.445 454.724Z"/><path fill="#6EA5A5" transform="scale(1.33333 1.33333)" d="M655.892 363.475L656.771 364.937C653.317 372.589 654.04 374.602 651.976 380.435C648.155 375.958 651.872 366.922 655.892 363.475Z"/><path fill="#6EA5A5" transform="scale(1.33333 1.33333)" d="M655.265 425.78L656.134 426.539C656.716 428.658 653.926 437.609 653.181 440.498L652.342 440.21C649.702 436.665 652.107 428.85 655.265 425.78Z"/><path fill="#6EA5A5" transform="scale(1.33333 1.33333)" d="M675.544 454.612C676.103 455.117 676.14 455.444 676.51 456.189C676.114 459.715 674.229 466.565 672.326 469.554C669.395 464.58 672.213 458.644 675.544 454.612Z"/><path fill="#6EA5A5" transform="scale(1.33333 1.33333)" d="M650.054 508.216L651.626 509.147C652 511.141 648.991 519.025 648.671 524.127L647.087 523.686C645.023 519.572 648.367 512.269 650.054 508.216Z"/><path fill="#6EA5A5" transform="scale(1.33333 1.33333)" d="M658.507 489.921L659.58 490.717C660.002 492.886 656.915 501.333 656.141 504.526C651.63 501.178 656.081 493.558 658.507 489.921Z"/><path fill="#6EA5A5" transform="scale(1.33333 1.33333)" d="M683.324 490.071L684.225 490.747C684.822 493.191 682.019 501.708 680.808 504.143C677.428 499.518 680.058 493.877 683.324 490.071Z"/><path fill="#6EA5A5" transform="scale(1.33333 1.33333)" d="M670.408 491.466L670.786 491.827C671.177 493.118 667.725 504.516 667.015 506.552C663.161 502.159 666.79 494.904 670.408 491.466Z"/><path fill="#6EA5A5" transform="scale(1.33333 1.33333)" d="M671.097 631.809C673.486 633.873 670.39 644.55 669.337 647.453C665.861 643.865 669.159 635.585 671.097 631.809Z"/><path fill="#6EA5A5" transform="scale(1.33333 1.33333)" d="M658.358 381.007C658.812 381.162 659.532 381.607 659.948 381.84C660.212 383.932 658.179 390.976 657.611 393.709C653.054 391.121 656.045 384.303 658.358 381.007Z"/><path fill="#6EA5A5" transform="scale(1.33333 1.33333)" d="M655.945 472.811L657.192 473.385C657.918 474.95 655.954 482.342 655.515 485.356L653.648 484.489C651.168 481.101 654.058 475.808 655.945 472.811Z"/><path fill="#6EA5A5" transform="scale(1.33333 1.33333)" d="M689.763 684.786L690.882 685.609C691.89 687.834 690.428 696.69 690.039 699.585C685.469 697.142 688.521 688.781 689.763 684.786Z"/><path fill="#6EA5A5" transform="scale(1.33333 1.33333)" d="M684.47 398.744L685.309 399.107L685.694 400.364C684.567 403.792 681.98 408.112 680.189 411.368C678.802 410.656 679.329 411.181 678.677 409.631C679.422 404.984 681.598 402.435 684.47 398.744Z"/><path fill="#6EA5A5" transform="scale(1.33333 1.33333)" d="M649.904 490.774C651.381 492.799 647.633 503.96 646.621 506.54L645.53 505.147C644.988 500.288 646.899 494.585 649.904 490.774Z"/><path fill="#6EA5A5" transform="scale(1.33333 1.33333)" d="M651.434 679.106L652.145 679.78C652.92 682.082 650.552 691.406 649.738 694.115C646.417 690.738 649.069 682.593 651.434 679.106Z"/><path fill="#6EA5A5" transform="scale(1.33333 1.33333)" d="M684.014 520.656L685.476 521.227C687.818 524.273 686.605 528.158 686.083 532.202C684.328 532.141 685.107 532.44 683.753 531.083C682.436 527.656 683.208 524.129 684.014 520.656Z"/><path fill="#6EA5A5" transform="scale(1.33333 1.33333)" d="M675.511 419.192C675.788 419.466 676.342 420.388 676.586 420.767C675.702 424.752 675.798 429.261 673.32 432.226C672.071 431.364 672.63 431.895 671.86 430.296C671.942 425.863 672.773 422.735 675.511 419.192Z"/><path fill="#6EA5A5" transform="scale(1.33333 1.33333)" d="M687.235 656.601L688.537 657.556C688.735 658.909 686.988 668.008 686.726 670.697C682.036 668.465 685.691 660.125 687.235 656.601Z"/><path fill="#6EA5A5" transform="scale(1.33333 1.33333)" d="M681.393 543.278C681.653 543.546 682.157 544.448 682.381 544.82C682.434 548.186 681.448 553.378 680.154 556.485C676.584 552.889 678.75 546.852 681.393 543.278Z"/><path fill="#6EA5A5" transform="scale(1.33333 1.33333)" d="M671.518 656.139L672.231 656.807C672.811 659.212 671.416 668.494 671.052 671.511C666.753 668.58 669.956 659.78 671.518 656.139Z"/><path fill="#6EA5A5" transform="scale(1.33333 1.33333)" d="M657.039 345.667L658.393 346.08C658.622 347.677 654.784 356.28 653.883 358.603C652.59 357.908 653.177 358.388 652.385 356.789C652.938 352.19 654.132 349.254 657.039 345.667Z"/><path fill="#6EA5A5" transform="scale(1.33333 1.33333)" d="M666.485 524.023C671.118 526.031 669.61 533.91 669.008 537.968C665.671 535.429 666.488 528.016 666.485 524.023Z"/><path fill="#6EA5A5" transform="scale(1.33333 1.33333)" d="M657.855 401.972C658.908 402.354 658.509 402.152 659.318 403.068C659.027 406.336 657.207 411.306 656.15 414.575C652.144 411.612 655.701 405.181 657.855 401.972Z"/><path fill="#6EA5A5" transform="scale(1.33333 1.33333)" d="M678.047 673.809C679.289 676.064 677.395 686.764 675.656 688.48C673.017 683.565 675.244 678.035 678.047 673.809Z"/><path fill="#6EA5A5" transform="scale(1.33333 1.33333)" d="M647.414 628.355C648.519 628.776 648.169 628.652 649.099 629.506C649.208 631.629 648.298 638.959 648.174 642.262C643.436 640.39 646.395 631.596 647.414 628.355Z"/><path fill="#6EA5A5" transform="scale(1.33333 1.33333)" d="M680.124 638.945C681.043 639.614 680.758 639.414 681.421 640.413C680.939 644.263 679.686 648.385 678.665 652.161C674.565 649.205 678.145 642.207 680.124 638.945Z"/><path fill="#6EA5A5" transform="scale(1.33333 1.33333)" d="M666.977 367.216C667.892 367.797 667.869 367.976 668.443 368.926C668.326 372.258 666.746 375.922 665.352 378.942C664.335 378.252 664.233 377.844 663.674 376.769C663.534 372.606 664.625 370.595 666.977 367.216Z"/><path fill="#6EA5A5" transform="scale(1.33333 1.33333)" d="M657.127 647.396L658.341 648.053C659.038 650.4 658.163 659.38 657.956 662.487C654.311 659.135 655.746 651.519 657.127 647.396Z"/><path fill="#6EA5A5" transform="scale(1.33333 1.33333)" d="M661.82 667.248C664.21 668.436 662.697 677.592 662.616 680.742L661.484 680.588C658.557 677.375 660.383 670.813 661.82 667.248Z"/><path fill="#6EA5A5" transform="scale(1.33333 1.33333)" d="M659.303 326.503L660.5 327.344C660.871 329.81 657.668 335.587 656.465 338.169C654.907 337.307 655.266 337.786 654.545 336.37C654.926 332.403 657.072 329.781 659.303 326.503Z"/><path fill="#6EA5A5" transform="scale(1.33333 1.33333)" d="M671.364 592.429L672.515 593.761C672.871 596.602 672.339 603.973 671.09 606.569C667.567 602.835 669.976 596.602 671.364 592.429Z"/><path fill="#6EA5A5" transform="scale(1.33333 1.33333)" d="M683.533 619.231C684.238 619.586 684.195 619.705 684.768 620.339C684.515 624.206 683.078 628.427 681.979 632.194C680.879 631.383 680.922 631.288 680.296 630.124C680.022 625.472 681.391 623.455 683.533 619.231Z"/><path fill="#6EA5A5" transform="scale(1.33333 1.33333)" d="M663.031 416.443L664.14 417.57L664.108 418.194C663.962 420.929 663.789 427.437 661.833 429.197C659.453 425.016 660.143 420.176 663.031 416.443Z"/><path fill="#6EA5A5" transform="scale(1.33333 1.33333)" d="M671.28 508.475C671.826 508.841 671.818 509.024 672.216 509.645C670.566 513.234 669.016 516.869 667.568 520.545C666.959 520.347 666.624 519.98 666.067 519.555C665.007 515.552 668.688 511.144 671.28 508.475Z"/><path fill="#6EA5A5" transform="scale(1.33333 1.33333)" d="M671.016 403.31L672.058 403.721C672.882 406.101 670.755 412.582 669.643 414.908C668.617 414.058 668.525 413.768 667.886 412.647C667.632 408.517 668.907 406.806 671.016 403.31Z"/><path fill="#6EA5A5" transform="scale(1.33333 1.33333)" d="M664.497 613.464L665.588 614.209C666.356 616.601 665.126 623.603 664.746 626.632C663.759 625.948 663.798 625.832 663.065 624.881C662.198 620.441 662.459 617.506 664.497 613.464Z"/><path fill="#6EA5A5" transform="scale(1.33333 1.33333)" d="M670.161 544.57L671.094 545.88C671.24 549.917 670.328 554.106 669.632 558.109C666.057 555.171 668.173 547.996 670.161 544.57Z"/><path fill="#6EA5A5" transform="scale(1.33333 1.33333)" d="M684.837 507.232L685.419 507.832C685.285 509.265 681.507 517.48 680.721 519.43C677.165 514.794 681.373 510.182 684.837 507.232Z"/><path fill="#6EA5A5" transform="scale(1.33333 1.33333)" d="M688.599 708.629C690.09 711.69 689.44 719.121 686.778 721.778C684.781 717.997 686.47 712.081 688.599 708.629Z"/><path fill="#6EA5A5" transform="scale(1.33333 1.33333)" d="M684.858 593.537L685.939 593.956C687.285 596.372 685.444 602.795 684.738 605.805C681.029 602.775 683.552 597.233 684.858 593.537Z"/><path fill="#6EA5A5" transform="scale(1.33333 1.33333)" d="M666.882 686.389C668.847 688.896 667.596 697.947 666.366 700.831C664.25 697.099 664.865 690.172 666.882 686.389Z"/><path fill="#6EA5A5" transform="scale(1.33333 1.33333)" d="M653.758 566.215L654.491 566.946C655.368 569.049 653.427 576.702 652.654 579.045C649.595 575.231 651.599 569.993 653.758 566.215Z"/><path fill="#6EA5A5" transform="scale(1.33333 1.33333)" d="M659.733 507.084L660.678 508.139C660.551 511.01 658.718 516.877 657.412 519.425C654.407 516.81 657.887 509.668 659.733 507.084Z"/><path fill="#6EA5A5" transform="scale(1.33333 1.33333)" d="M659.836 521.463L661.038 522.77C660.752 525.595 658.808 529.597 657.648 532.333C656.405 531.962 656.994 532.31 656.152 530.777C656.074 526.866 657.608 524.572 659.836 521.463Z"/><path fill="#6EA5A5" transform="scale(1.33333 1.33333)" d="M672.548 565.487L673.73 566.388C674.609 569.314 673.029 574.35 672.225 577.283C669.314 573.724 670.65 569.19 672.548 565.487Z"/><path fill="#6EA5A5" transform="scale(1.33333 1.33333)" d="M680.627 577.361L681.56 578.494C681.948 581.559 681.482 586.29 680.276 589.172C677.143 585.525 678.285 581.036 680.627 577.361Z"/><path fill="#6EA5A5" transform="scale(1.33333 1.33333)" d="M678.886 695.534L679.811 696.531C680.264 699.311 679.374 705.788 678.274 708.374C675.219 704.434 677.382 699.643 678.886 695.534Z"/><path fill="#6EA5A5" transform="scale(1.33333 1.33333)" d="M675.148 367.232L676.299 368.369C677.027 372.52 678.01 375.701 676.334 379.235C673.78 376.961 673.549 370.118 675.148 367.232Z"/><path fill="#6EA5A5" transform="scale(1.33333 1.33333)" d="M678.171 606.317L679.064 607.568C679.303 611.126 677.807 614.658 676.439 617.895L675.362 616.364C674.75 612.223 676.201 609.966 678.171 606.317Z"/><path fill="#6EA5A5" transform="scale(1.33333 1.33333)" d="M648.489 709.998C651.239 712.86 650.79 719.187 650.816 723.357L649.627 722.748C647.757 719.51 648.324 713.776 648.489 709.998Z"/><path fill="#6EA5A5" transform="scale(1.33333 1.33333)" d="M670.771 707.377L671.552 708.371C672.333 712.035 671.712 715.572 670.948 719.177C670.524 718.843 669.914 718.131 669.522 717.708C669.002 714.451 668.803 710.188 670.771 707.377Z"/><path fill="#6EA5A5" transform="scale(1.33333 1.33333)" d="M663.044 561.033C665.052 563.311 663.719 570.234 663.108 572.974L661.7 571.306C660.879 567.123 661.225 564.861 663.044 561.033Z"/><path fill="#6EA5A5" transform="scale(1.33333 1.33333)" d="M659.426 598.301L660.487 599.488C661.026 602.488 661.581 607.682 660 610.337C657.696 606.313 658.048 602.508 659.426 598.301Z"/><path fill="#6EA5A5" transform="scale(1.33333 1.33333)" d="M647.23 658.149C650.188 660.011 649.679 666.672 649.391 669.546L648.564 669.163C646.282 666.369 647.029 661.75 647.23 658.149Z"/><path fill="#6EA5A5" transform="scale(1.33333 1.33333)" d="M658.522 541.155C659.286 541.467 659.395 541.68 660.062 542.228C660.641 544.956 659.718 548.439 659.178 551.269L657.891 550.464C656.865 546.926 657.264 544.547 658.522 541.155Z"/><path fill="#6EA5A5" transform="scale(1.33333 1.33333)" d="M657.632 698.779L659.157 700.26C659.674 703.174 658.958 707.317 658.596 710.36C656.098 708.186 656.79 701.689 657.632 698.779Z"/><path fill="#6EA5A5" transform="scale(1.33333 1.33333)" d="M650.62 396.121L651.431 396.855C651.75 398.357 648.255 404.617 647.276 408.448C646.807 408.004 646.74 407.643 646.433 407C646.66 402.78 648.527 399.726 650.62 396.121Z"/><path fill="#6EA5A5" transform="scale(1.33333 1.33333)" d="M657.684 627.906C658.097 628.182 658.852 628.918 659.255 629.285C659.938 631.907 659.033 635.164 658.504 637.901L657.192 637.19C656.311 634.091 656.786 630.946 657.684 627.906Z"/><path fill="#6EA5A5" transform="scale(1.33333 1.33333)" d="M648.71 552.191L649.944 553.04C651.385 556.252 650.754 558.95 650.176 562.287C649.769 562.068 649.092 561.464 648.703 561.144C647.947 558.266 648.436 555.174 648.71 552.191Z"/><path fill="#6EA5A5" transform="scale(1.33333 1.33333)" d="M665.859 351.507L666.962 352.756C667.01 355.326 665.857 357.804 664.956 360.251C663.473 359.432 664.083 359.986 663.179 358.415C663.107 355.876 664.603 353.784 665.859 351.507Z"/><path fill="#6EA5A5" transform="scale(1.33333 1.33333)" d="M683.448 436.793L684.695 437.76C685.172 440.568 684.271 442.703 683.446 445.441C681.751 444.52 682.299 445.096 681.534 443.115C681.674 440.283 682.252 439.35 683.448 436.793Z"/><path fill="#6EA5A5" transform="scale(1.33333 1.33333)" d="M655.629 585.06L657.232 586.003C658.09 588.876 657.783 592.089 656.618 594.834C654.609 591.996 654.92 588.295 655.629 585.06Z"/><path fill="#6EA5A5" transform="scale(1.33333 1.33333)" d="M681.906 451.849C684.944 454.067 683.542 457.026 682.5 460.009L680.968 458.994C680.346 456.497 681.211 454.352 681.906 451.849Z"/><path fill="#6EA5A5" transform="scale(1.33333 1.33333)" d="M665.003 579.285L666.224 580.258C666.982 582.575 666.495 586.023 666.314 588.584C665.62 588.578 665.586 588.439 664.878 588.118C664.113 585.44 664.703 582.119 665.003 579.285Z"/><path fill="#6EA5A5" transform="scale(1.33333 1.33333)" d="M686.143 417.247C687.03 419.845 685.778 423.976 684.721 426.463C682.391 423.24 683.899 419.933 686.143 417.247Z"/><path fill="#6EA5A5" transform="scale(1.33333 1.33333)" d="M677.168 531.984C677.566 532.279 678.185 532.992 678.552 533.382C679.112 536.055 678.565 537.88 678.05 540.559C675.403 539.01 676.625 534.425 677.168 531.984Z"/><path fill="#A5BFB4" transform="scale(1.33333 1.33333)" d="M646.612 475.827C646.79 477.073 646.203 482.054 646.053 483.617C643.987 480.812 644.902 478.443 646.612 475.827Z"/><path fill="#6EA5A5" transform="scale(1.33333 1.33333)" d="M647.29 440.304L647.834 440.762C648.865 442.63 648.375 444.263 648.108 446.475L647.604 446.033C646.629 444.167 647.073 442.482 647.29 440.304Z"/><path fill="#06434D" transform="scale(1.33333 1.33333)" d="M579.705 268.137C585.507 254.841 595.065 251.978 608.066 248.448L611.955 249.546L612.558 249.133C616.176 251.723 619.09 253.293 621.111 257.333L626.293 259.147L630.168 257.999L628.438 260.153C631.557 261.034 633.159 259.885 636.522 258.673C636.318 263.34 634.776 261.014 632.864 266.027C631.379 269.133 631.246 272.544 630.877 275.976L630.332 278.905L630.001 282.476C630.46 285.748 629.911 286.823 631.629 288.784L633.799 288.928C634.532 287.98 634.451 288.238 635.76 287.735L636.209 287.196C639.539 285.698 644.147 283.669 647.887 284.342C649.618 283.494 649.023 284 650.033 282.376C650.137 284.031 650.369 286.475 650.325 288.067C647.997 290.679 648.497 291.4 647.709 295.15C648.978 299.786 649.294 304.736 649.43 309.531C649.531 310.882 649.635 313.678 649.876 314.907C651.847 324.92 650.548 322.006 644.368 327.185C643.18 327.184 642.48 326.91 641.318 326.621L639.233 327.184C637.751 329.765 638.532 333.513 638.821 336.572C639.536 341.186 640.719 345.682 641.377 349.919C643.682 355.857 643.708 365.766 643.139 372.076C642 384.715 634.309 394.475 623.325 400.308C621.65 400.368 619.099 400.534 617.656 400.399C600.457 398.797 587.768 379.797 594.181 363.316C594.584 362.283 595.316 358.879 595.311 357.978C582.206 365.822 577.895 345.731 574.892 336.658C574.024 334.035 574.519 328.112 574.653 325.14L566.54 330.909C566.577 333.438 566.309 336.226 566.121 338.771C575.445 353.954 575.989 373.021 564.406 386.939C562.334 389.427 562.112 389.784 559.016 390.15C552.677 387.971 546.911 368.3 546.793 361.859C546.459 361.558 546.125 361.257 545.791 360.957L544.329 361.296C540.983 364.34 538.471 370.168 537.131 374.424C540.153 385.032 542.866 397.452 535.726 406.72C523.368 422.764 516.98 390.904 516.015 384.218C514.915 385.188 513.833 386.178 512.768 387.186C507.112 392.577 507.976 397.788 507.797 405.339C505.522 408.15 501.149 412.567 497.422 412.118C488.744 411.072 484.44 424.66 476.201 423.44C470.67 419.437 473.444 406.524 474.409 400.298C474.82 397.644 482.248 387.937 481.615 384.429C476.608 383.239 464.83 388.741 460.249 385.193C459.556 383.348 459.263 382.908 460.114 380.768C466.521 364.667 481.351 357.435 496.457 351.589C497.565 351.16 499.614 349.947 500.082 348.709C494.89 347.861 490.71 351.134 485.402 350.534C480.691 350.002 468.298 352.234 467.796 345.477C468.712 342.989 470.345 341.241 472.364 339.56C485.822 328.351 507.39 319.4 524.961 320.509C527.147 319.089 529.215 317.051 531.151 315.267C521.579 314.652 506.407 313.557 497.661 311.494C502.639 305.824 504.074 303.487 511.686 300.613C517.314 298.487 522.903 297.801 528.516 296.088C536.293 293.713 543.372 290.799 551.677 290.417C554.728 290.247 559.059 292.361 562.512 292.318C563.623 290.912 563.751 290.844 564.12 289.138C560.298 285.427 535.425 292.247 528.448 287.258C526.639 282.788 533.184 279.689 536.504 277.425C538.102 276.936 550.686 271.404 551.484 270.636C557.309 268.673 562.887 266.51 569.09 266.598L569.807 266.472C573.232 267.553 576.163 267.752 579.705 268.137ZM607.275 313.075C605.926 310.938 604.462 308.709 603.26 306.502C590.298 317.199 597.321 317.844 601.264 329.75C604.608 326.177 603.838 319.478 607.275 313.075Z"/><path fill="#F6A025" transform="scale(1.33333 1.33333)" d="M622.206 305.786C641.264 307.421 634.912 324.012 641.318 326.621L639.233 327.184C637.751 329.765 638.532 333.513 638.821 336.572C639.536 341.186 640.719 345.682 641.377 349.919C643.682 355.857 643.708 365.766 643.139 372.076C642 384.715 634.309 394.475 623.325 400.308C621.65 400.368 619.099 400.534 617.656 400.399C600.457 398.797 587.768 379.797 594.181 363.316C594.584 362.283 595.316 358.879 595.311 357.978C595.444 357.061 595.286 357.83 595.579 357.014C598.961 347.616 604.02 339.788 601.264 329.75C604.608 326.177 603.838 319.478 607.275 313.075C610.56 309.464 614.979 307.082 619.801 306.324L622.206 305.786Z"/><path fill="#EEB55A" transform="scale(1.33333 1.33333)" d="M638.821 336.572C639.536 341.186 640.719 345.682 641.377 349.919C638.474 348.234 638.415 346.148 638.042 343.002C634.657 347.737 636.583 355.897 640.102 359.95C639.913 359.732 640.394 363.199 640.454 363.502C636.24 366.629 638.187 368.818 636.53 373.013C634.337 365.223 635.861 344.971 638.821 336.572Z"/><path fill="#D3C3B1" transform="scale(1.33333 1.33333)" d="M636.53 373.013C638.187 368.818 636.24 366.629 640.454 363.502C640.765 367.625 641.286 374.084 637.179 376.727L636.173 376.039C636.175 374.914 636.06 374.02 636.53 373.013Z"/><path fill="#069379" transform="scale(1.33333 1.33333)" d="M621.928 390.58L622.438 391.526L622.192 392.154C621.183 394.695 620.637 396.185 618.029 397.309L616.153 396.318C614.693 394.984 614.382 394.753 613.496 393.001C614.932 391.627 618.125 393.124 621.928 390.58Z"/><path fill="#F4AF4A" transform="scale(1.33333 1.33333)" d="M607.617 377.208C609.141 378.489 611.345 382.882 611.2 384.947C609.299 383.753 608.862 383.351 607.26 381.767C606.567 379.132 606.694 380.033 607.617 377.208Z"/><path fill="#EEB55A" transform="scale(1.33333 1.33333)" d="M628.361 329.302C628.966 331.578 627.53 336.629 626.972 339.166C625.37 336.391 626.767 331.869 628.361 329.302Z"/><path fill="#078AAB" transform="scale(1.33333 1.33333)" d="M626.293 259.147L630.168 257.999L628.438 260.153C631.557 261.034 633.159 259.885 636.522 258.673C636.318 263.34 634.776 261.014 632.864 266.027C631.379 269.133 631.246 272.544 630.877 275.976L630.332 278.905C625.992 274.112 621.875 272.1 616.328 268.855C602.92 280.509 590.215 291.776 577.087 303.748C566.339 313.554 553.545 322.906 543.482 333.316C525.349 352.074 507.241 372.006 493.851 394.481C491.15 399.017 487.322 407.235 484.044 410.786C484.528 397.462 531.081 339.843 544.51 329.395C567.963 311.149 601.908 273.809 626.293 259.147Z"/><path fill="#06434D" transform="scale(1.33333 1.33333)" d="M628.438 260.153C631.557 261.034 633.159 259.885 636.522 258.673C636.318 263.34 634.776 261.014 632.864 266.027C631.379 269.133 631.246 272.544 630.877 275.976C626.719 272.15 622.549 269.77 617.537 267.337L628.438 260.153Z"/><path fill="#0D9AB7" transform="scale(1.33333 1.33333)" d="M619.801 306.324C620.073 301.947 620.198 298.789 620.111 294.479C620.014 289.664 615.88 274.672 617.552 271.624C622.511 278.591 622.825 297.35 622.206 305.786L619.801 306.324Z"/><path fill="#0D9AB7" transform="scale(1.33333 1.33333)" d="M633.799 288.928C634.532 287.98 634.451 288.238 635.76 287.735C637.927 293.498 642.226 308.585 639.525 313.936C636.94 308.021 637.961 298.609 633.799 288.928Z"/><path fill="#0D5857" transform="scale(1.33333 1.33333)" d="M611.955 249.546L612.558 249.133C616.176 251.723 619.09 253.293 621.111 257.333C618.83 257.568 617.868 257.813 615.675 256.967C613.52 255.04 613.269 252.542 611.955 249.546Z"/><path fill="#078AAB" transform="scale(1.33333 1.33333)" d="M520.118 349.755L521.752 349.962L521.812 350.761C513.646 356.96 506.165 357.618 498.418 361.864C488.951 367.052 484.898 369.997 474.638 374.432L473.146 374.783L472.446 374.222C474.321 370.917 480.994 369.598 483.903 367.533C494.989 359.665 508.638 356.157 520.118 349.755Z"/><path fill="#078AAB" transform="scale(1.33333 1.33333)" d="M538.179 329.56L539.185 329.835C534.733 335.231 499.501 340.177 488.658 343.945L487.96 343.598L488.11 342.566C494.762 338.596 502.632 338.879 509.669 336.821C518.592 334.212 529.819 333.239 538.179 329.56Z"/><path fill="#078AAB" transform="scale(1.33333 1.33333)" d="M516.957 306.788C521.897 306.364 559.997 306.005 562.548 308.094L562.571 307.565L563.138 307.88C560.735 308.813 557.66 308.613 555.023 308.622C551.096 309.048 536.807 308.244 532.126 308.209C525.616 308.162 517.27 308.54 511.098 308.278L511.342 307.772L511.833 308.086L511.096 307.768L512.613 308.017L513.222 307.155L516.957 306.788Z"/><path fill="#0D9AB7" transform="scale(1.33333 1.33333)" d="M581.57 309.589L582.434 310.242C584.181 314.983 588.443 319.234 590.376 324.66C593.7 333.987 591.604 335.329 596.529 344.338C589.307 344.41 590.443 330.305 589.137 326.35C587.053 320.034 580.702 316.891 581.57 309.589Z"/><path fill="#0D9AB7" transform="scale(1.33333 1.33333)" d="M597.803 258.818C605.161 258.423 610.875 259.046 617.624 262.025L617.394 262.337C612.572 262.469 610.107 261.499 605.308 260.552C595.086 260.84 591.576 262.802 582.061 265.366C588.078 261.566 590.763 260.038 597.803 258.818Z"/><path fill="#0D9AB7" transform="scale(1.33333 1.33333)" d="M557.088 335.1C558.463 337.216 558.433 342.077 558.586 344.771C563.404 351.291 565.779 354.085 562.148 361.91L561.689 361.99C560.89 360.5 561.774 356.753 562.046 354.703C557.869 346.772 555.371 344.146 557.088 335.1Z"/><path fill="#078AAB" transform="scale(1.33333 1.33333)" d="M581.795 279.379C585.356 279 587.923 278.837 591.503 278.783L591.928 279.511L593.264 278.969C591.383 280.325 584.214 281.15 581.482 281.574C579.225 281.622 573.158 282.219 571.912 281.074L571.824 281.677L570.712 281.267C574.862 279.879 577.503 279.775 581.795 279.379Z"/><path fill="#078AAB" transform="scale(1.33333 1.33333)" d="M520.549 364.151C522.26 365.496 525.644 376.291 525.746 378.896C521.7 376.708 520.584 368.256 520.549 364.151Z"/><path fill="#0D5857" transform="scale(1.33333 1.33333)" d="M539.246 317.69L539.689 318.123C538.471 320.517 533.427 324.997 531.267 327.082L530.4 326.445C530.872 323.825 536.917 319.563 539.246 317.69Z"/><path fill="#0D5857" transform="scale(1.33333 1.33333)" d="M579.785 289.572L580.682 289.699C579.74 290.918 572.297 293.817 570.073 294.959L568.597 294.638L568.52 293.712C571.383 292.01 576.465 290.621 579.785 289.572Z"/><path fill="#0D5857" transform="scale(1.33333 1.33333)" d="M552.449 355.046C553.639 355.647 554.832 356.283 556.016 356.899C556.727 358.95 556.303 358.911 555.585 361.289L554.419 361.017C553.371 358.166 552.724 358.329 552.449 355.046Z"/><path fill="#A5BFB4" transform="scale(1.33333 1.33333)" d="M567.368 368.145C568.957 369.837 567.259 373.835 565.944 375.399L565.502 374.97C565.178 372.658 566.444 370.347 567.368 368.145Z"/><path fill="#0D5857" transform="scale(1.33333 1.33333)" d="M595.806 331.049L597.178 331.946C598.495 333.743 598.012 336.02 597.844 338.297C596.07 336.235 596.271 334.09 595.806 331.049Z"/><path fill="#0D5857" transform="scale(1.33333 1.33333)" d="M551.923 279.934C555.21 279.58 557.575 278.877 560.066 281.214C558.708 281.009 554.537 281.076 552.682 280.981L551.923 279.934Z"/><path fill="#6EA5A5" transform="scale(1.33333 1.33333)" d="M530.636 361.394L531.607 362.23C531.897 364.025 530.637 366.641 529.952 368.498L529.221 368.484C529.016 366.093 529.941 363.727 530.636 361.394Z"/><path fill="#0D5857" transform="scale(1.33333 1.33333)" d="M544.106 300.006L545.13 300.21C544.404 301.62 542.728 301.944 540.944 302.752L539.517 302.305L539.864 301.547L544.106 300.006Z"/><path fill="#06434D" transform="scale(1.33333 1.33333)" d="M767.304 137.304L767.509 136.982C770.895 131.583 772.651 125.191 774.865 119.22C777.704 111.567 795.858 93.2786 804.431 93.6408C810.666 98.2713 794.46 120.65 795.73 125.882C801.828 125.287 808.147 113.558 809.974 108.166C813.97 96.3802 827.013 92.0521 838.029 89.1157C836.447 96.7451 834.924 104.919 832.595 112.315C840.549 107.357 847.646 102.994 857.21 101.931C861.462 101.458 867.79 99.6921 871.45 102.302C874.081 108.731 862.554 118.796 857.836 122.902C860.338 123.891 863.211 124.672 864.654 126.841C864.874 128.3 865.255 128.516 864.211 129.759C857.485 137.765 840.766 127.705 835.596 134.748C838.401 139.7 855.07 139.816 857.338 146.614C855.251 151.942 840.61 154.257 835.59 154.256C829.037 154.255 810.526 146.229 805.866 151.951C810.634 155.321 829.219 158.138 830.776 165.627C829.793 168.484 826.757 169.784 824.222 171.084C812.14 177.277 800.289 174.182 789.606 166.611C783.248 168.078 780.724 168.537 774.885 171.174C790.742 172.871 792.079 175.791 803.298 186.738C798.228 190.354 794.532 191.575 788.265 192.542C787.569 192.649 788.041 192.502 787.321 192.81C773.907 193.189 772.491 193.11 759.794 188.7C756.583 189.552 750.446 190.851 747.947 192.617L747.549 193.839C750.311 196.325 752.419 195.704 755.993 195.198C760.904 194.689 769.023 192.905 772.471 195.479C774.024 198.982 772.177 200.936 770.421 204.078C772.136 205.782 772.482 205.519 772.622 207.51C770.64 210.228 766.232 210.7 762.911 213.418C759.577 212.971 755.049 214.907 750.371 214.742L749.524 214.678C746.249 218.279 744.168 221.6 741.439 224.686L742.366 225.212C741.174 227.038 739.698 229.941 739.446 232.108L730.779 234.249L730.381 231.98C719.962 234.312 717.496 231.214 707.591 228.979L706.934 229.215C705.178 229.859 704.155 230.174 702.855 231.581C699.679 235.019 693.287 232.352 689.378 235.175C689.318 235.219 688.151 235.694 688.086 235.721L687.169 236.111L679.026 244.136C679.025 239.191 679.603 231.827 678.794 227.098C678.085 222.954 671.499 218.208 671.365 213.925L671.545 212.402C671.87 205.779 672.911 203.773 675.358 197.705C677.69 195.188 680.041 196.052 683.321 196.343C683.064 192.737 683.031 191.018 683.286 187.426C685.379 183.526 684.774 176.112 688.781 167.399L688.452 166.501C694.089 162.994 699.506 159.064 702.525 153.01L703.718 151.505C704.192 149.213 705.348 145.572 706.012 143.214L707.228 142.022C714.572 142.693 720.307 164.101 720.886 170.599C720.929 171.087 721.019 171.057 721.346 171.52L721.956 171.745C728.878 167.358 721.107 159.307 719.062 154.366C717.878 151.506 717.061 149.118 716.321 146.107C717.993 139.44 722.554 126.663 728.293 122.913C737.477 121.684 733.868 154.496 736.658 157.896C738.541 156.36 741.157 151.417 742.344 149.108C740.813 127.969 746.478 115.283 765.49 104.63C765.721 111.534 766.345 118.565 765.569 125.435C764.896 131.39 759.601 135.509 761.184 140.077C763.026 140.047 765.555 138.295 767.304 137.304ZM732.771 218.18L738.018 211.561C731.318 206.517 725.25 207.195 719.316 212.948C723.483 214.265 729.094 215.909 732.771 218.18ZM700.678 182.836L705.866 182.019C703.648 178.265 703.24 176.75 702.049 172.57C699.946 173.872 697.698 175.199 695.711 176.645C697.095 178.569 698.933 181.385 700.678 182.836Z"/><path fill="#098671" transform="scale(1.33333 1.33333)" d="M702.525 153.01L703.718 151.505C703.42 154.385 702.757 156.136 702.087 158.908C700.96 163.567 701.759 167.9 702.049 172.57C699.946 173.872 697.698 175.199 695.711 176.645C693.447 173.026 691.975 170.307 688.781 167.399L688.452 166.501C694.089 162.994 699.506 159.064 702.525 153.01Z"/><path fill="#098671" transform="scale(1.33333 1.33333)" d="M738.018 211.561C742.566 213.478 744.621 214.115 749.524 214.678C746.249 218.279 744.168 221.6 741.439 224.686L741.005 224.698C738.362 222.065 735.78 220.333 732.771 218.18L738.018 211.561Z"/><path fill="#098671" transform="scale(1.33333 1.33333)" d="M675.358 197.705C677.69 195.188 680.041 196.052 683.321 196.343C683.961 203.038 690.121 204.251 688.905 210.416C687.754 211.631 687.657 211.866 686.135 212.416L685.388 211.926C685.234 208.639 677.918 200.483 675.358 197.705Z"/><path fill="#098671" transform="scale(1.33333 1.33333)" d="M755.993 195.198C760.904 194.689 769.023 192.905 772.471 195.479C774.024 198.982 772.177 200.936 770.421 204.078C764.61 199.557 762.617 197.933 755.993 195.198Z"/><path fill="#098671" transform="scale(1.33333 1.33333)" d="M705.866 182.019C706.309 185.607 706.564 192.576 702.054 193.849C700.493 191.401 702.404 187.693 700.678 182.836L705.866 182.019Z"/><path fill="#2BA07E" transform="scale(1.33333 1.33333)" d="M741.005 224.698L741.439 224.686L742.366 225.212C741.174 227.038 739.698 229.941 739.446 232.108L730.779 234.249L730.381 231.98C734.325 230.438 739.045 228.491 741.005 224.698Z"/><path fill="#078AAB" transform="scale(1.33333 1.33333)" d="M718.788 191.077C755.348 157.58 792.339 136.27 838.121 117.645C841.513 116.265 855.684 109.132 858.33 109.593C854.988 113.407 846.083 116.884 841.232 118.899C790.147 140.118 740.828 167.258 704.507 209.952C699.363 216 692.291 230.345 687.052 235.015C688.551 229.429 694.62 220.641 697.832 215.315C701.783 210.419 715.012 195.966 717.338 191.633C715.445 183.261 714.62 178.806 709.943 171.653C708.922 170.091 708.532 160.653 710.023 158.728C712.052 162.118 711.075 167.998 712.372 171.158C715.567 178.938 717.377 182.662 718.788 191.077Z"/><path fill="#078AAB" transform="scale(1.33333 1.33333)" d="M757.8 174.258C764.024 174.184 769.445 179.151 775.349 180.826C778.265 181.653 782.767 180.419 785.223 182.405L784.857 183.101C781.181 183.521 778.73 183.928 775.006 183.505C770.881 182.012 764.244 178.259 759.504 176.2C754.85 177.102 752.046 177.944 747.371 176.834L747.435 176.077C750.298 174.685 754.531 174.566 757.8 174.258Z"/><path fill="#078AAB" transform="scale(1.33333 1.33333)" d="M784.546 153.745C791.511 152.939 792.544 157.148 797.912 159.554C802.299 161.52 807.416 162.493 811.983 164.583L811.513 165.096C808.238 165.533 807.63 165.569 804.364 165.14C797.574 162.518 793.455 158.559 787.188 155.815C784.461 154.621 777.984 159.641 775.057 155.523C778.213 154.894 781.376 154.301 784.546 153.745Z"/><path fill="#078AAB" transform="scale(1.33333 1.33333)" d="M792.32 108.103L792.95 108.844C793.005 113.224 786.352 119.999 784.815 124.102C782.267 130.906 780.892 137.854 778.006 144.592C774.273 139.722 788.484 112.676 792.32 108.103Z"/><path fill="#078AAB" transform="scale(1.33333 1.33333)" d="M755.992 123.741C757.115 126.185 755.285 131.171 754.404 133.805C751.901 141.291 753.524 154.595 750.314 161.183C747.626 154.638 752.017 130.898 755.992 123.741Z"/><path fill="#078AAB" transform="scale(1.33333 1.33333)" d="M726.026 138.636L727.984 139.448C729.089 143.022 727.275 148.639 727.98 151.718C730.657 163.407 734.824 161.385 733.203 174.251L732.939 175.02C730.895 172.597 732.133 165.67 731.029 163.824C724.738 153.302 725.891 150.347 726.026 138.636Z"/><path fill="#078AAB" transform="scale(1.33333 1.33333)" d="M731.739 197.199C736.581 196.072 742.928 201.251 746.741 203.835C748.885 203.746 753.609 203.345 755.222 204.719C753.212 205.883 751.072 205.709 748.678 205.817C744.989 206.436 740.491 201.465 735.444 199.094L735.015 199.136C732.602 199.367 727.191 200.006 725.218 198.375C727.329 197.297 729.339 197.374 731.739 197.199Z"/><path fill="#078AAB" transform="scale(1.33333 1.33333)" d="M828.24 100.176L829.192 100.815C828.526 102.732 827.513 103.467 826.095 104.824C819.958 110.696 815.794 118.745 812.178 126.369L811.338 126.463C809.671 120.384 823.757 104.286 828.24 100.176Z"/><path fill="#078AAB" transform="scale(1.33333 1.33333)" d="M813.907 135.344C816.326 136.675 816.836 135.805 818.732 136.391C825.509 138.486 831.728 142.351 838.634 144.214C838.634 144.214 839.628 145.623 839.725 145.759C838.03 146.145 836.801 146.249 834.87 145.56C828.056 143.131 821.432 139.581 814.695 136.844C814.38 136.245 814.117 135.745 813.907 135.344Z"/><path fill="#078AAB" transform="scale(1.33333 1.33333)" d="M689.903 191.133L691.216 188.734C692.55 189.817 701.049 208.786 698.48 212.129C697.351 204.821 692.426 199.096 689.903 191.133Z"/><path fill="#078AAB" transform="scale(1.33333 1.33333)" d="M701.02 218.91C706.887 217.956 720.124 220.905 724.694 223.325L724.781 224.431C722.431 224.339 719.219 224.19 717.199 223.026C712.371 220.245 705.667 221.143 701.412 220.033L701.02 218.91Z"/><path fill="#098671" transform="scale(1.33333 1.33333)" d="M676.889 212.565C678.743 214.045 681.271 222.315 681.363 224.813C678.265 221.514 675.455 217.138 676.889 212.565Z"/><path fill="#06434D" transform="scale(1.33333 1.33333)" d="M493.065 109.613C491.32 105.42 484.461 92.2943 484.428 89.3803C487.938 87.5074 494.703 92.5578 498.941 94.7764C506.692 98.8336 511.684 103.701 515.615 111.866C516.051 112.771 527.311 123.561 528.067 123.74C528.374 120.614 525.318 116.59 523.543 113.996C518.361 106.421 518.165 98.4327 515.36 90.0052C526.091 94.1812 542.453 105.36 547.205 116.219C549.743 122.016 549.814 136.025 557.155 137.689C562.048 133.912 552.41 112.766 556.683 106.345C567.431 103.076 582.997 131.548 582.216 140.322C582.009 142.648 587.235 151.498 589.136 153.256C590.427 151.201 581.197 123.241 589.018 120.942C594.018 123.116 610.967 143.518 612.22 148.068C616.37 163.137 602.236 166.321 616.047 182.203C617.185 177.871 619.557 168.157 621.668 164.717C618.372 154.254 619.12 150.245 622.222 140.194C626.685 143.877 631.4 146.969 635.851 150.691L633.051 150.035C632.795 151.995 634.427 153.921 634.714 157.829C635.471 160.773 636.384 164.02 636.964 166.975L638.053 170.064C640.468 180.509 639.691 182.765 634.657 192.499C635.125 195.465 635.401 198.593 636.881 201.18L638.108 201.983C644.15 199.63 646.649 186.509 653.75 187.088C660.512 191.662 656.86 207.916 655.602 214.842C654.011 217.066 652.079 219.934 650.301 221.92C651.685 226.825 652.587 228.42 656.006 232.208L655.705 232.703L656.458 233.492C656.377 236.603 656.314 239.396 656.431 242.504L654.133 242.801L649.243 236.542L649.248 235.494L647.709 236.043C643.465 234.072 641.681 233.258 637.023 232.866C628.576 225.807 622.319 225.696 612.288 229.687C604.136 231.606 599.344 230.06 591.653 230.2C590.837 230.202 586.584 229.426 585.526 229.248L584.127 228.075L583.815 226.795C587.328 221.772 588.606 220.228 592.804 215.985C595.459 213.307 605.1 208.305 603.971 204.915C597.551 201.857 592.527 206.203 588.547 210.593C583.258 215.453 576.491 215.788 569.503 215.48C564.514 215.257 559.56 214.539 554.713 213.335L554.19 214.118C550.122 211.184 544.239 203.261 543.588 198.16C543.396 196.655 544.811 195.883 545.83 194.956C540.179 195.252 526.166 195.236 523.967 189.306C524.329 183.891 531.618 177.448 535.518 173.803C540.533 172.675 546.986 173.025 551.44 170.169L551.588 169.115C550.344 168.196 550.102 168.142 548.817 167.659C536.193 162.917 532.841 167.172 522.591 172.94C514.654 177.407 500.573 172.199 492.231 169.195C496.105 164.727 499.106 160.471 503.892 156.81C507.422 154.11 518.348 154.226 517.782 149.553C516.377 147.405 513.63 146.159 511.336 144.863C502.406 148.569 499.947 152.298 489.098 150.381C484.755 149.614 466.148 147.988 467.086 142.2C471.088 137.524 483.94 132.882 489.841 131.119C488.18 129.486 486.302 128.121 484.456 126.692C472.249 126.694 470.366 123.95 462.749 114.707C460.36 111.864 457.193 108.175 455.81 104.818L455.584 103.421C462.365 97.9965 485.72 107.151 493.065 109.613ZM552.396 194.405C556.534 195.373 560.35 196.237 564.418 197.506C569.659 192.84 571.909 192.949 578.828 191.214C574.302 189.423 571.317 188.489 566.62 187.18C561.262 190.734 558.783 192.768 552.396 194.405Z"/><path fill="#078AAB" transform="scale(1.33333 1.33333)" d="M495.779 100.349C505.591 107.694 509.18 112.627 512.158 124.323C522.146 129.503 533.381 134.963 542.688 141.062C540.578 123.649 535.759 122.131 530.172 107.927C540.403 120.62 542.24 126.232 545.067 142.106C550.313 145.729 572.53 161.737 576.911 162.71L577.198 161.922C574.476 157.207 573.5 156.914 569.696 153.259C569.931 140.36 566.424 127.824 562.652 115.543C569.402 125.344 572.144 140.392 571.506 152.18C572.748 153.318 576.123 156.382 576.82 157.69C579.534 162.787 578.39 165.141 583.284 169.029C602.866 184.586 622.596 201.852 638.606 221.094C644.812 212.656 645.819 208.879 650.75 200.889C648.234 211.185 646.694 214.191 639.796 222.069C642.742 225.503 647.838 231.233 649.248 235.494L647.709 236.043C645.492 231.687 637.844 222.579 634.105 218.537C603.194 185.12 567.368 156.912 527.505 135.165C513.527 127.438 498.912 120.924 483.821 115.694C482.412 115.217 475.145 113.03 474.684 112.221C486.378 112.892 499.331 118.906 510.119 123.305C504.535 109 503.492 111.662 495.779 100.349Z"/><defs><linearGradient id="gradient_0" gradientUnits="userSpaceOnUse" x1="559.36627" y1="204.8712" x2="544.04614" y2="199.36473"><stop offset="0" stop-color="#04876F"/><stop offset="1" stop-color="#0BA184"/></linearGradient></defs><path fill="url(#gradient_0)" transform="scale(1.33333 1.33333)" d="M545.83 194.956C548.359 194.497 549.828 194.107 552.396 194.405C556.534 195.373 560.35 196.237 564.418 197.506C562.134 200.47 552.919 210.3 554.713 213.335L554.19 214.118C550.122 211.184 544.239 203.261 543.588 198.16C543.396 196.655 544.811 195.883 545.83 194.956Z"/><path fill="#098671" transform="scale(1.33333 1.33333)" d="M622.222 140.194C626.685 143.877 631.4 146.969 635.851 150.691L633.051 150.035C632.795 151.995 634.427 153.921 634.714 157.829C633.701 155.4 632.894 152.665 630.827 151.181C625.681 150.326 624.088 160.772 621.668 164.717C618.372 154.254 619.12 150.245 622.222 140.194Z"/><path fill="#0D5857" transform="scale(1.33333 1.33333)" d="M455.81 104.818L456.407 105.271C461.207 108.866 464.125 107.591 464.869 111.789C464.145 113.361 464.036 113.557 462.749 114.707C460.36 111.864 457.193 108.175 455.81 104.818Z"/><path fill="#078AAB" transform="scale(1.33333 1.33333)" d="M537.573 151.032C540.226 150.907 546.265 150.265 548.329 151.26C545.106 152.978 538.329 152.414 535.377 154.49C526.073 161.033 528.628 163.351 517.287 166.995C513.346 167.719 511.578 168.049 507.675 166.639C509.759 165.115 519.658 164.446 522.466 162.675C528.952 158.585 529.866 154.088 537.573 151.032Z"/><path fill="#078AAB" transform="scale(1.33333 1.33333)" d="M596.814 140.956C604.326 145.822 601.269 166.629 600.345 174.689C601.489 176.98 602.613 178.73 602.611 181.283C600.211 178.703 599.601 177.028 598.243 173.794C600.68 160.726 599.703 153.765 596.814 140.956Z"/><path fill="#078AAB" transform="scale(1.33333 1.33333)" d="M573.788 172.128C575.608 172.234 575.115 171.965 576.501 172.865C575.397 174.25 572.032 173.41 568.941 174.977C557.402 180.824 555.533 183.966 542.702 187.218C540.745 187.371 540.187 187.795 538.96 186.823C540.392 185.476 547.42 183.95 550.216 182.736C559.483 178.713 563.53 173.66 573.788 172.128Z"/><path fill="#078AAB" transform="scale(1.33333 1.33333)" d="M597.084 191.637C598.853 191.579 598.809 191.571 600.512 192.049C599 193.877 595.59 193.6 593.509 195.127C585.027 201.346 585.134 204.224 574.364 206.13C572.755 206.305 572.805 206.264 571.213 205.846C573.03 203.944 579.993 202.808 582.035 201.487C589.182 196.862 588.425 194.407 597.084 191.637Z"/><path fill="#078AAB" transform="scale(1.33333 1.33333)" d="M629.073 171.819L629.651 172.403C631.514 177.965 626.098 193.11 624.73 199.722C621.665 196.079 627.697 177.613 629.073 171.819Z"/><path fill="#078AAB" transform="scale(1.33333 1.33333)" d="M617.61 213.507L621.425 213.286L622.411 214.17L623.788 213.655L623.89 213.945C622.186 214.435 615.651 216.277 614.356 217.048C609.927 219.685 609.193 220.625 604.036 222.31C602.267 222.846 601.806 222.888 599.955 223.004L599.746 222.277C601.77 221.015 615.837 213.975 617.61 213.507Z"/><path fill="#078AAB" transform="scale(1.33333 1.33333)" d="M503.604 131.667L504.103 133.651C499.596 142.046 494.957 141.937 486.196 142.142L485.583 141.381L485.796 140.318C487.152 139.622 494.836 139.229 497.469 138.84C499.871 136.276 501.473 134.455 503.604 131.667Z"/><path fill="#069379" transform="scale(1.33333 1.33333)" d="M652.56 124.856C651.729 105.478 637.527 91.0362 647.434 70.964C657.279 51.0181 660.502 88.0352 665.795 91.4079C668.847 84.6497 663.067 67.9332 672.085 59.863C675.85 56.4938 680.055 45.7979 685.803 44.814C688.874 46.8916 688.595 50.3377 689.555 53.9199C691.372 60.7006 691.489 58.9403 696.235 61.9377C699.461 69.3362 689.055 76.2272 688.594 83.582C689.415 85.3633 688.914 84.7504 690.688 85.7941C695.161 84.3282 699.266 80.3817 703.665 79.0296C706.402 78.1885 714.215 76.679 716.785 78.0076C720.315 92.0995 704.441 101.725 693.997 106.478C692.317 108.973 690.094 112.05 690.364 115.049C693.36 115.923 715.087 107.987 720.397 111.858C720.797 113.246 721.053 113.197 720.615 114.549C715.575 130.12 703.571 136.023 689.693 141.988C686.271 143.459 683.764 146.513 686.26 150.39C690.079 151.333 701.654 145.141 706.012 143.214C705.348 145.572 704.192 149.213 703.718 151.505L702.525 153.01C699.506 159.064 694.089 162.994 688.452 166.501L688.781 167.399C684.774 176.112 685.379 183.526 683.286 187.426C683.031 191.018 683.064 192.737 683.321 196.343C680.041 196.052 677.69 195.188 675.358 197.705C672.911 203.773 671.87 205.779 671.545 212.402C671.085 207.992 669.33 208.302 665.922 205.891C665.874 208.119 666.227 208.614 665.139 210.295C663.621 208.532 662.628 200.092 662.209 197.267C662.167 193.247 661.812 188.842 661.571 184.801C655.188 180.52 642.572 173.508 638.053 170.064L636.964 166.975C636.384 164.02 635.471 160.773 634.714 157.829C634.427 153.921 632.795 151.995 633.051 150.035L635.851 150.691C638.807 151.932 645.883 160.175 648.184 162.742L648.808 151.158C642.505 144.337 628.414 140.529 625.64 124.863C624.263 117.09 626.032 103.082 630.343 96.3669C634.666 100.473 638.167 104.488 641.583 109.367C645.15 114.463 648.189 120.559 652.56 124.856Z"/><path fill="#A5BFB4" transform="scale(1.33333 1.33333)" d="M668.419 113.179C669.687 107.619 677.94 70.6576 680.999 67.8158C683.313 69.0904 677.039 88.3377 676.354 90.9965C673.757 101.396 671.502 111.879 669.595 122.427C665.125 146.538 662.648 166.8 664.827 191.443C665.192 195.567 665.297 202.074 665.922 205.891C665.874 208.119 666.227 208.614 665.139 210.295C663.621 208.532 662.628 200.092 662.209 197.267C662.167 193.247 661.812 188.842 661.571 184.801C655.188 180.52 642.572 173.508 638.053 170.064L636.964 166.975C643.853 170.382 655.412 177.699 661.533 182.288C660.471 157.93 664.14 138.885 667.872 115.1C668.097 113.663 659.247 106.207 658.3 104.247C655.738 100.863 651.741 84.5877 654.11 81.8701C658.366 86.4097 655.625 93.4217 658.318 99.0404L658.512 99.4537C660.241 103.076 665.698 109.716 668.419 113.179Z"/><path fill="#A5BFB4" transform="scale(1.33333 1.33333)" d="M688.452 166.501C685.151 168.025 682.179 169.188 679.408 171.543C676.471 174.039 672.969 177.289 669.553 178.942L669.221 178.317C676.058 168.765 682.832 166.653 692.29 160.591C695.776 158.356 698.775 154.449 702.525 153.01C699.506 159.064 694.089 162.994 688.452 166.501Z"/><path fill="#A5BFB4" transform="scale(1.33333 1.33333)" d="M703.813 119.349L705.311 119.296L705.792 120.055C704.35 122.151 697.119 127.944 694.707 129.188C690.956 131.125 685.162 131.568 681.537 134.28L681.199 134.538C675.971 138.441 673.928 143.923 669.204 146.458L667.778 146.002C676.684 132.188 681.039 132.217 694.887 125.467C696.048 124.901 702.292 120.401 703.813 119.349Z"/><path fill="#A5BFB4" transform="scale(1.33333 1.33333)" d="M636.419 116.332L637.792 116.833C640.262 119.479 639.167 126.629 641.547 129.107C649.9 137.802 654.619 133.774 660.22 146.364C656.701 145.491 656.259 143.25 653.755 141.116C647.847 136.084 642.091 134.647 637.472 128.08C636.82 123.524 636.528 120.983 636.419 116.332Z"/><path fill="#A5BFB4" transform="scale(1.33333 1.33333)" d="M703.638 87.6147L705.013 88.1337C703.93 94.3978 684.155 101.179 678.373 104.434L677.915 104.606L677.368 104.126C679.053 100.288 691.677 96.6018 695.707 93.5329C698.09 91.7183 701.249 89.3642 703.638 87.6147Z"/><path fill="#2BA07E" transform="scale(1.33333 1.33333)" d="M688.732 104.839L689.432 106.051L688.1 108.944L688.948 111.008C688.27 110.948 687.421 110.733 686.738 110.589L685.963 109.27C686.404 107.114 687.254 106.487 688.732 104.839Z"/></svg>