<?xml version="1.0" encoding="utf-8" ?><svg xmlns="http://www.w3.org/2000/svg" xmlns:xlink="http://www.w3.org/1999/xlink" width="1792" height="1024" viewBox="0 0 1792 1024"><path fill="#093537" transform="scale(1.33333 1.33333)" d="M361.773 118.173C358.066 113.388 352.822 108.824 348.729 103.461C337.092 88.2093 328.574 71.1303 325.055 52.192C324.125 47.1889 323.017 28.1485 325.426 24.7419C326.887 25.1374 330.651 37.8933 331.498 40.3648C340.302 65.57 355.157 88.2285 374.758 106.352C366.467 93.837 361.927 85.7714 357.416 71.3352C355.503 65.2123 349.719 30.077 356.545 28.3978C357.817 30.1619 360.182 41.5856 360.943 44.6023C371.956 88.2183 398.739 117.443 433.502 144.842C432.371 141.779 430.454 137.06 431.223 133.865C434.468 133.145 482.048 172.891 486.079 178.468C508.8 209.895 539.789 224.356 569.065 248.484C586.235 262.634 604.391 276.411 623.563 288.449C638.026 293.876 651.351 294.125 666.418 294.255C702.23 294.123 708.696 284.751 736.587 264.711C755.515 251.11 775.189 238.321 793.461 223.571C814.811 209.658 828.7 193.082 844.999 174.075C854.37 163.147 871.87 151.912 883.1 142.855C886.185 140.367 897.017 129.593 900.141 132.898C900.81 137.53 898.342 141.96 896.456 146.196C922.136 124.341 948.792 104.686 970.117 78.274C977.548 69.0708 983.919 59.1136 990.474 49.3021C993.679 44.5052 998.091 36.887 1001.58 32.8959C1002.88 34.3314 1002.81 35.7163 1002.68 37.7554C1001.33 59.9492 982.172 87.5712 969.076 105.599C988.799 89.1242 1004.87 72.3051 1020.55 51.883C1023.85 47.5813 1040.09 27.12 1042.74 25.6653C1045.37 28.3958 1039.33 42.6553 1037.94 46.0352C1029.4 66.7141 1015.83 84.2263 1000.98 100.73C997.188 104.951 992.982 109.523 989.518 114.087C1007.4 102.779 1024.1 89.7048 1039.38 75.0616C1043.3 71.3221 1066.57 46.1137 1068.81 45.6274C1070.14 48.0709 1069.19 53.2869 1068.33 55.7423C1059.16 81.8083 1036.81 102.196 1016.4 119.841C1014.14 121.8 1011.8 123.761 1009.66 125.866C1019.19 121.055 1030.22 114.333 1038.55 109.404C1046.46 104.721 1082.42 74.4788 1087.45 74.3941L1088.06 75.1715C1080.98 91.6014 1066.81 107.9 1052.67 118.687C1044.67 124.785 1036.22 130.032 1028.31 136.525C1050.46 129.825 1066.58 115.919 1085.19 106.738C1078.96 137.575 1038.71 154.635 1015.21 170.059C1023.74 168.391 1032.2 166.362 1040.57 163.979C1048.65 161.61 1066.39 155.286 1073.6 154.967C1077.48 163.908 1038.5 184.532 1031.2 187.817C1035.63 188.938 1045.68 190.607 1048.04 193.589C1050.21 203.924 1019.66 215.033 1012.15 217.153C1015.02 218.63 1019.62 220.602 1020.53 223.823C1023.06 232.75 1006.27 237.914 1000.25 239.292C1018.11 255.526 986.415 258.761 976.165 259.466C981.614 274.389 968.845 272.435 958.07 272.752C959.314 294.696 950.251 283.518 939.083 289.731C934.169 292.465 944.739 300.382 922.604 298.293C922.576 315.007 915.214 314.918 901.654 311.588C903.86 329.888 893.167 326.457 880.352 325.108C877.67 342.289 872.379 347.454 855.408 340.123C852.847 352.624 851.037 355.965 837.905 349.625C831.703 364.689 830.431 366.275 814.263 360.655C810.743 369.81 809.348 375.5 798.648 368.521C795.736 374.81 793.253 382.705 784.561 378.038C782.994 377.211 781.493 376.261 780.075 375.198C777.147 387.33 775.833 389.454 764.618 381.993C763.066 412.323 743.536 386.954 732.124 380.075C733.746 388.353 735.909 396.73 736.477 405.093C739.26 406.715 741.373 408.405 743.691 410.606C762.614 428.567 784.429 443.132 804.944 459.151C807.23 460.936 809.673 463.26 811.616 465.406C812.879 474.605 801.33 476.989 793.943 473.436C793.262 473.033 789.154 471.392 788.192 470.992C786.66 477.706 812.735 498.442 778.283 499.114L778.263 500.005C781.216 528.277 757.112 507.043 753.538 509.442C752.626 515.177 755.813 522.113 746.494 520.322C743.466 519.74 740.731 518.425 738.799 515.949L735.501 512.547C733.764 510.602 734.198 510.529 731.989 509.779C727.727 511.773 727.4 518.587 721.697 519.214C717.091 518.174 715.917 515.705 713.282 511.982C711.906 510.298 711.461 509.547 709.415 508.653C707.15 508.569 705.044 510.472 703.111 511.837L701.148 512.529C700.457 513.824 699.459 515.472 699.132 516.857C694.381 523.759 688.896 517.282 684.914 514.419L684.598 514.194L683.79 514.169C678.625 515.467 676.937 510.717 675.211 506.937L674.78 505.63C670.245 500.751 673.727 497.581 668.954 494.156C666.448 483.976 652.613 489.408 661.924 472.658L661.42 471.864L660.602 472.754C657.772 471.355 658.966 468.807 655.816 466.386C653.548 466.344 654.434 466.181 652.131 467.854C649.641 454.908 641.582 421.102 641.482 409.496C635.996 400.763 635.163 403.771 626.21 398.434C624.712 397.541 621.044 393.784 619.624 392.347C607.323 406.101 605.323 386.906 597.747 382.175C588.904 392.934 582.281 382.235 578.654 374.093C565.775 382.752 563.081 377.02 557.6 365.397C539.371 379.615 542.611 356.892 536.218 353.393C525.66 365.278 522.45 353.187 520.002 343.976C504.604 352.753 504.143 340.581 502.449 328.579C490.064 335.515 488.512 332.045 487.32 319.66C470.915 330.716 467.898 322.713 469.406 306.718C456.188 313.524 453.805 305.999 457.309 294.051C452.459 294.125 448.894 294.008 444.052 293.671C443.223 289.56 443.087 286.296 442.83 282.148C439.747 283.041 436.651 283.931 433.521 284.615C419.127 287.765 422.048 278.612 424.44 269.538C415.192 270.637 402.367 273.933 408.019 259.697C402.551 259.87 391.338 260.638 386.774 257.26C381.679 253.489 388.084 247.207 390.853 244.028C380.102 242.683 366.574 241.787 357.114 236.18C349.418 231.62 359.593 221.114 363.215 216.512C353.514 212.606 330.216 207.2 326.461 196.212L327.109 195.045C331.314 193.398 351.675 195.375 360.677 194.342C350.488 190.401 309.65 169.337 308.877 158.237C311.473 157.218 314.105 158.474 316.696 159.273C328.3 162.851 340.189 167.766 352.381 168.579C328.442 155.804 302.402 139.546 293.57 112.132C297.134 114.012 306.205 120.311 309.776 122.795C325.831 133.959 340.388 141.954 359.684 146.157C332.415 128.194 306.047 98.4603 302.863 64.6923C307.445 69.0762 313.888 77.4207 318.141 82.5609C330.226 97.1652 344.152 110.584 361.773 118.173Z"/><path fill="#F2EEE2" transform="scale(1.33333 1.33333)" d="M729.147 413.811C729.764 414.513 730.394 415.203 731.035 415.883C732.751 417.675 733.197 417.919 735.321 417.956C737.686 415.203 736.52 409.246 736.477 405.093C739.26 406.715 741.373 408.405 743.691 410.606C762.614 428.567 784.429 443.132 804.944 459.151C807.23 460.936 809.673 463.26 811.616 465.406C812.879 474.605 801.33 476.989 793.943 473.436C793.262 473.033 789.154 471.392 788.192 470.992C786.66 477.706 812.735 498.442 778.283 499.114L778.263 500.005C781.216 528.277 757.112 507.043 753.538 509.442C752.626 515.177 755.813 522.113 746.494 520.322C743.466 519.74 740.731 518.425 738.799 515.949L735.501 512.547C733.764 510.602 734.198 510.529 731.989 509.779C727.727 511.773 727.4 518.587 721.697 519.214C717.091 518.174 715.917 515.705 713.282 511.982C711.906 510.298 711.461 509.547 709.415 508.653C707.15 508.569 705.044 510.472 703.111 511.837L704.192 508.467L705.058 504.333C704.559 499.511 701.983 492.617 700.382 487.829C701.525 483.56 703.333 477.434 705.838 473.804L707.649 475.426C709.803 475.563 708.935 475.763 710.928 474.451C713.257 470.593 713.063 467.209 712.915 462.804C714.176 465.595 715.79 470.36 718.759 471.248C720.121 469.831 719.787 469.569 720.15 467.371C720.763 464.882 720.019 463.636 721.416 461.408C725.144 460.609 725.304 456.466 726.079 453.181C724.923 447.442 726.051 451.124 730.585 447.755C731.905 440.94 731.51 435.157 731.327 428.297C730.923 423.285 730.038 418.749 729.147 413.811Z"/><path fill="#EDE9DF" transform="scale(1.33333 1.33333)" d="M731.327 428.297C732.615 430.156 732.715 430.399 732.657 432.655L733.101 432.114C734.418 430.524 734.746 429.911 736.669 429.148L737.945 429.597C738.478 430.919 739.349 432.888 739.954 432.597C738.221 433.431 740.556 441.117 740.711 441.676L739.287 439.575C737.976 439.924 738.54 439.584 737.644 440.778C736.39 438.76 737.299 438.093 735.812 437.503C735.218 440.966 734.332 445.307 735.887 448.301C738.708 448.601 739.988 445.986 741.504 443.839L741.29 444.457L742.338 442.595C743.29 443.228 743.229 443.317 743.628 444.311C744.83 447.31 748.805 448.808 748.008 452.413C744.702 453.385 744.65 452.769 742.794 454.976C742.359 457.114 742.243 457.85 742.206 460.025C735.754 460.723 737.476 449.222 730.585 447.755C731.905 440.94 731.51 435.157 731.327 428.297Z"/><path fill="#EAE1C0" transform="scale(1.33333 1.33333)" d="M762.363 479.556L759.55 480.747C758.583 483.335 758.882 483.796 759.646 486.816L758.842 487.288C756.24 484.502 755.433 476.242 753.289 473.29C749.569 468.166 746.65 468.994 748.45 461.718L750.341 463.021L750.66 462.131C749.772 460.755 749.608 460.666 748.331 459.603C748.189 457.492 748.791 456.906 748.503 454.55L749.28 454.229C750.622 455.381 750.995 455.753 752.082 457.147L754.89 457.406L755.713 458.421L755.549 459.114C755.084 461.115 754.545 463.164 755.905 464.866C758.013 467.504 769.761 475.234 770.548 478.141C769.588 478.649 768.049 479.399 767.234 480.009C763.722 474.624 760.682 469.753 755.916 465.392C757.634 471.557 758.588 474.135 762.363 479.556Z"/><path fill="#EDE9DF" transform="scale(1.33333 1.33333)" d="M726.079 453.181L726.228 453.838C726.697 455.848 726.789 456.65 728.259 458.181C732.842 459.629 731.817 456.986 735.427 458.403C735.414 459.019 735.406 461.108 735.271 461.523C734.321 464.447 738.236 469.575 736.672 471.647L735.851 471.523C735.31 470.531 734.642 469.204 733.987 468.334C732.103 472.007 735.204 473.781 727.6 476.008C725.271 472.809 728.198 469.928 724.021 466.729C721.366 466.625 722.195 466.342 720.15 467.371C720.763 464.882 720.019 463.636 721.416 461.408C725.144 460.609 725.304 456.466 726.079 453.181Z"/><path fill="#405650" transform="scale(1.33333 1.33333)" d="M755.916 465.392C760.682 469.753 763.722 474.624 767.234 480.009C771.367 486.515 775.076 492.035 778.283 499.114L778.263 500.005L776.645 499.785C772.324 496.642 765.211 484.506 762.363 479.556C758.588 474.135 757.634 471.557 755.916 465.392Z"/><path fill="#405650" transform="scale(1.33333 1.33333)" d="M774.837 461.921C772.801 460.462 772.566 460.258 771.455 458.023L771.808 457.215C776.673 457.662 785.012 464.43 789.652 466.83C792.025 468.058 797.562 469.734 798.9 471.15L799.257 472.301C797.724 473.723 796.527 473.284 793.943 473.436C793.262 473.033 789.154 471.392 788.192 470.992C787.412 469.592 782.719 467.197 781.045 466.227C779.04 464.606 776.993 463.326 774.837 461.921Z"/><path fill="#405650" transform="scale(1.33333 1.33333)" d="M735.501 512.547C735.002 505.848 724.586 493.455 726.148 483.479C729.571 484.174 739.544 512.393 738.799 515.949L735.501 512.547Z"/><path fill="#405650" transform="scale(1.33333 1.33333)" d="M711.136 504.263C710.128 496.932 708.324 487.402 709.336 480.217L709.932 479.801C711.479 482.767 716.183 508.005 716.663 512.232L715.695 512.565L714.065 511.587C713.198 509.215 712.09 506.629 711.136 504.263Z"/><path fill="#EDE9DF" transform="scale(1.33333 1.33333)" d="M705.058 504.333C707.81 501.574 708.142 502.633 711.136 504.263C712.09 506.629 713.198 509.215 714.065 511.587L713.282 511.982C711.906 510.298 711.461 509.547 709.415 508.653C707.15 508.569 705.044 510.472 703.111 511.837L704.192 508.467L705.058 504.333Z"/><path fill="#EAE1C0" transform="scale(1.33333 1.33333)" d="M774.837 461.921C776.993 463.326 779.04 464.606 781.045 466.227C778.394 468.383 781.389 469.393 780.655 472.311C770.84 465.271 776.006 469.007 774.837 461.921Z"/><path fill="#EAE1C0" transform="scale(1.33333 1.33333)" d="M747.224 490.294C745.827 490.697 744.657 491.231 743.312 490.765L743.464 488.431L742.609 487.576C739.761 487.167 741.359 487.832 738.335 488.651C737.325 485.258 735.414 486.559 735.018 483.446L735.822 483.015L737.337 484.035L737.969 483.442C739.757 475.104 738.455 479.4 737.671 472.953L738.469 472.306C739.257 472.772 739.916 473.192 740.676 473.691C741.67 471.262 739.976 467.489 740.617 464.06C745.526 469.915 740.597 473.471 745.906 477.675C743.951 478.82 744.456 478.146 743.891 480.127C744.599 484.18 745.844 486.478 747.224 490.294Z"/><path fill="#405650" transform="scale(1.33333 1.33333)" d="M747.224 490.294C745.844 486.478 744.599 484.18 743.891 480.127C744.456 478.146 743.951 478.82 745.906 477.675C748.183 482.868 759.234 504.585 758.78 507.684C754.426 507.263 749.353 493.772 747.224 490.294Z"/><path fill="#EDE9DF" transform="scale(1.33333 1.33333)" d="M753.175 444.461C756.074 444.503 759.856 452.983 759.878 455.901L759.062 456.612C756.504 456.303 755.279 454.525 753.487 452.614C751.623 449.481 750.331 449.843 748.398 447.148C750.855 446.992 751.192 446.968 753.367 445.841L752.902 445.36L753.175 444.461Z"/><path fill="#EAE1C0" transform="scale(1.33333 1.33333)" d="M747.016 434.185C752.871 434.414 760.059 440.357 760.098 445.918L758.77 445.235C756.367 442.672 757.224 441.919 755.195 439.643C753.209 439.424 751.934 440.365 749.853 441.232C746.337 440.552 746.82 437.196 747.016 434.185Z"/><path fill="#EAE1C0" transform="scale(1.33333 1.33333)" d="M774.79 449.343C777.749 449.888 780.029 452.537 781.262 455.128C778.598 455.516 777.995 455.288 776.039 454.144C774.776 452.255 774.87 451.581 774.79 449.343Z"/><path fill="#EDE9DF" transform="scale(1.33333 1.33333)" d="M720.803 475.394C723.303 476.169 724.565 479.51 724.714 481.893C723.768 483.171 723.727 483.402 722.286 483.838C721.175 482.198 721.196 478.024 720.803 475.394Z"/><path fill="#EAE1C0" transform="scale(1.33333 1.33333)" d="M760.507 455.343C763.542 456.439 767.78 461.369 767.905 464.556L767.084 464.617C764.868 461.705 762.27 458.505 760.507 455.343Z"/><path fill="#EAE1C0" transform="scale(1.33333 1.33333)" d="M763.183 449.218C765.219 449.981 768.312 450.889 768.099 453.589L767.264 453.304L765.929 452.649L764.163 453.284C763.002 452.112 763.33 451.241 763.183 449.218Z"/><path fill="#F2EEE2" transform="scale(1.33333 1.33333)" d="M623.563 288.449C638.026 293.876 651.351 294.125 666.418 294.255C669.366 297.92 670.365 294.456 673.367 298.27C672.546 301.49 671.497 298.963 672.13 302C674.384 304.463 676.47 304.908 679.194 306.54C675.297 308.57 673.703 309.378 669.4 310.723C673.473 312.663 677.108 313.817 679.131 317.944C678.707 322.749 673.114 322.143 669.121 322.42C671.087 325.31 675.948 330.705 671.974 333.282C668.072 333.631 665.842 331.694 661.969 331.321C661.345 335.206 667.101 338.262 664.244 342.619C658.91 345.098 653.551 341.236 648.91 338.697C649.833 342.532 652.235 349.288 650.409 352.346C645.236 352.481 641.427 346.304 638.437 346.409C637.18 350.094 637.897 353.427 636.048 356.114C632.241 357.589 628.038 350.747 625.926 347.905C624.959 350.424 624.17 353.227 622.171 354.958C615.203 356.967 614.604 334.64 608.344 329.768C602.906 325.535 600.349 323.913 594.238 320.679C598.472 318.643 611.755 316.814 612.576 312.066C611.132 310.445 609.406 310.402 607.179 309.949C603.495 308.94 600.653 307.958 597.092 306.675C594.645 304.19 592.421 299.76 589.436 296.404C589.65 296.142 589.869 295.885 590.093 295.632C598.658 286.012 610.976 289.394 622.862 288.505L623.563 288.449Z"/><path fill="#0D4949" transform="scale(1.33333 1.33333)" d="M608.18 298.391C611.556 298.076 614.516 297.707 617.919 297.942C618.01 298.381 617.506 298.52 616.896 298.912C612.603 301.672 613.995 300.11 611.458 304.256C609.888 304.858 609.76 304.836 608.057 304.899C605.554 304.008 603.179 301.179 601.235 299.198L608.18 298.391Z"/><path fill="#EDE9DF" transform="scale(1.33333 1.33333)" d="M628.127 335.194C631.665 335.765 632.732 337.898 634.407 340.808C631.835 339.944 629.689 337.269 628.127 335.194Z"/><path fill="#EDE9DF" transform="scale(1.33333 1.33333)" d="M671.856 468.12C672.931 467.372 671.415 467.382 674.031 465.631L674.792 465.578C680.954 460.567 681.985 446.485 683.109 439.286L684.403 439.059C688.56 441.603 691.588 439.862 693.017 446.298C694.445 452.726 694.816 459.33 695.794 465.862C702.19 463.627 705.737 467.726 705.838 473.804C703.333 477.434 701.525 483.56 700.382 487.829C701.983 492.617 704.559 499.511 705.058 504.333L704.192 508.467L703.111 511.837L701.148 512.529C700.457 513.824 699.459 515.472 699.132 516.857C694.381 523.759 688.896 517.282 684.914 514.419L684.598 514.194L683.79 514.169C678.625 515.467 676.937 510.717 675.211 506.937L674.78 505.63C670.245 500.751 673.727 497.581 668.954 494.156C666.448 483.976 652.613 489.408 661.924 472.658L661.42 471.864C661.208 470.731 661.281 470.779 661.673 469.674C664.902 471.863 668.956 469.737 671.856 468.12Z"/><path fill="#EFA111" transform="scale(1.33333 1.33333)" d="M695.794 465.862C702.19 463.627 705.737 467.726 705.838 473.804C703.333 477.434 701.525 483.56 700.382 487.829C701.983 492.617 704.559 499.511 705.058 504.333L704.192 508.467L703.111 511.837L701.148 512.529C700.457 513.824 699.459 515.472 699.132 516.857C694.381 523.759 688.896 517.282 684.914 514.419L684.598 514.194L683.79 514.169C678.625 515.467 676.937 510.717 675.211 506.937L674.78 505.63C675.718 501.292 676.567 497.818 677.808 493.557L680.078 489.742L683.713 486.514C691.24 480.765 692.445 477.868 695.804 469.216C696.388 468.13 696.016 467.14 695.794 465.862Z"/><path fill="#F2EEE2" transform="scale(1.33333 1.33333)" d="M692.264 514.611C692.115 510.75 692.004 499.268 694.395 496.552C695.922 498.111 696.841 505.228 697.278 507.848C697.666 510.322 697.298 511.232 698.84 512.401L701.148 512.529C700.457 513.824 699.459 515.472 699.132 516.857C696.541 516.128 694.769 515.585 692.264 514.611Z"/><path fill="#093537" transform="scale(1.33333 1.33333)" d="M684.598 514.194C686.616 512.396 686.014 512.415 688.374 512.001C690.398 512.841 690.652 513.107 692.264 514.611C694.769 515.585 696.541 516.128 699.132 516.857C694.381 523.759 688.896 517.282 684.914 514.419L684.598 514.194Z"/><path fill="#405650" transform="scale(1.33333 1.33333)" d="M675.211 506.937C677.251 505.233 676.399 505.484 678.582 505.354C681.254 507.544 681.683 510.176 682.177 513.589L683.79 514.169C678.625 515.467 676.937 510.717 675.211 506.937Z"/><path fill="#093537" transform="scale(1.33333 1.33333)" d="M697.278 507.848C699.434 505.674 701.914 506.879 704.192 508.467L703.111 511.837L701.148 512.529L698.84 512.401C697.298 511.232 697.666 510.322 697.278 507.848Z"/><path fill="#3E3C29" transform="scale(1.33333 1.33333)" d="M684.672 496.03C686.168 498.335 684.592 505.13 684.092 508.263C680.577 505.461 682.597 499.201 684.672 496.03Z"/><path fill="#F2EEE2" transform="scale(1.33333 1.33333)" d="M674.499 478.931L676.144 480.174C678.573 478.745 681.295 469.749 682.51 466.693L683.422 466.385C684.489 468.164 684.036 468.487 683.806 470.888L684.774 471.921C683.984 476.232 683.11 480.872 683.683 485.261L683.713 486.514L680.078 489.742L677.808 493.557C676.567 497.818 675.718 501.292 674.78 505.63C670.245 500.751 673.727 497.581 668.954 494.156C666.448 483.976 652.613 489.408 661.924 472.658L661.42 471.864C661.208 470.731 661.281 470.779 661.673 469.674C664.902 471.863 668.956 469.737 671.856 468.12L671.279 471.242L672.934 470.83C674.334 468.12 673.504 469.05 676.177 467.374L677.166 467.941C677.691 470.659 677.635 471.144 677.389 473.836L676.012 474.563C674.35 476.52 674.839 476.013 674.499 478.931Z"/><path fill="#094443" transform="scale(1.33333 1.33333)" d="M661.42 471.864C661.208 470.731 661.281 470.779 661.673 469.674C664.902 471.863 668.956 469.737 671.856 468.12L671.279 471.242L669.489 473.513C668.224 473.183 668.509 473.124 667.457 471.942C665.228 473.914 667.204 478.548 663.58 478.38C662.495 476.211 662.364 474.988 661.924 472.658L661.42 471.864Z"/><path fill="#EAE1C0" transform="scale(1.33333 1.33333)" d="M674.499 478.931C673.235 481.664 674.099 485.255 670.893 485.671C668.426 482.521 670.111 473.905 676.012 474.563C674.35 476.52 674.839 476.013 674.499 478.931Z"/><path fill="#EDE9DF" transform="scale(1.33333 1.33333)" d="M677.808 493.557C676.875 492.367 675.585 482.712 677.05 481.135C679.805 483.701 677.119 485.715 680.078 489.742L677.808 493.557Z"/><path fill="#F2EEE2" transform="scale(1.33333 1.33333)" d="M684.774 471.921C685.58 469.019 686.203 466.274 688.054 463.887L688.827 464.306L688.883 466.413C688.808 468.692 688.435 471.183 689.638 473.045C691.85 472.906 693.511 470.737 695.804 469.216C692.445 477.868 691.24 480.765 683.713 486.514L683.683 485.261C683.11 480.872 683.984 476.232 684.774 471.921Z"/><path fill="#405650" transform="scale(1.33333 1.33333)" d="M684.774 471.921C685.58 469.019 686.203 466.274 688.054 463.887L688.827 464.306L688.883 466.413C687.996 470.896 686.354 482.377 683.683 485.261C683.11 480.872 683.984 476.232 684.774 471.921Z"/><path fill="#EFA111" transform="scale(1.33333 1.33333)" d="M589.436 296.404C592.421 299.76 594.645 304.19 597.092 306.675C600.653 307.958 603.495 308.94 607.179 309.949C609.406 310.402 611.132 310.445 612.576 312.066C611.755 316.814 598.472 318.643 594.238 320.679C588.465 321.108 584.709 321.404 579.063 322.523L577.809 322.912L575.576 321.57L570.657 329.741C564.361 316.539 567.169 308.211 580.025 301.881C583.183 300.326 586.867 298.789 589.436 296.404Z"/><path fill="#3E3C29" transform="scale(1.33333 1.33333)" d="M600.48 312.903L600.631 313.997C595.518 315.54 581.486 318.343 579.063 322.523L577.809 322.912L575.576 321.57C582.236 315.644 592.043 314.285 600.48 312.903Z"/><path fill="#094443" transform="scale(1.33333 1.33333)" d="M794.323 307.578C794.399 306.416 795.529 306.083 795.599 305.711C796.032 303.436 795.296 299.583 796.743 298.001C804.505 305.694 810.263 298.293 810.984 290.462C811.04 289.852 809.809 288.238 809.424 287.645L809.974 286.388C812.465 286.643 819.477 287.187 821.726 286.508C827.408 284.793 824.498 280.342 826.71 275.995C830.942 273.281 839.164 276.651 841.056 270.738C841.609 269.009 842.404 267.573 843.383 266.046C845.53 264.451 846.035 264.846 848.567 264.8L849.3 264.791L850.815 262.894L850.969 265.524C852.165 266.105 853.35 266.71 854.521 267.338L854.189 269.61C859.909 272.355 864.713 281.947 869.669 285.486L869.79 286.133C872.246 291.378 879.251 302.094 878.447 307.636C874.696 312.163 866.853 302.637 863.669 300.079C857.589 295.194 851.202 286.87 844.968 282.509L843.663 282.883C843.428 286.401 864.427 310.759 858.648 315.537C856.594 315.869 852.944 315.679 851.137 314.204C844.199 308.537 837.595 301.535 831.738 294.73C830.475 294.535 829.413 294.37 828.55 294.237C828.613 292.88 828.873 292.546 829.457 291.351C828.572 289.759 829.142 290.26 827.189 289.628L826.056 290.431C825.108 296.419 847.537 322.833 841.407 329.004C835.037 328.38 820.066 308.744 814.028 304.135C813.383 301.971 813.624 301.293 812.072 300.307L810.585 300.947C810.576 301.037 813.445 310.478 813.628 310.707C816.973 314.893 819.08 318.183 821.022 323.267L820.731 324.225C818.324 325.007 819.242 325.037 817.082 324.453C815.147 322.588 814.853 321.804 813.626 319.44C812.514 320.004 812.286 320.314 811.425 321.166C807.793 321.081 807.277 319.565 803.572 319.088L803.552 316.744C801.359 315.264 800.878 315.097 800.952 312.204L799.982 314.669C796.293 311.858 798.633 309.28 794.323 307.578Z"/><path fill="#094443" transform="scale(1.33333 1.33333)" d="M416.885 163.41C411.901 158.827 388.185 149.841 391.245 141.875C397.885 137.315 423.1 149.58 428.371 155.547C429.238 156.26 429.148 159.371 428.816 160.349C426.132 168.26 418.202 157.704 416.467 168.907C417.75 171.562 420.077 174.32 420.608 176.07L417.435 177.826L415.873 176.634C409.25 174.364 379.823 167.733 377.525 162.864C378.662 162.058 379.003 161.798 379.985 160.814L379.491 159.169C385.278 150.354 408.32 161.829 416.885 163.41Z"/><path fill="#093B3B" transform="scale(1.33333 1.33333)" d="M416.467 168.907C417.75 171.562 420.077 174.32 420.608 176.07L417.435 177.826L415.873 176.634C415.732 175.443 415.99 170.339 416.467 168.907Z"/><path fill="#094443" transform="scale(1.33333 1.33333)" d="M891.319 231.845C893.343 233.289 894.028 233.716 896.3 234.311C904.737 236.523 940.879 252.687 938.181 263.317C935.833 264.818 936.024 264.349 932.87 264.535C918.693 263.811 902.258 255.23 890.915 247.28C888.182 245.364 886.751 246.257 884.842 244.16C885.138 242.046 887.359 240.239 887.602 238.851C888.467 233.906 886.587 234.789 891.319 231.845Z"/><path fill="#094443" transform="scale(1.33333 1.33333)" d="M856.291 265.941C855.578 264.737 854.381 263.309 854.871 262.189C856.841 257.685 859.431 255.779 863.423 253.817C870.66 258.884 893.197 280.61 897.92 290.163C898.443 291.222 897.561 293.292 896.53 294.579C890.29 296.482 879.398 284.955 873.303 285.19C871.789 285.81 871.418 285.853 869.79 286.133L869.669 285.486C864.713 281.947 859.909 272.355 854.189 269.61L854.521 267.338C855.574 267.015 855.434 266.87 856.291 265.941Z"/><path fill="#093B3B" transform="scale(1.33333 1.33333)" d="M856.291 265.941C860.606 271.132 874.084 276.977 873.303 285.19C871.789 285.81 871.418 285.853 869.79 286.133L869.669 285.486C864.713 281.947 859.909 272.355 854.189 269.61L854.521 267.338C855.574 267.015 855.434 266.87 856.291 265.941Z"/><path fill="#0D4949" transform="scale(1.33333 1.33333)" d="M868.24 263.69C869.648 263.54 870.682 263.472 872.098 263.445C872.06 264.71 870.785 266.693 870.127 267.908C869.089 268.32 867.989 268.818 866.956 269.264L865.631 268.654L865.232 267.335C866.288 264.559 865.568 265.551 868.24 263.69Z"/><path fill="#0D4949" transform="scale(1.33333 1.33333)" d="M480.272 267.232C481.059 264.894 480.871 263.978 482.566 262.895C484.916 263.863 484.277 263.993 486.443 263.642L485.296 263.982L485.916 262.666L484.945 261.216C488.777 259.079 491.16 263.327 495.428 262.482C497.003 261.572 497.688 261.186 499.094 260.052L499.85 260.511C499.476 263.277 497.54 270.804 498.898 272.157C504.778 278.019 511.165 274.312 513.348 284.448C509.877 288.548 506.312 283.653 506.607 292.995L507.145 293.113L507.877 292.055L508.192 293.574C507.293 294.766 506.749 294.808 505.346 295.302C503.662 298.776 506.065 298.382 504.217 300.441L503.516 300.267C503.515 291.091 510.354 283.627 508.045 281.203C501.318 283.357 501.952 297.369 491.666 296.833L491.051 296.266C491.756 294.131 491.245 294.722 492.838 293.426C493.801 293.975 494.748 294.552 495.677 295.156C498.207 293.674 498.193 290.069 497.051 287.68C495.049 287.287 492.317 288.371 490.961 289.884L492.774 291.499L492.572 292.162L490.771 292.617L489.887 291.88C489.636 286.947 494.439 281.975 493.524 279.583L494.198 278.621L494.604 278.589L494.879 277.194C492.678 276.471 490.08 277.523 487.695 278.175C484.611 280.388 483.547 282.317 480.499 284.162L479.798 285.04C478.124 285.731 477.782 285.881 475.989 286.076C473.218 283.218 477.031 270.618 480.272 267.232Z"/><path fill="#094443" transform="scale(1.33333 1.33333)" d="M480.272 267.232L481.591 268.536C481.093 269.283 477.689 279.739 477.727 280.551L478.561 281.389L480.852 281.295L481.361 281.957L478.989 283.267L480.499 284.162L479.798 285.04C478.124 285.731 477.782 285.881 475.989 286.076C473.218 283.218 477.031 270.618 480.272 267.232Z"/><path fill="#093B3B" transform="scale(1.33333 1.33333)" d="M487.695 278.175C490.348 275.876 491.729 271.313 494.341 269.114L495.49 270.028C496.751 272.736 496.623 273.395 496.336 276.309L496.737 276.687L494.879 277.194C492.678 276.471 490.08 277.523 487.695 278.175Z"/><path fill="#0D4949" transform="scale(1.33333 1.33333)" d="M460.307 259.221L457.644 261.458C450.851 261.702 449.868 266.176 446.299 266.704L446.744 265.329L447.905 265.717C449.508 264.126 450.131 261.848 450.977 259.675C453.862 258.9 454.401 257.959 456.953 256.521C456.406 255.678 456.259 255.582 455.578 254.833L457.342 253.583L456.452 252.616C453.846 252.91 452.251 253.079 449.726 253.796L449.195 253.949L448.732 253.389C452.818 247.901 461.23 246.974 460.068 239.66C460.728 238.426 461.424 237.852 462.4 236.873L462.587 237.849C461.454 240.079 461.597 239.089 462.076 241.575C464.536 244.474 467.68 244.886 471.294 245.179C473.066 245.317 474.841 245.428 476.617 245.513C477.405 248.376 478.186 251.454 479.185 254.229C481.388 256.746 482.085 256.604 482.062 259.154C480.731 260.633 479.651 261.843 477.643 262.078C476.064 271.525 471.438 267.659 469.323 270.611L469.24 273.202C467.176 274.83 460.723 275.635 458.344 275.43L458.185 274.11L460.328 273.195C460.646 270.788 459.764 269.954 460.026 267.923C460.297 265.818 463.098 265.449 464.056 263.251C464.849 261.277 465.152 260.738 465.215 258.631L464.175 257.669L460.307 259.221Z"/><path fill="#093B3B" transform="scale(1.33333 1.33333)" d="M467.528 251.911C468.775 250.636 468.341 250.7 469.812 250.384C471.384 251.252 470.888 250.69 471.506 252.655C470.218 257.465 467.458 259.744 464.056 263.251C464.849 261.277 465.152 260.738 465.215 258.631L464.175 257.669C464.515 257.394 466.186 253.665 467.528 251.911Z"/><path fill="#094443" transform="scale(1.33333 1.33333)" d="M479.185 254.229C481.388 256.746 482.085 256.604 482.062 259.154C480.731 260.633 479.651 261.843 477.643 262.078L476.936 261.159C477.93 259.893 479.051 255.913 479.185 254.229Z"/><path fill="#094443" transform="scale(1.33333 1.33333)" d="M460.307 259.221C461.725 255.407 463.436 252.879 467.528 251.911C466.186 253.665 464.515 257.394 464.175 257.669L460.307 259.221Z"/><path fill="#094443" transform="scale(1.33333 1.33333)" d="M774.376 317.021C775.639 314.353 781.618 315.075 784.347 314.974C784.22 315.75 784.164 316.425 783.886 317.153L786.058 318.796C786.141 321.645 784.753 322.934 782.666 325.194L783.646 326.081C784.783 325.864 785.479 325.677 786.647 325.639L787.569 327.092C786.935 329.45 786.758 328.777 787.398 330.789C786.45 332.844 786.764 333.124 784.188 333.33C783.256 337.094 791.403 350.656 784.899 354.77C776.764 355.396 770.411 339.986 764.95 334.953C765.708 338.278 769.631 348.369 765.589 349.447L765.517 348.563L767.203 346.609C766.885 344.724 761.863 334.227 760.784 331.505C761.649 332.482 762.035 333.135 763.279 333.508C765.592 332.509 770.531 329.172 773.118 327.602C774.393 323.835 773.995 320.965 774.376 317.021Z"/><path fill="#093B3B" transform="scale(1.33333 1.33333)" d="M774.376 317.021C775.639 314.353 781.618 315.075 784.347 314.974C784.22 315.75 784.164 316.425 783.886 317.153C781.919 316.661 781.656 316.935 779.659 317.737C780.917 324.544 779.895 326.251 773.118 327.602C774.393 323.835 773.995 320.965 774.376 317.021Z"/><path fill="#094443" transform="scale(1.33333 1.33333)" d="M774.376 317.021C775.639 314.353 781.618 315.075 784.347 314.974C784.22 315.75 784.164 316.425 783.886 317.153C781.919 316.661 781.656 316.935 779.659 317.737C777.406 316.285 778.778 318.439 774.376 317.021Z"/><path fill="#094443" transform="scale(1.33333 1.33333)" d="M944.102 154.08C944.547 154.087 959.791 144.61 962.212 144.706C964.179 144.785 964.861 140.048 967.84 140.292C966.469 141.938 964.617 143.648 964.454 145.618L965.174 146.135L968.259 143.847L968.275 144.566C966.827 146.541 966.248 147.041 964.489 148.61L964.747 150.141C968.806 150.581 977.216 143.793 981.062 147.491C981.59 149.517 980.565 151.608 980.205 154.048L981.749 153.386L982.061 154.087C980.822 156.601 974.456 158.419 971.401 160.416L970.934 160.724C968.589 161.299 967.657 160.582 966.521 160.799C964.065 163.437 944.623 169.465 941.338 167.188C944.14 163.398 943.783 158.884 944.102 154.08Z"/><path fill="#093B3B" transform="scale(1.33333 1.33333)" d="M966.521 160.799C967.147 159.795 967.052 159.793 967.107 158.589C966.032 158.109 965.864 158.121 965.034 157.249L965.994 156.212L967.796 156.436C969.715 158.106 969.918 158.338 970.934 160.724C968.589 161.299 967.657 160.582 966.521 160.799Z"/><path fill="#094443" transform="scale(1.33333 1.33333)" d="M915.264 226.923C917.963 226.487 920.722 228.949 922.847 229.195C930.247 230.054 954.242 236.361 957.326 242.234C954.676 247.458 945.128 245.505 940.391 244.351C936.361 244.173 928.147 241.866 924.091 240.639C923.635 239.637 923.467 238.996 922.585 238.339L922.143 239.965C919.002 240.741 900 231.156 896.447 229.018C898.415 228.455 901.123 227.669 903.138 227.496C907.631 227.109 911.001 228.743 915.264 226.923Z"/><path fill="#0D4949" transform="scale(1.33333 1.33333)" d="M882.89 250.587C884.188 250.846 894.511 255.825 895.669 256.726C901.801 261.498 920.913 274.285 916.425 283.018C914.776 283.581 908.397 282.156 906.174 281.782C904.453 279.487 903.127 279.566 901.007 277.806C895.757 273.45 880.194 263.679 876.694 258.832L876.982 258.409C878.174 259.321 880.563 261.386 881.813 261.717C881.165 260.708 881.204 260.186 881.068 259.009C887 257.024 880.818 255.386 882.89 250.587Z"/><path fill="#0D4949" transform="scale(1.33333 1.33333)" d="M794.323 307.578C798.633 309.28 796.293 311.858 799.982 314.669L800.361 315.547C799.576 317.53 799.721 318.261 801.297 319.98L801.492 320.715C802.913 325.982 811.329 341.534 807.548 346.059C804.406 346.675 800.912 344.37 799.931 341.571L801.189 340.688L800.911 339.712L799.558 339.282C798.623 339.901 797.787 340.778 797.043 340.401C792.578 338.141 792.183 334.232 787.398 330.789C786.758 328.777 786.935 329.45 787.569 327.092L786.647 325.639C785.479 325.677 784.783 325.864 783.646 326.081L782.666 325.194C784.753 322.934 786.141 321.645 786.058 318.796L783.886 317.153C784.164 316.425 784.22 315.75 784.347 314.974C786.66 311.416 791.507 311.411 794.323 307.578Z"/><path fill="#093B3B" transform="scale(1.33333 1.33333)" d="M794.323 307.578C798.633 309.28 796.293 311.858 799.982 314.669L800.361 315.547C799.576 317.53 799.721 318.261 801.297 319.98C799.511 321.426 800.232 321.286 798.379 321.175C796.695 319.678 796.06 314.905 794.908 311.82L793.129 311.263C790.132 312.685 791.338 315.025 789.48 317.059L789.065 317.013L788.391 315.506C787.294 315.998 786.765 317.524 786.058 318.796L783.886 317.153C784.164 316.425 784.22 315.75 784.347 314.974C786.66 311.416 791.507 311.411 794.323 307.578Z"/><path fill="#0D4949" transform="scale(1.33333 1.33333)" d="M927.585 224.051C920.939 225.885 921.505 220.897 919.989 219.94L918.096 220.827C916.34 218.901 916.595 216.505 916.402 213.785L917.224 213.008C923.637 215.379 920.73 210.543 926.318 210.337C930.496 210.183 937.822 213.641 941.795 212C945.579 211.508 948.883 216.887 954.262 213.112L954.958 213.847L954.559 215.27L953.355 215.663L953.528 218.138C950.767 219.432 944.802 217.645 941.281 220.55C941.008 222.696 940.877 221.818 941.936 223.88C945.195 226.064 949.677 225.357 953.547 225.083C954.447 222.135 950.599 222.147 953.189 219.835C955.051 219.562 954.508 219.354 955.759 220.19C955.716 222.014 955.581 222.166 954.856 223.885C956.537 225.862 958.229 223.834 959.145 225.773C960.263 225.531 940.241 225.866 940.704 226.06C936.661 224.366 930.985 224.892 927.585 224.051Z"/><path fill="#094443" transform="scale(1.33333 1.33333)" d="M927.585 224.051C920.939 225.885 921.505 220.897 919.989 219.94L918.096 220.827C916.34 218.901 916.595 216.505 916.402 213.785L917.224 213.008C923.637 215.379 920.73 210.543 926.318 210.337C930.496 210.183 937.822 213.641 941.795 212C941.212 213.77 941.387 214.41 940.09 215.075L938.765 213.296C933.371 213.813 929.108 212.467 926.637 217.231C922.757 219.007 924.004 216.47 921.929 218.546L922.534 219.544C925.828 219.358 924.616 219.006 927.19 220.688C927.381 221.825 927.473 222.906 927.585 224.051Z"/><path fill="#094443" transform="scale(1.33333 1.33333)" d="M967.417 167.344C969.11 164.356 970.292 164.748 973.581 164.143L973.907 164.607L971.352 165.798C969.945 175.416 969.571 170.141 967.203 174.043L968.953 175.419C968.911 176.803 968.58 178.041 968.285 179.39L968.858 179.731L971.473 178.154L972.158 178.463L971.489 179.28C964.667 181.929 945.827 186.917 938.38 186.25L938.037 185.423C939.446 183.739 942.623 176.889 943.491 176.318C949.408 172.426 960.453 168.416 967.417 167.344Z"/><path fill="#093B3B" transform="scale(1.33333 1.33333)" d="M967.417 167.344C969.11 164.356 970.292 164.748 973.581 164.143L973.907 164.607L971.352 165.798C969.945 175.416 969.571 170.141 967.203 174.043L966.325 174.524C964.351 174.56 963.772 174.315 961.867 173.741L961.302 172.656C962.868 170.358 966.588 171.028 968.477 168.416L967.417 167.344Z"/><path fill="#0D4949" transform="scale(1.33333 1.33333)" d="M394.299 198.676C392.986 197.034 391.38 194.954 392.267 192.917C394.675 191.649 399.665 192.793 402.493 193.29L403.194 193.484C409.742 195.255 428.863 195.307 428.744 204.08C427.578 205.52 427.309 205.947 424.975 206.142C419.663 206.586 402.571 206.478 398.241 204.958L402.74 204.696L402.745 203.57C399.495 200.627 398.002 202.615 394.225 200.288L394.299 198.676Z"/><path fill="#094443" transform="scale(1.33333 1.33333)" d="M394.299 198.676C392.986 197.034 391.38 194.954 392.267 192.917C394.675 191.649 399.665 192.793 402.493 193.29L399.99 194.201C399.374 195.632 399.5 195.826 399.739 197.435L398.604 198.498C396.048 198.138 396.5 197.848 394.299 198.676Z"/><path fill="#0D4949" transform="scale(1.33333 1.33333)" d="M406.176 190.763C401.244 188.441 397.55 188.724 392.423 186.996C390.222 184.759 391.849 185.642 390.712 182.05L389.428 182.439L389.177 181.964C390.232 181.191 390.993 180.73 392.12 180.063L391.316 179.706C390.243 177.78 390.281 178.514 390.654 176.708L391.511 176.632C391.676 177.452 391.811 178.32 392.28 179.029C393.575 180.985 406.019 179.823 409.531 180.516C411.673 181.998 412.304 181.451 414.854 180.466L415.231 180.169C416.465 180.179 416.621 180.281 417.734 179.705L417.435 177.826L420.608 176.07C423.087 177.838 425.257 180.852 425.806 183.83L425.262 185.489L424.12 185.962C423.544 185.72 421.914 184.987 421.408 184.872C421.333 187.325 421.575 190.207 420.159 192.1C415.473 194.504 412.212 190.694 406.176 190.763Z"/><path fill="#094443" transform="scale(1.33333 1.33333)" d="M406.176 190.763C401.244 188.441 397.55 188.724 392.423 186.996C390.222 184.759 391.849 185.642 390.712 182.05L389.428 182.439L389.177 181.964C390.232 181.191 390.993 180.73 392.12 180.063L391.316 179.706C390.243 177.78 390.281 178.514 390.654 176.708L391.511 176.632C391.676 177.452 391.811 178.32 392.28 179.029C393.575 180.985 406.019 179.823 409.531 180.516L409.247 180.737C408.361 181.414 408.173 181.639 407.068 181.922C405.649 183.661 406.398 183.215 404.284 183.659C403.183 182.48 403.247 182.317 403.052 180.632C402.454 180.771 400.057 181.595 400.044 181.594C397.554 181.402 397.669 181.006 395.15 181.721L395.132 182.555C396.476 183.643 396.866 183.895 397.441 185.528L398.293 185.317L398.833 183.379C401.654 182.792 404.012 186.558 406.112 188.424L406.176 190.763Z"/><path fill="#094443" transform="scale(1.33333 1.33333)" d="M420.608 176.07C423.087 177.838 425.257 180.852 425.806 183.83L425.262 185.489L424.12 185.962C423.544 185.72 421.914 184.987 421.408 184.872C420.056 183.692 419.294 183.686 417.559 183.539L417.143 183.506C415.587 182.442 415.476 182.251 414.854 180.466L415.231 180.169C416.465 180.179 416.621 180.281 417.734 179.705L417.435 177.826L420.608 176.07Z"/><path fill="#094443" transform="scale(1.33333 1.33333)" d="M401.058 209.778C405.923 210.322 409.474 209.945 414.372 209.795L415.427 211.134C415.095 213.605 414.328 214.823 413.537 217.123C415.578 216.478 415.426 216.078 416.964 214.288L417.374 214.566L416.834 216.661C416.185 217.081 414.216 218.262 413.5 218.197C409.019 217.794 393.94 218.217 393.288 212.848C395.31 210.419 397.689 211.548 401.058 209.778Z"/><path fill="#094443" transform="scale(1.33333 1.33333)" d="M549.911 317.595C554.679 320.117 551.933 318.045 554.78 317.913C556.495 322.736 563.448 332.712 567.081 336.728C568.414 338.201 570.143 337.899 570.502 340.938C569.108 342.344 569.785 342.074 568.036 342.147C566.161 340.628 564.997 336.678 564.073 334.229C564.145 336.307 563.953 336.678 563.384 338.724C562.058 340.111 560.734 340.368 558.903 341.016C556.814 340.272 558.538 332.403 558.163 330.236C558.163 330.236 556.731 327.849 556.625 327.673L555.754 327.722C555.084 329.775 554.736 331.109 553.588 332.984C552.412 331.378 552.363 331.045 551.9 329.095C553.454 325.407 556.592 327.921 556.438 323.336L555.635 322.594L553.292 323.494C552.927 322.204 553.306 322.651 552.439 321.883C551.337 322.974 550.727 323.514 549.493 324.451C549.24 323.431 548.936 323.19 548.173 322.49C548.969 319.026 549.068 322.349 549.911 317.595Z"/><path fill="#094443" transform="scale(1.33333 1.33333)" d="M971.759 189.258C973.497 188.504 977.66 188.402 979.4 189.299L979.576 190.11L975.448 190.47L975.496 191.076L977.756 191.57C977.32 194.152 974.825 192.898 974.218 196.172C975.194 197.177 976.137 198.213 977.048 199.277L976.584 200.646L976.926 201.297C978.85 201.022 980.641 200.642 982.559 200.86C979.868 202.28 969.889 202.641 966.469 203.371C964.382 203.816 961.694 204.996 959.699 205.828C958.127 203.728 956.951 207.022 952.726 205.85C954.56 203.834 955.559 206.117 959.031 203.624L958.401 201.753L959.068 200.956C960.037 201.929 960.467 202.155 961.592 202.869C964.036 203.308 964.999 202.85 967.317 202.14L966.016 200.587L968.183 200.437C969.16 199.008 967.846 196.751 967.774 193.614L968.548 193.246L968.859 194.742C969.51 194.147 969.844 193.941 970.319 193.2C969.306 191.177 968.061 193.323 964.516 192.073L965.156 191.397C968.553 190.403 966.932 190.567 970.32 191.245L971.759 189.258Z"/><path fill="#0D4949" transform="scale(1.33333 1.33333)" d="M932.781 194.232C936.111 195.387 937.095 194.676 940.417 197.377C939.613 199.087 938.856 199.869 937.676 201.312C938.53 201.588 938.37 201.564 939.136 202.059C939.427 203.775 939.211 203.94 938.388 205.585C936.301 207.103 937.281 206.737 934.663 206.925C931.446 206.92 929.534 207.473 926.909 205.922C925.829 203.792 926.035 204.749 926.278 202.225C927.099 202.964 926.644 202.674 927.734 202.928C928.761 197.661 928.397 198.549 933.447 197.272C933.335 196.069 933.102 195.374 932.781 194.232Z"/><path fill="#0D4949" transform="scale(1.33333 1.33333)" d="M1008.38 160.434L1009.19 161.181C1006.36 166.669 1007.68 162.531 1004.74 164.406C1005.1 165.868 1005.15 165.843 1004.99 167.312C1003.49 168.309 993.545 170.363 990.526 171.218L989.469 170.214C987.433 170.902 986.645 173.574 984.996 173.868L985.694 172.618C985.268 171.014 984.208 169.974 983.146 168.652C985.914 167.937 984.777 167.907 987.46 168.7C987.814 167.407 988.172 166.487 988.654 165.235C990.416 164.004 989.743 164.113 991.64 164.051C991.907 165.702 991.603 165.334 992.584 166.375C993.504 164.284 993.027 164.454 994.62 163.596L995.813 164.438L995.991 166.972L996.877 167.046C998.308 162.184 1004.13 163.558 1008.38 160.434Z"/><path fill="#094443" transform="scale(1.33333 1.33333)" d="M513.004 285.262C514.836 286.635 516.656 288.37 517.734 290.401C518.338 295.599 515.197 300.138 510.102 301.311C508.182 300.209 508.724 300.902 508.115 298.695C509.916 295.638 508.939 298.929 512.051 295.56C513.016 293.751 513.192 294.155 512.793 292.701L511.533 292.42L511.173 293.965L509.595 294.726C509.148 293.993 509.523 292.89 509.661 291.787L507.859 290.951C507.464 289.432 507.447 289.516 507.981 288.05L509.234 287.963L510.616 289.171L509.992 289.968L510.574 290.613L511.934 289.797L511.756 290.268L513.024 288.771C512.827 287.291 512.898 286.765 513.004 285.262Z"/><path fill="#094443" transform="scale(1.33333 1.33333)" d="M523.396 291.395C524.423 292.89 525.644 296.104 525.501 298.006L525.394 297.43C524.483 300.58 525.109 300.344 522.936 301.81L522.634 301.274L522.709 300.651L520.091 299.004C519.616 296.085 521.58 294.018 523.396 291.395Z"/><path fill="#094443" transform="scale(1.33333 1.33333)" d="M729.779 360.596C734.712 364.523 732.004 366.136 732.344 371.318L732.39 371.958C729.567 370.582 726.975 364.53 727.861 361.447L729.779 360.596Z"/><path fill="#094443" transform="scale(1.33333 1.33333)" d="M579.344 343.08C581.337 343.035 580.619 342.955 582.535 344.153C583.249 346.035 583.215 345.241 582.696 347.15L581.636 347.717L580.578 347.355C578.828 347.546 578.297 347.592 576.55 347.482C574.769 345.948 575.004 346.625 574.84 344.804C576.358 342.92 576.188 343.492 579.344 343.08Z"/><path fill="#093B3B" transform="scale(1.33333 1.33333)" d="M756.208 341.82C753.854 336.47 754.823 335.585 759.025 331.474C759.753 331.432 760.143 331.316 760.784 331.505C757.365 334.177 758.544 338.468 758.871 342.649L758.23 342.995L757.452 341.494L756.208 341.82Z"/><path fill="#093B3B" transform="scale(1.33333 1.33333)" d="M462.4 236.873C461.035 236.106 459.686 235.311 458.353 234.49L456.794 235.135L456.576 234.231C458.379 232.732 461.836 230.989 464.205 230.791C466.411 232.865 463.953 235.57 462.587 237.849L462.4 236.873Z"/><path fill="#094443" transform="scale(1.33333 1.33333)" d="M984.528 159.837L985.342 160.925C988.02 160.059 989.267 159.454 991.13 161.538C990.474 162.85 990.6 162.448 988.757 163.15L986.281 164.103C985.551 165.208 985.321 165.751 984.177 166.448L984.391 164.608L982.742 163.381C982.645 161.592 983.179 161.565 984.528 159.837Z"/><path fill="#EDE9DF" transform="scale(1.33333 1.33333)" d="M658.749 373.85C663.055 374.682 664.184 381.041 664.162 384.705C660.466 382.623 659.128 377.78 658.749 373.85Z"/><path fill="#EDE9DF" transform="scale(1.33333 1.33333)" d="M658.099 393.032C660.091 394.52 664.572 401.296 664.762 403.896C660.403 402.269 657.564 397.676 658.099 393.032Z"/><path fill="#EDE9DF" transform="scale(1.33333 1.33333)" d="M623.111 371.164C626.485 373.307 627.988 378.407 626.69 382.152C623.641 379.862 622.822 374.745 623.111 371.164Z"/><path fill="#EDE9DF" transform="scale(1.33333 1.33333)" d="M662.735 354.353C666.454 356.759 667.558 361.859 667.393 365.998C664.506 363.375 662.147 358.265 662.735 354.353Z"/><path fill="#EDE9DF" transform="scale(1.33333 1.33333)" d="M642.343 361.295C646.127 362.059 647.027 367.66 647.811 370.853L645.817 370.438C643.021 367.785 642.938 365.038 642.343 361.295Z"/><path fill="#EDE9DF" transform="scale(1.33333 1.33333)" d="M664.163 419.244C668.077 420.074 671.989 424.221 674.075 427.476C668.897 426.247 666.464 423.927 664.163 419.244Z"/><path fill="#EDE9DF" transform="scale(1.33333 1.33333)" d="M691.284 351.477C694.774 352.619 696.997 357.522 697.636 360.905L696.102 360.566C692.866 357.647 692.053 355.753 691.284 351.477Z"/><path fill="#EDE9DF" transform="scale(1.33333 1.33333)" d="M631.915 377.953C634.376 379.475 636.522 384.949 635.912 387.96C632.672 385.386 630.891 382.164 631.915 377.953Z"/><path fill="#EDE9DF" transform="scale(1.33333 1.33333)" d="M667.434 390.307C670.363 391.064 672.287 396.773 672.962 399.429L671.053 398.75C668.219 395.973 667.745 394.231 667.434 390.307Z"/><path fill="#EDE9DF" transform="scale(1.33333 1.33333)" d="M636.265 369.806L638.005 370.72C640.126 373.603 640.61 375.815 640.397 379.353L639.329 378.843C637.069 376.183 636.531 373.196 636.265 369.806Z"/><path fill="#EDE9DF" transform="scale(1.33333 1.33333)" d="M671.406 346.324C674.689 347.296 677.095 352.493 677.251 355.72C673.683 355.051 672.287 349.198 671.406 346.324Z"/><path fill="#EDE9DF" transform="scale(1.33333 1.33333)" d="M679.2 340.612C682.318 343.112 683.395 346.551 684.548 350.261L682.506 349.468C679.942 346.697 679.099 344.382 679.2 340.612Z"/><path fill="#EDE9DF" transform="scale(1.33333 1.33333)" d="M676.708 363.294C680.503 365.654 681.545 367.855 683.317 371.92C678.524 371.709 677.759 367.078 676.708 363.294Z"/><path fill="#EDE9DF" transform="scale(1.33333 1.33333)" d="M671.932 373.442C674.876 375.214 676.928 379.068 677.224 382.453C673.441 381.335 671.971 377.1 671.932 373.442Z"/><path fill="#EDE9DF" transform="scale(1.33333 1.33333)" d="M629.128 387.768C632.467 389.454 633.469 393.341 634.475 396.683C630.28 395.146 629.2 391.859 629.128 387.768Z"/><path fill="#094443" transform="scale(1.33333 1.33333)" d="M564.922 273.406L566.556 273.809C569.024 277.362 566.748 276.385 566.207 280.755C564.737 279.545 563.872 279.027 562.982 277.331C564.285 276.688 564.283 276.72 565.325 275.728L564.922 273.406Z"/><path fill="#093B3B" transform="scale(1.33333 1.33333)" d="M980.215 131.311C981.579 133.017 982.258 135.17 982.121 137.35L981.291 137.586L979.849 135.968L977.643 136.091L977.054 134.722C977.845 132.867 978.602 132.524 980.215 131.311Z"/><path fill="#EDE9DF" transform="scale(1.33333 1.33333)" d="M648.163 377.719C651.54 378.791 652.355 382.923 653.037 385.936C648.914 385.564 648.746 381.077 648.163 377.719Z"/><path fill="#EDE9DF" transform="scale(1.33333 1.33333)" d="M672.167 411.976C675.077 413.12 677.666 416.988 677.314 420.169C673.943 419.18 672.559 415.101 672.167 411.976Z"/><path fill="#094443" transform="scale(1.33333 1.33333)" d="M771.192 261.785C772.949 261.909 773.396 262.042 775.084 262.566C776.27 264.412 775.874 264.467 775.841 266.911L772.979 266.814C771.151 265.304 771.638 264.739 771.192 261.785Z"/><path fill="#EDE9DF" transform="scale(1.33333 1.33333)" d="M684.252 377.879C687.681 379.694 688.714 383.156 689.2 386.69C685.313 384.064 684.53 382.461 684.252 377.879Z"/><path fill="#EDE9DF" transform="scale(1.33333 1.33333)" d="M649.624 399.576C652.572 400.472 655.075 403.861 655.796 406.79L654.109 406.695C651.29 405.06 650.563 402.5 649.624 399.576Z"/><path fill="#EDE9DF" transform="scale(1.33333 1.33333)" d="M659.94 407.38C663.309 407.955 664.95 411.294 666.243 414.089C661.963 414.046 660.972 410.788 659.94 407.38Z"/><path fill="#EDE9DF" transform="scale(1.33333 1.33333)" d="M682.764 415.866C683.429 416.066 684.424 416.546 685.093 416.839C687.121 419.041 687.38 420.252 688.358 423.073C684.422 422.664 683.597 419.142 682.764 415.866Z"/><path fill="#EDE9DF" transform="scale(1.33333 1.33333)" d="M684.438 332.614C687.697 333.968 688.802 337.539 689.056 340.724C685.589 339.86 684.839 335.582 684.438 332.614Z"/><path fill="#EDE9DF" transform="scale(1.33333 1.33333)" d="M653.873 358.181C656.664 360.315 657.782 362.422 657.999 365.901C654.35 364.717 653.192 361.788 653.873 358.181Z"/><path fill="#EDE9DF" transform="scale(1.33333 1.33333)" d="M690.572 364.67C693.716 366.408 694.512 369.345 695.558 372.603C691.047 371.522 691.071 368.666 690.572 364.67Z"/><path fill="#EDE9DF" transform="scale(1.33333 1.33333)" d="M645.665 388.302C649.02 389.436 650.039 392.866 650.417 396.002L648.439 395.091C646.557 392.982 646.335 391.056 645.665 388.302Z"/><path fill="#EDE9DF" transform="scale(1.33333 1.33333)" d="M627.688 361.361L629.554 362.558C631.08 364.918 631.046 367.548 631.312 370.378C628.042 366.854 627.868 366.093 627.688 361.361Z"/><path fill="#EDE9DF" transform="scale(1.33333 1.33333)" d="M694.902 381.353C697.844 383.197 699.463 385.05 699.661 388.626L698.166 388.289C695.77 386.316 695.288 384.254 694.902 381.353Z"/><path fill="#EDE9DF" transform="scale(1.33333 1.33333)" d="M702.649 374.623C705.909 376.107 706.944 377.872 708.091 381.094C707.136 381.264 706.934 381.173 705.934 381.108C703.906 379.449 703.467 377.147 702.649 374.623Z"/><path fill="#EDE9DF" transform="scale(1.33333 1.33333)" d="M638.718 394.222C642.196 395.906 642.61 397.879 643.666 401.324C640.102 400.473 638.975 397.559 638.718 394.222Z"/><path fill="#EDE9DF" transform="scale(1.33333 1.33333)" d="M680.327 403.417C683.453 404.809 684.262 407.62 685.37 410.606C681.113 409.814 680.844 407.087 680.327 403.417Z"/><path fill="#EDE9DF" transform="scale(1.33333 1.33333)" d="M694.113 333.321C697.286 335.763 697.719 337.606 698.261 341.349C695.075 339.543 694.178 336.766 694.113 333.321Z"/><path fill="#EDE9DF" transform="scale(1.33333 1.33333)" d="M680.441 389.001C683.702 390.52 684.587 392.27 685.713 395.442C684.593 395.665 684.426 395.443 683.38 394.958C681.497 392.913 681.273 391.649 680.441 389.001Z"/><path fill="#093B3B" transform="scale(1.33333 1.33333)" d="M461.163 195.175L461.517 195.521C462.086 198.047 462.341 197.349 461.319 199.046L460.865 198.548C459.116 197.752 458.719 197.609 457.215 196.453C458.283 195.284 459.282 195.485 461.163 195.175Z"/><path fill="#EFA111" transform="scale(1.33333 1.33333)" d="M652.131 467.854C654.434 466.181 653.548 466.344 655.816 466.386C658.966 468.807 657.772 471.355 660.602 472.754L661.42 471.864L661.924 472.658C652.613 489.408 666.448 483.976 668.954 494.156L668.695 494.766C667.149 501.669 665.448 503.623 658.123 504.279C655.816 504.806 651.806 505.604 649.717 506.344C651.88 513.921 653.022 510.915 658.989 514.59L659.644 514.718L659.721 515.589C654.362 520.158 646.645 516.142 640.49 514.398C638.337 513.248 636.129 511.192 634.896 509.12C625.713 493.683 649.086 482.839 652.131 467.854Z"/><path fill="#EDE9DF" transform="scale(1.33333 1.33333)" d="M652.032 488.985C656.258 492.055 661.532 494.445 662.182 499.829C661.155 500.896 658.851 503.157 658.123 504.279C655.816 504.806 651.806 505.604 649.717 506.344C648.225 500.829 650.221 494.192 652.032 488.985Z"/><path fill="#093537" transform="scale(1.33333 1.33333)" d="M640.49 514.398L639.744 512.01C641.072 511.772 642.308 512.64 643.574 513.288C639.631 507.414 636.704 501.605 639.724 494.674L640.452 494.582C641.947 500.642 639.413 506.93 647.635 512.031C649.509 513.193 656.995 514.848 658.989 514.59L659.644 514.718L659.721 515.589C654.362 520.158 646.645 516.142 640.49 514.398Z"/><path fill="#093537" transform="scale(1.33333 1.33333)" d="M662.182 499.829C663.706 495.984 664.984 495.752 668.695 494.766C667.149 501.669 665.448 503.623 658.123 504.279C658.851 503.157 661.155 500.896 662.182 499.829Z"/></svg>