<?xml version="1.0" encoding="utf-8" ?><svg xmlns="http://www.w3.org/2000/svg" xmlns:xlink="http://www.w3.org/1999/xlink" width="1792" height="1024" viewBox="0 0 1792 1024"><path fill="#E5C690" transform="scale(1.33333 1.33333)" d="M637.243 283.598C650.922 283.394 661.773 283.473 674.553 288.479C674.812 295.505 672.589 320.732 676.474 324.766L677.974 324.658L678.985 323.249C679.997 316.453 680.175 296.098 678.518 289.909C687.314 295.302 692.976 297.324 701.003 304.384C700.844 309.478 699.617 322.239 702.165 325.849C704.198 327.151 703.398 327.068 705.323 326.679C707.831 323.38 703.939 309.915 709.81 308.535C714.062 310.331 719.032 318.184 721.776 322.106C721.729 326.674 720.652 342.737 724.624 344.889C728.276 341.28 727.367 325.745 727.353 320.27C734.051 319.264 741.502 316.953 748.71 315.661C748.51 318.893 748.393 322.129 748.359 325.367C748.264 330.274 747.406 340.082 750.603 343.408C752.615 343.134 751.85 343.463 753.47 342.013C754.771 336.304 753.832 321.201 753.614 314.693C757.935 313.745 778.776 308.553 781.39 309.808C783.22 316.557 778.419 334.565 784.455 338.723L785.5 338.426C787.895 334.49 787.46 314.696 787.583 308.598C794.829 307.671 800.873 308.352 808.062 307.969C807.922 312.664 806.744 328.202 809.994 330.917L811.049 330.172C813.642 323.711 813.094 315.493 813.109 308.432C813.91 308.662 814.704 308.919 815.488 309.203C842.591 319.053 829.321 332.23 834.952 344.436L835.797 344.643C838.418 342.705 839.558 333.726 840.109 330.454C847.252 337.586 849.353 344.604 853.96 352.359C856.773 357.096 876.07 357.272 882.323 357.73C881.513 364.569 879.024 400.157 883.769 403.279C889.008 398.963 886.803 364.38 884.449 357.696C893.807 357.317 900.242 357.636 909.539 358.604C908.053 364.807 906.572 391.965 909.904 396.351C911.963 396.765 911.127 396.87 913.046 395.922C914.56 392.802 914.042 364.605 914.121 358.795C919.461 358.83 931.852 359.471 936.66 360.772C936.426 365.303 935.258 375.475 938.984 378.828L940.082 378.458C943.227 374.143 942.76 367.006 942.879 361.691C962.046 366.95 975.828 377.398 971.55 400.079C968.679 415.298 958.533 426.49 945.83 434.828C945.852 429.935 946.496 425.578 943.574 421.633L942.433 421.628C938.602 425.442 939.249 433.557 939.277 438.595C932.708 443.605 928.37 445.605 920.72 448.584C920.381 442.949 920.908 428.054 917.278 424.564L916.304 425.463C913.887 432.174 914.742 443.325 914.862 450.789C902.457 457.076 883.904 460.757 870.205 462.427C870.014 459.01 870.137 453.463 866.709 451.8C863.345 454.135 863.854 459.281 863.698 463.083C856.875 463.591 848.984 463.401 842.064 463.393C842.056 459.768 842.988 455.739 839.662 453.805L838.173 454.679C836.42 456.998 836.414 460.435 836.114 463.409C829.833 463.337 823.406 463.421 817.111 463.433C817.131 459.309 817.894 449.251 814.582 446.515L813.622 447.097C810.91 452.155 811.299 458.373 811.195 464.082C806.029 464.339 800.856 464.439 795.684 464.38C795.31 458.843 797.635 438.831 792.514 436.684L791.37 437.378C789.246 442.225 790.046 458.131 790.104 464.125L772.123 464.185C772.072 457.081 773.231 435.535 771.063 430.409C769.3 429.778 769.943 429.726 768.373 430.22C766.032 434.795 767.263 457.464 767.546 463.778C759.356 464.224 751.431 465.15 743.061 465.538C743.082 459.14 743.901 444.291 740.603 439.627L739.386 439.622C735.938 444.731 736.895 459.371 736.972 465.959C728.362 467.278 711.151 467.533 702.126 467.439L702.137 458.995C702.186 455.308 702.737 449.564 700.543 446.728L698.762 447.515C696.257 451.006 696.58 462.561 696.314 467.653C683.075 465.8 680.081 465.502 666.831 466.624C666.653 462.096 668.348 451.857 663.631 450.249L662.541 450.963C661.516 454.812 662.055 462.094 661.376 467.356C649.607 468.333 633.984 470.069 622.478 470.072C622.437 465.389 623.01 452.05 619.354 448.802L618.232 449.354C615.817 454.578 616.415 464.168 616.404 470.254C603.878 470.294 590.717 469.73 578.176 469.316C578.159 461.939 578.8 449.269 575.932 442.658L575.951 443.083L574.811 442.278C571.989 446.149 572.803 463.296 572.837 468.735C562.786 467.531 550.085 466.866 540.115 467.19C540.111 461.987 541.729 451.659 536.208 450.079C532.846 451.772 536.005 460.184 534.201 465.068C530.97 465.535 520.073 464.197 515.861 464.263C508.816 464.374 501.765 464.855 494.77 464.952C494.162 460.308 494.685 445.985 493.249 443.866C490.349 443.951 491.27 443.542 489.35 445.057C487.091 449.718 488.477 460.683 488.662 466.589C481.751 466.696 476.866 466.543 469.971 466.032C470.713 458.456 470.261 450.015 470.576 442.341C470.752 438.047 471.58 428.795 468.075 426.072L466.82 426.533C462.446 432.561 464.497 456.035 463.417 466.184C456.367 466.064 450.494 465.855 443.48 465.262C443.575 459.229 444.532 434.127 441.692 430.453L439.572 430.93L441.248 430.158C436.431 430.293 438.38 459.433 438.299 464.422C431.855 463.959 427.433 462.991 421.277 461.274C421.874 455.788 423.174 435.535 419.06 432.097L418.191 432.496C415.078 437.172 415.513 452.901 415.358 459.361C404.177 458.279 389.38 453.266 379.428 448.216C379.315 444.254 379.566 423.111 378.575 421.03C376.458 420.649 377.319 420.561 375.315 421.372C370.352 426.97 375.012 441.333 371.343 444.381C369.828 443.779 369.821 443.611 368.812 442.456C358.566 430.729 363.182 415.315 374.956 406.981C380.572 403.005 400.982 389.634 407.676 390.554C410.997 394.794 406.753 415.036 410.646 421.239C412.517 422.381 411.626 422.162 414.231 421.715C415.511 417.817 414.109 393.187 413.933 387.167C419.646 384.641 422.191 383.446 428.423 382.766C428.309 394.142 427.842 406.406 429.423 417.717C429.748 420.042 430.95 421.618 433.286 421.97C436.914 418.77 433.101 387.556 433.044 380.543C442.111 377.651 457.031 375.464 464.611 371.863C468.101 363.755 471.633 339.558 478.142 334.407C482.413 335.749 472.117 370.807 481.732 372.628C486.364 369.756 483.388 334.876 484.595 326.674C485.029 323.585 486.079 320.615 487.68 317.938C493.922 307.546 503.991 300.019 515.723 296.975C517.165 305.834 515.651 328.759 517.983 334.577L519.063 334.968C520.72 333.912 522.724 331.108 522.662 329.089C522.335 318.32 521.167 307.545 521.538 296.748C528.043 293.387 530.896 292.985 537.925 291.978C538.424 299.674 537.29 315.079 538.557 320.861C539.766 322.405 539.952 322.55 541.72 323.399L542.76 322.455C544.865 316.908 543.677 297.167 543.516 290.028C549.953 288.731 569.384 286.102 575.57 286.311C575.508 294.542 575.216 322.572 577.508 328.731C578.844 330.162 579.074 330.238 580.989 330.686L581.908 330.11C582.639 326.704 581.934 290.885 581.654 285.72C589.297 285.385 596.829 285.121 604.446 284.347C603.986 290.753 603.268 304.715 606.484 310.174L607.442 310.31C610.894 305.727 609.294 290.5 608.985 284.321C613.355 284.321 616.791 284.179 621.152 283.864C622.922 283.592 629.514 283.612 631.65 283.571C632.186 289.939 630.69 312.175 634.35 315.527L635.474 315.417C638.132 311.544 636.415 291.053 637.243 283.598ZM618.802 427.009C621.024 424.614 620.886 420.82 620.648 417.646C619.376 400.688 619.135 383.882 619.125 366.866C617.439 365.87 617.236 365.922 615.24 365.683C611.773 370.67 613.693 421.363 616.919 426.427L618.802 427.009ZM641.435 399.515C643.75 394.762 643.166 350.399 642.001 346.304C640.406 345.223 640.19 345.267 638.239 344.926C636.736 351.523 635.874 394.311 638.727 399.15L639.874 399.985L641.435 399.515ZM692.882 371.873C696.63 364.131 693.505 334.307 693.25 324.769C693.22 323.652 690.394 322.943 689.377 322.68C687.151 328.068 687.181 361.4 689.683 368.145C690.229 369.618 691.619 370.889 692.882 371.873ZM931.99 424.768C933.41 419.638 933.46 384.434 931.761 380.508C930.372 380.266 929.293 380.073 927.889 379.963C926.259 386.058 925.35 418.351 927.767 423.531C929.329 424.919 929.718 425.549 931.99 424.768ZM455.516 430.338C458.452 427.119 457.141 406.888 458.397 401.301C459.158 397.911 459.484 386.704 457.039 384.147L454.768 383.474C451.593 390.9 452.354 399.333 451.743 407.377C451.294 413.299 450.831 419.999 451.472 425.905C451.748 428.449 453.264 429.35 455.516 430.338ZM661.532 436.632C662.915 434.012 662.691 424.855 662.293 421.748C661.386 414.665 662.988 393.177 659.702 388.418C658.989 388.139 658.05 387.732 657.338 387.53C654.779 391.664 655.188 432.514 659.753 436.209L661.532 436.632ZM503.364 378.647C505.157 374.246 505.682 338.455 505.097 332.618C503.912 331.215 503.42 331.476 501.355 330.963C499.957 338.503 496.97 371.054 499.418 377.02C501.057 378.14 501.419 378.19 503.364 378.647ZM520.53 462.134C521.878 457.889 522.287 425.033 519.362 419.747C518.515 418.216 517.366 417.645 515.733 416.929C513.885 422.028 514.772 455.841 516.612 460.517C518.155 461.661 518.64 461.697 520.53 462.134ZM900.181 451.36C900.804 441.082 901.582 415.113 900.33 405.117C898.889 404.158 897.844 404.382 895.933 404.228C895.798 410.266 894.153 447.526 895.614 450.541C897.416 451.633 898.079 451.427 900.181 451.36ZM769.177 382.531C772.134 375.932 770.72 365.509 771.248 358.145C771.658 352.413 772.243 346.421 772.473 340.727C771.131 338.422 771.295 339.002 768.675 337.547C764.029 347.111 765.023 369.07 765.43 380.179C765.469 381.258 768.22 382.217 769.177 382.531ZM624.485 349.274C624.891 348.495 625.756 346.528 625.669 345.796C624.878 339.122 624.948 313.59 623.877 308.884C622.101 307.92 621.542 307.946 619.511 307.737C618.158 314.834 616.532 345.21 622.528 349.014L624.485 349.274ZM821.942 387.102C822.195 380.942 821.907 344.386 820.572 340.193C818.948 339.328 818.781 339.23 817.003 338.828C816.082 344.417 814.675 379.457 818.417 384.949C819.127 385.99 820.67 386.502 821.942 387.102ZM560.724 348.114C562.311 346.004 561.887 329.082 561.792 324.973C561.654 318.985 564.607 306.457 558.091 304.164C554.781 309.162 555.792 336.127 555.94 343.613C555.977 345.528 559.147 347.271 560.724 348.114ZM541.674 380.278C542.036 374.852 541.173 364.239 541.012 358.369C540.864 352.995 541.129 339.947 540.372 335.269C538.536 334.722 538.087 334.679 536.168 334.578C535.125 340.505 535.156 375.831 537.136 379.56C539.125 380.182 539.581 380.196 541.674 380.278ZM663.302 368.362C664.785 367.261 665.743 366.646 665.871 364.353C666.643 350.528 666.411 335.225 666.495 321.429C665.441 320.72 665.094 320.458 663.88 319.957C662.136 321.312 661.303 322.069 661.476 324.517C662.031 332.374 658.229 364.007 663.302 368.362ZM538.766 438.062C538.876 433.266 537.958 397.469 537.031 393.772C535.179 393.105 534.758 393.126 532.777 393.07C532.758 399.729 531.796 434.344 534.494 437.728C536.09 437.917 537.162 438.046 538.766 438.062ZM741.435 387.771C741.871 381.203 743.511 351.765 740.328 345.373C740.034 344.783 738.475 344.259 737.741 344.047C735.748 350.33 735.416 380.263 736.957 386.49C738.343 387.968 739.207 388.16 741.435 387.771ZM710.614 348.8C707.698 353.291 709.211 379.27 710.144 385.646C710.562 388.496 711.782 389.263 714.406 389.856C715.437 384.353 715.109 356.035 712.595 349.92C712.249 349.078 711.396 348.977 710.614 348.8ZM640.529 465.144C642.641 459.369 641.435 431.682 639.95 424.565C639.663 423.191 638.49 422.92 637.3 422.356C637.152 422.527 635.626 424.293 635.626 424.293C634.379 434.149 635.573 444.565 635.892 454.504C636.041 459.162 636.545 462.52 640.529 465.144ZM854.547 445.736C856.162 440.949 856.789 412.561 854.958 408.367C853.853 407.352 853.86 407.439 852.343 407.136C849.902 413.821 849.45 436.042 850.7 442.972C851.901 444.518 852.823 444.826 854.547 445.736ZM397.61 444.557C399.373 439.385 398.788 414.561 398.187 408.346L397.444 407.394C396.32 407.281 395.031 407.122 393.92 407.058C393.339 412.991 392.642 439.034 393.782 444.327C395.156 445.119 395.774 444.731 397.61 444.557ZM551.707 414.352C551.234 418.894 551.378 448.08 553.131 451.399C554.87 452.526 554.065 452.291 556.193 452.236C558.071 447.633 558.62 418.636 554.317 415.145L551.707 414.352ZM796.494 339.93C793.373 344.328 793.33 364.979 794.014 371.16C794.296 373.715 795.144 374.809 796.962 376.441C797.422 375.935 798.043 375.254 798.823 374.396C800.428 366.479 799.911 356.623 799.913 348.513C799.914 345.84 799.489 343.181 798.758 341.431C797.85 340.757 797.519 340.448 796.494 339.93ZM580.844 433.891C580.877 428.329 580.865 401.92 579.74 398.039C578.4 397.308 577.671 396.878 576.24 396.371C574.403 402.3 573.916 424.322 576.714 430.716C577.47 432.446 579.098 433.29 580.844 433.891ZM599.55 320.972C597.355 321.483 596.949 321.179 595.663 322.651C595.09 329.531 594.166 355.502 596.637 360.777C598.375 360.859 599.101 361.227 600.234 360.365C600.563 355.61 601.232 323.18 599.55 320.972ZM563.01 404.005C562.862 398.346 563.691 367.832 562.695 365.871C561.054 365.468 560.349 365.309 558.674 365.142C557.679 370.462 556.177 396.923 559.344 402.245C559.814 403.033 562.012 403.69 563.01 404.005ZM577.943 379.032C579.547 378.024 580.362 378 580.538 376.109C581.08 370.303 580.28 348.498 578.113 344.064L576.891 343.035C575.865 343.503 574.155 343.939 574.074 345.247C573.589 353.114 573.048 373.388 577.943 379.032ZM878.103 449.565C877.686 441.479 878.444 423.236 877.584 417.407C875.808 416.295 874.395 416.595 872.322 416.714C872.208 422.943 872.002 429.267 872.03 435.493C872.05 439.823 870.616 452.556 878.103 449.565ZM714.359 424.145C712.992 429.599 712.502 449.428 714.867 455.303C715.32 456.429 716.977 457.248 718.08 457.749C719.438 454.379 718.751 430.822 718.153 426.52C716.943 424.79 716.538 425.039 714.359 424.145ZM496.145 393.933C495.233 401.158 492.801 421.627 496.38 428.604C496.815 429.452 498.683 430.144 499.636 430.466C500.528 424.185 501.36 399.742 498.774 394.844C497.879 394.513 497.067 394.187 496.145 393.933ZM840.934 357.864C839.766 363.867 839.319 395.295 843.505 398.76L845.569 398.924C847.671 390.517 846.223 368.826 845.291 359.673C845.163 358.412 841.99 357.97 840.934 357.864ZM589.847 373.685C589.158 378.829 589.032 403.354 591.2 407.31C592.595 408.558 592.786 408.496 594.717 408.801C595.607 403.43 595.37 378.833 592.545 374.608C591.584 374.221 590.875 373.892 589.847 373.685ZM676.121 421.857C675.663 428.455 674.089 449.867 678.022 454.475L680.061 455.294C682.357 451.544 681.214 427.216 680.133 422.774C678.407 421.913 678.099 421.99 676.121 421.857ZM518.694 347.312C517.699 354.896 514.871 387.109 517.359 393.102C518.772 394.299 519.136 394.78 521.188 394.354C521.976 387.249 521.378 379.616 521.57 372.406C521.761 365.253 524.024 355.858 522.127 349.07C520.833 347.704 520.56 347.669 518.694 347.312ZM782.311 382.759C780.406 388.858 777.79 413.769 779.803 419.005L783.174 420.308C784.338 416.495 786.361 388.958 784.548 383.833C784.379 383.355 783.006 383.018 782.311 382.759ZM728.514 396.053C724.353 401.942 725.122 428.104 729.472 433.829C733.768 426.036 731.203 407.803 730.747 398.65C730.69 397.513 729.335 396.689 728.514 396.053ZM597.674 420.454C596.931 425.412 596.034 450.528 596.79 455.286C598.338 456.914 598.696 456.723 601.438 457.037C602.884 451.86 602.984 428.217 602.35 422.377C601.198 420.852 599.836 420.798 597.674 420.454ZM955.756 369.724C954.353 370.853 953.228 371.974 952.891 373.81C951.444 381.695 950.824 405.036 955.365 410.678C956.439 410.007 957.949 409.355 957.873 408.027C957.489 401.313 957.962 374.769 957.161 370.485L955.756 369.724ZM862.029 363.869C858.895 367.756 860.018 392.233 859.903 398.17C859.842 401.307 861.37 403.274 863.748 405.062C866.705 401.46 866.206 368.972 864.161 364.742L862.029 363.869ZM695.755 385.603C694.72 389.958 694.025 418.708 695.61 424.601C695.816 425.367 698.784 426.594 699.876 427.001C700.595 421.844 700.969 390.163 699.255 386.624C697.712 385.828 697.485 385.782 695.755 385.603ZM674.635 364.55C673.846 370.642 674.089 399.656 676.355 404.633C678.205 405.708 677.6 405.381 679.997 405.402C680.358 404.399 681.239 401.789 681.131 400.858C680.146 392.354 680.171 374.019 678.582 366.607C677.055 364.7 677.452 365.259 674.635 364.55ZM651.628 284.966C649.294 290.66 648.944 318.418 649.773 325.143C651.086 327.044 652.602 327.042 654.887 326.894C654.763 322.789 654.804 318.658 654.795 314.675C654.78 308.422 658.023 290.042 653.673 285.601L651.628 284.966ZM805.683 390.688C804.079 395.174 803.482 426.45 804.465 432.962C804.569 433.648 806.881 434.981 807.774 435.586C810.119 429.085 811.164 397.42 808.579 391.747C807.23 390.837 807.307 390.881 805.683 390.688ZM752.707 385.393C750.855 390.314 749.768 423.688 751.726 428.528C753.51 430.03 752.601 429.723 755.201 429.51C756.509 424.86 757.187 390.617 756.152 386.483C754.557 385.709 754.446 385.66 752.707 385.393ZM827.155 401.32C826.738 406.919 825.385 439.683 828.085 442.667C828.743 443.394 830.789 443.909 831.746 443.922C833.354 438.012 833.206 408.814 831.098 403.169C829.452 401.957 829.132 401.88 827.155 401.32ZM474.761 382.461C472.118 391.341 474.036 413.22 474.373 423.126C474.409 424.19 477.373 425.011 478.311 425.189C479.633 420.44 480.66 386.388 478.698 383.093C477.201 382.785 476.279 382.607 474.761 382.461Z"/></svg>