<svg xmlns="http://www.w3.org/2000/svg" width="73" height="70" viewBox="0 0 73 70" fill="none"><path d="M26.5144 1.48547H47.6066V6.25789H26.5144V1.48547Z" fill="#F5BC5A"></path><path d="M30.4194 35.5983H38.9276C41.1623 35.5983 43.3079 36.3982 44.8892 37.8232C46.4706 39.2482 47.3541 41.184 47.3541 43.1938V50.8633C47.3541 52.8798 46.4631 54.8089 44.8892 56.2339C43.3153 57.659 41.1623 58.4588 38.9276 58.4588H30.4194C28.1847 58.4588 26.0391 57.659 24.4578 56.2339C22.8764 54.8089 21.9929 52.8798 21.9929 50.8633V43.1938C21.9929 41.1773 22.8838 39.2482 24.4578 37.8232C26.0317 36.3982 28.1847 35.5983 30.4194 35.5983Z" fill="#F5BC5A"></path><path d="M59.6114 19.6946L53.9913 6.06297C53.8651 5.76049 53.7166 5.46473 53.5459 5.18242C53.3751 4.90011 53.1821 4.62452 52.9742 4.36237C52.7663 4.10022 52.5362 3.85152 52.2837 3.62298C52.0387 3.38772 51.7715 3.17263 51.4893 2.97097C51.2072 2.76932 50.9177 2.58784 50.6059 2.42651C50.3015 2.25847 49.9822 2.11732 49.6481 1.9896C49.3215 1.86189 48.98 1.76106 48.6384 1.67368C48.3044 1.59302 47.9554 1.5258 47.6065 1.48547V13.4165C47.6065 13.5711 47.5991 13.7257 47.5842 13.887C47.5694 14.0416 47.5397 14.1962 47.51 14.3508C47.4728 14.5054 47.4357 14.6533 47.3838 14.8079C47.3318 14.9558 47.2724 15.1037 47.213 15.2516C47.1462 15.3994 47.0719 15.5339 46.9903 15.675C46.9086 15.8162 46.8195 15.9439 46.723 16.0783C46.6265 16.206 46.5225 16.3338 46.4186 16.4547C46.3072 16.5757 46.1959 16.69 46.0697 16.8043C45.9435 16.9185 45.8172 17.0194 45.6836 17.1202C45.55 17.221 45.4089 17.3151 45.2678 17.4025C45.1268 17.4899 44.9783 17.5706 44.8224 17.6445C44.6739 17.7184 44.518 17.7856 44.3547 17.8461C44.1913 17.9066 44.0354 17.9604 43.8647 18.0075C43.7013 18.0545 43.5306 18.0881 43.3598 18.1217C43.1891 18.1486 43.0183 18.1755 42.8476 18.1889C42.6768 18.2024 42.506 18.2091 42.3279 18.2091H31.7855C31.6147 18.2091 31.444 18.2024 31.2658 18.1889C31.095 18.1755 30.9243 18.1486 30.7535 18.1217C30.5827 18.0948 30.4194 18.0545 30.2487 18.0075C30.0853 17.9604 29.922 17.9066 29.7587 17.8461C29.5953 17.7856 29.4468 17.7184 29.2909 17.6445C29.1424 17.5706 28.994 17.4899 28.8455 17.4025C28.7044 17.3151 28.5634 17.221 28.4297 17.1202C28.2961 17.0194 28.1699 16.9185 28.0437 16.8043C27.9174 16.6967 27.8061 16.5757 27.6947 16.4547C27.5834 16.3338 27.4794 16.206 27.3829 16.0783C27.2864 15.9506 27.1973 15.8162 27.1156 15.675C27.034 15.5406 26.9597 15.3994 26.8929 15.2516C26.8261 15.1037 26.7667 14.9625 26.7147 14.8079C26.6628 14.66 26.6256 14.5054 26.5885 14.3508C26.5588 14.1962 26.5291 14.0416 26.5143 13.887C26.4994 13.7324 26.492 13.5778 26.492 13.4165V1.48547C26.1579 1.5258 25.809 1.59302 25.4675 1.67368C25.1259 1.76106 24.7844 1.86189 24.4578 1.9896C24.1311 2.11732 23.8119 2.25847 23.5 2.42651C23.1956 2.59456 22.8987 2.77604 22.6166 2.9777C22.3344 3.17935 22.0746 3.39444 21.8222 3.6297C21.5772 3.86496 21.347 4.10694 21.1317 4.36909C20.9164 4.63124 20.7308 4.90011 20.56 5.18242C20.3893 5.46473 20.2408 5.76049 20.1146 6.06297L14.5019 19.7013C13.7149 21.5901 13.3289 23.5462 13.3289 25.5627V61.1475C13.3289 61.3827 13.3437 61.618 13.366 61.8465C13.3883 62.0818 13.4328 62.3103 13.4773 62.5389C13.5293 62.7674 13.5887 62.9959 13.6629 63.2178C13.7372 63.4396 13.8263 63.6614 13.9228 63.8765C14.0193 64.0916 14.1307 64.3067 14.2569 64.515C14.3757 64.7234 14.5093 64.9251 14.6578 65.12C14.7989 65.3149 14.9548 65.5031 15.1181 65.6846C15.2814 65.8661 15.4596 66.0409 15.6378 66.2022C15.8234 66.3702 16.0164 66.5248 16.2095 66.6727C16.4099 66.8206 16.6178 66.9618 16.8331 67.0895C17.0484 67.2172 17.2711 67.3382 17.5013 67.4524C17.7314 67.5667 17.9616 67.6608 18.1991 67.7549C18.4367 67.8423 18.6817 67.923 18.9267 67.9902C19.1791 68.0574 19.4241 68.1179 19.6766 68.1582C19.929 68.2053 20.1888 68.2389 20.4413 68.259C20.7011 68.2792 20.961 68.2927 21.2134 68.2927H52.8777C53.1375 68.2927 53.3974 68.2792 53.6498 68.259C53.9096 68.2389 54.1621 68.1985 54.4219 68.1582C54.6743 68.1112 54.9268 68.0574 55.1718 67.9902C55.4168 67.923 55.6618 67.8423 55.8993 67.7549C56.1369 67.6675 56.3745 67.5667 56.6046 67.4524C56.8348 67.3449 57.0575 67.2239 57.2728 67.0895C57.4881 66.955 57.696 66.8206 57.8964 66.6727C58.0969 66.5248 58.2899 66.3635 58.4681 66.2022C58.6537 66.0342 58.8245 65.8594 58.9878 65.6846C59.1511 65.5031 59.307 65.3149 59.4481 65.12C59.5892 64.9251 59.7228 64.7234 59.849 64.515C59.9752 64.3067 60.0792 64.0983 60.1831 63.8765C60.2796 63.6614 60.3687 63.4396 60.443 63.2178C60.5172 62.9959 60.584 62.7674 60.6286 62.5389C60.6805 62.3103 60.7176 62.0751 60.7399 61.8465C60.7622 61.6113 60.777 61.376 60.777 61.1475V25.5627C60.7919 23.5394 60.3984 21.5901 59.6114 19.6946Z" stroke="#363737" stroke-width="1.6559" stroke-miterlimit="10"></path><path d="M32.877 33.3733H41.259C43.464 33.3733 45.5725 34.1665 47.1315 35.578C48.6906 36.9896 49.5667 38.9053 49.5667 40.8949V48.4837C49.5667 50.4801 48.6906 52.389 47.1315 53.8006C45.5725 55.2122 43.4565 56.0053 41.259 56.0053H32.877C30.672 56.0053 28.5636 55.2122 27.0045 53.8006C25.4454 52.389 24.5693 50.4801 24.5693 48.4837V40.8949C24.5693 38.8985 25.4454 36.9896 27.0045 35.578C28.5636 34.1665 30.672 33.3733 32.877 33.3733Z" stroke="#363737" stroke-width="1.6559" stroke-miterlimit="10"></path><path d="M41.7456 38.4079L41.4115 40.6463L41.1739 40.8614L38.9838 40.6463H36.1923L36.1181 43.0863L37.6103 43.3686C39.0061 43.6307 40.0083 44.0407 40.6246 44.5986C41.2408 45.1565 41.5526 45.9027 41.5526 46.8303C41.5526 47.7444 41.2927 48.5577 40.7805 49.2568C40.2682 49.9626 39.548 50.5003 38.6126 50.8835C37.6771 51.2666 36.6081 51.4615 35.4053 51.4615C34.5664 51.4615 33.6903 51.3741 32.7623 51.1994L32.5916 48.9409L32.8143 48.7392C33.8685 49.0753 34.8188 49.2366 35.6726 49.2366C36.5561 49.2366 37.254 49.0551 37.7588 48.6855C38.2711 48.3158 38.5309 47.8251 38.5309 47.2134C38.5309 46.7227 38.3453 46.3328 37.9815 46.0505C37.6103 45.7682 37.009 45.5598 36.1775 45.4254L33.8759 45.0557L33.6532 44.8205L33.7794 38.6163L34.1655 38.2869L35.5612 38.334H39.0729L41.5674 38.2197L41.7456 38.4079Z" fill="#363737"></path></svg>