<svg xmlns="http://www.w3.org/2000/svg" width="1032" height="171" viewBox="0 0 1032 171" fill="none"><g clip-path="url(#clip0_199_79)"><path d="M916.157 61.7821C909.996 61.7549 903.725 61.7056 897.864 59.8089C892.003 57.9086 886.518 53.827 884.503 47.9906C882.288 41.5818 885.055 33.806 890.823 30.2516C896.587 26.697 904.758 27.734 909.457 32.6129C911.19 22.804 918.78 14.2729 928.302 11.4348C937.824 8.59676 948.828 11.5744 955.62 18.8364C958.018 21.3964 960.382 24.6809 963.878 24.8694C966.796 25.0268 969.268 22.9147 971.651 21.2215C977.945 16.7444 986.21 14.5379 993.552 16.9061C1000.89 19.2742 1006.64 26.9322 1005.43 34.5737C1014.43 29.0841 1028.08 35.6672 1029.42 46.1353C1032.38 69.3531 1000.38 62.176 987.882 62.1175C963.972 62.0056 940.063 61.8937 916.157 61.7821Z" fill="#FFFAF4"></path></g><g clip-path="url(#clip1_199_79)"><path d="M93.3 141.195C98.2699 141.173 103.329 141.133 108.057 139.603C112.785 138.07 117.21 134.777 118.836 130.069C120.623 124.899 118.391 118.626 113.738 115.758C109.088 112.89 102.496 113.727 98.7044 117.663C97.3069 109.75 91.1837 102.867 83.5018 100.578C75.8199 98.2882 66.9428 100.69 61.4627 106.549C59.5285 108.614 57.6213 111.264 54.8009 111.416C52.4466 111.543 50.4529 109.839 48.5297 108.473C43.4522 104.861 36.7848 103.081 30.8614 104.992C24.9379 106.902 20.3037 113.08 21.2757 119.245C14.0208 114.816 3.00495 120.127 1.92821 128.572C-0.459293 147.303 25.355 141.513 35.4357 141.466C54.7248 141.375 74.0139 141.285 93.3 141.195Z" fill="#FFFAF4"></path></g><g clip-path="url(#clip2_199_79)"><path d="M854 169.613C857.421 169.761 860.903 169.899 864.206 169.002C867.51 168.102 870.662 165.982 871.936 162.796C873.335 159.297 872.005 154.908 868.898 152.782C865.792 150.656 861.23 151.015 858.492 153.599C857.79 148.108 853.803 143.172 848.593 141.344C843.383 139.517 837.196 140.878 833.233 144.729C831.834 146.086 830.435 147.847 828.489 147.859C826.865 147.869 825.55 146.631 824.271 145.628C820.896 142.976 816.367 141.532 812.229 142.652C808.091 143.772 804.699 147.871 805.166 152.144C800.319 148.859 792.566 152.151 791.547 157.927C789.29 170.736 807.241 167.6 814.178 167.898C827.453 168.47 840.728 169.041 854 169.613Z" fill="#FFFAF4"></path></g><g clip-path="url(#clip3_199_79)"><path d="M345 29.6125C348.42 29.7607 351.902 29.8994 355.206 29.0019C358.51 28.1024 361.662 25.9821 362.936 22.7959C364.335 19.2972 363.005 14.9078 359.897 12.782C356.792 10.6562 352.229 11.0154 349.491 13.599C348.79 8.10843 344.803 3.17196 339.593 1.34432C334.382 -0.483314 328.196 0.877953 324.233 4.72893C322.834 6.0864 321.435 7.84689 319.489 7.85891C317.865 7.86897 316.549 6.63108 315.271 5.62808C311.896 2.97621 307.367 1.5325 303.229 2.65247C299.09 3.77243 295.699 7.87094 296.165 12.1445C291.319 8.85906 283.565 12.1514 282.547 17.9266C280.289 30.7358 298.241 27.5998 305.178 27.8984C318.453 28.4697 331.728 29.0411 345 29.6125Z" fill="#FFFAF4"></path></g><defs><clipPath id="clip0_199_79"><rect width="146" height="53" fill="white" transform="matrix(-0.997782 -0.0665675 -0.0665675 0.997782 1031.81 16.7189)"></rect></clipPath><clipPath id="clip1_199_79"><rect width="117.785" height="42.7574" fill="white" transform="translate(0 104.841) rotate(-3.81686)"></rect></clipPath><clipPath id="clip2_199_79"><rect width="81.133" height="29.4524" fill="white" transform="translate(791 141.535) rotate(-1.08408)"></rect></clipPath><clipPath id="clip3_199_79"><rect width="81.133" height="29.4524" fill="white" transform="translate(282 1.535) rotate(-1.08408)"></rect></clipPath></defs></svg>