<svg xmlns="http://www.w3.org/2000/svg" width="306" height="448" viewBox="0 0 306 448" fill="none"><path d="M299.185 241.135C295.936 247.189 291.772 240.573 287.508 238.185C281.872 235.027 276.546 231.359 271.001 228.223C261.758 222.996 253.191 216.682 243.895 211.47C232.971 205.346 229.771 192.242 219.217 186.075C208.424 179.769 198.763 168.551 199.388 155.303C199.736 147.919 196.584 140.722 196.688 133.106C196.739 129.294 197.8 124.947 197.63 121.396C197.45 117.651 198.444 116.084 194.973 113.649C192.782 112.111 187.394 110.458 187.907 106.911C188.386 103.599 189.578 98.639 187.037 95.9476C182.74 91.3957 183.968 85.6068 182.998 79.9076C182.452 76.6995 186.104 70.9158 187.647 68.0384L191.33 61.1749C192.867 58.31 198.887 59.099 201.646 58.4228C204.459 57.7334 209.192 57.5851 212.115 57.9016C216.763 58.4048 219.384 60.1167 223.829 61.2397C232.092 63.3274 240.841 65.5795 248.511 69.6946C257.865 74.7131 266.835 81.8425 273.98 89.4978C277.458 93.2238 279.032 96.3186 281.895 100.374C284.952 104.705 290.295 106.769 291.803 111.767C293.023 115.81 297.495 118.984 298.626 122.732C300.048 127.446 301.158 132.363 301.96 137.227C302.644 141.384 302.969 148.981 302.057 153.178C300.925 158.381 304.331 162.668 303.943 167.51C303.639 171.297 305.046 178.05 307.008 181.247C310.759 187.362 310.574 194.836 310.647 201.922C310.723 209.182 308.783 217.156 311.406 224.305C312.545 227.407 313.917 230.13 309.87 233.118C305.432 236.394 303.592 239.098 300.838 244.231C300.216 245.39 299.154 246.08 297.836 246.476C298.58 247.898 300.237 249.976 301.108 250.822C302.338 252.017 304.655 254.767 305.223 256.651C306.106 259.579 305.16 263.975 305.525 267.187C305.898 270.47 304.283 272.818 302.764 275.65C301.793 277.461 303.173 278.366 303.141 280.211C303.104 282.318 302.152 285.029 301.158 286.881C299.418 290.125 297.338 293.417 294.254 295.515C289.883 298.49 286.343 301.926 282.708 305.71C277.353 311.282 269.485 314.511 263.37 319.213C255.087 325.582 250.028 332.897 241.562 336.178C235.671 338.461 229.459 338.853 223.876 341.912C219.308 344.415 213.353 346.444 208.359 347.951C203.748 349.342 198.1 353.973 194.209 356.933C190.737 359.575 192.065 357.79 189.106 356.834C188.163 356.529 184.572 357.947 183.522 358.319C181.403 359.07 180.169 358.455 178.072 359.324C175.503 360.387 171.27 361.228 171.027 356.894C170.831 353.413 171.252 349.718 170.695 345.729C169.915 340.135 170.788 334.83 169.263 329.062C168.612 326.596 170.171 323.904 170.549 321.403C171.339 316.179 169.477 309.901 172.034 305.135L176.995 295.889C179.42 291.368 182.852 289.52 185.684 285.757C187.294 283.618 190.757 278.078 193.145 277.115C199.91 274.384 205.977 267.707 213.001 264.933C227.263 259.301 243.989 251.966 259.407 250.976C264.371 250.657 268.76 250.055 273.684 249.306C275.667 249.004 278.228 248.498 280.237 248.647C282.007 248.779 281.913 247.341 283.287 246.969C286.809 246.015 293.63 247.74 297.836 246.476C297.191 245.245 297.23 244.506 299.059 245.487L299.185 241.135Z" fill="#F9F1E5" stroke="#007C6D" stroke-opacity="0.4" stroke-width="2" stroke-linecap="round"></path><path d="M229.066 238.994C229.362 239.016 229.648 239.071 229.928 239.141C232.723 239.229 233.88 239.29 235.28 236.681C235.901 235.522 239.031 234.306 238.366 232.873C236.914 229.747 235.249 225.913 232.138 223.087C229.993 221.138 226.541 220.953 225.653 218.012C225.317 216.897 223.556 213.651 223.843 212.805C226.021 206.39 222.773 201.006 216.844 197.018C209.41 192.018 200.724 191.172 193.572 185.821C187.831 181.526 178.201 178.497 171.061 179.268C162.046 180.242 152.569 182.839 143.528 182.42C136.974 182.116 130.864 189.763 123.586 186.637C119.885 185.047 115.454 189.786 112.414 192.244C107.272 196.4 112.989 198.551 115.713 201.196C117.814 203.236 119.85 204.582 122.472 205.989C124.905 207.294 125.856 209.894 128.225 211.285C132.845 213.998 134.382 220.788 138.713 223.542C141.424 225.266 144.613 228.742 146.769 231.179C150.653 235.568 154.65 237.034 159.871 239.252C169.255 243.239 184.411 242.865 194.454 241.724C202.632 240.795 213.199 246.151 220.97 241.157C222.656 240.073 227.173 238.854 229.066 238.994Z" fill="#F9F1E5"></path><path d="M234.359 238.397C232.695 240.813 231.078 239.144 229.066 238.994C227.173 238.854 222.656 240.073 220.97 241.157C213.199 246.151 202.632 240.795 194.454 241.724C184.411 242.865 169.255 243.239 159.871 239.252C154.65 237.034 150.653 235.568 146.769 231.179C144.613 228.742 141.424 225.266 138.713 223.542C134.382 220.788 132.845 213.998 128.225 211.285C125.856 209.894 124.905 207.294 122.472 205.989C119.85 204.582 117.814 203.236 115.713 201.196C112.989 198.551 107.272 196.4 112.414 192.244C115.454 189.786 119.885 185.047 123.586 186.637C130.864 189.763 136.974 182.116 143.528 182.42C152.569 182.839 162.046 180.242 171.061 179.268C178.201 178.497 187.831 181.526 193.572 185.821C200.724 191.172 209.41 192.018 216.844 197.018C222.773 201.006 226.021 206.39 223.843 212.805C223.556 213.651 225.317 216.897 225.653 218.012C226.541 220.953 229.993 221.138 232.138 223.087C235.249 225.913 236.914 229.747 238.366 232.873C239.031 234.306 235.901 235.522 235.28 236.681C233.818 239.406 232.621 239.218 229.546 239.129" stroke="#007C6D" stroke-opacity="0.4" stroke-width="2" stroke-linecap="round"></path><path fill-rule="evenodd" clip-rule="evenodd" d="M293.099 275.932C291.404 276.229 289.689 276.177 287.966 275.678C284.663 274.723 280.135 276.111 275.38 277.568C268.592 279.649 261.341 281.872 256.533 277.616C255.491 276.693 263.771 269.016 266.721 266.282C267.17 265.866 267.495 265.564 267.645 265.418C272.997 260.219 277.529 257.231 283.183 254.931C281.908 253.873 280.868 252.584 280.135 251.017C278.679 247.901 274.653 245.408 270.425 242.79C264.388 239.052 257.94 235.059 257.977 228.637C257.985 227.246 269.216 228.422 273.216 228.841L273.216 228.841L273.218 228.841C273.825 228.904 274.266 228.951 274.474 228.968C282.963 229.657 288.581 231.439 294.934 234.998C294.56 233.318 294.534 231.602 294.953 229.858C295.757 226.515 294.164 222.055 292.49 217.372C290.101 210.686 287.55 203.544 291.582 198.546C292.456 197.463 300.503 205.385 303.37 208.206C303.806 208.635 304.122 208.947 304.274 209.09C309.593 214.087 312.763 218.397 315.291 223.77C316.464 222.438 317.88 221.382 319.595 220.695C322.786 219.414 325.5 215.533 328.349 211.457C332.418 205.638 336.763 199.423 343.173 199.817C344.562 199.902 342.762 211.05 342.122 215.02C342.024 215.624 341.953 216.062 341.925 216.27C340.764 224.708 338.671 230.218 334.765 236.362C336.463 236.082 338.178 236.152 339.896 236.667C343.189 237.656 347.731 236.314 352.5 234.904C359.309 232.89 366.581 230.74 371.347 235.045C372.38 235.978 364.023 243.571 361.046 246.276C360.593 246.688 360.265 246.986 360.113 247.13C354.709 252.275 350.147 255.218 344.47 257.461C345.735 258.533 346.762 259.831 347.479 261.406C348.904 264.536 352.905 267.069 357.106 269.729C363.105 273.528 369.513 277.585 369.412 284.006C369.39 285.397 358.171 284.109 354.176 283.65L354.176 283.65C353.568 283.58 353.127 283.53 352.919 283.511C344.437 282.736 338.837 280.898 332.521 277.276C332.878 278.96 332.887 280.676 332.45 282.415C331.613 285.75 333.162 290.226 334.788 294.925C337.11 301.635 339.59 308.802 335.508 313.759C334.623 314.834 326.655 306.832 323.818 303.982L323.817 303.982L323.817 303.982C323.386 303.548 323.073 303.234 322.922 303.089C317.814 298.193 314.719 293.963 312.281 288.79C311.205 289.918 309.933 290.825 308.426 291.447C305.247 292.759 302.573 296.668 299.764 300.772C295.754 306.631 291.471 312.89 285.058 312.56C283.668 312.488 285.356 301.324 285.957 297.347L285.957 297.347L285.957 297.347C286.048 296.741 286.115 296.303 286.141 296.095C287.218 287.646 289.255 282.116 293.099 275.932Z" fill="#F9F1E5"></path><path d="M287.966 275.678L288.244 274.718L288.244 274.718L287.966 275.678ZM293.099 275.932L293.948 276.46L295.129 274.561L292.927 274.947L293.099 275.932ZM275.38 277.568L275.674 278.524L275.38 277.568ZM256.533 277.616L255.87 278.364L256.533 277.616ZM266.721 266.282L266.041 265.549L266.041 265.549L266.721 266.282ZM267.645 265.418L266.948 264.701L266.948 264.701L267.645 265.418ZM283.183 254.931L283.56 255.858L285.107 255.229L283.822 254.162L283.183 254.931ZM280.135 251.017L279.229 251.44L280.135 251.017ZM270.425 242.79L269.898 243.64L270.425 242.79ZM257.977 228.637L256.977 228.632L256.977 228.632L257.977 228.637ZM273.216 228.841L273.111 229.835L273.113 229.835L273.216 228.841ZM273.216 228.841L273.319 227.846L273.319 227.846L273.216 228.841ZM273.218 228.841L273.322 227.846L273.321 227.846L273.218 228.841ZM274.474 228.968L274.555 227.971L274.555 227.971L274.474 228.968ZM294.934 234.998L294.445 235.87L296.396 236.963L295.91 234.78L294.934 234.998ZM294.953 229.858L293.981 229.625L294.953 229.858ZM292.49 217.372L293.432 217.036L292.49 217.372ZM291.582 198.546L292.36 199.174L291.582 198.546ZM303.37 208.206L302.668 208.919L302.668 208.919L303.37 208.206ZM315.291 223.77L314.386 224.195L315.034 225.574L316.041 224.431L315.291 223.77ZM319.595 220.695L319.967 221.623L319.595 220.695ZM328.349 211.457L327.53 210.884L328.349 211.457ZM343.173 199.817L343.111 200.815L343.111 200.815L343.173 199.817ZM342.122 215.02L343.109 215.18L343.109 215.18L342.122 215.02ZM341.925 216.27L340.934 216.133L340.934 216.134L341.925 216.27ZM334.765 236.362L333.921 235.826L332.722 237.713L334.928 237.349L334.765 236.362ZM339.896 236.667L340.183 235.71L339.896 236.667ZM352.5 234.904L352.216 233.945L352.5 234.904ZM371.347 235.045L370.677 235.787L371.347 235.045ZM361.046 246.276L361.718 247.016L361.718 247.016L361.046 246.276ZM360.113 247.13L360.803 247.855L360.803 247.855L360.113 247.13ZM344.47 257.461L344.103 256.531L342.55 257.145L343.824 258.224L344.47 257.461ZM347.479 261.406L348.389 260.991L347.479 261.406ZM357.106 269.729L356.571 270.574L357.106 269.729ZM369.412 284.006L368.412 283.99L369.412 284.006ZM354.176 283.65L354.29 282.657L354.286 282.656L354.176 283.65ZM354.176 283.65L354.062 284.643L354.065 284.644L354.176 283.65ZM352.919 283.511L352.828 284.506L352.828 284.506L352.919 283.511ZM332.521 277.276L333.018 276.409L331.078 275.297L331.543 277.484L332.521 277.276ZM332.45 282.415L331.48 282.171L332.45 282.415ZM334.788 294.925L333.843 295.252L334.788 294.925ZM335.508 313.759L334.736 313.124L335.508 313.759ZM323.818 303.982L324.526 303.276L324.514 303.265L324.502 303.253L323.818 303.982ZM323.817 303.982L324.502 303.253L323.817 303.982ZM323.817 303.982L323.109 304.687L323.121 304.699L323.133 304.711L323.817 303.982ZM322.922 303.089L323.614 302.367L323.614 302.367L322.922 303.089ZM312.281 288.79L313.185 288.364L312.563 287.044L311.557 288.1L312.281 288.79ZM308.426 291.447L308.044 290.523L308.044 290.523L308.426 291.447ZM299.764 300.772L300.589 301.336L299.764 300.772ZM285.058 312.56L285.109 311.561L285.109 311.561L285.058 312.56ZM285.957 297.347L286.946 297.496L286.955 297.436L286.956 297.374L285.957 297.347ZM285.957 297.347L284.975 297.159L284.959 297.239L284.957 297.319L285.957 297.347ZM285.957 297.347L286.939 297.534L286.943 297.515L286.946 297.496L285.957 297.347ZM286.141 296.095L287.133 296.221L287.133 296.221L286.141 296.095ZM287.688 276.639C289.569 277.183 291.44 277.238 293.272 276.917L292.927 274.947C291.369 275.22 289.808 275.17 288.244 274.718L287.688 276.639ZM275.674 278.524C278.064 277.792 280.33 277.098 282.405 276.7C284.49 276.301 286.262 276.226 287.688 276.639L288.244 274.718C286.367 274.175 284.223 274.316 282.029 274.736C279.827 275.158 277.451 275.887 275.087 276.612L275.674 278.524ZM255.87 278.364C258.557 280.743 261.89 281.262 265.301 280.965C268.688 280.67 272.304 279.557 275.674 278.524L275.087 276.612C271.668 277.66 268.264 278.7 265.127 278.972C262.014 279.243 259.317 278.745 257.196 276.867L255.87 278.364ZM266.041 265.549C264.569 266.913 261.742 269.533 259.413 271.931C258.252 273.126 257.187 274.293 256.473 275.236C256.122 275.699 255.815 276.161 255.634 276.576C255.545 276.78 255.455 277.042 255.444 277.328C255.432 277.637 255.516 278.051 255.87 278.364L257.196 276.867C257.419 277.065 257.446 277.311 257.442 277.405C257.44 277.475 257.423 277.476 257.467 277.376C257.551 277.183 257.742 276.873 258.067 276.444C258.705 275.603 259.699 274.507 260.847 273.325C263.135 270.97 265.923 268.385 267.401 267.015L266.041 265.549ZM266.948 264.701C266.809 264.836 266.496 265.127 266.041 265.549L267.401 267.015C267.843 266.605 268.181 266.292 268.342 266.136L266.948 264.701ZM282.807 254.005C277.018 256.36 272.38 259.425 266.948 264.701L268.342 266.136C273.614 261.014 278.041 258.103 283.56 255.858L282.807 254.005ZM279.229 251.44C280.029 253.151 281.165 254.556 282.545 255.701L283.822 254.162C282.651 253.19 281.706 252.017 281.041 250.593L279.229 251.44ZM269.898 243.64C272.024 244.956 274.038 246.205 275.704 247.505C277.377 248.811 278.601 250.095 279.229 251.44L281.041 250.593C280.213 248.823 278.696 247.303 276.935 245.929C275.166 244.549 273.053 243.242 270.951 241.94L269.898 243.64ZM256.977 228.632C256.957 232.221 258.761 235.07 261.231 237.441C263.684 239.797 266.902 241.785 269.898 243.64L270.951 241.94C267.911 240.057 264.887 238.18 262.616 235.999C260.362 233.834 258.961 231.476 258.977 228.643L256.977 228.632ZM273.32 227.846C271.324 227.637 267.49 227.235 264.151 227.061C262.488 226.975 260.909 226.942 259.729 227.026C259.149 227.067 258.599 227.139 258.168 227.276C257.956 227.343 257.699 227.449 257.476 227.629C257.236 227.823 256.98 228.159 256.977 228.632L258.977 228.643C258.975 228.942 258.808 229.124 258.735 229.183C258.68 229.228 258.669 229.216 258.773 229.183C258.973 229.119 259.333 229.059 259.87 229.021C260.922 228.946 262.402 228.973 264.047 229.059C267.326 229.229 271.108 229.625 273.111 229.835L273.32 227.846ZM273.319 227.846L273.319 227.846L273.113 229.835L273.113 229.835L273.319 227.846ZM273.321 227.846L273.319 227.846L273.112 229.835L273.114 229.835L273.321 227.846ZM274.555 227.971C274.362 227.955 273.938 227.911 273.322 227.846L273.114 229.835C273.713 229.898 274.17 229.946 274.393 229.964L274.555 227.971ZM295.423 234.125C288.939 230.494 283.181 228.672 274.555 227.971L274.393 229.964C282.746 230.643 288.224 232.385 294.445 235.87L295.423 234.125ZM293.981 229.625C293.523 231.529 293.553 233.399 293.958 235.215L295.91 234.78C295.566 233.236 295.545 231.675 295.925 230.092L293.981 229.625ZM291.549 217.709C292.39 220.063 293.186 222.295 293.678 224.35C294.172 226.414 294.328 228.181 293.981 229.625L295.925 230.092C296.382 228.192 296.143 226.057 295.623 223.885C295.101 221.704 294.264 219.364 293.432 217.036L291.549 217.709ZM290.804 197.918C288.55 200.712 288.185 204.064 288.637 207.458C289.086 210.829 290.363 214.39 291.549 217.709L293.432 217.036C292.229 213.668 291.035 210.315 290.619 207.194C290.207 204.096 290.582 201.379 292.36 199.174L290.804 197.918ZM304.071 207.493C302.641 206.085 299.894 203.381 297.392 201.164C296.146 200.059 294.931 199.049 293.956 198.378C293.478 198.049 293.002 197.763 292.58 197.601C292.372 197.521 292.106 197.443 291.82 197.445C291.511 197.448 291.101 197.55 290.804 197.918L292.36 199.174C292.173 199.407 291.928 199.445 291.835 199.445C291.764 199.446 291.763 199.429 291.864 199.468C292.061 199.544 292.379 199.721 292.823 200.026C293.692 200.624 294.832 201.567 296.066 202.66C298.522 204.838 301.232 207.505 302.668 208.919L304.071 207.493ZM304.959 208.361C304.818 208.228 304.513 207.929 304.071 207.493L302.668 208.919C303.098 209.342 303.426 209.665 303.59 209.819L304.959 208.361ZM316.196 223.344C313.607 217.841 310.356 213.431 304.959 208.361L303.59 209.819C308.83 214.742 311.919 218.952 314.386 224.195L316.196 223.344ZM319.222 219.766C317.35 220.517 315.807 221.67 314.54 223.109L316.041 224.431C317.12 223.205 318.411 222.247 319.967 221.623L319.222 219.766ZM327.53 210.884C326.097 212.933 324.738 214.875 323.347 216.466C321.951 218.064 320.6 219.214 319.222 219.766L319.967 221.623C321.781 220.895 323.383 219.464 324.853 217.782C326.329 216.094 327.752 214.057 329.169 212.03L327.53 210.884ZM343.234 198.819C339.652 198.598 336.707 200.242 334.201 202.575C331.713 204.893 329.549 207.996 327.53 210.884L329.169 212.03C331.218 209.099 333.261 206.185 335.564 204.039C337.851 201.908 340.284 200.641 343.111 200.815L343.234 198.819ZM343.109 215.18C343.429 213.198 344.043 209.393 344.403 206.069C344.582 204.414 344.702 202.838 344.685 201.655C344.676 201.074 344.634 200.521 344.521 200.083C344.466 199.868 344.375 199.605 344.208 199.373C344.027 199.122 343.706 198.848 343.234 198.819L343.111 200.815C342.813 200.796 342.641 200.619 342.586 200.543C342.544 200.485 342.557 200.475 342.584 200.581C342.636 200.784 342.677 201.147 342.685 201.685C342.7 202.74 342.591 204.216 342.414 205.854C342.061 209.118 341.455 212.872 341.134 214.861L343.109 215.18ZM342.915 216.406C342.942 216.214 343.01 215.792 343.109 215.18L341.134 214.861C341.038 215.457 340.965 215.911 340.934 216.133L342.915 216.406ZM335.609 236.899C339.596 230.627 341.736 224.98 342.915 216.406L340.934 216.134C339.792 224.435 337.747 229.808 333.921 235.826L335.609 236.899ZM340.183 235.71C338.307 235.146 336.438 235.073 334.602 235.376L334.928 237.349C336.489 237.092 338.048 237.157 339.608 237.625L340.183 235.71ZM352.216 233.945C349.819 234.654 347.546 235.324 345.466 235.701C343.378 236.079 341.605 236.136 340.183 235.71L339.608 237.625C341.48 238.187 343.625 238.067 345.823 237.669C348.03 237.269 350.412 236.564 352.783 235.863L352.216 233.945ZM372.017 234.303C369.354 231.897 366.027 231.345 362.613 231.608C359.222 231.869 355.595 232.946 352.216 233.945L352.783 235.863C356.213 234.849 359.627 233.844 362.766 233.602C365.882 233.362 368.574 233.888 370.677 235.787L372.017 234.303ZM361.718 247.016C363.204 245.666 366.057 243.075 368.41 240.7C369.582 239.517 370.659 238.361 371.383 237.425C371.738 236.965 372.05 236.506 372.235 236.093C372.326 235.891 372.419 235.629 372.433 235.343C372.448 235.034 372.368 234.62 372.017 234.303L370.677 235.787C370.455 235.587 370.431 235.34 370.435 235.247C370.439 235.176 370.455 235.176 370.41 235.275C370.324 235.467 370.13 235.775 369.801 236.201C369.155 237.036 368.15 238.122 366.99 239.292C364.679 241.624 361.865 244.181 360.374 245.536L361.718 247.016ZM360.803 247.855C360.943 247.721 361.259 247.433 361.718 247.016L360.374 245.536C359.927 245.942 359.586 246.251 359.423 246.406L360.803 247.855ZM344.838 258.391C350.65 256.095 355.318 253.076 360.803 247.855L359.423 246.406C354.1 251.475 349.645 254.342 344.103 256.531L344.838 258.391ZM348.389 260.991C347.606 259.273 346.485 257.857 345.117 256.698L343.824 258.224C344.985 259.208 345.918 260.39 346.569 261.82L348.389 260.991ZM357.641 268.884C355.529 267.547 353.527 266.278 351.874 264.961C350.214 263.639 349.004 262.342 348.389 260.991L346.569 261.82C347.378 263.599 348.881 265.134 350.628 266.526C352.382 267.923 354.482 269.251 356.571 270.574L357.641 268.884ZM370.411 284.021C370.468 280.433 368.692 277.566 366.246 275.17C363.817 272.79 360.618 270.77 357.641 268.884L356.571 270.574C359.593 272.487 362.597 274.395 364.847 276.598C367.079 278.786 368.456 281.158 368.412 283.99L370.411 284.021ZM354.062 284.643C356.056 284.873 359.885 285.313 363.222 285.52C364.884 285.623 366.463 285.672 367.644 285.6C368.224 285.565 368.775 285.497 369.208 285.365C369.42 285.3 369.678 285.197 369.902 285.019C370.144 284.827 370.404 284.494 370.411 284.021L368.412 283.99C368.416 283.691 368.586 283.511 368.659 283.453C368.715 283.409 368.726 283.421 368.621 283.453C368.421 283.514 368.06 283.571 367.523 283.604C366.47 283.668 364.991 283.626 363.346 283.524C360.069 283.32 356.292 282.886 354.29 282.657L354.062 284.643ZM354.065 284.644L354.065 284.644L354.286 282.656L354.286 282.656L354.065 284.644ZM352.828 284.506C353.021 284.524 353.445 284.573 354.062 284.643L354.29 282.657C353.69 282.588 353.233 282.535 353.01 282.515L352.828 284.506ZM332.024 278.144C338.47 281.84 344.21 283.719 352.828 284.506L353.01 282.515C344.665 281.753 339.204 279.955 333.018 276.409L332.024 278.144ZM333.42 282.658C333.897 280.759 333.885 278.888 333.499 277.069L331.543 277.484C331.871 279.031 331.877 280.592 331.48 282.171L333.42 282.658ZM335.733 294.598C334.915 292.236 334.141 289.996 333.67 287.936C333.197 285.867 333.059 284.098 333.42 282.658L331.48 282.171C331.004 284.067 331.222 286.204 331.72 288.382C332.221 290.568 333.034 292.916 333.843 295.252L335.733 294.598ZM336.28 314.395C338.561 311.624 338.96 308.276 338.542 304.877C338.127 301.502 336.885 297.928 335.733 294.598L333.843 295.252C335.012 298.632 336.172 301.997 336.557 305.122C336.939 308.224 336.536 310.937 334.736 313.124L336.28 314.395ZM323.109 304.688C324.525 306.11 327.244 308.841 329.724 311.084C330.959 312.201 332.164 313.223 333.132 313.904C333.607 314.238 334.08 314.529 334.501 314.695C334.707 314.776 334.973 314.857 335.259 314.858C335.568 314.859 335.979 314.76 336.28 314.395L334.736 313.124C334.926 312.893 335.17 312.858 335.264 312.858C335.335 312.858 335.336 312.874 335.235 312.834C335.039 312.757 334.722 312.577 334.282 312.267C333.418 311.661 332.288 310.706 331.066 309.601C328.631 307.399 325.948 304.704 324.526 303.276L323.109 304.688ZM323.133 304.711L323.133 304.711L324.502 303.253L324.502 303.253L323.133 304.711ZM323.133 304.711L323.133 304.711L324.502 303.253L324.502 303.253L323.133 304.711ZM322.23 303.811C322.37 303.945 322.671 304.248 323.109 304.687L324.526 303.276C324.1 302.849 323.776 302.523 323.614 302.367L322.23 303.811ZM311.376 289.217C313.874 294.517 317.048 298.844 322.23 303.811L323.614 302.367C318.58 297.542 315.563 293.409 313.185 288.364L311.376 289.217ZM308.808 292.371C310.452 291.692 311.839 290.703 313.004 289.48L311.557 288.1C310.571 289.134 309.413 289.958 308.044 290.523L308.808 292.371ZM300.589 301.336C302.001 299.273 303.341 297.318 304.716 295.713C306.096 294.101 307.435 292.938 308.808 292.371L308.044 290.523C306.238 291.269 304.65 292.715 303.197 294.412C301.738 296.115 300.335 298.166 298.939 300.207L300.589 301.336ZM285.007 313.559C288.591 313.743 291.519 312.07 294.001 309.712C296.466 307.369 298.599 304.245 300.589 301.336L298.939 300.207C296.919 303.158 294.906 306.093 292.623 308.262C290.358 310.415 287.938 311.707 285.109 311.561L285.007 313.559ZM284.968 297.197C284.668 299.182 284.092 302.993 283.765 306.32C283.603 307.977 283.498 309.554 283.528 310.737C283.542 311.318 283.59 311.871 283.707 312.308C283.764 312.522 283.858 312.784 284.027 313.014C284.211 313.263 284.534 313.534 285.007 313.559L285.109 311.561C285.408 311.577 285.582 311.752 285.637 311.828C285.679 311.885 285.667 311.895 285.639 311.79C285.584 311.587 285.54 311.225 285.527 310.687C285.501 309.632 285.595 308.155 285.756 306.515C286.076 303.248 286.644 299.488 286.946 297.496L284.968 297.197ZM284.957 297.319L284.957 297.319L286.956 297.374L286.956 297.374L284.957 297.319ZM284.975 297.159L284.975 297.159L286.939 297.534L286.939 297.534L284.975 297.159ZM285.149 295.969C285.125 296.162 285.061 296.584 284.968 297.197L286.946 297.496C287.036 296.899 287.105 296.444 287.133 296.221L285.149 295.969ZM292.25 275.404C288.326 281.715 286.243 287.384 285.149 295.969L287.133 296.221C288.192 287.909 290.183 282.516 293.948 276.46L292.25 275.404Z" fill="#007C6D" fill-opacity="0.4"></path></svg>