<?xml version="1.0" encoding="UTF-8"?>
<svg xmlns="http://www.w3.org/2000/svg" width="143" height="69" viewBox="0 0 143 69" fill="none">
  <path d="M0.0332268 4.0489C0.0332268 4.0489 -2.51556 0.0488951 37.0332 0.0488892C76.582 0.0488832 138.033 4.0489 138.033 4.0489V60.0489C138.033 60.0489 125.228 64.0489 105.033 64.0489C84.8381 64.0489 0.0332268 60.0489 0.0332268 60.0489V4.0489Z" fill="#FCBC5A"></path>
  <path d="M1.03442 4.31251V4.2841C1.28575 4.0686 2.04653 3.6174 4.07055 3.12828C8.40707 2.08032 17.8865 1 38.3658 1C58.8249 0.999997 84.9623 2.07698 105.996 3.15494C116.511 3.6938 125.745 4.23267 132.352 4.63682C135.654 4.83889 138.3 5.00727 140.12 5.12512C140.905 5.17595 141.536 5.21738 142 5.24806V63.9445C141.61 64.0574 141.057 64.2111 140.351 64.3929C138.802 64.7916 136.514 65.3254 133.573 65.8599C127.692 66.9289 119.205 68 108.813 68C98.3791 68 71.2115 66.9233 46.6216 65.8447C34.3334 65.3057 22.6988 64.7667 14.136 64.3624C9.85472 64.1603 6.34146 63.9919 3.89857 63.874C2.67713 63.815 1.72329 63.7687 1.07484 63.7371L1.03442 63.7351V4.31251Z" stroke="#363737" stroke-width="2"></path>
  <path d="M27.3176 32.988C28.1096 33.18 28.6916 33.504 29.0636 33.96C29.4476 34.404 29.6396 34.992 29.6396 35.724C29.6396 37.968 27.8816 39.09 24.3656 39.09C23.3336 39.09 22.2776 39.06 21.1976 39L21.3236 35.544L21.1976 27.408L25.3196 27.39C26.5076 27.39 27.4316 27.642 28.0916 28.146C28.7516 28.638 29.0816 29.352 29.0816 30.288C29.0816 30.912 28.9256 31.458 28.6136 31.926C28.3136 32.394 27.8816 32.748 27.3176 32.988ZM26.5796 30.612C26.5796 30.084 26.4236 29.712 26.1116 29.496C25.7996 29.268 25.2536 29.154 24.4736 29.154H23.5916L23.5376 32.304L25.2296 32.358C25.6856 32.238 26.0216 32.04 26.2376 31.764C26.4656 31.488 26.5796 31.104 26.5796 30.612ZM24.7796 37.344C25.5356 37.344 26.1176 37.194 26.5256 36.894C26.9456 36.594 27.1556 36.162 27.1556 35.598C27.1556 34.746 26.6036 34.218 25.4996 34.014L23.5016 34.05L23.4836 35.328L23.5376 37.272C23.9576 37.32 24.3716 37.344 24.7796 37.344ZM37.1114 27.246C38.7434 27.246 39.9974 27.744 40.8734 28.74C41.7614 29.724 42.2054 31.128 42.2054 32.952C42.2054 34.944 41.7254 36.48 40.7654 37.56C39.8054 38.64 38.4494 39.18 36.6974 39.18C35.0774 39.18 33.8234 38.676 32.9354 37.668C32.0594 36.648 31.6214 35.208 31.6214 33.348C31.6214 31.392 32.0954 29.886 33.0434 28.83C34.0034 27.774 35.3594 27.246 37.1114 27.246ZM36.8954 29.208C35.9354 29.208 35.2394 29.508 34.8074 30.108C34.3754 30.708 34.1594 31.686 34.1594 33.042C34.1594 34.59 34.3694 35.694 34.7894 36.354C35.2214 37.014 35.9294 37.344 36.9134 37.344C37.8734 37.344 38.5694 37.044 39.0014 36.444C39.4334 35.832 39.6494 34.836 39.6494 33.456C39.6494 31.932 39.4334 30.846 39.0014 30.198C38.5814 29.538 37.8794 29.208 36.8954 29.208ZM49.5778 27.246C51.2098 27.246 52.4638 27.744 53.3398 28.74C54.2278 29.724 54.6718 31.128 54.6718 32.952C54.6718 34.944 54.1918 36.48 53.2318 37.56C52.2718 38.64 50.9158 39.18 49.1638 39.18C47.5438 39.18 46.2898 38.676 45.4018 37.668C44.5258 36.648 44.0878 35.208 44.0878 33.348C44.0878 31.392 44.5618 29.886 45.5098 28.83C46.4698 27.774 47.8258 27.246 49.5778 27.246ZM49.3618 29.208C48.4018 29.208 47.7058 29.508 47.2738 30.108C46.8418 30.708 46.6258 31.686 46.6258 33.042C46.6258 34.59 46.8358 35.694 47.2558 36.354C47.6878 37.014 48.3958 37.344 49.3798 37.344C50.3398 37.344 51.0358 37.044 51.4678 36.444C51.8998 35.832 52.1158 34.836 52.1158 33.456C52.1158 31.932 51.8998 30.846 51.4678 30.198C51.0478 29.538 50.3458 29.208 49.3618 29.208ZM62.1903 32.88C63.4743 34.668 64.9563 36.54 66.6363 38.496L66.6003 38.766C65.9283 38.934 65.1363 39.072 64.2243 39.18L63.9363 39.036C62.3643 36.948 60.9663 34.944 59.7423 33.024L59.7063 35.328L59.7963 39H57.3663L57.4923 35.544L57.3663 27.408H59.8323L59.7423 32.79L63.0003 28.524L63.6663 27.408H66.2943L62.1903 32.88ZM81.9786 35.418L82.0686 39H79.4406L74.7066 31.152H74.5626L74.5446 35.004L74.6166 39H72.4026L72.5286 35.58L72.4206 27.408H75.0306L79.7646 35.256H79.9266L79.8726 27.516L82.1226 27.372L81.9786 35.418ZM90.2501 27.246C91.8821 27.246 93.1361 27.744 94.0121 28.74C94.9001 29.724 95.3441 31.128 95.3441 32.952C95.3441 34.944 94.8641 36.48 93.9041 37.56C92.9441 38.64 91.5881 39.18 89.8361 39.18C88.2161 39.18 86.9621 38.676 86.0741 37.668C85.1981 36.648 84.7601 35.208 84.7601 33.348C84.7601 31.392 85.2341 29.886 86.1821 28.83C87.1421 27.774 88.4981 27.246 90.2501 27.246ZM90.0341 29.208C89.0741 29.208 88.3781 29.508 87.9461 30.108C87.5141 30.708 87.2981 31.686 87.2981 33.042C87.2981 34.59 87.5081 35.694 87.9281 36.354C88.3601 37.014 89.0681 37.344 90.0521 37.344C91.0121 37.344 91.7081 37.044 92.1401 36.444C92.5721 35.832 92.7881 34.836 92.7881 33.456C92.7881 31.932 92.5721 30.846 92.1401 30.198C91.7201 29.538 91.0181 29.208 90.0341 29.208ZM108.649 39H106.093L104.365 33.456H104.203L102.457 39H99.8826L96.6426 27.408H99.0366L99.2166 28.83L101.269 36.48H101.431L103.393 30.234L102.565 27.408H105.049L105.319 29.082L107.407 36.48H107.569L109.909 28.992L110.197 27.408H112.465L108.649 39ZM117.24 27.3L116.574 34.734L115.224 34.914L114.972 34.68L114.828 27.408L115.044 27.138L116.952 27.012L117.24 27.3ZM115.692 36.57C116.064 36.57 116.352 36.678 116.556 36.894C116.772 37.11 116.88 37.41 116.88 37.794C116.88 38.202 116.766 38.526 116.538 38.766C116.31 39.006 115.998 39.126 115.602 39.126C115.206 39.126 114.9 39.018 114.684 38.802C114.48 38.586 114.378 38.28 114.378 37.884C114.378 37.488 114.492 37.17 114.72 36.93C114.96 36.69 115.284 36.57 115.692 36.57Z" fill="black"></path>
</svg>
