<?xml version="1.0" encoding="UTF-8"?>
<svg xmlns="http://www.w3.org/2000/svg" width="616" height="69" viewBox="0 0 616 69" fill="none">
  <path d="M0.146837 4.00001C0.146837 4.00001 -11.1168 5.96047e-06 163.658 0C338.433 -5.96046e-06 610 4.00001 610 4.00001V60C610 60 553.412 64 464.166 64C374.919 64 0.146837 60 0.146837 60V4.00001Z" fill="#FCBC5A"></path>
  <path d="M1.14828 63.6988V4.6651C1.21171 4.64809 1.28247 4.63011 1.36123 4.61128C2.95283 4.23083 6.95999 3.6943 16.5788 3.15469C35.7665 2.07827 77.022 1 165.268 1C253.509 0.999997 366.187 2.07806 456.807 3.15618C502.117 3.69524 541.911 4.23429 570.378 4.63858C584.612 4.84073 596.013 5.00918 603.857 5.1271C607.778 5.18605 610.81 5.23238 612.862 5.26396L615 5.29704V63.7574C614.576 63.7874 614.009 63.8271 613.301 63.8751C611.565 63.9928 608.983 64.1611 605.603 64.3631C598.843 64.7671 588.89 65.3058 576.12 65.8446C550.581 66.9222 513.778 68 468.731 68C423.675 68 306.536 66.922 200.653 65.8438C147.713 65.3047 97.59 64.7657 60.7015 64.3614C42.2573 64.1592 27.1218 63.9908 16.5974 63.8729C11.3352 63.8139 7.22573 63.7676 4.43185 63.736L1.24805 63.6999L1.14828 63.6988ZM0.675802 4.82579C0.675782 4.82578 0.676432 4.82539 0.677814 4.82463C0.676512 4.82541 0.675822 4.82579 0.675802 4.82579Z" stroke="#363737" stroke-width="2"></path>
</svg>
