<?xml version="1.0" encoding="UTF-8"?>
<svg xmlns="http://www.w3.org/2000/svg" id="Layer_2" data-name="Layer 2" viewBox="0 0 143 69">
  <defs>
    <style>
      .cls-1 {
        fill: #fcbc5a;
      }

      .cls-2 {
        fill: none;
        stroke: #363737;
        stroke-width: 2px;
      }
    </style>
  </defs>
  <g id="Layer_1-2" data-name="Layer 1">
    <path class="cls-1" d="M.03,4.05S-2.52,.05,37.03,.05c39.55,0,101,4,101,4V60.05s-12.81,4-33,4S.03,60.05,.03,60.05V4.05Z"></path>
    <path class="cls-2" d="M1.03,4.31v-.03c.25-.22,1.01-.67,3.04-1.16,4.34-1.05,13.82-2.13,34.3-2.13,20.46,0,46.6,1.08,67.63,2.15,10.51,.54,19.75,1.08,26.36,1.48,3.3,.2,5.95,.37,7.77,.49,.79,.05,1.42,.09,1.88,.12V63.94c-.39,.11-.94,.27-1.65,.45-1.55,.4-3.84,.93-6.78,1.47-5.88,1.07-14.37,2.14-24.76,2.14s-37.6-1.08-62.19-2.16c-12.29-.54-23.92-1.08-32.49-1.48-4.28-.2-7.79-.37-10.24-.49-1.22-.06-2.18-.11-2.82-.14h-.04V4.31Z"></path>
  </g>
</svg>
