<svg xmlns="http://www.w3.org/2000/svg" width="28" height="33" viewBox="0 0 28 33" fill="none"><path d="M0 25.6557C0.921646 25.8247 1.82326 26.2388 2.7449 26.8134C3.64651 27.3627 4.50805 27.9542 5.26941 28.6387C6.03077 29.2725 6.62182 29.9993 7.36315 30.8528C7.71377 31.2668 8.11449 31.6978 8.58533 32.1203C8.69553 32.2217 8.83578 32.3401 8.94597 32.4246L9.02612 32.4922C9.05617 32.5175 9.04615 32.5175 9.16637 32.6189C9.23649 32.6696 9.31664 32.7541 9.64723 32.8893C9.79749 32.9485 10.108 33.0076 10.3184 32.9992C10.5488 32.9907 10.7792 32.9316 10.8594 32.8978C11.2902 32.7203 11.2701 32.6781 11.3302 32.6527L11.4204 32.5851L11.4805 32.5429C11.5406 32.4922 11.6208 32.433 11.6608 32.3908C11.761 32.2978 11.8211 32.2217 11.8712 32.1541C12.0716 31.8837 12.1317 31.7232 12.2018 31.5711L12.3521 31.1992C12.4122 31.0556 12.4623 30.9035 12.5123 30.7598C12.6125 30.4725 12.6826 30.1852 12.7327 29.9063C12.8429 29.3486 12.903 28.8162 12.9531 28.3092C13.1535 26.3571 13.444 24.4642 13.985 22.5882C14.9868 18.8362 16.6998 15.2362 19.054 12.0251C20.2061 10.4026 21.5885 8.91527 23.0912 7.5632C24.5839 6.20266 26.2168 4.97734 28 3.97173L24.2633 0C22.3599 1.48729 20.6469 3.10133 19.1442 4.81678C17.6515 6.54068 16.3392 8.34909 15.2272 10.2167C14.1252 12.1011 13.1835 14.0278 12.4122 15.9968C11.6608 17.9742 11.0798 19.9854 10.639 22.0135C10.1882 24.0332 10.0079 26.1205 9.8576 28.1317C9.82755 28.6218 9.79749 29.0782 9.72737 29.5007C9.69732 29.7119 9.64723 29.9148 9.59714 30.1091L9.50698 30.388L9.37674 30.726C9.34669 30.8021 9.30662 30.8781 9.34669 30.819C9.35671 30.8021 9.37674 30.7767 9.42683 30.726C9.44687 30.7091 9.49696 30.6669 9.52701 30.6415C9.56708 30.6161 9.50698 30.6584 9.50698 30.6584L9.42683 30.7176C9.43685 30.726 9.35671 30.726 9.71735 30.5823C9.77746 30.557 9.98783 30.4978 10.2082 30.4978C10.3986 30.4809 10.6891 30.5401 10.8293 30.5993C11.1299 30.7176 11.18 30.7852 11.22 30.8105C11.2801 30.8612 11.2301 30.819 11.21 30.8021C11.1399 30.7429 11.0597 30.6669 10.9796 30.6077C10.8794 30.5232 10.7993 30.4725 10.7091 30.3964C10.3585 30.1091 10.0179 29.7627 9.67728 29.3824C9.00608 28.6387 8.25474 27.7092 7.32308 26.9486C6.43148 26.1965 5.50984 25.4782 4.51807 24.8276C3.55635 24.2022 2.48444 23.4839 1.17209 22.9685L0 25.6557Z" fill="#FCBC5A"></path></svg>