<?xml version="1.0" encoding="UTF-8"?>
<svg xmlns="http://www.w3.org/2000/svg" width="150" height="63" viewBox="0 0 150 63" fill="none">
  <g clip-path="url(#clip0_95_1362)">
    <path d="M33.5542 54.7821C27.3937 54.7549 21.1231 54.7056 15.262 52.8089C9.40107 50.9086 3.91614 46.827 1.90079 40.9906C-0.31426 34.5818 2.45313 26.806 8.22078 23.2516C13.9847 19.697 22.1556 20.734 26.8551 25.6129C28.5874 15.804 36.1775 7.27294 45.6996 4.43485C55.2217 1.59676 66.2253 4.57439 73.0182 11.8364C75.4156 14.3964 77.7797 17.6809 81.2757 17.8694C84.194 18.0268 86.6653 15.9147 89.0492 14.2215C95.343 9.74439 103.608 7.53794 110.95 9.90609C118.292 12.2742 124.037 19.9322 122.832 27.5737C131.825 22.0841 145.479 28.6672 146.814 39.1353C149.774 62.3531 117.775 55.176 105.28 55.1175C81.3701 55.0056 57.4603 54.8937 33.5542 54.7821Z" fill="#FFFAF4"></path>
  </g>
  <defs>
    <clipPath id="clip0_95_1362">
      <rect width="146" height="53" fill="white" transform="matrix(-0.997782 -0.0665675 -0.0665675 0.997782 149.204 9.71887)"></rect>
    </clipPath>
  </defs>
</svg>
