<svg xmlns="http://www.w3.org/2000/svg" width="73" height="69" viewBox="0 0 73 69" fill="none"><path d="M35.5748 4.06055C26.9926 8.22128 18.0339 11.8043 8.58826 13.5699C8.77652 23.4037 9.36079 33.348 12.0354 42.8832C13.0806 46.4014 14.4309 49.9714 17.0082 52.7171C22.2016 58.7473 28.635 63.6739 35.5748 67.6789C42.956 63.4143 49.766 58.0917 55.1282 51.5422C57.6665 48.1539 58.8675 44.0451 59.8608 40.0207C61.8602 31.3487 62.3991 22.4301 62.5484 13.5699C53.1093 11.7978 44.144 8.22128 35.5748 4.06055Z" fill="#F5BC5A"></path><path d="M15.8331 15.978C15.9889 24.1437 16.4563 32.4003 18.6116 40.3128C19.4556 43.2337 20.5397 46.1936 22.6171 48.472C26.7978 53.4766 31.9783 57.5659 37.5678 60.8893C43.5078 57.3517 48.9934 52.9313 53.3105 47.4918C55.3554 44.6812 56.3227 41.267 57.1212 37.9306C58.7312 30.7321 59.1661 23.3323 59.283 15.978C51.681 14.5046 44.4621 11.5382 37.5613 8.08496C30.654 11.5382 23.4351 14.5111 15.8331 15.978Z" fill="white" stroke="#363737" stroke-width="1.6559" stroke-miterlimit="10"></path><path d="M10.3475 11.3045C10.5423 21.5343 11.1266 31.868 13.8207 41.7797C14.8788 45.4342 16.2356 49.147 18.8389 52.0031C24.0713 58.2734 30.5631 63.3883 37.5613 67.5555C45.001 63.1222 51.8758 57.5918 57.277 50.7828C59.8348 47.2646 61.0488 42.9871 62.0485 38.8069C64.0675 29.7973 64.6063 20.5217 64.7556 11.311C55.2386 9.46103 46.2019 5.74818 37.5548 1.42517C28.9077 5.74818 19.8711 9.46752 10.3475 11.3045Z" stroke="#363737" stroke-width="1.6559" stroke-miterlimit="10"></path><path d="M30.0892 25.5522L29.5894 12.8169L34.0882 24.5267L39.5933 17.9643L37.0939 25.8119L42.4692 24.7798L40.0931 27.6099L56.9784 20.7878L43.9688 30.9592L48.974 31.9848L44.4686 33.5297L46.7213 43.3051L42.969 35.3277L40.8397 42.5327L38.3404 36.8726L32.8353 43.5648L33.3352 37.1322L25.3372 41.5071L29.0895 35.3277L19.5854 34.5553L28.3364 30.6931L19.5854 27.3503L30.0892 25.5522Z" fill="#363737"></path><path d="M49.318 30.5179L56.037 26.1689L48.2793 29.1743L49.318 30.5179Z" fill="#363737"></path><path d="M48.2793 35.9573L52.6548 41.1371L50.5709 41.8641L48.2793 35.9573Z" fill="#363737"></path><path d="M22.1367 36.3728L26.9277 36.165L22.6561 40.7217L22.1367 36.3728Z" fill="#363737"></path><path d="M38.5741 24.1178L42.6185 18.0162L42.8847 22.8196L38.5741 24.1178Z" fill="#363737"></path></svg>