<?xml version="1.0" encoding="UTF-8"?>
<svg xmlns="http://www.w3.org/2000/svg" id="Layer_2" data-name="Layer 2" viewBox="0 0 304.22 362.91">
  <defs>
    <style>
      .cls-1, .cls-2, .cls-3 {
        fill: none;
      }

      .cls-2 {
        fill-rule: evenodd;
      }

      .cls-4 {
        fill: rgba(0, 124, 109, .4);
      }

      .cls-3 {
        stroke: rgba(0, 124, 109, .4);
        stroke-linecap: round;
        stroke-width: 2px;
      }
    </style>
  </defs>
  <g id="Layer_1-2" data-name="Layer 1">
    <path class="cls-3" d="m213.78,257.12c-6.02,6.2-8.77-3.23-13.11-7.59-5.73-5.76-10.91-12.03-16.54-17.74-9.38-9.51-17.57-20.1-27.01-29.6-11.1-11.17-10.46-28.12-21.1-39.22-10.88-11.35-18.7-28.25-13.38-44.06,2.96-8.81,1.63-18.6,4.38-27.78,1.38-4.59,4.16-9.49,5.17-13.84,1.07-4.59,2.82-6.15-.54-10.29-2.12-2.61-8.07-6.47-6.23-10.58,1.72-3.84,4.87-9.43,2.73-13.56-3.63-6.99-.15-13.57.64-20.79.44-4.07,6.85-9.81,9.71-12.75l6.82-7.03c2.85-2.94,9.86.09,13.43.23,3.64.14,9.42,1.59,12.84,2.98,5.45,2.21,8.03,5.18,13.02,8.07,9.27,5.37,19.08,11.11,26.94,18.73,9.59,9.29,17.98,21.01,23.98,32.73,2.92,5.71,3.76,9.99,5.83,15.88,2.21,6.29,7.96,10.63,8.06,17.2.08,5.31,4.4,10.69,4.48,15.61.1,6.19-.26,12.52-.96,18.68-.61,5.26-2.83,14.57-5.38,19.33-3.16,5.9-.52,12.26-2.66,17.99-1.67,4.48-2.3,13.13-1.03,17.67,2.43,8.69-.37,17.67-2.72,26.26-2.41,8.81-7.5,17.79-6.79,27.34.31,4.14,1.03,7.91-4.9,10.13-6.5,2.43-9.65,5.07-14.76,10.33-1.15,1.19-2.67,1.66-4.4,1.68.41,1.98,1.7,5.06,2.46,6.38,1.08,1.87,2.93,5.99,2.97,8.47.06,3.85-2.6,8.84-3.27,12.85-.68,4.1-3.44,6.39-6.25,9.29-1.8,1.86-.44,3.43-1.12,5.65-.77,2.54-2.86,5.49-4.7,7.39-3.22,3.32-6.87,6.59-11.33,8.07-6.31,2.09-11.78,5.03-17.48,8.35-8.4,4.9-19.03,6.09-28.04,9.67-12.21,4.85-20.85,11.96-32.23,13.01-7.91.73-15.56-.93-23.37.84-6.39,1.45-14.29,1.86-20.85,1.96-6.06.09-14.49,3.75-20.21,5.99-5.11,2-2.89.3-6.14-1.88-1.04-.69-5.87-.22-7.27-.13-2.82.18-4.1-.99-6.94-.66-3.47.4-8.88-.04-7.68-5.37.96-4.28,2.74-8.6,3.45-13.62.98-7.04,3.87-13.15,4.01-20.65.06-3.21,2.88-5.93,4.19-8.82,2.76-6.05,2.67-14.28,7.4-19.17l9.19-9.48c4.49-4.63,9.28-5.68,14-9.26,2.68-2.03,8.78-7.54,12-7.88,9.12-.97,18.76-6.96,28.21-7.89,19.19-1.9,41.95-5.01,60.94-.89,6.11,1.33,11.63,2.11,17.85,2.9,2.5.32,5.77.59,8.15,1.46,2.09.77,2.48-1,4.27-.98,4.59.06,12.25,4.5,17.77,4.42-.36-1.71-.05-2.59,1.82-.77l1.65-5.22Z"></path>
    <path class="cls-1" d="m129.7,230.37c.35.13.68.29.99.47,3.35,1.07,4.73,1.54,7.32-1.13,1.15-1.19,5.36-1.58,5.05-3.54-.68-4.28-1.37-9.49-4.16-13.98-1.92-3.1-6.04-4.51-6.1-8.37-.02-1.46-1.03-6-.39-6.92,4.85-7.01,2.77-14.64-3.03-21.51-7.27-8.61-17.49-12.63-24.29-21.56-5.46-7.17-16.07-14.16-24.97-15.68-11.24-1.93-23.6-2.05-34.39-5.68-7.82-2.63-17.85,4.52-25.57-1.77-3.93-3.2-10.92,1.01-15.45,2.93-7.65,3.26-1.48,7.83.91,11.97,1.84,3.19,3.84,5.52,6.52,8.13,2.49,2.42,2.75,5.89,5.13,8.39,4.65,4.87,4.17,13.62,8.46,18.44,2.68,3.02,5.35,8.32,7.11,12.01,3.19,6.65,7.52,9.8,13.07,14.28,9.98,8.06,28.44,12.83,40.98,14.91,10.21,1.69,21.15,11.81,32.27,8.45,2.41-.73,8.3-.65,10.54.17Z"></path>
    <path class="cls-3" d="m136.31,231.47c-2.85,2.35-4.23-.23-6.61-1.1-2.24-.82-8.13-.9-10.54-.17-11.12,3.36-22.06-6.76-32.27-8.45-12.54-2.08-31-6.85-40.98-14.91-5.55-4.48-9.88-7.63-13.07-14.28-1.77-3.69-4.43-8.99-7.11-12.01-4.29-4.82-3.81-13.57-8.46-18.44-2.39-2.5-2.64-5.97-5.13-8.39-2.69-2.61-4.69-4.93-6.52-8.13-2.38-4.14-8.56-8.71-.91-11.97,4.52-1.93,11.52-6.13,15.45-2.93,7.73,6.29,17.75-.86,25.57,1.77,10.79,3.62,23.15,3.75,34.39,5.68,8.9,1.53,19.51,8.51,24.97,15.68,6.81,8.94,17.02,12.95,24.29,21.56,5.8,6.87,7.87,14.5,3.03,21.51-.64.92.37,5.46.39,6.92.06,3.86,4.17,5.28,6.1,8.37,2.79,4.49,3.48,9.7,4.16,13.98.31,1.96-3.89,2.35-5.05,3.54-2.71,2.79-4.09,2.15-7.78.99"></path>
    <path class="cls-2" d="m194.43,297.12c-2.15-.22-4.21-.88-6.12-2.07-3.67-2.3-9.62-2.18-15.88-2.05-8.93.18-18.46.37-22.81-6.44-.94-1.48,11.72-7.91,16.23-10.2h0s0,0,0,0h0c.68-.35,1.18-.6,1.41-.72,8.27-4.44,14.78-6.5,22.41-7.33-1.18-1.72-1.99-3.64-2.34-5.79-.69-4.27-4.7-8.67-8.91-13.3-6.01-6.6-12.44-13.65-10.18-21.41.49-1.68,13.67,3.61,18.36,5.5.71.29,1.23.49,1.48.59,10.03,3.76,16.21,7.85,22.67,14.34.13-2.16.69-4.24,1.79-6.21,2.12-3.77,1.73-9.71,1.32-15.95-.59-8.91-1.21-18.43,5.39-23.08,1.43-1.01,8.43,11.35,10.93,15.75h0c.38.67.65,1.16.79,1.38,4.71,7.88,7.06,14.18,8.27,21.55,1.88-1.21,3.96-2,6.27-2.24,4.3-.45,8.92-4.21,13.77-8.16,6.93-5.64,14.32-11.66,21.94-8.97,1.65.58-4.37,13.45-6.51,18.03-.33.7-.56,1.2-.67,1.44-4.31,9.81-8.74,15.75-15.58,21.84,2.15.25,4.2.92,6.1,2.14,3.64,2.33,9.6,2.27,15.85,2.21,8.93-.09,18.47-.18,22.75,6.67.93,1.48-11.8,7.79-16.33,10.04-.69.34-1.19.59-1.42.71-8.31,4.36-14.84,6.35-22.48,7.11,1.16,1.73,1.96,3.66,2.28,5.81.64,4.28,4.61,8.72,8.78,13.39,5.95,6.66,12.3,13.78,9.97,21.51-.51,1.67-13.63-3.75-18.31-5.68h0s0,0,0,0c-.71-.29-1.22-.51-1.47-.6-9.99-3.86-16.13-8.01-22.52-14.57-.15,2.16-.73,4.24-1.86,6.19-2.16,3.75-1.83,9.69-1.48,15.94.5,8.92,1.03,18.44-5.62,23.03-1.44.99-8.32-11.43-10.77-15.85-.37-.67-.64-1.16-.78-1.39-4.49-7.68-6.78-13.87-7.94-20.96-1.69.99-3.54,1.65-5.58,1.89-4.3.49-8.88,4.3-13.69,8.29-6.87,5.71-14.21,11.8-21.85,9.19-1.66-.57,4.23-13.49,6.33-18.09.32-.7.55-1.21.65-1.45,4.21-9.85,8.58-15.84,15.36-21.99Z"></path>
    <path class="cls-4" d="m188.31,295.04l-.53.85.53-.85Zm6.12,2.07l.67.74,1.66-1.5-2.22-.23-.1.99Zm-22-4.13l-.02-1,.02,1Zm-22.81-6.44l.84-.54-.84.54Zm16.23-10.2l-.44-.9h-.01s.45.9.45.9Zm0,0l.44.9h0s-.45-.9-.45-.9Zm0,0l.45.89h0s-.46-.89-.46-.89Zm0,0l.45.89h0s-.46-.89-.46-.89Zm0,0l-.45-.89h0s.46.89.46.89Zm0,0l-.45-.89h0s.45.89.45.89Zm1.41-.72l.47.88h0l-.47-.88Zm22.41-7.33l.11.99,1.66-.18-.94-1.38-.83.57Zm-2.34-5.79l.99-.16-.99.16Zm-8.91-13.3l.74-.67-.74.67Zm-10.18-21.41l.96.28h0l-.96-.28Zm18.36,5.5l.37-.93h0l-.37.93Zm1.48.59l.35-.94h0l-.35.94Zm22.67,14.34l-.71.7,1.58,1.59.13-2.23-1-.06Zm1.79-6.21l.87.49-.87-.49Zm1.32-15.95l1-.07-1,.07Zm5.39-23.08l-.58-.82.58.82Zm10.93,15.75l-.87.49h0s.87-.49.87-.49Zm0,0l.87-.49h0s-.87.49-.87.49Zm9.06,22.93l-.99.16.25,1.5,1.28-.82-.54-.84Zm6.27-2.24l-.1-.99.1.99Zm13.77-8.16l-.63-.78.63.78Zm21.94-8.97l-.33.94.33-.94Zm-6.51,18.03l-.91-.42.91.42Zm-.67,1.44l.92.4-.92-.4Zm-15.58,21.84l-.66-.75-1.67,1.49,2.22.26.11-.99Zm6.1,2.14l-.54.84.54-.84Zm15.85,2.21v1s0-1,0-1Zm22.75,6.67l-.85.53h0l.85-.53Zm-16.33,10.04l.44.9-.44-.9Zm-1.42.71l.46.89h0l-.46-.89Zm-22.48,7.11l-.1-.99-1.66.16.93,1.39.83-.56Zm2.28,5.81l-.99.15.99-.15Zm8.78,13.39l-.75.67.75-.67Zm9.97,21.51l-.96-.29h0s.96.29.96.29Zm-18.31-5.68l-.4.92h0s0,0,0,0l.38-.92Zm0,0l-.41.91h0s0,0,0,0l.4-.92Zm0,0l-.43.9h.01s0,.01,0,.01l.41-.91Zm0,0l.43-.9h-.02s-.02-.02-.02-.02l-.38.92Zm0,0l.38-.92h0l-.38.92Zm-1.47-.6l.36-.93-.36.93Zm-22.52-14.57l.72-.7-1.56-1.6-.15,2.23,1,.07Zm-1.86,6.19l.87.5-.87-.5Zm-1.48,15.94l1-.06-1,.06Zm-5.62,23.03l.57.82-.57-.82Zm-10.77-15.85l.88-.49-.88.49Zm-.78-1.39l-.86.51h0l.86-.51Zm-7.94-20.96l.99-.16-.24-1.44-1.26.74.51.86Zm-5.58,1.89l.11.99-.11-.99Zm-13.69,8.29l.64.77h0l-.64-.77Zm-21.85,9.19l.32-.95h0l-.32.95Zm6.33-18.09l-.91-.42h0l.91.42Zm.65-1.45l-.92-.39h0l.92.39Zm8.71-23.22c2.05,1.28,4.26,1.98,6.55,2.22l.21-1.99c-2.01-.21-3.92-.82-5.69-1.93l-1.06,1.7Zm-15.33-1.9c3.14-.06,6.14-.12,8.8.11,2.67.24,4.89.76,6.53,1.78l1.06-1.7c-2.03-1.27-4.63-1.83-7.41-2.08-2.79-.25-5.9-.18-9.02-.12l.04,2Zm-23.68-6.9c2.38,3.72,6.15,5.47,10.34,6.28,4.17.8,8.9.71,13.33.62l-.04-2c-4.49.09-8.99.17-12.91-.58-3.9-.75-7.07-2.31-9.04-5.39l-1.68,1.08Zm16.62-11.63c-2.25,1.14-6.57,3.34-10.2,5.43-1.81,1.04-3.49,2.08-4.67,2.97-.58.44-1.09.88-1.43,1.29-.17.2-.35.46-.44.76-.1.32-.14.77.13,1.18l1.68-1.08c.15.23.11.45.09.52-.01.04-.01,0,.08-.11.19-.23.55-.55,1.09-.96,1.07-.81,2.67-1.8,4.46-2.83,3.59-2.06,7.85-4.23,10.11-5.38l-.91-1.78Zm.01,0h0l.88,1.8h0l-.88-1.8Zm0,0h0l.9,1.79h0l-.9-1.79Zm0,0h0s.91,1.78.91,1.78h0s-.91-1.78-.91-1.78Zm0,0h0l.91,1.78h0l-.91-1.78Zm0,0h0s.91,1.78.91,1.78h0s-.91-1.78-.91-1.78Zm1.39-.71c-.22.12-.7.36-1.39.71l.91,1.78c.68-.34,1.19-.6,1.43-.73l-.95-1.76Zm22.77-7.44c-7.78.85-14.41,2.95-22.77,7.44l.95,1.76c8.17-4.39,14.56-6.4,22.04-7.22l-.22-1.99Zm-3.22-4.63c.37,2.3,1.24,4.36,2.5,6.19l1.65-1.13c-1.1-1.61-1.86-3.39-2.18-5.38l-1.97.32Zm-8.66-12.78c2.12,2.32,4.13,4.54,5.71,6.7,1.58,2.17,2.65,4.18,2.96,6.09l1.97-.32c-.38-2.37-1.67-4.69-3.31-6.95-1.65-2.27-3.75-4.56-5.85-6.86l-1.48,1.35Zm-10.4-22.36c-1.23,4.24-.07,8.23,2.09,11.92,2.14,3.67,5.33,7.16,8.32,10.44l1.48-1.35c-3.02-3.32-6.05-6.65-8.07-10.1-2-3.43-2.92-6.84-1.89-10.35l-1.92-.56Zm19.7,4.85c-2.34-.94-6.83-2.75-10.81-4.1-1.98-.68-3.87-1.26-5.31-1.56-.71-.15-1.38-.25-1.91-.23-.26,0-.58.05-.86.17-.31.13-.67.4-.8.88l1.92.56c-.08.27-.27.38-.33.41-.04.02-.01,0,.14,0,.29,0,.77.05,1.44.19,1.32.28,3.11.82,5.07,1.49,3.91,1.34,8.36,3.12,10.71,4.07l.74-1.86Zm1.46.58c-.23-.09-.73-.29-1.46-.58l-.74,1.86c.71.28,1.24.5,1.5.6l.7-1.87Zm23.03,14.58c-6.56-6.6-12.87-10.77-23.03-14.58l-.7,1.87c9.9,3.71,15.96,7.73,22.31,14.11l1.42-1.41Zm.21-5.99c-1.19,2.11-1.79,4.34-1.92,6.64l2,.12c.12-2.02.64-3.96,1.67-5.78l-1.74-.98Zm1.2-15.4c.21,3.13.4,6.12.29,8.8-.11,2.68-.54,4.92-1.48,6.6l1.74.98c1.18-2.09,1.62-4.7,1.74-7.5.12-2.8-.09-5.9-.29-9.01l-2,.13Zm5.81-23.97c-3.61,2.55-5.18,6.4-5.8,10.62-.61,4.2-.3,8.92,0,13.35l2-.13c-.29-4.48-.59-8.98,0-12.93.57-3.93,1.99-7.16,4.98-9.27l-1.15-1.63Zm12.38,16.07c-1.24-2.2-3.63-6.41-5.89-9.95-1.13-1.76-2.24-3.39-3.18-4.53-.46-.56-.92-1.05-1.35-1.37-.21-.16-.48-.32-.78-.41-.33-.09-.77-.1-1.18.18l1.15,1.63c-.23.16-.45.13-.51.11-.04-.01,0,0,.11.08.24.18.58.52,1.01,1.05.86,1.04,1.92,2.58,3.03,4.33,2.23,3.49,4.59,7.65,5.84,9.86l1.74-.99Zm0,0h0s-1.74.99-1.74.99h0s1.74-.99,1.74-.99Zm.78,1.36c-.13-.21-.39-.68-.78-1.36l-1.74.99c.38.66.66,1.16.8,1.4l1.72-1.03Zm8.4,21.9c-1.23-7.51-3.63-13.94-8.4-21.9l-1.72,1.03c4.66,7.78,6.96,13.97,8.14,21.2l1.97-.32Zm5.17-3.07c-2.48.26-4.7,1.11-6.7,2.39l1.08,1.68c1.76-1.13,3.69-1.86,5.83-2.08l-.21-1.99Zm13.24-7.94c-2.44,1.98-4.76,3.87-7,5.33-2.25,1.46-4.32,2.41-6.24,2.61l.21,1.99c2.39-.25,4.77-1.4,7.12-2.92,2.35-1.52,4.77-3.49,7.18-5.45l-1.26-1.55Zm22.91-9.14c-4.17-1.47-8.22-.52-12.02,1.42-3.78,1.93-7.44,4.92-10.89,7.72l1.26,1.55c3.48-2.84,6.98-5.68,10.54-7.49,3.54-1.81,6.99-2.53,10.44-1.31l.67-1.89Zm-5.94,19.4c1.07-2.29,3.12-6.67,4.7-10.56.79-1.94,1.47-3.79,1.85-5.21.19-.7.32-1.36.33-1.9,0-.26-.01-.58-.12-.87-.12-.32-.36-.69-.83-.85l-.67,1.89c-.26-.09-.36-.29-.38-.35-.02-.04,0-.01,0,.14,0,.3-.09.77-.27,1.43-.35,1.3-.99,3.06-1.77,4.98-1.55,3.83-3.58,8.17-4.66,10.47l1.81.85Zm-.66,1.42c.1-.23.33-.72.66-1.42l-1.81-.85c-.32.69-.57,1.21-.68,1.46l1.83.8Zm-15.83,22.18c6.96-6.19,11.47-12.25,15.83-22.18l-1.83-.8c-4.26,9.68-8.6,15.51-15.33,21.49l1.33,1.49Zm5.98.55c-2.04-1.3-4.24-2.03-6.53-2.29l-.23,1.99c2.01.23,3.91.86,5.67,1.99l1.08-1.68Zm15.3,2.05c-3.14.03-6.14.06-8.8-.2-2.67-.26-4.88-.81-6.51-1.85l-1.08,1.68c2.02,1.29,4.61,1.88,7.39,2.16,2.79.28,5.9.24,9.01.21l-.02-2Zm23.61,7.14c-2.34-3.74-6.1-5.53-10.28-6.38-4.16-.85-8.89-.8-13.33-.75l.02,2c4.49-.04,9-.08,12.91.71,3.89.79,7.04,2.38,8.98,5.48l1.7-1.06Zm-16.73,11.46c2.26-1.12,6.6-3.27,10.26-5.33,1.82-1.02,3.51-2.05,4.7-2.92.58-.43,1.1-.86,1.45-1.27.17-.2.35-.46.45-.76.11-.32.14-.76-.12-1.18l-1.7,1.06c-.15-.23-.1-.46-.08-.52.01-.04.01,0-.09.11-.19.23-.55.55-1.1.95-1.08.8-2.68,1.77-4.49,2.79-3.61,2.03-7.9,4.15-10.17,5.28l.89,1.79Zm-1.4.7c.22-.11.71-.36,1.4-.7l-.89-1.79c-.68.34-1.2.59-1.44.72l.93,1.77Zm-22.85,7.22c7.78-.77,14.44-2.8,22.85-7.22l-.93-1.77c-8.21,4.31-14.62,6.25-22.12,7l.2,1.99Zm3.17,4.66c-.35-2.31-1.2-4.37-2.44-6.22l-1.66,1.11c1.08,1.62,1.82,3.41,2.12,5.4l1.98-.3Zm8.53,12.87c-2.09-2.34-4.09-4.58-5.64-6.76-1.56-2.18-2.61-4.21-2.89-6.11l-1.98.3c.36,2.37,1.62,4.7,3.24,6.98,1.63,2.28,3.7,4.6,5.78,6.92l1.49-1.33Zm10.18,22.46c1.28-4.23.15-8.23-1.97-11.94-2.1-3.69-5.25-7.21-8.21-10.52l-1.49,1.33c2.99,3.35,5.99,6.71,7.97,10.18,1.97,3.45,2.85,6.87,1.79,10.37l1.91.58Zm-19.64-5.05c2.33.96,6.81,2.81,10.76,4.21,1.97.7,3.85,1.29,5.29,1.61.71.16,1.37.26,1.91.25.26,0,.58-.04.87-.16.31-.13.67-.39.81-.87l-1.91-.58c.08-.27.28-.38.34-.4.04-.02.01,0-.14,0-.3,0-.77-.05-1.44-.2-1.31-.29-3.1-.85-5.05-1.54-3.9-1.38-8.33-3.21-10.67-4.17l-.76,1.85Zm-.01,0h0l.79-1.84h0l-.79,1.84Zm-.01,0h0l.82-1.83h0l-.82,1.83Zm-.02-.01h0l.86-1.81h0l-.86,1.81Zm.04.02h0s.77-1.85.77-1.85h0s-.77,1.85-.77,1.85Zm-1.45-.59c.23.09.73.3,1.45.59l.76-1.85c-.7-.29-1.23-.51-1.49-.61l-.72,1.86Zm-22.88-14.8c6.5,6.66,12.76,10.9,22.88,14.8l.72-1.86c-9.86-3.81-15.88-7.89-22.17-14.34l-1.43,1.4Zm-.27,5.99c1.21-2.1,1.83-4.33,1.99-6.62l-2-.14c-.14,2.02-.68,3.95-1.72,5.76l1.73,1Zm-1.35,15.38c-.17-3.14-.34-6.13-.2-8.8.14-2.68.59-4.92,1.55-6.58l-1.73-1c-1.2,2.08-1.67,4.69-1.82,7.48-.15,2.8.03,5.91.2,9.01l2-.11Zm-6.05,23.91c3.63-2.51,5.25-6.35,5.91-10.56.65-4.19.39-8.92.14-13.35l-2,.11c.25,4.48.5,8.98-.12,12.93-.61,3.92-2.06,7.14-5.07,9.22l1.14,1.65Zm-12.22-16.19c1.22,2.21,3.57,6.44,5.79,10,1.11,1.78,2.21,3.42,3.13,4.56.46.56.91,1.06,1.34,1.39.21.16.47.33.78.42.32.09.77.11,1.18-.17l-1.14-1.65c.23-.16.45-.12.51-.1.04.01,0,.01-.11-.08-.23-.18-.57-.53-1-1.06-.85-1.04-1.89-2.6-2.99-4.36-2.19-3.51-4.51-7.7-5.74-9.92l-1.75.97Zm-.76-1.37c.12.21.39.69.76,1.37l1.75-.97c-.37-.67-.65-1.17-.79-1.41l-1.73,1.01Zm-8.07-21.31c1.19,7.24,3.53,13.54,8.07,21.31l1.73-1.01c-4.44-7.59-6.68-13.66-7.82-20.62l-1.97.32Zm-4.48,2.72c2.19-.25,4.17-.96,5.97-2.02l-1.01-1.72c-1.58.93-3.3,1.54-5.18,1.75l.23,1.99Zm-13.16,8.07c2.42-2.01,4.72-3.92,6.95-5.4,2.24-1.48,4.3-2.45,6.21-2.67l-.23-1.99c-2.38.27-4.76,1.45-7.09,2.99-2.34,1.55-4.73,3.54-7.12,5.53l1.28,1.54Zm-22.81,9.37c4.18,1.43,8.22.44,12-1.54,3.76-1.97,7.39-5,10.81-7.83l-1.28-1.54c-3.45,2.87-6.92,5.74-10.46,7.6-3.52,1.84-6.96,2.6-10.43,1.42l-.65,1.89Zm5.74-19.45c-1.05,2.3-3.05,6.7-4.59,10.61-.77,1.95-1.43,3.8-1.8,5.23-.18.7-.31,1.36-.32,1.9,0,.26.02.58.13.87.12.32.37.68.84.84l.65-1.89c.26.09.37.29.39.35.02.04,0,.01,0-.14,0-.3.08-.77.25-1.43.34-1.3.96-3.07,1.73-5,1.52-3.85,3.5-8.21,4.55-10.51l-1.82-.83Zm.64-1.43c-.1.23-.32.72-.64,1.43l1.82.83c.32-.69.55-1.22.66-1.47l-1.84-.79Zm15.61-22.34c-6.89,6.26-11.34,12.36-15.61,22.34l1.84.79c4.16-9.72,8.45-15.59,15.12-21.64l-1.34-1.48Z"></path>
  </g>
</svg>
