<svg xmlns="http://www.w3.org/2000/svg" width="264" height="442" viewBox="0 0 264 442" fill="none"><g clip-path="url(#clip0_183_1232)"><path d="M-71.8525 204.85C-81.5585 193.895 -88.5964 179.923 -88.5647 165.287C-88.5336 150.648 -80.323 135.61 -66.7655 130.121C-57.5254 126.379 -46.4859 127.449 -38.1316 132.897C-25.8719 140.891 -19.7072 157.121 -5.9862 162.206C1.4065 164.948 10.1558 163.663 16.449 158.916C22.7421 154.168 26.3801 146.103 25.7774 138.237C25.464 134.149 24.0933 130.181 23.9412 126.086C23.4456 112.931 35.1172 102.746 46.4289 96.0299C55.6687 90.5439 65.9429 85.7983 76.6766 86.3382C87.4077 86.8788 98.4402 94.2609 99.8577 104.919C100.735 111.52 97.9483 117.995 95.2225 124.07C92.969 129.097 90.7127 134.125 88.4585 139.15C87.8352 140.538 87.1994 141.999 87.3206 143.516C87.5869 146.902 91.2934 148.812 94.5599 149.737C117.761 156.306 144.527 146.549 165.747 158.014C168.734 159.629 171.615 161.747 173.152 164.776C175.086 168.587 174.571 173.165 173.554 177.313C166.949 204.239 138.91 224.097 111.334 221.378C105.029 220.757 97.5603 219.501 93.3087 224.199C90.2189 227.617 90.3603 233.055 92.4219 237.176C94.4835 241.297 98.086 244.402 101.616 247.362C110.362 254.692 119.368 261.996 125.833 271.403C132.297 280.811 135.958 292.849 132.735 303.796C129.422 315.056 119.545 323.185 109.152 328.624C97.4318 334.757 82.9932 338.281 71.128 332.417C62.3459 328.077 56.5258 319.289 53.0277 310.134C49.5296 300.978 47.9633 291.214 45.2103 281.808C44.6239 279.809 43.9038 277.704 42.2669 276.416C40.6151 275.116 38.366 274.922 36.2633 274.924C23.0936 274.939 10.0427 280.895 1.3999 290.838C-4.00034 297.052 -7.64109 304.572 -12.3346 311.337C-23.6373 327.628 -41.3406 339.339 -60.7489 343.362C-69.4365 345.164 -78.974 345.347 -86.6576 340.901C-96.1729 335.397 -100.776 323.906 -101.577 312.933C-103.641 284.66 -84.9284 258.606 -62.3565 241.493C-56.3693 236.954 -39.0062 234.677 -45.9978 226.556C-53.0596 218.353 -64.4009 213.26 -71.8525 204.85Z" stroke="#00577C" stroke-width="2" stroke-miterlimit="10"></path><path d="M141.653 318.568C129.554 324.623 114.721 324.693 109.131 309.388C103.54 294.082 102.549 287.957 110.011 275.606C117.473 263.255 132.44 279.633 141.178 291.497C149.916 303.361 153.752 312.513 141.653 318.568Z" fill="#FFFAF4"></path></g><path d="M32.7538 226.847C57.5894 223.359 83.6903 232.001 84.4684 262.195C85.2464 292.389 83.3684 303.737 62.9596 321.027C42.5507 338.318 25.9317 300.697 17.5906 274.69C9.24953 248.683 7.91827 230.336 32.7538 226.847Z" fill="#FFFAF4"></path><path d="M-4.3416 216.318C-3.81724 219.566 -4.0158 222.147 -4.95296 225.196C-4.96675 227.206 -2.82951 229.748 -1.85879 232.987C-1.10325 235.507 -1.67877 238.154 -0.483365 240.59C0.399053 242.389 2.12938 244.767 2.19144 246.827C2.33493 251.59 6.46189 255.881 7.53341 260.421C8.62654 265.052 12.0697 269.081 14.7053 273.03C16.3657 275.518 17.8024 277.859 19.1257 280.556C19.8284 281.988 20.9847 282.691 22.2003 283.68C25.699 286.525 28.9269 290.097 32.1624 293.247C34.547 295.57 36.6765 298.166 38.6982 300.807C40.8732 303.649 43.7732 306.188 45.52 309.299C48.8907 315.303 53.6467 320.132 56.8943 326.109C58.7261 329.481 66.1075 334.067 69.8406 334.427C74.5883 334.886 79.7326 337.852 83.9757 339.931C89.2309 342.506 97.5655 352.927 104.237 349.979C105.992 349.204 108.423 350.587 110.585 349.91C114.401 348.716 116.897 347.849 115.079 344.145C112.894 339.692 110.01 335.61 110.251 330.814C110.324 329.378 109.531 326.852 110.404 326.063C111.087 325.446 110.901 321.428 110.976 320.421C111.117 318.546 112.095 316.432 112.479 314.579C113.09 311.627 111.547 308.516 112.317 305.522C113.199 302.094 111.405 298.441 109.114 296.112C103.31 290.216 97.4801 284.343 91.8636 278.325C86.7151 272.808 81.0666 266.786 74.2336 263.254C69.8477 260.987 66.126 258.843 61.3041 257.501C58.1062 256.612 54.6158 254.74 51.3323 254.373C49.0701 254.12 46.8262 254.444 44.4889 254.042C40.5922 253.37 30.1174 252.682 28.1681 248.709C27.0475 246.425 30.2485 245.379 32.2663 245.54C36.9484 245.913 41.537 249.27 46.4632 247.068C50.8981 245.085 54.3553 241.651 58.7617 239.489C63.1252 237.348 68.3711 235.679 71.5424 231.846C74.9648 227.709 79.8968 224.408 82.8385 219.955C83.8608 218.407 85.7049 217.286 87.1304 216.133C88.9591 214.654 89.8688 212.315 91.8097 211.006C96.5281 207.823 100.605 206.232 104.804 202.228C107.341 199.809 110.544 198.103 113.208 195.788C115.031 194.205 115.721 193.317 112.997 193.962C105.522 195.73 97.6461 196.538 90.0796 197.442C81.9255 198.417 72.8381 193.629 64.9576 196.342C61.411 197.563 56.8723 197.877 53.0268 197.95C48.7581 198.03 45.3997 199.631 41.6844 201.542C37.9363 203.469 34.6105 206.533 30.4787 207.769C26.5483 208.945 22.7651 210.052 18.9432 211.928C15.2825 213.724 11.7583 215.115 9.09534 218.304C6.18392 221.79 14.6107 211.074 17.0832 207.264C19.5739 203.425 22.3325 200.155 24.7956 196.273C26.9329 192.905 26.8362 188.559 28.5193 185.009C30.4506 180.936 31.5528 177.089 32.6971 172.751C33.6839 169.009 34.721 164.678 36.1483 161.106C37.2541 158.338 39.2101 155.218 39.3402 152.162C39.4768 148.949 42.3258 145.285 43.8109 142.333C44.8325 140.302 45.2962 138.497 45.7793 136.219C46.2324 134.083 49.0552 117.973 43.4333 119.655C39.2911 120.894 36.1394 124.866 34.0679 128.411C31.4107 132.959 28.7687 137.466 26.0302 141.706C23.5012 145.621 21.9402 149.981 18.9823 153.614C17.5236 155.406 17.5022 157.545 15.61 158.786C12.8643 160.588 9.47648 163.999 8.14002 167.041C6.70649 170.304 3.02019 172.691 1.69729 175.993C1.08308 177.526 -0.245314 178.82 -1.1865 180.153C-1.82509 181.058 -1.34412 182.471 -1.50206 183.525C-2.44454 189.819 -3.77291 196.063 -4.55592 202.439C-5.15524 207.319 -5.14581 211.336 -4.3416 216.318Z" fill="#FCBC5A"></path><g clip-path="url(#clip1_183_1232)"><path d="M14.5861 242.953C17.4088 245.437 21.6965 247.674 25.3895 248.444C26.0798 248.589 27.2107 248.665 27.898 248.565C28.6588 248.459 29.5538 248.777 30.245 248.332C30.783 247.988 31.316 246.933 31.6501 246.404C32.3871 245.245 33.0572 243.828 32.9648 242.418C32.7939 239.851 31.913 237.509 31.3933 235.025C31.2187 234.203 31.1945 233.361 31.0654 232.531C30.8509 231.139 30.3527 229.784 30.3503 228.375C30.3443 226.564 31.0915 224.801 30.604 222.999C30.02 220.84 28.524 219.024 26.7369 217.726C24.368 216.01 23.9139 212.81 21.4552 211.093C19.4151 209.669 17.5325 208.038 15.5262 206.573C13.3967 205.016 11.3103 203.405 9.2643 201.739C17.0241 201.59 25.0296 201.385 32.0978 198.182C35.0282 196.854 37.8005 194.96 39.5505 192.263C41.9189 188.62 42.152 184.041 42.3098 179.702C42.3265 179.293 42.3383 178.872 42.1929 178.488C41.8092 177.475 40.5178 177.155 39.4404 177.243C37.6251 177.391 35.9558 178.244 34.2502 178.886C30.8076 180.176 27.0737 180.625 23.713 182.118C20.384 183.598 17.5803 186.036 14.4781 187.945C12.8373 188.957 11.0484 189.872 9.92377 191.438C8.91732 192.839 8.5699 194.595 8.27146 196.293C8.08665 197.355 7.93684 198.481 8.14806 199.549C8.32669 200.436 9.324 201.234 8.88852 201.93C8.1717 203.082 6.58934 203.69 5.92246 204.894C5.3933 205.851 5.71299 207.02 5.66782 208.054C5.60538 209.425 5.50559 210.807 5.37857 212.177C5.22727 213.82 4.94115 215.254 5.69289 216.809C6.55813 218.596 6.29539 221.421 6.13024 223.35C5.95365 225.447 5.61764 227.573 6.0435 229.66C6.47751 231.792 7.66173 233.685 8.82737 235.521C10.5185 238.187 12.2305 240.878 14.5861 242.953Z" fill="#FCBC5A"></path><path d="M26.6418 204.721C26.1759 204.791 25.7033 204.835 25.2816 205.04C23.8417 205.745 24.7328 207.441 25.613 208.184C26.4481 208.886 27.4939 209.468 27.6836 210.645C27.7969 211.336 27.6043 212.057 27.7519 212.739C27.9484 213.652 28.7119 214.333 29.5238 214.798C31.286 215.802 33.1345 216.694 34.9345 217.638C37.6628 219.073 39.8818 219.356 42.9393 218.971C44.5871 218.764 46.235 218.557 47.8521 218.182C48.8236 217.955 49.7938 217.665 50.7894 217.58C51.4908 217.521 52.2022 217.563 52.8903 217.409C54.3241 217.084 55.1622 215.678 54.1383 214.445C53.1665 213.272 51.702 212.645 50.6446 211.573C48.4434 209.336 46.7059 206.484 43.8767 205.127C40.6257 203.565 36.7889 204.367 33.1991 204.023C32.1627 203.922 31.1523 203.688 30.1099 203.84C28.9795 204.006 27.9217 204.509 26.7923 204.7C26.7471 204.703 26.693 204.713 26.6418 204.721Z" fill="#FCBC5A"></path></g><path fill-rule="evenodd" clip-rule="evenodd" d="M35.5979 239.224C35.9762 238.821 36.4269 238.504 36.9654 238.301C37.9981 237.91 38.8941 236.682 39.8349 235.392C41.1783 233.55 42.6131 231.583 44.668 231.751C45.1134 231.787 44.4641 235.354 44.2328 236.624L44.2328 236.624C44.1976 236.817 44.1721 236.958 44.1616 237.024C43.7876 239.39 43.1986 241.031 42.1887 242.71C42.7203 242.736 43.2358 242.867 43.7258 243.129C44.6997 243.649 46.2142 243.514 47.8045 243.373C50.0752 243.171 52.5004 242.955 53.7274 244.612C53.9933 244.971 50.8816 246.831 49.7733 247.494C49.6047 247.595 49.4824 247.668 49.4255 247.704C47.1117 249.161 45.3252 249.785 43.008 250.094C43.4276 250.453 43.7646 250.889 43.9926 251.418C44.4299 252.432 45.6979 253.271 47.0294 254.151C48.9306 255.409 50.9612 256.753 50.8875 258.813C50.8715 259.26 47.2789 258.774 45.9993 258.601L45.9987 258.601L45.9983 258.601C45.8041 258.575 45.6633 258.556 45.5966 258.548C43.2682 258.288 41.6239 257.792 39.9401 256.898C39.8952 257.466 39.7345 258.01 39.4265 258.517C38.8531 259.46 38.9032 260.98 38.9559 262.575C39.0311 264.854 39.1115 267.287 37.3888 268.42C37.0154 268.666 35.3314 265.455 34.7316 264.312C34.6403 264.138 34.5741 264.012 34.5415 263.953C33.2152 261.562 32.6918 259.743 32.5123 257.412C32.13 257.811 31.676 258.123 31.1354 258.322C30.0988 258.702 29.1906 259.921 28.2369 261.202C26.8752 263.03 25.4208 264.983 23.3676 264.794C22.9226 264.753 23.6076 261.193 23.8516 259.925C23.8887 259.732 23.9156 259.593 23.9268 259.526C24.3245 257.164 24.9298 255.53 25.9564 253.86C25.4252 253.829 24.9111 253.693 24.4237 253.426C23.455 252.896 21.9393 253.016 20.3477 253.141C18.0751 253.321 15.6478 253.512 14.4375 251.843C14.1751 251.481 17.3053 249.652 18.4202 249.001C18.5898 248.902 18.7128 248.83 18.7701 248.795C21.0982 247.36 22.8909 246.755 25.2109 246.469C24.7951 246.105 24.4625 245.666 24.2399 245.135C23.8128 244.117 22.5532 243.265 21.2306 242.371C19.3421 241.094 17.325 239.731 17.4194 237.671C17.4398 237.225 21.0274 237.746 22.3052 237.932C22.4996 237.96 22.6406 237.981 22.7074 237.989C24.9623 238.263 26.5719 238.754 28.1942 239.614C28.2533 239.117 28.4056 238.639 28.673 238.189C29.237 237.24 29.1716 235.721 29.103 234.126C29.005 231.848 28.9003 229.415 30.6115 228.265C30.9824 228.016 32.6985 231.21 33.3097 232.347L33.3098 232.347C33.4028 232.52 33.4702 232.646 33.5034 232.704C34.8535 235.082 35.395 236.895 35.5979 239.224Z" fill="#00577C"></path><defs><clipPath id="clip0_183_1232"><rect width="309.54" height="251.057" fill="white" transform="translate(-148.406 138.685) rotate(-14.7425)"></rect></clipPath><clipPath id="clip1_183_1232"><rect width="63.4562" height="56.4055" fill="white" transform="translate(71.7156 212.135) rotate(138.868)"></rect></clipPath></defs></svg>