<?xml version="1.0" encoding="UTF-8"?>
<svg xmlns="http://www.w3.org/2000/svg" width="324" height="516" viewBox="0 0 324 516" fill="none">
  <g clip-path="url(#clip0_111_74)">
    <path d="M436.576 360.764C442.509 384.185 442.243 410.009 431.105 431.449C419.966 452.894 396.528 468.726 372.486 466.503C356.099 464.988 340.72 455.053 332.596 440.732C320.675 419.717 323.933 391.245 307.664 373.388C298.9 363.766 285.096 359.019 272.268 361.213C259.441 363.406 247.994 372.477 242.917 384.47C240.279 390.703 239.282 397.56 236.402 403.682C227.159 423.35 202.325 429.441 180.646 430.719C162.938 431.762 144.274 430.936 128.941 422.01C113.613 413.085 103.028 393.898 109.025 377.194C112.741 366.848 121.735 359.463 130.336 352.62C137.451 346.955 144.57 341.291 151.684 335.631C153.65 334.066 155.689 332.406 156.661 330.089C158.837 324.922 154.848 319.312 150.758 315.481C121.711 288.264 75.0632 282.289 52.6313 249.395C49.4746 244.764 46.8541 239.473 46.8962 233.867C46.9475 226.813 51.1718 220.489 55.8078 215.176C85.898 180.692 142.068 172.819 180.449 197.704C189.224 203.392 199.226 210.894 209.022 207.226C216.143 204.555 220.057 196.473 220.156 188.867C220.256 181.261 217.325 173.977 214.392 166.961C207.119 149.583 199.447 132.046 197.095 113.351C194.744 94.6556 198.498 74.227 211.521 60.6154C224.912 46.6122 245.558 42.1757 264.921 42.0742C286.757 41.9618 310.602 47.7353 323.56 65.3264C333.15 78.3469 335.026 95.6457 333.218 111.723C331.41 127.801 326.308 143.308 323.217 159.188C322.562 162.565 322.023 166.198 323.448 169.326C324.885 172.486 328.036 174.474 331.122 176.064C350.447 186.022 374.1 187.178 394.311 179.145C406.939 174.125 417.978 165.855 429.988 159.49C458.909 144.164 493.747 140.405 525.259 149.213C539.365 153.155 553.491 160.113 561.39 172.456C571.174 187.738 569.216 208.08 562.076 224.778C543.676 267.807 496.49 291.835 450.418 299.828C438.199 301.947 411.009 292.129 415.108 309.337C419.248 326.719 432.022 342.782 436.576 360.764Z" stroke="#00577C" stroke-width="2" stroke-miterlimit="10"></path>
    <path d="M209.637 32.1926C231.969 32.4817 253.775 43.6189 250.375 70.3019C246.976 96.9849 243.788 106.719 223.484 119.178C203.181 131.636 193.642 96.274 189.818 72.2537C185.994 48.2335 187.304 31.9036 209.637 32.1926Z" fill="#FFFAF4"></path>
  </g>
  <path d="M299.835 249.231C260.769 235.526 229.04 203.073 250.78 158.202C272.521 113.33 283.874 98.1123 326.908 88.2208C369.941 78.3294 365.805 146.096 358.329 190.558C350.853 235.019 338.902 262.936 299.835 249.231Z" fill="#FFFAF4"></path>
  <path d="M346.259 292.785C347.951 287.624 350.199 283.989 353.884 280.227C355.427 277.29 354.219 271.942 355.249 266.457C356.051 262.189 358.901 258.743 358.995 254.264C359.063 250.957 358.328 246.158 359.798 243.09C363.197 235.997 360.396 226.576 362.265 219.106C364.172 211.485 362.175 202.968 361.303 195.179C360.753 190.272 360.42 185.751 360.523 180.792C360.578 178.16 359.415 176.252 358.381 173.881C355.407 167.056 353.379 159.373 351.022 152.3C349.284 147.087 348.129 141.666 347.166 136.26C346.13 130.444 343.8 124.523 343.596 118.637C343.203 107.277 339.888 96.5909 339.654 85.3641C339.523 79.0317 332.173 66.712 326.971 63.3545C320.356 59.0846 315.06 50.8352 310.412 44.5708C304.657 36.8123 300.331 15.2131 288.312 14.481C285.152 14.2885 282.634 10.418 278.951 9.77179C272.45 8.63119 268.132 8.0118 267.99 14.8213C267.82 23.0076 268.957 31.1794 264.968 38.0301C263.774 40.0811 263.022 44.3857 261.144 44.8812C259.675 45.2687 256.903 51.3035 256.029 52.7228C254.402 55.3658 251.366 57.7247 249.399 60.1514C246.266 64.0175 246.171 69.7489 242.772 73.5569C238.882 77.9164 238.743 84.6319 240.34 89.7838C244.382 102.83 248.482 115.86 252.158 128.943C255.528 140.935 259.249 154.047 266.593 164.405C271.307 171.054 275.14 177.018 281.195 182.639C285.211 186.367 288.911 191.758 293.449 194.785C296.575 196.87 300.111 198.094 303.234 200.456C308.44 204.394 323.28 213.341 323.128 220.645C323.041 224.843 317.554 223.951 314.716 222.187C308.133 218.091 303.947 209.691 295.053 209.188C287.047 208.735 279.375 211.151 271.274 210.982C263.252 210.815 254.294 209.288 246.738 212.507C238.584 215.98 228.85 217.083 221.161 221.385C218.489 222.88 214.934 223.127 211.97 223.737C208.168 224.52 205.061 227.261 201.223 227.71C191.891 228.802 184.705 228.046 175.513 230.736C169.96 232.361 163.97 232.436 158.309 233.812C154.436 234.753 152.75 235.531 157.234 236.651C169.536 239.722 181.699 244.506 193.481 248.913C206.178 253.663 215.877 267.571 229.49 269.564C235.617 270.461 242.511 273.441 248.205 276.248C254.527 279.365 260.665 279.563 267.562 279.576C274.519 279.589 281.718 277.617 288.715 278.935C295.37 280.189 301.757 281.431 308.783 281.578C315.513 281.718 321.736 282.348 328.058 279.69C334.969 276.784 314.491 286.112 307.977 289.827C301.415 293.569 294.892 296.274 288.338 300.1C282.651 303.421 279.499 309.867 274.341 313.798C268.422 318.308 263.89 323.114 258.924 328.61C254.641 333.349 249.838 338.915 245.038 343.073C241.319 346.293 236.086 349.387 233.579 353.771C230.944 358.378 223.989 361.593 219.574 364.797C216.537 367.001 214.489 369.298 212.055 372.271C209.771 375.06 193.423 396.548 202.942 398.341C209.956 399.663 217.588 396.227 223.313 392.598C230.656 387.942 237.946 383.333 245.175 379.191C251.851 375.366 257.445 370.154 264.536 367.068C268.033 365.546 269.685 362.425 273.401 362.038C278.793 361.477 286.346 359.041 290.611 355.593C295.186 351.894 302.401 351.187 306.844 347.347C308.907 345.564 311.835 344.673 314.226 343.431C315.848 342.588 316.213 340.152 317.244 338.725C323.395 330.209 330.076 322.058 336.056 313.301C340.633 306.598 343.663 300.701 346.259 292.785Z" fill="#FCBC5A"></path>
  <g clip-path="url(#clip1_111_74)">
    <path d="M338.685 239.378C336.428 233.597 331.834 227.068 327.002 223.139C326.1 222.403 324.499 221.435 323.415 221.061C322.218 220.64 321.147 219.495 319.796 219.624C318.747 219.72 317.165 220.864 316.275 221.386C314.315 222.528 312.258 224.099 311.326 226.236C309.631 230.13 309.148 234.233 308.028 238.269C307.661 239.607 307.059 240.86 306.619 242.175C305.879 244.379 305.582 246.744 304.518 248.812C303.155 251.472 300.723 253.492 300.072 256.504C299.293 260.113 300.111 263.909 301.748 267.167C303.921 271.48 302.163 276.516 304.467 280.897C306.379 284.533 307.905 288.351 309.737 292.019C311.68 295.917 313.519 299.86 315.257 303.855C303.764 298.192 291.868 292.426 279.075 291.768C273.771 291.494 268.27 292.171 263.659 294.801C257.426 298.348 253.614 304.886 250.094 311.13C249.76 311.718 249.423 312.326 249.346 312.999C249.141 314.775 250.792 316.223 252.439 316.911C255.214 318.069 258.308 318.084 261.295 318.435C267.322 319.152 273.138 321.322 279.198 321.681C285.202 322.032 291.161 320.581 297.158 320.132C300.331 319.892 303.647 319.906 306.484 318.461C309.021 317.17 310.862 314.858 312.586 312.594C313.662 311.177 314.735 309.639 315.235 307.912C315.644 306.476 314.786 304.55 315.953 303.859C317.877 302.712 320.659 303.02 322.549 301.76C324.05 300.757 324.467 298.801 325.317 297.318C326.447 295.355 327.641 293.404 328.865 291.492C330.332 289.197 331.839 287.31 331.915 284.46C332 281.183 334.526 277.239 336.23 274.535C338.079 271.594 340.182 268.731 341.139 265.348C342.118 261.892 341.816 258.218 341.498 254.643C341.038 249.451 340.567 244.208 338.685 239.378Z" fill="#FCBC5A"></path>
    <path d="M292.032 286.312C292.768 286.562 293.495 286.856 294.268 286.875C296.914 286.932 296.893 283.769 296.165 282.014C295.472 280.35 294.38 278.704 294.993 276.835C295.351 275.736 296.179 274.824 296.48 273.712C296.883 272.224 296.28 270.647 295.441 269.35C293.618 266.542 291.583 263.834 289.659 261.084C286.745 256.913 283.705 254.815 278.929 253.063C276.356 252.118 273.782 251.173 271.126 250.498C269.529 250.095 267.887 249.784 266.363 249.154C265.289 248.71 264.278 248.109 263.152 247.813C260.803 247.204 258.508 248.63 259.076 251.214C259.612 253.671 261.285 255.7 262.023 258.073C263.556 263.022 263.943 268.522 267.064 272.656C270.647 277.411 276.882 279.141 281.886 282.367C283.329 283.3 284.634 284.409 286.278 284.975C288.062 285.589 289.994 285.653 291.795 286.228C291.864 286.259 291.951 286.285 292.032 286.312Z" fill="#FCBC5A"></path>
  </g>
  <path fill-rule="evenodd" clip-rule="evenodd" d="M305.044 228.925C304.184 229.229 303.283 229.352 302.339 229.243C300.528 229.033 298.283 230.155 295.926 231.334C292.56 233.017 288.965 234.814 286.079 233.011C285.453 232.62 289.108 227.882 290.41 226.194L290.41 226.193L290.411 226.193L290.411 226.193C290.609 225.936 290.752 225.751 290.818 225.661C293.159 222.475 295.266 220.515 298.02 218.818C297.26 218.376 296.603 217.794 296.083 217.039C295.049 215.538 292.726 214.588 290.286 213.59C286.803 212.166 283.083 210.644 282.539 207.284C282.421 206.556 288.395 206.186 290.522 206.054C290.846 206.034 291.08 206.02 291.191 206.01C295.689 205.626 298.781 206.065 302.414 207.368C302.071 206.523 301.907 205.628 301.973 204.68C302.1 202.862 300.876 200.671 299.591 198.37C297.756 195.084 295.796 191.575 297.466 188.609C297.828 187.967 302.728 191.402 304.474 192.625C304.739 192.811 304.932 192.946 305.024 193.008C308.242 195.153 310.277 197.128 312.069 199.715C312.566 198.916 313.214 198.24 314.049 197.73C315.605 196.781 316.683 194.514 317.815 192.134C319.432 188.736 321.158 185.106 324.543 184.75C325.277 184.673 325.313 190.657 325.326 192.789C325.328 193.113 325.33 193.348 325.333 193.459C325.466 197.971 324.856 201.035 323.353 204.589C324.216 204.294 325.118 204.18 326.061 204.299C327.869 204.527 330.125 203.427 332.494 202.272C335.877 200.622 339.489 198.861 342.358 200.693C342.98 201.09 339.277 205.792 337.958 207.467L337.958 207.467L337.958 207.467C337.758 207.722 337.612 207.906 337.546 207.995C335.172 211.158 333.046 213.096 330.275 214.766C331.03 215.215 331.681 215.804 332.194 216.564C333.213 218.075 335.527 219.049 337.956 220.071C341.425 221.53 345.129 223.089 345.639 226.454C345.75 227.183 339.774 227.493 337.645 227.604L337.645 227.604C337.321 227.621 337.086 227.633 336.975 227.641C332.474 227.98 329.386 227.51 325.767 226.171C326.101 227.02 326.256 227.916 326.181 228.863C326.035 230.68 327.237 232.883 328.499 235.197C330.301 238.501 332.226 242.029 330.527 244.978C330.159 245.617 325.293 242.133 323.559 240.893L323.559 240.892C323.296 240.704 323.105 240.567 323.013 240.504C319.914 238.393 317.925 236.454 316.197 233.964C315.734 234.648 315.149 235.233 314.415 235.691C312.869 236.655 311.814 238.933 310.705 241.324C309.123 244.738 307.433 248.385 304.052 248.775C303.319 248.859 303.223 242.876 303.188 240.744C303.183 240.42 303.179 240.185 303.175 240.074C302.997 235.564 303.577 232.494 305.044 228.925Z" fill="#00577C"></path>
  <defs>
    <clipPath id="clip0_111_74">
      <rect width="510.98" height="414.438" fill="white" transform="translate(498.705 515.811) rotate(-167.416)"></rect>
    </clipPath>
    <clipPath id="clip1_111_74">
      <rect width="104.752" height="93.1127" fill="white" transform="translate(231.547 241.281) rotate(-13.805)"></rect>
    </clipPath>
  </defs>
</svg>
