<?xml version="1.0" encoding="UTF-8"?>
<!-- Generator: Adobe Illustrator 26.5.2, SVG Export Plug-In . SVG Version: 6.00 Build 0)  -->
<svg xmlns="http://www.w3.org/2000/svg" xmlns:xlink="http://www.w3.org/1999/xlink" version="1.1" id="Layer_1" x="0px" y="0px" viewBox="0 0 1440 494.1" style="enable-background:new 0 0 1440 494.1;" xml:space="preserve">
<style type="text/css">
	.st0{fill-rule:evenodd;clip-rule:evenodd;fill:#00577C;}
	.st1{fill:none;stroke:#363737;stroke-width:3;stroke-dasharray:40,40;}
	.st2{fill:none;}
	.st3{clip-path:url(#SVGID_00000084516263751966216000000007087970728417064118_);}
	.st4{fill-rule:evenodd;clip-rule:evenodd;fill:#D1D3D5;}
	.st5{fill-rule:evenodd;clip-rule:evenodd;fill:#949598;}
	.st6{fill-rule:evenodd;clip-rule:evenodd;}
	.st7{fill-rule:evenodd;clip-rule:evenodd;fill:#0997CE;}
	.st8{fill-rule:evenodd;clip-rule:evenodd;fill:#4C4D4C;}
	.st9{fill-rule:evenodd;clip-rule:evenodd;fill:#323232;}
	.st10{fill-rule:evenodd;clip-rule:evenodd;fill:#00FFFF;}
	.st11{fill-rule:evenodd;clip-rule:evenodd;fill:#F3F3F5;}
	.st12{fill-rule:evenodd;clip-rule:evenodd;fill:#707071;}
	.st13{fill-rule:evenodd;clip-rule:evenodd;fill:#4EB3DB;}
	.st14{fill-rule:evenodd;clip-rule:evenodd;fill:#808080;}
	.st15{fill-rule:evenodd;clip-rule:evenodd;fill:#FFFFFF;}
	.st16{fill-rule:evenodd;clip-rule:evenodd;fill:#E6E6E6;}
	.st17{clip-path:url(#SVGID_00000034791323194921987280000017379295600773246118_);}
	.st18{fill-rule:evenodd;clip-rule:evenodd;fill:#FCBC5A;}
</style>
<path class="st0" d="M-40,616h1508.2c12.2-230.5,18-564.9-13.5-564.9c-15.2,0-52.3-3.3-105.2-8c-130.2-11.6-355.8-31.6-583.4-31.6  c-223.8,0-443.6,23.4-588.9,38.8l0,0c-62.5,6.6-111.1,11.8-140.4,13c-8.4,0.3-17.4,0.8-27.1,1.2h0C-5.1,65.2-21.6,66-40,66.7V616z"></path>
<path class="st1" d="M1505.6,88.4c-122.3,29.3-429.6,78.9-680.2,42.2C512.3,84.7,225.2-38.2-67.6,36"></path>
<rect x="837.3" y="-29.4" class="st2" width="288" height="188"></rect>
<g id="Layer_1-2">
	<g>
		<defs>
			<rect id="SVGID_1_" x="878" y="12.5" width="204.7" height="131.5"></rect>
		</defs>
		<clipPath id="SVGID_00000100344798400836390490000013801649338496843424_">
			<use xlink:href="#SVGID_1_" style="overflow:visible;"></use>
		</clipPath>
		<g style="clip-path:url(#SVGID_00000100344798400836390490000013801649338496843424_);">
			<path class="st4" d="M1072.7,100.4c-3.2,0.3-7,0.6-10.4,1.5c-7.1,1.9-5.7,2.9-17.8,12.4c-4.5,3.5-8.2,4.2-11,3.7     c0,0.1,0,0.2,0,0.3c0,13.1,10.6,23.7,23.7,23.7s23.7-10.6,23.7-23.7C1080.9,111.2,1077.7,104.8,1072.7,100.4"></path>
			<path class="st5" d="M1048.8,125.9c-2.8,0.4-5.6,0.2-7.6-0.9c-1.8-1-4.2-1.2-6.7-1.1c-0.3-1.6-0.5-3.3-0.5-5v-0.3     c2.9,0.5,6.6-0.2,11-3.7c12.1-9.5,10.8-10.5,17.8-12.4c3.4-0.9,7.2-1.3,10.4-1.5c3.3,2.8,5.7,6.5,7.1,10.8     c-1.9,0.8-4.6,0.7-6.9,0.7s-4.4,1.1-6.4,2.1c-0.5-1.1-0.8-2.5-1.6-3.3c-2-2-4.8-3.3-7.9-3.3s-5.8,1.2-7.9,3.3     c-2,2-3.3,4.8-3.3,7.9C1046.4,121.7,1047.3,124,1048.8,125.9"></path>
			<path class="st6" d="M1077.1,109.3c1.3,2.8,2,5.8,2,9.1c0,6.1-2.5,11.5-6.4,15.5c-4,4-9.4,6.4-15.5,6.4c-6.1,0-11.5-2.5-15.5-6.4     c-3.6-3.6-6-8.5-6.4-13.9c1.1,0,2.3-0.2,3.6-0.6c2-0.6,4.3-1.8,6.7-3.7c4-3.2,6.6-5.5,8.5-7.1c3.4-3,4.3-3.8,8.6-5     c1.6-0.4,3.4-0.7,5.1-1c1.4-0.2,2.9-0.3,4.3-0.4C1074.2,104.3,1075.9,106.6,1077.1,109.3 M1074,99.2c-0.4-0.4-0.9-0.6-1.4-0.5     c-1.6,0.1-3.3,0.3-5.2,0.5c-1.9,0.2-3.8,0.6-5.5,1c-5.1,1.4-6.1,2.3-10.1,5.7c-1.8,1.6-4.3,3.8-8.4,7c-2,1.6-3.9,2.6-5.5,3.1     c-1.5,0.5-2.9,0.5-4.1,0.3v0c-0.1,0-0.2,0-0.3,0c-1,0-1.8,0.8-1.8,1.8l0,0.3c0,7.1,2.9,13.4,7.5,18.1c4.6,4.6,11,7.5,18.1,7.5     s13.4-2.9,18.1-7.5c4.6-4.6,7.5-11,7.5-18.1c0-3.8-0.8-7.4-2.3-10.6C1078.9,104.5,1076.7,101.5,1074,99.2L1074,99.2z"></path>
			<path class="st7" d="M1026,112.9c0,0-6.2,5.8-9,6.6s-38.4,0.1-52.2,0.1c-13.7,0-12.3-6.2-12.3-6.2s-57.7-0.1-63.8-0.1     s-5-4.2-5-4.2l-3.9-2.1c0-11.2,6.8-24.5,13.9-29c7.2-4.6,12.5-12.5,12.5-12.5s-0.8-4,2.3-10.5c3-6.5,33.9-4.3,48.6-4.3     c14.6,0,23,1.6,23,13.8s-13.5,12.4-13.5,27.7s11.8,20.2,33.5,20.2s21.5-9.4,23.8-15.9c2.3-6.5,4.8-20.2,3.9-26.6     c-0.9-6.4-9.5-31.4-10.3-32.2c-0.5-0.5-2.3-4.2-3.5-8.8c-2.2,0.6-4.1,1-4.4,0.9c-0.6-0.2-1.6-2.5-1.7-5.6c0,0,2.5-1.3,5.2-2.3     v-0.2c0-7.4,14.7-6.2,14.7-6.2s6.5-0.8,6.5,7.1s-2.2,7.2-6.1,8.3s-2.3,5.2-2.3,5.2s6.5,30.4,15.7,35.8s7.6,11.4,7.6,11.4     s9.9-1.8,21.1,2.8s11.1,11.7,9.6,13.2c-1.5,1.5-10.2,0.9-17.2,2.8c-7.1,1.9-5.7,2.9-17.8,12.4S1026,112.9,1026,112.9"></path>
			<path class="st6" d="M1045.6,115.8c4-3.2,6.6-5.5,8.5-7.1c3.4-3,4.3-3.8,8.6-5c3.3-0.9,7.1-1.2,10.2-1.5c3.7-0.3,6.6-0.6,7.9-1.8     c0.3-0.3,0.6-0.8,0.8-1.3l0-0.1c0.4-1.1,0.6-2.7,0.1-4.4c-0.5-1.7-1.5-3.5-3.3-5.4c-1.7-1.7-4.3-3.5-7.8-4.9     c-8.5-3.5-16.3-3.5-19.9-3.2c-0.3-2.7-1.9-7.1-8.5-10.9l0,0c-8.5-4.9-14.8-34.5-14.8-34.6c0-0.1,0-0.2-0.1-0.3     c0,0-0.9-2.3,1.1-2.9c0.5-0.1,0.9-0.2,1.3-0.3c4-0.9,6.2-1.4,6.2-9.7c0-9-7-8.9-8.3-8.9c-1.5-0.1-15.3-0.9-16.4,7     c-2.3,1-4.3,2-4.3,2c-0.7,0.3-1,1-1,1.7c0.1,1.6,0.4,2.9,0.7,4c0.5,1.7,1.4,2.9,2.2,3.2c0.5,0.2,1.4,0.2,2.5-0.1     c0.4-0.1,0.8-0.2,1.3-0.3c0.4,1.3,0.8,2.5,1.2,3.6c0.9,2.2,1.8,3.9,2.3,4.3l0,0c0.4,0.6,3.2,8.8,5.8,16.9     c1.9,5.9,3.5,11.6,3.9,14.2c0.4,2.7,0.1,7-0.6,11.4c-0.8,5.4-2.1,10.9-3.3,14.4c-0.2,0.7-0.5,1.6-0.7,2.4     c-1.6,5.6-3.5,12.2-21.3,12.2c-10.5,0-18.6-1.1-24-4.1c-5-2.8-7.7-7.3-7.7-14.3c0-7.4,3.5-11,6.8-14.4c3.4-3.5,6.7-6.9,6.7-13.3     c0-6.9-2.4-10.8-7-13.1c-4.2-2.1-10.2-2.5-17.8-2.5c-3,0-6.2-0.1-9.6-0.2c-16.1-0.4-37.7-0.9-40.6,5.5c-2.5,5.3-2.6,9.2-2.5,10.8     c-1.3,1.8-5.8,7.7-11.6,11.4c-3.9,2.5-7.7,7.4-10.4,13.1c-2.6,5.5-4.3,11.7-4.3,17.5c0,0.7,0.4,1.4,1.1,1.7l2.8,1.5     c0,1.9,1,5,6.8,5c7.1,0,52.8,0.1,62.1,0.1c0.6,2.5,3.3,6.2,14,6.2c4.7,0,10.1,0,15.9,0.1c15.6,0.1,34.4,0.3,36.7-0.3     c2.3-0.6,6.2-3.8,8.3-5.7C1028.4,118.6,1035.2,123.9,1045.6,115.8 M1027.6,112c-0.1-0.1-0.2-0.2-0.2-0.3     c-0.7-0.7-1.8-0.8-2.5-0.1c0,0-5.8,5.5-8.2,6.2c-1.8,0.5-20.3,0.3-35.7,0.2c-6.7-0.1-12.8-0.1-16-0.1c-11.5,0-10.5-4-10.5-4h0     c0-0.1,0-0.3,0-0.4c0-1-0.8-1.8-1.8-1.8c-0.2,0-59.5-0.1-63.8-0.1c-3.7,0-3.2-1.9-3.2-1.9c0.2-0.8-0.1-1.6-0.9-2l-3-1.6     c0.2-4.9,1.7-10.2,3.9-14.9c2.5-5.1,5.8-9.5,9.1-11.6c7.1-4.5,12.4-12.1,12.9-12.9c0.3-0.4,0.4-0.9,0.3-1.4c0,0-0.7-3.4,2.1-9.4     c2-4.3,22.2-3.8,37.3-3.4c3.7,0.1,7.2,0.2,9.7,0.2c7.1,0,12.6,0.4,16.2,2.1c3.3,1.6,5,4.5,5,9.8c0,5-2.8,7.8-5.7,10.8     c-3.8,3.9-7.9,8.1-7.9,16.9c0,8.4,3.3,14,9.6,17.4c6,3.3,14.6,4.6,25.7,4.6c20.5,0,22.8-8,24.8-14.9c0.2-0.7,0.4-1.5,0.7-2.3     c1.3-3.6,2.6-9.4,3.4-15c0.7-4.7,1-9.3,0.6-12.4c-0.4-2.8-2.1-8.7-4-14.8c-2.3-7.3-5-14.9-6.2-17.5c-0.1-0.3-0.2-0.7-0.5-0.9     c-0.2-0.2-0.7-1.3-1.5-3.1c-0.5-1.3-1.1-3-1.6-4.8h0l0,0c-0.3-1-1.3-1.5-2.2-1.3c-1,0.3-2,0.5-2.8,0.7c-0.5,0.1-0.3,0.3-0.5,0.3     c-0.1,0,0.1-0.3-0.1-0.9c-0.2-0.6-0.3-1.2-0.4-2c0.9-0.5,2.4-1.1,3.9-1.7v0c0.7-0.3,1.2-0.9,1.2-1.7l0-0.2     c0-5.5,12.7-4.4,12.8-4.4c0.1,0,0.2,0,0.3,0c0,0,4.5-0.5,4.5,5.3c0,5.4-1.2,5.7-3.3,6.2c-0.5,0.1-1,0.2-1.5,0.4     c-5.4,1.4-3.9,6.6-3.6,7.5c0.5,2.1,6.9,31.3,16.5,36.8h0c7.6,4.4,6.8,8.8,6.7,9.3c-0.1,0.3-0.1,0.5,0,0.8c0.2,1,1.1,1.6,2.1,1.5     c0,0,9.4-1.7,20.1,2.7c3.1,1.3,5.2,2.7,6.6,4.2c1.3,1.3,2.1,2.7,2.4,3.8c0.3,0.9,0.2,1.7,0.1,2.2l-0.1,0.2     c-0.3,0.3-2.7,0.5-5.6,0.8c-3.3,0.3-7.2,0.6-10.8,1.6c-5.1,1.4-6.1,2.3-10.1,5.7c-1.8,1.6-4.3,3.8-8.4,7     C1033.3,120.9,1027.9,112.6,1027.6,112L1027.6,112z"></path>
			<path class="st8" d="M906.2,65.5c0,0-0.8-4,2.3-10.5c3-6.5,33.9-4.3,48.6-4.3c14.6,0,23,1.6,23,13.8L906.2,65.5"></path>
			<path class="st9" d="M980,64.5l-73.8,1c0,0-0.4-1.9,0.4-5.3c6.3-0.6,11,0.1,13.8,0.8c4.1,1.1,10.1,1,13.9,0     c3.8-1,14.1-2.5,18.7-1.2c4.6,1.2,10.9,0.4,15.6-0.8c2-0.5,6.1-0.8,10.2-0.9C979.7,59.7,980,61.9,980,64.5"></path>
			<path class="st6" d="M980.1,66.3c1,0,1.8-0.8,1.8-1.8h0c0-6.9-2.4-10.8-7-13.1c-4.2-2.1-10.2-2.5-17.8-2.5c-3,0-6.2-0.1-9.6-0.2     c-16.1-0.4-37.7-0.9-40.6,5.5c-3.3,7.1-2.4,11.6-2.4,11.6c0.2,0.9,1,1.5,1.9,1.5L980.1,66.3 M907.9,63.6c0.1-1.5,0.5-4.2,2.2-7.9     c2-4.3,22.2-3.8,37.3-3.4c3.7,0.1,7.2,0.2,9.7,0.2c7.1,0,12.6,0.4,16.2,2.1c2.9,1.4,4.6,3.9,4.9,8.1L907.9,63.6L907.9,63.6z"></path>
			<path class="st4" d="M945.4,113.4c0.3,1.6,0.5,3.3,0.5,5c0,13.1-10.6,23.7-23.7,23.7s-23.7-10.6-23.7-23.7c0-1.7,0.2-3.4,0.5-5.1     C912.2,113.3,934.2,113.4,945.4,113.4"></path>
			<path class="st5" d="M932.7,118.5c0-1.1-0.2-2.2-0.5-3.2c-0.2-0.7-0.5-1.3-0.8-1.9l13.4,0c0.3,1.6,0.5,3.3,0.5,5     c0,2.4-0.4,4.7-1,6.9c-2.6-0.7-5.1-2-7.2-3.2c-1.4-0.8-2.9-1.3-4.5-1.7C932.6,119.8,932.7,119.2,932.7,118.5"></path>
			<path class="st6" d="M942.6,111.6l-43.6-0.1c-0.9,0-1.6,0.6-1.8,1.4h0c-0.2,0.9-0.3,1.8-0.4,2.7c-0.1,0.9-0.2,1.8-0.2,2.7     c0,7.1,2.9,13.4,7.5,18.1c4.6,4.6,11,7.5,18.1,7.5c7.1,0,13.4-2.9,18.1-7.5c4.6-4.6,7.5-11,7.5-18.1c0-0.9,0-1.8-0.1-2.7     c-0.1-0.9-0.2-1.8-0.4-2.7c-0.2-0.9-1-1.5-1.9-1.4L942.6,111.6 M943.9,115.2c0,0.3,0.1,0.6,0.1,0.9c0.1,0.7,0.1,1.5,0.1,2.3     c0,6.1-2.5,11.5-6.4,15.5c-4,4-9.4,6.4-15.5,6.4c-6.1,0-11.5-2.5-15.5-6.4c-4-4-6.4-9.5-6.4-15.5c0-0.8,0-1.6,0.1-2.4     c0-0.3,0.1-0.6,0.1-0.9L943.9,115.2L943.9,115.2z"></path>
			<path class="st5" d="M930,113.4l-15.5,0c-1,1.5-1.6,3.3-1.6,5.2c0,5.1,4.2,9.3,9.3,9.3c5.1,0,9.3-4.2,9.3-9.3     C931.5,116.6,930.9,114.8,930,113.4"></path>
			<path class="st6" d="M929.4,116.3c0.2,0.7,0.3,1.4,0.3,2.2c0,2.1-0.8,4-2.2,5.3c-1.4,1.4-3.2,2.2-5.3,2.2s-3.9-0.8-5.3-2.2     c-1.4-1.4-2.2-3.2-2.2-5.3c0-0.8,0.1-1.5,0.3-2.2c0.1-0.4,0.3-0.8,0.5-1.2l13.4,0C929.1,115.5,929.3,115.9,929.4,116.3      M931.5,112.4c-0.3-0.5-0.9-0.8-1.5-0.8l-15.4,0c-0.6,0-1.2,0.3-1.6,0.8c-0.6,0.9-1.1,1.9-1.4,2.9c-0.3,1-0.5,2.1-0.5,3.2     c0,3.1,1.2,5.9,3.3,7.9c2,2,4.8,3.3,7.9,3.3s5.8-1.2,7.9-3.3c2-2,3.3-4.8,3.3-7.9c0-1.1-0.2-2.2-0.5-3.2     C932.5,114.3,932.1,113.3,931.5,112.4L931.5,112.4z"></path>
			<path class="st7" d="M906.3,76.6c21.6-9.1,46.1-1.3,49.9,13.1c3.8,14.3,2.9,18.7-3.7,23.7c0,0-2.8,0-7.1,0     c-11.2,0-32.8-0.1-46.1-0.1H899c-5.1,0-8.9,0-10.3,0c-6.1,0-5-4.2-5-4.2S884.7,85.8,906.3,76.6"></path>
			<path class="st6" d="M882,108.9c-0.2,1.1-0.8,6.2,6.7,6.2v0c21.3,0,42.5,0.1,63.8,0.1c0.4,0,0.8-0.1,1.1-0.4     c3.7-2.8,5.8-5.4,6.5-9.5c0.6-3.8-0.1-8.7-2.1-16.1c-0.2-0.7-0.5-1.5-0.8-2.3c-2.7-6.3-9.1-11.3-17.3-13.9     c-8-2.6-17.9-3-27.6-0.4c-2.2,0.6-4.4,1.4-6.7,2.3C883.9,84.1,882.1,106.8,882,108.9 M907,78.3c2-0.9,4.1-1.6,6.2-2.1     c9-2.4,18.1-2,25.6,0.3c7.2,2.3,12.9,6.5,15.1,11.9c0.2,0.6,0.4,1.2,0.6,1.8c1.8,6.9,2.6,11.4,2,14.6c-0.5,2.8-2,4.8-4.6,6.8     c-21.1,0-42.1-0.1-63.2-0.1v0c-3.7,0-3.2-1.9-3.2-1.9c0-0.1,0.1-0.2,0.1-0.4C885.6,109.1,886.4,87,907,78.3L907,78.3z"></path>
			<path class="st7" d="M1039.5,91.9c6.6-3.8,9.3-8.7,9.3-8.7s9.9-1.8,21.1,2.8c11.2,4.6,11.1,11.7,9.6,13.2c-0.8,0.8-3.5,1-6.8,1.3     c-3.2,0.3-7,0.6-10.4,1.5c-7.1,1.9-5.7,2.9-17.8,12.4c-4.5,3.5-8.2,4.2-11,3.7c-4.9-0.8-7.4-5.2-7.4-5.2S1033,95.7,1039.5,91.9"></path>
			<path class="st6" d="M1024.3,112.2c-0.2,0.5-0.2,1.1,0.1,1.6l0,0c0.3,0.5,3.2,5.1,8.7,6c1.8,0.3,3.9,0.2,6.2-0.6     c1.9-0.6,4-1.8,6.2-3.5c4-3.2,6.6-5.5,8.5-7.1c3.4-3,4.3-3.8,8.6-5c1.6-0.4,3.4-0.7,5.1-1c1.6-0.2,3.4-0.4,5-0.5c0,0,0.1,0,0.1,0     c3.7-0.3,6.6-0.6,7.8-1.8h0c0.3-0.3,0.6-0.8,0.8-1.3l0-0.1c0.4-1.1,0.6-2.7,0.1-4.4c-0.5-1.7-1.5-3.5-3.3-5.4     c-1.7-1.7-4.3-3.5-7.8-4.9c-11.6-4.8-22-2.9-22.1-2.9c-0.6,0.1-1.1,0.5-1.3,1c-0.4,0.7-3,4.7-8.6,8     C1031.5,94.4,1024.4,112.2,1024.3,112.2 M1040.4,93.4c5.4-3.1,8.4-7,9.5-8.6c2.4-0.3,10.4-0.9,19.3,2.8c3.1,1.3,5.2,2.7,6.6,4.2     c1.3,1.3,2.1,2.7,2.4,3.8c0.3,0.9,0.2,1.7,0.1,2.2l-0.1,0.2c-0.3,0.3-2.6,0.5-5.6,0.8l-0.1,0c-1.6,0.1-3.3,0.3-5.2,0.5     c-1.9,0.2-3.8,0.6-5.5,1c-5.1,1.4-6.1,2.3-10.1,5.7c-1.8,1.6-4.3,3.8-8.4,7c-1.9,1.5-3.6,2.4-5.1,2.9c-1.7,0.6-3.2,0.6-4.5,0.4     c-2.9-0.5-4.9-2.5-5.7-3.6C1029.5,109.2,1035.2,96.4,1040.4,93.4L1040.4,93.4z"></path>
			<path class="st10" d="M891.3,75.9c1.7-2.6,3.7-7.3,5.7-7.3c2,0,6.8,0.2,6.8,0.2c-2.2,2.7-5.8,6.5-10,9.2c-0.3,0.2-0.6,0.4-1,0.7     C892.8,78.6,889.5,78.4,891.3,75.9"></path>
			<path class="st6" d="M893.2,76.1c0.3-0.6,0.7-1.2,1-1.8c1.1-1.9,2.3-4,2.7-4c1,0,2,0,2.9,0c-0.5,0.5-1.1,1.1-1.6,1.6     C896.7,73.5,895,74.9,893.2,76.1 M892.7,80.4c0.5,0,1-0.1,1.3-0.4l0.4-0.3l0.3-0.2c2.2-1.4,4.2-3.1,6-4.8     c1.7-1.7,3.2-3.4,4.4-4.8c0.6-0.8,0.5-1.9-0.2-2.5c-0.3-0.3-0.7-0.4-1.1-0.4c0,0-6.6-0.2-6.8-0.2c-2.5,0-4.2,3-5.8,5.8     c-0.5,0.8-0.9,1.6-1.4,2.3C886.2,80.1,892.6,80.4,892.7,80.4L892.7,80.4z"></path>
			<path class="st11" d="M1027.7,15.4c0,0,6.5-0.8,6.5,7.1s-2.2,7.2-6.1,8.3C1028,30.7,1025.8,20.7,1027.7,15.4"></path>
			<path class="st6" d="M1026.2,31.1c0.2,1,1.2,1.6,2.1,1.4l0.1,0v0c0.5-0.1,0.9-0.2,1.3-0.3c4-0.9,6.2-1.4,6.2-9.7     c0-9.9-8.5-8.8-8.5-8.8c-0.8,0.1-1.4,0.7-1.5,1.4C1024,20.8,1026.2,31.1,1026.2,31.1 M1032.3,22.4c0,5.1-1,5.6-2.9,6.1     c-0.5-2.7-1.1-7.7-0.4-11.3C1030.3,17.5,1032.3,18.6,1032.3,22.4z"></path>
			<path class="st8" d="M1007.9,25.5c0.2,1.6,0.6,2.8,1,3.5c-1.4,0.8-7.4,2.6-9.1,2c-1.6-0.6-1.7-2.3,0-3.2     C1001.5,26.8,1007.9,25.5,1007.9,25.5"></path>
			<path class="st6" d="M999,26.1c-1,0.5-1.7,1.3-2,2.1c-0.2,0.4-0.2,0.9-0.2,1.3c0,0.5,0.2,0.9,0.4,1.3c0.4,0.7,1.1,1.4,2,1.7     c1,0.4,2.9,0.2,4.7-0.2c2.3-0.5,5-1.4,5.9-1.9c0.9-0.5,1.2-1.5,0.7-2.4c-0.2-0.3-0.3-0.7-0.5-1.2c-0.1-0.5-0.3-1.1-0.4-1.7     c-0.1-1-1-1.7-2-1.5l-0.1,0C1007.5,23.7,1000.9,25.1,999,26.1 M1006.5,27.6l0.1,0.4c-1,0.3-2.2,0.7-3.4,0.9     c-1.1,0.2-2,0.4-2.5,0.4C1001.7,28.8,1004.6,28.1,1006.5,27.6L1006.5,27.6z"></path>
			<path class="st5" d="M1057.1,109.2c-5.1,0-9.3,4.2-9.3,9.3s4.2,9.3,9.3,9.3c5.1,0,9.3-4.2,9.3-9.3     C1066.4,113.4,1062.2,109.2,1057.1,109.2"></path>
			<path class="st6" d="M1062.4,113.2c1.4,1.4,2.2,3.2,2.2,5.3s-0.8,4-2.2,5.3c-1.4,1.4-3.2,2.2-5.3,2.2c-2.1,0-3.9-0.8-5.3-2.2     c-1.4-1.4-2.2-3.2-2.2-5.3s0.8-4,2.2-5.3c1.4-1.4,3.2-2.2,5.3-2.2C1059.1,111,1061,111.8,1062.4,113.2 M1049.2,110.6     c-2,2-3.3,4.8-3.3,7.9c0,3.1,1.2,5.9,3.3,7.9c2,2,4.8,3.3,7.9,3.3s5.8-1.2,7.9-3.3c2-2,3.3-4.8,3.3-7.9c0-3.1-1.2-5.9-3.3-7.9     c-2-2-4.8-3.3-7.9-3.3S1051.2,108.6,1049.2,110.6z"></path>
			<path class="st12" d="M1062.4,113.2c0.6,0.6,1.1,1.3,1.5,2.1c-2.4,1.6-4.3,3.6-5.2,5.1c-0.9,1.5-3.4,3-6.4,3.8     c-0.2-0.1-0.3-0.3-0.5-0.4c-1.4-1.4-2.2-3.2-2.2-5.3s0.8-4,2.2-5.3c1.4-1.4,3.2-2.2,5.3-2.2C1059.1,111,1061,111.8,1062.4,113.2"></path>
			<path class="st12" d="M914.7,118.5c0-0.8,0.1-1.5,0.3-2.2c0.1-0.4,0.3-0.8,0.5-1.2l13.4,0c0.2,0.4,0.3,0.8,0.5,1.2     c0.2,0.7,0.3,1.4,0.3,2.2c0,0.3,0,0.7-0.1,1c-2.5,0-5,0.4-7.4,1.1c-2.4,0.6-4.7,0.8-6.9,0.8C914.9,120.5,914.7,119.5,914.7,118.5     "></path>
			<path class="st5" d="M911.1,118.5c0,0.8,0.1,1.6,0.3,2.4c-1.6-0.3-3.2-0.6-4.7-1c-1.6-0.4-4-0.2-6.3,0.3c0-0.6-0.1-1.2-0.1-1.8     c0-0.8,0-1.6,0.1-2.4l0.1-0.9v0l11.1,0c0,0.1,0,0.1,0,0.2C911.3,116.3,911.1,117.4,911.1,118.5"></path>
			<path class="st0" d="M1030.4,114.9C1030.4,114.9,1030.4,114.9,1030.4,114.9c-1.1-0.7-1.9-1.6-2.4-2.2c1.5-3.5,7.2-16.3,12.4-19.3     c5.4-3.1,8.4-7,9.5-8.6c1.6-0.2,5.7-0.5,10.9,0.4c-3.6,0.7-6.7,1.7-7.8,2.8c-3.1,3.1-3.9,7.4-6.9,9.2c-3.1,1.8-8.5,4-8.5,7.4     C1037.6,106.5,1034,111.1,1030.4,114.9"></path>
			<path class="st0" d="M1031.9,61.4c-0.4,3.7-0.6,7-0.1,8.8c1.4,5.4,0.4,11.3-1.3,17.5c-1,3.8-3.1,10.7-6.9,15.4     c0.5-1.3,0.9-2.5,1.2-3.8c0.2-0.7,0.4-1.5,0.7-2.3c1.3-3.6,2.6-9.4,3.4-15c0.7-4.7,1-9.3,0.6-12.4c-0.4-2.8-2.1-8.7-4-14.8     c-2.3-7.3-5-14.9-6.2-17.5c0-0.2-0.1-0.3-0.2-0.5c2-0.7,3.5-1.5,4.5-2.2c0.1,0.9,0.3,1.6,0.4,1.8     C1024.2,37.9,1027.2,51.1,1031.9,61.4"></path>
			<path class="st0" d="M974,115.8c1.8,0.5,10.5,1.4,14,0.4c3.6-1,10,0.1,11.4,0.5c1.4,0.4,6,0.1,8.8-0.7c1.9-0.5,7.5-0.1,10.9,0.2     c-1,0.7-1.9,1.3-2.6,1.5c-1.8,0.5-20.3,0.3-35.7,0.2c-6.7-0.1-12.8-0.1-16-0.1c-8.9,0-10.3-2.4-10.5-3.5c3.3-2.6,5.2-5.1,5.8-8.9     c0.3-1.6,0.3-3.3,0.1-5.4c0.7,0.4,1.3,0.7,1.7,0.9c1.8,1.1,0.2,8-1,10c-1.2,2,0.6,3.7,2.7,3.2C965.7,113.6,972.2,115.4,974,115.8     "></path>
			<path class="st0" d="M956.7,102.1c0,1,0,1.8-0.2,2.6c-0.5,2.8-2,4.8-4.6,6.8c-0.2,0-0.4,0-0.6,0c-1.9,0-3.9,0-5.8,0c0,0,0,0,0,0     h-0.2c-0.9,0-1.8,0-2.7,0c-4.2,0-8.4,0-12.5,0c0,0,0,0-0.1,0c-5.1,0-10.3,0-15.4,0c0,0-0.1,0-0.1,0c-5.1,0-10.3,0-15.4,0     c-3.4,0-6.9,0-10.3,0v0c-3.7,0-3.2-1.9-3.2-1.9c0-0.1,0.1-0.2,0.1-0.4c0-0.1,0.7-19.3,17.4-28.9c-2.2,3.1-4,6.4-3.2,8.4     c1.8,4.9,0.7,9.4-1.9,10.8c-2.5,1.5,1.3,9.6,9.9,6.1c8.6-3.5,13.8-2.5,18.9,0.5s14.9,1.6,17.7-1.3     C946.6,102.7,951.1,100.9,956.7,102.1"></path>
			<path class="st0" d="M901.9,73.5c1.3-1.3,2.4-2.5,3.2-3.6c0,0,0,0,0-0.1c0.9-1.1,1.6-2,2-2.6l70.9-1c-0.6,3.9-3,6.4-5.5,9     c-2.3,2.4-4.7,4.8-6.2,8.3c-0.7-1.3-1.1-2.5-1.1-3.7c0-5.2-3.1-8-5.9-8c-2.8,0-10.7-0.3-14-2.2c-3.3-1.9-8.2-1.5-11.2-0.7     c-2.9,0.8-9.5,1.6-11.3-0.2c-1.8-1.8-5.8-0.7-8.2-0.1C913.4,69,908,72,901.9,73.5"></path>
			<path class="st13" d="M919.9,80.4c-3.3,0.9-8.9-0.5-13.2-1.9c0.1,0,0.2-0.1,0.3-0.1c2-0.9,4.1-1.6,6.2-2.1c9-2.4,18.1-2,25.6,0.3     c7.2,2.3,12.9,6.5,15.1,11.9c0.1,0.3,0.2,0.5,0.3,0.8c-6.5-0.2-12.3-4.9-16.4-7.3C932.1,78.6,925.8,78.8,919.9,80.4"></path>
			<path class="st13" d="M1069.3,87.6c3.1,1.3,5.2,2.7,6.6,4.2c1.3,1.3,2.1,2.7,2.4,3.8c0.2,0.7,0.2,1.2,0.2,1.7     c-0.9-0.3-2-0.7-3.1-1.4c-3.7-2.2-3.7-2.1-6.1-4.6c-2.4-2.4-3.6-2.7-5.9-3.4c-0.9-0.2-1.5-1.3-1.9-2.6     C1063.8,85.7,1066.5,86.5,1069.3,87.6"></path>
			<path class="st14" d="M947.4,52.3c3.7,0.1,7.2,0.2,9.7,0.2c6.5,0,11.7,0.3,15.3,1.7c-9.2-1.2-14-0.3-19,1.1     c-5,1.3-14.7,1-19.7-0.7c-5.5-1.9-11.1,0.5-13.7,1.2c-2.6,0.7-5.3-0.5-10,0.5c0.1-0.2,0.1-0.3,0.2-0.5     C912.1,51.5,932.3,52,947.4,52.3"></path>
			<path class="st15" d="M897,70.4c0.5,0,1.1,0,1.6,0c-0.8,1-1.9,1.7-3.2,2.1C896.1,71.3,896.7,70.4,897,70.4"></path>
			<path class="st13" d="M1021.1,21.9c-1.2,1.2-3.4,3.4-6,5.6c-0.4-0.4-1.1-0.5-1.6-0.4c-1,0.3-2,0.5-2.8,0.7     c-0.2,0-0.3,0.1-0.3,0.1c-0.1-0.2-0.2-0.5-0.3-0.8c0-0.1,0-0.2-0.1-0.2c-0.1-0.5-0.3-1.1-0.4-1.7c0,0,0,0,0,0     c0.9-0.5,2.4-1.1,3.9-1.7c0.7-0.3,1.2-0.9,1.2-1.7l0-0.2c0-4.1,7-4.5,10.6-4.5c-0.1,0.9-0.2,1.9-0.3,2.9     C1023.4,20.5,1021.9,21.1,1021.1,21.9"></path>
			<path class="st16" d="M1032.3,21.5c0,0.3,0,0.6,0,0.9c0,5.1-1,5.6-2.9,6.1c-0.2-1.2-0.5-2.9-0.6-4.8     C1030,23,1031.2,22.2,1032.3,21.5"></path>
			<path class="st13" d="M904.8,83.4c0.5-0.1,0.9-0.6,0.9-1.1c-0.1-0.5-0.6-0.9-1.1-0.9c-0.5,0.1-0.9,0.6-0.9,1.1     C903.8,83.1,904.3,83.5,904.8,83.4"></path>
			<path class="st13" d="M907.2,82.1c0.5-0.1,0.9-0.6,0.9-1.1c-0.1-0.5-0.6-0.9-1.1-0.9c-0.5,0.1-0.9,0.6-0.9,1.1     C906.2,81.8,906.7,82.2,907.2,82.1"></path>
			<path class="st13" d="M928.2,83.4c0.5-0.1,0.9-0.6,0.9-1.1c-0.1-0.5-0.6-0.9-1.1-0.9c-0.5,0.1-0.9,0.6-0.9,1.1     C927.1,83.1,927.6,83.4,928.2,83.4"></path>
			<path class="st13" d="M931.3,84c0.5-0.1,0.9-0.6,0.9-1.1c-0.1-0.5-0.6-0.9-1.1-0.9c-0.5,0.1-0.9,0.6-0.9,1.1     C930.3,83.7,930.8,84.1,931.3,84"></path>
			<path class="st13" d="M952.3,92.8c0.5-0.1,0.9-0.6,0.9-1.1c-0.1-0.5-0.6-0.9-1.1-0.9c-0.5,0.1-0.9,0.6-0.9,1.1     C951.2,92.5,951.7,92.9,952.3,92.8"></path>
			<path class="st13" d="M952.7,96c0.5-0.1,0.9-0.6,0.9-1.1c-0.1-0.5-0.6-0.9-1.1-0.9c-0.5,0.1-0.9,0.6-0.9,1.1     C951.7,95.7,952.2,96.1,952.7,96"></path>
			<path class="st0" d="M901.7,105.5c0.5-0.1,0.9-0.6,0.9-1.1c-0.1-0.5-0.6-0.9-1.1-0.9s-0.9,0.6-0.9,1.1     C900.7,105.2,901.2,105.6,901.7,105.5"></path>
			<path class="st0" d="M905.2,105.1c0.5-0.1,0.9-0.6,0.9-1.1c-0.1-0.5-0.6-0.9-1.1-0.9c-0.5,0.1-0.9,0.6-0.9,1.1     C904.1,104.8,904.6,105.2,905.2,105.1"></path>
			<path class="st0" d="M900.9,102.2c0.5-0.1,0.9-0.6,0.9-1.1c-0.1-0.5-0.6-0.9-1.1-0.9c-0.5,0.1-0.9,0.6-0.9,1.1     C899.8,101.8,900.3,102.2,900.9,102.2"></path>
			<path class="st0" d="M931.7,106.9c0.5-0.1,0.9-0.6,0.9-1.1c-0.1-0.5-0.6-0.9-1.1-0.9c-0.5,0.1-0.9,0.6-0.9,1.1     C930.7,106.6,931.2,107,931.7,106.9"></path>
			<path class="st0" d="M934.9,107c0.5-0.1,0.9-0.6,0.9-1.1c-0.1-0.5-0.6-0.9-1.1-0.9c-0.5,0.1-0.9,0.6-0.9,1.1     C933.8,106.7,934.3,107.1,934.9,107"></path>
			<path class="st13" d="M958.8,75c0.5-0.1,0.9-0.6,0.9-1.1c-0.1-0.5-0.6-0.9-1.1-0.9c-0.5,0.1-0.9,0.6-0.9,1.1     C957.7,74.7,958.2,75.1,958.8,75"></path>
			<path class="st13" d="M961,76.9c0.5-0.1,0.9-0.6,0.9-1.1c-0.1-0.5-0.6-0.9-1.1-0.9c-0.5,0.1-0.9,0.6-0.9,1.1     C959.9,76.6,960.4,77,961,76.9"></path>
			<path class="st13" d="M940.9,71.8c0.5-0.1,0.9-0.6,0.9-1.1c-0.1-0.5-0.6-0.9-1.1-0.9c-0.5,0.1-0.9,0.6-0.9,1.1     C939.9,71.5,940.3,71.9,940.9,71.8"></path>
			<path class="st13" d="M963.3,113.1c0.5-0.1,0.9-0.6,0.9-1.1c-0.1-0.5-0.6-0.9-1.1-0.9c-0.5,0.1-0.9,0.6-0.9,1.1     C962.2,112.8,962.7,113.1,963.3,113.1"></path>
			<path class="st13" d="M966,113.5c0.5-0.1,0.9-0.6,0.9-1.1c-0.1-0.5-0.6-0.9-1.1-0.9c-0.5,0.1-0.9,0.6-0.9,1.1     C965,113.2,965.5,113.5,966,113.5"></path>
			<path class="st13" d="M1018.7,115.6c0.5-0.1,0.9-0.6,0.9-1.1c-0.1-0.5-0.6-0.9-1.1-0.9c-0.5,0.1-0.9,0.6-0.9,1.1     C1017.7,115.2,1018.1,115.6,1018.7,115.6"></path>
			<path class="st13" d="M1021.2,113.9c0.5-0.1,0.9-0.6,0.9-1.1c-0.1-0.5-0.6-0.9-1.1-0.9s-0.9,0.6-0.9,1.1     C1020.1,113.6,1020.6,114,1021.2,113.9"></path>
			<path class="st13" d="M1044.6,82.9c0.5-0.1,0.9-0.6,0.9-1.1c-0.1-0.5-0.6-0.9-1.1-0.9c-0.5,0.1-0.9,0.6-0.9,1.1     C1043.6,82.6,1044.1,83,1044.6,82.9"></path>
			<path class="st13" d="M1043.3,80.5c0.5-0.1,0.9-0.6,0.9-1.1c-0.1-0.5-0.6-0.9-1.1-0.9c-0.5,0.1-0.9,0.6-0.9,1.1     C1042.3,80.2,1042.8,80.6,1043.3,80.5"></path>
			<path class="st13" d="M1063,91.6c0.5-0.1,0.9-0.6,0.9-1.1c-0.1-0.5-0.6-0.9-1.1-0.9c-0.5,0.1-0.9,0.6-0.9,1.1     C1062,91.3,1062.5,91.7,1063,91.6"></path>
			<path class="st13" d="M1065.5,93.2c0.5-0.1,0.9-0.6,0.9-1.1c-0.1-0.5-0.6-0.9-1.1-0.9c-0.5,0.1-0.9,0.6-0.9,1.1     C1064.5,92.9,1065,93.3,1065.5,93.2"></path>
			<path class="st13" d="M1023.4,25c0.5-0.1,0.9-0.6,0.9-1.1c-0.1-0.5-0.6-0.9-1.1-0.9c-0.5,0.1-0.9,0.6-0.9,1.1     C1022.3,24.6,1022.8,25,1023.4,25"></path>
			<path class="st13" d="M1021,26.7c0.5-0.1,0.9-0.6,0.9-1.1c-0.1-0.5-0.6-0.9-1.1-0.9c-0.5,0.1-0.9,0.6-0.9,1.1     C1019.9,26.3,1020.4,26.7,1021,26.7"></path>
			<path class="st6" d="M934.6,80.8c-7.1-4.2-12.2-1.7-18.4,0.9C924.3,79.8,928.3,80,934.6,80.8"></path>
			<path class="st6" d="M1054.5,87c-7.1,3.7-5.6,4.3-9,10.5C1050.8,93,1049.6,91.3,1054.5,87"></path>
			<path class="st6" d="M996.2,116.2c-6.8-2.5-11.7-0.8-17.9,0.2C986.3,118,989.8,115.4,996.2,116.2"></path>
			<path class="st6" d="M1023.4,20.5c-4.5,0.8-6.2,3.3-7.9,6.6C1019,24.7,1020.9,22.9,1023.4,20.5"></path>
			<path class="st6" d="M929.5,132.9c-4.7,4.9-11.7,4.8-14.6-0.9C919.2,136.5,924.8,136,929.5,132.9"></path>
			<path class="st6" d="M1071.4,126.6c-1.7,6.5-9.7,10.7-15,7C1062.3,135.5,1068.8,131.6,1071.4,126.6"></path>
		</g>
	</g>
	<g>
		<defs>
			<rect id="SVGID_00000099662791744166002410000003428410255882254006_" x="975" y="34.3" width="46.1" height="83.9"></rect>
		</defs>
		<clipPath id="SVGID_00000062173856934725589050000004972397752601255612_">
			<use xlink:href="#SVGID_00000099662791744166002410000003428410255882254006_" style="overflow:visible;"></use>
		</clipPath>
		<g style="clip-path:url(#SVGID_00000062173856934725589050000004972397752601255612_);">
			<path class="st18" d="M985.3,46.5c-0.9,0.9-0.9,1.7-1.7,1.7c-0.6,0.6-1.2,0.9-1.7,0.9c0-0.9,0-1.7,0.9-2.6L985.3,46.5L985.3,46.5     z"></path>
			<path class="st18" d="M989.7,40.4h-0.9c-0.9-2.6,4.4-2.6,5.2-2.6c1.7,0,3.5,0.9,5.2,1.7c0.9,0,0.9,0.9,0.9,0.9     c0.9,1.7-1.7,6.1-1.7,6.1h-0.9l-2.6-0.9c0-0.9,2.6-4.4,0.9-4.4C994.9,41.3,992.3,40.4,989.7,40.4L989.7,40.4z M1000.1,85.9V85     c3.5-2.6,4.4-6.1,2.6-9.6c-1.7-4.4-5.2-7.9-10.4-12.2c-3.5-3.5-5.2-6.1-7-7.9c-0.9-0.9-1.7-1.7-1.7-2.6c1.7-0.9,4.4-2.6,5.2-4.4     c1.7,0,3.5,0.9,5.2,0.9h8.7c1.7-3.5,2.6-5.2,6.1-7c0.9-0.9,3.5,0.9,4.4,2.6l4.4,3.5c0.9,0.9,0.9,0.9,0.9,1.7     c0,0.6-0.3,1.2-0.9,1.7c0,0-0.9,0.9-1.7,0.9c0,0-0.9,0-1.7-0.9l-5.2-3.5c-0.9,0,0-0.9-0.9-0.9h-0.9c-1.7,1.7-1.7,4.4-1.7,7.9     c0.9,3.5,1.7,7.9,4.4,14c3.5,7,6.1,14,7,21c1.7,6.1,2.6,12.2,1.7,17.5h-0.9V106c-0.9-1.7-1.7-3.5-3.5-4.4     c-0.9-0.9-2.6-0.9-4.4-0.9h-0.9c-0.9,0.9-1.7,1.7-1.7,3.5c-0.9,0.9,0,2.6,0.9,3.5c0,0,0,0.9-0.9,0.9l-0.9-0.9c0,0-3.5-6.1-7-7     c-12.2-0.9-4.4-1.7-13.1,2.6c-2.6,0.9-4.4,3.5-5.2,5.2c0-2.6,1.7-7,4.4-10.5C988.8,94.6,993.2,90.2,1000.1,85.9L1000.1,85.9z      M981.9,87.6c0,0,0-0.9,0.9-0.9L981.9,87.6c-0.9,1.7-0.9,3.5-0.9,5.2s0,2.6,1.7,4.4c-0.6,0-0.9,0.3-0.9,0.9     c-2.6-1.7-3.5-3.5-3.5-5.2S979.2,89.4,981.9,87.6L981.9,87.6z"></path>
			<path d="M984.5,46.5c0,0-0.9,0.9-1.7,0.9c0,0.9-0.9,0.9-1.7,1.7c0-1.7,0-2.6,0.9-2.6L984.5,46.5L984.5,46.5z M992.3,47.4     c2.6,0.9,6.1,0.9,8.7,0.9h0.9v-0.9c2.6-3.5,4.4-5.2,6.1-6.1c0.9-0.9,2.6-0.9,3.5,0.9l4.4,5.2c0.9,0,0.9,0.9,0.9,1.7     c0,0,0,0.9-0.9,1.7h-2.6l-5.2-4.4c-0.6-0.6-1.2-0.9-1.7-0.9l-0.9,0.9c-0.9,1.7-1.7,4.4-1.7,7.9c0.9,3.5,1.7,7.9,4.4,13.1     c3.5,7.9,6.1,14.8,7.8,21c0.9,7,1.7,12.2,0.9,17.5v0.9h-0.9v-1.7c-0.9-1.7-1.7-3.5-3.5-4.4c-0.9-0.9-2.6-1.7-4.4-0.9     s-2.6,1.7-2.6,2.6c0,1.7,0,2.6,0.9,4.4v0.9h-0.9c0,0-2.6-4.4-6.1-6.1c-1.7-1.7-5.2-2.6-7.8-1.7c-2.6,0-5.2,0.9-7,1.7     c-2.6,1.7-4.4,3.5-5.2,6.1c0-3.5,1.7-7,4.4-10.5c3.5-4.4,7.8-8.7,14.8-13.1c3.5-2.6,4.4-6.1,2.6-10.5c-1.7-3.5-4.4-7.9-10.4-12.2     c-2.6-2.6-5.2-5.2-7-7c-0.9-1.7-0.9-2.6-1.7-3.5c0.9,0,1.7-0.9,2.6-0.9c0.9-0.9,1.7-1.7,3.5-2.6L992.3,47.4L992.3,47.4z      M995.8,45.7l0.9-2.6c0-1.7,0-2.6-2.6-2.6c-0.9-0.9-2.6-0.9-5.2-0.9H988c-0.6,0-0.9-0.3-0.9-0.9c-0.9-1.7,4.4-1.7,5.2-1.7     c1.7,0,3.5,0,5.2,0.9c0.6,0.6,0.9,1.2,0.9,1.7c0.9,0.9-1.7,6.1-1.7,6.1L995.8,45.7L995.8,45.7z M979.2,99.8     c-1.7,2.6-2.6,5.2-1.7,7.9v1.7l0.9,0.9h2.6c0.9-0.9,0.9-4.4,4.4-7c1.7-0.9,4.4-1.7,6.1-1.7c2.6,0,5.2,0.9,7,1.7     c3.5,1.7,3.5,5.2,6.1,6.1h1.7c0,0,0.9,0,0.9-0.9c0.6,0,0.9-0.3,0.9-0.9v-1.7c0-0.9-0.9-1.7,0-2.6c0-0.6,0.3-1.2,0.9-1.7     c0.9,0,1.7,0,2.6,0.9c0.9,0.9,1.7,1.7,1.7,3.5l0.9,0.9c0,0,0,0.9,0.9,1.7h3.5c0.9-0.9,0.9-1.7,0.9-2.6c0.9-5.2,0-11.4-1.7-17.5     c-1.7-7-3.5-14-7-21.8c-2.6-5.2-3.5-9.6-4.4-12.2c0-2.6,0-4.4,0.9-6.1l4.4,4.4c0.9,0.9,1.7,0.9,3.5,0.9c0.9,0,1.7-0.9,2.6-1.7     c0.9-0.9,1.7-1.8,1.7-2.6s-0.9-2.6-1.7-3.5l-4.4-5.2c-1.7-1.7-4.4-2.6-6.1-0.9c-2.6,0.9-4.4,2.6-7,6.1h-0.9     c0.9-1.7,0.9-2.6,1.7-3.5v-3.5c0-0.9-0.9-1.7-1.7-2.6h-0.9c-1.7-0.9-3.5-1.7-6.1-1.7c-2.6,0-7,0.9-7.8,3.5c0,0.9,0,1.7,0.9,1.7     c0,0.9,0,1.7,0.9,1.7c0.9,0.9,1.7,0.9,2.6,0.9h5.2c0,0,0,0.9-0.9,3.5c-2.6,0-4.4-0.9-6.1-0.9c-2.6-0.9-5.2-0.9-6.1,0     c-1.7,0.9-2.6,2.6-1.7,4.4V50c0,0.9,0.9,3.5,2.6,5.2c1.7,2.6,4.4,5.2,7,7.9c5.2,4.4,8.7,7.9,9.6,11.4c1.7,3.5,0.9,6.1-1.7,7.9     c-6.1,4.4-10.5,8.7-13.9,12.2c0-0.9-0.9-1.7-0.9-2.6s0-2.6,0.9-3.5c0.9-1.7,1.7-2.6,1.7-3.5s-0.9-0.9-0.9-1.7h-1.7     c-0.9,0.9-1.7,0.9-2.6,2.6c-3.5,1.7-4.4,4.4-4.4,7C974.9,94.6,976.6,97.2,979.2,99.8L979.2,99.8z M981,96.3v0.9     c-2.6-1.7-3.5-3.5-3.5-4.4c0-1.7,0.9-3.5,2.6-5.2l0.9-0.9v0.9c-0.9,1.7-1.7,3.5-1.7,5.2C980.1,93.7,980.1,95.5,981,96.3L981,96.3     z"></path>
			<path class="st6" d="M1009.7,115.6c6.1,0,11.3,0.9,11.3,0.9c0,0.9-5.2,1.7-11.3,1.7s-11.3-0.9-11.3-1.7     C998.4,116.4,1003.6,115.6,1009.7,115.6L1009.7,115.6z"></path>
		</g>
	</g>
</g>
</svg>
