<svg xmlns="http://www.w3.org/2000/svg" width="73" height="70" viewBox="0 0 73 70" fill="none"><path d="M6.0957 51.2004L16.4723 6.66223L58.9221 11.7656L48.5455 58.1594L6.0957 51.2004Z" fill="#FCBC5A"></path><path d="M66.2438 14.9939L61.9214 9.94307C61.8889 9.91097 61.8563 9.88957 61.8237 9.86816C61.7911 9.83606 61.7477 9.80396 61.7042 9.78256C61.6499 9.76116 61.6065 9.73975 61.5522 9.72905C61.5196 9.71835 61.487 9.69695 61.4436 9.68625L19.1325 3.42622C19.0348 3.40481 18.937 3.41552 18.8393 3.43692C18.7415 3.45832 18.6547 3.50112 18.5786 3.55463C18.5026 3.60813 18.4266 3.67234 18.3723 3.75794C18.318 3.84355 18.2854 3.92916 18.2637 4.01477L8.58732 48.9479V48.9586V48.9693L8.48958 49.515C8.44614 49.7612 8.41356 50.0073 8.39184 50.2534C8.37012 50.4995 8.37012 50.7456 8.37012 50.9918C8.38098 51.2379 8.39184 51.484 8.42442 51.7301C8.457 51.9762 8.50044 52.2224 8.55474 52.4578C8.60904 52.7039 8.6742 52.9393 8.75022 53.1747C8.82624 53.4102 8.92398 53.6456 9.02173 53.8703C9.11947 54.095 9.23893 54.3197 9.35839 54.5338C9.47785 54.7478 9.61903 54.9618 9.76021 55.1651C9.9014 55.3684 10.0534 55.5611 10.2272 55.7537C10.401 55.9463 10.5639 56.1175 10.7485 56.2887C10.9331 56.4599 11.1177 56.6204 11.3132 56.781C11.5087 56.9308 11.715 57.0806 11.9322 57.209C12.1494 57.3374 12.3666 57.4658 12.5838 57.5835C12.8119 57.6905 13.04 57.7975 13.268 57.8831C13.507 57.9688 13.7459 58.0544 13.9848 58.1186C14.2237 58.1828 14.4735 58.2363 14.7233 58.2898L58.3159 65.9088C58.3593 65.9195 58.4028 65.9195 58.4462 65.9195C58.5331 65.9195 58.62 65.9088 58.7068 65.8767C58.7937 65.8446 58.8697 65.8018 58.9349 65.7483C59.0001 65.6948 59.0652 65.6199 59.1087 65.545C59.1521 65.4701 59.1847 65.3845 59.2064 65.2989L67.7642 20.644C67.8619 20.1517 67.8945 19.6488 67.8837 19.1352C67.8619 18.6322 67.7968 18.1293 67.6556 17.6477C67.5253 17.1555 67.3407 16.6846 67.1017 16.2352C66.8628 15.7965 66.5804 15.3791 66.2438 14.9939ZM9.97742 49.9859L51.9518 57.53C51.9953 57.5407 52.0496 57.5407 52.093 57.5407C52.1799 57.5407 52.2668 57.53 52.3537 57.4979C52.4405 57.4658 52.5166 57.423 52.5817 57.3695C52.6469 57.316 52.7121 57.2518 52.7555 57.1769C52.7989 57.102 52.8315 57.0164 52.8532 56.9308L61.7911 12.1261L63.8763 14.5552L55.0035 60.0019L10.0752 52.2224C9.9014 51.484 9.86882 50.7349 9.97742 49.9859ZM19.6212 5.03135L60.4227 11.0667L51.4849 55.9035L10.2598 48.4985L19.6212 5.03135ZM66.2438 20.3658L57.8272 64.293L14.9839 56.8024C14.5387 56.7274 14.1151 56.599 13.7024 56.4385C13.2898 56.2673 12.8988 56.064 12.5404 55.8072C12.1712 55.5503 11.8454 55.2721 11.5413 54.9404C11.2372 54.6194 10.9765 54.2662 10.7485 53.881L55.4814 61.6285C55.5248 61.6392 55.5683 61.6392 55.6117 61.6392C55.6986 61.6392 55.7855 61.6285 55.8724 61.5964C55.9592 61.5643 56.0353 61.5215 56.1004 61.468C56.1656 61.4144 56.2307 61.3502 56.2742 61.2753C56.3176 61.2004 56.3502 61.1148 56.3719 61.0292L65.136 16.0533C65.3858 16.3529 65.5922 16.6739 65.7659 17.0164C65.9397 17.3588 66.0809 17.7226 66.1678 18.0865C66.2655 18.461 66.3198 18.8355 66.3307 19.2208C66.3524 19.606 66.3198 19.9912 66.2438 20.3658Z" fill="#363737"></path><path d="M47.0865 32.3294L24.4866 28.4985C24.3997 28.4878 24.3128 28.4878 24.2151 28.4985C24.1282 28.5199 24.0413 28.552 23.9653 28.6055C23.8893 28.659 23.8241 28.7232 23.7807 28.7981C23.7264 28.873 23.6938 28.9586 23.6829 29.0443L22.6295 34.705C22.6186 34.7906 22.6186 34.8869 22.6295 34.9726C22.6512 35.0582 22.6838 35.1438 22.7381 35.2187C22.7924 35.2936 22.8575 35.3578 22.9336 35.4006C23.0096 35.4434 23.0965 35.4862 23.1834 35.4969L45.7833 39.3278C45.8267 39.3385 45.8593 39.3385 45.9028 39.3385C45.9788 39.3385 46.0657 39.3278 46.1417 39.2957C46.2177 39.2636 46.2829 39.2315 46.348 39.178C46.4132 39.1245 46.4566 39.071 46.5001 38.9961C46.5435 38.9319 46.5652 38.857 46.5869 38.7714L47.6295 33.1106C47.6512 33.025 47.6404 32.9287 47.6295 32.8431C47.6078 32.7575 47.5752 32.6719 47.5209 32.597C47.4666 32.522 47.4015 32.4578 47.3254 32.415C47.2603 32.3722 47.1734 32.3401 47.0865 32.3294Z" fill="white" stroke="#363737" stroke-width="1.1999" stroke-miterlimit="10"></path><path d="M24.2368 22.8912C24.3345 22.8912 24.4214 22.8805 24.5083 22.8484C24.5951 22.8163 24.682 22.7735 24.7472 22.7092C24.8232 22.645 24.8775 22.5808 24.9209 22.4952C24.9644 22.4096 24.997 22.324 24.997 22.2277C25.0078 22.1314 24.997 22.0458 24.9752 21.9495C24.9535 21.8639 24.9101 21.7783 24.8558 21.7034C24.8015 21.6285 24.7363 21.5642 24.6603 21.5107C24.5843 21.4572 24.4974 21.4251 24.3997 21.4037L21.7389 20.7831L23.0856 14.6194C23.1073 14.523 23.1073 14.4267 23.0856 14.3197C23.0639 14.2234 23.0313 14.1271 22.977 14.0415C22.9227 13.9559 22.8467 13.8917 22.7706 13.8275C22.6946 13.7633 22.5969 13.7312 22.4991 13.7098C22.4014 13.6884 22.3036 13.6884 22.195 13.7098C22.0973 13.7312 21.9996 13.7633 21.9127 13.8168C21.8258 13.8703 21.7606 13.9452 21.6955 14.0201C21.6303 14.095 21.5977 14.1913 21.576 14.2876L20.0773 21.179C20.0556 21.2753 20.0556 21.3716 20.0665 21.4679C20.0882 21.5642 20.1208 21.6606 20.1751 21.7355C20.2294 21.8211 20.2945 21.8853 20.3814 21.9495C20.4683 22.003 20.5552 22.0458 20.6529 22.0672L24.0521 22.8591C24.1173 22.8912 24.1825 22.8912 24.2368 22.8912Z" fill="#363737"></path><path d="M28.4508 23.6831C28.6897 23.6831 28.9286 23.651 29.1675 23.5868C29.2653 23.5654 29.3521 23.5119 29.439 23.4584C29.515 23.3942 29.5802 23.3193 29.6345 23.2336C29.6888 23.148 29.7105 23.0517 29.7323 22.9554C29.7431 22.8591 29.7323 22.7628 29.7105 22.6665C29.6888 22.5702 29.6345 22.4846 29.5802 22.399C29.515 22.3241 29.439 22.2599 29.3521 22.2064C29.2653 22.1529 29.1675 22.1314 29.0698 22.11C28.972 22.0993 28.8634 22.11 28.7657 22.1314C28.1358 22.3027 27.3539 21.8853 27.0498 21.2219C26.9195 20.9329 26.8652 20.6333 26.876 20.3123C27.9186 20.6012 28.9829 20.7403 30.0689 20.7296C30.1667 20.7296 30.2535 20.7082 30.3513 20.6761C30.4382 20.644 30.525 20.5905 30.5902 20.5263C30.6662 20.4621 30.7205 20.3872 30.7531 20.3016C30.7965 20.216 30.8183 20.1304 30.8291 20.0341C30.84 19.895 30.8726 19.7558 30.9051 19.6274C30.992 19.2743 31.1115 18.7821 30.9051 18.2363C30.7748 17.8725 30.5793 17.5622 30.3078 17.2839C30.0363 17.0057 29.7214 16.8024 29.3521 16.674C28.0055 16.2138 26.6806 17.102 26.0181 18.1186C25.2579 19.285 25.1167 20.7189 25.638 21.8532C25.7574 22.1207 25.9203 22.3669 26.1158 22.5916C26.3113 22.8163 26.5285 23.0089 26.7783 23.1694C27.0281 23.33 27.2996 23.4584 27.5819 23.544C27.8534 23.6296 28.1467 23.6724 28.4508 23.6831ZM28.8309 18.0972C28.972 18.1614 29.1024 18.247 29.211 18.3647C29.3196 18.4824 29.3956 18.6109 29.4499 18.7607C29.4825 18.8463 29.4607 18.9854 29.4064 19.1994C28.7005 19.1673 28.0163 19.0603 27.343 18.8677C27.7014 18.354 28.3422 17.926 28.8309 18.0972Z" fill="#363737"></path><path d="M33.7501 24.5391C33.9456 24.5391 34.1302 24.5177 34.3149 24.4749C34.6624 24.3893 34.9773 24.2395 35.2488 24.0147C35.5312 23.79 35.7484 23.5332 35.9004 23.2122C36.0416 22.9446 36.1285 22.6557 36.1394 22.3561C36.1502 22.0565 36.0959 21.7568 35.9765 21.4786C35.7158 20.8901 35.2488 20.5476 34.8361 20.248C34.5755 20.0554 34.3257 19.8735 34.2063 19.6809C34.1628 19.5953 34.1411 19.4989 34.1302 19.4026C34.1194 19.3063 34.1411 19.21 34.1737 19.1137C34.2063 19.0174 34.2497 18.9318 34.3257 18.8676C34.3909 18.7927 34.4669 18.7392 34.5538 18.6857C34.7601 18.6215 34.9447 18.6536 35.1294 18.7606C35.314 18.8569 35.4334 19.0067 35.4877 19.21C35.5095 19.3063 35.542 19.4026 35.5963 19.4882C35.6506 19.5739 35.7267 19.6488 35.8027 19.7023C35.8896 19.7558 35.9765 19.7986 36.0742 19.82C36.1719 19.8414 36.2697 19.8414 36.3783 19.8307C36.476 19.8093 36.5738 19.7772 36.6606 19.7237C36.7475 19.6702 36.8235 19.5953 36.8778 19.5204C36.9321 19.4347 36.9756 19.3491 36.9973 19.2528C37.019 19.1565 37.019 19.0602 37.0082 18.9532C36.9756 18.7927 36.9321 18.6429 36.867 18.5038C36.8018 18.354 36.7258 18.2148 36.6281 18.0864C36.5303 17.958 36.4217 17.8403 36.3023 17.7333C36.1828 17.6263 36.0525 17.5407 35.9113 17.4551C35.7701 17.3802 35.6181 17.316 35.466 17.2732C35.314 17.2304 35.1511 17.1983 34.9882 17.1876C34.8253 17.1769 34.6624 17.1769 34.5103 17.209C34.3474 17.2304 34.1954 17.2732 34.0433 17.3267C33.8913 17.3802 33.7501 17.4551 33.6089 17.5407C33.4786 17.6263 33.3483 17.7226 33.2397 17.8403C33.1311 17.958 33.0225 18.0757 32.9465 18.2148C32.8596 18.354 32.7944 18.4931 32.7401 18.6429C32.6858 18.7927 32.6533 18.9425 32.6315 19.103C32.6098 19.2635 32.6098 19.424 32.6207 19.5739C32.6315 19.7344 32.6641 19.8842 32.7184 20.0447C32.7727 20.1945 32.8379 20.3443 32.9139 20.4834C33.1963 20.9329 33.5872 21.2325 33.9456 21.4893C34.2497 21.714 34.4995 21.896 34.5972 22.11C34.6515 22.2705 34.6407 22.4203 34.5538 22.5594C34.4343 22.7948 34.2497 22.9446 33.9999 23.0195C33.5112 23.1373 32.8922 22.859 32.5012 22.3561C32.436 22.2812 32.36 22.217 32.2731 22.1635C32.1863 22.11 32.0885 22.0779 31.9908 22.0672C31.893 22.0565 31.7844 22.0565 31.6867 22.0886C31.589 22.11 31.5021 22.1635 31.4152 22.217C31.3392 22.2812 31.274 22.3561 31.2197 22.4417C31.1654 22.5273 31.1328 22.6236 31.122 22.7199C31.1111 22.8162 31.1111 22.9232 31.1437 23.0195C31.1654 23.1159 31.2197 23.2015 31.274 23.2871C31.8822 24.0682 32.8379 24.5391 33.7501 24.5391Z" fill="#363737"></path><path d="M36.7585 24.0683C37.3884 24.8708 38.3332 25.3417 39.2563 25.3417C39.4518 25.3417 39.6365 25.3203 39.8211 25.2775C40.1686 25.1919 40.4727 25.0421 40.755 24.8173C41.0374 24.5926 41.2546 24.3358 41.4067 24.0148C41.5478 23.7473 41.6347 23.4583 41.6456 23.1587C41.6564 22.8591 41.6021 22.5595 41.4827 22.2812C41.222 21.6927 40.755 21.3503 40.3424 21.0506C40.0817 20.858 39.8319 20.6761 39.7125 20.4835C39.669 20.3979 39.6365 20.3016 39.6365 20.2053C39.6256 20.1089 39.6473 20.0126 39.6799 19.927C39.7125 19.8307 39.7668 19.7558 39.8319 19.6916C39.8971 19.6274 39.984 19.5739 40.0709 19.5418C40.1686 19.5097 40.2555 19.4883 40.3532 19.499C40.451 19.5097 40.5487 19.5311 40.6356 19.5739C40.7225 19.6167 40.7985 19.6809 40.8528 19.7558C40.9179 19.8307 40.9505 19.9163 40.9831 20.0126C41.0048 20.1089 41.0374 20.2053 41.0917 20.2909C41.146 20.3765 41.2112 20.4514 41.2981 20.5049C41.3849 20.5584 41.4718 20.6012 41.5696 20.6226C41.6673 20.644 41.765 20.644 41.8736 20.6333C41.9714 20.6119 42.0691 20.5798 42.156 20.5263C42.2429 20.4728 42.3189 20.4086 42.3732 20.323C42.4275 20.2374 42.4709 20.1517 42.4927 20.0554C42.5144 19.9591 42.5144 19.8628 42.5035 19.7558C42.4709 19.5953 42.4275 19.4455 42.3623 19.3064C42.2972 19.1566 42.2212 19.0175 42.1234 18.889C42.0257 18.7606 41.9171 18.6429 41.7976 18.5359C41.6782 18.4289 41.5478 18.3433 41.4067 18.2577C41.2655 18.1721 41.1134 18.1186 40.9614 18.0758C40.8093 18.033 40.6464 18.0009 40.4835 17.9902C40.3206 17.9795 40.1577 17.9795 40.0057 18.0116C39.8428 18.033 39.6908 18.0758 39.5387 18.1293C39.3867 18.1828 39.2455 18.2577 39.1043 18.3433C38.9631 18.4289 38.8437 18.5252 38.7351 18.6429C38.6265 18.7606 38.5179 18.8783 38.4418 19.0175C38.355 19.1566 38.2898 19.2957 38.2355 19.4455C38.1812 19.5953 38.1486 19.7451 38.1269 19.9056C38.1052 20.0661 38.1052 20.2267 38.116 20.3765C38.1269 20.537 38.1595 20.6868 38.2138 20.8366C38.2681 20.9864 38.3332 21.1362 38.4093 21.2753C38.6916 21.7248 39.0934 22.0244 39.441 22.2812C39.7451 22.5059 39.9948 22.6879 40.0926 22.9019C40.1469 23.0624 40.136 23.2122 40.0491 23.3513C39.9297 23.5867 39.7451 23.7366 39.4953 23.8115C39.0066 23.9292 38.3875 23.6509 37.9966 23.1587C37.9314 23.0838 37.8554 23.0089 37.7685 22.9661C37.6816 22.9126 37.5839 22.8805 37.4861 22.8698C37.3884 22.8591 37.2907 22.8591 37.1821 22.8912C37.0843 22.9126 36.9974 22.9661 36.9106 23.0196C36.8345 23.0838 36.7694 23.1587 36.7151 23.2443C36.6608 23.3299 36.6282 23.4262 36.6173 23.5225C36.6065 23.6188 36.6065 23.7152 36.6391 23.8115C36.6499 23.9078 36.6934 23.9934 36.7585 24.0683Z" fill="#363737"></path><path d="M47.7709 19.8093C46.7066 19.1887 45.3165 19.2743 44.3825 20.002C43.3291 20.8259 42.8513 22.1742 43.0902 23.6189C43.3074 24.9244 44.0676 25.9517 45.0776 26.3155C45.3382 26.4118 45.6097 26.4546 45.8921 26.4546C46.4677 26.4546 47.2062 26.262 48.0207 25.5664C48.4551 25.2026 48.7809 24.7639 49.0307 24.2609C49.2696 23.758 49.3891 23.2229 49.3999 22.6665C49.3999 22.3776 49.3565 22.0993 49.2913 21.8211C49.2153 21.5429 49.1067 21.2754 48.9655 21.0292C48.8243 20.7831 48.6506 20.5477 48.4551 20.3444C48.2487 20.1411 48.0207 19.9591 47.7709 19.8093ZM47.0216 24.4214C46.6523 24.7318 46.1093 25.0742 45.6097 24.8923C45.1319 24.7211 44.7301 24.1111 44.6106 23.3727C44.4586 22.4739 44.7409 21.6606 45.3382 21.1898C45.4577 21.1041 45.588 21.0399 45.7292 20.9864C45.8704 20.9436 46.0116 20.9115 46.1636 20.9008C46.3156 20.8901 46.4568 20.9115 46.598 20.9436C46.7392 20.9757 46.8804 21.0292 46.9998 21.1041C47.2713 21.2754 47.4777 21.5001 47.6406 21.7783C47.7926 22.0565 47.8686 22.3562 47.8686 22.6665C47.8578 23.0089 47.7818 23.3192 47.6406 23.6296C47.4777 23.9399 47.2822 24.2074 47.0216 24.4214Z" fill="#363737"></path><path d="M53.2116 23.2551C53.3093 23.0946 53.4288 22.9554 53.5808 22.827C53.6243 22.9875 53.646 23.1374 53.6351 23.3086C53.6134 24.475 53.3853 25.5879 52.9509 26.6687C52.9184 26.765 52.8966 26.8613 52.8966 26.9576C52.8966 27.0539 52.9184 27.1502 52.9618 27.2465C53.0052 27.3428 53.0595 27.4177 53.1356 27.4926C53.2116 27.5675 53.2985 27.621 53.3853 27.6531C53.4831 27.6852 53.5808 27.7066 53.6786 27.7066C53.7763 27.7066 53.8741 27.6852 53.9718 27.6424C54.0695 27.5996 54.1456 27.5461 54.2216 27.4712C54.2976 27.3963 54.3519 27.3214 54.3845 27.2251C54.884 25.9731 55.1555 24.6783 55.1773 23.33C55.199 22.2706 54.7754 21.5429 54.037 21.3289C53.5157 21.1791 52.7229 21.2433 51.9301 22.4204L52.2776 21.0614C52.2993 20.9651 52.3102 20.8688 52.2885 20.7618C52.2776 20.6654 52.245 20.5691 52.1907 20.4835C52.1364 20.3979 52.0713 20.323 51.9844 20.2588C51.9084 20.1946 51.8106 20.1518 51.7129 20.1304C51.6151 20.109 51.5174 20.0983 51.4088 20.1197C51.3111 20.1304 51.2133 20.1625 51.1264 20.216C51.0396 20.2695 50.9635 20.3337 50.9092 20.4086C50.8441 20.4942 50.8006 20.5798 50.7789 20.6761L49.4974 25.6949C49.4757 25.7805 49.4648 25.8661 49.4757 25.9624C49.4866 26.048 49.5083 26.1336 49.5517 26.2192C49.5952 26.3048 49.6386 26.369 49.7146 26.4332C49.7798 26.4974 49.8558 26.5402 49.9427 26.583C50.0296 26.6152 50.1164 26.6366 50.2033 26.6473C50.2902 26.658 50.3879 26.6473 50.4748 26.6152C50.5617 26.5938 50.6377 26.5509 50.7138 26.4974C50.7898 26.4439 50.8441 26.3797 50.8984 26.3048C51.2133 25.8233 51.6043 25.3417 52.017 24.8388C52.4297 24.3145 52.8532 23.7901 53.2116 23.2551Z" fill="#363737"></path><path d="M36.2482 46.5616L33.1313 46.0051L34.2716 39.8628L31.4806 39.3599L29.8298 48.2523L35.7377 49.3117L36.2482 46.5616Z" fill="#363737"></path></svg>