<svg xmlns="http://www.w3.org/2000/svg" xmlns:xlink="http://www.w3.org/1999/xlink" width="377" viewBox="0 0 282.96 283.499996" height="377" preserveAspectRatio="xMidYMid meet"><defs><clipPath id="0c246409ba"><path d="M 131.582031 119.097656 L 154.75 119.097656 L 154.75 137.671875 L 131.582031 137.671875 Z M 131.582031 119.097656 " clip-rule="nonzero"></path></clipPath><clipPath id="4a7586396f"><path d="M 135 57.066406 L 151 57.066406 L 151 94 L 135 94 Z M 135 57.066406 " clip-rule="nonzero"></path></clipPath><clipPath id="3575ecae27"><path d="M 223 124.078125 L 260.621094 124.078125 L 260.621094 151.628906 L 223 151.628906 Z M 223 124.078125 " clip-rule="nonzero"></path></clipPath><clipPath id="cc55c5e8ad"><path d="M 22.21875 128 L 60 128 L 60 156 L 22.21875 156 Z M 22.21875 128 " clip-rule="nonzero"></path></clipPath><clipPath id="afc9c30f3f"><path d="M 114.625 138.480469 L 239 138.480469 L 239 202.789062 L 114.625 202.789062 Z M 114.625 138.480469 " clip-rule="nonzero"></path></clipPath></defs><g clip-path="url(#0c246409ba)"><path fill="#fcbc5a" d="M 95.359375 78.28125 L 154.351562 78.28125 L 154.351562 137.273438 L 95.359375 137.273438 Z M 95.359375 78.28125 " fill-opacity="1" fill-rule="nonzero"></path><path fill="#fcbc5a" d="M 154.351562 137.671875 L 95.359375 137.671875 C 95.136719 137.671875 94.960938 137.496094 94.960938 137.273438 L 94.960938 78.28125 C 94.960938 78.058594 95.136719 77.882812 95.359375 77.882812 L 154.351562 77.882812 C 154.574219 77.882812 154.75 78.058594 154.75 78.28125 L 154.75 137.273438 C 154.75 137.496094 154.574219 137.671875 154.351562 137.671875 Z M 95.757812 136.875 L 153.953125 136.875 L 153.953125 78.679688 L 95.757812 78.679688 Z M 95.757812 136.875 " fill-opacity="1" fill-rule="nonzero"></path></g><path fill="#363737" d="M 150.066406 186.078125 C 150.066406 190.046875 146.847656 193.261719 142.882812 193.261719 C 138.914062 193.261719 135.695312 190.046875 135.695312 186.078125 C 135.695312 182.109375 138.914062 178.894531 142.882812 178.894531 C 146.847656 178.894531 150.066406 182.109375 150.066406 186.078125 " fill-opacity="1" fill-rule="nonzero"></path><g clip-path="url(#4a7586396f)"><path fill="#363737" d="M 138.601562 57.085938 L 147.160156 57.085938 C 148.765625 57.085938 150.066406 58.386719 150.066406 59.992188 L 150.066406 90.699219 C 150.066406 92.304688 148.765625 93.605469 147.160156 93.605469 L 138.601562 93.605469 C 137 93.605469 135.695312 92.304688 135.695312 90.699219 L 135.695312 59.992188 C 135.695312 58.386719 137 57.085938 138.601562 57.085938 " fill-opacity="1" fill-rule="nonzero"></path></g><g clip-path="url(#3575ecae27)"><path fill="#363737" d="M 227.472656 149.402344 L 223.738281 141.703125 C 223.035156 140.261719 223.640625 138.523438 225.082031 137.820312 L 252.714844 124.417969 C 254.15625 123.71875 255.894531 124.320312 256.59375 125.765625 L 260.328125 133.464844 C 261.027344 134.910156 260.425781 136.648438 258.980469 137.347656 L 231.355469 150.75 C 229.910156 151.449219 228.171875 150.847656 227.472656 149.402344 " fill-opacity="1" fill-rule="nonzero"></path></g><path fill="#363737" d="M 188.65625 91.082031 C 187.183594 90.445312 186.507812 88.734375 187.144531 87.261719 L 194.054688 71.273438 C 194.691406 69.800781 196.402344 69.125 197.875 69.761719 C 199.347656 70.398438 200.027344 72.109375 199.390625 73.582031 L 192.476562 89.566406 C 191.839844 91.039062 190.128906 91.71875 188.65625 91.082031 " fill-opacity="1" fill-rule="nonzero"></path><path fill="#363737" d="M 214.382812 108.386719 C 213.167969 107.339844 213.027344 105.507812 214.074219 104.289062 L 225.421875 91.078125 C 226.46875 89.863281 228.304688 89.726562 229.519531 90.769531 C 230.738281 91.816406 230.878906 93.648438 229.832031 94.867188 L 218.480469 108.078125 C 217.4375 109.296875 215.597656 109.433594 214.382812 108.386719 " fill-opacity="1" fill-rule="nonzero"></path><path fill="#363737" d="M 98.550781 90.183594 C 100.027344 89.546875 100.703125 87.835938 100.066406 86.363281 L 93.152344 70.375 C 92.519531 68.902344 90.804688 68.226562 89.332031 68.863281 C 87.863281 69.5 87.183594 71.210938 87.820312 72.683594 L 94.730469 88.667969 C 95.371094 90.144531 97.078125 90.820312 98.550781 90.183594 " fill-opacity="1" fill-rule="nonzero"></path><path fill="#363737" d="M 72.011719 107.4375 C 73.226562 106.394531 73.367188 104.558594 72.320312 103.34375 L 60.96875 90.132812 C 59.925781 88.914062 58.089844 88.777344 56.875 89.824219 C 55.65625 90.867188 55.519531 92.703125 56.5625 93.917969 L 67.914062 107.128906 C 68.960938 108.347656 70.792969 108.484375 72.011719 107.4375 " fill-opacity="1" fill-rule="nonzero"></path><g clip-path="url(#cc55c5e8ad)"><path fill="#fcbc5a" d="M 56.023438 153.480469 L 59.609375 145.710938 C 60.277344 144.25 59.640625 142.527344 58.183594 141.855469 L 30.300781 128.996094 C 28.84375 128.324219 27.117188 128.960938 26.441406 130.417969 L 22.859375 138.1875 C 22.191406 139.648438 22.824219 141.375 24.285156 142.046875 L 52.167969 154.902344 C 53.625 155.574219 55.351562 154.9375 56.023438 153.480469 " fill-opacity="1" fill-rule="nonzero"></path></g><path fill="#363737" d="M 47.402344 181.050781 L 35.8125 181.050781 L 35.8125 190.441406 L 48.726562 190.441406 L 48.726562 193.261719 L 31.964844 193.261719 L 31.964844 167.21875 L 48.066406 167.21875 L 48.066406 170.039062 L 35.8125 170.039062 L 35.8125 178.269531 L 47.402344 178.269531 L 47.402344 181.050781 " fill-opacity="1" fill-rule="nonzero"></path><path fill="#363737" d="M 235.355469 160.035156 L 251.414062 160.035156 L 251.414062 162.855469 L 239.207031 162.855469 L 239.207031 171.511719 L 250.484375 171.511719 L 250.484375 174.292969 L 239.207031 174.292969 L 239.207031 186.078125 L 235.355469 186.078125 L 235.355469 160.035156 " fill-opacity="1" fill-rule="nonzero"></path><g clip-path="url(#afc9c30f3f)"><path fill="#fcbc5a" d="M 116.726562 201.410156 L 115.4375 198.421875 C 114.398438 196.882812 115.007812 194.777344 116.707031 194.03125 L 237.921875 138.910156 C 238.621094 138.59375 239.128906 139.621094 238.449219 139.980469 L 120.800781 202.410156 C 119.386719 203.175781 117.625 202.742188 116.726562 201.410156 " fill-opacity="1" fill-rule="nonzero"></path></g><path fill="#363737" d="M 152.253906 131.71875 C 152.253906 132.359375 151.734375 132.882812 151.09375 132.882812 L 135.070312 132.882812 C 134.429688 132.882812 133.90625 132.359375 133.90625 131.71875 L 133.90625 121.449219 C 133.90625 120.804688 134.429688 120.285156 135.070312 120.285156 L 151.09375 120.285156 C 151.734375 120.285156 152.253906 120.804688 152.253906 121.449219 Z M 164.015625 120.773438 L 161.316406 116.953125 C 161.144531 116.707031 160.800781 116.648438 160.550781 116.820312 L 159.953125 117.242188 C 159.707031 117.421875 159.648438 117.761719 159.824219 118.007812 L 161.761719 120.753906 C 161.289062 121.035156 160.921875 121.496094 160.78125 122.039062 C 160.386719 123.523438 161.53125 124.855469 162.964844 124.800781 C 162.984375 139.203125 162.933594 159.003906 162.722656 161.898438 C 162.460938 161.964844 162.054688 162 161.902344 161.988281 C 161.835938 161.972656 161.761719 161.871094 161.761719 161.753906 C 161.726562 148.511719 160.707031 141.144531 158.730469 139.863281 C 158.4375 139.671875 158.167969 139.617188 157.953125 139.617188 L 157.953125 116.152344 C 157.953125 115.511719 157.429688 114.992188 156.789062 114.992188 L 129.371094 114.992188 C 128.730469 114.992188 128.207031 115.511719 128.207031 116.152344 L 128.207031 164.941406 C 128.207031 165.582031 128.730469 166.101562 129.371094 166.101562 L 156.789062 166.101562 C 157.429688 166.101562 157.953125 165.582031 157.953125 164.941406 L 157.953125 141.664062 C 158.519531 142.582031 159.890625 146.390625 159.929688 161.757812 C 159.933594 162.761719 160.628906 163.617188 161.582031 163.789062 C 161.589844 163.789062 161.761719 163.804688 162.019531 163.804688 C 162.738281 163.804688 164.113281 163.671875 164.441406 162.707031 C 164.8125 161.617188 164.8125 135.847656 164.792969 123.671875 C 164.871094 123.53125 164.9375 123.378906 164.980469 123.222656 C 165.25 122.203125 164.792969 121.25 164.015625 120.773438 " fill-opacity="1" fill-rule="nonzero"></path></svg>