<svg xmlns="http://www.w3.org/2000/svg" width="73" height="70" viewBox="0 0 73 70" fill="none"><path d="M66.8675 46.9225C67.5069 40.4563 68.7721 33.1711 66.7451 26.8371C63.3441 16.1834 52.6105 9.65116 41.394 7.82821C33.9254 6.61291 25.5657 7.12149 18.9406 10.9061C14.7506 13.2971 12.3698 17.0486 10.1864 20.9587C18.1039 19.6377 26.4092 20.6945 34.0547 22.9005C40.7206 24.8226 47.7471 27.2201 50.5087 33.8316C51.9916 37.3586 52.2772 40.9253 50.8284 44.5051C50.1346 46.2158 48.8082 47.5566 48.0124 49.2078C47.0941 51.11 46.4819 53.2038 46.0194 55.2513C45.0331 59.6171 45.6521 64.9737 51.7195 64.3132C55.447 63.9103 59.2697 62.4308 62.5007 60.6871C62.5551 60.6607 62.6095 60.6343 62.6571 60.6276C62.9904 59.6237 63.3373 58.633 63.8883 57.7149C65.7996 54.4983 66.507 50.5618 66.8675 46.9225Z" fill="#F5BC5A"></path><path d="M20.8044 59.6103C17.9815 58.5601 15.5872 56.5522 14.6962 53.547C13.8595 50.6871 14.1792 47.7281 14.0228 44.7889C13.8595 41.7176 13.6418 38.6464 13.5398 35.5751C11.2747 35.0467 9.65587 33.9701 8.43831 32.5302C8.77161 34.908 8.52674 37.332 8.46552 39.7163C8.34988 44.5709 6.7242 50.0001 8.43151 54.7292C9.45181 57.5561 11.2679 59.8216 14.5261 60.0594C16.6279 60.2179 18.7297 59.9867 20.8044 59.6103ZM35.4287 44.168C36.7483 41.6846 38.7277 39.0823 39.9044 36.3875C38.578 31.0375 31.2046 30.6941 26.6337 29.8156C24.0557 29.3203 21.4301 28.7985 18.7978 28.8051C17.5666 28.8117 15.9341 28.7522 14.9002 29.5118C13.2813 30.6941 14.7506 33.2436 15.0771 34.624C15.1247 34.8353 15.0839 35.0137 14.9886 35.1524C14.975 35.1854 14.9614 35.2184 14.9546 35.2448C15.0907 40.0202 15.3492 44.8087 15.5328 49.584C15.7369 54.683 18.7638 58.3553 24.0081 58.9828C27.3343 58.3289 30.7013 57.6816 34.0819 57.5759C32.4018 53.3092 33.3269 48.1112 35.4287 44.168ZM40.6118 34.2937C41.0812 32.3387 40.9451 30.3374 39.6663 28.2965C36.2177 26.0244 31.6672 24.8554 27.9533 24.1552C24.3006 23.4683 20.6003 23.0985 16.8796 22.9664C13.6554 22.8475 9.89394 22.3521 6.86024 23.6136C6.85344 23.6136 6.84664 23.6136 6.84664 23.6202C6.68339 24.1618 6.60857 24.6968 6.60857 25.2186C6.64938 25.2847 6.69019 25.3507 6.7106 25.4432C7.81933 29.5118 9.26135 32.9331 13.4854 34.1418C12.7984 31.5791 11.9073 28.6267 15.5056 27.7747C18.825 26.9887 22.4436 27.6426 25.7358 28.2569C30.572 29.1551 38.0611 29.5977 40.6118 34.2937ZM40.3805 49.1679C42.5028 43.9831 46.5772 39.0493 44.04 33.2171C43.5503 32.0943 42.8565 31.1036 42.0198 30.2317C42.5504 32.3651 42.1967 34.5183 41.3396 36.6121C41.326 36.6781 41.2988 36.7375 41.2716 36.7904C40.9587 37.5367 40.5778 38.2699 40.1629 39.003C37.5713 43.4547 34.3608 47.8139 34.6669 53.2035C34.9185 57.708 37.5577 62.021 41.7682 63.8572C41.0744 63.0514 40.5234 62.0739 40.1357 60.9378C38.8501 57.1995 38.8705 52.8535 40.3805 49.1679ZM55.515 63.0976C57.0319 62.4504 58.2222 62.1663 59.0385 61.0831C54.4947 63.4147 47.1758 66.2283 43.4346 62.2588C41.258 59.9537 41.7477 56.0766 42.4143 53.3026C42.8701 51.4268 43.4006 49.5774 44.1012 47.7677C44.7542 46.0835 46.0738 44.7559 46.822 43.1245C48.747 38.8775 48.1484 33.8908 45.3392 30.1062C42.7204 26.5726 38.8433 24.9412 34.7145 23.574C26.28 20.7669 17.0224 19.1091 8.17983 20.9255C8.17303 20.9255 8.15943 20.9255 8.14582 20.9321C7.96897 21.2689 7.78532 21.6058 7.60846 21.936C9.32257 21.4935 11.0435 21.4737 12.9004 21.4869C15.8389 21.5265 18.791 21.6058 21.7158 21.8964C27.1234 22.4248 32.6399 23.3891 37.5781 25.714C38.5508 26.1763 39.5031 26.6783 40.401 27.2529C40.5642 27.2794 40.7206 27.3718 40.8431 27.5369C43.183 29.1155 45.0807 31.163 45.7949 34.0229C46.8561 38.2699 45.6181 41.8431 43.6319 45.6211C41.3192 50.0266 39.7003 54.683 41.19 59.6433C41.7954 61.6446 42.9381 63.8704 45.0059 64.7356C47.9104 65.1253 50.8352 64.7158 53.6309 63.8836C54.277 63.6326 54.9096 63.3618 55.515 63.0976ZM64.0243 45.3437C64.6433 38.8775 65.8745 31.5923 63.9087 25.2583C60.6029 14.6046 50.1822 8.07235 39.2922 6.2428C32.0413 5.0275 23.9197 5.53608 17.4918 9.32067C13.4242 11.7116 11.1115 15.4632 8.98927 19.3733C16.6823 18.0523 24.7427 19.1091 32.1637 21.3151C38.6392 23.2372 45.4548 25.6347 48.1416 32.2462C49.5837 35.7732 49.8625 39.3399 48.4545 42.9197C47.7811 44.6304 46.4888 45.9712 45.7201 47.6224C44.8291 49.5246 44.2373 51.6183 43.7816 53.6659C42.8225 58.0317 43.421 63.3882 49.3116 62.7278C52.9303 62.3249 56.6441 60.8454 59.7799 59.1017C59.8275 59.0753 59.8819 59.0488 59.9295 59.0422C60.2492 58.0383 60.5893 57.0476 61.1199 56.1295C62.9904 52.9129 63.6706 48.9764 64.0243 45.3437ZM64.6841 23.1249C66.8608 29.023 66.1193 34.8353 65.7588 40.9515C65.5548 44.5313 65.2963 48.1574 64.3644 51.6382C63.5822 54.5839 62.0994 57.1598 61.1131 60.0198C60.3921 62.1003 59.6438 62.8466 58.1406 63.5336C58.093 63.6524 57.9841 63.7515 57.8209 63.8242C56.6918 64.2997 55.5354 64.7092 54.3519 65.0527C52.4269 65.8254 50.4883 66.5256 48.3661 66.5784C46.9445 66.618 45.6521 66.3737 44.5094 65.8783C40.5234 65.231 36.9863 63.1373 34.7145 58.9432C29.0688 59.0092 23.6816 60.8718 18.0972 61.3738C13.5058 61.7899 9.48582 60.8388 7.56765 56.3739C5.26857 51.0305 6.89425 45.2711 7.0507 39.7097C7.15273 36.1167 7.52684 32.484 6.0508 29.0957C5.11893 26.9425 4.83324 25.0865 5.56106 23.006C5.54065 22.8739 5.56786 22.7286 5.64949 22.5833C8.57435 17.3324 11.0775 11.1502 16.764 8.12519C23.3075 4.64442 30.8441 3.56782 38.1971 4.67744C49.2708 6.34187 60.6981 12.3655 64.6841 23.1249Z" fill="#363737"></path><path d="M51.7535 55.8259C52.733 55.5154 52.3997 54.1284 51.6175 53.8708C51.4134 53.8114 51.2978 53.7783 51.0665 53.9303C50.8421 54.0822 50.5768 54.3794 50.5564 54.6568C50.5088 55.3371 50.9917 56.0108 51.7535 55.8259ZM53.7261 54.5907C53.9098 55.7268 53.3928 56.6581 52.3113 57.0808C52.2569 57.1138 52.1957 57.1336 52.1208 57.1534C52.0596 57.1733 51.9984 57.1865 51.944 57.1865C50.4883 57.4242 49.0327 56.2816 49.1211 54.7823C49.1892 53.6 50.2299 52.2856 51.5767 52.464C52.6514 52.6027 53.5561 53.5538 53.7261 54.5907Z" fill="#363737"></path><path d="M39.3467 17.9866C40.3466 18.1517 41.2513 18.898 41.122 19.9614C41.0064 20.8795 40.2922 21.6985 39.3331 21.8702C38.1428 22.0816 36.6667 21.2164 36.5987 19.9746C36.5307 18.6735 37.9319 17.8281 39.1563 17.9668C39.1903 17.9734 39.2243 17.98 39.2583 17.9866C39.2923 17.98 39.3195 17.98 39.3467 17.9866ZM39.6596 20.0209C39.7072 19.8888 39.714 19.8756 39.714 19.8227C39.714 19.6642 39.7072 19.6246 39.5916 19.5255C39.4964 19.4463 39.2719 19.3802 39.0746 19.334C38.6733 19.3142 37.8571 19.4661 38.0407 19.968C38.1223 20.2058 38.4352 20.4172 38.6801 20.4832C38.8842 20.5427 39.0066 20.5427 39.1835 20.4766C39.2583 20.4502 39.4964 20.2851 39.5304 20.2388C39.5576 20.1992 39.646 20.0209 39.6596 20.0209Z" fill="#363737"></path><path d="M17.1041 13.8519C18.104 14.017 19.0087 14.7634 18.8794 15.8268C18.7638 16.7449 18.0496 17.5639 17.0973 17.7356C15.9069 17.947 14.4309 17.0817 14.3697 15.84C14.3017 14.5388 15.7029 13.6934 16.9272 13.8321C16.9613 13.8387 16.9953 13.8453 17.0293 13.8519C17.0497 13.8453 17.0701 13.8453 17.1041 13.8519ZM17.4102 15.8862C17.4578 15.7541 17.4646 15.7409 17.4646 15.6881C17.4646 15.5296 17.4578 15.4833 17.3422 15.3909C17.2469 15.3116 17.0293 15.2456 16.8252 15.1993C16.4239 15.1795 15.6077 15.3314 15.7845 15.8334C15.8729 16.0712 16.179 16.2759 16.4239 16.3486C16.628 16.4014 16.7504 16.408 16.9272 16.342C17.0021 16.3155 17.2401 16.1504 17.2741 16.1042C17.3082 16.0646 17.4034 15.8862 17.4102 15.8862Z" fill="#363737"></path></svg>