<?xml version="1.0" encoding="UTF-8"?>
<svg xmlns="http://www.w3.org/2000/svg" width="84" height="90" viewBox="0 0 84 90" fill="none">
  <path d="M39.9165 47.2548C39.9504 45.6961 40.2479 43.8693 41.5394 43.1801C42.1888 42.8323 42.9517 42.8658 43.6482 42.6568C45.9338 41.9707 46.8631 38.9841 46.9455 36.4154C47.0295 33.8515 46.6363 31.294 46.6171 28.727C46.5965 26.1615 47.0015 23.4652 48.4638 21.4454C50.1368 19.1368 52.8951 18.0997 55.5621 17.5796C61.3261 16.4548 67.5113 17.3196 72.5964 20.3972C72.2636 19.2692 71.8453 18.1715 71.3417 17.1169C68.4877 11.1516 62.8105 6.78007 56.6327 6.19614C55.2381 6.06372 53.8155 6.11796 52.4621 6.50406C48.3343 7.68149 45.7203 11.5393 43.0076 14.8051C42.1888 15.7911 40.0181 19.1751 38.6692 18.9118C37.681 18.7188 35.7651 14.9025 34.7416 14.0521C31.2675 11.1627 27.4592 8.56537 23.1915 7.49802C15.108 5.47979 8.43388 10.8421 6.28232 19.2117C4.4032 26.5173 4.28391 36.1825 10.0023 41.5559C19.015 50.0245 28.0277 58.4931 37.0419 66.9617C37.7399 67.6174 38.491 68.3003 39.407 68.4407C40.7058 68.6417 41.8958 67.702 42.9222 66.8149C43.2256 66.5517 43.5304 66.29 43.8338 66.0268L44.4287 65.5131C43.1225 63.3225 41.9679 59.9354 41.666 59.0116C40.4378 55.2496 39.8296 51.2466 39.9165 47.2548Z" fill="#FCBC5A"></path>
  <path d="M73.991 15.1368C73.7502 14.5387 73.4823 13.9527 73.1843 13.3787C70.1636 7.54421 64.1539 3.27039 57.6145 2.69944C56.138 2.56988 54.6329 2.62261 53.2001 3.00073C48.831 4.15317 46.0647 7.92534 43.193 11.119C42.3261 12.0832 40.0294 15.3944 38.6011 15.1352C37.5551 14.9454 35.5263 11.2154 34.4441 10.3839C30.7658 7.55776 26.7352 5.01788 22.217 3.9739C13.6608 1.99743 6.59757 7.24141 4.31891 15.4275C2.33073 22.5726 2.20431 32.0241 8.25614 37.2787C17.7967 45.5612 27.3372 53.8422 36.8778 62.1247C37.6168 62.7664 38.413 63.4353 39.3807 63.5724C40.7563 63.7682 42.0161 62.8493 43.1027 61.9816" stroke="#363737" stroke-width="3" stroke-miterlimit="10" stroke-linecap="round"></path>
  <path d="M46.2919 39.5775C45.5032 39.469 44.7025 39.3606 43.9139 39.4675C43.1252 39.5745 42.3351 39.9285 41.873 40.5778C40.8361 42.0345 41.4847 44.8185 41.7842 46.4696C42.2553 49.0667 43.2201 51.5629 44.2315 53.9898C44.5957 54.862 44.9614 55.7403 45.4716 56.5357C47.1633 59.175 50.2442 60.6498 52.0367 63.2214C54.2973 66.4663 54.0926 70.4629 53.7991 74.4068" stroke="#363737" stroke-width="3" stroke-miterlimit="10" stroke-linecap="round"></path>
  <path d="M50.2006 49.0547C50.2006 41.3869 49.7326 33.7205 48.7979 26.1099C48.5722 24.275 48.2606 22.2112 48.8566 20.4125C49.4406 18.6514 51.7162 16.5725 53.7511 17.4191C54.5352 17.746 54.8618 18.6635 55.0845 19.4845C57.0953 26.8947 57.5619 34.647 57.9005 42.2847" stroke="#363737" stroke-width="3" stroke-miterlimit="10" stroke-linecap="round"></path>
  <path d="M56.9944 15.8267C58.9464 14.9891 61.4524 15.7695 62.5872 17.5667C63.3472 18.7718 63.4962 20.2497 63.6257 21.6687C64.2608 28.6587 64.8959 35.6472 65.5311 42.6371" stroke="#363737" stroke-width="3" stroke-miterlimit="10" stroke-linecap="round"></path>
  <path d="M66.3633 17.7746C67.6471 17.0726 69.3343 17.8333 70.153 19.0475C70.9718 20.2602 71.1433 21.7833 71.2923 23.24C71.9365 29.549 72.5792 35.8581 73.2233 42.1686" stroke="#363737" stroke-width="3" stroke-miterlimit="10" stroke-linecap="round"></path>
  <path d="M74.0195 24.0639C75.7428 23.2037 77.9327 24.2176 79.0073 25.8159C80.0819 27.4143 80.3107 29.4209 80.4552 31.3431C80.9202 37.5136 80.8374 43.7111 80.7562 49.8997C80.7215 52.4667 80.6869 55.0517 80.2008 57.572C79.5988 60.6979 78.3195 63.6461 77.4104 66.6952C76.5014 69.7457 75.9671 72.2901 76.8791 75.3392" stroke="#363737" stroke-width="3" stroke-miterlimit="10" stroke-linecap="round"></path>
  <path d="M53.7225 69.3873C52.4296 69.1132 51.0149 70.1481 50.8854 71.4647C50.756 72.7814 51.9405 74.0739 53.2634 74.0559C60.6518 77.4288 69.3209 77.8898 77.0253 75.3198C78.273 74.904 79.7298 74.0348 80.681 73.1204C82.8182 71.0655 77.7688 70.2762 76.5963 70.2867" stroke="#363737" stroke-width="3" stroke-miterlimit="10" stroke-linecap="round"></path>
  <path d="M50.8281 72.2917C51.2014 77.2043 51.1592 81.9768 51.3022 86.9014" stroke="#363737" stroke-width="3" stroke-miterlimit="10" stroke-linecap="round"></path>
  <path d="M81.2273 72.917C81.1686 77.5343 80.5094 82.7376 80.4507 87.3654" stroke="#363737" stroke-width="3" stroke-miterlimit="10" stroke-linecap="round"></path>
</svg>
