<?xml version="1.0" encoding="UTF-8"?>
<svg xmlns="http://www.w3.org/2000/svg" width="64" height="64" viewBox="0 0 64 64" fill="none">
  <path d="M43.7996 6.7754C51.0449 10.0927 56.7077 16.561 58.9422 24.0728C59.9603 27.4936 60.2912 31.0745 60.3935 34.6366C60.5725 40.904 60.0019 47.6406 56.2634 52.954C52.9964 57.5973 47.7539 60.7451 42.2716 62.2672C29.4674 65.8215 13.6823 64.4861 5.78654 52.7876C-0.963212 42.7855 -1.43951 28.0774 4.73643 17.7347C12.1271 5.35527 30.778 0.81556 43.7996 6.7754Z" fill="#FCBC5A"></path>
  <circle cx="32" cy="32" r="31.25" stroke="#363737" stroke-width="1.5"></circle>
  <circle cx="32" cy="32" r="29" fill="#F1E6D6"></circle>
  <path d="M35.9167 20.1665H20.0834C15.7112 20.1665 12.1667 23.7109 12.1667 28.0832V43.9165C12.1667 48.2888 15.7112 51.8332 20.0834 51.8332H35.9167C40.289 51.8332 43.8334 48.2888 43.8334 43.9165V28.0832C43.8334 23.7109 40.289 20.1665 35.9167 20.1665Z" fill="#FCBC5A"></path>
  <path d="M38.9167 17.1665H23.0834C18.7112 17.1665 15.1667 20.7109 15.1667 25.0832V40.9165C15.1667 45.2888 18.7112 48.8332 23.0834 48.8332H38.9167C43.289 48.8332 46.8334 45.2888 46.8334 40.9165V25.0832C46.8334 20.7109 43.289 17.1665 38.9167 17.1665Z" stroke="#363737" stroke-width="2" stroke-linecap="round" stroke-linejoin="round"></path>
  <path d="M37.3333 32.0025C37.5287 33.3202 37.3036 34.666 36.6901 35.8484C36.0765 37.0309 35.1058 37.9897 33.9159 38.5886C32.7259 39.1876 31.3775 39.396 30.0623 39.1844C28.7471 38.9727 27.5321 38.3518 26.5901 37.4098C25.6481 36.4679 25.0272 35.2529 24.8156 33.9377C24.6039 32.6224 24.8124 31.274 25.4113 30.0841C26.0102 28.8942 26.9691 27.9234 28.1515 27.3099C29.3339 26.6963 30.6797 26.4713 31.9974 26.6667C33.3416 26.866 34.586 27.4923 35.5468 28.4531C36.5076 29.414 37.134 30.6584 37.3333 32.0025Z" stroke="#363737" stroke-width="2" stroke-linecap="round" stroke-linejoin="round"></path>
  <path d="M39.7083 24.2915H39.7233" stroke="#363737" stroke-width="2" stroke-linecap="round" stroke-linejoin="round"></path>
</svg>
