<?xml version="1.0" encoding="UTF-8"?>
<svg xmlns="http://www.w3.org/2000/svg" width="98" height="90" viewBox="0 0 98 90" fill="none">
  <path d="M24.7846 52.2475C22.4835 49.183 20.3344 45.9998 18.3517 42.7143C17.5576 41.3994 16.114 38.8371 16.6893 37.2154C17.525 34.8521 20.5425 36.1086 22.1326 37.0145C23.7318 37.9239 25.0469 39.259 26.3386 40.5739C27.4475 41.7044 28.5564 42.833 29.6653 43.9635C32.3572 46.7047 35.0942 49.5099 36.7892 52.9707C39.3562 58.2121 39.6692 65.4607 38.1967 71.0929C37.4315 74.0204 35.731 73.668 33.041 73.5146C29.5785 73.3155 26.1124 73.1749 22.6445 73.0927" stroke="#363737" stroke-width="3" stroke-miterlimit="10" stroke-linecap="round"></path>
  <path d="M15.4609 31.3622C14.5022 22.9065 13.1128 14.5001 11.302 6.18686C10.9818 4.72218 10.251 2.19643 8.27553 2.48316C5.31417 2.91234 5.76462 12.8108 5.51678 15.1557C4.93609 20.662 4.3554 26.1682 3.7747 31.6763C3.40928 35.1517 3.05833 38.7678 4.23238 42.0551C4.93066 44.011 6.13185 45.735 7.31857 47.4317C11.226 53.0201 15.1444 58.6231 19.6217 63.7568C20.6673 64.9549 21.7545 66.1456 22.4709 67.5683C23.1873 68.9909 23.4912 70.7131 22.8942 72.1906" stroke="#363737" stroke-width="3" stroke-miterlimit="10" stroke-linecap="round"></path>
  <path d="M16.6657 79.5304C16.8937 77.8977 17.6281 76.2669 18.965 75.3227C20.0577 74.552 21.4235 74.3127 22.7459 74.1319C28.5419 73.3448 34.3471 73.5293 40.1576 73.2535C41.3769 73.1951 42.7174 73.3795 43.5604 74.2707C44.0705 74.8113 44.3292 75.54 44.5481 76.2541C45.0257 77.8046 47.9599 85.8622 44.483 85.8329C43.9873 85.8293 43.5333 85.5773 43.0792 85.38C39.0324 83.6359 32.0677 85.8311 27.8581 86.4338C24.4554 86.9196 21.0237 87.8638 17.5648 87.4255C16.0326 87.2319 15.8083 86.4648 16.3419 85.0896C17.08 83.1885 16.398 81.4444 16.6657 79.5304Z" stroke="#363737" stroke-width="3" stroke-miterlimit="10" stroke-linecap="round"></path>
  <path d="M82.6081 31.3622C83.5669 22.9065 84.9562 14.5001 86.767 6.18686C87.0872 4.72218 87.8181 2.19643 89.7935 2.48316C92.7567 2.91234 92.3062 12.8108 92.5541 15.1557C93.1348 20.662 93.7155 26.1682 94.2962 31.6763C94.6634 35.1517 95.0143 38.7678 93.8403 42.0551C93.142 44.011 91.9408 45.735 90.7541 47.4317C86.8466 53.0201 82.9283 58.6231 78.451 63.7568C77.4054 64.9549 76.3181 66.1456 75.6018 67.5683C74.8854 68.9909 74.5815 70.7131 75.1785 72.1906C75.3105 72.5157 75.4136 72.7403 75.4281 73.0891C71.9602 73.1713 68.4941 73.3119 65.0317 73.511C62.3417 73.6662 60.6412 74.0187 59.876 71.0893C58.4034 65.4571 58.7164 58.2086 61.2834 52.9671C62.9785 49.5081 65.7155 46.7011 68.4073 43.9599C69.5162 42.8294 70.6252 41.7008 71.7341 40.5703C73.0257 39.2536 74.3409 37.9204 75.9401 37.0109C77.5302 36.105 80.5476 34.8504 81.3834 37.2118C81.9569 38.8335 80.5151 41.3958 79.7209 42.7107C77.7382 45.9944 75.5891 49.1776 73.288 52.2439" stroke="#363737" stroke-width="3" stroke-miterlimit="10" stroke-linecap="round"></path>
  <path d="M81.4032 79.5304C81.1753 77.8977 80.4408 76.2669 79.104 75.3227C78.0113 74.552 76.6455 74.3127 75.3231 74.1319C69.527 73.3448 63.7219 73.5293 57.9113 73.2535C56.6921 73.1951 55.3516 73.3795 54.5086 74.2707C53.9984 74.8113 53.7397 75.54 53.5209 76.2541C53.0433 77.8046 50.109 85.8622 53.586 85.8329C54.0816 85.8293 54.5357 85.5773 54.9898 85.38C59.0365 83.6359 66.0013 85.8311 70.2108 86.4338C73.6136 86.9196 77.0453 87.8638 80.5041 87.4255C82.0364 87.2319 82.2607 86.4648 81.727 85.0896C80.989 83.1885 81.671 81.4444 81.4032 79.5304Z" stroke="#363737" stroke-width="3" stroke-miterlimit="10" stroke-linecap="round"></path>
  <path d="M45.2428 15.8832C42.8875 14.0588 40.306 12.4169 37.4116 11.743C31.932 10.4665 27.4077 13.856 25.9496 19.1431C24.6761 23.7581 24.5947 29.8634 28.4714 33.2566C34.5823 38.6058 40.6913 43.9568 46.8022 49.306C47.2761 49.7206 47.7845 50.1516 48.405 50.2411C49.2859 50.3671 50.0928 49.7736 50.7892 49.2129C53.9188 46.6908 57.0484 44.1705 60.178 41.6484C64.2121 38.3976 68.4036 34.9441 70.408 30.141C72.0398 26.2291 71.9891 21.5849 70.0553 17.8172C68.1214 14.0496 64.2718 11.2883 60.084 10.9194C59.1379 10.8354 58.1755 10.8701 57.2565 11.1148C54.4579 11.8581 52.6869 14.2962 50.8471 16.358C50.2918 16.9808 48.821 19.1194 47.9057 18.9532C47.2363 18.8308 45.9375 16.422 45.2428 15.8832Z" fill="#FCBC5A"></path>
  <path d="M45.8144 12.3854C43.4591 10.561 40.8776 8.91912 37.9832 8.24522C32.5037 6.96865 27.9793 10.3582 26.5213 15.6453C25.2477 20.2603 25.1663 26.3656 29.043 29.7588C35.1539 35.108 41.263 40.459 47.3738 45.8082C47.8478 46.2228 48.3561 46.6538 48.9766 46.7433C49.8576 46.8693 50.6644 46.2758 51.3609 45.7151C54.4905 43.193 57.6201 40.6727 60.7497 38.1506C64.7838 34.8998 68.9753 31.4463 70.9797 26.6432C72.6114 22.7313 72.5608 18.0871 70.6269 14.3194C68.6931 10.5518 64.8435 7.79048 60.6556 7.42157C59.7095 7.33756 58.7471 7.37226 57.8281 7.61698C55.0296 8.36028 53.2585 10.7984 51.4188 12.8602C50.8634 13.483 49.3927 15.6216 48.4773 15.4554C47.808 15.333 46.5073 12.9223 45.8144 12.3854Z" stroke="#363737" stroke-width="3" stroke-miterlimit="10" stroke-linecap="round"></path>
</svg>
