<?xml version="1.0" encoding="UTF-8"?>
<svg xmlns="http://www.w3.org/2000/svg" width="249" height="112" viewBox="0 0 249 112" fill="none">
  <path d="M99.8319 47.7061L99.2223 55.1823H79.9664L80.4684 45.7181L79.9664 22.9442H90.1741L89.6243 44.7181L89.7199 47.0157H99.2821L99.8319 47.7061Z" fill="#363737"></path>
  <path d="M120.785 22.349C125.485 22.349 129.119 23.7389 131.686 26.5157C134.258 29.2865 135.546 33.1942 135.546 38.2419C135.546 43.8222 134.136 48.1407 131.315 51.1942C128.494 54.2508 124.502 55.7776 119.338 55.7776C114.635 55.7776 110.998 54.3788 108.425 51.5752C105.859 48.7657 104.577 44.7865 104.577 39.6347C104.577 34.1288 105.981 29.8698 108.796 26.8609C111.617 23.855 115.612 22.349 120.785 22.349ZM119.888 30.3252C118.588 30.3252 117.605 30.5514 116.936 31.0038C116.266 31.4502 115.788 32.2359 115.501 33.3609C115.221 34.4889 115.083 36.1317 115.083 38.2895C115.083 41.0514 115.23 43.1466 115.525 44.5752C115.827 46.0038 116.338 47.0008 117.055 47.5633C117.773 48.1288 118.83 48.4085 120.235 48.4085C121.532 48.4085 122.518 48.1883 123.187 47.7419C123.856 47.2895 124.329 46.4919 124.609 45.349C124.896 44.2002 125.04 42.5454 125.04 40.3847C125.04 37.6645 124.887 35.5871 124.586 34.1585C124.281 32.73 123.773 31.7359 123.056 31.1704C122.344 30.6079 121.29 30.3252 119.888 30.3252Z" fill="#363737"></path>
  <path d="M162.907 47.7061L162.298 55.1823H143.042L143.544 45.7181L143.042 22.9442H153.249L152.699 44.7181L152.795 47.0157H162.357L162.907 47.7061Z" fill="#363737"></path>
  <path d="M197.665 55.1823H187.517L186.609 49.849L186.561 49.7061L181.66 49.599L177.561 49.8014L176.712 55.1823H166.899L176.712 22.9442H188.808L197.665 55.1823ZM185.067 42.4323L182.856 31.8609H182.258L179.461 42.4323L182.258 42.48L185.067 42.4323Z" fill="#363737"></path>
  <path d="M227.973 22.349C231.144 22.349 234.279 22.9323 237.38 24.099L235.779 32.218L234.38 32.8133C232.976 31.9502 231.589 31.2716 230.221 30.7776C228.858 30.2776 227.761 30.0276 226.934 30.0276C226.16 30.0276 225.547 30.1794 225.093 30.48C224.645 30.7746 224.423 31.1704 224.423 31.6704C224.423 32.2984 224.764 32.8371 225.451 33.2895C226.136 33.7359 227.28 34.3222 228.882 35.0514C230.746 35.8847 232.276 36.6585 233.472 37.3728C234.673 38.0871 235.725 39.0692 236.627 40.3133C237.527 41.5603 237.978 43.096 237.978 44.9204C237.978 46.9442 237.419 48.7776 236.305 50.4204C235.187 52.0633 233.594 53.3698 231.523 54.3371C229.459 55.2954 227.059 55.7776 224.328 55.7776C220.924 55.7776 217.353 55.1466 213.618 53.8847L215.076 45.218L216.068 44.6228C217.604 45.7835 219.248 46.7032 220.993 47.3847C222.744 48.0692 224.208 48.4085 225.38 48.4085C226.312 48.4085 226.984 48.2508 227.4 47.9323C227.821 47.6169 228.033 47.227 228.033 46.7657C228.033 46.0692 227.675 45.477 226.957 44.9919C226.24 44.5097 225.081 43.9204 223.479 43.2299C221.644 42.4294 220.135 41.6704 218.949 40.9561C217.76 40.2419 216.732 39.2627 215.865 38.0157C215.005 36.7716 214.574 35.2359 214.574 33.4085C214.574 31.3222 215.139 29.4413 216.272 27.7657C217.401 26.0841 218.985 24.7627 221.017 23.8014C223.055 22.8341 225.374 22.349 227.973 22.349Z" fill="#363737"></path>
  <path d="M203.027 15.997C203.066 16.003 203.104 16.0089 203.14 16.0208C204.643 16.5387 205.229 18.3512 205.115 19.8512C205.083 21.2232 204.231 22.8601 202.746 22.9345C202.534 22.9435 202.319 22.8899 202.124 22.8036C200.49 21.9345 200.047 19.7083 200.576 18.003C200.827 16.8899 201.846 15.7947 203.027 15.997ZM209.571 17.1012C210.527 17.2768 211.119 18.3958 211.122 19.3601C211.146 21.2768 209.95 23.4673 207.966 23.7589C207.784 23.7708 207.599 23.7441 207.425 23.6875C206.179 23.2679 205.871 21.7083 206.114 20.5298C206.403 18.9673 207.482 17.2768 209.138 17.0863C209.29 17.0685 209.433 17.0744 209.571 17.1012ZM197.986 20.7083C199.632 21.0714 200.502 22.9554 200.412 24.5744C200.448 25.756 199.608 27.1994 198.32 27.0893C196.545 26.7857 195.64 24.6429 195.858 22.9554C195.921 21.8274 196.772 20.5804 197.986 20.7083ZM212.481 23.378C213.19 23.4822 213.817 24.0298 213.931 24.8036C214.235 26.878 212.598 29.1875 210.494 29.2798C209.619 29.2976 208.979 28.5089 208.896 27.6667C208.722 25.8691 209.959 24.0089 211.639 23.4703C211.914 23.3631 212.203 23.3363 212.481 23.378ZM204.464 25.75C205.851 25.9703 207.144 26.9167 207.871 28.1339C208.642 29.5417 209.206 31.125 209.263 32.7589C209.46 33.9583 208.397 35.1339 207.21 34.9554C205.776 34.7738 204.709 33.5714 203.302 33.2738C202.127 32.8958 200.95 33.3691 199.799 33.6191C198.813 33.881 197.564 33.5238 197.257 32.4316C197.05 31.3333 197.77 30.3125 198.368 29.4613C199.528 28.1101 200.762 26.6935 202.42 25.9941C203.086 25.7054 203.786 25.6399 204.464 25.747V25.75Z" fill="#363737"></path>
  <path d="M182.794 30.1161C182.83 30.122 182.868 30.131 182.907 30.1399C184.41 30.6577 184.993 32.4702 184.882 33.9732C184.85 35.3452 183.998 36.9822 182.513 37.0566C182.298 37.0655 182.085 37.0119 181.891 36.9226C180.257 36.0536 179.814 33.8274 180.343 32.125C180.594 31.0089 181.613 29.9137 182.794 30.1161ZM189.338 31.2202C190.294 31.3958 190.886 32.5149 190.889 33.4822C190.913 35.3988 189.717 37.5863 187.733 37.878C187.548 37.8899 187.366 37.8661 187.189 37.8095C185.946 37.3869 185.638 35.8304 185.88 34.6488C186.167 33.0863 187.249 31.3988 188.905 31.2054C189.057 31.1905 189.2 31.1964 189.338 31.2202ZM177.75 34.8274C179.399 35.1905 180.269 37.0774 180.176 38.6935C180.215 39.878 179.375 41.3185 178.084 41.2083C176.312 40.9077 175.407 38.7649 175.625 37.0774C175.688 35.9464 176.539 34.6994 177.75 34.8274ZM192.248 37.5C192.957 37.6042 193.584 38.1488 193.698 38.9256C194.002 40.997 192.365 43.3066 190.261 43.4018C189.386 43.4167 188.746 42.628 188.662 41.7887C188.489 39.9911 189.726 38.128 191.406 37.5893C191.681 37.4851 191.97 37.4583 192.248 37.5ZM184.228 39.8691C185.618 40.0893 186.911 41.0357 187.638 42.253C188.409 43.6607 188.97 45.247 189.03 46.878C189.227 48.0774 188.163 49.256 186.977 49.0774C185.543 48.8929 184.476 47.6935 183.069 47.3958C181.894 47.0179 180.714 47.4911 179.566 47.7411C178.58 48 177.331 47.6458 177.023 46.5506C176.817 45.4554 177.537 44.4345 178.135 43.5833C179.295 42.2292 180.529 40.8125 182.187 40.1161C182.853 39.8244 183.553 39.7619 184.228 39.8691Z" fill="#363737"></path>
  <path d="M80.3569 77.3211H84.3701V71.9283H86.2646L88.5027 77.3211H92.6862L90.1283 71.1455C91.2339 70.3866 91.8256 69.086 91.8256 67.4699C91.8256 64.7735 90.1761 63.0324 87.2985 63.0324H80.3569V77.3211ZM84.3701 68.7914V66.1217H86.411C87.3224 66.1217 87.8155 66.5384 87.8155 67.4699C87.8155 68.3985 87.3224 68.7914 86.411 68.7914H84.3701Z" fill="#363737"></path>
  <path d="M96.0317 63.0324V77.3211H107.5V74.2318H100.045V71.7318H105.483V68.6217H100.045V66.1217H107.5V63.0324H96.0317Z" fill="#363737"></path>
  <path d="M111.387 77.3211H115.4V69.8717L121.798 77.3211H124.896V63.0324H120.91V70.4818L114.488 63.0324H111.387V77.3211Z" fill="#363737"></path>
  <path d="M128.22 63.0324V66.586H132.526V77.3211H136.536V66.586H140.842V63.0324H128.22Z" fill="#363737"></path>
  <path d="M148.224 63.0324L143.033 77.3211H147.291L148.101 74.8449H153.196L154.009 77.3211H158.264L153.098 63.0324H148.224ZM152.016 71.2914H149.285L150.662 67.1753L152.016 71.2914Z" fill="#363737"></path>
  <path d="M161.586 63.0324V77.3211H173.054V73.7676H165.599V63.0324H161.586Z" fill="#363737"></path>
  <path d="M186.441 63.842C185.162 63.0563 183.659 62.6902 181.469 62.6902C178.05 62.6902 176.105 64.3807 176.105 67.0771C176.105 69.6485 177.605 70.8509 179.969 71.4878L182.305 72.1009C183.241 72.3449 183.56 72.7378 183.56 73.2765C183.56 73.8896 183.094 74.2824 181.839 74.2824C179.795 74.2824 177.901 73.842 176.105 72.8598V76.4134C177.435 77.1991 179.329 77.6396 181.741 77.6396C185.775 77.6396 187.574 75.7527 187.574 73.2765C187.574 70.7527 186.39 69.5771 183.635 68.842L181.421 68.2289C180.486 67.9819 180.115 67.5652 180.115 67.0771C180.115 66.4134 180.659 66.0711 182.06 66.0711C183.315 66.0711 184.914 66.3896 186.441 67.1247V63.842Z" fill="#363737"></path>
  <path fill-rule="evenodd" clip-rule="evenodd" d="M48.8062 25.0565C49.7355 25.0565 51.5941 25.0565 51.5941 25.0565C52.5265 25.9792 52.5265 26.9018 52.5265 27.8244C51.5941 27.8244 51.5941 27.8244 50.6648 26.9018C49.7355 26.9018 49.7355 25.9792 48.8062 25.0565Z" fill="#FCBC5A"></path>
  <path fill-rule="evenodd" clip-rule="evenodd" d="M52.5265 68.4196C55.3144 70.2649 56.2438 72.1101 56.2438 73.9553C56.2438 75.8006 55.3144 77.6458 52.5265 79.4911C52.5265 78.5684 52.5265 78.5684 51.5941 78.5684C53.4558 76.7232 53.4558 75.8006 53.4558 73.9553C53.4558 72.1101 53.4558 70.2649 52.5265 68.4196C52.5265 68.4196 52.5265 68.4196 51.5941 67.497C52.5265 67.497 52.5265 68.4196 52.5265 68.4196ZM32.9986 66.5744C40.4362 71.1875 45.0859 75.8006 48.8062 79.4911C51.5941 83.1815 53.4558 87.7946 53.4558 90.5625C52.5264 88.7173 50.6648 85.9494 47.8768 85.0268C38.5776 80.4137 46.9475 81.3363 33.9279 82.2589C30.2106 83.1815 26.4903 89.6399 26.4903 89.6399L25.561 90.5625C24.6317 90.5625 24.6317 89.6399 24.6317 89.6399C25.561 88.7173 26.4903 86.872 25.561 85.9494C25.561 84.1042 24.6317 83.1815 23.6994 82.2589H22.77C20.9114 82.2589 19.0527 82.2589 18.1204 83.1815C16.2618 84.1042 15.3324 85.9494 14.4031 87.7946C14.4031 88.7173 14.4031 88.7173 14.4031 88.7173V89.6399C14.4031 89.6399 14.4031 89.6399 13.4738 89.6399C12.5415 84.1042 13.4738 77.6458 15.3324 71.1875C16.2618 63.8065 19.0527 56.4256 22.77 49.0446C25.561 42.5863 26.4903 37.9732 27.4197 34.2827C27.4197 30.5923 27.4197 27.8244 25.561 25.9792H24.6317C23.6994 25.9792 24.6317 26.9018 23.6994 26.9018L18.1204 30.5923C17.1911 31.5149 16.2618 31.5149 16.2618 31.5149C15.3324 31.5149 14.4031 30.5923 14.4031 30.5923C13.4738 29.6696 13.4738 29.6696 13.4738 28.747C13.4738 28.747 13.4738 27.8244 14.4031 26.9018L19.0527 23.2113C19.9821 21.3661 22.77 19.5208 23.6994 20.4434C27.4197 22.2887 28.349 24.1339 30.2106 27.8244C33.9279 27.8244 36.7189 27.8244 39.5069 27.8244C41.3685 27.8244 43.2272 26.9018 45.0859 26.9018C46.0152 28.747 48.8062 30.5923 50.6648 31.5149C50.6648 32.4375 49.7355 33.3601 48.8062 34.2827C46.9475 36.128 45.0859 38.8958 41.3685 42.5863C35.7896 47.1994 32.0693 50.8899 30.2106 55.503C28.349 59.1934 29.2783 62.8839 32.9986 65.6518V66.5744ZM44.1565 18.5982C41.3685 18.5982 38.5776 19.5208 37.6482 19.5208C35.7896 19.5208 38.5776 23.2113 38.5776 24.1339L35.7896 25.0565H34.8573C34.8573 25.0565 32.0693 20.4434 32.9986 18.5982C32.9986 18.5982 32.9986 17.6756 33.9279 17.6756C35.7896 16.753 37.6482 15.8304 39.5069 15.8304C40.4362 15.8304 46.0152 15.8304 45.0859 18.5982C44.1565 18.5982 44.1565 18.5982 44.1565 18.5982Z" fill="#FCBC5A"></path>
  <path d="M53.4557 77.6458C54.385 76.7232 54.385 74.878 55.3144 73.9554C55.3144 72.1101 54.385 70.2649 53.4557 68.4197C53.4557 67.497 53.4557 67.497 53.4557 67.497C53.4557 67.497 53.4557 67.497 54.385 68.4197C56.2437 70.2649 57.173 72.1101 57.173 73.9554C57.173 74.878 56.2437 76.7232 53.4557 78.5685C53.4557 78.5685 53.4557 78.5685 53.4557 77.6458ZM55.3144 81.3363C58.1053 78.5685 59.964 75.8006 59.964 73.9554C59.964 71.1875 59.0347 68.4197 55.3144 66.5744C54.385 64.7292 53.4557 64.7292 52.5264 63.8066C51.5941 63.8066 51.5941 63.8066 50.6647 63.8066C50.6647 64.7292 49.7354 64.7292 49.7354 65.6518C49.7354 66.5744 50.6647 67.497 51.5941 69.3423C52.5264 70.2649 52.5264 72.1101 52.5264 73.0327C52.5264 73.9554 51.5941 74.878 51.5941 75.8006C47.8768 72.1101 43.2271 67.497 36.7189 62.8839C33.9279 61.0387 32.9986 58.2708 34.8572 54.5804C35.7895 50.8899 39.5068 47.1994 45.0858 42.5863C47.8768 39.8185 50.6647 37.0506 52.5264 34.2828C54.385 32.4375 55.3144 29.6697 55.3144 28.747V27.8244C56.2437 25.9792 55.3144 24.1339 53.4557 23.2113C52.5264 22.2887 49.7354 22.2887 46.9474 23.2113C45.0858 23.2113 43.2271 24.1339 40.4362 24.1339C39.5068 21.3661 39.5068 20.4435 39.5068 20.4435C41.3685 20.4435 43.2271 20.4435 45.0858 20.4435C46.0151 20.4435 46.9474 20.4435 47.8768 19.5208C48.8061 19.5208 48.8061 18.5982 48.8061 17.6756C49.7354 17.6756 49.7354 16.753 49.7354 15.8304C48.8061 13.0625 44.1565 12.1399 41.3685 12.1399C38.5775 12.1399 36.7189 13.0625 34.8572 13.9851H33.9279C32.9986 14.9077 32.0692 15.8304 32.0692 16.753C32.0692 18.5982 32.0692 19.5208 32.0692 20.4435C32.9986 21.3661 32.9986 22.2887 33.9279 24.1339C32.9986 24.1339 32.9986 24.1339 32.9986 24.1339C30.2106 20.4435 28.3489 18.5982 25.561 17.6756C23.6993 15.8304 20.9113 16.753 19.0527 18.5982L14.403 24.1339C13.4737 25.0566 12.5414 26.9018 12.5414 27.8244C12.5414 28.747 13.4737 29.6697 14.403 30.5923C15.3324 31.5149 16.2617 32.4375 17.191 32.4375C19.0527 32.4375 19.982 32.4375 20.9113 31.5149L25.561 26.9018C26.4903 28.747 26.4903 30.5923 26.4903 33.3601C25.561 36.128 24.6316 40.7411 21.8407 46.2768C18.1204 54.5804 16.2617 61.9613 14.403 69.3423C12.5414 75.8006 11.6121 82.2589 12.5414 87.7947C12.5414 88.7173 12.5414 89.6399 13.4737 90.5625C14.403 90.5625 14.403 90.5625 15.3324 90.5625C16.2617 90.5625 17.191 90.5625 17.191 90.5625C18.1204 89.6399 18.1204 88.7173 18.1204 88.7173C19.0527 87.7947 19.0527 87.7947 19.0527 87.7947C19.0527 85.9494 19.982 85.0268 20.9113 84.1042C21.8407 83.1816 22.77 83.1816 23.6993 83.1816C24.6316 84.1042 24.6316 84.1042 24.6316 85.0268C25.561 85.9494 24.6316 86.872 24.6316 87.7947C24.6316 88.7173 24.6316 88.7173 24.6316 89.6399C24.6316 90.5625 24.6316 90.5625 25.561 90.5625C25.561 91.4851 26.4903 91.4851 26.4903 91.4851C27.4196 91.4851 28.3489 91.4851 28.3489 91.4851C31.1399 90.5625 31.1399 86.872 34.8572 85.0268C36.7189 84.1042 39.5068 83.1816 42.2978 83.1816C44.1565 83.1816 46.9474 84.1042 48.8061 85.0268C52.5264 87.7947 52.5264 91.4851 53.4557 92.4078C54.385 92.4078 54.385 92.4078 55.3144 92.4078H56.2437C57.173 91.4851 57.173 91.4851 57.173 91.4851C57.173 90.5625 57.173 90.5625 57.173 89.6399C58.1053 86.872 57.173 84.1042 55.3144 81.3363ZM37.6482 24.1339H36.7189C36.7189 24.1339 33.9279 18.5982 34.8572 17.6756C34.8572 16.753 34.8572 16.753 35.7895 15.8304C37.6482 14.9077 39.5068 14.9077 41.3685 14.9077C42.2978 14.9077 47.8768 14.9077 46.9474 16.753C46.9474 17.6756 46.9474 17.6756 46.0151 17.6756H45.0858C42.2978 17.6756 40.4362 17.6756 39.5068 18.5982C36.7189 18.5982 36.7189 19.5208 36.7189 21.3661L37.6482 24.1339ZM41.3685 25.9792C43.2271 25.9792 45.0858 25.9792 46.0151 25.9792C47.8768 26.9018 48.8061 27.8244 49.7354 28.747C50.6647 28.747 51.5941 29.6697 52.5264 29.6697C51.5941 30.5923 51.5941 31.5149 50.6647 33.3601C48.8061 35.2054 46.0151 37.9732 43.2271 40.7411C36.7189 45.3542 33.9279 49.9673 32.0692 53.6577C30.2106 58.2708 31.1399 61.9613 34.8572 64.7292C42.2978 69.3423 46.9474 73.9554 50.6647 78.5685C53.4557 82.2589 55.3144 85.9494 55.3144 89.6399C54.385 86.872 52.5264 85.0268 49.7354 83.1816C47.8768 82.2589 45.0858 81.3363 42.2978 81.3363C39.5068 80.4137 35.7895 81.3363 33.9279 83.1816C30.2106 85.0268 27.4196 89.6399 27.4196 89.6399C27.4196 89.6399 27.4196 89.6399 26.4903 89.6399C26.4903 88.7173 26.4903 88.7173 26.4903 88.7173C27.4196 86.872 27.4196 85.9494 27.4196 84.1042C27.4196 83.1816 26.4903 82.2589 24.6316 81.3363C22.77 80.4137 20.9113 81.3363 19.982 82.2589C18.1204 83.1816 17.191 85.0268 16.2617 86.872V87.7947V88.7173C15.3324 88.7173 15.3324 88.7173 15.3324 88.7173V87.7947C14.403 82.2589 15.3324 76.7232 16.2617 69.3423C18.1204 62.8839 20.9113 55.503 24.6316 47.1994C27.4196 41.6637 28.3489 37.0506 29.2783 33.3601C29.2783 29.6697 28.3489 26.9018 27.4196 25.0566L26.4903 24.1339C25.561 24.1339 25.561 24.1339 24.6316 25.0566L19.0527 29.6697H18.1204C17.191 29.6697 16.2617 29.6697 16.2617 29.6697C15.3324 28.747 15.3324 27.8244 15.3324 27.8244C15.3324 26.9018 15.3324 25.9792 16.2617 25.9792L20.9113 20.4435C21.8407 18.5982 23.6993 18.5982 24.6316 19.5208C26.4903 20.4435 28.3489 22.2887 31.1399 25.9792V26.9018H32.0692C34.8572 26.9018 38.5775 26.9018 41.3685 25.9792ZM49.7354 25.0566C50.6647 25.0566 51.5941 25.0566 52.5264 25.0566C53.4557 25.0566 53.4557 25.9792 53.4557 27.8244C52.5264 26.9018 51.5941 26.9018 51.5941 25.9792C50.6647 25.9792 49.7354 25.0566 49.7354 25.0566Z" fill="#363737"></path>
  <path d="M70.581 12.3839C70.581 12.3839 70.1896 43.0447 70.581 53.9732C70.9755 64.9018 70.7783 72.0357 70.581 80.8542C70.3838 89.6726 70.4107 93.0387 70.4107 93.0387H64.6644C64.6644 93.0387 65.6475 75.8185 66.2512 61.9494C66.8548 48.0834 67.04 28.3482 66.6456 21.2024C66.2512 14.0536 66.4484 12.3839 66.4484 12.3839H70.581Z" fill="#363737"></path>
  <path d="M65.5968 90.7857H168.779V93.5923H65.5968V90.7857ZM65.5968 85.5923H168.779V88.3959H65.5968V85.5923Z" fill="#363737"></path>
  <path d="M70.581 12.3839C70.581 12.3839 70.1896 43.0447 70.581 53.9732C70.9755 64.9018 70.7783 72.0357 70.581 80.8542C70.3838 89.6726 70.4107 93.0387 70.4107 93.0387H64.6644C64.6644 93.0387 65.6475 75.8185 66.2512 61.9494C66.8548 48.0834 67.04 28.3482 66.6456 21.2024C66.2512 14.0536 66.4484 12.3839 66.4484 12.3839H70.581Z" fill="#363737"></path>
  <path d="M65.5968 90.7857H168.779V93.5923H65.5968V90.7857ZM65.5968 85.5923H168.779V88.3959H65.5968V85.5923Z" fill="#363737"></path>
</svg>
