<?xml version="1.0" encoding="UTF-8"?>
<svg xmlns="http://www.w3.org/2000/svg" xmlns:xlink="http://www.w3.org/1999/xlink" id="Layer_2" data-name="Layer 2" viewBox="0 0 159.31 289.76">
  <defs>
    <style>
      .cls-1 {
        fill: none;
      }

      .cls-2 {
        clip-path: url(#clippath);
      }

      .cls-3 {
        fill: #fcbc5a;
        fill-rule: evenodd;
      }
    </style>
    <clipPath id="clippath">
      <rect class="cls-1" width="159.31" height="289.76"></rect>
    </clipPath>
  </defs>
  <g id="Layer_1-2" data-name="Layer 1">
    <g class="cls-2">
      <path class="cls-3" d="M123.43,42.26h9.03c3.01,3.02,3.01,6.04,3.01,9.05q-3.01,0-6.02-3.02c-3.01,0-3.01-3.02-6.02-6.04Z"></path>
      <path class="cls-3" d="M108.39,21.13c-9.03,0-18.05,3.02-21.06,3.02-6.02,0,3.01,12.07,3.01,15.09l-9.03,3.02h-3.01s-9.03-15.09-6.02-21.13c0,0,0-3.02,3.01-3.02,6.02-3.02,12.03-6.04,18.05-6.04,3.01,0,21.06,0,18.05,9.05h-3.01Zm-36.1,156.95c24.07,15.09,39.11,30.18,51.15,42.26,9.03,12.07,15.04,27.17,15.04,36.22-3.01-6.04-9.03-15.09-18.05-18.11-30.09-15.09-3.01-12.07-45.13-9.05-12.03,3.02-24.07,24.15-24.07,24.15l-3.01,3.02c-3.01,0-3.01-3.02-3.01-3.02,3.01-3.02,6.02-9.05,3.01-12.07,0-6.04-3.01-9.05-6.02-12.07h-3.01c-6.02,0-12.03,0-15.04,3.02-6.02,3.02-9.03,9.05-12.03,15.09v6.04h-3.01c-3.01-18.11,0-39.24,6.02-60.37,3.01-24.15,12.03-48.29,24.07-72.44,9.03-21.13,12.03-36.22,15.04-48.29,0-12.07,0-21.13-6.02-27.16h-3.01c-3.01,0,0,3.02-3.01,3.02l-18.05,12.07c-3.01,3.02-6.02,3.02-6.02,3.02-3.01,0-6.02-3.02-6.02-3.02q-3.01-3.02-3.01-6.04s0-3.02,3.01-6.04l15.04-12.07c3.01-6.04,12.03-12.07,15.04-9.05,12.03,6.04,15.04,12.07,21.06,24.15h30.09c6.02,0,12.03-3.02,18.05-3.02,3.01,6.04,12.03,12.07,18.05,15.09,0,3.02-3.01,6.04-6.02,9.05-6.02,6.04-12.03,15.09-24.07,27.16-18.05,15.09-30.09,27.16-36.1,42.26-6.02,12.07-3.01,24.15,9.03,33.2v3.02Zm63.18,6.04c9.03,6.04,12.03,12.07,12.03,18.11s-3.01,12.07-12.03,18.11q0-3.02-3.01-3.02c6.02-6.04,6.02-9.05,6.02-15.09s0-12.07-3.01-18.11l-3.01-3.02c3.01,0,3.01,3.02,3.01,3.02Z"></path>
      <path d="M126.44,42.26h9.03c3.01,0,3.01,3.02,3.01,9.05-3.01-3.02-6.02-3.02-6.02-6.04-3.01,0-6.02-3.02-6.02-3.02Zm-27.08,3.02h15.04c6.02,3.02,9.03,6.04,12.03,9.05,3.01,0,6.02,3.02,9.03,3.02-3.01,3.02-3.01,6.04-6.02,12.07-6.02,6.04-15.04,15.09-24.07,24.15-21.06,15.09-30.09,30.18-36.1,42.26-6.02,15.09-3.01,27.16,9.03,36.22,24.07,15.09,39.11,30.18,51.15,45.27,9.03,12.07,15.04,24.15,15.04,36.22-3.01-9.05-9.03-15.09-18.05-21.13-6.02-3.02-15.04-6.04-24.07-6.04-9.03-3.02-21.06,0-27.08,6.04-12.03,6.04-21.06,21.13-21.06,21.13h-3.01v-3.02c3.01-6.04,3.01-9.05,3.01-15.09,0-3.02-3.01-6.04-9.03-9.06-6.02-3.02-12.03,0-15.04,3.02-6.02,3.02-9.03,9.05-12.03,15.09v6.04h-3.01v-3.02c-3.01-18.11,0-36.22,3.01-60.37,6.02-21.13,15.04-45.27,27.08-72.44,9.03-18.11,12.03-33.2,15.04-45.27,0-12.07-3.01-21.13-6.02-27.16l-3.01-3.02q-3.01,0-6.02,3.02l-18.05,15.09h-9.03c-3.01-3.02-3.01-6.04-3.01-6.04,0-3.02,0-6.04,3.01-6.04l15.04-18.11c3.01-6.04,9.03-6.04,12.03-3.02,6.02,3.02,12.03,9.05,21.06,21.13v3.02h3.01c9.03,0,21.06,0,30.09-3.02Zm-12.03-6.04h-3.01s-9.03-18.11-6.02-21.13q0-3.02,3.01-6.04c6.02-3.02,12.03-3.02,18.05-3.02,3.01,0,21.06,0,18.05,6.04q0,3.02-3.01,3.02h-3.01c-9.03,0-15.04,0-18.05,3.02-9.03,0-9.03,3.02-9.03,9.05l3.01,9.05Zm57.16,187.14c9.03-9.05,15.04-18.11,15.04-24.15,0-9.05-3.01-18.11-15.04-24.15-3.01-6.04-6.02-6.04-9.03-9.05h-6.02c0,3.02-3.01,3.02-3.01,6.04s3.01,6.04,6.02,12.07c3.01,3.02,3.01,9.05,3.01,12.07s-3.01,6.04-3.01,9.05c-12.03-12.07-27.08-27.16-48.14-42.26-9.03-6.04-12.03-15.09-6.02-27.17,3.01-12.07,15.04-24.15,33.09-39.24,9.03-9.05,18.05-18.11,24.07-27.16,6.02-6.04,9.03-15.09,9.03-18.11v-3.02c3.01-6.04,0-12.07-6.02-15.09-3.01-3.02-12.03-3.02-21.06,0-6.02,0-12.03,3.02-21.06,3.02-3.01-9.05-3.01-12.07-3.01-12.07h18.05c3.01,0,6.02,0,9.03-3.02,3.01,0,3.01-3.02,3.01-6.04,3.01,0,3.01-3.02,3.01-6.04C123.43,3.02,108.39,0,99.36,0s-15.04,3.02-21.06,6.04h-3.01c-3.01,3.02-6.02,6.04-6.02,9.05v12.07c3.01,3.02,3.01,6.04,6.02,12.07h-3.01c-9.03-12.07-15.04-18.11-24.07-21.13-6.02-6.04-15.04-3.02-21.06,3.02l-15.04,18.11c-3.01,3.02-6.02,9.06-6.02,12.07s3.01,6.04,6.02,9.06c3.01,3.02,6.02,6.04,9.03,6.04,6.02,0,9.03,0,12.03-3.02l15.04-15.09c3.01,6.04,3.01,12.07,3.01,21.13-3.01,9.06-6.02,24.15-15.04,42.26-12.03,27.16-18.05,51.31-24.07,75.46-6.02,21.13-9.03,42.26-6.02,60.37,0,3.02,0,6.04,3.01,9.05h12.03c3.01-3.02,3.01-6.04,3.01-6.04l3.01-3.02c0-6.04,3.01-9.06,6.02-12.07,3.01-3.02,6.02-3.02,9.03-3.02q3.01,3.02,3.01,6.04c3.01,3.02,0,6.04,0,9.06v6.04q0,3.02,3.01,3.02c0,3.02,3.01,3.02,3.01,3.02h6.02c9.03-3.02,9.03-15.09,21.06-21.13,6.02-3.02,15.04-6.04,24.07-6.04,6.02,0,15.04,3.02,21.06,6.04,12.03,9.06,12.03,21.13,15.04,24.15h9.03l3.01-3.02v-6.04c3.01-9.05,0-18.11-6.02-27.17Zm-6.02-12.07c3.01-3.02,3.01-9.05,6.02-12.07,0-6.04-3.01-12.07-6.02-18.11v-3.02l3.01,3.02c6.02,6.04,9.03,12.07,9.03,18.11,0,3.02-3.01,9.06-12.03,15.09v-3.02Z"></path>
    </g>
  </g>
</svg>
