<svg xmlns="http://www.w3.org/2000/svg" width="73" height="70" viewBox="0 0 73 70" fill="none"><path d="M59.9798 31.1943C59.9798 31.1943 64.2297 27.2089 63.8984 26.2178C63.5672 25.2197 46.4548 16.9397 41.3028 15.0278C35.9746 11.3096 25.3322 6.04493 24.3314 5.85515C23.3306 5.66537 8.42812 24.9104 6.60271 30.0415C5.7781 32.8531 10.5989 36.6627 10.5989 36.6627C10.5989 36.6627 8.27306 40.142 8.27306 41.4705C8.27306 42.7989 26.4144 53.5953 31.2211 55.8867C36.0278 58.1781 42.7938 63.4568 43.6395 63.6185C44.4642 63.7731 63.8702 40.1701 63.9055 36.6627C63.9337 33.5138 59.9798 31.1943 59.9798 31.1943ZM59.9798 31.1943C59.9798 31.1943 64.2297 27.2089 63.8984 26.2178C63.5672 25.2197 46.4548 16.9397 41.3028 15.0278C35.9746 11.3096 25.3322 6.04493 24.3314 5.85515C23.3306 5.66537 8.42812 24.9104 6.60271 30.0415C5.7781 32.8531 10.5989 36.6627 10.5989 36.6627C10.5989 36.6627 8.27306 40.142 8.27306 41.4705C8.27306 42.7989 26.4144 53.5953 31.2211 55.8867C36.0278 58.1781 42.7938 63.4568 43.6395 63.6185C44.4642 63.7731 63.8702 40.1701 63.9055 36.6627C63.9337 33.5138 59.9798 31.1943 59.9798 31.1943Z" fill="#F1BC5A"></path><path d="M63.25 30.2594C63.25 30.2594 67.4998 26.2741 67.1686 25.283C66.8373 24.2849 49.725 16.0049 44.573 14.093C39.2377 10.3747 28.6024 5.11714 27.6016 4.92736C26.6008 4.73758 5.14687 26.9418 3.32146 32.0799C2.49685 34.8915 7.31763 38.7011 7.31763 38.7011C7.31763 38.7011 4.98477 42.1804 4.98477 43.5089C4.98477 44.8373 23.1261 55.6337 27.9328 57.9251C33.1624 60.4203 39.5055 65.4952 40.3513 65.6568C41.1759 65.8115 67.1334 39.2423 67.1686 35.7349C67.1968 32.586 63.25 30.2594 63.25 30.2594Z" stroke="#363737" stroke-width="1.9871" stroke-miterlimit="10"></path><path d="M53.4181 40.0296C50.4227 42.7357 43.6638 48.647 41.6692 50.9032C39.6676 53.1665 40.8939 53.272 40.6684 53.4969C36.8907 53.4969 43.551 48.0917 48.5339 43.8884C53.5168 39.6852 63.2359 30.2454 63.2359 30.2454C63.3768 30.8639 56.4135 37.3305 53.4181 40.0296ZM62.4253 39.6219C62.4253 39.6219 65.0119 37.0493 63.6799 35.8896C62.3478 34.7368 52.6287 46.5735 50.6271 48.5697C48.6255 50.5588 40.7318 58.5928 38.1593 57.5174C35.5939 56.442 22.4143 48.1128 20.3351 46.9882C18.256 45.8635 7.31763 38.7081 7.31763 38.7081C7.31763 38.7081 11.0107 42.2648 22.6328 49.0757C34.6072 56.1116 37.5673 58.5928 39.3152 58.0867C41.0631 57.5947 48.1603 52.3652 51.5856 48.4783C55.0109 44.5913 58.3446 40.0225 62.1646 36.9861C62.8623 36.5151 63.3204 36.0512 63.6094 36.4659C63.8984 36.8877 63.1231 38.5113 62.4253 39.6219ZM46.1094 35.8122C46.1094 35.8122 37.9902 33.9004 30.0895 34.6454C22.1958 35.3905 15.7892 38.3778 15.7892 38.3778C15.7892 38.3778 24.6837 35.6435 30.5828 35.3132C36.4819 34.9688 46.1094 35.8122 46.1094 35.8122ZM29.0464 30.2594C29.0464 30.2594 18.7071 31.0045 12.8855 28.1859C16.4517 30.4211 25.0009 31.8269 29.0464 30.2594Z" fill="#363737" stroke="#363737" stroke-width="0.9935" stroke-miterlimit="10"></path></svg>