<?xml version="1.0" encoding="UTF-8"?>
<svg xmlns="http://www.w3.org/2000/svg" id="Layer_2" data-name="Layer 2" viewBox="0 0 237 69">
  <defs>
    <style>
      .cls-1 {
        fill: #fcbc5a;
      }

      .cls-2 {
        fill: none;
        stroke: #363737;
        stroke-width: 2px;
      }
    </style>
  </defs>
  <g id="Layer_1-2" data-name="Layer 1">
    <path class="cls-1" d="m.06,7.56s-4.36-3.77,63.26-3.77c67.62,0,172.68,3.77,172.68,3.77v52.72s-21.89,3.77-56.42,3.77S.06,60.28.06,60.28V7.56Z"></path>
    <path class="cls-2" d="m1.03,4.31v-.03c.42-.22,1.69-.67,5.06-1.16,7.23-1.05,23.03-2.13,57.16-2.13,34.1,0,77.67,1.08,112.73,2.15,17.53.54,32.92,1.08,43.93,1.48,5.5.2,9.91.37,12.95.49,1.31.05,2.36.09,3.13.12v58.7c-.65.11-1.57.27-2.75.45-2.58.4-6.4.93-11.3,1.47-9.8,1.07-23.95,2.14-41.27,2.14s-62.68-1.08-103.66-2.16c-20.48-.54-39.88-1.08-54.15-1.48-7.14-.2-12.99-.37-17.06-.49-2.04-.06-3.63-.11-4.71-.14h-.07V4.31Z"></path>
  </g>
</svg>
