<svg xmlns="http://www.w3.org/2000/svg" width="296" height="289" viewBox="0 0 296 289" fill="none"><path d="M2.32837 38.0515C2.32837 32.7741 2.00081 12.0636 5.11264 10.2409C8.37887 8.32765 7.64984 6.4167 11.6736 4.36537C16.8818 1.7102 19.5403 1.94369 25.0893 0.986971C36.2551 -0.938175 46.5811 0.54631 57.9233 0.54631H113.447C137.206 0.54631 161.371 1.42763 185.323 1.42763C195.341 1.42763 205.788 2.06971 215.729 3.23924C228.816 4.77891 241.13 5.83424 254.36 5.83424C259.563 5.83424 271.743 3.87753 275.267 7.98858C276.192 9.06818 277.672 8.23831 278.547 9.75123C279.806 11.9242 281.414 13.906 282.758 16.0184C285.54 20.3896 285.794 22.5217 285.794 27.6714C285.794 32.7513 286.493 37.7348 286.675 42.6539C286.801 46.0499 287.002 49.0802 287.997 52.3974C288.953 55.5833 288.641 59.2363 289.809 62.2388C291.311 66.1026 291.082 69.6219 291.082 73.745C291.082 77.3181 291.128 80.895 291.082 84.4677C291.037 87.9119 289.44 90.9083 289.319 94.1623C288.546 115.042 289.319 136.096 289.319 156.981C289.319 163.689 291.082 170.163 291.082 176.811C291.082 181.965 290.542 187.512 291.474 192.577C293.726 204.823 293.726 217.53 293.726 230.004V230.082C293.726 236.489 293.17 242.613 292.893 248.981C292.733 252.683 290.201 255.525 290.201 258.774C290.201 261.395 289.806 263.479 288.634 265.824C283.935 275.221 275.102 279.543 266.601 283.94C256.308 289.264 244.145 287.857 232.915 287.857C219.564 287.857 205.229 289.208 191.933 287.808C183.779 286.95 175.16 285.213 167.011 285.213C159.781 285.213 152.482 284.919 145.272 285.409C131.578 286.341 118.179 290.178 104.34 288.641C101.168 288.288 98.6861 286.976 95.4284 286.976C93.3666 286.976 90.9857 287.294 88.9654 286.927C83.4373 285.922 77.5584 286.255 71.8286 285.409C61.158 283.835 50.2094 283.451 39.4155 283.451C34.2739 283.451 29.4985 283.219 24.482 282.129C17.7158 280.658 13.9304 278.708 9.45055 273.756C7.34468 271.429 7.23663 267.934 5.43564 265.433C3.79706 263.157 2.23868 261.244 0.931105 258.774C-0.632196 255.821 0.245632 250.975 0.245632 247.708V210.693V142.243C0.245632 117.566 3.20969 92.8893 3.20969 68.2122C3.20969 58.0878 2.32837 48.1713 2.32837 38.0515Z" fill="#FCBC5A"></path><rect x="4.84875" y="2.6463" width="289.14" height="278.203" rx="8.75" stroke="#363737" stroke-opacity="0.9" stroke-width="2.5"></rect></svg>