<svg xmlns="http://www.w3.org/2000/svg" width="73" height="69" viewBox="0 0 73 69" fill="none"><path d="M35.2128 2.27619V1.41785H9.33521V2.27619C9.33521 4.45783 11.2469 6.2389 13.5704 6.2389H30.962C33.3011 6.24605 35.2128 4.46498 35.2128 2.27619Z" stroke="#363737" stroke-width="1.6559" stroke-miterlimit="10"></path><path d="M29.0736 33.7418V40.0364L27.2863 39.3211C26.5947 39.0636 25.9885 38.5629 25.53 37.9406C25.0948 37.3469 24.8151 36.7031 24.8151 36.138V6.24609H21.2715V36.138C21.2715 37.3755 21.7844 38.7059 22.6236 39.8218C23.4629 40.9162 24.613 41.8604 25.8875 42.3611L29.0736 43.62V49.3208C29.0736 49.9646 29.6331 50.4867 30.3248 50.4867H30.5268V32.5759H30.3248C29.6409 32.5759 29.0736 33.0981 29.0736 33.7418Z" stroke="#363737" stroke-width="1.6559" stroke-miterlimit="10"></path><path d="M55.3706 62.6609H33.4485C32.6636 62.6609 32.0264 62.0744 32.0264 61.352V26.4673C32.0264 25.7449 32.6636 25.1583 33.4485 25.1583H55.3706C56.1555 25.1583 56.7927 25.7449 56.7927 26.4673V61.3448C56.7927 62.0744 56.1555 62.6609 55.3706 62.6609Z" fill="#F1BC5A"></path><path d="M58.4013 58.8342C58.4013 59.6854 57.6864 60.3792 56.8083 60.3792H35.2125C34.3344 60.3792 33.6194 59.6854 33.6194 58.8342V24.2213C33.6194 23.3701 34.3344 22.6763 35.2125 22.6763H56.8083C57.6864 22.6763 58.4013 23.3701 58.4013 24.2213V58.8342ZM45.9987 65.9585C45.1595 65.9585 44.4678 65.3147 44.4678 64.535C44.4678 63.7268 45.1595 63.0902 45.9987 63.0902C46.8613 63.0902 47.5529 63.7339 47.5529 64.535C47.5529 65.3219 46.8691 65.9585 45.9987 65.9585ZM40.5668 18.4489H51.454C51.7571 18.4489 52.0135 18.685 52.0135 18.9711C52.0135 19.2572 51.7571 19.4933 51.454 19.4933H40.5668C40.2637 19.4933 40.0073 19.2572 40.0073 18.9711C40.0073 18.685 40.2637 18.4489 40.5668 18.4489ZM57.088 15.502H34.9328C32.5082 15.502 30.5188 17.3331 30.5188 19.5863V63.4621C30.5188 65.7153 32.5082 67.5679 34.9328 67.5679H57.088C59.5126 67.5679 61.502 65.7153 61.502 63.4621V19.5863C61.502 17.3331 59.5126 15.502 57.088 15.502Z" stroke="#363737" stroke-width="1.6559" stroke-miterlimit="10"></path><path d="M62.1861 32.5758H62.0073V50.4795H62.1861C62.901 50.4795 63.4605 49.9573 63.4605 49.3136V33.7417C63.4605 33.098 62.901 32.5758 62.1861 32.5758Z" fill="#363737" stroke="#363737" stroke-width="0.3312" stroke-miterlimit="10"></path><path d="M30.0913 50.4795H30.2701V32.5758H30.0913C29.3764 32.5758 28.8169 33.098 28.8169 33.7417V49.3207C28.8169 49.9573 29.3764 50.4795 30.0913 50.4795Z" fill="#363737" stroke="#363737" stroke-width="0.3312" stroke-miterlimit="10"></path></svg>