<?xml version="1.0" encoding="UTF-8"?>
<svg xmlns="http://www.w3.org/2000/svg" width="64" height="64" viewBox="0 0 64 64" fill="none">
  <path d="M43.7997 6.7754C51.045 10.0927 56.7079 16.561 58.9423 24.0728C59.9605 27.4936 60.2913 31.0745 60.3936 34.6366C60.5726 40.904 60.002 47.6406 56.2635 52.954C52.9965 57.5973 47.754 60.7451 42.2717 62.2672C29.4675 65.8215 13.6824 64.4861 5.78666 52.7876C-0.96309 42.7855 -1.43939 28.0774 4.73656 17.7347C12.1272 5.35527 30.7781 0.81556 43.7997 6.7754Z" fill="#FCBC5A"></path>
  <circle cx="32" cy="32" r="31.25" stroke="#363737" stroke-width="1.5"></circle>
  <circle cx="32" cy="32" r="29" fill="#F1E6D6"></circle>
  <path d="M46.9989 42.4555V47.5739C47.0009 48.0491 46.9034 48.5194 46.7126 48.9548C46.5219 49.3901 46.2421 49.7809 45.8913 50.1021C45.5405 50.4234 45.1263 50.6679 44.6753 50.8202C44.2243 50.9724 43.7464 51.0289 43.2722 50.9861C38.0118 50.4157 32.9587 48.6217 28.5191 45.7484C24.3887 43.1289 20.8867 39.6339 18.2621 35.5116C15.373 31.0607 13.575 25.9931 13.0139 20.7195C12.9712 20.2477 13.0273 19.7722 13.1788 19.3233C13.3304 18.8743 13.5739 18.4618 13.8939 18.1119C14.2139 17.762 14.6034 17.4825 15.0376 17.2911C15.4718 17.0997 15.9411 17.0006 16.4158 17.0002H21.5443C22.374 16.992 23.1783 17.2852 23.8073 17.8251C24.4364 18.365 24.8472 19.1148 24.9634 19.9347C25.1798 21.5727 25.5813 23.181 26.16 24.7289C26.39 25.3396 26.4398 26.0032 26.3035 26.6413C26.1671 27.2793 25.8504 27.865 25.3907 28.3288L23.2197 30.4956C25.6532 34.767 29.1969 38.3036 33.4767 40.7323L35.6478 38.5656C36.1126 38.1069 36.6994 37.7907 37.3387 37.6547C37.978 37.5186 38.643 37.5683 39.2549 37.7978C40.8059 38.3754 42.4173 38.7761 44.0586 38.9921C44.889 39.109 45.6474 39.5265 46.1895 40.1651C46.7317 40.8036 47.0197 41.6188 46.9989 42.4555Z" fill="#FCBC5A"></path>
  <path d="M48.9989 40.4555V45.5739C49.0009 46.0491 48.9034 46.5194 48.7126 46.9547C48.5219 47.3901 48.2421 47.7809 47.8913 48.1021C47.5405 48.4234 47.1263 48.6679 46.6753 48.8202C46.2243 48.9724 45.7464 49.0289 45.2722 48.9862C40.0118 48.4157 34.9587 46.6217 30.5191 43.7484C26.3887 41.1289 22.8867 37.6339 20.2621 33.5116C17.373 29.0607 15.575 23.9931 15.0139 18.7195C14.9712 18.2477 15.0273 17.7722 15.1788 17.3233C15.3304 16.8743 15.5739 16.4618 15.8939 16.1119C16.2139 15.762 16.6034 15.4825 17.0376 15.2911C17.4718 15.0997 17.9411 15.0006 18.4158 15.0002H23.5443C24.374 14.992 25.1783 15.2852 25.8073 15.8251C26.4364 16.365 26.8472 17.1148 26.9634 17.9347C27.1798 19.5727 27.5813 21.181 28.16 22.7289C28.39 23.3396 28.4398 24.0032 28.3035 24.6413C28.1671 25.2793 27.8504 25.865 27.3907 26.3288L25.2197 28.4956C27.6532 32.767 31.1969 36.3036 35.4767 38.7323L37.6478 36.5656C38.1126 36.1069 38.6994 35.7907 39.3387 35.6547C39.978 35.5186 40.643 35.5683 41.2549 35.7978C42.8059 36.3754 44.4173 36.7761 46.0586 36.9921C46.889 37.109 47.6474 37.5265 48.1895 38.1651C48.7317 38.8036 49.0197 39.6188 48.9989 40.4555Z" stroke="#363737" stroke-width="2" stroke-linecap="round" stroke-linejoin="round"></path>
</svg>
