<?xml version="1.0" encoding="UTF-8"?>
<svg xmlns="http://www.w3.org/2000/svg" width="64" height="64" viewBox="0 0 64 64" fill="none">
  <path d="M43.7996 6.7754C51.0449 10.0927 56.7077 16.561 58.9422 24.0728C59.9603 27.4936 60.2912 31.0745 60.3935 34.6366C60.5725 40.904 60.0019 47.6406 56.2634 52.954C52.9964 57.5973 47.7539 60.7451 42.2716 62.2672C29.4674 65.8215 13.6823 64.4861 5.78654 52.7876C-0.963212 42.7855 -1.43951 28.0774 4.73643 17.7347C12.1271 5.35527 30.778 0.81556 43.7996 6.7754Z" fill="#FCBC5A"></path>
  <circle cx="32" cy="32" r="31.25" stroke="#363737" stroke-width="1.5"></circle>
  <circle cx="32" cy="32" r="29" fill="#F1E6D6"></circle>
  <path d="M43 33.3182C43 44.4545 29 54 29 54C29 54 15 44.4545 15 33.3182C15 29.5208 16.475 25.8789 19.1005 23.1937C21.726 20.5085 25.287 19 29 19C32.713 19 36.274 20.5085 38.8995 23.1937C41.525 25.8789 43 29.5208 43 33.3182Z" fill="#FCBC5A"></path>
  <path d="M45 30.3182C45 41.4545 30.5 51 30.5 51C30.5 51 16 41.4545 16 30.3182C16 26.5208 17.5277 22.8789 20.247 20.1937C22.9662 17.5085 26.6544 16 30.5 16C34.3456 16 38.0338 17.5085 40.753 20.1937C43.4723 22.8789 45 26.5208 45 30.3182Z" stroke="#363737" stroke-width="2" stroke-linecap="round" stroke-linejoin="round"></path>
  <path d="M31 35C33.7614 35 36 32.9853 36 30.5C36 28.0147 33.7614 26 31 26C28.2386 26 26 28.0147 26 30.5C26 32.9853 28.2386 35 31 35Z" stroke="#363737" stroke-width="2" stroke-linecap="round" stroke-linejoin="round"></path>
</svg>
