<?xml version="1.0" encoding="UTF-8"?>
<svg xmlns="http://www.w3.org/2000/svg" id="Layer_2" data-name="Layer 2" viewBox="0 0 175.65 117">
  <defs>
    <style>
      .cls-1 {
        fill: #fcbc5a;
      }

      .cls-2 {
        fill: none;
        stroke: #363737;
        stroke-width: 2px;
      }
    </style>
  </defs>
  <g id="Layer_1-2" data-name="Layer 1">
    <path class="cls-1" d="M.3,4.34S-2.84,0,45.87,0c48.71,0,124.39,4.34,124.39,4.34V106.66s-15.77,4.34-40.64,4.34S.3,106.66,.3,106.66V4.34Z"></path>
    <path class="cls-2" d="M172.14,5.26c1.08,.06,1.93,.11,2.51,.14V111.77c-.49,.12-1.21,.29-2.16,.5-1.91,.41-4.73,.97-8.35,1.52-7.25,1.11-17.7,2.21-30.49,2.21s-46.22-1.11-76.43-2.23c-15.1-.56-29.39-1.11-39.91-1.53-5.26-.21-9.58-.38-12.58-.5-1.5-.06-2.67-.11-3.47-.14h-.26V4.46c.34-.25,1.33-.74,3.87-1.25C10.24,2.12,21.93,1,47.09,1c25.15,0,57.27,1.11,83.11,2.23,12.92,.56,24.27,1.11,32.38,1.53,4.06,.21,7.31,.38,9.55,.5Z"></path>
  </g>
</svg>
