<svg xmlns="http://www.w3.org/2000/svg" width="73" height="70" viewBox="0 0 73 70" fill="none"><path d="M43.9713 10.567C36.3288 6.2253 28.7822 6.48403 20.9822 10.9141C23.2831 4.96949 27.0907 2.04139 32.1788 1.87731C37.5409 1.70062 41.3142 4.33844 43.9713 10.567Z" fill="#F5BC5A"></path><path d="M46.5258 10.0242C38.8834 5.68257 31.3299 5.94131 23.5367 10.3713C25.8377 4.43308 29.6453 1.49866 34.7334 1.33459C40.0955 1.15789 43.8688 3.79571 46.5258 10.0242Z" stroke="#363737" stroke-width="1.6559" stroke-miterlimit="10" stroke-linejoin="round"></path><path d="M63.0298 55.8769C60.948 48.1654 58.9278 40.4349 57.2842 32.6351C56.3871 28.325 54.1272 25.7944 49.6554 24.1915C42.4581 21.6105 42.5813 21.3896 46.2999 15.0728C46.697 14.3975 48.0941 13.5645 46.745 12.7378C45.2726 11.8354 44.9097 13.2616 44.3413 14.0631C42.2937 16.9533 41.1501 20.5503 37.0344 21.8061C36.2194 22.0522 36.5276 22.8663 36.5276 23.4406C36.5139 37.8224 36.5413 52.2041 36.4797 66.5859C36.4728 68.0752 36.9179 68.5422 38.5409 68.4917C42.0198 68.3845 45.5192 68.2709 48.9775 68.5107C52.3399 68.7442 52.9973 67.4694 52.6138 64.6865C51.2579 54.9493 50.0526 45.1868 48.8542 35.4307C48.7241 34.3516 47.8201 32.6414 49.902 32.4079C51.7989 32.1996 51.3469 33.9098 51.4839 34.9195C52.6344 43.5271 53.7369 52.141 54.8668 60.8623C56.798 60.5089 58.5237 60.0861 60.2837 59.8967C63.1257 59.6001 63.7146 58.4074 63.0298 55.8769ZM39.2805 27.9779C39.2874 27.4667 39.2805 26.9556 39.2805 26.4507C39.2942 26.4507 39.3079 26.4507 39.3216 26.4507C39.3216 25.7376 39.2463 25.0182 39.3422 24.3114C39.4449 23.5289 39.938 22.9925 40.8899 23.0556C41.739 23.1061 41.9787 23.693 41.9992 24.3304C42.0472 25.5546 42.0609 26.7789 42.0335 28.0031C42.0129 28.8803 42.28 30.073 40.8625 30.1424C39.3079 30.2244 39.2737 29.0444 39.2805 27.9779ZM47.2654 59.8084C46.6217 60.3006 45.9575 60.0293 45.4781 59.5938C43.4853 57.8079 41.5336 55.9842 39.575 54.1667C39.0409 53.6682 38.9587 53.0245 39.3627 52.4818C39.7736 51.9328 40.5474 51.693 41.1021 52.1852C43.3415 54.1667 45.5123 56.2177 47.69 58.256C47.827 58.3885 47.8407 58.6283 47.9776 58.9754C47.7859 59.2089 47.5805 59.5686 47.2654 59.8084Z" stroke="#363737" stroke-width="1.6559" stroke-miterlimit="10"></path><path d="M33.3021 21.8124C29.0837 20.4493 28.0085 16.6882 25.865 13.7412C25.3651 13.0597 25.0775 12.1636 23.8585 12.7126C22.4067 13.3626 23.5504 14.063 23.8448 14.7004C24.8858 16.928 27.9058 18.9474 26.9813 21.1814C26.091 23.3333 22.4821 23.4784 20.1469 24.6332C19.8524 24.7784 19.5442 24.9172 19.2292 25.0056C15.8805 25.9963 14.2986 28.1798 13.5795 31.3035C11.9497 38.3777 9.96373 45.3761 8.32018 52.4439C6.58076 59.9156 5.21799 59.089 13.9014 60.6287C14.3397 60.7045 14.7779 60.7991 15.5038 60.9443C15.7983 58.6914 16.0517 56.7414 16.2982 54.7978C17.1748 47.9129 18.0513 41.0281 18.9142 34.1433C19.0169 33.2977 19.0717 32.3574 20.2975 32.3826C21.7767 32.4079 21.6877 33.4617 21.6055 34.4146C21.5507 35.0331 21.4275 35.6452 21.3453 36.2636C20.1195 45.8178 18.969 55.3783 17.6405 64.9262C17.2501 67.7218 18.2636 68.6495 21.27 68.4728C24.6255 68.2708 28.0153 68.3403 31.3778 68.4602C33.1925 68.5233 33.8705 68.1572 33.8568 66.3083C33.7678 52.1221 33.8157 37.9359 33.7883 23.7498C33.7952 23.0935 34.2471 22.1153 33.3021 21.8124ZM28.1523 25.2959C28.2824 24.3619 27.8578 23.0114 29.5973 23.0808C30.9737 23.1376 30.8779 24.2546 30.9463 25.157C30.9806 25.5609 31.0285 25.99 30.9395 26.3813C30.6245 27.7128 31.8845 30.0793 29.4124 30.054C27.1182 30.0351 28.7412 27.6876 28.1386 26.8987C28.1386 26.1099 28.0975 25.6997 28.1523 25.2959ZM30.3985 54.4886C28.6933 56.1104 26.9402 57.6943 25.2008 59.2846C24.5297 59.8967 23.7901 60.4016 22.8861 59.6822C21.9068 58.8933 22.5506 58.1992 23.1806 57.5997C24.8858 55.9778 26.632 54.3876 28.3578 52.7847C28.933 52.2483 29.5562 51.857 30.4259 52.2167C30.871 52.3998 31.1175 52.7027 31.0833 53.4852C30.9669 53.6619 30.7614 54.1478 30.3985 54.4886Z" stroke="#363737" stroke-width="1.6559" stroke-miterlimit="10"></path></svg>