<svg xmlns="http://www.w3.org/2000/svg" xmlns:xlink="http://www.w3.org/1999/xlink" width="643" zoomAndPan="magnify" viewBox="0 0 482.25 56.999997" height="76" preserveAspectRatio="xMidYMid meet" version="1.0"><defs><clipPath id="caf7246cf1"><path d="M 0 0.0429688 L 481.5 0.0429688 L 481.5 56.953125 L 0 56.953125 Z M 0 0.0429688 " clip-rule="nonzero"/></clipPath><clipPath id="109167c8bd"><path d="M 0 0.0429688 L 481.5 0.0429688 L 481.5 56.953125 L 0 56.953125 Z M 0 0.0429688 " clip-rule="nonzero"/></clipPath><clipPath id="c594c03ae6"><path d="M -488.160156 -71.855469 L 819.300781 -47.3125 L 814.183594 225.417969 L -493.28125 200.875 Z M -488.160156 -71.855469 " clip-rule="nonzero"/></clipPath><clipPath id="81d86d7183"><path d="M 0.109375 -9.472656 L 483.382812 -0.402344 L 482.132812 66.28125 L -1.144531 57.210938 Z M 0.109375 -9.472656 " clip-rule="nonzero"/></clipPath><clipPath id="f13565e0ee"><path d="M -488.257812 -71.800781 L 819.203125 -47.257812 L 814.085938 225.472656 L -493.378906 200.929688 Z M -488.257812 -71.800781 " clip-rule="nonzero"/></clipPath><clipPath id="7efbfbbe71"><rect x="0" width="482" y="0" height="57"/></clipPath></defs><g clip-path="url(#caf7246cf1)"><g transform="matrix(1, 0, 0, 1, 0, 0.000000000000014197)"><g clip-path="url(#7efbfbbe71)"><g clip-path="url(#109167c8bd)"><g clip-path="url(#c594c03ae6)"><g clip-path="url(#81d86d7183)"><g clip-path="url(#f13565e0ee)"><path fill="#363737" d="M 56.734375 3.335938 C -168.574219 8.238281 -430.847656 98.960938 -533.820312 143.707031 L -532.238281 200.058594 C -429.265625 155.3125 -166.992188 64.589844 58.316406 59.691406 C 339.953125 53.5625 610.125 120.53125 856.019531 9.898438 L 854.433594 -46.453125 C 608.550781 64.179688 338.367188 -2.789062 56.734375 3.335938 Z M 56.734375 3.335938 " fill-opacity="1" fill-rule="nonzero"/><path fill="#ffffff" d="M -534.875 169.730469 C -524.648438 165.285156 -513.453125 160.644531 -501.292969 155.808594 L -500.285156 158.34375 C -512.421875 163.167969 -523.589844 167.796875 -533.792969 172.230469 Z M -467.417969 142.785156 C -456.261719 138.636719 -444.847656 134.511719 -433.179688 130.421875 L -432.28125 132.996094 C -443.933594 137.082031 -455.328125 141.199219 -466.46875 145.34375 Z M -398.757812 118.6875 L -364.191406 107.5625 L -363.355469 110.160156 L -397.921875 121.285156 Z M -329.421875 97.011719 L -294.511719 87.058594 L -293.765625 89.683594 L -328.675781 99.636719 Z M -259.375 77.695312 C -247.527344 74.652344 -235.753906 71.742188 -224.0625 68.964844 L -223.433594 71.621094 C -235.109375 74.390625 -246.867188 77.296875 -258.699219 80.339844 Z M -188.566406 60.90625 C -176.5625 58.304688 -164.679688 55.863281 -152.917969 53.570312 L -152.398438 56.25 C -164.140625 58.535156 -176.007812 60.976562 -187.992188 63.574219 Z M -117.136719 47.023438 C -105.003906 44.945312 -93.03125 43.046875 -81.21875 41.328125 L -80.828125 44.027344 C -92.617188 45.746094 -104.566406 47.640625 -116.679688 49.710938 Z M -45.136719 36.570312 C -32.859375 35.125 -20.789062 33.886719 -8.925781 32.859375 L -8.691406 35.574219 C -20.527344 36.601562 -32.570312 37.835938 -44.816406 39.277344 Z M 27.371094 30.320312 C 37.140625 29.8125 46.746094 29.453125 56.191406 29.246094 L 63.652344 29.101562 L 63.707031 31.828125 L 56.25 31.972656 C 46.832031 32.179688 37.253906 32.535156 27.515625 33.046875 Z M 100.023438 28.847656 L 136.359375 29.269531 L 136.328125 31.996094 L 99.988281 31.578125 Z M 172.699219 30.246094 L 208.980469 31.660156 L 208.875 34.386719 L 172.589844 32.972656 Z M 245.308594 33.398438 L 281.640625 35.335938 L 281.496094 38.0625 L 245.164062 36.125 Z M 318 37.347656 L 354.175781 39.292969 L 354.027344 42.015625 L 317.855469 40.070312 Z M 390.402344 41.050781 L 426.675781 42.480469 L 426.570312 45.207031 L 390.292969 43.773438 Z M 462.953125 43.445312 C 475.507812 43.679688 487.617188 43.796875 499.277344 43.789062 L 499.28125 46.519531 C 487.601562 46.523438 475.476562 46.40625 462.902344 46.171875 Z M 535.5625 43.363281 C 547.972656 43.066406 560.050781 42.617188 571.792969 42.007812 L 571.933594 44.730469 C 560.164062 45.339844 548.0625 45.792969 535.628906 46.089844 Z M 608.003906 39.554688 C 620.300781 38.519531 632.328125 37.28125 644.089844 35.851562 L 644.417969 38.558594 C 632.625 39.996094 620.5625 41.234375 608.230469 42.273438 Z M 679.976562 30.734375 C 692.082031 28.746094 703.960938 26.523438 715.613281 24.058594 L 716.175781 26.726562 C 704.484375 29.199219 692.5625 31.433594 680.414062 33.425781 Z M 750.886719 15.691406 C 762.683594 12.582031 774.285156 9.191406 785.691406 5.53125 L 786.523438 8.128906 C 775.070312 11.804688 763.421875 15.207031 751.578125 18.332031 Z M 819.871094 -6.492188 C 831.203125 -10.832031 842.367188 -15.476562 853.363281 -20.425781 L 854.480469 -17.9375 C 843.4375 -12.96875 832.222656 -8.304688 820.84375 -3.941406 Z M 819.871094 -6.492188 " fill-opacity="1" fill-rule="nonzero"/></g></g></g></g></g></g></g></svg>