<svg xmlns="http://www.w3.org/2000/svg" xmlns:xlink="http://www.w3.org/1999/xlink" width="377" viewBox="0 0 282.96 283.499996" height="377" preserveAspectRatio="xMidYMid meet"><defs><clipPath id="b9e38f1f8d"><path d="M 97.789062 135.78125 L 125.171875 135.78125 L 125.171875 158.882812 L 97.789062 158.882812 Z M 97.789062 135.78125 " clip-rule="nonzero"></path></clipPath><clipPath id="e9a73009ba"><path d="M 111.480469 135.78125 C 103.917969 135.78125 97.789062 140.921875 97.789062 147.265625 C 97.789062 153.605469 103.917969 158.75 111.480469 158.75 C 119.042969 158.75 125.171875 153.605469 125.171875 147.265625 C 125.171875 140.921875 119.042969 135.78125 111.480469 135.78125 " clip-rule="nonzero"></path></clipPath><clipPath id="b2c63acec8"><path d="M 112.589844 120.554688 L 139.972656 120.554688 L 139.972656 143.65625 L 112.589844 143.65625 Z M 112.589844 120.554688 " clip-rule="nonzero"></path></clipPath><clipPath id="018a930ec2"><path d="M 126.28125 120.554688 C 118.71875 120.554688 112.589844 125.695312 112.589844 132.039062 C 112.589844 138.378906 118.71875 143.523438 126.28125 143.523438 C 133.84375 143.523438 139.972656 138.378906 139.972656 132.039062 C 139.972656 125.695312 133.84375 120.554688 126.28125 120.554688 " clip-rule="nonzero"></path></clipPath><clipPath id="9f6fa52929"><path d="M 106 129 L 134 129 L 134 157 L 106 157 Z M 106 129 " clip-rule="nonzero"></path></clipPath><clipPath id="9ac9f87237"><path d="M 101.871094 136.089844 L 126.40625 124.921875 L 137.574219 149.457031 L 113.039062 160.625 Z M 101.871094 136.089844 " clip-rule="nonzero"></path></clipPath><clipPath id="9ce93d10d3"><path d="M 114.140625 130.503906 C 107.363281 133.589844 104.371094 141.582031 107.453125 148.355469 C 110.539062 155.132812 118.53125 158.125 125.304688 155.042969 C 132.082031 151.957031 135.074219 143.964844 131.988281 137.191406 C 128.90625 130.414062 120.914062 127.421875 114.140625 130.503906 " clip-rule="nonzero"></path></clipPath><clipPath id="3f1b1cddd4"><path d="M 154 124 L 180 124 L 180 151 L 154 151 Z M 154 124 " clip-rule="nonzero"></path></clipPath><clipPath id="6a2a4cb8dc"><path d="M 149.570312 139.488281 L 168.355469 119.566406 L 185.164062 135.417969 L 166.378906 155.339844 Z M 149.570312 139.488281 " clip-rule="nonzero"></path></clipPath><clipPath id="b5a641460f"><path d="M 158.964844 129.527344 C 153.777344 135.03125 153.3125 143.015625 157.925781 147.367188 C 162.542969 151.71875 170.488281 150.789062 175.675781 145.285156 C 180.863281 139.785156 181.328125 131.796875 176.710938 127.445312 C 172.097656 123.09375 164.152344 124.027344 158.964844 129.527344 " clip-rule="nonzero"></path></clipPath><clipPath id="c8ef7621cf"><path d="M 148 107 L 175 107 L 175 134 L 148 134 Z M 148 107 " clip-rule="nonzero"></path></clipPath><clipPath id="ebde1b72e5"><path d="M 143.707031 122.628906 L 162.492188 102.707031 L 179.304688 118.558594 L 160.515625 138.480469 Z M 143.707031 122.628906 " clip-rule="nonzero"></path></clipPath><clipPath id="bf2b14e6c4"><path d="M 153.101562 112.667969 C 147.914062 118.167969 147.449219 126.15625 152.0625 130.507812 C 156.679688 134.859375 164.625 133.925781 169.8125 128.425781 C 175 122.925781 175.464844 114.9375 170.847656 110.585938 C 166.234375 106.234375 158.289062 107.167969 153.101562 112.667969 " clip-rule="nonzero"></path></clipPath><clipPath id="4d50d6d776"><path d="M 98 121 L 175 121 L 175 174 L 98 174 Z M 98 121 " clip-rule="nonzero"></path></clipPath><clipPath id="776aeb550f"><path d="M 93.605469 149.300781 L 166.46875 116.144531 L 179.976562 145.828125 L 107.113281 178.984375 Z M 93.605469 149.300781 " clip-rule="nonzero"></path></clipPath><clipPath id="542f9d3a3b"><path d="M 108.117188 142.699219 L 151.824219 122.808594 C 159.835938 119.160156 169.289062 122.699219 172.9375 130.714844 C 176.582031 138.726562 173.042969 148.179688 165.03125 151.828125 L 121.320312 171.71875 C 113.308594 175.363281 103.855469 171.824219 100.210938 163.8125 C 96.5625 155.796875 100.101562 146.34375 108.117188 142.699219 " clip-rule="nonzero"></path></clipPath><clipPath id="eb5bd7ebba"><path d="M 161 111 L 181 111 L 181 138 L 161 138 Z M 161 111 " clip-rule="nonzero"></path></clipPath><clipPath id="1127eef862"><path d="M 157.199219 115.675781 L 173.300781 108.347656 L 184.46875 132.882812 L 168.367188 140.210938 Z M 157.199219 115.675781 " clip-rule="nonzero"></path></clipPath><clipPath id="75c7d96de2"><path d="M 165.222656 112.023438 C 160.792969 114.042969 159.699219 121.167969 162.78125 127.945312 C 165.867188 134.71875 171.957031 138.578125 176.390625 136.558594 C 180.820312 134.542969 181.914062 127.417969 178.828125 120.640625 C 175.746094 113.867188 169.65625 110.007812 165.222656 112.023438 " clip-rule="nonzero"></path></clipPath><clipPath id="65a5e3b957"><path d="M 135 135 L 171 135 L 171 167 L 135 167 Z M 135 135 " clip-rule="nonzero"></path></clipPath><clipPath id="6cc19b5269"><path d="M 130.214844 144.753906 L 163.183594 129.75 L 175.570312 156.96875 L 142.601562 171.972656 Z M 130.214844 144.753906 " clip-rule="nonzero"></path></clipPath><clipPath id="46e58a984d"><path d="M 146.546875 137.320312 C 137.527344 141.425781 132.960938 150.789062 136.347656 158.234375 C 139.738281 165.679688 149.796875 168.386719 158.816406 164.28125 C 167.835938 160.175781 172.398438 150.8125 169.011719 143.371094 C 165.625 135.925781 155.566406 133.214844 146.546875 137.320312 " clip-rule="nonzero"></path></clipPath><clipPath id="25a4c58f80"><path d="M 106 166 L 123 166 L 123 184 L 106 184 Z M 106 166 " clip-rule="nonzero"></path></clipPath><clipPath id="b2a58ea4fd"><path d="M 103.730469 178.40625 L 115.898438 163.476562 L 125.621094 171.402344 L 113.449219 186.332031 Z M 103.730469 178.40625 " clip-rule="nonzero"></path></clipPath><clipPath id="02a17fd051"><path d="M 109.742188 171.03125 C 106.421875 175.101562 105.835938 180.125 108.4375 182.242188 C 111.035156 184.363281 115.835938 182.777344 119.15625 178.703125 C 122.476562 174.628906 123.0625 169.609375 120.460938 167.492188 C 117.863281 165.371094 113.0625 166.957031 109.742188 171.03125 " clip-rule="nonzero"></path></clipPath><clipPath id="82017cf3ab"><path d="M 80 24 L 207 24 L 207 270 L 80 270 Z M 80 24 " clip-rule="nonzero"></path></clipPath><clipPath id="d85ad725e4"><path d="M 43.269531 42.066406 L 123.535156 5.539062 L 233.433594 247.019531 L 153.164062 283.546875 Z M 43.269531 42.066406 " clip-rule="nonzero"></path></clipPath><clipPath id="42b24ba8ff"><path d="M 43.269531 42.066406 L 123.535156 5.539062 L 233.433594 247.019531 L 153.164062 283.546875 Z M 43.269531 42.066406 " clip-rule="nonzero"></path></clipPath><clipPath id="24fa2f7250"><path d="M 43.269531 42.066406 L 123.535156 5.539062 L 233.433594 247.019531 L 153.164062 283.546875 Z M 43.269531 42.066406 " clip-rule="nonzero"></path></clipPath><clipPath id="df939e5d61"><path d="M 81 19 L 209 19 L 209 265 L 81 265 Z M 81 19 " clip-rule="nonzero"></path></clipPath><clipPath id="e52c682950"><path d="M 44.824219 36.640625 L 125.089844 0.113281 L 234.984375 241.59375 L 154.71875 278.121094 Z M 44.824219 36.640625 " clip-rule="nonzero"></path></clipPath><clipPath id="254661ac7c"><path d="M 44.824219 36.640625 L 125.089844 0.113281 L 234.984375 241.59375 L 154.71875 278.121094 Z M 44.824219 36.640625 " clip-rule="nonzero"></path></clipPath><clipPath id="46db6e96d9"><path d="M 44.824219 36.640625 L 125.089844 0.113281 L 234.984375 241.59375 L 154.71875 278.121094 Z M 44.824219 36.640625 " clip-rule="nonzero"></path></clipPath></defs><g clip-path="url(#b9e38f1f8d)"><g clip-path="url(#e9a73009ba)"><path fill="#fcbc5a" d="M 97.789062 135.78125 L 125.171875 135.78125 L 125.171875 158.882812 L 97.789062 158.882812 Z M 97.789062 135.78125 " fill-opacity="1" fill-rule="nonzero"></path></g></g><g clip-path="url(#b2c63acec8)"><g clip-path="url(#018a930ec2)"><path fill="#fcbc5a" d="M 112.589844 120.554688 L 139.972656 120.554688 L 139.972656 143.65625 L 112.589844 143.65625 Z M 112.589844 120.554688 " fill-opacity="1" fill-rule="nonzero"></path></g></g><g clip-path="url(#9f6fa52929)"><g clip-path="url(#9ac9f87237)"><g clip-path="url(#9ce93d10d3)"><path fill="#fcbc5a" d="M 101.871094 136.089844 L 126.40625 124.921875 L 137.574219 149.457031 L 113.039062 160.625 Z M 101.871094 136.089844 " fill-opacity="1" fill-rule="nonzero"></path></g></g></g><g clip-path="url(#3f1b1cddd4)"><g clip-path="url(#6a2a4cb8dc)"><g clip-path="url(#b5a641460f)"><path fill="#fcbc5a" d="M 149.570312 139.488281 L 168.355469 119.566406 L 185.164062 135.417969 L 166.378906 155.339844 Z M 149.570312 139.488281 " fill-opacity="1" fill-rule="nonzero"></path></g></g></g><g clip-path="url(#c8ef7621cf)"><g clip-path="url(#ebde1b72e5)"><g clip-path="url(#bf2b14e6c4)"><path fill="#fcbc5a" d="M 143.707031 122.628906 L 162.492188 102.707031 L 179.304688 118.558594 L 160.515625 138.480469 Z M 143.707031 122.628906 " fill-opacity="1" fill-rule="nonzero"></path></g></g></g><g clip-path="url(#4d50d6d776)"><g clip-path="url(#776aeb550f)"><g clip-path="url(#542f9d3a3b)"><path fill="#fcbc5a" d="M 93.605469 149.300781 L 166.46875 116.144531 L 179.976562 145.828125 L 107.113281 178.984375 Z M 93.605469 149.300781 " fill-opacity="1" fill-rule="nonzero"></path></g></g></g><g clip-path="url(#eb5bd7ebba)"><g clip-path="url(#1127eef862)"><g clip-path="url(#75c7d96de2)"><path fill="#fcbc5a" d="M 157.199219 115.675781 L 173.300781 108.347656 L 184.46875 132.882812 L 168.367188 140.210938 Z M 157.199219 115.675781 " fill-opacity="1" fill-rule="nonzero"></path></g></g></g><g clip-path="url(#65a5e3b957)"><g clip-path="url(#6cc19b5269)"><g clip-path="url(#46e58a984d)"><path fill="#fcbc5a" d="M 130.214844 144.753906 L 162.800781 129.921875 L 175.015625 156.757812 L 142.425781 171.589844 Z M 130.214844 144.753906 " fill-opacity="1" fill-rule="nonzero"></path></g></g></g><g clip-path="url(#25a4c58f80)"><g clip-path="url(#b2a58ea4fd)"><g clip-path="url(#02a17fd051)"><path fill="#fcbc5a" d="M 103.730469 178.40625 L 115.617188 163.824219 L 124.988281 171.464844 L 113.101562 186.046875 Z M 103.730469 178.40625 " fill-opacity="1" fill-rule="nonzero"></path></g></g></g><g clip-path="url(#82017cf3ab)"><g clip-path="url(#d85ad725e4)"><g clip-path="url(#42b24ba8ff)"><g clip-path="url(#24fa2f7250)"><path fill="#fcbc5a" d="M 164.515625 103.550781 C 131.203125 53.886719 87.386719 25.679688 86.875 25.351562 C 85.167969 24.273438 82.628906 25.429688 82.316406 27.425781 C 82.1875 28.082031 73.351562 88.617188 94.699219 151.964844 C 94.699219 151.964844 94.710938 151.992188 94.710938 151.992188 C 97.160156 159.25 99.992188 166.566406 103.285156 173.800781 C 123.246094 217.664062 154.832031 249.847656 177.84375 269.121094 C 177.960938 269.234375 178.105469 269.265625 178.238281 269.339844 C 178.421875 269.453125 178.605469 269.570312 178.804688 269.644531 C 179.003906 269.71875 179.191406 269.699219 179.378906 269.746094 C 179.550781 269.765625 179.738281 269.816406 179.925781 269.796875 C 180.15625 269.789062 180.375 269.691406 180.589844 269.660156 C 180.738281 269.625 180.875 269.628906 181.011719 269.566406 L 204.652344 258.808594 C 204.980469 258.65625 205.246094 258.4375 205.496094 258.191406 C 205.5625 258.128906 205.621094 258.035156 205.691406 257.972656 C 205.859375 257.761719 206.015625 257.527344 206.132812 257.273438 C 206.160156 257.195312 206.203125 257.140625 206.234375 257.0625 C 206.335938 256.785156 206.414062 256.449219 206.398438 256.125 C 206.953125 226.128906 203.445312 181.132812 183.5 137.296875 C 178.097656 125.429688 171.792969 114.398438 165.042969 104.269531 C 164.863281 104.019531 164.710938 103.757812 164.515625 103.550781 Z M 200.398438 254.160156 L 180.21875 263.339844 C 161.09375 247.09375 136.417969 222.058594 117.734375 188.96875 L 129.191406 171.707031 C 131.746094 167.832031 136.324219 165.945312 140.863281 166.859375 L 151.4375 169.03125 C 158.160156 170.40625 165.082031 167.652344 169.109375 161.949219 L 180.183594 144.929688 C 197.328125 185.207031 200.75 225.972656 200.398438 254.160156 Z M 169.476562 123.066406 L 156.414062 141.582031 C 153.828125 145.242188 149.304688 147.035156 144.917969 146.152344 L 134.339844 143.984375 C 127.402344 142.574219 120.382812 145.472656 116.472656 151.355469 L 106.542969 166.332031 C 104.46875 161.484375 102.625 156.632812 100.980469 151.789062 L 112.339844 134.671875 C 114.933594 130.8125 119.511719 128.925781 124.046875 129.839844 L 134.625 132.011719 C 141.347656 133.382812 148.265625 130.632812 152.238281 125.019531 L 162.191406 110.894531 C 164.710938 114.84375 167.148438 118.894531 169.476562 123.066406 Z M 109.445312 172.851562 L 121.46875 154.738281 C 124.023438 150.863281 128.605469 148.980469 133.152344 149.921875 L 143.730469 152.089844 C 150.453125 153.464844 157.34375 150.722656 161.316406 145.109375 L 172.695312 128.980469 C 174.28125 132.03125 175.835938 135.160156 177.285156 138.339844 L 164.136719 158.550781 C 161.523438 162.222656 157 164.015625 152.613281 163.136719 L 142.035156 160.964844 C 135.070312 159.570312 128.0625 162.492188 124.179688 168.363281 L 114.492188 183 C 112.742188 179.660156 111.042969 176.292969 109.445312 172.851562 Z M 87.664062 33.164062 C 98.976562 41.152344 132.054688 66.402344 158.628906 105.535156 L 147.335938 121.558594 C 144.722656 125.230469 140.199219 127.023438 135.808594 126.144531 L 125.234375 123.972656 C 118.296875 122.566406 111.265625 125.433594 107.335938 131.359375 L 98.585938 144.570312 C 83.15625 94.8125 86.152344 47.949219 87.664062 33.164062 Z M 87.664062 33.164062 " fill-opacity="1" fill-rule="nonzero"></path></g></g></g></g><g clip-path="url(#df939e5d61)"><g clip-path="url(#e52c682950)"><g clip-path="url(#254661ac7c)"><g clip-path="url(#46db6e96d9)"><path fill="#363737" d="M 166.070312 98.125 C 132.757812 48.460938 88.941406 20.253906 88.429688 19.925781 C 86.722656 18.847656 84.183594 20.003906 83.871094 22 C 83.738281 22.65625 74.90625 83.191406 96.253906 146.539062 C 96.253906 146.539062 96.265625 146.566406 96.265625 146.566406 C 98.714844 153.824219 101.546875 161.140625 104.839844 168.375 C 124.800781 212.238281 156.386719 244.421875 179.394531 263.695312 C 179.511719 263.808594 179.660156 263.839844 179.792969 263.914062 C 179.976562 264.027344 180.160156 264.144531 180.359375 264.21875 C 180.558594 264.292969 180.746094 264.273438 180.933594 264.320312 C 181.105469 264.339844 181.292969 264.390625 181.480469 264.371094 C 181.710938 264.363281 181.929688 264.265625 182.144531 264.234375 C 182.292969 264.199219 182.425781 264.203125 182.5625 264.140625 L 206.207031 253.382812 C 206.535156 253.230469 206.796875 253.011719 207.046875 252.765625 C 207.117188 252.703125 207.175781 252.609375 207.246094 252.546875 C 207.414062 252.335938 207.570312 252.101562 207.683594 251.847656 C 207.714844 251.769531 207.757812 251.714844 207.785156 251.636719 C 207.890625 251.359375 207.96875 251.023438 207.953125 250.699219 C 208.503906 220.703125 205 175.707031 185.054688 131.871094 C 179.652344 120.003906 173.347656 108.972656 166.59375 98.84375 C 166.414062 98.59375 166.261719 98.332031 166.070312 98.125 Z M 201.949219 248.734375 L 181.773438 257.914062 C 162.648438 241.667969 137.972656 216.632812 119.289062 183.542969 L 130.746094 166.28125 C 133.300781 162.40625 137.878906 160.519531 142.414062 161.433594 L 152.992188 163.605469 C 159.714844 164.980469 166.636719 162.226562 170.664062 156.523438 L 181.738281 139.503906 C 198.878906 179.78125 202.304688 220.546875 201.949219 248.734375 Z M 171.027344 117.640625 L 157.96875 136.15625 C 155.382812 139.816406 150.859375 141.609375 146.472656 140.726562 L 135.894531 138.558594 C 128.957031 137.148438 121.9375 140.046875 118.023438 145.929688 L 108.097656 160.90625 C 106.023438 156.058594 104.179688 151.207031 102.535156 146.363281 L 113.894531 129.246094 C 116.484375 125.386719 121.066406 123.5 125.601562 124.414062 L 136.179688 126.585938 C 142.902344 127.960938 149.820312 125.207031 153.792969 119.59375 L 163.742188 105.46875 C 166.265625 109.417969 168.703125 113.46875 171.027344 117.640625 Z M 111 167.425781 L 123.023438 149.3125 C 125.578125 145.4375 130.15625 143.554688 134.707031 144.496094 L 145.28125 146.664062 C 152.003906 148.039062 158.898438 145.296875 162.871094 139.683594 L 174.246094 123.554688 C 175.832031 126.605469 177.390625 129.734375 178.835938 132.914062 L 165.691406 153.125 C 163.078125 156.796875 158.554688 158.589844 154.164062 157.710938 L 143.589844 155.539062 C 136.625 154.144531 129.617188 157.066406 125.730469 162.9375 L 116.046875 177.574219 C 114.292969 174.234375 112.597656 170.867188 111 167.425781 Z M 89.21875 27.738281 C 100.53125 35.726562 133.609375 60.976562 160.183594 100.109375 L 148.890625 116.132812 C 146.277344 119.804688 141.753906 121.597656 137.363281 120.71875 L 126.785156 118.546875 C 119.851562 117.140625 112.820312 120.007812 108.890625 125.933594 L 100.140625 139.148438 C 84.710938 89.386719 87.707031 42.523438 89.21875 27.738281 Z M 89.21875 27.738281 " fill-opacity="1" fill-rule="nonzero"></path></g></g></g></g></svg>