<?xml version="1.0" encoding="UTF-8"?>
<svg xmlns="http://www.w3.org/2000/svg" width="90" height="90" viewBox="0 0 90 90" fill="none">
  <path d="M67.399 7.77692C73.9388 10.7708 79.0504 16.6086 81.0673 23.3881C81.9863 26.4755 82.2849 29.7073 82.3773 32.9222C82.5389 38.5786 82.0238 44.6585 78.6493 49.4539C75.7004 53.6445 70.9683 56.4855 66.0197 57.8592C54.4621 61.067 40.2138 59.8618 33.0868 49.3038C26.9942 40.2767 26.5643 27.0023 32.1389 17.6679C38.8101 6.49523 55.6451 2.39806 67.399 7.77692Z" fill="#FCBC5A"></path>
  <path d="M31.6845 25.5313C30.2528 31.71 30.9474 38.3744 33.5632 44.1344C34.6667 46.5652 36.6772 48.6946 35.1649 51.3689C34.7502 52.1025 29.1347 58.0704 29.0102 57.8863C28.5017 57.1364 27.9932 56.3865 27.4847 55.6366C20.5035 63.1132 13.5237 70.5898 6.54253 78.0664C5.54458 79.1356 4.52759 80.2329 3.93556 81.5768C3.345 82.9206 3.24975 84.5837 4.06598 85.8014C5.12401 87.3784 7.38514 87.7065 9.15682 87.068C10.9285 86.4295 12.3265 85.0485 13.6644 83.7076C20.5474 76.8027 27.4305 69.8993 34.312 62.9944C33.7185 62.6291 33.1236 62.2638 32.5301 61.9C34.0189 60.6096 35.5063 59.3207 36.9952 58.0303C37.8803 57.2626 40.2616 54.3581 41.3826 54.2675C42.3278 54.1903 44.4043 56.0866 45.3187 56.5588C46.7314 57.2893 48.207 57.8952 49.7193 58.3793C55.729 60.3067 62.3292 60.3364 68.3813 58.5797C73.944 56.9656 79.2253 53.7819 82.5518 48.8951C87.7467 41.267 87.4741 29.4025 84.64 20.9399C82.7746 15.3684 79.2151 10.284 74.2781 7.18649C69.9083 4.44681 64.0686 3.00494 58.9661 2.67084C51.5247 2.18527 45.3905 5.28876 40.1854 10.489C36.0734 14.5978 33.0093 19.8187 31.6845 25.5313Z" stroke="#363737" stroke-width="3" stroke-miterlimit="10" stroke-linecap="round" stroke-linejoin="round"></path>
</svg>
